<svg width="51" height="51" viewBox="0 0 51 51" fill="none" xmlns="http://www.w3.org/2000/svg">
<g clip-path="url(#clip0_24_513)">
<path d="M48.8985 27.5282C52.0711 39.7602 46.0122 49.7256 24.2517 49.7256C4.04605 49.7256 -0.885737 38.5363 0.761314 27.5282C3.32622 14.7315 15.4243 12.2412 22.0607 3.96818C23.2123 2.53248 25.4388 2.42321 26.6618 3.78528C33.9284 11.8786 45.3711 13.9282 48.8985 27.5282Z" fill="#AFACE1"/>
<path d="M45.1828 28.099C47.8605 38.0098 42.7467 46.0843 24.3803 46.0843C7.32624 46.0843 3.16368 37.0182 4.55383 28.099C6.38866 19.3112 17.0123 14.2565 22.1294 12.301C23.9222 11.616 25.8508 11.5926 27.6492 12.2591C32.6002 14.094 42.6931 18.8841 45.1828 28.099Z" fill="#FFF6D8"/>
<path d="M42.4352 28.4826C44.747 37.3959 40.332 44.6576 24.4754 44.6576C9.75182 44.6576 6.15811 36.504 7.3583 28.4826C9.38768 18.3578 23.4648 17.6536 24.424 17.6173C24.4606 17.6159 24.4903 17.6153 24.5269 17.6153C25.4896 17.6131 39.6552 17.764 42.4352 28.4826Z" fill="#ECA0AB"/>
<path d="M16.8849 28.2329C16.9206 28.7462 16.79 29.1908 16.2308 29.333C15.6614 29.4771 15.1418 29.3788 14.8269 28.8092C14.4097 28.0544 13.9775 27.3083 13.5518 26.5574C13.1693 25.8818 13.362 25.3236 14.0113 24.9534C14.6428 24.5927 15.1859 24.8999 15.4913 25.4219C16.0213 26.3255 16.7853 27.1346 16.8849 28.2338V28.2329Z" fill="#E58A97"/>
<path d="M22.9689 29.6137C23.0046 30.1271 22.874 30.5717 22.3148 30.7139C21.7454 30.858 21.2258 30.7597 20.9109 30.19C20.4937 29.4353 20.0615 28.6892 19.6358 27.9382C19.2534 27.2627 19.4459 26.7045 20.0953 26.3343C20.7268 25.9736 21.2699 26.2808 21.5753 26.8028C22.1053 27.7063 22.8693 28.5155 22.9689 29.6147V29.6137Z" fill="#E58A97"/>
<path d="M33.6093 27.0884C33.1413 27.1276 32.7358 26.9843 32.6062 26.3711C32.4749 25.7466 32.5645 25.1767 33.0839 24.8315C33.7721 24.3739 34.4524 23.8998 35.1372 23.433C35.7531 23.0135 36.2621 23.2248 36.5997 23.937C36.9286 24.6295 36.6484 25.2252 36.1725 25.5601C35.3486 26.1413 34.6108 26.9791 33.6085 27.0884H33.6093Z" fill="#E58A97"/>
<path d="M31.8545 40.7481C31.3864 40.7873 30.981 40.644 30.8513 40.0308C30.72 39.4062 30.8096 38.8364 31.329 38.4912C32.0172 38.0336 32.6976 37.5595 33.3823 37.0926C33.9983 36.6732 34.5072 36.8845 34.8448 37.5966C35.1737 38.2892 34.8935 38.8848 34.4176 39.2198C33.5937 39.801 32.8559 40.6388 31.8537 40.7481H31.8545Z" fill="#E58A97"/>
<path d="M38.787 32.3708C39.0519 32.7958 39.1415 33.2525 38.7221 33.6821C38.2946 34.1192 37.7998 34.319 37.2674 33.9984C36.5621 33.5735 35.8475 33.1644 35.1365 32.7475C34.4973 32.3721 34.4096 31.7831 34.8032 31.1065C35.1857 30.4478 35.7961 30.416 36.2985 30.7006C37.1695 31.1925 38.1999 31.4743 38.7874 32.3716L38.787 32.3708Z" fill="#E58A97"/>
<path d="M15.7405 38.5546C15.3128 38.7669 14.8872 38.7844 14.5742 38.2568C14.256 37.7192 14.1624 37.1501 14.5428 36.6309C15.0468 35.9428 15.5383 35.2421 16.0361 34.5466C16.4842 33.9214 17.0283 33.929 17.5676 34.4716C18.0926 34.999 18.0151 35.6638 17.6724 36.157C17.0794 37.0123 16.6475 38.0763 15.7396 38.5549L15.7405 38.5546Z" fill="#E58A97"/>
<path d="M27.8514 34.0126C27.4237 34.2249 26.998 34.2424 26.685 33.7148C26.3668 33.1773 26.2733 32.6081 26.6537 32.0889C27.1577 31.4008 27.6492 30.7001 28.147 30.0046C28.5951 29.3794 29.1392 29.387 29.6785 29.9296C30.2035 30.457 30.126 31.1218 29.7833 31.615C29.1903 32.4703 28.7583 33.5343 27.8505 34.0129L27.8514 34.0126Z" fill="#E58A97"/>
<path d="M26.5655 25.1705C26.3623 25.6346 26.0465 25.9481 25.4975 25.7646C24.9386 25.5771 24.5334 25.2071 24.5205 24.5411C24.5033 23.6587 24.4691 22.7755 24.4428 21.8918C24.4195 21.097 24.8409 20.7192 25.572 20.7547C26.2833 20.7886 26.6136 21.3525 26.6402 21.972C26.6872 23.0452 26.9799 24.1648 26.565 25.1714L26.5655 25.1705Z" fill="#E58A97"/>
<path d="M24.1463 39.9093C23.8728 40.3277 23.5121 40.5762 23.0004 40.291C22.4798 39.9999 22.1393 39.5583 22.232 38.9C22.3547 38.0278 22.461 37.1515 22.575 36.2762C22.6779 35.489 23.1527 35.1972 23.8671 35.3714C24.5622 35.5402 24.7982 36.1585 24.7263 36.7736C24.6026 37.8394 24.7136 38.9978 24.1457 39.91L24.1463 39.9093Z" fill="#E58A97"/>
</g>
<defs>
<clipPath id="clip0_24_513">
<rect width="50" height="50" fill="white" transform="translate(0.286621 0.140625)"/>
</clipPath>
</defs>
</svg>
