<?xml version="1.0" encoding="UTF-8"?>
<svg id="Layer_2" data-name="Layer 2" xmlns="http://www.w3.org/2000/svg" xmlns:xlink="http://www.w3.org/1999/xlink" viewBox="0 0 100.73 103.83">
  <defs>
    <style>
      .cls-1 {
        fill: url(#linear-gradient);
      }

      .cls-2 {
        fill: #eda28c;
      }

      .cls-3 {
        fill: #fff6d9;
      }

      .cls-4 {
        fill: #ffd57f;
      }
    </style>
    <linearGradient id="linear-gradient" x1="50.37" y1="103.83" x2="50.37" y2="0" gradientUnits="userSpaceOnUse">
      <stop offset=".14" stop-color="#af4656"/>
      <stop offset=".21" stop-color="#b04c57"/>
      <stop offset=".32" stop-color="#b65f5c"/>
      <stop offset=".44" stop-color="#be7d63"/>
      <stop offset=".58" stop-color="#caa76d"/>
      <stop offset=".7" stop-color="#d7d378"/>
    </linearGradient>
  </defs>
  <g id="Layer_1-2" data-name="Layer 1">
    <g>
      <path class="cls-1" d="m65.32,15.45c-5.1-4.83-5.37-11.81-5.28-14.42.02-.57-.43-1.03-1-1.03h-17.36c-.56,0-1,.46-.98,1.01.1,2.59-.16,9.59-5.28,14.44C29.04,21.5,0,34.46,0,63.15,0,63.15,0,103.83,50.37,103.83s50.37-40.67,50.37-40.67c0-28.7-29.04-41.65-35.42-47.7Z"/>
      <path class="cls-3" d="m63.43,20.06c-3.89-3.68-5.54-8.79-6.18-11.55-.27-1.15-1.29-1.95-2.47-1.95h-8.81c-1.18,0-2.21.8-2.47,1.95-.64,2.76-2.29,7.87-6.18,11.55-5.58,5.28-30.94,16.6-30.94,41.67,0,0,0,35.53,44,35.53s44-35.53,44-35.53c0-25.07-25.37-36.39-30.94-41.67Z"/>
      <path class="cls-2" d="m50.16,27.81c-15.84,0-35.87,17.37-37.92,34.73-2.06,17.37,13.86,34.73,37.92,34.73s39.61-17.37,37.37-34.73c-2.24-17.37-22.27-34.73-37.37-34.73Z"/>
      <path class="cls-4" d="m33.34,54.52c.64.71,1.09,1.43.88,1.95-.22.53-.69.69-1.59.06-1.2-.84-2.39-1.66-3.59-2.49-1.08-.75-1.62-1.66-1.62-2.56,0-.88.74-.75,1.58-.18,1.45.99,2.95,1.7,4.35,3.22h0Z"/>
      <path class="cls-4" d="m45.7,58.25c.59.76.93,1.54.46,2.19-.47.66-1.15.92-2.12.29-1.27-.83-2.56-1.64-3.84-2.46-1.15-.74-1.54-1.74-1.22-2.81.31-1.04,1.24-1,2.14-.43,1.56.97,3.28,1.62,4.57,3.23h0Z"/>
      <path class="cls-4" d="m70.02,57.22c-.82.15-1.56.07-1.89-.66-.33-.74-.26-1.46.61-2,1.15-.71,2.28-1.45,3.42-2.17,1.03-.65,1.96-.51,2.67.29.69.78.29,1.57-.51,2.09-1.37.9-2.55,2.09-4.31,2.45h0Z"/>
      <path class="cls-4" d="m59.77,70.96c0,.65-.22,1.17-1.03,1.19-.83.03-1.57-.23-1.97-1.02-.54-1.05-1.09-2.09-1.64-3.13-.49-.94-.17-1.58.79-1.87.94-.28,1.69.24,2.08.97.69,1.26,1.71,2.47,1.77,3.86h0Z"/>
      <path class="cls-4" d="m36.5,77.14c-.55.32-1.1.34-1.5-.45-.41-.81-.53-1.66-.04-2.44.65-1.03,1.28-2.08,1.93-3.12.58-.94,1.28-.93,1.97-.11.68.79.58,1.79.14,2.53-.76,1.28-1.32,2.88-2.49,3.59h0Z"/>
      <path class="cls-4" d="m58.75,60.86c-.71.18-1.35.05-1.62-.88-.27-.95-.2-1.87.56-2.54,1-.89,1.99-1.8,2.99-2.71.9-.81,1.7-.61,2.3.43.58,1.01.22,2.01-.47,2.66-1.2,1.12-2.24,2.62-3.76,3.04h0Z"/>
      <path class="cls-4" d="m52.94,56.4c-.29.87-.74,1.46-1.52,1.11-.8-.35-1.37-1.04-1.39-2.29-.02-1.65-.07-3.31-.11-4.96-.03-1.49.57-2.2,1.61-2.13,1.01.06,1.49,1.12,1.52,2.28.07,2.01.48,4.11-.11,5.99h0Z"/>
      <path class="cls-4" d="m59.29,50.71c-.83.53-1.65.82-2.22.37-.58-.46-.74-1.1.02-1.97,1-1.16,1.98-2.33,2.96-3.49.89-1.05,1.93-1.38,2.94-1.05.98.32.8,1.18.12,2-1.18,1.42-2.06,3-3.82,4.15h0Z"/>
      <path class="cls-4" d="m43.44,50c.05.96-.12,1.79-.84,2.06-.73.27-1.41.09-1.81-.98-.54-1.41-1.1-2.81-1.65-4.22-.49-1.27-.25-2.31.59-3,.82-.68,1.52-.1,1.91.88.68,1.69,1.67,3.21,1.8,5.27h0Z"/>
      <path class="cls-4" d="m27.78,62.45c.47.45.63.92-.12,1.38-.76.46-1.65.67-2.6.33-1.26-.45-2.53-.87-3.8-1.31-1.14-.39-1.3-1.01-.59-1.72.68-.69,1.77-.72,2.67-.43,1.55.52,3.39.81,4.44,1.75h0Z"/>
      <path class="cls-4" d="m20.73,74.19c-.58-.04-.88-.33-.36-1.23.54-.91,1.26-1.69,2.23-2.07,1.29-.5,2.59-1.02,3.88-1.54,1.16-.46,1.51-.05,1.12,1.02-.38,1.05-1.36,1.83-2.27,2.2-1.58.64-3.34,1.67-4.61,1.61h0Z"/>
      <path class="cls-4" d="m73.43,73.69c.48.36.66.77-.02,1.21-.69.45-1.52.7-2.44.47-1.22-.31-2.46-.6-3.68-.89-1.11-.27-1.29-.8-.67-1.47.6-.65,1.63-.75,2.5-.55,1.5.35,3.27.48,4.32,1.24h0Z"/>
      <path class="cls-4" d="m64.18,65.34c-.67-.3-1.16-.73-1.03-1.41.13-.7.54-1.19,1.43-1.16,1.18.05,2.36.07,3.55.11,1.06.03,1.66.6,1.77,1.53.11.91-.58,1.29-1.41,1.27-1.43-.02-2.87.26-4.32-.35h0Z"/>
      <path class="cls-4" d="m42.93,85.13c-.52.81-1.11,1.42-1.74,1.3-.65-.12-.99-.58-.65-1.65.45-1.41.87-2.82,1.31-4.23.39-1.27,1.15-2.01,2.11-2.19.93-.18,1.07.62.78,1.61-.51,1.71-.71,3.41-1.8,5.16h0Z"/>
      <path class="cls-4" d="m64.58,89.52c.06.6-.11,1-.91.74-.81-.27-1.56-.77-2.03-1.65-.62-1.16-1.25-2.33-1.88-3.49-.56-1.05-.3-1.53.62-1.45.9.07,1.68.83,2.13,1.64.78,1.41,1.89,2.9,2.06,4.21h0Z"/>
      <path class="cls-4" d="m48.37,74.19c-.47.64-1,.98-1.6.4-.6-.59-.93-1.4-.64-2.48.39-1.43.76-2.87,1.14-4.3.34-1.29,1.04-1.68,1.93-1.24.86.42,1.01,1.5.75,2.51-.44,1.75-.6,3.71-1.58,5.11h0Z"/>
      <path class="cls-4" d="m57.55,81.74c.07.61-.1,1.04-.93.82-.84-.22-1.61-.69-2.1-1.56-.65-1.15-1.32-2.3-1.98-3.46-.59-1.04-.33-1.55.62-1.53.92.01,1.74.74,2.21,1.54.82,1.4,1.98,2.85,2.17,4.18h0Z"/>
      <path class="cls-4" d="m30.15,65.11c-.52-.34-.65-.77.32-1.32.99-.56,2.09-.9,3.2-.75,1.47.21,2.97.4,4.45.6,1.34.18,1.44.74.49,1.52-.92.77-2.25.98-3.31.85-1.82-.23-4.02-.2-5.17-.91h0Z"/>
      <path class="cls-4" d="m50.37,89.63c-.24.53-.6.81-1.21.34-.62-.48-1.07-1.13-1.07-2.02,0-1.17-.02-2.35-.04-3.52-.01-1.06.47-1.38,1.29-1.03.8.34,1.16,1.22,1.17,2.05.03,1.43.34,3.03-.14,4.19h0Z"/>
      <path class="cls-4" d="m68.85,82.94c.1.58-.04,1.02-.81.99-.79-.03-1.53-.32-2.03-1.05-.66-.97-1.35-1.93-2.02-2.9-.61-.87-.39-1.42.49-1.61.86-.18,1.65.34,2.13,1.01.84,1.17,1.99,2.32,2.24,3.56h0Z"/>
      <path class="cls-4" d="m32.7,86.6c-.78.38-1.52.58-1.96.18-.44-.4-.49-.92.27-1.59,1.01-.88,2-1.78,3-2.67.9-.8,1.84-1.02,2.67-.7.8.3.54.99-.15,1.62-1.19,1.09-2.15,2.31-3.82,3.16h0Z"/>
      <path class="cls-4" d="m74.15,69.41c-.83-.14-1.5-.45-1.58-1.15-.08-.71.21-1.28,1.2-1.45,1.31-.22,2.6-.46,3.91-.69,1.17-.21,2.01.22,2.43,1.1.41.86-.22,1.39-1.13,1.56-1.57.3-3.06.9-4.83.63h0Z"/>
    </g>
  </g>
</svg>