<svg width="77" height="63" viewBox="0 0 77 63" fill="none" xmlns="http://www.w3.org/2000/svg">
<path d="M58.1725 51.0871H21.0204C17.8137 51.0871 16.5505 49.8668 16.0545 48.8433C15.4526 47.6022 15.7239 46.0408 16.7603 44.7703C17.8794 43.3994 20.0158 43.0917 20.2574 43.0624C21.0077 42.9661 21.6965 43.4915 21.794 44.2345C21.8915 44.9754 21.3617 45.6536 20.6114 45.7499C20.1006 45.8189 19.2062 46.0973 18.8989 46.4719C18.5534 46.8947 18.3987 47.3991 18.5322 47.6733C18.689 47.9978 19.4351 48.3745 21.0226 48.3745H58.1746C58.9334 48.3745 59.5459 48.9815 59.5459 49.7287C59.5459 50.4759 58.9292 51.0871 58.1725 51.0871Z" fill="#585856"/>
<path d="M23.7655 62.7033C19.7661 62.7033 16.5127 59.4905 16.5127 55.541C16.5127 51.5915 19.7661 48.3787 23.7655 48.3787C27.7649 48.3787 31.0183 51.5915 31.0183 55.541C31.0183 59.4905 27.7649 62.7033 23.7655 62.7033ZM23.7655 51.087C21.2794 51.087 19.2553 53.0838 19.2553 55.541C19.2553 57.9982 21.2773 59.9949 23.7655 59.9949C26.2538 59.9949 28.2757 57.9982 28.2757 55.541C28.2757 53.0838 26.2516 51.087 23.7655 51.087Z" fill="#F57521"/>
<path d="M58.5648 62.7033C54.5654 62.7033 51.312 59.4905 51.312 55.541C51.312 51.5915 54.5654 48.3787 58.5648 48.3787C62.5642 48.3787 65.8176 51.5915 65.8176 55.541C65.8176 59.4905 62.5642 62.7033 58.5648 62.7033ZM58.5648 51.087C56.0787 51.087 54.0546 53.0838 54.0546 55.541C54.0546 57.9982 56.0766 59.9949 58.5648 59.9949C61.0531 59.9949 63.075 57.9982 63.075 55.541C63.075 53.0838 61.0509 51.087 58.5648 51.087Z" fill="#F57521"/>
<path d="M17.8287 46.9785C17.5256 46.9785 17.2225 46.8801 16.9682 46.6792C16.379 46.2082 16.2857 45.3564 16.7605 44.7724C17.4027 43.9854 18.0597 43.6715 18.6256 43.6066L12.831 9.58033C12.2312 6.05358 9.78531 3.07312 7.49205 3.07312H2.10225C1.34348 3.07312 0.730957 2.46614 0.730957 1.71893C0.730957 0.971723 1.3456 0.364746 2.10225 0.364746H7.49417C10.9044 0.364746 14.1938 3.68219 15.3171 8.088L66.7989 8.10684C71.1268 8.10893 74.8592 8.10893 75.1305 8.10893C75.6667 8.10893 76.1563 8.34963 76.4764 8.77033C76.8324 9.23916 76.9321 9.86498 76.7477 10.4908L70.3977 32.1201C69.0307 36.7771 64.139 40.8543 59.26 41.4047L28.3794 44.8792C23.8352 45.3899 20.2639 46.0219 19.7023 46.248C19.4734 46.3547 19.2275 46.3945 18.9901 46.3694C18.9626 46.3987 18.9329 46.4322 18.899 46.4761C18.6277 46.8068 18.2293 46.9785 17.8287 46.9785ZM18.2886 46.0868L18.2907 46.0889C18.2907 46.0889 18.2907 46.0868 18.2886 46.0868ZM15.8215 10.7985L21.3279 43.1252C23.494 42.7443 26.3298 42.3822 28.0678 42.1854L58.9484 38.711C62.6787 38.2903 66.7162 34.9268 67.7611 31.3666L73.7931 10.8194C72.2841 10.8194 69.6708 10.8173 66.7968 10.8173L15.8215 10.7985Z" fill="#585856"/>
</svg>
