<?xml version="1.0" encoding="UTF-8"?><svg id="_레이어_2" xmlns="http://www.w3.org/2000/svg" viewBox="0 0 71.36 69.33"><defs><style>.cls-1{fill:#333;}</style></defs><g id="_레이어_1-2"><g><path class="cls-1" d="M69.11,7.99c-.32,0-.65,0-.97,0-11.89,0-23.77,0-35.66,0-.74,0-1.31,.09-1.61-.98C29.67,2.73,25.94,0,21.59,0c-4.35,0-8.04,2.74-9.29,7.02-.24,.81-.57,1-1.34,.98-2.92-.04-5.85-.03-8.78-.01-1.42,0-2.27,.69-2.17,1.77,.13,1.3,1.03,1.6,2.18,1.59,2.83-.02,5.67,.02,8.5-.03,.9-.01,1.35,.14,1.64,1.15,1.18,4.14,4.96,6.88,9.24,6.89,4.29,0,8.05-2.72,9.26-6.86,.28-.98,.68-1.19,1.62-1.19,6.08,.04,12.16,.02,18.24,.02s12.26,0,18.38,0c1.5,0,2.27-.57,2.28-1.64,0-1.07-.79-1.68-2.25-1.71ZM21.69,16.01c-3.57,.04-6.4-2.72-6.42-6.26-.02-3.56,2.74-6.37,6.3-6.39,3.55-.02,6.35,2.78,6.35,6.33,0,3.49-2.75,6.28-6.22,6.32Z"/><path class="cls-1" d="M71.35,59.61c-.09-1.21-.88-1.65-2.01-1.62-.37,0-.74,0-1.12,0-11.88,0-23.77,0-35.65,.02-.93,0-1.43-.11-1.75-1.2-1.19-4.14-4.98-6.85-9.27-6.84-4.27,0-8.02,2.76-9.22,6.91-.26,.91-.63,1.15-1.51,1.13-2.92-.05-5.85,0-8.78-.03-1.06,0-1.84,.35-2.01,1.47-.17,1.08,.67,1.87,2.05,1.88,2.97,.03,5.94,.03,8.91-.01,.79-.01,1.09,.23,1.32,1.01,1.25,4.25,4.96,7,9.31,6.99,4.29-.01,8.03-2.74,9.24-6.9,.27-.93,.66-1.11,1.52-1.1,6.08,.03,12.16,.02,18.24,.02h13.23c1.81,0,3.62,.02,5.43,0,1.34-.02,2.15-.69,2.07-1.73Zm-49.82,6.36c-3.54-.03-6.3-2.86-6.25-6.43,.04-3.49,2.82-6.22,6.31-6.23,3.54,0,6.35,2.81,6.33,6.35-.02,3.55-2.83,6.33-6.39,6.3Z"/><path class="cls-1" d="M69.36,32.99c-1.99,.01-3.99-.03-5.99,.02-.79,.02-1.07-.21-1.29-1-1.21-4.22-5-7.05-9.28-7.06-4.29-.01-8.08,2.81-9.3,7.03-.24,.84-.61,1.03-1.42,1.03-6.64-.03-13.28-.02-19.92-.02h-7.52c-4.18,0-8.36,0-12.54,0-1.35,0-2.1,.64-2.09,1.69,.01,1.05,.76,1.63,2.13,1.65,.32,0,.65,0,.97,0,12.96,0,25.91,0,38.87,0,.72,0,1.23-.02,1.51,.92,1.26,4.36,5.01,7.16,9.35,7.13,4.29-.03,8.04-2.86,9.24-7.11,.24-.85,.6-.96,1.33-.95,1.99,.04,3.99,.01,5.99,.01,1.15,0,1.94-.5,1.92-1.7-.02-1.2-.83-1.66-1.97-1.65Zm-16.68,8.04c-3.44-.06-6.23-2.91-6.24-6.36,0-3.51,2.88-6.4,6.37-6.38,3.5,.02,6.33,2.91,6.3,6.43-.03,3.51-2.94,6.36-6.43,6.3Z"/></g></g></svg>