<svg width="146" height="135" viewBox="0 0 146 135" fill="none" xmlns="http://www.w3.org/2000/svg">
<g filter="url(#filter0_i_17_3)">
<path fill-rule="evenodd" clip-rule="evenodd" d="M145.629 67.5C145.629 87.9271 135.732 106.22 120.123 118.517L126.85 126.244C129.666 129.48 127.368 134.527 123.078 134.527H76.8297C76.5897 134.527 76.3559 134.511 76.1289 134.481C75.0915 134.522 74.0484 134.542 73.0001 134.542C32.8882 134.542 0.371094 104.526 0.371094 67.5C0.371094 30.4736 32.8882 0.457825 73.0001 0.457825C113.112 0.457825 145.629 30.4736 145.629 67.5ZM35.8665 46.9573C35.4065 47.3373 35.3565 47.7173 35.7165 48.0973L37.8465 50.3773C38.0665 50.5973 38.2665 50.6973 38.4465 50.6773C38.6265 50.6373 38.8365 50.5273 39.0765 50.3473L44.0265 46.8073L49.1565 50.0473C49.3965 50.2073 49.6165 50.3173 49.8165 50.3773C50.0165 50.4173 50.2065 50.3173 50.3865 50.0773L52.3365 47.5873C52.4965 47.3673 52.5765 47.1673 52.5765 46.9873C52.5765 46.8073 52.4465 46.6273 52.1865 46.4473L47.0565 43.2373C46.7765 43.0573 46.6265 42.7973 46.6065 42.4573C46.5865 42.0973 46.5765 41.7373 46.5765 41.3773V40.4473L50.9865 40.3573C51.4265 40.3373 51.6965 40.2673 51.7965 40.1473C51.9165 40.0073 51.9765 39.6773 51.9765 39.1573V36.9973C51.9765 36.4773 51.9165 36.1473 51.7965 36.0073C51.6965 35.8473 51.4265 35.7773 50.9865 35.7973L46.5765 35.8873V34.9273C46.5765 34.4073 46.4865 34.0573 46.3065 33.8773C46.1465 33.6773 45.8565 33.5773 45.4365 33.5773H42.6165C42.1965 33.5773 41.8965 33.6773 41.7165 33.8773C41.5565 34.0573 41.4765 34.4073 41.4765 34.9273V36.0073L37.0065 36.0973C36.5865 36.1173 36.3165 36.1973 36.1965 36.3373C36.0765 36.4573 36.0165 36.7773 36.0165 37.2973V39.4573C36.0165 39.9773 36.0765 40.3173 36.1965 40.4773C36.3165 40.6173 36.5865 40.6773 37.0065 40.6573L41.4765 40.5673V41.3773C41.4765 41.7373 41.4665 42.0873 41.4465 42.4273C41.4265 42.7673 41.2765 43.0373 40.9965 43.2373L35.8665 46.9573ZM46.5165 63.2473C47.5165 63.5473 48.6365 63.6973 49.8765 63.6973C51.1165 63.6973 52.2365 63.5473 53.2365 63.2473C54.2365 62.9673 55.0765 62.5573 55.7565 62.0173C56.4565 61.4973 56.9865 60.8573 57.3465 60.0973C57.7265 59.3573 57.9165 58.5173 57.9165 57.5773C57.9165 56.6373 57.7265 55.7973 57.3465 55.0573C56.9865 54.2973 56.4565 53.6573 55.7565 53.1373C55.0765 52.5973 54.2365 52.1873 53.2365 51.9073C52.2365 51.6073 51.1165 51.4573 49.8765 51.4573C48.6365 51.4573 47.5165 51.6073 46.5165 51.9073C45.5165 52.1873 44.6665 52.5973 43.9665 53.1373C43.2865 53.6573 42.7565 54.2973 42.3765 55.0573C42.0165 55.7973 41.8365 56.6373 41.8365 57.5773C41.8365 58.5173 42.0165 59.3573 42.3765 60.0973C42.7565 60.8573 43.2865 61.4973 43.9665 62.0173C44.6665 62.5573 45.5165 62.9673 46.5165 63.2473ZM51.8265 45.1873L54.3165 45.1273V49.0273C54.3165 49.5473 54.3965 49.9073 54.5565 50.1073C54.7365 50.2873 55.0365 50.3773 55.4565 50.3773H58.2765C58.7165 50.3773 59.0165 50.2873 59.1765 50.1073C59.3365 49.9073 59.4165 49.5473 59.4165 49.0273V36.8473C59.4165 36.3273 59.3365 35.9773 59.1765 35.7973C59.0165 35.5973 58.7165 35.4973 58.2765 35.4973H55.4565C55.0365 35.4973 54.7365 35.5973 54.5565 35.7973C54.3965 35.9773 54.3165 36.3273 54.3165 36.8473V40.8673L51.8265 40.9273C51.4665 40.9473 51.2065 41.0173 51.0465 41.1373C50.9065 41.2373 50.8365 41.4573 50.8365 41.7973V44.3173C50.8365 44.6573 50.9065 44.8973 51.0465 45.0373C51.2065 45.1573 51.4665 45.2073 51.8265 45.1873ZM52.1865 59.1073C51.7065 59.5473 50.9365 59.7673 49.8765 59.7673C48.8165 59.7673 48.0365 59.5473 47.5365 59.1073C47.0565 58.6873 46.8165 58.1773 46.8165 57.5773C46.8165 56.9773 47.0565 56.4673 47.5365 56.0473C48.0365 55.6073 48.8165 55.3873 49.8765 55.3873C50.9365 55.3873 51.7065 55.6073 52.1865 56.0473C52.6865 56.4673 52.9365 56.9773 52.9365 57.5773C52.9365 58.1773 52.6865 58.6873 52.1865 59.1073ZM65.3829 51.3973L73.003 46.8673L80.683 51.1273C81.0429 51.3273 81.323 51.4473 81.5229 51.4873C81.7229 51.5073 81.933 51.3373 82.1529 50.9773L83.743 48.2173C83.9029 47.9373 83.923 47.7173 83.8029 47.5573C83.7029 47.3773 83.5129 47.2073 83.2329 47.0473L76.573 43.3873C76.213 43.1873 75.9529 42.9773 75.793 42.7573C75.6329 42.5373 75.5529 42.1373 75.5529 41.5573V36.8473C75.5529 36.3273 75.4729 35.9773 75.313 35.7973C75.1529 35.5973 74.853 35.4973 74.4129 35.4973H71.533C71.1129 35.4973 70.813 35.5973 70.6329 35.7973C70.4729 35.9773 70.393 36.3273 70.393 36.8473V41.5573C70.393 42.1373 70.3029 42.5373 70.1229 42.7573C69.963 42.9773 69.713 43.1873 69.3729 43.3873L62.7729 47.3473C62.493 47.5073 62.2929 47.6773 62.1729 47.8573C62.0729 48.0373 62.1029 48.2573 62.2629 48.5173L63.8829 51.1873C64.1029 51.5673 64.3229 51.7573 64.5429 51.7573C64.7629 51.7373 65.0429 51.6173 65.3829 51.3973ZM63.3429 58.6573C63.5029 58.7773 63.7629 58.8373 64.1229 58.8373L81.8829 58.5373C82.243 58.5373 82.493 58.4773 82.6329 58.3573C82.7929 58.2373 82.8729 58.0073 82.8729 57.6673V54.8473C82.8729 54.5073 82.7929 54.2773 82.6329 54.1573C82.493 54.0373 82.243 53.9773 81.8829 53.9773L75.5529 54.0973V50.9773C75.5529 50.4573 75.4729 50.1073 75.313 49.9273C75.1529 49.7273 74.853 49.6273 74.4129 49.6273H71.5929C71.173 49.6273 70.8729 49.7273 70.6929 49.9273C70.533 50.1073 70.4529 50.4573 70.4529 50.9773V54.1873L64.1229 54.2773C63.7629 54.2773 63.5029 54.3373 63.3429 54.4573C63.2029 54.5773 63.1329 54.8073 63.1329 55.1473V57.9673C63.1329 58.3073 63.2029 58.5373 63.3429 58.6573ZM101.497 48.3073L104.707 48.2473V51.7273C104.707 52.2473 104.787 52.6073 104.947 52.8073C105.127 52.9873 105.427 53.0773 105.847 53.0773H108.667C109.107 53.0773 109.407 52.9873 109.567 52.8073C109.727 52.6073 109.807 52.2473 109.807 51.7273V36.8473C109.807 36.3273 109.727 35.9773 109.567 35.7973C109.407 35.5973 109.107 35.4973 108.667 35.4973H105.847C105.427 35.4973 105.127 35.5973 104.947 35.7973C104.787 35.9773 104.707 36.3273 104.707 36.8473V37.3873L101.497 37.4473C101.137 37.4673 100.877 37.5373 100.717 37.6573C100.577 37.7573 100.507 37.9773 100.507 38.3173V41.1373C100.507 41.4773 100.577 41.7173 100.717 41.8573C100.877 41.9773 101.137 42.0273 101.497 42.0073L104.707 41.9473V43.6873L101.497 43.7473C101.137 43.7673 100.877 43.8373 100.717 43.9573C100.577 44.0573 100.507 44.2773 100.507 44.6173V47.4373C100.507 47.7773 100.577 48.0173 100.717 48.1573C100.877 48.2773 101.137 48.3273 101.497 48.3073ZM98.5871 46.5073L91.8971 46.7173L91.7471 36.5473C91.7271 36.0273 91.6371 35.6773 91.4771 35.4973C91.3371 35.2973 91.0471 35.1973 90.6071 35.1973H87.6971C87.2771 35.1973 86.9771 35.2973 86.7971 35.4973C86.6171 35.6773 86.5371 36.0273 86.5571 36.5473L86.7671 50.0173C86.7871 50.5373 86.8671 50.8973 87.0071 51.0973C87.1671 51.2973 87.4671 51.3873 87.9071 51.3673L98.5871 51.0673C98.9471 51.0473 99.1971 50.9873 99.3371 50.8873C99.4971 50.7673 99.5771 50.5373 99.5771 50.1973V47.3773C99.5771 47.0373 99.4971 46.8073 99.3371 46.6873C99.1971 46.5473 98.9471 46.4873 98.5871 46.5073ZM91.5371 62.8273C91.6971 63.0273 91.9971 63.1173 92.4371 63.0973L108.187 62.7973C108.587 62.7773 108.847 62.6973 108.967 62.5573C109.107 62.4173 109.177 62.1473 109.177 61.7473V59.2873C109.177 58.8873 109.107 58.6073 108.967 58.4473C108.847 58.2873 108.607 58.2173 108.247 58.2373L96.3971 58.4773V54.2473C96.3971 53.7273 96.3171 53.3773 96.1571 53.1973C95.9971 52.9973 95.6971 52.8973 95.2571 52.8973H92.4371C92.0171 52.8973 91.7171 52.9973 91.5371 53.1973C91.3771 53.3773 91.2971 53.7273 91.2971 54.2473V61.7473C91.2971 62.2673 91.3771 62.6273 91.5371 62.8273ZM31.6076 80.5773V79.5273L45.5876 79.2273C46.0276 79.2073 46.2976 79.1373 46.3976 79.0173C46.5176 78.8773 46.5776 78.5473 46.5776 78.0273V77.0973C46.5776 76.5773 46.5176 76.2473 46.3976 76.1073C46.2976 75.9673 46.0276 75.8973 45.5876 75.8973L27.6476 76.1973C27.2076 76.1973 26.8976 76.2973 26.7176 76.4973C26.5576 76.6773 26.4876 77.0273 26.5076 77.5473L26.7776 87.1773C26.7976 87.6373 26.8876 87.9773 27.0476 88.1973C27.2076 88.4173 27.4976 88.5273 27.9176 88.5273L34.0076 88.4373V89.7873L27.3776 89.8773C27.0176 89.8773 26.7576 89.9373 26.5976 90.0573C26.4576 90.1773 26.3876 90.4073 26.3876 90.7473V92.9673C26.3876 93.3073 26.4576 93.5373 26.5976 93.6573C26.7576 93.7773 27.0176 93.8373 27.3776 93.8373L45.7376 93.5373C46.0976 93.5373 46.3476 93.4773 46.4876 93.3573C46.6476 93.2373 46.7276 93.0073 46.7276 92.6673V90.4473C46.7276 90.1073 46.6476 89.8773 46.4876 89.7573C46.3476 89.6373 46.0976 89.5773 45.7376 89.5773L39.1076 89.6973V88.3473L45.3476 88.2273C45.7676 88.2273 46.0376 88.1473 46.1576 87.9873C46.2776 87.8073 46.3376 87.4873 46.3376 87.0273V86.0073C46.3376 85.5473 46.2776 85.2273 46.1576 85.0473C46.0376 84.8673 45.7676 84.7873 45.3476 84.8073L31.6376 85.0773V83.9973L45.2876 83.7573C45.7276 83.7373 45.9976 83.6673 46.0976 83.5473C46.2176 83.4073 46.2776 83.0773 46.2776 82.5573V81.5373C46.2776 81.0173 46.2176 80.6873 46.0976 80.5473C45.9976 80.3873 45.7276 80.3173 45.2876 80.3373L31.6076 80.5773ZM28.3076 99.6273L40.8176 99.3873L40.6976 102.747C40.6776 103.267 40.7576 103.617 40.9376 103.797C41.1176 103.997 41.4176 104.097 41.8376 104.097H44.6576C45.0976 104.097 45.3876 103.997 45.5276 103.797C45.6876 103.617 45.7776 103.267 45.7976 102.747L46.0676 96.1173C46.0876 95.5973 46.0176 95.2373 45.8576 95.0373C45.6976 94.8373 45.3876 94.7473 44.9276 94.7673L28.3076 95.0673C27.9476 95.0673 27.6876 95.1273 27.5276 95.2473C27.3876 95.3673 27.3176 95.5973 27.3176 95.9373V98.7573C27.3176 99.0973 27.3876 99.3273 27.5276 99.4473C27.6876 99.5673 27.9476 99.6273 28.3076 99.6273ZM50.9518 81.6873H56.0818L56.2918 97.8273C56.2918 98.3473 56.3718 98.6973 56.5318 98.8773C56.7118 99.0773 57.0118 99.1773 57.4318 99.1773H60.2518C60.6918 99.1773 60.9918 99.0773 61.1518 98.8773C61.3118 98.6973 61.3918 98.3473 61.3918 97.8273L61.1818 81.6873H66.5518C66.9718 81.6873 67.2818 81.6073 67.4818 81.4473C67.6818 81.2873 67.7818 80.9973 67.7818 80.5773V78.2373C67.7818 77.8173 67.6818 77.5273 67.4818 77.3673C67.2818 77.2073 66.9718 77.1273 66.5518 77.1273H50.9518C50.5318 77.1273 50.2218 77.2073 50.0218 77.3673C49.8218 77.5273 49.7218 77.8173 49.7218 78.2373V80.5773C49.7218 80.9973 49.8218 81.2873 50.0218 81.4473C50.2218 81.6073 50.5318 81.6873 50.9518 81.6873ZM66.7041 98.2473C66.8241 98.4273 67.0541 98.5673 67.3941 98.6673L70.2141 99.4473C70.7941 99.6073 71.1841 99.3773 71.3841 98.7573L72.4641 95.1573H79.7841L80.8941 98.7573C81.0941 99.3773 81.4841 99.6073 82.0641 99.4473L84.8841 98.6673C85.2241 98.5673 85.4541 98.4273 85.5741 98.2473C85.6941 98.0473 85.6841 97.7373 85.5441 97.3173L79.3341 78.4773C79.1741 77.9773 78.9841 77.6273 78.7641 77.4273C78.5441 77.2273 78.1941 77.1273 77.7141 77.1273H74.5641C74.0841 77.1273 73.7341 77.2273 73.5141 77.4273C73.2941 77.6273 73.1041 77.9773 72.9441 78.4773L66.7341 97.3173C66.5941 97.7373 66.5841 98.0473 66.7041 98.2473ZM73.8441 90.5973L76.1241 83.1273L78.4041 90.5973H73.8441ZM101.855 94.8573C101.655 94.6973 101.345 94.6173 100.925 94.6173H93.5147L93.1547 78.6873C93.1347 78.1073 93.0347 77.7073 92.8547 77.4873C92.6747 77.2473 92.3247 77.1273 91.8047 77.1273H89.4047C88.8847 77.1273 88.5147 77.2473 88.2947 77.4873C88.0947 77.7073 88.0047 78.1073 88.0247 78.6873L88.3547 97.5873C88.3747 98.1873 88.4747 98.5973 88.6547 98.8173C88.8547 99.0573 89.2147 99.1773 89.7347 99.1773H100.925C101.345 99.1773 101.655 99.0873 101.855 98.9073C102.055 98.7473 102.155 98.4573 102.155 98.0373V95.7273C102.155 95.3073 102.055 95.0173 101.855 94.8573ZM105.374 77.4273C105.214 77.6073 105.134 77.9573 105.134 78.4773L105.434 97.8273C105.454 98.3473 105.544 98.6973 105.704 98.8773C105.864 99.0773 106.154 99.1773 106.574 99.1773H109.394C109.834 99.1773 110.134 99.0773 110.294 98.8773C110.474 98.6973 110.554 98.3473 110.534 97.8273L110.384 88.7373L116.294 98.7273C116.494 99.0673 116.724 99.2573 116.984 99.2973C117.244 99.3573 117.574 99.3073 117.974 99.1473L120.344 98.1873C120.764 98.0073 121.014 97.7873 121.094 97.5273C121.174 97.2673 121.074 96.9173 120.794 96.4773L115.154 87.0873L120.524 80.4273C120.784 80.1073 120.894 79.8273 120.854 79.5873C120.814 79.3273 120.574 79.0273 120.134 78.6873L118.244 77.2173C117.924 77.0173 117.644 76.9373 117.404 76.9773C117.164 77.0173 116.914 77.1873 116.654 77.4873L110.324 85.2273L110.234 78.4773C110.214 77.9573 110.124 77.6073 109.964 77.4273C109.824 77.2273 109.534 77.1273 109.094 77.1273H106.274C105.854 77.1273 105.554 77.2273 105.374 77.4273Z" fill="white"/>
</g>
<defs>
<filter id="filter0_i_17_3" x="0.371094" y="0.457825" width="145.258" height="136.084" filterUnits="userSpaceOnUse" color-interpolation-filters="sRGB">
<feFlood flood-opacity="0" result="BackgroundImageFix"/>
<feBlend mode="normal" in="SourceGraphic" in2="BackgroundImageFix" result="shape"/>
<feColorMatrix in="SourceAlpha" type="matrix" values="0 0 0 0 0 0 0 0 0 0 0 0 0 0 0 0 0 0 127 0" result="hardAlpha"/>
<feOffset dy="2"/>
<feGaussianBlur stdDeviation="2"/>
<feComposite in2="hardAlpha" operator="arithmetic" k2="-1" k3="1"/>
<feColorMatrix type="matrix" values="0 0 0 0 0 0 0 0 0 0 0 0 0 0 0 0 0 0 0.25 0"/>
<feBlend mode="normal" in2="shape" result="effect1_innerShadow_17_3"/>
</filter>
</defs>
</svg>
