<svg width="76" height="63" viewBox="0 0 76 63" fill="none" xmlns="http://www.w3.org/2000/svg">
    <path d="M57.3712 51.3633H20.6826C17.5158 51.3633 16.2684 50.1431 15.7786 49.1196C15.1842 47.8784 15.4521 46.317 16.4756 45.0466C17.5807 43.6756 19.6905 43.368 19.9291 43.3386C20.67 43.2424 21.3502 43.7677 21.4465 44.5107C21.5428 45.2517 21.0196 45.9298 20.2786 46.0261C19.7742 46.0952 18.8909 46.3735 18.5875 46.7482C18.2463 47.171 18.0935 47.6754 18.2254 47.9496C18.3802 48.274 19.117 48.6507 20.6847 48.6507H57.3733C58.1226 48.6507 58.7275 49.2577 58.7275 50.0049C58.7275 50.7521 58.1184 51.3633 57.3712 51.3633Z" fill="#121331"/>
    <path d="M23.393 62.9796C19.4435 62.9796 16.2307 59.7668 16.2307 55.8172C16.2307 51.8677 19.4435 48.6549 23.393 48.6549C27.3426 48.6549 30.5554 51.8677 30.5554 55.8172C30.5554 59.7668 27.3426 62.9796 23.393 62.9796ZM23.393 51.3633C20.9379 51.3633 18.9391 53.36 18.9391 55.8172C18.9391 58.2744 20.9358 60.2712 23.393 60.2712C25.8502 60.2712 27.847 58.2744 27.847 55.8172C27.847 53.36 25.8482 51.3633 23.393 51.3633Z" fill="#F57521"/>
    <path d="M57.7584 62.9796C53.8089 62.9796 50.5961 59.7668 50.5961 55.8172C50.5961 51.8677 53.8089 48.6549 57.7584 48.6549C61.7079 48.6549 64.9207 51.8677 64.9207 55.8172C64.9207 59.7668 61.7079 62.9796 57.7584 62.9796ZM57.7584 51.3633C55.3033 51.3633 53.3044 53.36 53.3044 55.8172C53.3044 58.2744 55.3012 60.2712 57.7584 60.2712C60.2156 60.2712 62.2123 58.2744 62.2123 55.8172C62.2123 53.36 60.2135 51.3633 57.7584 51.3633Z" fill="#F57521"/>
    <path d="M17.5305 47.2547C17.2312 47.2547 16.9319 47.1563 16.6808 46.9554C16.0989 46.4845 16.0068 45.6326 16.4757 45.0487C17.1098 44.2617 17.7587 43.9477 18.3175 43.8829L12.5952 9.85657C12.0029 6.32983 9.58751 3.34936 7.32286 3.34936H2.0003C1.251 3.34936 0.646118 2.74239 0.646118 1.99518C0.646118 1.24797 1.2531 0.640991 2.0003 0.640991H7.32496C10.6926 0.640991 13.941 3.95843 15.0503 8.36425L65.8898 8.38308C70.1638 8.38518 73.8496 8.38518 74.1175 8.38518C74.647 8.38518 75.1305 8.62587 75.4466 9.04657C75.7982 9.51541 75.8966 10.1412 75.7145 10.767L69.4438 32.3963C68.0938 37.0533 63.2631 41.1305 58.445 41.681L27.9496 45.1554C23.4622 45.6661 19.9354 46.2982 19.3808 46.5242C19.1547 46.631 18.9119 46.6708 18.6775 46.6456C18.6503 46.6749 18.621 46.7084 18.5875 46.7524C18.3196 47.0831 17.9261 47.2547 17.5305 47.2547ZM17.9847 46.3631L17.9868 46.3652C17.9868 46.3652 17.9868 46.3631 17.9847 46.3631ZM15.5484 11.0747L20.9861 43.4015C23.1252 43.0205 25.9257 42.6584 27.6419 42.4617L58.1373 38.9873C61.821 38.5666 65.8082 35.2031 66.8401 31.6429L72.7968 11.0956C71.3066 11.0956 68.7259 11.0935 65.8878 11.0935L15.5484 11.0747Z" fill="#121331"/>
</svg>
