<svg width="24" height="24" viewBox="0 0 24 24" fill="none" xmlns="http://www.w3.org/2000/svg">
    <path d="M4.84201 20.859C4.45868 20.859 4.12326 20.7153 3.83576 20.4278C3.54826 20.1403 3.40451 19.8048 3.40451 19.4215V11.2996C2.95729 10.9163 2.6618 10.4451 2.51805 9.88609C2.3743 9.32706 2.39027 8.76804 2.56597 8.20901L3.59618 4.97463C3.72395 4.54338 3.94757 4.20797 4.26701 3.96838C4.58645 3.7288 4.95382 3.60901 5.36909 3.60901H18.6181C19.0653 3.60901 19.4566 3.73279 19.792 3.98036C20.1274 4.22793 20.359 4.55936 20.4868 4.97463L21.541 8.20901C21.7167 8.76804 21.7286 9.32706 21.5769 9.88609C21.4252 10.4451 21.1257 10.9163 20.6785 11.2996V19.4215C20.6785 19.8048 20.5347 20.1403 20.2472 20.4278C19.9597 20.7153 19.6243 20.859 19.241 20.859H4.84201ZM14.2097 10.5569C14.6729 10.5569 15.0642 10.4052 15.3837 10.1017C15.7031 9.79824 15.8309 9.43088 15.767 8.99963L15.1681 5.04651H12.7722V8.99963C12.7722 9.41491 12.908 9.77828 13.1795 10.0897C13.451 10.4012 13.7944 10.5569 14.2097 10.5569ZM9.72951 10.5569C10.1767 10.5569 10.5561 10.4052 10.8675 10.1017C11.179 9.79824 11.3347 9.43088 11.3347 8.99963V5.04651H8.93889L8.33993 8.99963C8.27604 9.41491 8.38784 9.77828 8.67534 10.0897C8.96284 10.4012 9.31423 10.5569 9.72951 10.5569ZM5.36909 10.5569C5.75243 10.5569 6.08385 10.4252 6.36336 10.1616C6.64288 9.89807 6.80659 9.57463 6.85451 9.1913L7.47743 5.04651H5.08159L3.97951 8.54443C3.81979 9.03956 3.88368 9.49877 4.17118 9.92203C4.45868 10.3453 4.85798 10.5569 5.36909 10.5569ZM18.7139 10.5569C19.225 10.5569 19.6283 10.3493 19.9238 9.93401C20.2193 9.51873 20.2871 9.05554 20.1274 8.54443L19.0253 5.04651H16.6295L17.2524 9.1913C17.3003 9.57463 17.4641 9.89807 17.7436 10.1616C18.0231 10.4252 18.3465 10.5569 18.7139 10.5569ZM4.84201 19.4215H19.241V11.9705C19.2569 11.9864 19.205 11.9944 19.0852 11.9944H18.7139C18.3146 11.9944 17.9352 11.9106 17.5759 11.7429C17.2165 11.5752 16.8611 11.3156 16.5097 10.9642C16.2542 11.2837 15.9347 11.5352 15.5514 11.7189C15.1681 11.9026 14.7448 11.9944 14.2816 11.9944C13.8024 11.9944 13.3911 11.9265 13.0477 11.7908C12.7043 11.655 12.3729 11.4274 12.0535 11.108C11.8139 11.3955 11.5104 11.6151 11.1431 11.7668C10.7757 11.9186 10.3604 11.9944 9.89722 11.9944C9.40208 11.9944 8.96284 11.9066 8.57951 11.7309C8.19618 11.5552 7.86875 11.2996 7.59722 10.9642C7.21389 11.2996 6.83854 11.5552 6.47118 11.7309C6.10382 11.9066 5.73645 11.9944 5.36909 11.9944H5.04566C4.94184 11.9944 4.87395 11.9864 4.84201 11.9705V19.4215Z" fill="#F57521"/>
</svg>
