<svg width="289" height="48" viewBox="0 0 289 48" fill="none" xmlns="http://www.w3.org/2000/svg">
<path d="M4.39673 1.9923C5.78873 1.9923 6.83873 2.4483 7.54673 3.3603C8.25473 4.2723 8.60873 5.6043 8.60873 7.3563C8.60873 9.1083 8.25473 10.4403 7.54673 11.3523C6.83873 12.2643 5.78873 12.7203 4.39673 12.7203C3.00473 12.7203 1.95473 12.2643 1.24673 11.3523C0.550734 10.4403 0.202734 9.1083 0.202734 7.3563C0.202734 5.6043 0.550734 4.2723 1.24673 3.3603C1.95473 2.4483 3.00473 1.9923 4.39673 1.9923ZM4.39673 3.5763C3.52073 3.5763 2.89073 3.9003 2.50673 4.5483C2.13473 5.1843 1.94873 6.1203 1.94873 7.3563C1.94873 8.5923 2.13473 9.5343 2.50673 10.1823C2.89073 10.8183 3.52073 11.1363 4.39673 11.1363C5.28473 11.1363 5.91473 10.8183 6.28673 10.1823C6.67073 9.5343 6.86273 8.5923 6.86273 7.3563C6.86273 6.1203 6.67073 5.1843 6.28673 4.5483C5.91473 3.9003 5.28473 3.5763 4.39673 3.5763ZM11.8307 1.0563C12.0707 1.0563 12.2807 1.1163 12.4607 1.2363C12.6407 1.3563 12.7307 1.5483 12.7307 1.8123V6.4923H14.7107C14.9507 6.4923 15.1187 6.5703 15.2147 6.7263C15.3227 6.8703 15.3767 7.0503 15.3767 7.2663C15.3767 7.4823 15.3227 7.6683 15.2147 7.8243C15.1187 7.9803 14.9507 8.0583 14.7107 8.0583H12.7307V15.8523C12.7307 16.1163 12.6407 16.3083 12.4607 16.4283C12.2807 16.5483 12.0707 16.6083 11.8307 16.6083C11.5907 16.6083 11.3807 16.5483 11.2007 16.4283C11.0207 16.3083 10.9307 16.1163 10.9307 15.8523V1.8123C10.9307 1.5483 11.0207 1.3563 11.2007 1.2363C11.3807 1.1163 11.5907 1.0563 11.8307 1.0563ZM21.7335 2.2803C22.2615 2.2803 22.6215 2.3763 22.8135 2.5683C23.0175 2.7603 23.1195 3.1143 23.1195 3.6303V6.8523C23.1195 7.3683 23.0175 7.7223 22.8135 7.9143C22.6215 8.1063 22.2615 8.2023 21.7335 8.2023H18.9255C18.7815 8.2023 18.6795 8.2323 18.6195 8.2923C18.5715 8.3403 18.5475 8.4303 18.5475 8.5623V10.8303C18.5475 10.9623 18.5715 11.0583 18.6195 11.1183C18.6795 11.1663 18.7815 11.1903 18.9255 11.1903C19.7055 11.1903 20.5035 11.1723 21.3195 11.1363C22.1355 11.0883 22.8615 11.0163 23.4975 10.9203C23.7015 10.8963 23.8635 10.9503 23.9835 11.0823C24.1035 11.2023 24.1755 11.3643 24.1995 11.5683C24.2235 11.7843 24.1935 11.9763 24.1095 12.1443C24.0375 12.3123 23.8995 12.4143 23.6955 12.4503C23.2395 12.5223 22.5435 12.5883 21.6075 12.6483C20.6715 12.7083 19.5315 12.7383 18.1875 12.7383C17.6595 12.7383 17.2935 12.6423 17.0895 12.4503C16.8975 12.2583 16.8015 11.9043 16.8015 11.3883V8.0583C16.8015 7.5423 16.8975 7.1943 17.0895 7.0143C17.2935 6.8223 17.6595 6.7263 18.1875 6.7263H21.0135C21.2655 6.7263 21.3915 6.6003 21.3915 6.3483V4.1883C21.3915 3.9483 21.2655 3.8283 21.0135 3.8283H17.4315C17.2035 3.8283 17.0415 3.7503 16.9455 3.5943C16.8495 3.4383 16.8015 3.2583 16.8015 3.0543C16.8015 2.8503 16.8495 2.6703 16.9455 2.5143C17.0415 2.3583 17.2035 2.2803 17.4315 2.2803H21.7335ZM29.5635 1.0563C29.7795 1.0563 29.9715 1.1163 30.1395 1.2363C30.3195 1.3443 30.4095 1.5183 30.4095 1.7583V15.9063C30.4095 16.1463 30.3195 16.3203 30.1395 16.4283C29.9715 16.5483 29.7795 16.6083 29.5635 16.6083C29.3595 16.6083 29.1675 16.5483 28.9875 16.4283C28.8195 16.3203 28.7355 16.1463 28.7355 15.9063V8.1123H26.8095V15.1503C26.8095 15.3903 26.7195 15.5643 26.5395 15.6723C26.3715 15.7923 26.1795 15.8523 25.9635 15.8523C25.7595 15.8523 25.5675 15.7923 25.3875 15.6723C25.2195 15.5643 25.1355 15.3903 25.1355 15.1503V1.9383C25.1355 1.6983 25.2195 1.5243 25.3875 1.4163C25.5675 1.2963 25.7595 1.2363 25.9635 1.2363C26.1795 1.2363 26.3715 1.2963 26.5395 1.4163C26.7195 1.5243 26.8095 1.6983 26.8095 1.9383V6.5823H28.7355V1.7583C28.7355 1.5183 28.8195 1.3443 28.9875 1.2363C29.1675 1.1163 29.3595 1.0563 29.5635 1.0563ZM44.5604 2.2443C45.0884 2.2443 45.4484 2.3403 45.6404 2.5323C45.8444 2.7243 45.9464 3.0783 45.9464 3.5943V11.1183C45.9464 11.6343 45.8444 11.9883 45.6404 12.1803C45.4484 12.3723 45.0884 12.4683 44.5604 12.4683H39.5384C39.0104 12.4683 38.6444 12.3723 38.4404 12.1803C38.2484 11.9883 38.1524 11.6343 38.1524 11.1183V3.5943C38.1524 3.0783 38.2484 2.7243 38.4404 2.5323C38.6444 2.3403 39.0104 2.2443 39.5384 2.2443H44.5604ZM40.3124 3.7923C40.0604 3.7923 39.9344 3.9123 39.9344 4.1523V10.5603C39.9344 10.8003 40.0604 10.9203 40.3124 10.9203H43.7864C44.0384 10.9203 44.1644 10.8003 44.1644 10.5603V4.1523C44.1644 3.9123 44.0384 3.7923 43.7864 3.7923H40.3124ZM49.8524 1.0563C50.0924 1.0563 50.3024 1.1163 50.4824 1.2363C50.6744 1.3563 50.7704 1.5483 50.7704 1.8123V15.8523C50.7704 16.1163 50.6744 16.3083 50.4824 16.4283C50.3024 16.5483 50.0924 16.6083 49.8524 16.6083C49.6244 16.6083 49.4144 16.5483 49.2224 16.4283C49.0424 16.3083 48.9524 16.1163 48.9524 15.8523V1.8123C48.9524 1.5483 49.0424 1.3563 49.2224 1.2363C49.4144 1.1163 49.6244 1.0563 49.8524 1.0563ZM58.6392 1.7763C58.8792 1.7763 59.0892 1.8363 59.2692 1.9563C59.4612 2.0763 59.5572 2.2683 59.5572 2.5323V4.7463C59.5572 5.3343 59.6352 5.8443 59.7912 6.2763C59.9592 6.7083 60.2592 7.1163 60.6912 7.5003C61.1112 7.8603 61.4952 8.1843 61.8432 8.4723C62.2032 8.7603 62.5392 9.0183 62.8512 9.2463C63.0552 9.4023 63.1572 9.5883 63.1572 9.8043C63.1572 10.0083 63.0912 10.1943 62.9592 10.3623C62.8392 10.5303 62.6712 10.6443 62.4552 10.7043C62.2512 10.7643 62.0472 10.7223 61.8432 10.5783C61.5672 10.3743 61.2612 10.1343 60.9252 9.8583C60.5892 9.5823 60.2292 9.2763 59.8452 8.9403C59.4132 8.5683 59.1192 8.2743 58.9632 8.0583C58.8192 7.8423 58.7232 7.6383 58.6752 7.4463H58.6572C58.6332 7.5423 58.5972 7.6443 58.5492 7.7523C58.5132 7.8603 58.4532 7.9803 58.3692 8.1123C58.2852 8.2323 58.1652 8.3703 58.0092 8.5263C57.8652 8.6823 57.6792 8.8563 57.4512 9.0483C57.0672 9.3843 56.6832 9.7023 56.2992 10.0023C55.9272 10.3023 55.5492 10.5903 55.1652 10.8663C54.9612 11.0223 54.7512 11.0703 54.5352 11.0103C54.3312 10.9383 54.1692 10.8183 54.0492 10.6503C53.9292 10.4823 53.8632 10.2903 53.8512 10.0743C53.8392 9.8583 53.9472 9.6663 54.1752 9.4983C54.5952 9.1983 54.9972 8.8923 55.3812 8.5803C55.7772 8.2563 56.1852 7.9143 56.6052 7.5543C57.0372 7.1703 57.3312 6.7623 57.4872 6.3303C57.6552 5.8983 57.7392 5.3883 57.7392 4.8003V2.5323C57.7392 2.2683 57.8292 2.0763 58.0092 1.9563C58.1892 1.8363 58.3992 1.7763 58.6392 1.7763ZM66.3792 1.0563C66.6072 1.0563 66.8112 1.1163 66.9912 1.2363C67.1712 1.3563 67.2612 1.5483 67.2612 1.8123V12.4683C67.2612 12.7323 67.1712 12.9243 66.9912 13.0443C66.8112 13.1643 66.6072 13.2243 66.3792 13.2243C66.1512 13.2243 65.9412 13.1643 65.7492 13.0443C65.5692 12.9243 65.4792 12.7323 65.4792 12.4683V7.6803H62.8872C62.6712 7.6803 62.5152 7.6083 62.4192 7.4643C62.3232 7.3083 62.2752 7.1283 62.2752 6.9243C62.2752 6.7083 62.3232 6.5283 62.4192 6.3843C62.5152 6.2403 62.6712 6.1683 62.8872 6.1683H65.4792V4.7643H62.8872C62.6712 4.7643 62.5152 4.6923 62.4192 4.5483C62.3232 4.3923 62.2752 4.2123 62.2752 4.0083C62.2752 3.7923 62.3232 3.6123 62.4192 3.4683C62.5152 3.3243 62.6712 3.2523 62.8872 3.2523H65.4792V1.8123C65.4792 1.5483 65.5692 1.3563 65.7492 1.2363C65.9412 1.1163 66.1512 1.0563 66.3792 1.0563ZM57.5952 11.8203C57.8232 11.8203 58.0272 11.8803 58.2072 12.0003C58.3992 12.1203 58.4952 12.3123 58.4952 12.5763V15.5103C58.4952 15.6423 58.5192 15.7323 58.5672 15.7803C58.6272 15.8403 58.7292 15.8703 58.8732 15.8703H67.0452C67.2732 15.8703 67.4352 15.9483 67.5312 16.1043C67.6392 16.2603 67.6932 16.4463 67.6932 16.6623C67.6932 16.8663 67.6392 17.0463 67.5312 17.2023C67.4352 17.3583 67.2732 17.4363 67.0452 17.4363H58.0632C57.5352 17.4363 57.1692 17.3403 56.9652 17.1483C56.7732 16.9563 56.6772 16.6023 56.6772 16.0863V12.5763C56.6772 12.3123 56.7672 12.1203 56.9472 12.0003C57.1392 11.8803 57.3552 11.8203 57.5952 11.8203ZM79.45 0.876302C79.69 0.876302 79.9 0.936302 80.08 1.0563C80.26 1.1763 80.35 1.3683 80.35 1.6323V2.9643H83.374C83.59 2.9643 83.746 3.0423 83.842 3.1983C83.95 3.3543 84.004 3.5343 84.004 3.7383C84.004 3.9423 83.95 4.1223 83.842 4.2783C83.746 4.4223 83.59 4.4943 83.374 4.4943H80.35V5.1243C80.35 5.6643 80.434 6.1023 80.602 6.4383C80.782 6.7743 81.076 7.0863 81.484 7.3743C81.928 7.6863 82.336 7.9683 82.708 8.2203C83.08 8.4603 83.392 8.6643 83.644 8.8323C83.848 8.9643 83.962 9.1383 83.986 9.3543C84.022 9.5583 83.98 9.7503 83.86 9.9303C83.752 10.0863 83.596 10.2003 83.392 10.2723C83.2 10.3443 82.99 10.3083 82.762 10.1643C82.522 10.0203 82.228 9.8343 81.88 9.6063C81.544 9.3783 81.202 9.1443 80.854 8.9043C80.386 8.5683 80.05 8.2923 79.846 8.0763C79.642 7.8483 79.522 7.6503 79.486 7.4823H79.468C79.42 7.6863 79.288 7.9083 79.072 8.1483C78.868 8.3763 78.526 8.6583 78.046 8.9943C77.662 9.2703 77.284 9.5283 76.912 9.7683C76.552 10.0083 76.186 10.2423 75.814 10.4703C75.61 10.6023 75.406 10.6323 75.202 10.5603C74.998 10.4763 74.848 10.3503 74.752 10.1823C74.644 10.0023 74.596 9.8103 74.608 9.6063C74.62 9.3903 74.734 9.2163 74.95 9.0843C75.37 8.8203 75.772 8.5563 76.156 8.2923C76.552 8.0283 76.972 7.7403 77.416 7.4283C77.824 7.1403 78.112 6.8283 78.28 6.4923C78.46 6.1563 78.55 5.7183 78.55 5.1783V4.4943H75.4C75.172 4.4943 75.004 4.4223 74.896 4.2783C74.8 4.1223 74.752 3.9423 74.752 3.7383C74.752 3.5343 74.8 3.3543 74.896 3.1983C75.004 3.0423 75.172 2.9643 75.4 2.9643H78.55V1.6323C78.55 1.3683 78.64 1.1763 78.82 1.0563C79.012 0.936302 79.222 0.876302 79.45 0.876302ZM86.362 1.0563C86.602 1.0563 86.812 1.1163 86.992 1.2363C87.172 1.3563 87.262 1.5483 87.262 1.8123V5.0343H89.242C89.482 5.0343 89.65 5.1123 89.746 5.2683C89.854 5.4243 89.908 5.6043 89.908 5.8083C89.908 6.0363 89.854 6.2283 89.746 6.3843C89.65 6.5283 89.482 6.6003 89.242 6.6003H87.262V10.0383C87.262 10.3023 87.172 10.4943 86.992 10.6143C86.812 10.7343 86.602 10.7943 86.362 10.7943C86.122 10.7943 85.912 10.7343 85.732 10.6143C85.552 10.4943 85.462 10.3023 85.462 10.0383V1.8123C85.462 1.5483 85.552 1.3563 85.732 1.2363C85.912 1.1163 86.122 1.0563 86.362 1.0563ZM85.876 11.5683C86.404 11.5683 86.764 11.6643 86.956 11.8563C87.16 12.0483 87.262 12.4023 87.262 12.9183V16.2123C87.262 16.7283 87.16 17.0823 86.956 17.2743C86.764 17.4663 86.404 17.5623 85.876 17.5623H78.316C77.788 17.5623 77.422 17.4663 77.218 17.2743C77.026 17.0823 76.93 16.7283 76.93 16.2123V12.9183C76.93 12.4023 77.026 12.0483 77.218 11.8563C77.422 11.6643 77.788 11.5683 78.316 11.5683H85.876ZM79.09 13.0623C78.838 13.0623 78.712 13.1883 78.712 13.4403V15.6903C78.712 15.9423 78.838 16.0683 79.09 16.0683H85.102C85.354 16.0683 85.48 15.9423 85.48 15.6903V13.4403C85.48 13.1883 85.354 13.0623 85.102 13.0623H79.09ZM95.4728 1.9923C96.8408 1.9923 97.8668 2.4483 98.5508 3.3603C99.2468 4.2723 99.5948 5.6043 99.5948 7.3563C99.5948 9.1083 99.2468 10.4403 98.5508 11.3523C97.8668 12.2643 96.8408 12.7203 95.4728 12.7203C94.1048 12.7203 93.0788 12.2643 92.3948 11.3523C91.7108 10.4403 91.3688 9.1083 91.3688 7.3563C91.3688 5.6043 91.7108 4.2723 92.3948 3.3603C93.0788 2.4483 94.1048 1.9923 95.4728 1.9923ZM95.4728 3.5763C94.6208 3.5763 94.0148 3.9003 93.6548 4.5483C93.2948 5.1843 93.1148 6.1203 93.1148 7.3563C93.1148 8.5923 93.2948 9.5343 93.6548 10.1823C94.0148 10.8183 94.6208 11.1363 95.4728 11.1363C96.3368 11.1363 96.9488 10.8183 97.3088 10.1823C97.6688 9.5343 97.8488 8.5923 97.8488 7.3563C97.8488 6.1203 97.6688 5.1843 97.3088 4.5483C96.9488 3.9003 96.3368 3.5763 95.4728 3.5763ZM103.627 1.0563C103.867 1.0563 104.077 1.1163 104.257 1.2363C104.437 1.3563 104.527 1.5483 104.527 1.8123V15.8523C104.527 16.1163 104.437 16.3083 104.257 16.4283C104.077 16.5483 103.867 16.6083 103.627 16.6083C103.411 16.6083 103.207 16.5483 103.015 16.4283C102.835 16.3083 102.745 16.1163 102.745 15.8523V10.0923H100.693C100.477 10.0923 100.315 10.0203 100.207 9.8763C100.111 9.7203 100.063 9.5343 100.063 9.3183C100.063 9.1143 100.111 8.9403 100.207 8.7963C100.315 8.6403 100.477 8.5623 100.693 8.5623H102.745V6.1503H100.693C100.477 6.1503 100.315 6.0783 100.207 5.9343C100.111 5.7783 100.063 5.5923 100.063 5.3763C100.063 5.1723 100.111 4.9983 100.207 4.8543C100.315 4.6983 100.477 4.6203 100.693 4.6203H102.745V1.8123C102.745 1.5483 102.835 1.3563 103.015 1.2363C103.207 1.1163 103.411 1.0563 103.627 1.0563ZM112.144 6.0243C112.744 6.0243 113.284 6.1143 113.764 6.2943C114.244 6.4623 114.646 6.7023 114.97 7.0143C115.306 7.3263 115.564 7.6983 115.744 8.1303C115.924 8.5623 116.014 9.0423 116.014 9.5703C116.014 10.0983 115.924 10.5783 115.744 11.0103C115.564 11.4423 115.306 11.8143 114.97 12.1263C114.646 12.4383 114.244 12.6843 113.764 12.8643C113.284 13.0323 112.744 13.1163 112.144 13.1163C111.544 13.1163 111.004 13.0323 110.524 12.8643C110.044 12.6843 109.636 12.4383 109.3 12.1263C108.964 11.8143 108.706 11.4423 108.526 11.0103C108.358 10.5783 108.274 10.0983 108.274 9.5703C108.274 9.0423 108.358 8.5623 108.526 8.1303C108.706 7.6983 108.964 7.3263 109.3 7.0143C109.636 6.7023 110.044 6.4623 110.524 6.2943C111.004 6.1143 111.544 6.0243 112.144 6.0243ZM112.144 1.0203C112.384 1.0203 112.594 1.0803 112.774 1.2003C112.954 1.3203 113.044 1.5123 113.044 1.7763V3.3243H116.284C116.5 3.3243 116.656 3.4023 116.752 3.5583C116.86 3.7023 116.914 3.8763 116.914 4.0803C116.914 4.2843 116.86 4.4643 116.752 4.6203C116.656 4.7763 116.5 4.8543 116.284 4.8543H107.806C107.59 4.8543 107.428 4.7763 107.32 4.6203C107.224 4.4643 107.176 4.2843 107.176 4.0803C107.176 3.8763 107.224 3.7023 107.32 3.5583C107.428 3.4023 107.59 3.3243 107.806 3.3243H111.244V1.7763C111.244 1.5123 111.334 1.3203 111.514 1.2003C111.706 1.0803 111.916 1.0203 112.144 1.0203ZM112.144 7.4823C111.46 7.4823 110.914 7.6743 110.506 8.0583C110.11 8.4303 109.912 8.9343 109.912 9.5703C109.912 10.1943 110.11 10.6983 110.506 11.0823C110.914 11.4663 111.46 11.6583 112.144 11.6583C112.828 11.6583 113.368 11.4663 113.764 11.0823C114.172 10.6983 114.376 10.1943 114.376 9.5703C114.376 8.9343 114.172 8.4303 113.764 8.0583C113.368 7.6743 112.828 7.4823 112.144 7.4823ZM119.128 1.0563C119.368 1.0563 119.578 1.1163 119.758 1.2363C119.938 1.3563 120.028 1.5483 120.028 1.8123V6.6723H122.008C122.248 6.6723 122.416 6.7503 122.512 6.9063C122.62 7.0503 122.674 7.2303 122.674 7.4463C122.674 7.6623 122.62 7.8483 122.512 8.0043C122.416 8.1603 122.248 8.2383 122.008 8.2383H120.028V15.8523C120.028 16.1163 119.938 16.3083 119.758 16.4283C119.578 16.5483 119.368 16.6083 119.128 16.6083C118.9 16.6083 118.696 16.5483 118.516 16.4283C118.336 16.3083 118.246 16.1163 118.246 15.8523V1.8123C118.246 1.5483 118.336 1.3563 118.516 1.2363C118.696 1.1163 118.9 1.0563 119.128 1.0563ZM135.312 2.2083C135.84 2.2083 136.2 2.3043 136.392 2.4963C136.596 2.6883 136.698 3.0423 136.698 3.5583V5.2143C136.698 6.3183 136.644 7.3083 136.536 8.1843C136.44 9.0483 136.302 9.8943 136.122 10.7223C136.062 10.9623 135.93 11.1363 135.726 11.2443C135.522 11.3403 135.288 11.3583 135.024 11.2983C134.808 11.2623 134.628 11.1723 134.484 11.0283C134.352 10.8843 134.31 10.6923 134.358 10.4523C134.526 9.6003 134.658 8.7543 134.754 7.9143C134.85 7.0743 134.898 6.1563 134.898 5.1603V4.1523C134.898 3.9003 134.772 3.7743 134.52 3.7743H126.078C125.85 3.7743 125.688 3.7023 125.592 3.5583C125.496 3.4023 125.448 3.2163 125.448 3.0003C125.448 2.7843 125.496 2.5983 125.592 2.4423C125.688 2.2863 125.85 2.2083 126.078 2.2083H135.312ZM130.038 7.4823C130.278 7.4823 130.488 7.5423 130.668 7.6623C130.848 7.7823 130.938 7.9743 130.938 8.2383V13.5123H138.102C138.318 13.5123 138.474 13.5903 138.57 13.7463C138.678 13.8903 138.732 14.0643 138.732 14.2683C138.732 14.4723 138.678 14.6523 138.57 14.8083C138.474 14.9643 138.318 15.0423 138.102 15.0423H124.242C124.026 15.0423 123.864 14.9643 123.756 14.8083C123.66 14.6523 123.612 14.4723 123.612 14.2683C123.612 14.0643 123.66 13.8903 123.756 13.7463C123.864 13.5903 124.026 13.5123 124.242 13.5123H129.156V8.2383C129.156 7.9743 129.246 7.7823 129.426 7.6623C129.606 7.5423 129.81 7.4823 130.038 7.4823ZM253.051 2.0643C253.579 2.0643 253.939 2.1603 254.131 2.3523C254.335 2.5443 254.437 2.8983 254.437 3.4143V8.7243C254.437 9.2403 254.335 9.5943 254.131 9.7863C253.939 9.9783 253.579 10.0743 253.051 10.0743H244.771C244.243 10.0743 243.883 9.9783 243.691 9.7863C243.499 9.5943 243.403 9.2403 243.403 8.7243V3.4143C243.403 2.8983 243.499 2.5443 243.691 2.3523C243.883 2.1603 244.243 2.0643 244.771 2.0643H253.051ZM245.581 3.6123C245.329 3.6123 245.203 3.7323 245.203 3.9723V8.1663C245.203 8.4063 245.329 8.5263 245.581 8.5263H252.241C252.493 8.5263 252.619 8.4063 252.619 8.1663V3.9723C252.619 3.7323 252.493 3.6123 252.241 3.6123H245.581ZM249.811 13.5123H255.841C256.057 13.5123 256.213 13.5903 256.309 13.7463C256.417 13.8903 256.471 14.0643 256.471 14.2683C256.471 14.4723 256.417 14.6523 256.309 14.8083C256.213 14.9643 256.057 15.0423 255.841 15.0423H241.981C241.765 15.0423 241.603 14.9643 241.495 14.8083C241.399 14.6523 241.351 14.4723 241.351 14.2683C241.351 14.0643 241.399 13.8903 241.495 13.7463C241.603 13.5903 241.765 13.5123 241.981 13.5123H248.011V9.3183H249.811V13.5123ZM265.294 1.7583C266.158 1.7583 266.932 1.8603 267.616 2.0643C268.312 2.2683 268.894 2.5623 269.362 2.9463C269.842 3.3183 270.208 3.7803 270.46 4.3323C270.712 4.8723 270.838 5.4903 270.838 6.1863C270.838 6.8703 270.712 7.4883 270.46 8.0403C270.208 8.5803 269.842 9.0423 269.362 9.4263C268.894 9.7983 268.312 10.0863 267.616 10.2903C266.932 10.4943 266.158 10.5963 265.294 10.5963C263.554 10.5963 262.198 10.2063 261.226 9.4263C260.254 8.6463 259.768 7.5663 259.768 6.1863C259.768 5.4903 259.894 4.8723 260.146 4.3323C260.398 3.7803 260.758 3.3183 261.226 2.9463C261.706 2.5623 262.288 2.2683 262.972 2.0643C263.656 1.8603 264.43 1.7583 265.294 1.7583ZM265.294 3.2883C264.646 3.2883 264.088 3.3603 263.62 3.5043C263.152 3.6483 262.762 3.8523 262.45 4.1163C262.15 4.3803 261.928 4.6923 261.784 5.0523C261.64 5.4003 261.568 5.7783 261.568 6.1863C261.568 6.5943 261.64 6.9783 261.784 7.3383C261.928 7.6863 262.15 7.9923 262.45 8.2563C262.762 8.5083 263.152 8.7063 263.62 8.8503C264.088 8.9943 264.646 9.0663 265.294 9.0663C265.942 9.0663 266.5 8.9943 266.968 8.8503C267.436 8.7063 267.82 8.5083 268.12 8.2563C268.432 7.9923 268.66 7.6863 268.804 7.3383C268.948 6.9783 269.02 6.5943 269.02 6.1863C269.02 5.7783 268.948 5.4003 268.804 5.0523C268.66 4.6923 268.432 4.3803 268.12 4.1163C267.82 3.8523 267.436 3.6483 266.968 3.5043C266.5 3.3603 265.942 3.2883 265.294 3.2883ZM272.224 13.4943C272.44 13.4943 272.596 13.5723 272.692 13.7283C272.8 13.8723 272.854 14.0523 272.854 14.2683C272.854 14.4723 272.8 14.6523 272.692 14.8083C272.596 14.9643 272.44 15.0423 272.224 15.0423H258.364C258.148 15.0423 257.986 14.9643 257.878 14.8083C257.782 14.6523 257.734 14.4723 257.734 14.2683C257.734 14.0523 257.782 13.8723 257.878 13.7283C257.986 13.5723 258.148 13.4943 258.364 13.4943H272.224ZM281.118 2.0823C281.646 2.0823 282.006 2.1783 282.198 2.3703C282.402 2.5623 282.504 2.9163 282.504 3.4323V8.6523C282.504 9.1683 282.402 9.5223 282.198 9.7143C282.006 9.9063 281.646 10.0023 281.118 10.0023H276.348C275.82 10.0023 275.454 9.9063 275.25 9.7143C275.058 9.5223 274.962 9.1683 274.962 8.6523V3.4323C274.962 2.9163 275.058 2.5623 275.25 2.3703C275.454 2.1783 275.82 2.0823 276.348 2.0823H281.118ZM277.104 3.6123C276.972 3.6123 276.876 3.6423 276.816 3.7023C276.756 3.7503 276.726 3.8463 276.726 3.9903V8.1123C276.726 8.3643 276.852 8.4903 277.104 8.4903H280.362C280.614 8.4903 280.74 8.3643 280.74 8.1123V3.9903C280.74 3.8463 280.71 3.7503 280.65 3.7023C280.59 3.6423 280.494 3.6123 280.362 3.6123H277.104ZM286.914 1.0563C287.142 1.0563 287.346 1.1163 287.526 1.2363C287.706 1.3563 287.796 1.5483 287.796 1.8123V12.4683C287.796 12.7323 287.706 12.9243 287.526 13.0443C287.346 13.1643 287.142 13.2243 286.914 13.2243C286.686 13.2243 286.476 13.1643 286.284 13.0443C286.104 12.9243 286.014 12.7323 286.014 12.4683V8.6523H283.926C283.71 8.6523 283.554 8.5743 283.458 8.4183C283.362 8.2623 283.314 8.0823 283.314 7.8783C283.314 7.6743 283.362 7.4943 283.458 7.3383C283.554 7.1823 283.71 7.1043 283.926 7.1043H286.014V5.0703H283.926C283.71 5.0703 283.554 4.9983 283.458 4.8543C283.362 4.6983 283.314 4.5123 283.314 4.2963C283.314 4.0923 283.362 3.9183 283.458 3.7743C283.554 3.6183 283.71 3.5403 283.926 3.5403H286.014V1.8123C286.014 1.5483 286.104 1.3563 286.284 1.2363C286.476 1.1163 286.686 1.0563 286.914 1.0563ZM278.13 11.7123C278.358 11.7123 278.562 11.7723 278.742 11.8923C278.934 12.0123 279.03 12.2043 279.03 12.4683V15.5103C279.03 15.6423 279.054 15.7323 279.102 15.7803C279.162 15.8403 279.264 15.8703 279.408 15.8703H287.58C287.808 15.8703 287.97 15.9483 288.066 16.1043C288.174 16.2603 288.228 16.4463 288.228 16.6623C288.228 16.8663 288.174 17.0463 288.066 17.2023C287.97 17.3583 287.808 17.4363 287.58 17.4363H278.598C278.07 17.4363 277.704 17.3403 277.5 17.1483C277.308 16.9563 277.212 16.6023 277.212 16.0863V12.4683C277.212 12.2043 277.302 12.0123 277.482 11.8923C277.674 11.7723 277.89 11.7123 278.13 11.7123ZM86.6643 32.1003C86.9403 32.1003 87.1623 32.1603 87.3303 32.2803C87.5103 32.4003 87.6003 32.5983 87.6003 32.8743V44.3223C87.6003 44.5863 87.5103 44.7783 87.3303 44.8983C87.1503 45.0183 86.9403 45.0783 86.7003 45.0783C86.4603 45.0783 86.2503 45.0183 86.0703 44.8983C85.8903 44.7783 85.8003 44.5863 85.8003 44.3223V34.2243L83.1003 35.8803C82.8723 36.0123 82.6563 36.0363 82.4523 35.9523C82.2483 35.8683 82.0863 35.7243 81.9663 35.5203C81.8703 35.3283 81.8343 35.1303 81.8583 34.9263C81.8943 34.7103 82.0203 34.5423 82.2363 34.4223L85.4583 32.4963C85.6983 32.3643 85.9143 32.2683 86.1063 32.2083C86.2983 32.1363 86.4843 32.1003 86.6643 32.1003ZM96.4627 31.9923C98.0827 31.9923 99.2527 32.5203 99.9727 33.5763C100.705 34.6323 101.071 36.1563 101.071 38.1483V39.0303C101.071 41.0223 100.705 42.5463 99.9727 43.6023C99.2527 44.6583 98.0827 45.1863 96.4627 45.1863C94.8427 45.1863 93.6667 44.6583 92.9347 43.6023C92.2147 42.5463 91.8547 41.0223 91.8547 39.0303V38.1483C91.8547 36.1563 92.2147 34.6323 92.9347 33.5763C93.6667 32.5203 94.8427 31.9923 96.4627 31.9923ZM96.4627 33.6843C95.9347 33.6843 95.4907 33.7743 95.1307 33.9543C94.7707 34.1343 94.4827 34.4163 94.2667 34.8003C94.0507 35.1723 93.8947 35.6463 93.7987 36.2223C93.7147 36.7983 93.6727 37.4883 93.6727 38.2923V38.8863C93.6727 39.6903 93.7147 40.3803 93.7987 40.9563C93.8947 41.5323 94.0507 42.0123 94.2667 42.3963C94.4827 42.7683 94.7707 43.0443 95.1307 43.2243C95.4907 43.4043 95.9347 43.4943 96.4627 43.4943C96.9907 43.4943 97.4347 43.4043 97.7947 43.2243C98.1547 43.0443 98.4427 42.7683 98.6587 42.3963C98.8747 42.0123 99.0247 41.5323 99.1087 40.9563C99.2047 40.3803 99.2527 39.6903 99.2527 38.8863V38.2923C99.2527 37.4883 99.2047 36.7983 99.1087 36.2223C99.0247 35.6463 98.8747 35.1723 98.6587 34.8003C98.4427 34.4163 98.1547 34.1343 97.7947 33.9543C97.4347 33.7743 96.9907 33.6843 96.4627 33.6843ZM107.449 31.9923C109.069 31.9923 110.239 32.5203 110.959 33.5763C111.691 34.6323 112.057 36.1563 112.057 38.1483V39.0303C112.057 41.0223 111.691 42.5463 110.959 43.6023C110.239 44.6583 109.069 45.1863 107.449 45.1863C105.829 45.1863 104.653 44.6583 103.921 43.6023C103.201 42.5463 102.841 41.0223 102.841 39.0303V38.1483C102.841 36.1563 103.201 34.6323 103.921 33.5763C104.653 32.5203 105.829 31.9923 107.449 31.9923ZM107.449 33.6843C106.921 33.6843 106.477 33.7743 106.117 33.9543C105.757 34.1343 105.469 34.4163 105.253 34.8003C105.037 35.1723 104.881 35.6463 104.785 36.2223C104.701 36.7983 104.659 37.4883 104.659 38.2923V38.8863C104.659 39.6903 104.701 40.3803 104.785 40.9563C104.881 41.5323 105.037 42.0123 105.253 42.3963C105.469 42.7683 105.757 43.0443 106.117 43.2243C106.477 43.4043 106.921 43.4943 107.449 43.4943C107.977 43.4943 108.421 43.4043 108.781 43.2243C109.141 43.0443 109.429 42.7683 109.645 42.3963C109.861 42.0123 110.011 41.5323 110.095 40.9563C110.191 40.3803 110.239 39.6903 110.239 38.8863V38.2923C110.239 37.4883 110.191 36.7983 110.095 36.2223C110.011 35.6463 109.861 35.1723 109.645 34.8003C109.429 34.4163 109.141 34.1343 108.781 33.9543C108.421 33.7743 107.977 33.6843 107.449 33.6843ZM117.031 31.9923C118.003 31.9923 118.735 32.2803 119.227 32.8563C119.731 33.4203 119.983 34.1883 119.983 35.1603V35.5383C119.983 36.5103 119.731 37.2843 119.227 37.8603C118.735 38.4243 118.003 38.7063 117.031 38.7063C116.059 38.7063 115.321 38.4243 114.817 37.8603C114.325 37.2843 114.079 36.5103 114.079 35.5383V35.1603C114.079 34.1883 114.325 33.4203 114.817 32.8563C115.321 32.2803 116.059 31.9923 117.031 31.9923ZM124.987 32.2083C125.155 32.2923 125.269 32.4183 125.329 32.5863C125.389 32.7423 125.359 32.9223 125.239 33.1263L118.147 44.7543C118.039 44.9223 117.895 45.0243 117.715 45.0603C117.535 45.0963 117.361 45.0663 117.193 44.9703C117.025 44.8743 116.911 44.7483 116.851 44.5923C116.791 44.4363 116.821 44.2563 116.941 44.0523L124.033 32.4243C124.141 32.2443 124.285 32.1423 124.465 32.1183C124.645 32.0823 124.819 32.1123 124.987 32.2083ZM117.031 33.2703C116.503 33.2703 116.119 33.4263 115.879 33.7383C115.639 34.0503 115.519 34.5483 115.519 35.2323V35.4663C115.519 36.1503 115.639 36.6483 115.879 36.9603C116.119 37.2723 116.503 37.4283 117.031 37.4283C117.559 37.4283 117.943 37.2723 118.183 36.9603C118.435 36.6483 118.561 36.1503 118.561 35.4663V35.2323C118.561 34.5483 118.435 34.0503 118.183 33.7383C117.943 33.4263 117.559 33.2703 117.031 33.2703ZM125.113 38.4723C126.085 38.4723 126.817 38.7543 127.309 39.3183C127.813 39.8823 128.065 40.6503 128.065 41.6223V42.0183C128.065 42.9903 127.813 43.7643 127.309 44.3403C126.817 44.9043 126.085 45.1863 125.113 45.1863C124.141 45.1863 123.403 44.9043 122.899 44.3403C122.407 43.7643 122.161 42.9903 122.161 42.0183V41.6223C122.161 40.6503 122.407 39.8823 122.899 39.3183C123.403 38.7543 124.141 38.4723 125.113 38.4723ZM125.113 39.7323C124.585 39.7323 124.201 39.8943 123.961 40.2183C123.721 40.5303 123.601 41.0283 123.601 41.7123V41.9463C123.601 42.6303 123.721 43.1283 123.961 43.4403C124.201 43.7523 124.585 43.9083 125.113 43.9083C125.641 43.9083 126.025 43.7523 126.265 43.4403C126.517 43.1283 126.643 42.6303 126.643 41.9463V41.7123C126.643 41.0283 126.517 40.5303 126.265 40.2183C126.025 39.8943 125.641 39.7323 125.113 39.7323ZM139.267 31.5963C139.507 31.5963 139.717 31.6563 139.897 31.7763C140.089 31.8963 140.185 32.0883 140.185 32.3523V34.0083C140.185 34.5843 140.275 35.0823 140.455 35.5023C140.647 35.9103 140.953 36.2943 141.373 36.6543C141.793 37.0023 142.189 37.3203 142.561 37.6083C142.933 37.8963 143.269 38.1483 143.569 38.3643C143.773 38.5083 143.875 38.6883 143.875 38.9043C143.887 39.1083 143.827 39.2943 143.695 39.4623C143.575 39.6303 143.413 39.7503 143.209 39.8223C143.005 39.8823 142.801 39.8343 142.597 39.6783C142.357 39.5103 142.063 39.2943 141.715 39.0303C141.367 38.7543 141.001 38.4603 140.617 38.1483C140.161 37.7883 139.837 37.4883 139.645 37.2483C139.465 37.0083 139.351 36.7983 139.303 36.6183H139.285C139.237 36.8223 139.111 37.0503 138.907 37.3023C138.703 37.5543 138.379 37.8603 137.935 38.2203C137.551 38.5323 137.173 38.8323 136.801 39.1203C136.441 39.4083 136.069 39.6903 135.685 39.9663C135.481 40.1103 135.271 40.1523 135.055 40.0923C134.851 40.0203 134.689 39.9063 134.569 39.7503C134.449 39.5823 134.389 39.3903 134.389 39.1743C134.389 38.9463 134.497 38.7543 134.713 38.5983C135.133 38.2863 135.541 37.9803 135.937 37.6803C136.333 37.3803 136.741 37.0563 137.161 36.7083C137.581 36.3483 137.881 35.9643 138.061 35.5563C138.253 35.1363 138.349 34.6323 138.349 34.0443V32.3523C138.349 32.0883 138.439 31.8963 138.619 31.7763C138.811 31.6563 139.027 31.5963 139.267 31.5963ZM146.251 31.0563C146.491 31.0563 146.701 31.1163 146.881 31.2363C147.061 31.3563 147.151 31.5483 147.151 31.8123V35.0343H149.131C149.371 35.0343 149.539 35.1123 149.635 35.2683C149.743 35.4243 149.797 35.6043 149.797 35.8083C149.797 36.0363 149.743 36.2283 149.635 36.3843C149.539 36.5283 149.371 36.6003 149.131 36.6003H147.151V40.1823C147.151 40.4343 147.061 40.6203 146.881 40.7403C146.701 40.8603 146.491 40.9203 146.251 40.9203C146.011 40.9203 145.801 40.8603 145.621 40.7403C145.441 40.6203 145.351 40.4343 145.351 40.1823V31.8123C145.351 31.5483 145.441 31.3563 145.621 31.2363C145.801 31.1163 146.011 31.0563 146.251 31.0563ZM142.093 41.0823C143.737 41.0823 145.003 41.3703 145.891 41.9463C146.791 42.5103 147.241 43.3563 147.241 44.4843C147.241 45.6123 146.791 46.4583 145.891 47.0223C145.003 47.5983 143.737 47.8863 142.093 47.8863C140.449 47.8863 139.177 47.5983 138.277 47.0223C137.389 46.4583 136.945 45.6123 136.945 44.4843C136.945 43.3563 137.389 42.5103 138.277 41.9463C139.177 41.3703 140.449 41.0823 142.093 41.0823ZM142.093 42.5403C140.905 42.5403 140.047 42.7203 139.519 43.0803C138.991 43.4283 138.727 43.8963 138.727 44.4843C138.727 45.0843 138.991 45.5583 139.519 45.9063C140.047 46.2543 140.905 46.4283 142.093 46.4283C143.281 46.4283 144.139 46.2543 144.667 45.9063C145.195 45.5583 145.459 45.0843 145.459 44.4843C145.459 43.8843 145.195 43.4103 144.667 43.0623C144.139 42.7143 143.281 42.5403 142.093 42.5403ZM160.095 36.1503V33.1623H156.495V36.1503H160.095ZM163.605 31.7223C163.809 31.7223 163.959 31.7943 164.055 31.9383C164.151 32.0823 164.199 32.2503 164.199 32.4423C164.199 32.6343 164.151 32.8023 164.055 32.9463C163.959 33.0903 163.809 33.1623 163.605 33.1623H161.823V36.1503H163.677C163.881 36.1503 164.031 36.2223 164.127 36.3663C164.223 36.5103 164.271 36.6783 164.271 36.8703C164.271 37.0743 164.223 37.2483 164.127 37.3923C164.031 37.5363 163.881 37.6083 163.677 37.6083H152.913C152.709 37.6083 152.559 37.5363 152.463 37.3923C152.367 37.2483 152.319 37.0743 152.319 36.8703C152.319 36.6783 152.367 36.5103 152.463 36.3663C152.559 36.2223 152.709 36.1503 152.913 36.1503H154.767V33.1623H152.985C152.781 33.1623 152.631 33.0903 152.535 32.9463C152.439 32.8023 152.391 32.6343 152.391 32.4423C152.391 32.2503 152.439 32.0823 152.535 31.9383C152.631 31.7943 152.781 31.7223 152.985 31.7223H163.605ZM165.243 38.9043C165.447 38.9043 165.597 38.9823 165.693 39.1383C165.801 39.2823 165.855 39.4563 165.855 39.6603C165.855 39.8643 165.801 40.0383 165.693 40.1823C165.597 40.3263 165.447 40.3983 165.243 40.3983H159.177V42.9183H157.413V40.3983H151.347C151.143 40.3983 150.987 40.3263 150.879 40.1823C150.783 40.0383 150.735 39.8643 150.735 39.6603C150.735 39.4563 150.783 39.2823 150.879 39.1383C150.987 38.9823 151.143 38.9043 151.347 38.9043H165.243ZM162.435 42.0363C162.963 42.0363 163.323 42.1323 163.515 42.3243C163.719 42.5163 163.821 42.8703 163.821 43.3863V46.2843C163.821 46.8003 163.719 47.1543 163.515 47.3463C163.323 47.5383 162.963 47.6343 162.435 47.6343H154.155C153.627 47.6343 153.267 47.5383 153.075 47.3463C152.883 47.1543 152.787 46.8003 152.787 46.2843V43.3863C152.787 42.8703 152.883 42.5163 153.075 42.3243C153.267 42.1323 153.627 42.0363 154.155 42.0363H162.435ZM154.947 43.5123C154.803 43.5123 154.701 43.5423 154.641 43.6023C154.593 43.6503 154.569 43.7463 154.569 43.8903V45.7803C154.569 45.9123 154.593 46.0023 154.641 46.0503C154.701 46.1103 154.803 46.1403 154.947 46.1403H161.643C161.787 46.1403 161.883 46.1103 161.931 46.0503C161.991 46.0023 162.021 45.9123 162.021 45.7803V43.8903C162.021 43.7463 161.991 43.6503 161.931 43.6023C161.883 43.5423 161.787 43.5123 161.643 43.5123H154.947ZM180.816 32.2983C181.032 32.2983 181.188 32.3763 181.284 32.5323C181.392 32.6883 181.446 32.8683 181.446 33.0723C181.446 33.2763 181.392 33.4563 181.284 33.6123C181.188 33.7683 181.032 33.8463 180.816 33.8463H177.864V35.5743C177.864 35.9703 177.882 36.3243 177.918 36.6363C177.966 36.9483 178.044 37.2423 178.152 37.5183C178.26 37.7823 178.404 38.0403 178.584 38.2923C178.764 38.5443 178.986 38.8023 179.25 39.0663C179.634 39.4503 180.006 39.8163 180.366 40.1643C180.726 40.5123 181.056 40.8123 181.356 41.0643C181.536 41.2323 181.608 41.4243 181.572 41.6403C181.548 41.8563 181.464 42.0363 181.32 42.1803C181.176 42.3363 181.002 42.4323 180.798 42.4683C180.594 42.5043 180.402 42.4443 180.222 42.2883C179.958 42.0483 179.664 41.7783 179.34 41.4783C179.028 41.1663 178.686 40.8303 178.314 40.4703C178.062 40.2063 177.852 39.9843 177.684 39.8043C177.516 39.6123 177.378 39.4443 177.27 39.3003C177.174 39.1563 177.102 39.0303 177.054 38.9223C177.006 38.8143 176.976 38.7123 176.964 38.6163H176.946C176.922 38.7243 176.886 38.8323 176.838 38.9403C176.79 39.0483 176.718 39.1743 176.622 39.3183C176.526 39.4623 176.394 39.6303 176.226 39.8223C176.058 40.0143 175.842 40.2423 175.578 40.5063C175.218 40.8663 174.864 41.2143 174.516 41.5503C174.168 41.8863 173.802 42.2223 173.418 42.5583C173.226 42.7263 173.022 42.7803 172.806 42.7203C172.59 42.6603 172.416 42.5523 172.284 42.3963C172.14 42.2283 172.062 42.0423 172.05 41.8383C172.05 41.6223 172.14 41.4363 172.32 41.2803C172.74 40.9083 173.136 40.5423 173.508 40.1823C173.88 39.8223 174.258 39.4503 174.642 39.0663C174.906 38.8023 175.128 38.5443 175.308 38.2923C175.488 38.0403 175.632 37.7823 175.74 37.5183C175.848 37.2423 175.92 36.9483 175.956 36.6363C176.004 36.3243 176.028 35.9703 176.028 35.5743V33.8463H172.986C172.758 33.8463 172.59 33.7683 172.482 33.6123C172.386 33.4563 172.338 33.2763 172.338 33.0723C172.338 32.8683 172.386 32.6883 172.482 32.5323C172.59 32.3763 172.758 32.2983 172.986 32.2983H180.816ZM184.272 31.0563C184.512 31.0563 184.722 31.1163 184.902 31.2363C185.094 31.3563 185.19 31.5483 185.19 31.8123V45.8523C185.19 46.1163 185.094 46.3083 184.902 46.4283C184.722 46.5483 184.512 46.6083 184.272 46.6083C184.044 46.6083 183.834 46.5483 183.642 46.4283C183.462 46.3083 183.372 46.1163 183.372 45.8523V31.8123C183.372 31.5483 183.462 31.3563 183.642 31.2363C183.834 31.1163 184.044 31.0563 184.272 31.0563ZM199.521 31.7223C200.049 31.7223 200.409 31.8183 200.601 32.0103C200.805 32.2023 200.907 32.5563 200.907 33.0723V34.1343C200.907 34.5543 200.883 34.9743 200.835 35.3943C200.799 35.8143 200.745 36.2223 200.673 36.6183C200.613 37.0023 200.535 37.3623 200.439 37.6983C200.355 38.0343 200.265 38.3283 200.169 38.5803L198.549 38.2383C198.921 36.9663 199.107 35.6403 199.107 34.2603V33.6483C199.107 33.5163 199.077 33.4263 199.017 33.3783C198.969 33.3183 198.873 33.2883 198.729 33.2883H190.521C190.305 33.2883 190.149 33.2103 190.053 33.0543C189.957 32.8983 189.909 32.7183 189.909 32.5143C189.909 32.2983 189.957 32.1123 190.053 31.9563C190.149 31.8003 190.305 31.7223 190.521 31.7223H199.521ZM202.491 37.7163C202.707 37.7163 202.863 37.7943 202.959 37.9503C203.067 38.1063 203.121 38.2863 203.121 38.4903C203.121 38.6943 203.067 38.8743 202.959 39.0303C202.863 39.1743 202.707 39.2463 202.491 39.2463H188.631C188.415 39.2463 188.253 39.1743 188.145 39.0303C188.049 38.8743 188.001 38.6943 188.001 38.4903C188.001 38.2863 188.049 38.1063 188.145 37.9503C188.253 37.7943 188.415 37.7163 188.631 37.7163H202.491ZM190.917 40.9563C191.145 40.9563 191.349 41.0163 191.529 41.1363C191.709 41.2563 191.799 41.4423 191.799 41.6943V43.0263H199.323V41.6943C199.323 41.4423 199.413 41.2563 199.593 41.1363C199.773 41.0163 199.971 40.9563 200.187 40.9563C200.415 40.9563 200.619 41.0163 200.799 41.1363C200.991 41.2563 201.087 41.4423 201.087 41.6943V46.2483C201.087 46.7643 200.985 47.1183 200.781 47.3103C200.589 47.5023 200.229 47.5983 199.701 47.5983H191.421C190.893 47.5983 190.533 47.5023 190.341 47.3103C190.149 47.1183 190.053 46.7643 190.053 46.2483V41.6943C190.053 41.4423 190.143 41.2563 190.323 41.1363C190.503 41.0163 190.701 40.9563 190.917 40.9563ZM191.799 45.8523C191.799 46.0443 191.895 46.1403 192.087 46.1403H199.035C199.227 46.1403 199.323 46.0443 199.323 45.8523V44.4663H191.799V45.8523ZM206.472 31.7403C206.772 31.7403 207.012 31.8063 207.192 31.9383C207.384 32.0703 207.474 32.2923 207.462 32.6043L207.246 41.1003C207.234 41.3883 207.15 41.5923 206.994 41.7123C206.85 41.8203 206.676 41.8743 206.472 41.8743C206.268 41.8743 206.088 41.8203 205.932 41.7123C205.788 41.5923 205.716 41.3883 205.716 41.1003L205.482 32.6043C205.482 32.2923 205.572 32.0703 205.752 31.9383C205.932 31.8063 206.172 31.7403 206.472 31.7403ZM206.472 43.3503C206.808 43.3503 207.09 43.4643 207.318 43.6923C207.546 43.9083 207.66 44.1843 207.66 44.5203C207.66 44.8563 207.546 45.1383 207.318 45.3663C207.09 45.5943 206.808 45.7083 206.472 45.7083C206.136 45.7083 205.854 45.5943 205.626 45.3663C205.398 45.1383 205.284 44.8563 205.284 44.5203C205.284 44.1843 205.398 43.9083 205.626 43.6923C205.854 43.4643 206.136 43.3503 206.472 43.3503Z" fill="black"/>
<path d="M147.933 8.6703C147.357 8.6703 146.955 8.5623 146.727 8.3463C146.511 8.1303 146.403 7.7403 146.403 7.1763V3.1983C146.403 2.6343 146.511 2.2443 146.727 2.0283C146.955 1.8123 147.357 1.7043 147.933 1.7043H156.177C156.753 1.7043 157.149 1.8123 157.365 2.0283C157.593 2.2443 157.707 2.6343 157.707 3.1983V7.1763C157.707 7.7403 157.593 8.1303 157.365 8.3463C157.149 8.5623 156.753 8.6703 156.177 8.6703H147.933ZM154.971 6.7263C155.247 6.7263 155.385 6.5883 155.385 6.3123V4.0623C155.385 3.7863 155.247 3.6483 154.971 3.6483H149.139C148.863 3.6483 148.725 3.7863 148.725 4.0623V6.3123C148.725 6.5883 148.863 6.7263 149.139 6.7263H154.971ZM145.251 12.2883C144.975 12.2883 144.771 12.1923 144.639 12.0003C144.507 11.8083 144.441 11.5803 144.441 11.3163C144.441 11.0523 144.507 10.8243 144.639 10.6323C144.771 10.4403 144.975 10.3443 145.251 10.3443H158.859C159.135 10.3443 159.339 10.4403 159.471 10.6323C159.603 10.8243 159.669 11.0523 159.669 11.3163C159.669 11.5803 159.603 11.8083 159.471 12.0003C159.339 12.1923 159.135 12.2883 158.859 12.2883H153.207V16.9863C153.207 17.3223 153.087 17.5683 152.847 17.7243C152.619 17.8803 152.355 17.9583 152.055 17.9583C151.755 17.9583 151.485 17.8803 151.245 17.7243C151.017 17.5683 150.903 17.3223 150.903 16.9863V12.2883H145.251ZM166.044 5.3583C167.28 5.3583 168.246 5.6103 168.942 6.1143C169.65 6.6063 170.004 7.2963 170.004 8.1843C170.004 9.0723 169.65 9.7683 168.942 10.2723C168.246 10.7643 167.28 11.0103 166.044 11.0103C164.808 11.0103 163.836 10.7643 163.128 10.2723C162.432 9.7683 162.084 9.0723 162.084 8.1843C162.084 7.2963 162.432 6.6063 163.128 6.1143C163.836 5.6103 164.808 5.3583 166.044 5.3583ZM166.044 9.2823C166.692 9.2823 167.166 9.1803 167.466 8.9763C167.778 8.7723 167.934 8.5083 167.934 8.1843C167.934 7.8603 167.778 7.5963 167.466 7.3923C167.166 7.1883 166.692 7.0863 166.044 7.0863C165.396 7.0863 164.916 7.1883 164.604 7.3923C164.304 7.5963 164.154 7.8603 164.154 8.1843C164.154 8.5083 164.304 8.7723 164.604 8.9763C164.916 9.1803 165.396 9.2823 166.044 9.2823ZM164.892 2.7663V1.9923C164.892 1.6563 165.006 1.4103 165.234 1.2543C165.474 1.0983 165.744 1.0203 166.044 1.0203C166.344 1.0203 166.608 1.0983 166.836 1.2543C167.076 1.4103 167.196 1.6563 167.196 1.9923V2.7663H170.022C170.298 2.7663 170.502 2.8623 170.634 3.0543C170.766 3.2463 170.832 3.4743 170.832 3.7383C170.832 3.9903 170.766 4.2123 170.634 4.4043C170.502 4.5963 170.298 4.6923 170.022 4.6923H161.886C161.61 4.6923 161.406 4.5963 161.274 4.4043C161.142 4.2123 161.076 3.9903 161.076 3.7383C161.076 3.4743 161.142 3.2463 161.274 3.0543C161.406 2.8623 161.61 2.7663 161.886 2.7663H164.892ZM174.144 6.8163H175.602C175.89 6.8163 176.1 6.9123 176.232 7.1043C176.364 7.2963 176.43 7.5303 176.43 7.8063C176.43 8.0823 176.364 8.3223 176.232 8.5263C176.1 8.7183 175.89 8.8143 175.602 8.8143H174.144V15.7443C174.144 16.0683 174.03 16.3083 173.802 16.4643C173.574 16.6203 173.31 16.6983 173.01 16.6983C172.71 16.6983 172.446 16.6203 172.218 16.4643C171.99 16.3083 171.876 16.0683 171.876 15.7443V1.9203C171.876 1.5963 171.99 1.3563 172.218 1.2003C172.446 1.0443 172.71 0.966302 173.01 0.966302C173.31 0.966302 173.574 1.0443 173.802 1.2003C174.03 1.3563 174.144 1.5963 174.144 1.9203V6.8163ZM170.508 13.9803C169.932 14.0283 169.296 14.0703 168.6 14.1063C167.904 14.1423 167.172 14.1783 166.404 14.2143C165.648 14.2383 164.862 14.2563 164.046 14.2683C163.23 14.2803 162.408 14.2863 161.58 14.2863C161.304 14.2863 161.1 14.1903 160.968 13.9983C160.836 13.8063 160.77 13.5783 160.77 13.3143C160.77 13.0623 160.836 12.8403 160.968 12.6483C161.1 12.4563 161.304 12.3603 161.58 12.3603C162.132 12.3603 162.684 12.3603 163.236 12.3603C163.788 12.3603 164.346 12.3543 164.91 12.3423V10.1103H167.178V12.2883C167.718 12.2643 168.246 12.2403 168.762 12.2163C169.29 12.1803 169.818 12.1383 170.346 12.0903C170.622 12.0663 170.826 12.1383 170.958 12.3063C171.102 12.4743 171.186 12.6903 171.21 12.9543C171.234 13.2063 171.192 13.4343 171.084 13.6383C170.976 13.8423 170.784 13.9563 170.508 13.9803ZM178.791 4.2423C178.515 4.2423 178.311 4.1463 178.179 3.9543C178.047 3.7623 177.981 3.5283 177.981 3.2523C177.981 2.9763 178.047 2.7423 178.179 2.5503C178.311 2.3583 178.515 2.2623 178.791 2.2623H185.073C185.649 2.2623 186.045 2.3703 186.261 2.5863C186.489 2.8023 186.603 3.1923 186.603 3.7563V5.1243C186.603 5.9403 186.561 6.7323 186.477 7.5003C186.393 8.2563 186.285 8.8863 186.153 9.3903C186.081 9.6663 185.919 9.8643 185.667 9.9843C185.415 10.0923 185.121 10.1163 184.785 10.0563C184.497 9.9963 184.269 9.8763 184.101 9.6963C183.933 9.5043 183.879 9.2463 183.939 8.9223C184.191 7.6983 184.317 6.4743 184.317 5.2503V4.6563C184.317 4.3803 184.179 4.2423 183.903 4.2423H178.791ZM190.527 6.8163H191.985C192.273 6.8163 192.483 6.9123 192.615 7.1043C192.747 7.2963 192.813 7.5303 192.813 7.8063C192.813 8.0823 192.747 8.3223 192.615 8.5263C192.483 8.7183 192.273 8.8143 191.985 8.8143H190.527V15.7443C190.527 16.0683 190.413 16.3083 190.185 16.4643C189.957 16.6203 189.693 16.6983 189.393 16.6983C189.093 16.6983 188.829 16.6203 188.601 16.4643C188.373 16.3083 188.259 16.0683 188.259 15.7443V1.9203C188.259 1.5963 188.373 1.3563 188.601 1.2003C188.829 1.0443 189.093 0.966302 189.393 0.966302C189.693 0.966302 189.957 1.0443 190.185 1.2003C190.413 1.3563 190.527 1.5963 190.527 1.9203V6.8163ZM186.855 13.5483C186.279 13.5963 185.643 13.6383 184.947 13.6743C184.251 13.7103 183.519 13.7463 182.751 13.7823C181.995 13.8063 181.209 13.8243 180.393 13.8363C179.589 13.8483 178.779 13.8543 177.963 13.8543C177.687 13.8543 177.483 13.7583 177.351 13.5663C177.219 13.3743 177.153 13.1463 177.153 12.8823C177.153 12.6183 177.219 12.3903 177.351 12.1983C177.483 12.0063 177.687 11.9103 177.963 11.9103C178.311 11.9103 178.653 11.9163 178.989 11.9283C179.337 11.9283 179.685 11.9223 180.033 11.9103V8.0403C180.033 7.7043 180.147 7.4583 180.375 7.3023C180.615 7.1463 180.879 7.0683 181.167 7.0683C181.455 7.0683 181.713 7.1463 181.941 7.3023C182.181 7.4583 182.301 7.7043 182.301 8.0403V11.8743C183.045 11.8503 183.783 11.8203 184.515 11.7843C185.247 11.7483 185.973 11.7003 186.693 11.6403C186.969 11.6163 187.173 11.6883 187.305 11.8563C187.449 12.0243 187.533 12.2403 187.557 12.5043C187.581 12.7563 187.539 12.9903 187.431 13.2063C187.323 13.4103 187.131 13.5243 186.855 13.5483ZM202.662 1.9923C203.394 1.9923 204.03 2.0823 204.57 2.2623C205.11 2.4423 205.554 2.6823 205.902 2.9823C206.262 3.2823 206.526 3.6303 206.694 4.0263C206.862 4.4223 206.946 4.8363 206.946 5.2683V5.3583C206.946 5.6823 206.898 6.0063 206.802 6.3303C206.706 6.6423 206.562 6.9363 206.37 7.2123C206.19 7.4763 205.968 7.7103 205.704 7.9143C205.44 8.1063 205.14 8.2563 204.804 8.3643C205.14 8.4123 205.47 8.5023 205.794 8.6343C206.118 8.7663 206.406 8.9523 206.658 9.1923C206.91 9.4203 207.108 9.7083 207.252 10.0563C207.408 10.3923 207.486 10.7943 207.486 11.2623V11.4423C207.486 11.9463 207.384 12.4263 207.18 12.8823C206.976 13.3263 206.676 13.7223 206.28 14.0703C205.884 14.4063 205.392 14.6763 204.804 14.8803C204.216 15.0843 203.538 15.1863 202.77 15.1863C202.062 15.1863 201.414 15.1143 200.826 14.9703C200.238 14.8143 199.68 14.5683 199.152 14.2323C198.876 14.0523 198.714 13.8243 198.666 13.5483C198.63 13.2603 198.69 12.9903 198.846 12.7383C199.014 12.4623 199.218 12.2943 199.458 12.2343C199.698 12.1743 199.956 12.2283 200.232 12.3963C200.652 12.6723 201.042 12.8643 201.402 12.9723C201.762 13.0803 202.164 13.1343 202.608 13.1343C203.088 13.1343 203.49 13.0923 203.814 13.0083C204.138 12.9123 204.396 12.7863 204.588 12.6303C204.792 12.4623 204.936 12.2703 205.02 12.0543C205.116 11.8263 205.164 11.5863 205.164 11.3343V11.1903C205.164 10.5783 204.96 10.1283 204.552 9.8403C204.144 9.5403 203.478 9.3903 202.554 9.3903H201.6C201.312 9.3903 201.102 9.2943 200.97 9.1023C200.838 8.9103 200.772 8.6763 200.772 8.4003C200.772 8.1243 200.838 7.8903 200.97 7.6983C201.102 7.5063 201.312 7.4103 201.6 7.4103H202.356C203.16 7.4103 203.748 7.2603 204.12 6.9603C204.504 6.6483 204.696 6.1803 204.696 5.5563V5.5023C204.696 5.0463 204.534 4.6863 204.21 4.4223C203.886 4.1463 203.364 4.0083 202.644 4.0083C202.212 4.0083 201.84 4.0803 201.528 4.2243C201.228 4.3683 200.922 4.5783 200.61 4.8543C200.382 5.0583 200.136 5.1483 199.872 5.1243C199.608 5.0883 199.392 4.9623 199.224 4.7463C199.044 4.5303 198.96 4.2963 198.972 4.0443C198.996 3.7923 199.092 3.5643 199.26 3.3603C199.644 2.9403 200.118 2.6103 200.682 2.3703C201.246 2.1183 201.906 1.9923 202.662 1.9923ZM214.256 1.9923C215.924 1.9923 217.136 2.5323 217.892 3.6123C218.66 4.6923 219.044 6.2223 219.044 8.2023V8.9763C219.044 10.9563 218.66 12.4863 217.892 13.5663C217.136 14.6463 215.924 15.1863 214.256 15.1863C212.588 15.1863 211.37 14.6463 210.602 13.5663C209.846 12.4863 209.468 10.9563 209.468 8.9763V8.2023C209.468 6.2223 209.846 4.6923 210.602 3.6123C211.37 2.5323 212.588 1.9923 214.256 1.9923ZM214.256 4.1703C213.788 4.1703 213.392 4.2483 213.068 4.4043C212.756 4.5603 212.504 4.8123 212.312 5.1603C212.132 5.4963 212 5.9283 211.916 6.4563C211.832 6.9843 211.79 7.6203 211.79 8.3643V8.8143C211.79 9.5583 211.832 10.1943 211.916 10.7223C212 11.2503 212.132 11.6883 212.312 12.0363C212.504 12.3723 212.756 12.6183 213.068 12.7743C213.392 12.9303 213.788 13.0083 214.256 13.0083C214.724 13.0083 215.114 12.9303 215.426 12.7743C215.75 12.6183 216.002 12.3723 216.182 12.0363C216.374 11.6883 216.512 11.2503 216.596 10.7223C216.68 10.1943 216.722 9.5583 216.722 8.8143V8.3643C216.722 7.6203 216.68 6.9843 216.596 6.4563C216.512 5.9283 216.374 5.4963 216.182 5.1603C216.002 4.8123 215.75 4.5603 215.426 4.4043C215.114 4.2483 214.724 4.1703 214.256 4.1703ZM221.548 4.2783C221.272 4.2783 221.068 4.1823 220.936 3.9903C220.804 3.7983 220.738 3.5703 220.738 3.3063C220.738 3.0303 220.804 2.7963 220.936 2.6043C221.068 2.4123 221.272 2.3163 221.548 2.3163H225.85C226.426 2.3163 226.822 2.4243 227.038 2.6403C227.266 2.8563 227.38 3.2463 227.38 3.8103V5.7183C227.38 6.2703 227.362 6.7503 227.326 7.1583C227.29 7.5663 227.212 7.9503 227.092 8.3103C226.984 8.6583 226.816 8.9943 226.588 9.3183C226.372 9.6303 226.072 9.9663 225.688 10.3263C225.316 10.6743 224.848 11.0583 224.284 11.4783C223.72 11.8983 223.042 12.3903 222.25 12.9543C222.01 13.1223 221.752 13.1703 221.476 13.0983C221.2 13.0143 220.984 12.8643 220.828 12.6483C220.756 12.5403 220.696 12.4203 220.648 12.2883C220.6 12.1563 220.576 12.0243 220.576 11.8923C220.576 11.7483 220.6 11.6163 220.648 11.4963C220.708 11.3763 220.804 11.2743 220.936 11.1903C221.62 10.7223 222.196 10.3143 222.664 9.9663C223.144 9.6183 223.54 9.3063 223.852 9.0303C224.164 8.7543 224.41 8.4963 224.59 8.2563C224.77 8.0163 224.902 7.7703 224.986 7.5183C225.07 7.2663 225.118 6.9963 225.13 6.7083C225.154 6.4083 225.166 6.0543 225.166 5.6463V4.6923C225.166 4.4163 225.028 4.2783 224.752 4.2783H221.548ZM231.052 6.3843H232.6V1.8663C232.6 1.5543 232.708 1.3263 232.924 1.1823C233.14 1.0383 233.386 0.966302 233.662 0.966302C233.938 0.966302 234.184 1.0383 234.4 1.1823C234.616 1.3263 234.724 1.5543 234.724 1.8663V15.7983C234.724 16.1103 234.616 16.3383 234.4 16.4823C234.184 16.6263 233.938 16.6983 233.662 16.6983C233.386 16.6983 233.14 16.6263 232.924 16.4823C232.708 16.3383 232.6 16.1103 232.6 15.7983V8.3283H231.052V15.0423C231.052 15.3543 230.944 15.5823 230.728 15.7263C230.512 15.8703 230.266 15.9423 229.99 15.9423C229.726 15.9423 229.486 15.8703 229.27 15.7263C229.054 15.5823 228.946 15.3543 228.946 15.0423V2.0463C228.946 1.7343 229.054 1.5063 229.27 1.3623C229.486 1.2183 229.726 1.1463 229.99 1.1463C230.266 1.1463 230.512 1.2183 230.728 1.3623C230.944 1.5063 231.052 1.7343 231.052 2.0463V6.3843Z" fill="#F57521"/>
</svg>
