<svg width="31" height="31" viewBox="0 0 31 31" fill="none" xmlns="http://www.w3.org/2000/svg">
<path fill-rule="evenodd" clip-rule="evenodd" d="M26.9573 6.97009H24.9906C25.174 6.48061 25.2906 5.94377 25.2906 5.39114C25.2906 2.77009 23.0573 0.654297 20.2906 0.654297C18.5406 0.654297 17.024 1.50693 16.124 2.78588L15.2906 3.84377L14.4573 2.77009C13.5573 1.50693 12.0406 0.654297 10.2906 0.654297C7.52398 0.654297 5.29065 2.77009 5.29065 5.39114C5.29065 5.94377 5.40732 6.48061 5.59065 6.97009H3.62398C1.77398 6.97009 0.307316 8.37535 0.307316 10.128L0.290649 27.4964C0.290649 29.249 1.77398 30.6543 3.62398 30.6543H26.9573C28.8073 30.6543 30.2906 29.249 30.2906 27.4964V10.128C30.2906 8.37535 28.8073 6.97009 26.9573 6.97009ZM20.2906 3.81219C21.2073 3.81219 21.9573 4.52272 21.9573 5.39114C21.9573 6.25956 21.2073 6.97009 20.2906 6.97009C19.374 6.97009 18.624 6.25956 18.624 5.39114C18.624 4.52272 19.374 3.81219 20.2906 3.81219ZM10.2906 3.81219C11.2073 3.81219 11.9573 4.52272 11.9573 5.39114C11.9573 6.25956 11.2073 6.97009 10.2906 6.97009C9.37398 6.97009 8.62398 6.25956 8.62398 5.39114C8.62398 4.52272 9.37398 3.81219 10.2906 3.81219ZM19.9406 15.1806C20.474 15.8753 21.524 16.0332 22.2573 15.528C23.0073 15.0227 23.174 14.028 22.624 13.3175L20.1573 10.128H25.2906C26.2073 10.128 26.9573 10.8385 26.9573 11.7069V16.4587H17.4715V12.1806C17.4715 12.1806 19.4073 14.4859 19.9406 15.1806ZM3.62398 11.7069V16.4587H12.9656V12.1806L10.6406 15.1806C10.1073 15.8753 9.05732 16.0332 8.32398 15.528C7.57398 15.0227 7.40732 14.028 7.95732 13.3175L10.424 10.128H5.29065C4.37398 10.128 3.62398 10.8385 3.62398 11.7069ZM26.9573 27.4964V19.5946H17.4715V27.4964H26.9573ZM3.62398 27.4964V23.5455V19.5946H12.9656V27.4964H3.62398Z" fill="#585856"/>
</svg>
