<svg width="33" height="28" viewBox="0 0 33 28" fill="none" xmlns="http://www.w3.org/2000/svg">
<path d="M17.828 0.989497L9.97963 8.83783C9.45546 9.362 9.15796 10.0845 9.15796 10.8353V24.9878C9.15796 26.5462 10.433 27.8212 11.9913 27.8212H24.7413C25.8746 27.8212 26.8946 27.1412 27.348 26.107L31.9663 15.3262C33.1563 12.5212 31.1021 9.4045 28.0563 9.4045H20.0521L21.398 2.91616C21.5396 2.20783 21.3271 1.48533 20.8171 0.97533C19.9813 0.153664 18.6496 0.153664 17.828 0.989497ZM3.49129 27.8212C5.04963 27.8212 6.32463 26.5462 6.32463 24.9878V13.6545C6.32463 12.0962 5.04963 10.8212 3.49129 10.8212C1.93296 10.8212 0.657959 12.0962 0.657959 13.6545V24.9878C0.657959 26.5462 1.93296 27.8212 3.49129 27.8212Z" fill="#585856"/>
</svg>
