<svg width="31" height="24" viewBox="0 0 31 24" fill="none" xmlns="http://www.w3.org/2000/svg">
<path d="M22.9932 23.9248C23.8182 23.9248 24.4932 23.2779 24.4932 22.4873V7.7673C24.4932 7.37918 24.3282 7.0198 24.0582 6.74668L18.4182 1.34168C18.1332 1.08293 17.7582 0.924805 17.3532 0.924805C16.0182 0.924805 15.3432 2.4773 16.2882 3.38293L21.2682 8.15543C21.4182 8.2848 21.4932 8.47168 21.4932 8.65856V22.4873C21.4932 23.2779 22.1682 23.9248 22.9932 23.9248ZM28.9932 23.9248C29.8182 23.9248 30.4932 23.2779 30.4932 22.4873V5.39543C30.4932 5.02168 30.3282 4.64793 30.0582 4.3748L26.9082 1.34168C26.6232 1.08293 26.2332 0.924805 25.8432 0.924805C24.4932 0.924805 23.8332 2.4773 24.7782 3.38293L27.2832 5.78356C27.4182 5.91293 27.4932 6.0998 27.4932 6.28668V22.4873C27.4932 23.2779 28.1682 23.9248 28.9932 23.9248ZM9.49316 16.7373C10.3182 16.7373 10.9932 17.3842 10.9932 18.1748V23.9248H16.9932C17.8182 23.9248 18.4932 23.2779 18.4932 22.4873V10.1392C18.4932 9.75105 18.3282 9.39168 18.0582 9.11855L10.5582 1.93105C9.97316 1.37043 9.02816 1.37043 8.44316 1.93105L0.943164 9.11855C0.658164 9.39168 0.493164 9.76543 0.493164 10.1392V22.4873C0.493164 23.2779 1.16816 23.9248 1.99316 23.9248H7.99316V18.1748C7.99316 17.3842 8.66816 16.7373 9.49316 16.7373ZM9.49316 13.8623C8.66816 13.8623 7.99316 13.2154 7.99316 12.4248C7.99316 11.6342 8.66816 10.9873 9.49316 10.9873C10.3182 10.9873 10.9932 11.6342 10.9932 12.4248C10.9932 13.2154 10.3182 13.8623 9.49316 13.8623Z" fill="#10432A"/>
</svg>
