<svg width="36" height="36" viewBox="0 0 36 36" fill="none" xmlns="http://www.w3.org/2000/svg">
<g clip-path="url(#clip0_1405_632)">
<path d="M19.527 5.41513V15.5068H31.1937C31.1937 9.62971 26.8479 4.75888 21.1895 3.95679C20.3145 3.82554 19.527 4.52554 19.527 5.41513ZM28.7437 24.0964C30.2749 22.1276 31.1937 19.6485 31.1937 16.9651H9.96035L8.96869 14.8797C8.73535 14.3693 8.21035 14.0485 7.65619 14.0485H4.94368C4.1416 14.0485 3.48535 14.7047 3.48535 15.5068C3.48535 16.3089 4.1416 16.9651 4.94368 16.9651H6.72285C6.72285 16.9651 9.4791 22.9005 9.81452 23.411C7.87494 24.4464 6.69368 26.7214 7.27702 29.1568C7.71452 30.9943 9.23118 32.4672 11.0687 32.8755C14.1312 33.5464 16.8729 31.4755 17.2666 28.6318H20.2999C20.6937 31.461 23.4208 33.5318 26.4541 32.8901C28.3062 32.4964 29.8228 31.038 30.2895 29.2005C30.7999 27.1735 30.0854 25.2922 28.7437 24.0964ZM12.2354 30.0901C11.0249 30.0901 10.0479 29.113 10.0479 27.9026C10.0479 26.6922 11.0249 25.7151 12.2354 25.7151C13.4458 25.7151 14.4229 26.6922 14.4229 27.9026C14.4229 29.113 13.4458 30.0901 12.2354 30.0901ZM25.3604 30.0901C24.1499 30.0901 23.1729 29.113 23.1729 27.9026C23.1729 26.6922 24.1499 25.7151 25.3604 25.7151C26.5708 25.7151 27.5479 26.6922 27.5479 27.9026C27.5479 29.113 26.5708 30.0901 25.3604 30.0901Z" fill="#A8D6EB"/>
</g>
<defs>
<clipPath id="clip0_1405_632">
<rect width="35" height="35" fill="white" transform="translate(0.568359 0.92334)"/>
</clipPath>
</defs>
</svg>
