<svg width="28" height="26" viewBox="0 0 28 26" fill="none" xmlns="http://www.w3.org/2000/svg">
<path d="M3.2959 12.1748C1.9209 12.1748 0.795898 13.2998 0.795898 14.6748V23.4248C0.795898 24.7998 1.9209 25.9248 3.2959 25.9248C4.6709 25.9248 5.7959 24.7998 5.7959 23.4248V14.6748C5.7959 13.2998 4.6709 12.1748 3.2959 12.1748Z" fill="#DE9043"/>
<path d="M12.0459 5.0498C12.0459 2.7373 13.8584 0.924805 16.1709 0.924805C17.4709 0.924805 18.7334 1.5373 19.5459 2.4873C20.3584 1.5373 21.6209 0.924805 22.9209 0.924805C25.2334 0.924805 27.0459 2.7373 27.0459 5.0498C27.0459 7.6748 23.9209 10.6873 20.3834 13.9123C19.9084 14.3498 19.1709 14.3498 18.6959 13.9123C15.1709 10.6873 12.0459 7.6748 12.0459 5.0498Z" fill="#DE9043"/>
<path d="M24.5334 19.6748H15.9959C15.8584 19.6748 15.7209 19.6498 15.5834 19.5998L13.7459 18.9623C13.4209 18.8498 13.2584 18.4998 13.3709 18.1748C13.4834 17.8498 13.8459 17.6748 14.1709 17.7998L15.5709 18.3373C15.7084 18.3873 15.8709 18.4248 16.0209 18.4248H19.3084C20.1209 18.4248 20.7834 17.7623 20.7834 16.9498C20.7834 16.3373 20.3959 15.7873 19.8209 15.5623L11.1709 12.3373C10.8959 12.2248 10.5959 12.1748 10.2959 12.1748H8.2959V23.4498L16.2584 25.7123C16.7709 25.8623 17.3209 25.8373 17.8209 25.6498L27.0459 22.1748C27.0459 20.7873 25.9209 19.6748 24.5334 19.6748Z" fill="#DE9043"/>
</svg>
