<svg width="36" height="36" viewBox="0 0 36 36" fill="none" xmlns="http://www.w3.org/2000/svg">
<path d="M13.3333 6.84796C13.3333 5.05488 14.6313 3.61719 16.25 3.61719C17.8688 3.61719 19.1667 5.05488 19.1667 6.84796C19.1667 8.64103 17.8688 10.0787 16.25 10.0787C14.6313 10.0787 13.3333 8.64103 13.3333 6.84796ZM23.5417 21.3864C23.5271 19.2218 22.3313 17.3318 20.625 16.5403C20.625 13.778 18.5542 11.5649 16.0167 11.6941C13.6542 11.8395 11.875 14.1818 11.875 16.7987V26.2326C11.875 27.121 12.5312 27.848 13.3333 27.848H14.7917V33.5018C14.7917 34.8426 15.7688 35.9249 16.9792 35.9249C18.1896 35.9249 19.1667 34.8426 19.1667 33.5018V27.848H22.0833C22.8854 27.848 23.5417 27.121 23.5417 26.2326V21.3864Z" fill="#F4D14D"/>
</svg>
