<svg width="34" height="34" viewBox="0 0 34 34" fill="none" xmlns="http://www.w3.org/2000/svg">
<g clip-path="url(#clip0_1405_481)">
<path d="M27.5586 11.2832V27.7832C27.5586 29.2957 26.3211 30.5332 24.8086 30.5332H8.30859C6.79609 30.5332 5.55859 29.2957 5.55859 27.7832V11.2832C5.55859 8.7257 7.31859 6.59445 9.68359 5.9757V5.0957C9.68359 3.95445 10.6048 3.0332 11.7461 3.0332C12.8873 3.0332 13.8086 3.95445 13.8086 5.0957V5.7832H19.3086V5.0957C19.3086 3.95445 20.2298 3.0332 21.3711 3.0332C22.5123 3.0332 23.4336 3.95445 23.4336 5.0957V5.9757C25.7986 6.59445 27.5586 8.7257 27.5586 11.2832ZM8.30859 18.1582C8.30859 18.9145 8.92734 19.5332 9.68359 19.5332H22.0586V20.9082C22.0586 21.6645 22.6773 22.2832 23.4336 22.2832C24.1898 22.2832 24.8086 21.6645 24.8086 20.9082V18.1582C24.8086 17.402 24.1898 16.7832 23.4336 16.7832H9.68359C8.92734 16.7832 8.30859 17.402 8.30859 18.1582Z" fill="#704179"/>
</g>
<defs>
<clipPath id="clip0_1405_481">
<rect width="33" height="33" fill="white" transform="translate(0.0585938 0.283203)"/>
</clipPath>
</defs>
</svg>
