<svg width="26" height="36" viewBox="0 0 26 36" fill="none" xmlns="http://www.w3.org/2000/svg">
<path d="M10.755 3.53902C10.755 1.74832 12.3622 0.283203 14.3265 0.283203C16.2907 0.283203 17.8979 1.74832 17.8979 3.53902C17.8979 5.32971 16.2907 6.79483 14.3265 6.79483C12.3622 6.79483 10.755 5.32971 10.755 3.53902ZM23.3086 15.7483C20.505 15.7646 18.0586 14.2832 16.88 12.1506L15.4693 9.43204C15.1657 8.86227 14.6836 8.3739 14.0407 8.04832C12.9336 7.46227 11.63 7.49483 10.5765 7.99948V7.9832L2.73717 12.053C1.63002 12.6227 0.933594 13.6972 0.933594 14.8692V19.0041C0.933594 19.8995 1.73717 20.632 2.71931 20.632C3.70145 20.632 4.50502 19.8995 4.50502 19.0041V14.8692L7.18359 13.4855C6.61216 15.2762 6.29074 17.132 6.29074 19.0041V27.6809L2.71931 32.0274C2.13002 32.7437 2.29074 33.7692 3.07645 34.3065C3.86216 34.8437 4.98717 34.6972 5.57645 33.9809L9.21931 29.553C9.63002 29.0483 9.88002 28.4297 9.93359 27.7948L10.255 23.0088L13.4336 27.1437V33.6553C13.4336 34.5506 14.2372 35.2832 15.2193 35.2832C16.2015 35.2832 17.005 34.5506 17.005 33.6553V25.7274C17.005 25.0599 16.7729 24.4088 16.3622 23.8553L13.505 20.1274C13.505 20.1274 13.505 20.1274 13.505 20.1111C13.3086 18.2227 13.63 16.3344 14.3265 14.5762C15.7729 16.5786 17.9872 18.0599 20.5943 18.6786V18.7274V19.0041C20.5943 19.4599 20.9872 19.8181 21.4872 19.8181C21.9872 19.8181 22.3622 19.4599 22.3622 19.0041V18.7437V18.1902C22.3622 17.7344 22.755 17.3762 23.255 17.3762C23.755 17.3762 24.1479 17.7344 24.1479 18.1902V34.4692C24.1479 34.9251 24.5407 35.2832 25.0407 35.2832C25.5407 35.2832 25.9336 34.9251 25.9336 34.4692V18.1902C25.9336 16.8553 24.755 15.732 23.3086 15.7483Z" fill="#D4717D"/>
</svg>
