<svg width="31" height="36" viewBox="0 0 31 36" fill="none" xmlns="http://www.w3.org/2000/svg">
<path d="M30.082 9.6573C29.8428 8.6948 28.9034 8.1348 27.9639 8.3448C23.8985 9.2723 19.372 9.6748 15.1358 9.6748C10.8996 9.6748 6.37303 9.2723 2.30767 8.3448C1.36819 8.1348 0.428719 8.6948 0.18958 9.6573C-0.0495588 10.6373 0.531207 11.6348 1.47068 11.8623C4.22078 12.4923 7.19294 12.9298 10.0114 13.1748V34.1748C10.0114 35.1373 10.78 35.9248 11.7195 35.9248C12.659 35.9248 13.4276 35.1373 13.4276 34.1748V25.4248H16.8439V34.1748C16.8439 35.1373 17.6126 35.9248 18.552 35.9248C19.4915 35.9248 20.2602 35.1373 20.2602 34.1748V13.1748C23.0786 12.9298 26.0508 12.4923 28.7838 11.8623C29.7403 11.6348 30.3211 10.6373 30.082 9.6573ZM15.1358 7.9248C17.0147 7.9248 18.552 6.3498 18.552 4.4248C18.552 2.4998 17.0147 0.924805 15.1358 0.924805C13.2568 0.924805 11.7195 2.4998 11.7195 4.4248C11.7195 6.3498 13.2568 7.9248 15.1358 7.9248Z" fill="#7EB554"/>
</svg>
