<svg width="36" height="36" viewBox="0 0 36 36" fill="none" xmlns="http://www.w3.org/2000/svg">
<g clip-path="url(#clip0_1405_606)">
<path d="M21.3298 17.4185C22.3365 17.4185 23.1527 16.6024 23.1527 15.5956C23.1527 14.5889 22.3365 13.7727 21.3298 13.7727C20.323 13.7727 19.5068 14.5889 19.5068 15.5956C19.5068 16.6024 20.323 17.4185 21.3298 17.4185Z" fill="#5380A9"/>
<path d="M14.0378 17.4185C15.0445 17.4185 15.8607 16.6024 15.8607 15.5956C15.8607 14.5889 15.0445 13.7727 14.0378 13.7727C13.031 13.7727 12.2148 14.5889 12.2148 15.5956C12.2148 16.6024 13.031 17.4185 14.0378 17.4185Z" fill="#5380A9"/>
<path d="M33.6374 18.7457C33.6958 18.4395 33.7249 18.1186 33.7249 17.7832C33.7249 17.4478 33.6958 17.127 33.6374 16.8207C33.2729 14.6186 31.6541 12.8249 29.5395 12.1978C28.7666 10.5645 27.6729 9.13529 26.3458 7.95404C24.0416 5.89779 21.0083 4.6582 17.6833 4.6582C14.3583 4.6582 11.3249 5.89779 9.02077 7.95404C7.6791 9.13529 6.58535 10.579 5.82702 12.1978C3.71243 12.8249 2.09368 14.604 1.7291 16.8207C1.67077 17.127 1.6416 17.4478 1.6416 17.7832C1.6416 18.1186 1.67077 18.4395 1.7291 18.7457C2.09368 20.9478 3.71243 22.7415 5.82702 23.3686C6.58535 24.9874 7.6791 26.4165 8.9916 27.5832C11.2958 29.654 14.3437 30.9082 17.6833 30.9082C21.0229 30.9082 24.0708 29.654 26.3895 27.5832C27.702 26.4165 28.7958 24.9728 29.5541 23.3686C31.6541 22.7415 33.2729 20.9624 33.6374 18.7457ZM27.8916 20.6999C27.7458 20.6999 27.6145 20.6707 27.4687 20.6561C27.177 21.6332 26.7541 22.5374 26.2145 23.3686C24.3916 26.154 21.2562 27.9915 17.6833 27.9915C14.1104 27.9915 10.9749 26.154 9.15202 23.3686C8.61243 22.5374 8.18952 21.6332 7.89785 20.6561C7.75202 20.6707 7.62077 20.6999 7.47493 20.6999C5.87077 20.6999 4.55827 19.3874 4.55827 17.7832C4.55827 16.179 5.87077 14.8665 7.47493 14.8665C7.62077 14.8665 7.75202 14.8957 7.89785 14.9103C8.18952 13.9332 8.61243 13.029 9.15202 12.1978C10.9749 9.41237 14.1104 7.57487 17.6833 7.57487C21.2562 7.57487 24.3916 9.41237 26.2145 12.1978C26.7541 13.029 27.177 13.9332 27.4687 14.9103C27.6145 14.8957 27.7458 14.8665 27.8916 14.8665C29.4958 14.8665 30.8083 16.179 30.8083 17.7832C30.8083 19.3874 29.4958 20.6999 27.8916 20.6999ZM11.1208 20.6999C12.2291 23.2811 14.752 25.0749 17.6833 25.0749C20.6145 25.0749 23.1374 23.2811 24.2458 20.6999H11.1208Z" fill="#5380A9"/>
</g>
<defs>
<clipPath id="clip0_1405_606">
<rect width="35" height="35" fill="white" transform="translate(0.183594 0.283203)"/>
</clipPath>
</defs>
</svg>
