<svg width="266" height="220" viewBox="0 0 266 220" fill="none" xmlns="http://www.w3.org/2000/svg">
    <rect x="1.66309" y="1.86987" width="262.489" height="216.576" rx="18.5" fill="white" stroke="#F57521" stroke-width="3"/>
    <path d="M0.163086 20.3699C0.163086 9.32418 9.11739 0.369873 20.1631 0.369873H245.652C256.698 0.369873 265.652 9.32418 265.652 20.3699V48.0603H0.163086V20.3699Z" fill="#F57521"/>
    <path d="M126.552 26.786C126.552 27.4527 126.435 28.1277 126.202 28.811C125.969 29.4777 125.602 30.086 125.102 30.636C124.602 31.186 123.952 31.6277 123.152 31.961C122.352 32.311 121.394 32.486 120.277 32.486C119.044 32.486 117.927 32.3194 116.927 31.986C115.927 31.6694 115.002 31.1694 114.152 30.486L115.377 28.511C116.244 29.1944 117.069 29.6527 117.852 29.886C118.652 30.1194 119.477 30.236 120.327 30.236C120.977 30.236 121.535 30.136 122.002 29.936C122.485 29.736 122.877 29.4777 123.177 29.161C123.494 28.8277 123.719 28.4527 123.852 28.036C124.002 27.6194 124.077 27.2027 124.077 26.786V26.486C124.077 25.286 123.76 24.3944 123.127 23.811C122.494 23.211 121.602 22.911 120.452 22.911C119.685 22.911 119.002 23.0527 118.402 23.336C117.819 23.6194 117.327 23.9527 116.927 24.336H115.027L115.602 14.186H125.377V16.311H117.852L117.577 21.936C117.977 21.636 118.485 21.3777 119.102 21.161C119.735 20.9444 120.427 20.836 121.177 20.836C122.027 20.836 122.785 20.986 123.452 21.286C124.119 21.5694 124.677 21.9694 125.127 22.486C125.594 22.986 125.944 23.5777 126.177 24.261C126.427 24.9277 126.552 25.6444 126.552 26.411V26.786ZM132.286 35.211V29.886H144.836V28.536H132.161V26.536H147.261V31.811H134.611V33.211H147.936V35.211H132.286ZM135.611 19.686C133.828 19.686 132.436 19.3694 131.436 18.736C130.453 18.086 129.961 17.261 129.961 16.261V15.611C129.961 15.111 130.086 14.6527 130.336 14.236C130.603 13.8194 130.978 13.461 131.461 13.161C131.944 12.8444 132.536 12.6027 133.236 12.436C133.936 12.2694 134.728 12.186 135.611 12.186C137.394 12.2027 138.778 12.5277 139.761 13.161C140.761 13.7944 141.261 14.611 141.261 15.611V16.261C141.261 17.261 140.761 18.086 139.761 18.736C138.778 19.3694 137.394 19.686 135.611 19.686ZM144.811 25.686V24.911H139.936V23.011H144.811V12.011H147.261V25.686H144.811ZM134.136 25.636V22.536C133.319 22.5694 132.444 22.586 131.511 22.586C130.578 22.586 129.553 22.586 128.436 22.586V20.611C130.253 20.611 131.828 20.6027 133.161 20.586C134.511 20.5694 135.744 20.5444 136.861 20.511C137.978 20.461 139.028 20.4027 140.011 20.336C141.011 20.2694 142.061 20.186 143.161 20.086L143.361 21.986C142.261 22.1027 141.178 22.2027 140.111 22.286C139.061 22.3527 137.886 22.411 136.586 22.461V25.636H134.136ZM135.611 17.611C136.761 17.611 137.594 17.4694 138.111 17.186C138.644 16.886 138.911 16.536 138.911 16.136V15.736C138.911 15.336 138.644 14.9944 138.111 14.711C137.594 14.4277 136.761 14.286 135.611 14.286C134.461 14.286 133.619 14.4277 133.086 14.711C132.569 14.9944 132.311 15.336 132.311 15.736V16.136C132.311 16.536 132.569 16.886 133.086 17.186C133.619 17.4694 134.461 17.611 135.611 17.611Z" fill="white"/>
    <path d="M45.1586 85.8973C45.1586 80.3745 49.6358 75.8973 55.1586 75.8973H256.339V98.7179H55.1586C49.6358 98.7179 45.1586 94.2407 45.1586 88.7179V85.8973Z" fill="#F57521"/>
    <path d="M12.041 101.718H33.2104C38.7332 101.718 43.2104 106.195 43.2104 111.718V114.539C43.2104 120.062 38.7332 124.539 33.2104 124.539H12.041V101.718Z" fill="#F57521"/>
    <path d="M61.5989 92.63V83.555L59.0639 85.055L58.3589 83.855L61.8389 81.815H63.0839V92.63H61.5989Z" fill="white"/>
    <path d="M58.7316 111.324C58.7316 111.614 58.7816 111.889 58.8816 112.149C58.9816 112.409 59.1216 112.634 59.3016 112.824C59.4916 113.014 59.7166 113.164 59.9766 113.274C60.2366 113.384 60.5266 113.439 60.8466 113.439C61.1666 113.439 61.4566 113.384 61.7166 113.274C61.9766 113.164 62.1966 113.014 62.3766 112.824C62.5666 112.634 62.7116 112.409 62.8116 112.149C62.9116 111.889 62.9616 111.614 62.9616 111.324V111.144C62.9616 110.584 62.7666 110.144 62.3766 109.824C61.9966 109.494 61.4866 109.329 60.8466 109.329C60.1966 109.329 59.6816 109.494 59.3016 109.824C58.9216 110.144 58.7316 110.584 58.7316 111.144V111.324ZM58.4316 116.604C58.4316 116.884 58.4866 117.144 58.5966 117.384C58.7066 117.624 58.8666 117.834 59.0766 118.014C59.2866 118.194 59.5366 118.339 59.8266 118.449C60.1266 118.549 60.4666 118.599 60.8466 118.599C61.2266 118.599 61.5666 118.549 61.8666 118.449C62.1666 118.339 62.4166 118.194 62.6166 118.014C62.8266 117.834 62.9866 117.624 63.0966 117.384C63.2066 117.144 63.2616 116.884 63.2616 116.604V116.424C63.2616 116.104 63.2016 115.814 63.0816 115.554C62.9616 115.294 62.7966 115.069 62.5866 114.879C62.3766 114.689 62.1216 114.544 61.8216 114.444C61.5316 114.344 61.2066 114.294 60.8466 114.294C60.4966 114.294 60.1716 114.344 59.8716 114.444C59.5816 114.544 59.3266 114.689 59.1066 114.879C58.8966 115.059 58.7316 115.279 58.6116 115.539C58.4916 115.799 58.4316 116.094 58.4316 116.424V116.604ZM57.3666 116.379C57.3666 115.779 57.5466 115.254 57.9066 114.804C58.2766 114.344 58.7566 114.024 59.3466 113.844C58.8266 113.604 58.4216 113.269 58.1316 112.839C57.8516 112.409 57.7116 111.909 57.7116 111.339V111.099C57.7116 110.709 57.7866 110.349 57.9366 110.019C58.0966 109.689 58.3166 109.404 58.5966 109.164C58.8766 108.924 59.2066 108.739 59.5866 108.609C59.9766 108.469 60.3966 108.399 60.8466 108.399C61.2966 108.399 61.7116 108.469 62.0916 108.609C62.4816 108.739 62.8166 108.924 63.0966 109.164C63.3766 109.404 63.5916 109.689 63.7416 110.019C63.9016 110.349 63.9816 110.709 63.9816 111.099V111.339C63.9816 111.909 63.8366 112.409 63.5466 112.839C63.2666 113.269 62.8616 113.604 62.3316 113.844C62.6216 113.934 62.8866 114.059 63.1266 114.219C63.3766 114.379 63.5866 114.574 63.7566 114.804C63.9366 115.024 64.0766 115.269 64.1766 115.539C64.2766 115.799 64.3266 116.079 64.3266 116.379V116.634C64.3266 117.064 64.2416 117.459 64.0716 117.819C63.9116 118.179 63.6766 118.489 63.3666 118.749C63.0666 118.999 62.7016 119.194 62.2716 119.334C61.8416 119.474 61.3666 119.544 60.8466 119.544C60.3266 119.544 59.8516 119.474 59.4216 119.334C58.9916 119.194 58.6216 118.999 58.3116 118.749C58.0116 118.489 57.7766 118.179 57.6066 117.819C57.4466 117.459 57.3666 117.064 57.3666 116.634V116.379Z" fill="#585856"/>
    <path d="M23.9902 119.39H22.3702L26.6602 109.865H20.7802V108.575H28.2652V109.715L23.9902 119.39Z" fill="white"/>
    <path d="M246.177 83.645C245.837 83.445 245.472 83.29 245.082 83.18C244.692 83.07 244.282 83.015 243.852 83.015C243.482 83.015 243.142 83.08 242.832 83.21C242.532 83.33 242.267 83.535 242.037 83.825C241.817 84.115 241.637 84.5 241.497 84.98C241.367 85.46 241.287 86.055 241.257 86.765C241.347 86.605 241.472 86.455 241.632 86.315C241.802 86.165 241.997 86.035 242.217 85.925C242.447 85.805 242.697 85.71 242.967 85.64C243.247 85.57 243.537 85.535 243.837 85.535C244.317 85.535 244.762 85.615 245.172 85.775C245.592 85.935 245.952 86.165 246.252 86.465C246.562 86.765 246.802 87.13 246.972 87.56C247.152 87.98 247.242 88.455 247.242 88.985V89.315C247.242 89.835 247.152 90.31 246.972 90.74C246.792 91.16 246.542 91.525 246.222 91.835C245.902 92.135 245.512 92.37 245.052 92.54C244.602 92.71 244.102 92.795 243.552 92.795C242.332 92.795 241.397 92.42 240.747 91.67C240.107 90.91 239.787 89.8 239.787 88.34V87.785C239.787 86.605 239.887 85.62 240.087 84.83C240.297 84.04 240.582 83.41 240.942 82.94C241.312 82.47 241.752 82.14 242.262 81.95C242.772 81.75 243.332 81.65 243.942 81.65C244.432 81.65 244.917 81.71 245.397 81.83C245.887 81.95 246.337 82.135 246.747 82.385L246.177 83.645ZM241.302 89.165C241.302 89.865 241.497 90.42 241.887 90.83C242.277 91.24 242.812 91.445 243.492 91.445C244.192 91.445 244.742 91.255 245.142 90.875C245.552 90.495 245.757 89.95 245.757 89.24V89.045C245.757 88.325 245.552 87.78 245.142 87.41C244.732 87.04 244.197 86.855 243.537 86.855C243.207 86.855 242.902 86.91 242.622 87.02C242.352 87.13 242.117 87.28 241.917 87.47C241.727 87.65 241.577 87.87 241.467 88.13C241.357 88.38 241.302 88.655 241.302 88.955V89.165Z" fill="white"/>
    <path d="M210.901 89.375C210.901 89.775 210.831 90.18 210.691 90.59C210.551 90.99 210.331 91.355 210.031 91.685C209.731 92.015 209.341 92.28 208.861 92.48C208.381 92.69 207.806 92.795 207.136 92.795C206.396 92.795 205.726 92.695 205.126 92.495C204.526 92.305 203.971 92.005 203.461 91.595L204.196 90.41C204.716 90.82 205.211 91.095 205.681 91.235C206.161 91.375 206.656 91.445 207.166 91.445C207.556 91.445 207.891 91.385 208.171 91.265C208.461 91.145 208.696 90.99 208.876 90.8C209.066 90.6 209.201 90.375 209.281 90.125C209.371 89.875 209.416 89.625 209.416 89.375V89.195C209.416 88.475 209.226 87.94 208.846 87.59C208.466 87.23 207.931 87.05 207.241 87.05C206.781 87.05 206.371 87.135 206.011 87.305C205.661 87.475 205.366 87.675 205.126 87.905H203.986L204.331 81.815H210.196V83.09H205.681L205.516 86.465C205.756 86.285 206.061 86.13 206.431 86C206.811 85.87 207.226 85.805 207.676 85.805C208.186 85.805 208.641 85.895 209.041 86.075C209.441 86.245 209.776 86.485 210.046 86.795C210.326 87.095 210.536 87.45 210.676 87.86C210.826 88.26 210.901 88.69 210.901 89.15V89.375Z" fill="white"/>
    <path d="M173.45 85.73V89.045H174.98V90.305H173.45V92.63H171.98V90.305H166.58V89.195L171.665 81.815H173.3L168.32 89.045H171.98V85.73H173.45Z" fill="white"/>
    <path d="M130.959 83.27C131.119 83.05 131.294 82.84 131.484 82.64C131.684 82.44 131.909 82.27 132.159 82.13C132.419 81.98 132.704 81.865 133.014 81.785C133.334 81.695 133.699 81.65 134.109 81.65C134.609 81.65 135.059 81.715 135.459 81.845C135.859 81.975 136.199 82.16 136.479 82.4C136.769 82.63 136.989 82.915 137.139 83.255C137.299 83.585 137.379 83.95 137.379 84.35V84.5C137.379 84.71 137.354 84.935 137.304 85.175C137.254 85.415 137.164 85.645 137.034 85.865C136.904 86.085 136.729 86.29 136.509 86.48C136.289 86.67 136.014 86.825 135.684 86.945C136.414 87.075 136.959 87.365 137.319 87.815C137.689 88.265 137.874 88.805 137.874 89.435V89.66C137.874 90.06 137.799 90.45 137.649 90.83C137.509 91.2 137.284 91.535 136.974 91.835C136.674 92.125 136.284 92.355 135.804 92.525C135.324 92.705 134.754 92.795 134.094 92.795C133.464 92.795 132.854 92.695 132.264 92.495C131.684 92.305 131.139 92.005 130.629 91.595L131.364 90.41C131.894 90.79 132.364 91.06 132.774 91.22C133.184 91.37 133.624 91.445 134.094 91.445C134.484 91.445 134.824 91.4 135.114 91.31C135.404 91.21 135.644 91.08 135.834 90.92C136.024 90.76 136.164 90.575 136.254 90.365C136.344 90.145 136.389 89.915 136.389 89.675V89.48C136.389 89.12 136.329 88.825 136.209 88.595C136.099 88.355 135.944 88.165 135.744 88.025C135.544 87.885 135.304 87.785 135.024 87.725C134.754 87.665 134.464 87.635 134.154 87.635H132.819V86.345H134.094C134.434 86.345 134.719 86.295 134.949 86.195C135.179 86.085 135.364 85.945 135.504 85.775C135.644 85.605 135.744 85.41 135.804 85.19C135.874 84.97 135.909 84.745 135.909 84.515V84.395C135.909 84.155 135.859 83.95 135.759 83.78C135.669 83.6 135.544 83.45 135.384 83.33C135.224 83.21 135.034 83.12 134.814 83.06C134.594 83 134.364 82.97 134.124 82.97C133.674 82.97 133.284 83.055 132.954 83.225C132.624 83.395 132.314 83.67 132.024 84.05L130.959 83.27Z" fill="white"/>
    <path d="M98.488 87.005C98.798 86.665 99.043 86.37 99.223 86.12C99.403 85.87 99.538 85.65 99.628 85.46C99.718 85.26 99.773 85.085 99.793 84.935C99.823 84.775 99.838 84.625 99.838 84.485V84.365C99.838 83.935 99.668 83.6 99.328 83.36C98.998 83.11 98.548 82.985 97.978 82.985C97.778 82.985 97.573 83.01 97.363 83.06C97.163 83.1 96.963 83.18 96.763 83.3C96.563 83.42 96.368 83.585 96.178 83.795C95.988 83.995 95.803 84.25 95.623 84.56L94.483 83.825C94.613 83.595 94.773 83.355 94.963 83.105C95.153 82.845 95.383 82.61 95.653 82.4C95.933 82.18 96.258 82 96.628 81.86C97.008 81.72 97.448 81.65 97.948 81.65C98.498 81.65 98.983 81.72 99.403 81.86C99.823 81.99 100.173 82.175 100.453 82.415C100.743 82.655 100.958 82.945 101.098 83.285C101.248 83.615 101.323 83.975 101.323 84.365V84.515C101.323 85.105 101.168 85.66 100.858 86.18C100.548 86.7 100.148 87.22 99.658 87.74L96.283 91.34H101.713V92.63H94.453V91.385L98.488 87.005Z" fill="white"/>
    <path d="M56.9569 146.128V136.633L54.3469 138.223L53.8669 137.383L57.2119 135.313H58.0069V146.128H56.9569ZM68.411 142.873C68.411 142.003 68.196 141.373 67.766 140.983C67.346 140.583 66.746 140.383 65.966 140.383C65.506 140.383 65.096 140.468 64.736 140.638C64.376 140.808 64.076 141.008 63.836 141.238H62.846L63.191 135.313H68.756V136.273H64.121L63.956 140.203C64.196 139.973 64.521 139.788 64.931 139.648C65.341 139.508 65.771 139.438 66.221 139.438C66.751 139.438 67.216 139.528 67.616 139.708C68.026 139.878 68.366 140.113 68.636 140.413C68.906 140.713 69.106 141.073 69.236 141.493C69.376 141.903 69.446 142.348 69.446 142.828V143.053C69.446 143.443 69.381 143.833 69.251 144.223C69.121 144.603 68.911 144.948 68.621 145.258C68.341 145.558 67.966 145.803 67.496 145.993C67.026 146.193 66.456 146.293 65.786 146.293C65.046 146.293 64.396 146.183 63.836 145.963C63.276 145.753 62.756 145.463 62.276 145.093L62.816 144.238C63.336 144.638 63.831 144.923 64.301 145.093C64.781 145.253 65.276 145.333 65.786 145.333C66.266 145.333 66.671 145.263 67.001 145.123C67.341 144.973 67.616 144.788 67.826 144.568C68.036 144.348 68.186 144.108 68.276 143.848C68.366 143.578 68.411 143.318 68.411 143.068V142.873Z" fill="#585856"/>
    <path d="M20.6161 146.136V136.641L18.006 138.231L17.526 137.391L20.871 135.321H21.666V146.136H20.6161ZM31.9952 139.371V142.776H33.5852V143.736H31.9952V146.136H30.9452V143.736H25.5302V142.776L30.7802 135.321H31.9802L26.7452 142.776H30.9452V139.371H31.9952Z" fill="#585856"/>
    <path d="M240.716 119.376V109.881L238.106 111.471L237.626 110.631L240.971 108.561H241.766V119.376H240.716ZM246.305 110.076C246.435 109.856 246.595 109.646 246.785 109.446C246.975 109.246 247.195 109.071 247.445 108.921C247.705 108.761 247.995 108.636 248.315 108.546C248.645 108.446 249.015 108.396 249.425 108.396C249.915 108.396 250.355 108.461 250.745 108.591C251.145 108.721 251.48 108.906 251.75 109.146C252.03 109.376 252.245 109.661 252.395 110.001C252.545 110.331 252.62 110.696 252.62 111.096V111.246C252.62 111.456 252.59 111.681 252.53 111.921C252.47 112.151 252.37 112.376 252.23 112.596C252.09 112.816 251.9 113.021 251.66 113.211C251.42 113.401 251.12 113.556 250.76 113.676C251.51 113.806 252.075 114.101 252.455 114.561C252.845 115.021 253.04 115.566 253.04 116.196V116.421C253.04 116.811 252.975 117.191 252.845 117.561C252.715 117.931 252.505 118.266 252.215 118.566C251.935 118.856 251.56 119.091 251.09 119.271C250.63 119.451 250.07 119.541 249.41 119.541C248.78 119.541 248.17 119.441 247.58 119.241C247 119.051 246.455 118.751 245.945 118.341L246.47 117.501C247 117.881 247.495 118.156 247.955 118.326C248.425 118.496 248.91 118.581 249.41 118.581C249.88 118.581 250.28 118.516 250.61 118.386C250.94 118.256 251.205 118.091 251.405 117.891C251.615 117.681 251.765 117.451 251.855 117.201C251.955 116.941 252.005 116.686 252.005 116.436V116.241C252.005 115.831 251.92 115.496 251.75 115.236C251.59 114.966 251.385 114.756 251.135 114.606C250.895 114.446 250.625 114.336 250.325 114.276C250.035 114.216 249.76 114.186 249.5 114.186H248.285V113.286H249.545C249.885 113.286 250.18 113.226 250.43 113.106C250.68 112.976 250.885 112.811 251.045 112.611C251.215 112.411 251.34 112.191 251.42 111.951C251.51 111.701 251.555 111.461 251.555 111.231V111.111C251.555 110.571 251.365 110.146 250.985 109.836C250.615 109.516 250.1 109.356 249.44 109.356C249.01 109.356 248.595 109.446 248.195 109.626C247.795 109.796 247.44 110.126 247.13 110.616L246.305 110.076Z" fill="#585856"/>
    <path d="M204.374 119.376V109.881L201.764 111.471L201.284 110.631L204.629 108.561H205.424V119.376H204.374ZM213.893 113.751C214.193 113.401 214.433 113.101 214.613 112.851C214.793 112.601 214.928 112.381 215.018 112.191C215.118 111.991 215.183 111.816 215.213 111.666C215.253 111.516 215.273 111.371 215.273 111.231V111.111C215.273 110.571 215.093 110.146 214.733 109.836C214.383 109.516 213.878 109.356 213.218 109.356C212.738 109.356 212.288 109.471 211.868 109.701C211.448 109.931 211.063 110.361 210.713 110.991L209.873 110.466C210.003 110.236 210.163 110.001 210.353 109.761C210.543 109.511 210.773 109.286 211.043 109.086C211.313 108.886 211.623 108.721 211.973 108.591C212.333 108.461 212.738 108.396 213.188 108.396C213.668 108.396 214.103 108.461 214.493 108.591C214.883 108.721 215.213 108.906 215.483 109.146C215.753 109.376 215.963 109.661 216.113 110.001C216.263 110.331 216.338 110.696 216.338 111.096V111.246C216.338 111.536 216.288 111.821 216.188 112.101C216.088 112.371 215.953 112.636 215.783 112.896C215.623 113.156 215.433 113.416 215.213 113.676C214.993 113.936 214.768 114.201 214.538 114.471L211.178 118.416H216.728V119.376H209.858V118.476L213.893 113.751Z" fill="#585856"/>
    <path d="M168.033 119.376V109.881L165.423 111.471L164.943 110.631L168.288 108.561H169.083V119.376H168.033ZM177.027 119.376V109.881L174.417 111.471L173.937 110.631L177.282 108.561H178.077V119.376H177.027Z" fill="#585856"/>
    <path d="M131.692 119.376V109.881L129.082 111.471L128.602 110.631L131.947 108.561H132.742V119.376H131.692ZM144.196 114.801C144.196 116.331 143.906 117.506 143.326 118.326C142.746 119.136 141.806 119.541 140.506 119.541C139.226 119.541 138.296 119.131 137.716 118.311C137.136 117.491 136.846 116.321 136.846 114.801V113.121C136.846 111.611 137.141 110.446 137.731 109.626C138.321 108.806 139.246 108.396 140.506 108.396C141.786 108.396 142.721 108.806 143.311 109.626C143.901 110.436 144.196 111.601 144.196 113.121V114.801ZM143.116 113.106C143.116 111.766 142.896 110.806 142.456 110.226C142.026 109.636 141.376 109.341 140.506 109.341C139.676 109.341 139.036 109.636 138.586 110.226C138.146 110.816 137.926 111.776 137.926 113.106V114.816C137.926 116.156 138.146 117.121 138.586 117.711C139.036 118.301 139.676 118.596 140.506 118.596C141.366 118.596 142.016 118.306 142.456 117.726C142.896 117.136 143.116 116.166 143.116 114.816V113.106Z" fill="#585856"/>
    <path d="M96.9085 117.924C97.2485 118.124 97.6135 118.284 98.0035 118.404C98.3935 118.524 98.8035 118.584 99.2335 118.584C99.7835 118.584 100.243 118.484 100.613 118.284C100.983 118.074 101.278 117.774 101.498 117.384C101.718 116.994 101.878 116.519 101.978 115.959C102.078 115.399 102.138 114.769 102.158 114.069C102.078 114.229 101.963 114.399 101.813 114.579C101.663 114.759 101.473 114.929 101.243 115.089C101.023 115.239 100.758 115.369 100.448 115.479C100.148 115.579 99.8085 115.629 99.4285 115.629C98.9685 115.629 98.5285 115.554 98.1085 115.404C97.6985 115.244 97.3335 115.019 97.0135 114.729C96.7035 114.439 96.4535 114.089 96.2635 113.679C96.0835 113.259 95.9935 112.784 95.9935 112.254V111.894C95.9935 111.364 96.0835 110.884 96.2635 110.454C96.4435 110.024 96.6885 109.659 96.9985 109.359C97.3185 109.049 97.6935 108.814 98.1235 108.654C98.5635 108.484 99.0335 108.399 99.5335 108.399C100.033 108.399 100.503 108.489 100.943 108.669C101.393 108.839 101.783 109.109 102.113 109.479C102.443 109.839 102.703 110.299 102.893 110.859C103.093 111.409 103.193 112.059 103.193 112.809V113.259C103.193 114.449 103.108 115.449 102.938 116.259C102.778 117.059 102.533 117.704 102.203 118.194C101.873 118.684 101.458 119.029 100.958 119.229C100.458 119.439 99.8735 119.544 99.2035 119.544C98.7135 119.544 98.2385 119.479 97.7785 119.349C97.3185 119.219 96.8835 119.039 96.4735 118.809L96.9085 117.924ZM102.053 112.104C102.053 111.704 101.993 111.334 101.873 110.994C101.753 110.654 101.583 110.364 101.363 110.124C101.143 109.874 100.878 109.684 100.568 109.554C100.268 109.414 99.9335 109.344 99.5635 109.344C99.1935 109.344 98.8535 109.404 98.5435 109.524C98.2335 109.644 97.9635 109.814 97.7335 110.034C97.5135 110.254 97.3385 110.529 97.2085 110.859C97.0885 111.179 97.0285 111.539 97.0285 111.939V112.164C97.0285 112.574 97.0985 112.939 97.2385 113.259C97.3785 113.569 97.5635 113.834 97.7935 114.054C98.0235 114.264 98.2885 114.429 98.5885 114.549C98.8985 114.659 99.2185 114.714 99.5485 114.714C99.8585 114.714 100.163 114.654 100.463 114.534C100.773 114.414 101.043 114.244 101.273 114.024C101.503 113.804 101.688 113.549 101.828 113.259C101.978 112.969 102.053 112.649 102.053 112.299V112.104Z" fill="#585856"/>
    <path d="M57.9252 167.252C58.2252 166.902 58.4652 166.602 58.6452 166.352C58.8252 166.102 58.9602 165.882 59.0502 165.692C59.1502 165.492 59.2152 165.317 59.2452 165.167C59.2852 165.017 59.3052 164.872 59.3052 164.732V164.612C59.3052 164.072 59.1252 163.647 58.7652 163.337C58.4152 163.017 57.9102 162.857 57.2502 162.857C56.7702 162.857 56.3202 162.972 55.9002 163.202C55.4802 163.432 55.0952 163.862 54.7452 164.492L53.9052 163.967C54.0352 163.737 54.1952 163.502 54.3852 163.262C54.5752 163.012 54.8052 162.787 55.0752 162.587C55.3452 162.387 55.6552 162.222 56.0052 162.092C56.3652 161.962 56.7702 161.897 57.2202 161.897C57.7002 161.897 58.1352 161.962 58.5252 162.092C58.9152 162.222 59.2452 162.407 59.5152 162.647C59.7852 162.877 59.9952 163.162 60.1452 163.502C60.2952 163.832 60.3702 164.197 60.3702 164.597V164.747C60.3702 165.037 60.3202 165.322 60.2202 165.602C60.1202 165.872 59.9852 166.137 59.8152 166.397C59.6552 166.657 59.4652 166.917 59.2452 167.177C59.0252 167.437 58.8002 167.702 58.5702 167.972L55.2102 171.917H60.7602V172.877H53.8902V171.977L57.9252 167.252ZM66.9194 167.252C67.2194 166.902 67.4594 166.602 67.6394 166.352C67.8194 166.102 67.9544 165.882 68.0444 165.692C68.1444 165.492 68.2094 165.317 68.2394 165.167C68.2794 165.017 68.2994 164.872 68.2994 164.732V164.612C68.2994 164.072 68.1194 163.647 67.7594 163.337C67.4094 163.017 66.9044 162.857 66.2444 162.857C65.7644 162.857 65.3144 162.972 64.8944 163.202C64.4744 163.432 64.0894 163.862 63.7394 164.492L62.8994 163.967C63.0294 163.737 63.1894 163.502 63.3794 163.262C63.5694 163.012 63.7994 162.787 64.0694 162.587C64.3394 162.387 64.6494 162.222 64.9994 162.092C65.3594 161.962 65.7644 161.897 66.2144 161.897C66.6944 161.897 67.1294 161.962 67.5194 162.092C67.9094 162.222 68.2394 162.407 68.5094 162.647C68.7794 162.877 68.9894 163.162 69.1394 163.502C69.2894 163.832 69.3644 164.197 69.3644 164.597V164.747C69.3644 165.037 69.3144 165.322 69.2144 165.602C69.1144 165.872 68.9794 166.137 68.8094 166.397C68.6494 166.657 68.4594 166.917 68.2394 167.177C68.0194 167.437 67.7944 167.702 67.5644 167.972L64.2044 171.917H69.7544V172.877H62.8844V171.977L66.9194 167.252Z" fill="#585856"/>
    <path d="M21.5844 167.256C21.8844 166.906 22.1244 166.606 22.3044 166.356C22.4844 166.106 22.6194 165.886 22.7094 165.696C22.8094 165.496 22.8744 165.321 22.9044 165.171C22.9444 165.021 22.9644 164.876 22.9644 164.736V164.616C22.9644 164.076 22.7844 163.651 22.4244 163.341C22.0744 163.021 21.5694 162.861 20.9094 162.861C20.4294 162.861 19.9794 162.976 19.5594 163.206C19.1394 163.436 18.7544 163.866 18.4044 164.496L17.5644 163.971C17.6944 163.741 17.8544 163.506 18.0444 163.266C18.2344 163.016 18.4644 162.791 18.7344 162.591C19.0044 162.391 19.3144 162.226 19.6644 162.096C20.0244 161.966 20.4294 161.901 20.8794 161.901C21.3594 161.901 21.7944 161.966 22.1844 162.096C22.5744 162.226 22.9044 162.411 23.1744 162.651C23.4444 162.881 23.6544 163.166 23.8044 163.506C23.9544 163.836 24.0294 164.201 24.0294 164.601V164.751C24.0294 165.041 23.9794 165.326 23.8794 165.606C23.7794 165.876 23.6444 166.141 23.4744 166.401C23.3144 166.661 23.1244 166.921 22.9044 167.181C22.6844 167.441 22.4594 167.706 22.2294 167.976L18.8694 171.921H24.4194V172.881H17.5494V171.981L21.5844 167.256ZM30.0536 172.881V163.386L27.4435 164.976L26.9635 164.136L30.3085 162.066H31.1035V172.881H30.0536Z" fill="#585856"/>
    <path d="M241.24 140.496C241.54 140.146 241.78 139.846 241.96 139.596C242.14 139.346 242.275 139.126 242.365 138.936C242.465 138.736 242.53 138.561 242.56 138.411C242.6 138.261 242.62 138.116 242.62 137.976V137.856C242.62 137.316 242.44 136.891 242.08 136.581C241.73 136.261 241.225 136.101 240.565 136.101C240.085 136.101 239.635 136.216 239.215 136.446C238.795 136.676 238.41 137.106 238.06 137.736L237.22 137.211C237.35 136.981 237.51 136.746 237.7 136.506C237.89 136.256 238.12 136.031 238.39 135.831C238.66 135.631 238.97 135.466 239.32 135.336C239.68 135.206 240.085 135.141 240.535 135.141C241.015 135.141 241.45 135.206 241.84 135.336C242.23 135.466 242.56 135.651 242.83 135.891C243.1 136.121 243.31 136.406 243.46 136.746C243.61 137.076 243.685 137.441 243.685 137.841V137.991C243.685 138.281 243.635 138.566 243.535 138.846C243.435 139.116 243.3 139.381 243.13 139.641C242.97 139.901 242.78 140.161 242.56 140.421C242.34 140.681 242.115 140.946 241.885 141.216L238.525 145.161H244.075V146.121H237.205V145.221L241.24 140.496ZM253.219 141.546C253.219 143.076 252.929 144.251 252.349 145.071C251.769 145.881 250.829 146.286 249.529 146.286C248.249 146.286 247.319 145.876 246.739 145.056C246.159 144.236 245.869 143.066 245.869 141.546V139.866C245.869 138.356 246.164 137.191 246.754 136.371C247.344 135.551 248.269 135.141 249.529 135.141C250.809 135.141 251.744 135.551 252.334 136.371C252.924 137.181 253.219 138.346 253.219 139.866V141.546ZM252.139 139.851C252.139 138.511 251.919 137.551 251.479 136.971C251.049 136.381 250.399 136.086 249.529 136.086C248.699 136.086 248.059 136.381 247.609 136.971C247.169 137.561 246.949 138.521 246.949 139.851V141.561C246.949 142.901 247.169 143.866 247.609 144.456C248.059 145.046 248.699 145.341 249.529 145.341C250.389 145.341 251.039 145.051 251.479 144.471C251.919 143.881 252.139 142.911 252.139 141.561V139.851Z" fill="#585856"/>
    <path d="M204.374 146.121V136.626L201.764 138.216L201.284 137.376L204.629 135.306H205.424V146.121H204.374ZM210.428 144.666C210.768 144.866 211.133 145.026 211.523 145.146C211.913 145.266 212.323 145.326 212.753 145.326C213.303 145.326 213.763 145.226 214.133 145.026C214.503 144.816 214.798 144.516 215.018 144.126C215.238 143.736 215.398 143.261 215.498 142.701C215.598 142.141 215.658 141.511 215.678 140.811C215.598 140.971 215.483 141.141 215.333 141.321C215.183 141.501 214.993 141.671 214.763 141.831C214.543 141.981 214.278 142.111 213.968 142.221C213.668 142.321 213.328 142.371 212.948 142.371C212.488 142.371 212.048 142.296 211.628 142.146C211.218 141.986 210.853 141.761 210.533 141.471C210.223 141.181 209.973 140.831 209.783 140.421C209.603 140.001 209.513 139.526 209.513 138.996V138.636C209.513 138.106 209.603 137.626 209.783 137.196C209.963 136.766 210.208 136.401 210.518 136.101C210.838 135.791 211.213 135.556 211.643 135.396C212.083 135.226 212.553 135.141 213.053 135.141C213.553 135.141 214.023 135.231 214.463 135.411C214.913 135.581 215.303 135.851 215.633 136.221C215.963 136.581 216.223 137.041 216.413 137.601C216.613 138.151 216.713 138.801 216.713 139.551V140.001C216.713 141.191 216.628 142.191 216.458 143.001C216.298 143.801 216.053 144.446 215.723 144.936C215.393 145.426 214.978 145.771 214.478 145.971C213.978 146.181 213.393 146.286 212.723 146.286C212.233 146.286 211.758 146.221 211.298 146.091C210.838 145.961 210.403 145.781 209.993 145.551L210.428 144.666ZM215.573 138.846C215.573 138.446 215.513 138.076 215.393 137.736C215.273 137.396 215.103 137.106 214.883 136.866C214.663 136.616 214.398 136.426 214.088 136.296C213.788 136.156 213.453 136.086 213.083 136.086C212.713 136.086 212.373 136.146 212.063 136.266C211.753 136.386 211.483 136.556 211.253 136.776C211.033 136.996 210.858 137.271 210.728 137.601C210.608 137.921 210.548 138.281 210.548 138.681V138.906C210.548 139.316 210.618 139.681 210.758 140.001C210.898 140.311 211.083 140.576 211.313 140.796C211.543 141.006 211.808 141.171 212.108 141.291C212.418 141.401 212.738 141.456 213.068 141.456C213.378 141.456 213.683 141.396 213.983 141.276C214.293 141.156 214.563 140.986 214.793 140.766C215.023 140.546 215.208 140.291 215.348 140.001C215.498 139.711 215.573 139.391 215.573 139.041V138.846Z" fill="#585856"/>
    <path d="M168.033 146.121V136.626L165.423 138.216L164.943 137.376L168.288 135.306H169.083V146.121H168.033ZM174.747 138.066C174.747 138.356 174.797 138.631 174.897 138.891C174.997 139.151 175.137 139.376 175.317 139.566C175.507 139.756 175.732 139.906 175.992 140.016C176.252 140.126 176.542 140.181 176.862 140.181C177.182 140.181 177.472 140.126 177.732 140.016C177.992 139.906 178.212 139.756 178.392 139.566C178.582 139.376 178.727 139.151 178.827 138.891C178.927 138.631 178.977 138.356 178.977 138.066V137.886C178.977 137.326 178.782 136.886 178.392 136.566C178.012 136.236 177.502 136.071 176.862 136.071C176.212 136.071 175.697 136.236 175.317 136.566C174.937 136.886 174.747 137.326 174.747 137.886V138.066ZM174.447 143.346C174.447 143.626 174.502 143.886 174.612 144.126C174.722 144.366 174.882 144.576 175.092 144.756C175.302 144.936 175.552 145.081 175.842 145.191C176.142 145.291 176.482 145.341 176.862 145.341C177.242 145.341 177.582 145.291 177.882 145.191C178.182 145.081 178.432 144.936 178.632 144.756C178.842 144.576 179.002 144.366 179.112 144.126C179.222 143.886 179.277 143.626 179.277 143.346V143.166C179.277 142.846 179.217 142.556 179.097 142.296C178.977 142.036 178.812 141.811 178.602 141.621C178.392 141.431 178.137 141.286 177.837 141.186C177.547 141.086 177.222 141.036 176.862 141.036C176.512 141.036 176.187 141.086 175.887 141.186C175.597 141.286 175.342 141.431 175.122 141.621C174.912 141.801 174.747 142.021 174.627 142.281C174.507 142.541 174.447 142.836 174.447 143.166V143.346ZM173.382 143.121C173.382 142.521 173.562 141.996 173.922 141.546C174.292 141.086 174.772 140.766 175.362 140.586C174.842 140.346 174.437 140.011 174.147 139.581C173.867 139.151 173.727 138.651 173.727 138.081V137.841C173.727 137.451 173.802 137.091 173.952 136.761C174.112 136.431 174.332 136.146 174.612 135.906C174.892 135.666 175.222 135.481 175.602 135.351C175.992 135.211 176.412 135.141 176.862 135.141C177.312 135.141 177.727 135.211 178.107 135.351C178.497 135.481 178.832 135.666 179.112 135.906C179.392 136.146 179.607 136.431 179.757 136.761C179.917 137.091 179.997 137.451 179.997 137.841V138.081C179.997 138.651 179.852 139.151 179.562 139.581C179.282 140.011 178.877 140.346 178.347 140.586C178.637 140.676 178.902 140.801 179.142 140.961C179.392 141.121 179.602 141.316 179.772 141.546C179.952 141.766 180.092 142.011 180.192 142.281C180.292 142.541 180.342 142.821 180.342 143.121V143.376C180.342 143.806 180.257 144.201 180.087 144.561C179.927 144.921 179.692 145.231 179.382 145.491C179.082 145.741 178.717 145.936 178.287 146.076C177.857 146.216 177.382 146.286 176.862 146.286C176.342 146.286 175.867 146.216 175.437 146.076C175.007 145.936 174.637 145.741 174.327 145.491C174.027 145.231 173.792 144.921 173.622 144.561C173.462 144.201 173.382 143.806 173.382 143.376V143.121Z" fill="#585856"/>
    <path d="M131.692 146.121V136.626L129.082 138.216L128.602 137.376L131.947 135.306H132.742V146.121H131.692ZM139.816 146.121H138.631L143.026 136.266H136.951V135.306H144.196V136.116L139.816 146.121Z" fill="#585856"/>
    <path d="M95.3509 146.128V136.633L92.7409 138.223L92.2609 137.383L95.6059 135.313H96.4009V146.128H95.3509ZM106.925 136.738C106.585 136.538 106.22 136.383 105.83 136.273C105.45 136.153 105.05 136.093 104.63 136.093C104.12 136.093 103.69 136.198 103.34 136.408C102.99 136.608 102.7 136.903 102.47 137.293C102.24 137.683 102.065 138.163 101.945 138.733C101.825 139.293 101.745 139.933 101.705 140.653C101.785 140.493 101.9 140.323 102.05 140.143C102.21 139.963 102.4 139.798 102.62 139.648C102.85 139.498 103.115 139.378 103.415 139.288C103.715 139.188 104.055 139.138 104.435 139.138C104.895 139.138 105.33 139.213 105.74 139.363C106.16 139.513 106.525 139.733 106.835 140.023C107.155 140.303 107.405 140.653 107.585 141.073C107.775 141.483 107.87 141.953 107.87 142.483V142.843C107.87 143.373 107.78 143.853 107.6 144.283C107.42 144.703 107.17 145.063 106.85 145.363C106.54 145.663 106.165 145.893 105.725 146.053C105.295 146.213 104.83 146.293 104.33 146.293C103.82 146.293 103.34 146.203 102.89 146.023C102.45 145.853 102.065 145.588 101.735 145.228C101.405 144.868 101.145 144.413 100.955 143.863C100.765 143.303 100.67 142.648 100.67 141.898V141.538C100.67 140.378 100.76 139.393 100.94 138.583C101.13 137.773 101.395 137.113 101.735 136.603C102.075 136.093 102.49 135.723 102.98 135.493C103.47 135.263 104.025 135.148 104.645 135.148C105.135 135.148 105.615 135.213 106.085 135.343C106.565 135.473 107.01 135.653 107.42 135.883L106.925 136.738ZM101.81 142.633C101.81 143.043 101.87 143.413 101.99 143.743C102.11 144.073 102.28 144.358 102.5 144.598C102.72 144.838 102.98 145.023 103.28 145.153C103.59 145.283 103.93 145.348 104.3 145.348C104.67 145.348 105.01 145.293 105.32 145.183C105.63 145.063 105.895 144.898 106.115 144.688C106.345 144.468 106.52 144.203 106.64 143.893C106.77 143.573 106.835 143.208 106.835 142.798V142.573C106.835 142.173 106.765 141.818 106.625 141.508C106.485 141.188 106.3 140.923 106.07 140.713C105.84 140.493 105.57 140.328 105.26 140.218C104.96 140.108 104.645 140.053 104.315 140.053C103.995 140.053 103.685 140.113 103.385 140.233C103.085 140.353 102.82 140.518 102.59 140.728C102.36 140.938 102.17 141.193 102.02 141.493C101.88 141.783 101.81 142.098 101.81 142.438V142.633Z" fill="#585856"/>
    <path d="M57.9252 194.001C58.2252 193.651 58.4652 193.351 58.6452 193.101C58.8252 192.851 58.9602 192.631 59.0502 192.441C59.1502 192.241 59.2152 192.066 59.2452 191.916C59.2852 191.766 59.3052 191.621 59.3052 191.481V191.361C59.3052 190.821 59.1252 190.396 58.7652 190.086C58.4152 189.766 57.9102 189.606 57.2502 189.606C56.7702 189.606 56.3202 189.721 55.9002 189.951C55.4802 190.181 55.0952 190.611 54.7452 191.241L53.9052 190.716C54.0352 190.486 54.1952 190.251 54.3852 190.011C54.5752 189.761 54.8052 189.536 55.0752 189.336C55.3452 189.136 55.6552 188.971 56.0052 188.841C56.3652 188.711 56.7702 188.646 57.2202 188.646C57.7002 188.646 58.1352 188.711 58.5252 188.841C58.9152 188.971 59.2452 189.156 59.5152 189.396C59.7852 189.626 59.9952 189.911 60.1452 190.251C60.2952 190.581 60.3702 190.946 60.3702 191.346V191.496C60.3702 191.786 60.3202 192.071 60.2202 192.351C60.1202 192.621 59.9852 192.886 59.8152 193.146C59.6552 193.406 59.4652 193.666 59.2452 193.926C59.0252 194.186 58.8002 194.451 58.5702 194.721L55.2102 198.666H60.7602V199.626H53.8902V198.726L57.9252 194.001ZM63.4544 198.171C63.7944 198.371 64.1594 198.531 64.5494 198.651C64.9394 198.771 65.3494 198.831 65.7794 198.831C66.3294 198.831 66.7894 198.731 67.1594 198.531C67.5294 198.321 67.8244 198.021 68.0444 197.631C68.2644 197.241 68.4244 196.766 68.5244 196.206C68.6244 195.646 68.6844 195.016 68.7044 194.316C68.6244 194.476 68.5094 194.646 68.3594 194.826C68.2094 195.006 68.0194 195.176 67.7894 195.336C67.5694 195.486 67.3044 195.616 66.9944 195.726C66.6944 195.826 66.3544 195.876 65.9744 195.876C65.5144 195.876 65.0744 195.801 64.6544 195.651C64.2444 195.491 63.8794 195.266 63.5594 194.976C63.2494 194.686 62.9994 194.336 62.8094 193.926C62.6294 193.506 62.5394 193.031 62.5394 192.501V192.141C62.5394 191.611 62.6294 191.131 62.8094 190.701C62.9894 190.271 63.2344 189.906 63.5444 189.606C63.8644 189.296 64.2394 189.061 64.6694 188.901C65.1094 188.731 65.5794 188.646 66.0794 188.646C66.5794 188.646 67.0494 188.736 67.4894 188.916C67.9394 189.086 68.3294 189.356 68.6594 189.726C68.9894 190.086 69.2494 190.546 69.4394 191.106C69.6394 191.656 69.7394 192.306 69.7394 193.056V193.506C69.7394 194.696 69.6544 195.696 69.4844 196.506C69.3244 197.306 69.0794 197.951 68.7494 198.441C68.4194 198.931 68.0044 199.276 67.5044 199.476C67.0044 199.686 66.4194 199.791 65.7494 199.791C65.2594 199.791 64.7844 199.726 64.3244 199.596C63.8644 199.466 63.4294 199.286 63.0194 199.056L63.4544 198.171ZM68.5994 192.351C68.5994 191.951 68.5394 191.581 68.4194 191.241C68.2994 190.901 68.1294 190.611 67.9094 190.371C67.6894 190.121 67.4244 189.931 67.1144 189.801C66.8144 189.661 66.4794 189.591 66.1094 189.591C65.7394 189.591 65.3994 189.651 65.0894 189.771C64.7794 189.891 64.5094 190.061 64.2794 190.281C64.0594 190.501 63.8844 190.776 63.7544 191.106C63.6344 191.426 63.5744 191.786 63.5744 192.186V192.411C63.5744 192.821 63.6444 193.186 63.7844 193.506C63.9244 193.816 64.1094 194.081 64.3394 194.301C64.5694 194.511 64.8344 194.676 65.1344 194.796C65.4444 194.906 65.7644 194.961 66.0944 194.961C66.4044 194.961 66.7094 194.901 67.0094 194.781C67.3194 194.661 67.5894 194.491 67.8194 194.271C68.0494 194.051 68.2344 193.796 68.3744 193.506C68.5244 193.216 68.5994 192.896 68.5994 192.546V192.351Z" fill="#585856"/>
    <path d="M21.5844 194.002C21.8844 193.652 22.1244 193.352 22.3044 193.102C22.4844 192.852 22.6194 192.632 22.7094 192.442C22.8094 192.242 22.8744 192.067 22.9044 191.917C22.9444 191.767 22.9644 191.622 22.9644 191.482V191.362C22.9644 190.822 22.7844 190.397 22.4244 190.087C22.0744 189.767 21.5694 189.607 20.9094 189.607C20.4294 189.607 19.9794 189.722 19.5594 189.952C19.1394 190.182 18.7544 190.612 18.4044 191.242L17.5644 190.717C17.6944 190.487 17.8544 190.252 18.0444 190.012C18.2344 189.762 18.4644 189.537 18.7344 189.337C19.0044 189.137 19.3144 188.972 19.6644 188.842C20.0244 188.712 20.4294 188.647 20.8794 188.647C21.3594 188.647 21.7944 188.712 22.1844 188.842C22.5744 188.972 22.9044 189.157 23.1744 189.397C23.4444 189.627 23.6544 189.912 23.8044 190.252C23.9544 190.582 24.0294 190.947 24.0294 191.347V191.497C24.0294 191.787 23.9794 192.072 23.8794 192.352C23.7794 192.622 23.6444 192.887 23.4744 193.147C23.3144 193.407 23.1244 193.667 22.9044 193.927C22.6844 194.187 22.4594 194.452 22.2294 194.722L18.8694 198.667H24.4194V199.627H17.5494V198.727L21.5844 194.002ZM27.7735 191.572C27.7735 191.862 27.8235 192.137 27.9236 192.397C28.0235 192.657 28.1635 192.882 28.3435 193.072C28.5335 193.262 28.7585 193.412 29.0186 193.522C29.2785 193.632 29.5685 193.687 29.8885 193.687C30.2086 193.687 30.4986 193.632 30.7585 193.522C31.0185 193.412 31.2385 193.262 31.4185 193.072C31.6086 192.882 31.7536 192.657 31.8536 192.397C31.9536 192.137 32.0036 191.862 32.0036 191.572V191.392C32.0036 190.832 31.8086 190.392 31.4185 190.072C31.0386 189.742 30.5286 189.577 29.8885 189.577C29.2386 189.577 28.7236 189.742 28.3435 190.072C27.9635 190.392 27.7735 190.832 27.7735 191.392V191.572ZM27.4736 196.852C27.4736 197.132 27.5285 197.392 27.6385 197.632C27.7485 197.872 27.9085 198.082 28.1185 198.262C28.3285 198.442 28.5785 198.587 28.8685 198.697C29.1686 198.797 29.5086 198.847 29.8885 198.847C30.2686 198.847 30.6086 198.797 30.9086 198.697C31.2086 198.587 31.4586 198.442 31.6585 198.262C31.8685 198.082 32.0285 197.872 32.1386 197.632C32.2486 197.392 32.3036 197.132 32.3036 196.852V196.672C32.3036 196.352 32.2436 196.062 32.1236 195.802C32.0036 195.542 31.8385 195.317 31.6285 195.127C31.4185 194.937 31.1635 194.792 30.8635 194.692C30.5736 194.592 30.2486 194.542 29.8885 194.542C29.5386 194.542 29.2136 194.592 28.9136 194.692C28.6236 194.792 28.3686 194.937 28.1486 195.127C27.9385 195.307 27.7735 195.527 27.6535 195.787C27.5335 196.047 27.4736 196.342 27.4736 196.672V196.852ZM26.4085 196.627C26.4085 196.027 26.5885 195.502 26.9485 195.052C27.3185 194.592 27.7985 194.272 28.3885 194.092C27.8685 193.852 27.4635 193.517 27.1735 193.087C26.8935 192.657 26.7535 192.157 26.7535 191.587V191.347C26.7535 190.957 26.8285 190.597 26.9785 190.267C27.1385 189.937 27.3585 189.652 27.6385 189.412C27.9185 189.172 28.2485 188.987 28.6285 188.857C29.0186 188.717 29.4386 188.647 29.8885 188.647C30.3386 188.647 30.7536 188.717 31.1336 188.857C31.5236 188.987 31.8586 189.172 32.1386 189.412C32.4186 189.652 32.6336 189.937 32.7836 190.267C32.9435 190.597 33.0235 190.957 33.0235 191.347V191.587C33.0235 192.157 32.8785 192.657 32.5886 193.087C32.3086 193.517 31.9036 193.852 31.3736 194.092C31.6636 194.182 31.9286 194.307 32.1686 194.467C32.4186 194.627 32.6286 194.822 32.7986 195.052C32.9786 195.272 33.1186 195.517 33.2186 195.787C33.3185 196.047 33.3685 196.327 33.3685 196.627V196.882C33.3685 197.312 33.2836 197.707 33.1136 198.067C32.9536 198.427 32.7186 198.737 32.4086 198.997C32.1086 199.247 31.7436 199.442 31.3135 199.582C30.8836 199.722 30.4086 199.792 29.8885 199.792C29.3685 199.792 28.8935 199.722 28.4636 199.582C28.0335 199.442 27.6635 199.247 27.3535 198.997C27.0535 198.737 26.8185 198.427 26.6485 198.067C26.4885 197.707 26.4085 197.312 26.4085 196.882V196.627Z" fill="#585856"/>
    <path d="M241.241 167.242C241.541 166.892 241.781 166.592 241.961 166.342C242.141 166.092 242.276 165.872 242.366 165.682C242.466 165.482 242.531 165.307 242.561 165.157C242.601 165.007 242.621 164.862 242.621 164.722V164.602C242.621 164.062 242.441 163.637 242.081 163.327C241.731 163.007 241.226 162.847 240.566 162.847C240.086 162.847 239.636 162.962 239.216 163.192C238.796 163.422 238.411 163.852 238.061 164.482L237.221 163.957C237.351 163.727 237.511 163.492 237.701 163.252C237.891 163.002 238.121 162.777 238.391 162.577C238.661 162.377 238.971 162.212 239.321 162.082C239.681 161.952 240.086 161.887 240.536 161.887C241.016 161.887 241.451 161.952 241.841 162.082C242.231 162.212 242.561 162.397 242.831 162.637C243.101 162.867 243.311 163.152 243.461 163.492C243.611 163.822 243.686 164.187 243.686 164.587V164.737C243.686 165.027 243.636 165.312 243.536 165.592C243.436 165.862 243.301 166.127 243.131 166.387C242.971 166.647 242.781 166.907 242.561 167.167C242.341 167.427 242.116 167.692 241.886 167.962L238.526 171.907H244.076V172.867H237.206V171.967L241.241 167.242ZM248.84 172.867H247.655L252.05 163.012H245.975V162.052H253.22V162.862L248.84 172.867Z" fill="#585856"/>
    <path d="M204.899 167.242C205.199 166.892 205.439 166.592 205.619 166.342C205.799 166.092 205.934 165.872 206.024 165.682C206.124 165.482 206.189 165.307 206.219 165.157C206.259 165.007 206.279 164.862 206.279 164.722V164.602C206.279 164.062 206.099 163.637 205.739 163.327C205.389 163.007 204.884 162.847 204.224 162.847C203.744 162.847 203.294 162.962 202.874 163.192C202.454 163.422 202.069 163.852 201.719 164.482L200.879 163.957C201.009 163.727 201.169 163.492 201.359 163.252C201.549 163.002 201.779 162.777 202.049 162.577C202.319 162.377 202.629 162.212 202.979 162.082C203.339 161.952 203.744 161.887 204.194 161.887C204.674 161.887 205.109 161.952 205.499 162.082C205.889 162.212 206.219 162.397 206.489 162.637C206.759 162.867 206.969 163.152 207.119 163.492C207.269 163.822 207.344 164.187 207.344 164.587V164.737C207.344 165.027 207.294 165.312 207.194 165.592C207.094 165.862 206.959 166.127 206.789 166.387C206.629 166.647 206.439 166.907 206.219 167.167C205.999 167.427 205.774 167.692 205.544 167.962L202.184 171.907H207.734V172.867H200.864V171.967L204.899 167.242ZM215.948 163.477C215.608 163.277 215.243 163.122 214.853 163.012C214.473 162.892 214.073 162.832 213.653 162.832C213.143 162.832 212.713 162.937 212.363 163.147C212.013 163.347 211.723 163.642 211.493 164.032C211.263 164.422 211.088 164.902 210.968 165.472C210.848 166.032 210.768 166.672 210.728 167.392C210.808 167.232 210.923 167.062 211.073 166.882C211.233 166.702 211.423 166.537 211.643 166.387C211.873 166.237 212.138 166.117 212.438 166.027C212.738 165.927 213.078 165.877 213.458 165.877C213.918 165.877 214.353 165.952 214.763 166.102C215.183 166.252 215.548 166.472 215.858 166.762C216.178 167.042 216.428 167.392 216.608 167.812C216.798 168.222 216.893 168.692 216.893 169.222V169.582C216.893 170.112 216.803 170.592 216.623 171.022C216.443 171.442 216.193 171.802 215.873 172.102C215.563 172.402 215.188 172.632 214.748 172.792C214.318 172.952 213.853 173.032 213.353 173.032C212.843 173.032 212.363 172.942 211.913 172.762C211.473 172.592 211.088 172.327 210.758 171.967C210.428 171.607 210.168 171.152 209.978 170.602C209.788 170.042 209.693 169.387 209.693 168.637V168.277C209.693 167.117 209.783 166.132 209.963 165.322C210.153 164.512 210.418 163.852 210.758 163.342C211.098 162.832 211.513 162.462 212.003 162.232C212.493 162.002 213.048 161.887 213.668 161.887C214.158 161.887 214.638 161.952 215.108 162.082C215.588 162.212 216.033 162.392 216.443 162.622L215.948 163.477ZM210.833 169.372C210.833 169.782 210.893 170.152 211.013 170.482C211.133 170.812 211.303 171.097 211.523 171.337C211.743 171.577 212.003 171.762 212.303 171.892C212.613 172.022 212.953 172.087 213.323 172.087C213.693 172.087 214.033 172.032 214.343 171.922C214.653 171.802 214.918 171.637 215.138 171.427C215.368 171.207 215.543 170.942 215.663 170.632C215.793 170.312 215.858 169.947 215.858 169.537V169.312C215.858 168.912 215.788 168.557 215.648 168.247C215.508 167.927 215.323 167.662 215.093 167.452C214.863 167.232 214.593 167.067 214.283 166.957C213.983 166.847 213.668 166.792 213.338 166.792C213.018 166.792 212.708 166.852 212.408 166.972C212.108 167.092 211.843 167.257 211.613 167.467C211.383 167.677 211.193 167.932 211.043 168.232C210.903 168.522 210.833 168.837 210.833 169.177V169.372Z" fill="#585856"/>
    <path d="M168.558 167.242C168.858 166.892 169.098 166.592 169.278 166.342C169.458 166.092 169.593 165.872 169.683 165.682C169.783 165.482 169.848 165.307 169.878 165.157C169.918 165.007 169.938 164.862 169.938 164.722V164.602C169.938 164.062 169.758 163.637 169.398 163.327C169.048 163.007 168.543 162.847 167.883 162.847C167.403 162.847 166.953 162.962 166.533 163.192C166.113 163.422 165.728 163.852 165.378 164.482L164.538 163.957C164.668 163.727 164.828 163.492 165.018 163.252C165.208 163.002 165.438 162.777 165.708 162.577C165.978 162.377 166.288 162.212 166.638 162.082C166.998 161.952 167.403 161.887 167.853 161.887C168.333 161.887 168.768 161.952 169.158 162.082C169.548 162.212 169.878 162.397 170.148 162.637C170.418 162.867 170.628 163.152 170.778 163.492C170.928 163.822 171.003 164.187 171.003 164.587V164.737C171.003 165.027 170.953 165.312 170.853 165.592C170.753 165.862 170.618 166.127 170.448 166.387C170.288 166.647 170.098 166.907 169.878 167.167C169.658 167.427 169.433 167.692 169.203 167.962L165.843 171.907H171.393V172.867H164.523V171.967L168.558 167.242ZM179.487 169.612C179.487 168.742 179.272 168.112 178.842 167.722C178.422 167.322 177.822 167.122 177.042 167.122C176.582 167.122 176.172 167.207 175.812 167.377C175.452 167.547 175.152 167.747 174.912 167.977H173.922L174.267 162.052H179.832V163.012H175.197L175.032 166.942C175.272 166.712 175.597 166.527 176.007 166.387C176.417 166.247 176.847 166.177 177.297 166.177C177.827 166.177 178.292 166.267 178.692 166.447C179.102 166.617 179.442 166.852 179.712 167.152C179.982 167.452 180.182 167.812 180.312 168.232C180.452 168.642 180.522 169.087 180.522 169.567V169.792C180.522 170.182 180.457 170.572 180.327 170.962C180.197 171.342 179.987 171.687 179.697 171.997C179.417 172.297 179.042 172.542 178.572 172.732C178.102 172.932 177.532 173.032 176.862 173.032C176.122 173.032 175.472 172.922 174.912 172.702C174.352 172.492 173.832 172.202 173.352 171.832L173.892 170.977C174.412 171.377 174.907 171.662 175.377 171.832C175.857 171.992 176.352 172.072 176.862 172.072C177.342 172.072 177.747 172.002 178.077 171.862C178.417 171.712 178.692 171.527 178.902 171.307C179.112 171.087 179.262 170.847 179.352 170.587C179.442 170.317 179.487 170.057 179.487 169.807V169.612Z" fill="#585856"/>
    <path d="M132.217 167.242C132.517 166.892 132.757 166.592 132.937 166.342C133.117 166.092 133.252 165.872 133.342 165.682C133.442 165.482 133.507 165.307 133.537 165.157C133.577 165.007 133.597 164.862 133.597 164.722V164.602C133.597 164.062 133.417 163.637 133.057 163.327C132.707 163.007 132.202 162.847 131.542 162.847C131.062 162.847 130.612 162.962 130.192 163.192C129.772 163.422 129.387 163.852 129.037 164.482L128.197 163.957C128.327 163.727 128.487 163.492 128.677 163.252C128.867 163.002 129.097 162.777 129.367 162.577C129.637 162.377 129.947 162.212 130.297 162.082C130.657 161.952 131.062 161.887 131.512 161.887C131.992 161.887 132.427 161.952 132.817 162.082C133.207 162.212 133.537 162.397 133.807 162.637C134.077 162.867 134.287 163.152 134.437 163.492C134.587 163.822 134.662 164.187 134.662 164.587V164.737C134.662 165.027 134.612 165.312 134.512 165.592C134.412 165.862 134.277 166.127 134.107 166.387C133.947 166.647 133.757 166.907 133.537 167.167C133.317 167.427 133.092 167.692 132.862 167.962L129.502 171.907H135.052V172.867H128.182V171.967L132.217 167.242ZM143.071 166.102V169.507H144.661V170.467H143.071V172.867H142.021V170.467H136.606V169.507L141.856 162.052H143.056L137.821 169.507H142.021V166.102H143.071Z" fill="#585856"/>
    <path d="M95.8764 167.252C96.1764 166.902 96.4164 166.602 96.5964 166.352C96.7764 166.102 96.9114 165.882 97.0014 165.692C97.1014 165.492 97.1664 165.317 97.1964 165.167C97.2364 165.017 97.2564 164.872 97.2564 164.732V164.612C97.2564 164.072 97.0764 163.647 96.7164 163.337C96.3664 163.017 95.8614 162.857 95.2014 162.857C94.7214 162.857 94.2714 162.972 93.8514 163.202C93.4314 163.432 93.0464 163.862 92.6964 164.492L91.8564 163.967C91.9864 163.737 92.1464 163.502 92.3364 163.262C92.5264 163.012 92.7564 162.787 93.0264 162.587C93.2964 162.387 93.6064 162.222 93.9564 162.092C94.3164 161.962 94.7214 161.897 95.1714 161.897C95.6514 161.897 96.0864 161.962 96.4764 162.092C96.8664 162.222 97.1964 162.407 97.4664 162.647C97.7364 162.877 97.9464 163.162 98.0964 163.502C98.2464 163.832 98.3214 164.197 98.3214 164.597V164.747C98.3214 165.037 98.2714 165.322 98.1714 165.602C98.0714 165.872 97.9364 166.137 97.7664 166.397C97.6064 166.657 97.4164 166.917 97.1964 167.177C96.9764 167.437 96.7514 167.702 96.5214 167.972L93.1614 171.917H98.7114V172.877H91.8414V171.977L95.8764 167.252ZM100.941 163.577C101.071 163.357 101.231 163.147 101.421 162.947C101.611 162.747 101.831 162.572 102.081 162.422C102.341 162.262 102.631 162.137 102.951 162.047C103.281 161.947 103.651 161.897 104.061 161.897C104.551 161.897 104.991 161.962 105.381 162.092C105.781 162.222 106.116 162.407 106.386 162.647C106.666 162.877 106.881 163.162 107.031 163.502C107.181 163.832 107.256 164.197 107.256 164.597V164.747C107.256 164.957 107.226 165.182 107.166 165.422C107.106 165.652 107.006 165.877 106.866 166.097C106.726 166.317 106.536 166.522 106.296 166.712C106.056 166.902 105.756 167.057 105.396 167.177C106.146 167.307 106.711 167.602 107.091 168.062C107.481 168.522 107.676 169.067 107.676 169.697V169.922C107.676 170.312 107.611 170.692 107.481 171.062C107.351 171.432 107.141 171.767 106.851 172.067C106.571 172.357 106.196 172.592 105.726 172.772C105.266 172.952 104.706 173.042 104.046 173.042C103.416 173.042 102.806 172.942 102.216 172.742C101.636 172.552 101.091 172.252 100.581 171.842L101.106 171.002C101.636 171.382 102.131 171.657 102.591 171.827C103.061 171.997 103.546 172.082 104.046 172.082C104.516 172.082 104.916 172.017 105.246 171.887C105.576 171.757 105.841 171.592 106.041 171.392C106.251 171.182 106.401 170.952 106.491 170.702C106.591 170.442 106.641 170.187 106.641 169.937V169.742C106.641 169.332 106.556 168.997 106.386 168.737C106.226 168.467 106.021 168.257 105.771 168.107C105.531 167.947 105.261 167.837 104.961 167.777C104.671 167.717 104.396 167.687 104.136 167.687H102.921V166.787H104.181C104.521 166.787 104.816 166.727 105.066 166.607C105.316 166.477 105.521 166.312 105.681 166.112C105.851 165.912 105.976 165.692 106.056 165.452C106.146 165.202 106.191 164.962 106.191 164.732V164.612C106.191 164.072 106.001 163.647 105.621 163.337C105.251 163.017 104.736 162.857 104.076 162.857C103.646 162.857 103.231 162.947 102.831 163.127C102.431 163.297 102.076 163.627 101.766 164.117L100.941 163.577Z" fill="#585856"/>
    <path d="M92.5948 190.326C92.7248 190.106 92.8848 189.896 93.0748 189.696C93.2648 189.496 93.4848 189.321 93.7348 189.171C93.9948 189.011 94.2848 188.886 94.6048 188.796C94.9348 188.696 95.3048 188.646 95.7148 188.646C96.2048 188.646 96.6448 188.711 97.0348 188.841C97.4348 188.971 97.7698 189.156 98.0398 189.396C98.3198 189.626 98.5348 189.911 98.6848 190.251C98.8348 190.581 98.9098 190.946 98.9098 191.346V191.496C98.9098 191.706 98.8798 191.931 98.8198 192.171C98.7598 192.401 98.6598 192.626 98.5198 192.846C98.3798 193.066 98.1898 193.271 97.9498 193.461C97.7098 193.651 97.4098 193.806 97.0498 193.926C97.7998 194.056 98.3648 194.351 98.7448 194.811C99.1348 195.271 99.3298 195.816 99.3298 196.446V196.671C99.3298 197.061 99.2648 197.441 99.1348 197.811C99.0048 198.181 98.7948 198.516 98.5048 198.816C98.2248 199.106 97.8498 199.341 97.3798 199.521C96.9198 199.701 96.3598 199.791 95.6998 199.791C95.0698 199.791 94.4598 199.691 93.8698 199.491C93.2898 199.301 92.7448 199.001 92.2348 198.591L92.7598 197.751C93.2898 198.131 93.7848 198.406 94.2448 198.576C94.7148 198.746 95.1998 198.831 95.6998 198.831C96.1698 198.831 96.5698 198.766 96.8998 198.636C97.2298 198.506 97.4948 198.341 97.6948 198.141C97.9048 197.931 98.0548 197.701 98.1448 197.451C98.2448 197.191 98.2948 196.936 98.2948 196.686V196.491C98.2948 196.081 98.2098 195.746 98.0398 195.486C97.8798 195.216 97.6748 195.006 97.4248 194.856C97.1848 194.696 96.9148 194.586 96.6148 194.526C96.3248 194.466 96.0498 194.436 95.7898 194.436H94.5748V193.536H95.8348C96.1748 193.536 96.4698 193.476 96.7198 193.356C96.9698 193.226 97.1748 193.061 97.3348 192.861C97.5048 192.661 97.6298 192.441 97.7098 192.201C97.7998 191.951 97.8448 191.711 97.8448 191.481V191.361C97.8448 190.821 97.6548 190.396 97.2748 190.086C96.9048 189.766 96.3898 189.606 95.7298 189.606C95.2998 189.606 94.8848 189.696 94.4848 189.876C94.0848 190.046 93.7298 190.376 93.4198 190.866L92.5948 190.326ZM108.504 195.051C108.504 196.581 108.214 197.756 107.634 198.576C107.054 199.386 106.114 199.791 104.814 199.791C103.534 199.791 102.604 199.381 102.024 198.561C101.444 197.741 101.154 196.571 101.154 195.051V193.371C101.154 191.861 101.449 190.696 102.039 189.876C102.629 189.056 103.554 188.646 104.814 188.646C106.094 188.646 107.029 189.056 107.619 189.876C108.209 190.686 108.504 191.851 108.504 193.371V195.051ZM107.424 193.356C107.424 192.016 107.204 191.056 106.764 190.476C106.334 189.886 105.684 189.591 104.814 189.591C103.984 189.591 103.344 189.886 102.894 190.476C102.454 191.066 102.234 192.026 102.234 193.356V195.066C102.234 196.406 102.454 197.371 102.894 197.961C103.344 198.551 103.984 198.846 104.814 198.846C105.674 198.846 106.324 198.556 106.764 197.976C107.204 197.386 107.424 196.416 107.424 195.066V193.356Z" fill="#585856"/>
    <path d="M128.936 190.312C129.066 190.092 129.226 189.882 129.416 189.682C129.606 189.482 129.826 189.307 130.076 189.157C130.336 188.997 130.626 188.872 130.946 188.782C131.276 188.682 131.646 188.632 132.056 188.632C132.546 188.632 132.986 188.697 133.376 188.827C133.776 188.957 134.111 189.142 134.381 189.382C134.661 189.612 134.876 189.897 135.026 190.237C135.176 190.567 135.251 190.932 135.251 191.332V191.482C135.251 191.692 135.221 191.917 135.161 192.157C135.101 192.387 135.001 192.612 134.861 192.832C134.721 193.052 134.531 193.257 134.291 193.447C134.051 193.637 133.751 193.792 133.391 193.912C134.141 194.042 134.706 194.337 135.086 194.797C135.476 195.257 135.671 195.802 135.671 196.432V196.657C135.671 197.047 135.606 197.427 135.476 197.797C135.346 198.167 135.136 198.502 134.846 198.802C134.566 199.092 134.191 199.327 133.721 199.507C133.261 199.687 132.701 199.777 132.041 199.777C131.411 199.777 130.801 199.677 130.211 199.477C129.631 199.287 129.086 198.987 128.576 198.577L129.101 197.737C129.631 198.117 130.126 198.392 130.586 198.562C131.056 198.732 131.541 198.817 132.041 198.817C132.511 198.817 132.911 198.752 133.241 198.622C133.571 198.492 133.836 198.327 134.036 198.127C134.246 197.917 134.396 197.687 134.486 197.437C134.586 197.177 134.636 196.922 134.636 196.672V196.477C134.636 196.067 134.551 195.732 134.381 195.472C134.221 195.202 134.016 194.992 133.766 194.842C133.526 194.682 133.256 194.572 132.956 194.512C132.666 194.452 132.391 194.422 132.131 194.422H130.916V193.522H132.176C132.516 193.522 132.811 193.462 133.061 193.342C133.311 193.212 133.516 193.047 133.676 192.847C133.846 192.647 133.971 192.427 134.051 192.187C134.141 191.937 134.186 191.697 134.186 191.467V191.347C134.186 190.807 133.996 190.382 133.616 190.072C133.246 189.752 132.731 189.592 132.071 189.592C131.641 189.592 131.226 189.682 130.826 189.862C130.426 190.032 130.071 190.362 129.761 190.852L128.936 190.312ZM141.335 199.612V190.117L138.725 191.707L138.245 190.867L141.59 188.797H142.385V199.612H141.335Z" fill="#585856"/>
    <path d="M21.2976 63.5696V60.5456H26.9856V59.4776H21.2376V58.4936H28.1496V61.5056H22.4616V62.5856H28.4616V63.5696H21.2976ZM26.9736 57.9416V52.4336H28.1496V57.9416H26.9736ZM22.1256 52.5896C22.5736 52.5896 22.9696 52.6576 23.3136 52.7936C23.6576 52.9296 23.9456 53.1056 24.1776 53.3216C24.4096 53.5376 24.5816 53.7816 24.6936 54.0536C24.8136 54.3256 24.8736 54.5976 24.8736 54.8696V55.3496C24.8736 55.6296 24.8136 55.9056 24.6936 56.1776C24.5816 56.4496 24.4096 56.6936 24.1776 56.9096C23.9456 57.1256 23.6576 57.3016 23.3136 57.4376C22.9696 57.5656 22.5736 57.6296 22.1256 57.6296C21.6776 57.6296 21.2816 57.5656 20.9376 57.4376C20.5936 57.3016 20.3056 57.1256 20.0736 56.9096C19.8416 56.6936 19.6656 56.4496 19.5456 56.1776C19.4336 55.9056 19.3776 55.6296 19.3776 55.3496V54.8696C19.3776 54.5976 19.4336 54.3256 19.5456 54.0536C19.6656 53.7816 19.8416 53.5376 20.0736 53.3216C20.3056 53.1056 20.5936 52.9296 20.9376 52.7936C21.2816 52.6576 21.6776 52.5896 22.1256 52.5896ZM22.1256 56.6096C22.3816 56.6096 22.6096 56.5736 22.8096 56.5016C23.0096 56.4216 23.1776 56.3216 23.3136 56.2016C23.4496 56.0736 23.5536 55.9296 23.6256 55.7696C23.6976 55.6096 23.7336 55.4456 23.7336 55.2776V54.9416C23.7336 54.7736 23.6976 54.6096 23.6256 54.4496C23.5536 54.2896 23.4496 54.1496 23.3136 54.0296C23.1776 53.9096 23.0096 53.8136 22.8096 53.7416C22.6096 53.6616 22.3816 53.6216 22.1256 53.6216C21.8696 53.6216 21.6416 53.6576 21.4416 53.7296C21.2416 53.8016 21.0736 53.9016 20.9376 54.0296C20.8016 54.1496 20.6976 54.2896 20.6256 54.4496C20.5536 54.6096 20.5176 54.7736 20.5176 54.9416V55.2776C20.5176 55.4456 20.5536 55.6096 20.6256 55.7696C20.6976 55.9296 20.8016 56.0736 20.9376 56.2016C21.0736 56.3216 21.2416 56.4216 21.4416 56.5016C21.6416 56.5736 21.8696 56.6096 22.1256 56.6096Z" fill="#F57521"/>
    <path d="M57.3747 63.5696V61.0136H63.3987V60.3656H57.3147V59.4056H64.5627V61.9376H58.4907V62.6096H64.8867V63.5696H57.3747ZM58.9707 56.1176C58.1147 56.1176 57.4467 55.9656 56.9667 55.6616C56.4947 55.3496 56.2587 54.9536 56.2587 54.4736V54.1616C56.2587 53.9216 56.3187 53.7016 56.4387 53.5016C56.5667 53.3016 56.7467 53.1296 56.9787 52.9856C57.2107 52.8336 57.4947 52.7176 57.8307 52.6376C58.1667 52.5576 58.5467 52.5176 58.9707 52.5176C59.8267 52.5256 60.4907 52.6816 60.9627 52.9856C61.4427 53.2896 61.6827 53.6816 61.6827 54.1616V54.4736C61.6827 54.9536 61.4427 55.3496 60.9627 55.6616C60.4907 55.9656 59.8267 56.1176 58.9707 56.1176ZM63.3867 58.9976V58.6256H61.0467V57.7136H63.3867V52.4336H64.5627V58.9976H63.3867ZM58.2627 58.9736V57.4856C57.8707 57.5016 57.4507 57.5096 57.0027 57.5096C56.5547 57.5096 56.0627 57.5096 55.5267 57.5096V56.5616C56.3987 56.5616 57.1547 56.5576 57.7947 56.5496C58.4427 56.5416 59.0347 56.5296 59.5707 56.5136C60.1067 56.4896 60.6107 56.4616 61.0827 56.4296C61.5627 56.3976 62.0667 56.3576 62.5947 56.3096L62.6907 57.2216C62.1627 57.2776 61.6427 57.3256 61.1307 57.3656C60.6267 57.3976 60.0627 57.4256 59.4387 57.4496V58.9736H58.2627ZM58.9707 55.1216C59.5227 55.1216 59.9227 55.0536 60.1707 54.9176C60.4267 54.7736 60.5547 54.6056 60.5547 54.4136V54.2216C60.5547 54.0296 60.4267 53.8656 60.1707 53.7296C59.9227 53.5936 59.5227 53.5256 58.9707 53.5256C58.4187 53.5256 58.0147 53.5936 57.7587 53.7296C57.5107 53.8656 57.3867 54.0296 57.3867 54.2216V54.4136C57.3867 54.6056 57.5107 54.7736 57.7587 54.9176C58.0147 55.0536 58.4187 55.1216 58.9707 55.1216Z" fill="#F57521"/>
    <path d="M98.7918 61.1936C98.2958 61.2416 97.8238 61.2856 97.3758 61.3256C96.9278 61.3576 96.4398 61.3856 95.9118 61.4096C95.3918 61.4336 94.7958 61.4536 94.1238 61.4696C93.4518 61.4776 92.6438 61.4816 91.6998 61.4816V60.4736C92.2918 60.4736 92.8278 60.4736 93.3078 60.4736C93.7878 60.4736 94.2318 60.4656 94.6398 60.4496V59.3576C94.3038 59.3176 93.9998 59.2376 93.7278 59.1176C93.4638 58.9976 93.2398 58.8536 93.0558 58.6856C92.8718 58.5176 92.7318 58.3336 92.6358 58.1336C92.5398 57.9256 92.4918 57.7136 92.4918 57.4976V57.0416C92.4918 56.8016 92.5518 56.5696 92.6718 56.3456C92.7998 56.1136 92.9758 55.9096 93.1998 55.7336C93.4318 55.5576 93.7118 55.4176 94.0398 55.3136C94.3758 55.2096 94.7518 55.1576 95.1678 55.1576C95.5838 55.1576 95.9558 55.2096 96.2838 55.3136C96.6198 55.4176 96.8998 55.5576 97.1238 55.7336C97.3558 55.9096 97.5318 56.1136 97.6518 56.3456C97.7798 56.5696 97.8438 56.8016 97.8438 57.0416V57.4976C97.8438 57.9216 97.6638 58.3096 97.3038 58.6616C96.9518 59.0056 96.4558 59.2296 95.8158 59.3336V60.4136C96.3518 60.3976 96.8438 60.3736 97.2918 60.3416C97.7478 60.3016 98.2158 60.2616 98.6958 60.2216L98.7918 61.1936ZM99.3438 63.4976V52.4336H100.52V56.8616H102.176V57.8936H100.52V63.4976H99.3438ZM98.2878 54.7016H91.9278V53.6816H94.5798V52.3496H95.7558V53.6816H98.2878V54.7016ZM95.1678 58.4096C95.6558 58.4096 96.0318 58.3056 96.2958 58.0976C96.5598 57.8896 96.6918 57.6536 96.6918 57.3896V57.1496C96.6918 56.8856 96.5558 56.6496 96.2838 56.4416C96.0198 56.2336 95.6478 56.1296 95.1678 56.1296C94.6798 56.1296 94.3038 56.2336 94.0398 56.4416C93.7758 56.6496 93.6438 56.8856 93.6438 57.1496V57.3896C93.6438 57.6536 93.7758 57.8896 94.0398 58.0976C94.3118 58.3056 94.6878 58.4096 95.1678 58.4096Z" fill="#F57521"/>
    <path d="M132.481 63.4976V59.6936H128.005V58.6856H138.157V59.6936H133.681V63.4976H132.481ZM134.413 56.5856C134.013 56.3856 133.709 56.2096 133.501 56.0576C133.301 55.9056 133.161 55.7616 133.081 55.6256H133.069C132.997 55.7616 132.857 55.9096 132.649 56.0696C132.441 56.2216 132.137 56.3976 131.737 56.5976C131.409 56.7576 131.025 56.9376 130.585 57.1376C130.145 57.3376 129.677 57.5336 129.181 57.7256L128.713 56.7536C129.161 56.5856 129.617 56.4016 130.081 56.2016C130.545 55.9936 130.969 55.7856 131.353 55.5776C131.553 55.4656 131.725 55.3536 131.869 55.2416C132.013 55.1296 132.129 55.0056 132.217 54.8696C132.313 54.7256 132.381 54.5696 132.421 54.4016C132.461 54.2256 132.481 54.0256 132.481 53.8016V52.8176H133.669V53.8016C133.669 54.0256 133.689 54.2256 133.729 54.4016C133.769 54.5696 133.833 54.7256 133.921 54.8696C134.009 55.0056 134.121 55.1296 134.257 55.2416C134.401 55.3536 134.577 55.4656 134.785 55.5776C135.169 55.7856 135.593 55.9936 136.057 56.2016C136.521 56.4016 136.977 56.5856 137.425 56.7536L136.969 57.7136C136.473 57.5216 136.005 57.3256 135.565 57.1256C135.125 56.9256 134.741 56.7456 134.413 56.5856Z" fill="#F57521"/>
    <path d="M173.022 56.7776H170.022V57.9056H174.498V58.9136H164.346V57.9056H168.822V56.7776H165.822V52.8176H173.022V56.7776ZM165.654 59.9696H173.082V63.6056H171.894V60.9776H165.654V59.9696ZM171.846 53.8136H166.998V55.7816H171.846V53.8136Z" fill="#F57521"/>
    <path d="M209.387 63.4856H202.139V59.2856H209.387V63.4856ZM202.007 52.9016H209.315V54.6056C209.315 54.9416 209.295 55.3216 209.255 55.7456C209.215 56.1616 209.155 56.5776 209.075 56.9936H210.839V58.0016H200.687V56.9936H207.851C207.947 56.5536 208.015 56.1296 208.055 55.7216C208.095 55.3056 208.115 54.9176 208.115 54.5576V53.9096H202.007V52.9016ZM208.211 60.2816H203.315V62.4896H208.211V60.2816Z" fill="#F57521"/>
    <path d="M245.62 56.6816H239.572V58.1336H245.872V59.1416H242.692V61.0136H247.18V62.0216H237.028V61.0136H241.516V59.1416H238.396V53.2376H245.704V54.2456H239.572V55.6976H245.62V56.6816Z" fill="#F57521"/>
</svg>
