<svg width="321" height="294" viewBox="0 0 321 294" fill="none" xmlns="http://www.w3.org/2000/svg">
<rect x="2.34863" y="1.8811" width="317.109" height="290.551" rx="18.5" fill="white" stroke="#E58A97" stroke-width="3"/>
<path d="M0.848633 20.3811C0.848633 9.33542 9.80294 0.381104 20.8486 0.381104H300.958C312.003 0.381104 320.958 9.33541 320.958 20.3811V57.883H0.848633V20.3811Z" fill="#E58A97"/>
<path d="M151.725 15.7937C152.358 15.7937 152.808 15.902 153.075 16.1187C153.341 16.3354 153.475 16.677 153.475 17.1437C153.475 17.2604 153.466 17.377 153.45 17.4937C153.433 17.5937 153.4 17.7187 153.35 17.8687C153.3 18.002 153.233 18.1687 153.15 18.3687C153.066 18.5687 152.958 18.827 152.825 19.1437L146.525 33.0437C146.375 33.3937 146.141 33.602 145.825 33.6687C145.525 33.7187 145.233 33.677 144.95 33.5437C144.666 33.4104 144.45 33.2187 144.3 32.9687C144.166 32.7187 144.183 32.402 144.35 32.0187L150.825 17.9437H141.7C141.4 17.9437 141.175 17.8354 141.025 17.6187C140.891 17.402 140.825 17.152 140.825 16.8687C140.825 16.5854 140.891 16.3354 141.025 16.1187C141.175 15.902 141.4 15.7937 141.7 15.7937H151.725ZM163.534 14.2937C165.517 14.2937 166.992 14.6104 167.959 15.2437C168.942 15.8604 169.434 16.7187 169.434 17.8187C169.434 18.902 168.942 19.7604 167.959 20.3937C166.992 21.027 165.517 21.3437 163.534 21.3437C161.55 21.3437 160.075 21.027 159.109 20.3937C158.142 19.7604 157.659 18.902 157.659 17.8187C157.659 16.7187 158.142 15.8604 159.109 15.2437C160.075 14.6104 161.55 14.2937 163.534 14.2937ZM163.534 16.1937C162.317 16.1937 161.425 16.3354 160.859 16.6187C160.292 16.902 160.009 17.302 160.009 17.8187C160.009 18.3187 160.292 18.7104 160.859 18.9937C161.425 19.277 162.317 19.4187 163.534 19.4187C164.767 19.4187 165.667 19.277 166.234 18.9937C166.8 18.7104 167.084 18.3187 167.084 17.8187C167.084 17.302 166.8 16.902 166.234 16.6187C165.667 16.3354 164.767 16.1937 163.534 16.1937ZM173.734 14.2187C174.067 14.2187 174.359 14.302 174.609 14.4687C174.859 14.6354 174.984 14.902 174.984 15.2687V27.1687C174.984 27.502 174.859 27.752 174.609 27.9187C174.375 28.0687 174.084 28.1437 173.734 28.1437C173.4 28.1437 173.109 28.0687 172.859 27.9187C172.625 27.752 172.509 27.502 172.509 27.1687H168.434C168.184 27.1687 167.992 27.077 167.859 26.8937C167.725 26.6937 167.659 26.477 167.659 26.2437C167.659 25.977 167.725 25.752 167.859 25.5687C167.992 25.3854 168.184 25.2937 168.434 25.2937H172.509V15.2687C172.509 14.902 172.634 14.6354 172.884 14.4687C173.134 14.302 173.417 14.2187 173.734 14.2187ZM170.234 22.0687C170.517 22.0354 170.742 22.102 170.909 22.2687C171.075 22.4354 171.167 22.652 171.184 22.9187C171.217 23.202 171.167 23.452 171.034 23.6687C170.917 23.8854 170.717 24.0104 170.434 24.0437C169.567 24.1604 168.634 24.2604 167.634 24.3437C166.65 24.4104 165.617 24.4687 164.534 24.5187V26.8937C164.534 27.227 164.409 27.4687 164.159 27.6187C163.925 27.7687 163.634 27.8437 163.284 27.8437C162.95 27.8437 162.659 27.7687 162.409 27.6187C162.175 27.4687 162.059 27.227 162.059 26.8937V24.5937C160.309 24.6437 158.567 24.6687 156.834 24.6687C156.55 24.6687 156.334 24.577 156.184 24.3937C156.05 24.1937 155.984 23.952 155.984 23.6687C155.984 23.402 156.05 23.177 156.184 22.9937C156.334 22.7937 156.55 22.6937 156.834 22.6937C158.95 22.6937 161.15 22.6604 163.434 22.5937C165.734 22.527 168 22.352 170.234 22.0687ZM173.059 28.9437C173.792 28.9437 174.292 29.077 174.559 29.3437C174.842 29.6104 174.984 30.102 174.984 30.8187V32.1687C174.984 32.8854 174.842 33.377 174.559 33.6437C174.292 33.8937 173.792 34.0187 173.059 34.0187H162.459C162.225 34.0187 162.109 34.1354 162.109 34.3687V35.0937C162.109 35.3104 162.225 35.4187 162.459 35.4187H174.734C175.017 35.4187 175.217 35.5104 175.334 35.6937C175.467 35.8937 175.534 36.1104 175.534 36.3437C175.534 36.6104 175.467 36.8354 175.334 37.0187C175.217 37.2187 175.017 37.3187 174.734 37.3187H161.634C160.9 37.3187 160.392 37.1854 160.109 36.9187C159.842 36.652 159.709 36.1604 159.709 35.4437V34.1187C159.709 33.402 159.842 32.9104 160.109 32.6437C160.392 32.377 160.9 32.2437 161.634 32.2437H172.234C172.467 32.2437 172.584 32.127 172.584 31.8937V31.1937C172.584 30.9604 172.467 30.8437 172.234 30.8437H160.459C160.175 30.8437 159.967 30.752 159.834 30.5687C159.717 30.3687 159.659 30.1437 159.659 29.8937C159.659 29.6604 159.717 29.4437 159.834 29.2437C159.967 29.0437 160.175 28.9437 160.459 28.9437H173.059Z" fill="white"/>
<path d="M149.098 161.904C149.098 156.381 153.575 151.904 159.098 151.904H310.262V179.419H159.098C153.575 179.419 149.098 174.942 149.098 169.419V161.904Z" fill="#E58A97"/>
<path d="M15.7051 183.037H126.398C131.921 183.037 136.398 187.514 136.398 193.037V200.552C136.398 206.075 131.921 210.552 126.398 210.552H15.7051V183.037Z" fill="#E58A97"/>
<path d="M204.136 229.822C204.436 229.472 204.676 229.172 204.856 228.922C205.036 228.672 205.171 228.452 205.261 228.262C205.361 228.062 205.426 227.887 205.456 227.737C205.496 227.587 205.516 227.442 205.516 227.302V227.182C205.516 226.642 205.336 226.217 204.976 225.907C204.626 225.587 204.121 225.427 203.461 225.427C202.981 225.427 202.531 225.542 202.111 225.772C201.691 226.002 201.306 226.432 200.956 227.062L200.116 226.537C200.246 226.307 200.406 226.072 200.596 225.832C200.786 225.582 201.016 225.357 201.286 225.157C201.556 224.957 201.866 224.792 202.216 224.662C202.576 224.532 202.981 224.467 203.431 224.467C203.911 224.467 204.346 224.532 204.736 224.662C205.126 224.792 205.456 224.977 205.726 225.217C205.996 225.447 206.206 225.732 206.356 226.072C206.506 226.402 206.581 226.767 206.581 227.167V227.317C206.581 227.607 206.531 227.892 206.431 228.172C206.331 228.442 206.196 228.707 206.026 228.967C205.866 229.227 205.676 229.487 205.456 229.747C205.236 230.007 205.011 230.272 204.781 230.542L201.421 234.487H206.971V235.447H200.101V234.547L204.136 229.822ZM211.735 235.447H210.55L214.945 225.592H208.87V224.632H216.115V225.442L211.735 235.447Z" fill="#585856"/>
<path d="M70.776 129.408C70.906 129.188 71.066 128.978 71.256 128.778C71.446 128.578 71.666 128.403 71.916 128.253C72.176 128.093 72.466 127.968 72.786 127.878C73.116 127.778 73.486 127.728 73.896 127.728C74.386 127.728 74.826 127.793 75.216 127.923C75.616 128.053 75.951 128.238 76.221 128.478C76.501 128.708 76.716 128.993 76.866 129.333C77.016 129.663 77.091 130.028 77.091 130.428V130.578C77.091 130.788 77.061 131.013 77.001 131.253C76.941 131.483 76.841 131.708 76.701 131.928C76.561 132.148 76.371 132.353 76.131 132.543C75.891 132.733 75.591 132.888 75.231 133.008C75.981 133.138 76.546 133.433 76.926 133.893C77.316 134.353 77.511 134.898 77.511 135.528V135.753C77.511 136.143 77.446 136.523 77.316 136.893C77.186 137.263 76.976 137.598 76.686 137.898C76.406 138.188 76.031 138.423 75.561 138.603C75.101 138.783 74.541 138.873 73.881 138.873C73.251 138.873 72.641 138.773 72.051 138.573C71.471 138.383 70.926 138.083 70.416 137.673L70.941 136.833C71.471 137.213 71.966 137.488 72.426 137.658C72.896 137.828 73.381 137.913 73.881 137.913C74.351 137.913 74.751 137.848 75.081 137.718C75.411 137.588 75.676 137.423 75.876 137.223C76.086 137.013 76.236 136.783 76.326 136.533C76.426 136.273 76.476 136.018 76.476 135.768V135.573C76.476 135.163 76.391 134.828 76.221 134.568C76.061 134.298 75.856 134.088 75.606 133.938C75.366 133.778 75.096 133.668 74.796 133.608C74.506 133.548 74.231 133.518 73.971 133.518H72.756V132.618H74.016C74.356 132.618 74.651 132.558 74.901 132.438C75.151 132.308 75.356 132.143 75.516 131.943C75.686 131.743 75.811 131.523 75.891 131.283C75.981 131.033 76.026 130.793 76.026 130.563V130.443C76.026 129.903 75.836 129.478 75.456 129.168C75.086 128.848 74.571 128.688 73.911 128.688C73.481 128.688 73.066 128.778 72.666 128.958C72.266 129.128 71.911 129.458 71.601 129.948L70.776 129.408Z" fill="#585856"/>
<path d="M30.8891 133.096C31.1891 132.746 31.4291 132.446 31.6091 132.196C31.7891 131.946 31.9241 131.726 32.0141 131.536C32.1141 131.336 32.1791 131.161 32.2091 131.011C32.2491 130.861 32.2691 130.716 32.2691 130.576V130.456C32.2691 129.916 32.0891 129.491 31.7291 129.181C31.3791 128.861 30.8741 128.701 30.2141 128.701C29.7341 128.701 29.2841 128.816 28.8641 129.046C28.4441 129.276 28.0591 129.706 27.7091 130.336L26.8691 129.811C26.9991 129.581 27.1591 129.346 27.3491 129.106C27.5391 128.856 27.7691 128.631 28.0391 128.431C28.3091 128.231 28.6191 128.066 28.9691 127.936C29.3291 127.806 29.7341 127.741 30.1841 127.741C30.6641 127.741 31.0991 127.806 31.4891 127.936C31.8791 128.066 32.2091 128.251 32.4791 128.491C32.7491 128.721 32.9591 129.006 33.1091 129.346C33.2591 129.676 33.3341 130.041 33.3341 130.441V130.591C33.3341 130.881 33.2841 131.166 33.1841 131.446C33.0841 131.716 32.9491 131.981 32.7791 132.241C32.6191 132.501 32.4291 132.761 32.2091 133.021C31.9891 133.281 31.7641 133.546 31.5341 133.816L28.1741 137.761H33.7241V138.721H26.8541V137.821L30.8891 133.096Z" fill="#585856"/>
<path d="M294.337 106.456V96.9609L291.727 98.5509L291.247 97.7109L294.592 95.6409H295.387V106.456H294.337Z" fill="#585856"/>
<path d="M69.3141 258.404C69.4441 258.184 69.6041 257.974 69.7941 257.774C69.9841 257.574 70.2041 257.399 70.4541 257.249C70.7141 257.089 71.0041 256.964 71.3241 256.874C71.6541 256.774 72.0241 256.724 72.4341 256.724C72.9241 256.724 73.3641 256.789 73.7541 256.919C74.1541 257.049 74.4891 257.234 74.7591 257.474C75.0391 257.704 75.2541 257.989 75.4041 258.329C75.5541 258.659 75.6291 259.024 75.6291 259.424V259.574C75.6291 259.784 75.5991 260.009 75.5391 260.249C75.4791 260.479 75.3791 260.704 75.2391 260.924C75.0991 261.144 74.9091 261.349 74.6691 261.539C74.4291 261.729 74.1291 261.884 73.7691 262.004C74.5191 262.134 75.0841 262.429 75.4641 262.889C75.8541 263.349 76.0491 263.894 76.0491 264.524V264.749C76.0491 265.139 75.9841 265.519 75.8541 265.889C75.7241 266.259 75.5141 266.594 75.2241 266.894C74.9441 267.184 74.5691 267.419 74.0991 267.599C73.6391 267.779 73.0791 267.869 72.4191 267.869C71.7891 267.869 71.1791 267.769 70.5891 267.569C70.0091 267.379 69.4641 267.079 68.9541 266.669L69.4791 265.829C70.0091 266.209 70.5041 266.484 70.9641 266.654C71.4341 266.824 71.9191 266.909 72.4191 266.909C72.8891 266.909 73.2891 266.844 73.6191 266.714C73.9491 266.584 74.2141 266.419 74.4141 266.219C74.6241 266.009 74.7741 265.779 74.8641 265.529C74.9641 265.269 75.0141 265.014 75.0141 264.764V264.569C75.0141 264.159 74.9291 263.824 74.7591 263.564C74.5991 263.294 74.3941 263.084 74.1441 262.934C73.9041 262.774 73.6341 262.664 73.3341 262.604C73.0441 262.544 72.7691 262.514 72.5091 262.514H71.2941V261.614H72.5541C72.8941 261.614 73.1891 261.554 73.4391 261.434C73.6891 261.304 73.8941 261.139 74.0541 260.939C74.2241 260.739 74.3491 260.519 74.4291 260.279C74.5191 260.029 74.5641 259.789 74.5641 259.559V259.439C74.5641 258.899 74.3741 258.474 73.9941 258.164C73.6241 257.844 73.1091 257.684 72.4491 257.684C72.0191 257.684 71.6041 257.774 71.2041 257.954C70.8041 258.124 70.4491 258.454 70.1391 258.944L69.3141 258.404ZM81.7132 267.704V258.209L79.1032 259.799L78.6232 258.959L81.9682 256.889H82.7632V267.704H81.7132Z" fill="#585856"/>
<path d="M121.79 267.704V258.209L119.18 259.799L118.7 258.959L122.045 256.889H122.84V267.704H121.79Z" fill="#D9D9D9"/>
<path d="M25.4967 258.404C25.6267 258.184 25.7867 257.974 25.9767 257.774C26.1667 257.574 26.3867 257.399 26.6367 257.249C26.8967 257.089 27.1867 256.964 27.5067 256.874C27.8367 256.774 28.2067 256.724 28.6167 256.724C29.1067 256.724 29.5467 256.789 29.9367 256.919C30.3367 257.049 30.6717 257.234 30.9417 257.474C31.2217 257.704 31.4367 257.989 31.5867 258.329C31.7367 258.659 31.8117 259.024 31.8117 259.424V259.574C31.8117 259.784 31.7817 260.009 31.7217 260.249C31.6617 260.479 31.5617 260.704 31.4217 260.924C31.2817 261.144 31.0917 261.349 30.8517 261.539C30.6117 261.729 30.3117 261.884 29.9517 262.004C30.7017 262.134 31.2667 262.429 31.6467 262.889C32.0367 263.349 32.2317 263.894 32.2317 264.524V264.749C32.2317 265.139 32.1667 265.519 32.0367 265.889C31.9067 266.259 31.6967 266.594 31.4067 266.894C31.1267 267.184 30.7517 267.419 30.2817 267.599C29.8217 267.779 29.2617 267.869 28.6017 267.869C27.9717 267.869 27.3617 267.769 26.7717 267.569C26.1917 267.379 25.6467 267.079 25.1367 266.669L25.6617 265.829C26.1917 266.209 26.6867 266.484 27.1467 266.654C27.6167 266.824 28.1017 266.909 28.6017 266.909C29.0717 266.909 29.4717 266.844 29.8017 266.714C30.1317 266.584 30.3967 266.419 30.5967 266.219C30.8067 266.009 30.9567 265.779 31.0467 265.529C31.1467 265.269 31.1967 265.014 31.1967 264.764V264.569C31.1967 264.159 31.1117 263.824 30.9417 263.564C30.7817 263.294 30.5767 263.084 30.3267 262.934C30.0867 262.774 29.8167 262.664 29.5167 262.604C29.2267 262.544 28.9517 262.514 28.6917 262.514H27.4767V261.614H28.7367C29.0767 261.614 29.3717 261.554 29.6217 261.434C29.8717 261.304 30.0767 261.139 30.2367 260.939C30.4067 260.739 30.5317 260.519 30.6117 260.279C30.7017 260.029 30.7467 259.789 30.7467 259.559V259.439C30.7467 258.899 30.5567 258.474 30.1767 258.164C29.8067 257.844 29.2917 257.684 28.6317 257.684C28.2017 257.684 27.7867 257.774 27.3867 257.954C26.9867 258.124 26.6317 258.454 26.3217 258.944L25.4967 258.404ZM41.4058 263.129C41.4058 264.659 41.1158 265.834 40.5358 266.654C39.9558 267.464 39.0158 267.869 37.7158 267.869C36.4358 267.869 35.5058 267.459 34.9258 266.639C34.3458 265.819 34.0558 264.649 34.0558 263.129V261.449C34.0558 259.939 34.3508 258.774 34.9408 257.954C35.5308 257.134 36.4558 256.724 37.7158 256.724C38.9958 256.724 39.9308 257.134 40.5208 257.954C41.1108 258.764 41.4058 259.929 41.4058 261.449V263.129ZM40.3258 261.434C40.3258 260.094 40.1058 259.134 39.6658 258.554C39.2358 257.964 38.5858 257.669 37.7158 257.669C36.8858 257.669 36.2458 257.964 35.7958 258.554C35.3558 259.144 35.1358 260.104 35.1358 261.434V263.144C35.1358 264.484 35.3558 265.449 35.7958 266.039C36.2458 266.629 36.8858 266.924 37.7158 266.924C38.5758 266.924 39.2258 266.634 39.6658 266.054C40.1058 265.464 40.3258 264.494 40.3258 263.144V261.434Z" fill="#585856"/>
<path d="M292.306 229.822C292.606 229.472 292.846 229.172 293.026 228.922C293.206 228.672 293.341 228.452 293.431 228.262C293.531 228.062 293.596 227.887 293.626 227.737C293.666 227.587 293.686 227.442 293.686 227.302V227.182C293.686 226.642 293.506 226.217 293.146 225.907C292.796 225.587 292.291 225.427 291.631 225.427C291.151 225.427 290.701 225.542 290.281 225.772C289.861 226.002 289.476 226.432 289.126 227.062L288.286 226.537C288.416 226.307 288.576 226.072 288.766 225.832C288.956 225.582 289.186 225.357 289.456 225.157C289.726 224.957 290.036 224.792 290.386 224.662C290.746 224.532 291.151 224.467 291.601 224.467C292.081 224.467 292.516 224.532 292.906 224.662C293.296 224.792 293.626 224.977 293.896 225.217C294.166 225.447 294.376 225.732 294.526 226.072C294.676 226.402 294.751 226.767 294.751 227.167V227.317C294.751 227.607 294.701 227.892 294.601 228.172C294.501 228.442 294.366 228.707 294.196 228.967C294.036 229.227 293.846 229.487 293.626 229.747C293.406 230.007 293.181 230.272 292.951 230.542L289.591 234.487H295.141V235.447H288.271V234.547L292.306 229.822ZM297.835 233.992C298.175 234.192 298.54 234.352 298.93 234.472C299.32 234.592 299.73 234.652 300.16 234.652C300.71 234.652 301.17 234.552 301.54 234.352C301.91 234.142 302.205 233.842 302.425 233.452C302.645 233.062 302.805 232.587 302.905 232.027C303.005 231.467 303.065 230.837 303.085 230.137C303.005 230.297 302.89 230.467 302.74 230.647C302.59 230.827 302.4 230.997 302.17 231.157C301.95 231.307 301.685 231.437 301.375 231.547C301.075 231.647 300.735 231.697 300.355 231.697C299.895 231.697 299.455 231.622 299.035 231.472C298.625 231.312 298.26 231.087 297.94 230.797C297.63 230.507 297.38 230.157 297.19 229.747C297.01 229.327 296.92 228.852 296.92 228.322V227.962C296.92 227.432 297.01 226.952 297.19 226.522C297.37 226.092 297.615 225.727 297.925 225.427C298.245 225.117 298.62 224.882 299.05 224.722C299.49 224.552 299.96 224.467 300.46 224.467C300.96 224.467 301.43 224.557 301.87 224.737C302.32 224.907 302.71 225.177 303.04 225.547C303.37 225.907 303.63 226.367 303.82 226.927C304.02 227.477 304.12 228.127 304.12 228.877V229.327C304.12 230.517 304.035 231.517 303.865 232.327C303.705 233.127 303.46 233.772 303.13 234.262C302.8 234.752 302.385 235.097 301.885 235.297C301.385 235.507 300.8 235.612 300.13 235.612C299.64 235.612 299.165 235.547 298.705 235.417C298.245 235.287 297.81 235.107 297.4 234.877L297.835 233.992ZM302.98 228.172C302.98 227.772 302.92 227.402 302.8 227.062C302.68 226.722 302.51 226.432 302.29 226.192C302.07 225.942 301.805 225.752 301.495 225.622C301.195 225.482 300.86 225.412 300.49 225.412C300.12 225.412 299.78 225.472 299.47 225.592C299.16 225.712 298.89 225.882 298.66 226.102C298.44 226.322 298.265 226.597 298.135 226.927C298.015 227.247 297.955 227.607 297.955 228.007V228.232C297.955 228.642 298.025 229.007 298.165 229.327C298.305 229.637 298.49 229.902 298.72 230.122C298.95 230.332 299.215 230.497 299.515 230.617C299.825 230.727 300.145 230.782 300.475 230.782C300.785 230.782 301.09 230.722 301.39 230.602C301.7 230.482 301.97 230.312 302.2 230.092C302.43 229.872 302.615 229.617 302.755 229.327C302.905 229.037 302.98 228.717 302.98 228.367V228.172Z" fill="#585856"/>
<path d="M248.488 229.822C248.788 229.472 249.028 229.172 249.208 228.922C249.388 228.672 249.523 228.452 249.613 228.262C249.713 228.062 249.778 227.887 249.808 227.737C249.848 227.587 249.868 227.442 249.868 227.302V227.182C249.868 226.642 249.688 226.217 249.328 225.907C248.978 225.587 248.473 225.427 247.813 225.427C247.333 225.427 246.883 225.542 246.463 225.772C246.043 226.002 245.658 226.432 245.308 227.062L244.468 226.537C244.598 226.307 244.758 226.072 244.948 225.832C245.138 225.582 245.368 225.357 245.638 225.157C245.908 224.957 246.218 224.792 246.568 224.662C246.928 224.532 247.333 224.467 247.783 224.467C248.263 224.467 248.698 224.532 249.088 224.662C249.478 224.792 249.808 224.977 250.078 225.217C250.348 225.447 250.558 225.732 250.708 226.072C250.858 226.402 250.933 226.767 250.933 227.167V227.317C250.933 227.607 250.883 227.892 250.783 228.172C250.683 228.442 250.548 228.707 250.378 228.967C250.218 229.227 250.028 229.487 249.808 229.747C249.588 230.007 249.363 230.272 249.133 230.542L245.773 234.487H251.323V235.447H244.453V234.547L248.488 229.822ZM254.677 227.392C254.677 227.682 254.727 227.957 254.827 228.217C254.927 228.477 255.067 228.702 255.247 228.892C255.437 229.082 255.662 229.232 255.922 229.342C256.182 229.452 256.472 229.507 256.792 229.507C257.112 229.507 257.402 229.452 257.662 229.342C257.922 229.232 258.142 229.082 258.322 228.892C258.512 228.702 258.657 228.477 258.757 228.217C258.857 227.957 258.907 227.682 258.907 227.392V227.212C258.907 226.652 258.712 226.212 258.322 225.892C257.942 225.562 257.432 225.397 256.792 225.397C256.142 225.397 255.627 225.562 255.247 225.892C254.867 226.212 254.677 226.652 254.677 227.212V227.392ZM254.377 232.672C254.377 232.952 254.432 233.212 254.542 233.452C254.652 233.692 254.812 233.902 255.022 234.082C255.232 234.262 255.482 234.407 255.772 234.517C256.072 234.617 256.412 234.667 256.792 234.667C257.172 234.667 257.512 234.617 257.812 234.517C258.112 234.407 258.362 234.262 258.562 234.082C258.772 233.902 258.932 233.692 259.042 233.452C259.152 233.212 259.207 232.952 259.207 232.672V232.492C259.207 232.172 259.147 231.882 259.027 231.622C258.907 231.362 258.742 231.137 258.532 230.947C258.322 230.757 258.067 230.612 257.767 230.512C257.477 230.412 257.152 230.362 256.792 230.362C256.442 230.362 256.117 230.412 255.817 230.512C255.527 230.612 255.272 230.757 255.052 230.947C254.842 231.127 254.677 231.347 254.557 231.607C254.437 231.867 254.377 232.162 254.377 232.492V232.672ZM253.312 232.447C253.312 231.847 253.492 231.322 253.852 230.872C254.222 230.412 254.702 230.092 255.292 229.912C254.772 229.672 254.367 229.337 254.077 228.907C253.797 228.477 253.657 227.977 253.657 227.407V227.167C253.657 226.777 253.732 226.417 253.882 226.087C254.042 225.757 254.262 225.472 254.542 225.232C254.822 224.992 255.152 224.807 255.532 224.677C255.922 224.537 256.342 224.467 256.792 224.467C257.242 224.467 257.657 224.537 258.037 224.677C258.427 224.807 258.762 224.992 259.042 225.232C259.322 225.472 259.537 225.757 259.687 226.087C259.847 226.417 259.927 226.777 259.927 227.167V227.407C259.927 227.977 259.782 228.477 259.492 228.907C259.212 229.337 258.807 229.672 258.277 229.912C258.567 230.002 258.832 230.127 259.072 230.287C259.322 230.447 259.532 230.642 259.702 230.872C259.882 231.092 260.022 231.337 260.122 231.607C260.222 231.867 260.272 232.147 260.272 232.447V232.702C260.272 233.132 260.187 233.527 260.017 233.887C259.857 234.247 259.622 234.557 259.312 234.817C259.012 235.067 258.647 235.262 258.217 235.402C257.787 235.542 257.312 235.612 256.792 235.612C256.272 235.612 255.797 235.542 255.367 235.402C254.937 235.262 254.567 235.067 254.257 234.817C253.957 234.557 253.722 234.247 253.552 233.887C253.392 233.527 253.312 233.132 253.312 232.702V232.447Z" fill="#585856"/>
<path d="M70.2171 170.96V161.465L67.6071 163.055L67.1271 162.215L70.4721 160.145H71.2671V170.96H70.2171ZM82.7213 166.385C82.7213 167.915 82.4313 169.09 81.8513 169.91C81.2713 170.72 80.3313 171.125 79.0313 171.125C77.7513 171.125 76.8213 170.715 76.2413 169.895C75.6613 169.075 75.3713 167.905 75.3713 166.385V164.705C75.3713 163.195 75.6663 162.03 76.2563 161.21C76.8463 160.39 77.7713 159.98 79.0313 159.98C80.3113 159.98 81.2463 160.39 81.8363 161.21C82.4263 162.02 82.7213 163.185 82.7213 164.705V166.385ZM81.6413 164.69C81.6413 163.35 81.4213 162.39 80.9813 161.81C80.5513 161.22 79.9013 160.925 79.0313 160.925C78.2013 160.925 77.5613 161.22 77.1113 161.81C76.6713 162.4 76.4513 163.36 76.4513 164.69V166.4C76.4513 167.74 76.6713 168.705 77.1113 169.295C77.5613 169.885 78.2013 170.18 79.0313 170.18C79.8913 170.18 80.5413 169.89 80.9813 169.31C81.4213 168.72 81.6413 167.75 81.6413 166.4V164.69Z" fill="#585856"/>
<path d="M27.9573 169.514C28.2973 169.714 28.6623 169.874 29.0523 169.994C29.4423 170.114 29.8523 170.174 30.2823 170.174C30.8323 170.174 31.2923 170.074 31.6623 169.874C32.0323 169.664 32.3273 169.364 32.5473 168.974C32.7673 168.584 32.9273 168.109 33.0273 167.549C33.1273 166.989 33.1873 166.359 33.2073 165.659C33.1273 165.819 33.0123 165.989 32.8623 166.169C32.7123 166.349 32.5223 166.519 32.2923 166.679C32.0723 166.829 31.8073 166.959 31.4973 167.069C31.1973 167.169 30.8573 167.219 30.4773 167.219C30.0173 167.219 29.5773 167.144 29.1573 166.994C28.7473 166.834 28.3823 166.609 28.0623 166.319C27.7523 166.029 27.5023 165.679 27.3123 165.269C27.1323 164.849 27.0423 164.374 27.0423 163.844V163.484C27.0423 162.954 27.1323 162.474 27.3123 162.044C27.4923 161.614 27.7373 161.249 28.0473 160.949C28.3673 160.639 28.7423 160.404 29.1723 160.244C29.6123 160.074 30.0823 159.989 30.5823 159.989C31.0823 159.989 31.5523 160.079 31.9923 160.259C32.4423 160.429 32.8323 160.699 33.1623 161.069C33.4923 161.429 33.7523 161.889 33.9423 162.449C34.1423 162.999 34.2423 163.649 34.2423 164.399V164.849C34.2423 166.039 34.1573 167.039 33.9873 167.849C33.8273 168.649 33.5823 169.294 33.2523 169.784C32.9223 170.274 32.5073 170.619 32.0073 170.819C31.5073 171.029 30.9223 171.134 30.2523 171.134C29.7623 171.134 29.2873 171.069 28.8273 170.939C28.3673 170.809 27.9323 170.629 27.5223 170.399L27.9573 169.514ZM33.1023 163.694C33.1023 163.294 33.0423 162.924 32.9223 162.584C32.8023 162.244 32.6323 161.954 32.4123 161.714C32.1923 161.464 31.9273 161.274 31.6173 161.144C31.3173 161.004 30.9823 160.934 30.6123 160.934C30.2423 160.934 29.9023 160.994 29.5923 161.114C29.2823 161.234 29.0123 161.404 28.7823 161.624C28.5623 161.844 28.3873 162.119 28.2573 162.449C28.1373 162.769 28.0773 163.129 28.0773 163.529V163.754C28.0773 164.164 28.1473 164.529 28.2873 164.849C28.4273 165.159 28.6123 165.424 28.8423 165.644C29.0723 165.854 29.3373 166.019 29.6373 166.139C29.9473 166.249 30.2673 166.304 30.5973 166.304C30.9073 166.304 31.2123 166.244 31.5123 166.124C31.8223 166.004 32.0923 165.834 32.3223 165.614C32.5523 165.394 32.7373 165.139 32.8773 164.849C33.0273 164.559 33.1023 164.239 33.1023 163.889V163.694Z" fill="#585856"/>
<path d="M293.998 130.649C293.998 130.939 294.048 131.214 294.148 131.474C294.248 131.734 294.388 131.959 294.568 132.149C294.758 132.339 294.983 132.489 295.243 132.599C295.503 132.709 295.793 132.764 296.113 132.764C296.433 132.764 296.723 132.709 296.983 132.599C297.243 132.489 297.463 132.339 297.643 132.149C297.833 131.959 297.978 131.734 298.078 131.474C298.178 131.214 298.228 130.939 298.228 130.649V130.469C298.228 129.909 298.033 129.469 297.643 129.149C297.263 128.819 296.753 128.654 296.113 128.654C295.463 128.654 294.948 128.819 294.568 129.149C294.188 129.469 293.998 129.909 293.998 130.469V130.649ZM293.698 135.929C293.698 136.209 293.753 136.469 293.863 136.709C293.973 136.949 294.133 137.159 294.343 137.339C294.553 137.519 294.803 137.664 295.093 137.774C295.393 137.874 295.733 137.924 296.113 137.924C296.493 137.924 296.833 137.874 297.133 137.774C297.433 137.664 297.683 137.519 297.883 137.339C298.093 137.159 298.253 136.949 298.363 136.709C298.473 136.469 298.528 136.209 298.528 135.929V135.749C298.528 135.429 298.468 135.139 298.348 134.879C298.228 134.619 298.063 134.394 297.853 134.204C297.643 134.014 297.388 133.869 297.088 133.769C296.798 133.669 296.473 133.619 296.113 133.619C295.763 133.619 295.438 133.669 295.138 133.769C294.848 133.869 294.593 134.014 294.373 134.204C294.163 134.384 293.998 134.604 293.878 134.864C293.758 135.124 293.698 135.419 293.698 135.749V135.929ZM292.633 135.704C292.633 135.104 292.813 134.579 293.173 134.129C293.543 133.669 294.023 133.349 294.613 133.169C294.093 132.929 293.688 132.594 293.398 132.164C293.118 131.734 292.978 131.234 292.978 130.664V130.424C292.978 130.034 293.053 129.674 293.203 129.344C293.363 129.014 293.583 128.729 293.863 128.489C294.143 128.249 294.473 128.064 294.853 127.934C295.243 127.794 295.663 127.724 296.113 127.724C296.563 127.724 296.978 127.794 297.358 127.934C297.748 128.064 298.083 128.249 298.363 128.489C298.643 128.729 298.858 129.014 299.008 129.344C299.168 129.674 299.248 130.034 299.248 130.424V130.664C299.248 131.234 299.103 131.734 298.813 132.164C298.533 132.594 298.128 132.929 297.598 133.169C297.888 133.259 298.153 133.384 298.393 133.544C298.643 133.704 298.853 133.899 299.023 134.129C299.203 134.349 299.343 134.594 299.443 134.864C299.543 135.124 299.593 135.404 299.593 135.704V135.959C299.593 136.389 299.508 136.784 299.338 137.144C299.178 137.504 298.943 137.814 298.633 138.074C298.333 138.324 297.968 138.519 297.538 138.659C297.108 138.799 296.633 138.869 296.113 138.869C295.593 138.869 295.118 138.799 294.688 138.659C294.258 138.519 293.888 138.324 293.578 138.074C293.278 137.814 293.043 137.504 292.873 137.144C292.713 136.784 292.633 136.389 292.633 135.959V135.704Z" fill="#585856"/>
<path d="M251.59 138.704H250.405L254.8 128.849H248.725V127.889H255.97V128.699L251.59 138.704Z" fill="#585856"/>
<path d="M211.222 129.314C210.882 129.114 210.517 128.959 210.127 128.849C209.747 128.729 209.347 128.669 208.927 128.669C208.417 128.669 207.987 128.774 207.637 128.984C207.287 129.184 206.997 129.479 206.767 129.869C206.537 130.259 206.362 130.739 206.242 131.309C206.122 131.869 206.042 132.509 206.002 133.229C206.082 133.069 206.197 132.899 206.347 132.719C206.507 132.539 206.697 132.374 206.917 132.224C207.147 132.074 207.412 131.954 207.712 131.864C208.012 131.764 208.352 131.714 208.732 131.714C209.192 131.714 209.627 131.789 210.037 131.939C210.457 132.089 210.822 132.309 211.132 132.599C211.452 132.879 211.702 133.229 211.882 133.649C212.072 134.059 212.167 134.529 212.167 135.059V135.419C212.167 135.949 212.077 136.429 211.897 136.859C211.717 137.279 211.467 137.639 211.147 137.939C210.837 138.239 210.462 138.469 210.022 138.629C209.592 138.789 209.127 138.869 208.627 138.869C208.117 138.869 207.637 138.779 207.187 138.599C206.747 138.429 206.362 138.164 206.032 137.804C205.702 137.444 205.442 136.989 205.252 136.439C205.062 135.879 204.967 135.224 204.967 134.474V134.114C204.967 132.954 205.057 131.969 205.237 131.159C205.427 130.349 205.692 129.689 206.032 129.179C206.372 128.669 206.787 128.299 207.277 128.069C207.767 127.839 208.322 127.724 208.942 127.724C209.432 127.724 209.912 127.789 210.382 127.919C210.862 128.049 211.307 128.229 211.717 128.459L211.222 129.314ZM206.107 135.209C206.107 135.619 206.167 135.989 206.287 136.319C206.407 136.649 206.577 136.934 206.797 137.174C207.017 137.414 207.277 137.599 207.577 137.729C207.887 137.859 208.227 137.924 208.597 137.924C208.967 137.924 209.307 137.869 209.617 137.759C209.927 137.639 210.192 137.474 210.412 137.264C210.642 137.044 210.817 136.779 210.937 136.469C211.067 136.149 211.132 135.784 211.132 135.374V135.149C211.132 134.749 211.062 134.394 210.922 134.084C210.782 133.764 210.597 133.499 210.367 133.289C210.137 133.069 209.867 132.904 209.557 132.794C209.257 132.684 208.942 132.629 208.612 132.629C208.292 132.629 207.982 132.689 207.682 132.809C207.382 132.929 207.117 133.094 206.887 133.304C206.657 133.514 206.467 133.769 206.317 134.069C206.177 134.359 206.107 134.674 206.107 135.014V135.209Z" fill="#585856"/>
<path d="M167.286 135.449C167.286 134.579 167.071 133.949 166.641 133.559C166.221 133.159 165.621 132.959 164.841 132.959C164.381 132.959 163.971 133.044 163.611 133.214C163.251 133.384 162.951 133.584 162.711 133.814H161.721L162.066 127.889H167.631V128.849H162.996L162.831 132.779C163.071 132.549 163.396 132.364 163.806 132.224C164.216 132.084 164.646 132.014 165.096 132.014C165.626 132.014 166.091 132.104 166.491 132.284C166.901 132.454 167.241 132.689 167.511 132.989C167.781 133.289 167.981 133.649 168.111 134.069C168.251 134.479 168.321 134.924 168.321 135.404V135.629C168.321 136.019 168.256 136.409 168.126 136.799C167.996 137.179 167.786 137.524 167.496 137.834C167.216 138.134 166.841 138.379 166.371 138.569C165.901 138.769 165.331 138.869 164.661 138.869C163.921 138.869 163.271 138.759 162.711 138.539C162.151 138.329 161.631 138.039 161.151 137.669L161.691 136.814C162.211 137.214 162.706 137.499 163.176 137.669C163.656 137.829 164.151 137.909 164.661 137.909C165.141 137.909 165.546 137.839 165.876 137.699C166.216 137.549 166.491 137.364 166.701 137.144C166.911 136.924 167.061 136.684 167.151 136.424C167.241 136.154 167.286 135.894 167.286 135.644V135.449Z" fill="#585856"/>
<path d="M123.393 131.943V135.348H124.983V136.308H123.393V138.708H122.343V136.308H116.928V135.348L122.178 127.893H123.378L118.143 135.348H122.343V131.943H123.393Z" fill="#585856"/>
<path d="M70.8157 203.212V194.137L68.2807 195.637L67.5757 194.437L71.0557 192.397H72.3007V203.212H70.8157ZM79.1459 203.212H77.5259L81.8159 193.687H75.9359V192.397H83.4209V193.537L79.1459 203.212Z" fill="white"/>
<path d="M26.9988 203.217V194.142L24.4638 195.642L23.7588 194.442L27.2388 192.402H28.4838V203.217H26.9988ZM38.584 194.232C38.244 194.032 37.879 193.877 37.489 193.767C37.099 193.657 36.689 193.602 36.259 193.602C35.889 193.602 35.549 193.667 35.239 193.797C34.939 193.917 34.674 194.122 34.444 194.412C34.224 194.702 34.044 195.087 33.904 195.567C33.774 196.047 33.694 196.642 33.664 197.352C33.754 197.192 33.879 197.042 34.039 196.902C34.209 196.752 34.404 196.622 34.624 196.512C34.854 196.392 35.104 196.297 35.374 196.227C35.654 196.157 35.944 196.122 36.244 196.122C36.724 196.122 37.169 196.202 37.579 196.362C37.999 196.522 38.359 196.752 38.659 197.052C38.969 197.352 39.209 197.717 39.379 198.147C39.559 198.567 39.649 199.042 39.649 199.572V199.902C39.649 200.422 39.559 200.897 39.379 201.327C39.199 201.747 38.949 202.112 38.629 202.422C38.309 202.722 37.919 202.957 37.459 203.127C37.009 203.297 36.509 203.382 35.959 203.382C34.739 203.382 33.804 203.007 33.154 202.257C32.514 201.497 32.194 200.387 32.194 198.927V198.372C32.194 197.192 32.294 196.207 32.494 195.417C32.704 194.627 32.989 193.997 33.349 193.527C33.719 193.057 34.159 192.727 34.669 192.537C35.179 192.337 35.739 192.237 36.349 192.237C36.839 192.237 37.324 192.297 37.804 192.417C38.294 192.537 38.744 192.722 39.154 192.972L38.584 194.232ZM33.709 199.752C33.709 200.452 33.904 201.007 34.294 201.417C34.684 201.827 35.219 202.032 35.899 202.032C36.599 202.032 37.149 201.842 37.549 201.462C37.959 201.082 38.164 200.537 38.164 199.827V199.632C38.164 198.912 37.959 198.367 37.549 197.997C37.139 197.627 36.604 197.442 35.944 197.442C35.614 197.442 35.309 197.497 35.029 197.607C34.759 197.717 34.524 197.867 34.324 198.057C34.134 198.237 33.984 198.457 33.874 198.717C33.764 198.967 33.709 199.242 33.709 199.542V199.752Z" fill="white"/>
<path d="M291.844 170.952V161.877L289.309 163.377L288.604 162.177L292.084 160.137H293.329V170.952H291.844ZM304.495 167.697C304.495 168.097 304.425 168.502 304.285 168.912C304.145 169.312 303.925 169.677 303.625 170.007C303.325 170.337 302.935 170.602 302.455 170.802C301.975 171.012 301.4 171.117 300.73 171.117C299.99 171.117 299.32 171.017 298.72 170.817C298.12 170.627 297.565 170.327 297.055 169.917L297.79 168.732C298.31 169.142 298.805 169.417 299.275 169.557C299.755 169.697 300.25 169.767 300.76 169.767C301.15 169.767 301.485 169.707 301.765 169.587C302.055 169.467 302.29 169.312 302.47 169.122C302.66 168.922 302.795 168.697 302.875 168.447C302.965 168.197 303.01 167.947 303.01 167.697V167.517C303.01 166.797 302.82 166.262 302.44 165.912C302.06 165.552 301.525 165.372 300.835 165.372C300.375 165.372 299.965 165.457 299.605 165.627C299.255 165.797 298.96 165.997 298.72 166.227H297.58L297.925 160.137H303.79V161.412H299.275L299.11 164.787C299.35 164.607 299.655 164.452 300.025 164.322C300.405 164.192 300.82 164.127 301.27 164.127C301.78 164.127 302.235 164.217 302.635 164.397C303.035 164.567 303.37 164.807 303.64 165.117C303.92 165.417 304.13 165.772 304.27 166.182C304.42 166.582 304.495 167.012 304.495 167.472V167.697Z" fill="white"/>
<path d="M248.027 170.952V161.877L245.492 163.377L244.787 162.177L248.267 160.137H249.512V170.952H248.027ZM259.567 164.052V167.367H261.097V168.627H259.567V170.952H258.097V168.627H252.697V167.517L257.782 160.137H259.417L254.437 167.367H258.097V164.052H259.567Z" fill="white"/>
<path d="M204.209 170.952V161.877L201.674 163.377L200.969 162.177L204.449 160.137H205.694V170.952H204.209ZM209.599 161.592C209.759 161.372 209.934 161.162 210.124 160.962C210.324 160.762 210.549 160.592 210.799 160.452C211.059 160.302 211.344 160.187 211.654 160.107C211.974 160.017 212.339 159.972 212.749 159.972C213.249 159.972 213.699 160.037 214.099 160.167C214.499 160.297 214.839 160.482 215.119 160.722C215.409 160.952 215.629 161.237 215.779 161.577C215.939 161.907 216.019 162.272 216.019 162.672V162.822C216.019 163.032 215.994 163.257 215.944 163.497C215.894 163.737 215.804 163.967 215.674 164.187C215.544 164.407 215.369 164.612 215.149 164.802C214.929 164.992 214.654 165.147 214.324 165.267C215.054 165.397 215.599 165.687 215.959 166.137C216.329 166.587 216.514 167.127 216.514 167.757V167.982C216.514 168.382 216.439 168.772 216.289 169.152C216.149 169.522 215.924 169.857 215.614 170.157C215.314 170.447 214.924 170.677 214.444 170.847C213.964 171.027 213.394 171.117 212.734 171.117C212.104 171.117 211.494 171.017 210.904 170.817C210.324 170.627 209.779 170.327 209.269 169.917L210.004 168.732C210.534 169.112 211.004 169.382 211.414 169.542C211.824 169.692 212.264 169.767 212.734 169.767C213.124 169.767 213.464 169.722 213.754 169.632C214.044 169.532 214.284 169.402 214.474 169.242C214.664 169.082 214.804 168.897 214.894 168.687C214.984 168.467 215.029 168.237 215.029 167.997V167.802C215.029 167.442 214.969 167.147 214.849 166.917C214.739 166.677 214.584 166.487 214.384 166.347C214.184 166.207 213.944 166.107 213.664 166.047C213.394 165.987 213.104 165.957 212.794 165.957H211.459V164.667H212.734C213.074 164.667 213.359 164.617 213.589 164.517C213.819 164.407 214.004 164.267 214.144 164.097C214.284 163.927 214.384 163.732 214.444 163.512C214.514 163.292 214.549 163.067 214.549 162.837V162.717C214.549 162.477 214.499 162.272 214.399 162.102C214.309 161.922 214.184 161.772 214.024 161.652C213.864 161.532 213.674 161.442 213.454 161.382C213.234 161.322 213.004 161.292 212.764 161.292C212.314 161.292 211.924 161.377 211.594 161.547C211.264 161.717 210.954 161.992 210.664 162.372L209.599 161.592Z" fill="white"/>
<path d="M160.391 170.952V161.877L157.856 163.377L157.151 162.177L160.631 160.137H161.876V170.952H160.391ZM169.652 165.327C169.962 164.987 170.207 164.692 170.387 164.442C170.567 164.192 170.702 163.972 170.792 163.782C170.882 163.582 170.937 163.407 170.957 163.257C170.987 163.097 171.002 162.947 171.002 162.807V162.687C171.002 162.257 170.832 161.922 170.492 161.682C170.162 161.432 169.712 161.307 169.142 161.307C168.942 161.307 168.737 161.332 168.527 161.382C168.327 161.422 168.127 161.502 167.927 161.622C167.727 161.742 167.532 161.907 167.342 162.117C167.152 162.317 166.967 162.572 166.787 162.882L165.647 162.147C165.777 161.917 165.937 161.677 166.127 161.427C166.317 161.167 166.547 160.932 166.817 160.722C167.097 160.502 167.422 160.322 167.792 160.182C168.172 160.042 168.612 159.972 169.112 159.972C169.662 159.972 170.147 160.042 170.567 160.182C170.987 160.312 171.337 160.497 171.617 160.737C171.907 160.977 172.122 161.267 172.262 161.607C172.412 161.937 172.487 162.297 172.487 162.687V162.837C172.487 163.427 172.332 163.982 172.022 164.502C171.712 165.022 171.312 165.542 170.822 166.062L167.447 169.662H172.877V170.952H165.617V169.707L169.652 165.327Z" fill="white"/>
<path d="M116.51 170.96V161.465L113.9 163.055L113.42 162.215L116.765 160.145H117.56V170.96H116.51ZM125.504 170.96V161.465L122.894 163.055L122.414 162.215L125.759 160.145H126.554V170.96H125.504Z" fill="#585856"/>
<path d="M71.2768 229.839C71.5768 229.489 71.8168 229.189 71.9968 228.939C72.1768 228.689 72.3118 228.469 72.4018 228.279C72.5018 228.079 72.5668 227.904 72.5968 227.754C72.6368 227.604 72.6568 227.459 72.6568 227.319V227.199C72.6568 226.659 72.4768 226.234 72.1168 225.924C71.7668 225.604 71.2618 225.444 70.6018 225.444C70.1218 225.444 69.6718 225.559 69.2518 225.789C68.8318 226.019 68.4468 226.449 68.0968 227.079L67.2568 226.554C67.3868 226.324 67.5468 226.089 67.7368 225.849C67.9268 225.599 68.1568 225.374 68.4268 225.174C68.6968 224.974 69.0068 224.809 69.3568 224.679C69.7168 224.549 70.1218 224.484 70.5718 224.484C71.0518 224.484 71.4868 224.549 71.8768 224.679C72.2668 224.809 72.5968 224.994 72.8668 225.234C73.1368 225.464 73.3468 225.749 73.4968 226.089C73.6468 226.419 73.7218 226.784 73.7218 227.184V227.334C73.7218 227.624 73.6718 227.909 73.5718 228.189C73.4718 228.459 73.3368 228.724 73.1668 228.984C73.0068 229.244 72.8168 229.504 72.5968 229.764C72.3768 230.024 72.1518 230.289 71.9218 230.559L68.5618 234.504H74.1118V235.464H67.2418V234.564L71.2768 229.839ZM82.1309 228.699V232.104H83.7209V233.064H82.1309V235.464H81.0809V233.064H75.6659V232.104L80.9159 224.649H82.1159L76.8809 232.104H81.0809V228.699H82.1309Z" fill="#585856"/>
<path d="M27.4599 229.84C27.7599 229.49 27.9999 229.19 28.1799 228.94C28.3599 228.69 28.4949 228.47 28.5849 228.28C28.6849 228.08 28.7499 227.905 28.7799 227.755C28.8199 227.605 28.8399 227.46 28.8399 227.32V227.2C28.8399 226.66 28.6599 226.235 28.2999 225.925C27.9499 225.605 27.4449 225.445 26.7849 225.445C26.3049 225.445 25.8549 225.56 25.4349 225.79C25.0149 226.02 24.6299 226.45 24.2799 227.08L23.4399 226.555C23.5699 226.325 23.7299 226.09 23.9199 225.85C24.1099 225.6 24.3399 225.375 24.6099 225.175C24.8799 224.975 25.1899 224.81 25.5399 224.68C25.8999 224.55 26.3049 224.485 26.7549 224.485C27.2349 224.485 27.6699 224.55 28.0599 224.68C28.4499 224.81 28.7799 224.995 29.0499 225.235C29.3199 225.465 29.5299 225.75 29.6799 226.09C29.8299 226.42 29.9049 226.785 29.9049 227.185V227.335C29.9049 227.625 29.8549 227.91 29.7549 228.19C29.6549 228.46 29.5199 228.725 29.3499 228.985C29.1899 229.245 28.9999 229.505 28.7799 229.765C28.5599 230.025 28.3349 230.29 28.1049 230.56L24.7449 234.505H30.2949V235.465H23.4249V234.565L27.4599 229.84ZM32.524 226.165C32.654 225.945 32.814 225.735 33.004 225.535C33.194 225.335 33.414 225.16 33.664 225.01C33.924 224.85 34.214 224.725 34.534 224.635C34.864 224.535 35.234 224.485 35.644 224.485C36.134 224.485 36.574 224.55 36.964 224.68C37.364 224.81 37.699 224.995 37.969 225.235C38.249 225.465 38.464 225.75 38.614 226.09C38.764 226.42 38.839 226.785 38.839 227.185V227.335C38.839 227.545 38.809 227.77 38.749 228.01C38.689 228.24 38.589 228.465 38.449 228.685C38.309 228.905 38.119 229.11 37.879 229.3C37.639 229.49 37.339 229.645 36.979 229.765C37.729 229.895 38.294 230.19 38.674 230.65C39.064 231.11 39.259 231.655 39.259 232.285V232.51C39.259 232.9 39.194 233.28 39.064 233.65C38.934 234.02 38.724 234.355 38.434 234.655C38.154 234.945 37.779 235.18 37.309 235.36C36.849 235.54 36.289 235.63 35.629 235.63C34.999 235.63 34.389 235.53 33.799 235.33C33.219 235.14 32.674 234.84 32.164 234.43L32.689 233.59C33.219 233.97 33.714 234.245 34.174 234.415C34.644 234.585 35.129 234.67 35.629 234.67C36.099 234.67 36.499 234.605 36.829 234.475C37.159 234.345 37.424 234.18 37.624 233.98C37.834 233.77 37.984 233.54 38.074 233.29C38.174 233.03 38.224 232.775 38.224 232.525V232.33C38.224 231.92 38.139 231.585 37.969 231.325C37.809 231.055 37.604 230.845 37.354 230.695C37.114 230.535 36.844 230.425 36.544 230.365C36.254 230.305 35.979 230.275 35.719 230.275H34.504V229.375H35.764C36.104 229.375 36.399 229.315 36.649 229.195C36.899 229.065 37.104 228.9 37.264 228.7C37.434 228.5 37.559 228.28 37.639 228.04C37.729 227.79 37.774 227.55 37.774 227.32V227.2C37.774 226.66 37.584 226.235 37.204 225.925C36.834 225.605 36.319 225.445 35.659 225.445C35.229 225.445 34.814 225.535 34.414 225.715C34.014 225.885 33.659 226.215 33.349 226.705L32.524 226.165Z" fill="#585856"/>
<path d="M292.306 197.575C292.606 197.225 292.846 196.925 293.026 196.675C293.206 196.425 293.341 196.205 293.431 196.015C293.531 195.815 293.596 195.64 293.626 195.49C293.666 195.34 293.686 195.195 293.686 195.055V194.935C293.686 194.395 293.506 193.97 293.146 193.66C292.796 193.34 292.291 193.18 291.631 193.18C291.151 193.18 290.701 193.295 290.281 193.525C289.861 193.755 289.476 194.185 289.126 194.815L288.286 194.29C288.416 194.06 288.576 193.825 288.766 193.585C288.956 193.335 289.186 193.11 289.456 192.91C289.726 192.71 290.036 192.545 290.386 192.415C290.746 192.285 291.151 192.22 291.601 192.22C292.081 192.22 292.516 192.285 292.906 192.415C293.296 192.545 293.626 192.73 293.896 192.97C294.166 193.2 294.376 193.485 294.526 193.825C294.676 194.155 294.751 194.52 294.751 194.92V195.07C294.751 195.36 294.701 195.645 294.601 195.925C294.501 196.195 294.366 196.46 294.196 196.72C294.036 196.98 293.846 197.24 293.626 197.5C293.406 197.76 293.181 198.025 292.951 198.295L289.591 202.24H295.141V203.2H288.271V202.3L292.306 197.575ZM301.3 197.575C301.6 197.225 301.84 196.925 302.02 196.675C302.2 196.425 302.335 196.205 302.425 196.015C302.525 195.815 302.59 195.64 302.62 195.49C302.66 195.34 302.68 195.195 302.68 195.055V194.935C302.68 194.395 302.5 193.97 302.14 193.66C301.79 193.34 301.285 193.18 300.625 193.18C300.145 193.18 299.695 193.295 299.275 193.525C298.855 193.755 298.47 194.185 298.12 194.815L297.28 194.29C297.41 194.06 297.57 193.825 297.76 193.585C297.95 193.335 298.18 193.11 298.45 192.91C298.72 192.71 299.03 192.545 299.38 192.415C299.74 192.285 300.145 192.22 300.595 192.22C301.075 192.22 301.51 192.285 301.9 192.415C302.29 192.545 302.62 192.73 302.89 192.97C303.16 193.2 303.37 193.485 303.52 193.825C303.67 194.155 303.745 194.52 303.745 194.92V195.07C303.745 195.36 303.695 195.645 303.595 195.925C303.495 196.195 303.36 196.46 303.19 196.72C303.03 196.98 302.84 197.24 302.62 197.5C302.4 197.76 302.175 198.025 301.945 198.295L298.585 202.24H304.135V203.2H297.265V202.3L301.3 197.575Z" fill="#585856"/>
<path d="M248.488 197.575C248.788 197.225 249.028 196.925 249.208 196.675C249.388 196.425 249.523 196.205 249.613 196.015C249.713 195.815 249.778 195.64 249.808 195.49C249.848 195.34 249.868 195.195 249.868 195.055V194.935C249.868 194.395 249.688 193.97 249.328 193.66C248.978 193.34 248.473 193.18 247.813 193.18C247.333 193.18 246.883 193.295 246.463 193.525C246.043 193.755 245.658 194.185 245.308 194.815L244.468 194.29C244.598 194.06 244.758 193.825 244.948 193.585C245.138 193.335 245.368 193.11 245.638 192.91C245.908 192.71 246.218 192.545 246.568 192.415C246.928 192.285 247.333 192.22 247.783 192.22C248.263 192.22 248.698 192.285 249.088 192.415C249.478 192.545 249.808 192.73 250.078 192.97C250.348 193.2 250.558 193.485 250.708 193.825C250.858 194.155 250.933 194.52 250.933 194.92V195.07C250.933 195.36 250.883 195.645 250.783 195.925C250.683 196.195 250.548 196.46 250.378 196.72C250.218 196.98 250.028 197.24 249.808 197.5C249.588 197.76 249.363 198.025 249.133 198.295L245.773 202.24H251.323V203.2H244.453V202.3L248.488 197.575ZM256.957 203.2V193.705L254.347 195.295L253.867 194.455L257.212 192.385H258.007V203.2H256.957Z" fill="#585856"/>
<path d="M204.67 197.575C204.97 197.225 205.21 196.925 205.39 196.675C205.57 196.425 205.705 196.205 205.795 196.015C205.895 195.815 205.96 195.64 205.99 195.49C206.03 195.34 206.05 195.195 206.05 195.055V194.935C206.05 194.395 205.87 193.97 205.51 193.66C205.16 193.34 204.655 193.18 203.995 193.18C203.515 193.18 203.065 193.295 202.645 193.525C202.225 193.755 201.84 194.185 201.49 194.815L200.65 194.29C200.78 194.06 200.94 193.825 201.13 193.585C201.32 193.335 201.55 193.11 201.82 192.91C202.09 192.71 202.4 192.545 202.75 192.415C203.11 192.285 203.515 192.22 203.965 192.22C204.445 192.22 204.88 192.285 205.27 192.415C205.66 192.545 205.99 192.73 206.26 192.97C206.53 193.2 206.74 193.485 206.89 193.825C207.04 194.155 207.115 194.52 207.115 194.92V195.07C207.115 195.36 207.065 195.645 206.965 195.925C206.865 196.195 206.73 196.46 206.56 196.72C206.4 196.98 206.21 197.24 205.99 197.5C205.77 197.76 205.545 198.025 205.315 198.295L201.955 202.24H207.505V203.2H200.635V202.3L204.67 197.575ZM216.649 198.625C216.649 200.155 216.359 201.33 215.779 202.15C215.199 202.96 214.259 203.365 212.959 203.365C211.679 203.365 210.749 202.955 210.169 202.135C209.589 201.315 209.299 200.145 209.299 198.625V196.945C209.299 195.435 209.594 194.27 210.184 193.45C210.774 192.63 211.699 192.22 212.959 192.22C214.239 192.22 215.174 192.63 215.764 193.45C216.354 194.26 216.649 195.425 216.649 196.945V198.625ZM215.569 196.93C215.569 195.59 215.349 194.63 214.909 194.05C214.479 193.46 213.829 193.165 212.959 193.165C212.129 193.165 211.489 193.46 211.039 194.05C210.599 194.64 210.379 195.6 210.379 196.93V198.64C210.379 199.98 210.599 200.945 211.039 201.535C211.489 202.125 212.129 202.42 212.959 202.42C213.819 202.42 214.469 202.13 214.909 201.55C215.349 200.96 215.569 199.99 215.569 198.64V196.93Z" fill="#585856"/>
<path d="M160.328 203.2V193.705L157.718 195.295L157.238 194.455L160.583 192.385H161.378V203.2H160.328ZM166.383 201.745C166.723 201.945 167.088 202.105 167.478 202.225C167.868 202.345 168.278 202.405 168.708 202.405C169.258 202.405 169.718 202.305 170.088 202.105C170.458 201.895 170.753 201.595 170.973 201.205C171.193 200.815 171.353 200.34 171.453 199.78C171.553 199.22 171.613 198.59 171.633 197.89C171.553 198.05 171.438 198.22 171.288 198.4C171.138 198.58 170.948 198.75 170.718 198.91C170.498 199.06 170.233 199.19 169.923 199.3C169.623 199.4 169.283 199.45 168.903 199.45C168.443 199.45 168.003 199.375 167.583 199.225C167.173 199.065 166.808 198.84 166.488 198.55C166.178 198.26 165.928 197.91 165.738 197.5C165.558 197.08 165.468 196.605 165.468 196.075V195.715C165.468 195.185 165.558 194.705 165.738 194.275C165.918 193.845 166.163 193.48 166.473 193.18C166.793 192.87 167.168 192.635 167.598 192.475C168.038 192.305 168.508 192.22 169.008 192.22C169.508 192.22 169.978 192.31 170.418 192.49C170.868 192.66 171.258 192.93 171.588 193.3C171.918 193.66 172.178 194.12 172.368 194.68C172.568 195.23 172.668 195.88 172.668 196.63V197.08C172.668 198.27 172.583 199.27 172.413 200.08C172.253 200.88 172.008 201.525 171.678 202.015C171.348 202.505 170.933 202.85 170.433 203.05C169.933 203.26 169.348 203.365 168.678 203.365C168.188 203.365 167.713 203.3 167.253 203.17C166.793 203.04 166.358 202.86 165.948 202.63L166.383 201.745ZM171.528 195.925C171.528 195.525 171.468 195.155 171.348 194.815C171.228 194.475 171.058 194.185 170.838 193.945C170.618 193.695 170.353 193.505 170.043 193.375C169.743 193.235 169.408 193.165 169.038 193.165C168.668 193.165 168.328 193.225 168.018 193.345C167.708 193.465 167.438 193.635 167.208 193.855C166.988 194.075 166.813 194.35 166.683 194.68C166.563 195 166.503 195.36 166.503 195.76V195.985C166.503 196.395 166.573 196.76 166.713 197.08C166.853 197.39 167.038 197.655 167.268 197.875C167.498 198.085 167.763 198.25 168.063 198.37C168.373 198.48 168.693 198.535 169.023 198.535C169.333 198.535 169.638 198.475 169.938 198.355C170.248 198.235 170.518 198.065 170.748 197.845C170.978 197.625 171.163 197.37 171.303 197.08C171.453 196.79 171.528 196.47 171.528 196.12V195.925Z" fill="#585856"/>
<path d="M116.574 203.212V194.137L114.039 195.637L113.334 194.437L116.814 192.397H118.059V203.212H116.574ZM123.615 195.337C123.615 195.877 123.785 196.297 124.125 196.597C124.475 196.897 124.905 197.047 125.415 197.047C125.925 197.047 126.35 196.897 126.69 196.597C127.04 196.297 127.215 195.877 127.215 195.337V195.172C127.215 194.662 127.05 194.262 126.72 193.972C126.39 193.682 125.955 193.537 125.415 193.537C124.875 193.537 124.44 193.682 124.11 193.972C123.78 194.262 123.615 194.662 123.615 195.172V195.337ZM123.33 200.332C123.33 200.842 123.515 201.257 123.885 201.577C124.265 201.887 124.78 202.042 125.43 202.042C126.08 202.042 126.585 201.887 126.945 201.577C127.315 201.257 127.5 200.842 127.5 200.332V200.167C127.5 199.577 127.305 199.127 126.915 198.817C126.525 198.507 126.03 198.352 125.43 198.352C125.14 198.352 124.865 198.392 124.605 198.472C124.355 198.542 124.135 198.657 123.945 198.817C123.755 198.967 123.605 199.157 123.495 199.387C123.385 199.607 123.33 199.867 123.33 200.167V200.332ZM121.8 200.152C121.8 199.852 121.845 199.572 121.935 199.312C122.035 199.042 122.17 198.802 122.34 198.592C122.51 198.372 122.705 198.182 122.925 198.022C123.155 197.862 123.4 197.742 123.66 197.662C123.14 197.412 122.75 197.067 122.49 196.627C122.24 196.187 122.115 195.737 122.115 195.277V195.067C122.115 194.677 122.185 194.312 122.325 193.972C122.475 193.632 122.69 193.332 122.97 193.072C123.25 192.812 123.595 192.607 124.005 192.457C124.415 192.307 124.885 192.232 125.415 192.232C125.935 192.232 126.4 192.307 126.81 192.457C127.22 192.607 127.565 192.812 127.845 193.072C128.125 193.332 128.34 193.632 128.49 193.972C128.64 194.312 128.715 194.677 128.715 195.067V195.277C128.715 195.737 128.59 196.182 128.34 196.612C128.09 197.042 127.7 197.392 127.17 197.662C127.7 197.822 128.14 198.127 128.49 198.577C128.85 199.027 129.03 199.552 129.03 200.152V200.407C129.03 200.837 128.945 201.237 128.775 201.607C128.615 201.967 128.38 202.277 128.07 202.537C127.76 202.797 127.38 203.002 126.93 203.152C126.49 203.302 125.985 203.377 125.415 203.377C124.845 203.377 124.335 203.302 123.885 203.152C123.445 203.002 123.07 202.797 122.76 202.537C122.45 202.277 122.21 201.967 122.04 201.607C121.88 201.237 121.8 200.837 121.8 200.407V200.152Z" fill="white"/>
<path d="M117.818 229.839C118.118 229.489 118.358 229.189 118.538 228.939C118.718 228.689 118.853 228.469 118.943 228.279C119.043 228.079 119.108 227.904 119.138 227.754C119.178 227.604 119.198 227.459 119.198 227.319V227.199C119.198 226.659 119.018 226.234 118.658 225.924C118.308 225.604 117.803 225.444 117.143 225.444C116.663 225.444 116.213 225.559 115.793 225.789C115.373 226.019 114.988 226.449 114.638 227.079L113.798 226.554C113.928 226.324 114.088 226.089 114.278 225.849C114.468 225.599 114.698 225.374 114.968 225.174C115.238 224.974 115.548 224.809 115.898 224.679C116.258 224.549 116.663 224.484 117.113 224.484C117.593 224.484 118.028 224.549 118.418 224.679C118.808 224.809 119.138 224.994 119.408 225.234C119.678 225.464 119.888 225.749 120.038 226.089C120.188 226.419 120.263 226.784 120.263 227.184V227.334C120.263 227.624 120.213 227.909 120.113 228.189C120.013 228.459 119.878 228.724 119.708 228.984C119.548 229.244 119.358 229.504 119.138 229.764C118.918 230.024 118.693 230.289 118.463 230.559L115.103 234.504H120.653V235.464H113.783V234.564L117.818 229.839ZM128.747 232.209C128.747 231.339 128.532 230.709 128.102 230.319C127.682 229.919 127.082 229.719 126.302 229.719C125.842 229.719 125.432 229.804 125.072 229.974C124.712 230.144 124.412 230.344 124.172 230.574H123.182L123.527 224.649H129.092V225.609H124.457L124.292 229.539C124.532 229.309 124.857 229.124 125.267 228.984C125.677 228.844 126.107 228.774 126.557 228.774C127.087 228.774 127.552 228.864 127.952 229.044C128.362 229.214 128.702 229.449 128.972 229.749C129.242 230.049 129.442 230.409 129.572 230.829C129.712 231.239 129.782 231.684 129.782 232.164V232.389C129.782 232.779 129.717 233.169 129.587 233.559C129.457 233.939 129.247 234.284 128.957 234.594C128.677 234.894 128.302 235.139 127.832 235.329C127.362 235.529 126.792 235.629 126.122 235.629C125.382 235.629 124.732 235.519 124.172 235.299C123.612 235.089 123.092 234.799 122.612 234.429L123.152 233.574C123.672 233.974 124.167 234.259 124.637 234.429C125.117 234.589 125.612 234.669 126.122 234.669C126.602 234.669 127.007 234.599 127.337 234.459C127.677 234.309 127.952 234.124 128.162 233.904C128.372 233.684 128.522 233.444 128.612 233.184C128.702 232.914 128.747 232.654 128.747 232.404V232.209Z" fill="#585856"/>
<path d="M161.635 229.822C161.935 229.472 162.175 229.172 162.355 228.922C162.535 228.672 162.67 228.452 162.76 228.262C162.86 228.062 162.925 227.887 162.955 227.737C162.995 227.587 163.015 227.442 163.015 227.302V227.182C163.015 226.642 162.835 226.217 162.475 225.907C162.125 225.587 161.62 225.427 160.96 225.427C160.48 225.427 160.03 225.542 159.61 225.772C159.19 226.002 158.805 226.432 158.455 227.062L157.615 226.537C157.745 226.307 157.905 226.072 158.095 225.832C158.285 225.582 158.515 225.357 158.785 225.157C159.055 224.957 159.365 224.792 159.715 224.662C160.075 224.532 160.48 224.467 160.93 224.467C161.41 224.467 161.845 224.532 162.235 224.662C162.625 224.792 162.955 224.977 163.225 225.217C163.495 225.447 163.705 225.732 163.855 226.072C164.005 226.402 164.08 226.767 164.08 227.167V227.317C164.08 227.607 164.03 227.892 163.93 228.172C163.83 228.442 163.695 228.707 163.525 228.967C163.365 229.227 163.175 229.487 162.955 229.747C162.735 230.007 162.51 230.272 162.28 230.542L158.92 234.487H164.47V235.447H157.6V234.547L161.635 229.822ZM172.684 226.057C172.344 225.857 171.979 225.702 171.589 225.592C171.209 225.472 170.809 225.412 170.389 225.412C169.879 225.412 169.449 225.517 169.099 225.727C168.749 225.927 168.459 226.222 168.229 226.612C167.999 227.002 167.824 227.482 167.704 228.052C167.584 228.612 167.504 229.252 167.464 229.972C167.544 229.812 167.659 229.642 167.809 229.462C167.969 229.282 168.159 229.117 168.379 228.967C168.609 228.817 168.874 228.697 169.174 228.607C169.474 228.507 169.814 228.457 170.194 228.457C170.654 228.457 171.089 228.532 171.499 228.682C171.919 228.832 172.284 229.052 172.594 229.342C172.914 229.622 173.164 229.972 173.344 230.392C173.534 230.802 173.629 231.272 173.629 231.802V232.162C173.629 232.692 173.539 233.172 173.359 233.602C173.179 234.022 172.929 234.382 172.609 234.682C172.299 234.982 171.924 235.212 171.484 235.372C171.054 235.532 170.589 235.612 170.089 235.612C169.579 235.612 169.099 235.522 168.649 235.342C168.209 235.172 167.824 234.907 167.494 234.547C167.164 234.187 166.904 233.732 166.714 233.182C166.524 232.622 166.429 231.967 166.429 231.217V230.857C166.429 229.697 166.519 228.712 166.699 227.902C166.889 227.092 167.154 226.432 167.494 225.922C167.834 225.412 168.249 225.042 168.739 224.812C169.229 224.582 169.784 224.467 170.404 224.467C170.894 224.467 171.374 224.532 171.844 224.662C172.324 224.792 172.769 224.972 173.179 225.202L172.684 226.057ZM167.569 231.952C167.569 232.362 167.629 232.732 167.749 233.062C167.869 233.392 168.039 233.677 168.259 233.917C168.479 234.157 168.739 234.342 169.039 234.472C169.349 234.602 169.689 234.667 170.059 234.667C170.429 234.667 170.769 234.612 171.079 234.502C171.389 234.382 171.654 234.217 171.874 234.007C172.104 233.787 172.279 233.522 172.399 233.212C172.529 232.892 172.594 232.527 172.594 232.117V231.892C172.594 231.492 172.524 231.137 172.384 230.827C172.244 230.507 172.059 230.242 171.829 230.032C171.599 229.812 171.329 229.647 171.019 229.537C170.719 229.427 170.404 229.372 170.074 229.372C169.754 229.372 169.444 229.432 169.144 229.552C168.844 229.672 168.579 229.837 168.349 230.047C168.119 230.257 167.929 230.512 167.779 230.812C167.639 231.102 167.569 231.417 167.569 231.757V231.952Z" fill="#585856"/>
<path d="M27.8373 70.4299C28.2933 70.4299 28.6973 70.4939 29.0493 70.6219C29.4013 70.7419 29.6933 70.9139 29.9253 71.1379C30.1573 71.3539 30.3333 71.6139 30.4533 71.9179C30.5733 72.2139 30.6333 72.5379 30.6333 72.8899C30.6333 73.2419 30.5733 73.5699 30.4533 73.8739C30.3333 74.1779 30.1573 74.4419 29.9253 74.6659C29.6933 74.8819 29.4013 75.0539 29.0493 75.1819C28.6973 75.3019 28.2933 75.3619 27.8373 75.3619C27.3813 75.3619 26.9773 75.3019 26.6253 75.1819C26.2733 75.0539 25.9813 74.8819 25.7493 74.6659C25.5173 74.4419 25.3413 74.1779 25.2213 73.8739C25.1013 73.5699 25.0413 73.2419 25.0413 72.8899C25.0413 72.5379 25.1013 72.2139 25.2213 71.9179C25.3413 71.6139 25.5173 71.3539 25.7493 71.1379C25.9813 70.9139 26.2733 70.7419 26.6253 70.6219C26.9773 70.4939 27.3813 70.4299 27.8373 70.4299ZM27.8373 71.4139C27.5493 71.4139 27.3013 71.4539 27.0933 71.5339C26.8853 71.6139 26.7133 71.7219 26.5773 71.8579C26.4493 71.9939 26.3533 72.1499 26.2893 72.3259C26.2253 72.5019 26.1933 72.6899 26.1933 72.8899C26.1933 73.0899 26.2253 73.2819 26.2893 73.4659C26.3533 73.6419 26.4493 73.7979 26.5773 73.9339C26.7133 74.0699 26.8853 74.1779 27.0933 74.2579C27.3013 74.3379 27.5493 74.3779 27.8373 74.3779C28.1253 74.3779 28.3733 74.3379 28.5813 74.2579C28.7893 74.1779 28.9573 74.0699 29.0853 73.9339C29.2213 73.7979 29.3213 73.6419 29.3853 73.4659C29.4493 73.2819 29.4813 73.0899 29.4813 72.8899C29.4813 72.6899 29.4493 72.5019 29.3853 72.3259C29.3213 72.1499 29.2213 71.9939 29.0853 71.8579C28.9573 71.7219 28.7893 71.6139 28.5813 71.5339C28.3733 71.4539 28.1253 71.4139 27.8373 71.4139ZM33.0693 70.1059C33.2293 70.1059 33.3693 70.1459 33.4893 70.2259C33.6093 70.3059 33.6693 70.4339 33.6693 70.6099V75.2659C33.6693 75.4419 33.6093 75.5699 33.4893 75.6499C33.3693 75.7299 33.2293 75.7699 33.0693 75.7699C32.9093 75.7699 32.7693 75.7299 32.6493 75.6499C32.5293 75.5699 32.4693 75.4419 32.4693 75.2659V70.6099C32.4693 70.4339 32.5293 70.3059 32.6493 70.2259C32.7693 70.1459 32.9093 70.1059 33.0693 70.1059ZM32.7453 76.2859C33.0973 76.2859 33.3373 76.3499 33.4653 76.4779C33.6013 76.6059 33.6693 76.8419 33.6693 77.1859V78.2899C33.6693 78.6339 33.6013 78.8699 33.4653 78.9979C33.3373 79.1259 33.0973 79.1899 32.7453 79.1899H28.1013C28.0133 79.1899 27.9493 79.2099 27.9093 79.2499C27.8693 79.2819 27.8493 79.3459 27.8493 79.4419V79.9579C27.8493 80.1259 27.9333 80.2099 28.1013 80.2099H33.5373C33.6733 80.2099 33.7733 80.2579 33.8373 80.3539C33.9013 80.4499 33.9333 80.5619 33.9333 80.6899C33.9333 80.8179 33.9013 80.9299 33.8373 81.0259C33.7733 81.1219 33.6733 81.1699 33.5373 81.1699H27.6093C27.2573 81.1699 27.0133 81.1059 26.8773 80.9779C26.7493 80.8499 26.6853 80.6139 26.6853 80.2699V79.1659C26.6853 78.8219 26.7493 78.5859 26.8773 78.4579C27.0133 78.3299 27.2573 78.2659 27.6093 78.2659H32.2413C32.3373 78.2659 32.4013 78.2499 32.4333 78.2179C32.4733 78.1779 32.4933 78.1099 32.4933 78.0139V77.4979C32.4933 77.4099 32.4733 77.3499 32.4333 77.3179C32.4013 77.2779 32.3373 77.2579 32.2413 77.2579H27.0573C26.9213 77.2579 26.8213 77.2099 26.7573 77.1139C26.6933 77.0179 26.6613 76.9019 26.6613 76.7659C26.6613 76.6379 26.6933 76.5259 26.7573 76.4299C26.8213 76.3339 26.9213 76.2859 27.0573 76.2859H32.7453Z" fill="#E58A97"/>
<path d="M72.2062 70.1419C73.1582 70.1419 73.8662 70.2939 74.3302 70.5979C74.8022 70.8939 75.0382 71.3059 75.0382 71.8339C75.0382 72.3539 74.8022 72.7659 74.3302 73.0699C73.8662 73.3739 73.1582 73.5259 72.2062 73.5259C71.2542 73.5259 70.5462 73.3739 70.0822 73.0699C69.6182 72.7659 69.3862 72.3539 69.3862 71.8339C69.3862 71.3059 69.6182 70.8939 70.0822 70.5979C70.5462 70.2939 71.2542 70.1419 72.2062 70.1419ZM72.2062 71.0539C71.6222 71.0539 71.1942 71.1219 70.9222 71.2579C70.6502 71.3939 70.5142 71.5859 70.5142 71.8339C70.5142 72.0739 70.6502 72.2619 70.9222 72.3979C71.1942 72.5339 71.6222 72.6019 72.2062 72.6019C72.7982 72.6019 73.2302 72.5339 73.5022 72.3979C73.7742 72.2619 73.9102 72.0739 73.9102 71.8339C73.9102 71.5859 73.7742 71.3939 73.5022 71.2579C73.2302 71.1219 72.7982 71.0539 72.2062 71.0539ZM77.1022 70.1059C77.2622 70.1059 77.4022 70.1459 77.5222 70.2259C77.6422 70.3059 77.7022 70.4339 77.7022 70.6099V76.3219C77.7022 76.4819 77.6422 76.6019 77.5222 76.6819C77.4102 76.7539 77.2702 76.7899 77.1022 76.7899C76.9422 76.7899 76.8022 76.7539 76.6822 76.6819C76.5702 76.6019 76.5142 76.4819 76.5142 76.3219H74.5582C74.4382 76.3219 74.3462 76.2779 74.2822 76.1899C74.2182 76.0939 74.1862 75.9899 74.1862 75.8779C74.1862 75.7499 74.2182 75.6419 74.2822 75.5539C74.3462 75.4659 74.4382 75.4219 74.5582 75.4219H76.5142V70.6099C76.5142 70.4339 76.5742 70.3059 76.6942 70.2259C76.8142 70.1459 76.9502 70.1059 77.1022 70.1059ZM75.4222 73.8739C75.5582 73.8579 75.6662 73.8899 75.7462 73.9699C75.8262 74.0499 75.8702 74.1539 75.8782 74.2819C75.8942 74.4179 75.8702 74.5379 75.8062 74.6419C75.7502 74.7459 75.6542 74.8059 75.5182 74.8219C75.1022 74.8779 74.6542 74.9259 74.1742 74.9659C73.7022 74.9979 73.2062 75.0259 72.6862 75.0499V76.1899C72.6862 76.3499 72.6262 76.4659 72.5062 76.5379C72.3942 76.6099 72.2542 76.6459 72.0862 76.6459C71.9262 76.6459 71.7862 76.6099 71.6662 76.5379C71.5542 76.4659 71.4982 76.3499 71.4982 76.1899V75.0859C70.6582 75.1099 69.8222 75.1219 68.9902 75.1219C68.8542 75.1219 68.7502 75.0779 68.6782 74.9899C68.6142 74.8939 68.5822 74.7779 68.5822 74.6419C68.5822 74.5139 68.6142 74.4059 68.6782 74.3179C68.7502 74.2219 68.8542 74.1739 68.9902 74.1739C70.0062 74.1739 71.0622 74.1579 72.1582 74.1259C73.2622 74.0939 74.3502 74.0099 75.4222 73.8739ZM76.7782 77.1739C77.1302 77.1739 77.3702 77.2379 77.4982 77.3659C77.6342 77.4939 77.7022 77.7299 77.7022 78.0739V78.7219C77.7022 79.0659 77.6342 79.3019 77.4982 79.4299C77.3702 79.5499 77.1302 79.6099 76.7782 79.6099H71.6902C71.5782 79.6099 71.5222 79.6659 71.5222 79.7779V80.1259C71.5222 80.2299 71.5782 80.2819 71.6902 80.2819H77.5822C77.7182 80.2819 77.8142 80.3259 77.8702 80.4139C77.9342 80.5099 77.9662 80.6139 77.9662 80.7259C77.9662 80.8539 77.9342 80.9619 77.8702 81.0499C77.8142 81.1459 77.7182 81.1939 77.5822 81.1939H71.2942C70.9422 81.1939 70.6982 81.1299 70.5622 81.0019C70.4342 80.8739 70.3702 80.6379 70.3702 80.2939V79.6579C70.3702 79.3139 70.4342 79.0779 70.5622 78.9499C70.6982 78.8219 70.9422 78.7579 71.2942 78.7579H76.3822C76.4942 78.7579 76.5502 78.7019 76.5502 78.5899V78.2539C76.5502 78.1419 76.4942 78.0859 76.3822 78.0859H70.7302C70.5942 78.0859 70.4942 78.0419 70.4302 77.9539C70.3742 77.8579 70.3462 77.7499 70.3462 77.6299C70.3462 77.5179 70.3742 77.4139 70.4302 77.3179C70.4942 77.2219 70.5942 77.1739 70.7302 77.1739H76.7782Z" fill="#E58A97"/>
<path d="M115.712 72.9739C116.52 72.9739 117.148 73.1419 117.596 73.4779C118.052 73.8059 118.28 74.2539 118.28 74.8219C118.28 75.3899 118.052 75.8419 117.596 76.1779C117.148 76.5059 116.52 76.6699 115.712 76.6699C114.904 76.6699 114.272 76.5059 113.816 76.1779C113.368 75.8419 113.144 75.3899 113.144 74.8219C113.144 74.2539 113.368 73.8059 113.816 73.4779C114.272 73.1419 114.904 72.9739 115.712 72.9739ZM115.712 73.8979C115.208 73.8979 114.836 73.9859 114.596 74.1619C114.356 74.3299 114.236 74.5499 114.236 74.8219C114.236 75.0859 114.356 75.3059 114.596 75.4819C114.836 75.6579 115.208 75.7459 115.712 75.7459C116.216 75.7459 116.588 75.6579 116.828 75.4819C117.068 75.3059 117.188 75.0859 117.188 74.8219C117.188 74.5499 117.068 74.3299 116.828 74.1619C116.588 73.9859 116.216 73.8979 115.712 73.8979ZM115.712 70.1419C115.872 70.1419 116.012 70.1819 116.132 70.2619C116.252 70.3419 116.312 70.4699 116.312 70.6459V71.3419H118.472C118.616 71.3419 118.72 71.3939 118.784 71.4979C118.856 71.6019 118.892 71.7219 118.892 71.8579C118.892 71.9939 118.856 72.1139 118.784 72.2179C118.72 72.3139 118.616 72.3619 118.472 72.3619H112.844C112.7 72.3619 112.592 72.3139 112.52 72.2179C112.456 72.1139 112.424 71.9939 112.424 71.8579C112.424 71.7219 112.456 71.6019 112.52 71.4979C112.592 71.3939 112.7 71.3419 112.844 71.3419H115.112V70.6459C115.112 70.4699 115.172 70.3419 115.292 70.2619C115.42 70.1819 115.56 70.1419 115.712 70.1419ZM120.392 70.1059C120.552 70.1059 120.692 70.1459 120.812 70.2259C120.932 70.3059 120.992 70.4299 120.992 70.5979V74.0899H122.156C122.316 74.0899 122.428 74.1419 122.492 74.2459C122.564 74.3419 122.6 74.4619 122.6 74.6059C122.6 74.7499 122.564 74.8739 122.492 74.9779C122.428 75.0819 122.316 75.1339 122.156 75.1339H120.992V79.9819C120.992 80.1499 120.932 80.2739 120.812 80.3539C120.692 80.4339 120.552 80.4739 120.392 80.4739C120.24 80.4739 120.104 80.4339 119.984 80.3539C119.864 80.2739 119.804 80.1499 119.804 79.9819V70.5979C119.804 70.4299 119.864 70.3059 119.984 70.2259C120.104 70.1459 120.24 70.1059 120.392 70.1059ZM118.76 77.6179C118.896 77.6019 119 77.6379 119.072 77.7259C119.144 77.8139 119.188 77.9259 119.204 78.0619C119.22 78.1979 119.196 78.3179 119.132 78.4219C119.076 78.5259 118.98 78.5859 118.844 78.6019C117.924 78.6899 116.94 78.7499 115.892 78.7819C114.852 78.8139 113.772 78.8299 112.652 78.8299C112.508 78.8299 112.4 78.7779 112.328 78.6739C112.264 78.5699 112.232 78.4499 112.232 78.3139C112.232 78.1779 112.264 78.0619 112.328 77.9659C112.4 77.8699 112.508 77.8219 112.652 77.8219C113.06 77.8219 113.468 77.8219 113.876 77.8219C114.292 77.8219 114.708 77.8179 115.124 77.8099V76.1779H116.3V77.7739C116.708 77.7579 117.112 77.7379 117.512 77.7139C117.92 77.6899 118.336 77.6579 118.76 77.6179Z" fill="#E58A97"/>
<path d="M161.113 70.3819C161.273 70.3819 161.413 70.4219 161.533 70.5019C161.661 70.5819 161.725 70.7139 161.725 70.8979V71.4979C161.725 71.8819 161.821 72.2099 162.013 72.4819C162.205 72.7539 162.493 72.9939 162.877 73.2019C163.285 73.4179 163.669 73.6139 164.029 73.7899C164.389 73.9659 164.737 74.1339 165.073 74.2939C165.209 74.3579 165.285 74.4659 165.301 74.6179C165.325 74.7619 165.309 74.8899 165.253 75.0019C165.189 75.1299 165.093 75.2219 164.965 75.2779C164.845 75.3339 164.713 75.3299 164.569 75.2659C163.793 74.9059 163.053 74.5419 162.349 74.1739C161.933 73.9499 161.633 73.7419 161.449 73.5499C161.265 73.3579 161.157 73.1899 161.125 73.0459H161.113C161.073 73.2059 160.961 73.3819 160.777 73.5739C160.593 73.7659 160.293 73.9739 159.877 74.1979C159.173 74.5659 158.433 74.9299 157.657 75.2899C157.521 75.3539 157.389 75.3579 157.261 75.3019C157.133 75.2459 157.037 75.1499 156.973 75.0139C156.909 74.8939 156.889 74.7619 156.913 74.6179C156.937 74.4659 157.017 74.3579 157.153 74.2939C157.489 74.1339 157.837 73.9659 158.197 73.7899C158.557 73.6139 158.941 73.4179 159.349 73.2019C159.733 72.9939 160.021 72.7539 160.213 72.4819C160.405 72.2099 160.501 71.8819 160.501 71.4979V70.8979C160.501 70.7139 160.561 70.5819 160.681 70.5019C160.809 70.4219 160.953 70.3819 161.113 70.3819ZM165.733 76.4179C165.877 76.4179 165.981 76.4699 166.045 76.5739C166.117 76.6779 166.153 76.7979 166.153 76.9339C166.153 77.0699 166.117 77.1899 166.045 77.2939C165.981 77.3899 165.877 77.4379 165.733 77.4379H161.713V80.8099C161.713 80.9859 161.653 81.1139 161.533 81.1939C161.413 81.2739 161.273 81.3139 161.113 81.3139C160.953 81.3139 160.813 81.2739 160.693 81.1939C160.573 81.1139 160.513 80.9859 160.513 80.8099V77.4379H156.493C156.349 77.4379 156.241 77.3899 156.169 77.2939C156.105 77.1899 156.073 77.0699 156.073 76.9339C156.073 76.7979 156.105 76.6779 156.169 76.5739C156.241 76.4699 156.349 76.4179 156.493 76.4179H165.733Z" fill="#E58A97"/>
<path d="M207.667 70.4779C208.019 70.4779 208.259 70.5419 208.387 70.6699C208.523 70.7979 208.591 71.0339 208.591 71.3779V73.5259C208.591 73.8699 208.523 74.1059 208.387 74.2339C208.259 74.3619 208.019 74.4259 207.667 74.4259H202.195C201.843 74.4259 201.603 74.3619 201.475 74.2339C201.347 74.1059 201.283 73.8699 201.283 73.5259V71.3779C201.283 71.0339 201.347 70.7979 201.475 70.6699C201.603 70.5419 201.843 70.4779 202.195 70.4779H207.667ZM202.723 71.4739C202.627 71.4739 202.559 71.4939 202.519 71.5339C202.487 71.5659 202.471 71.6259 202.471 71.7139V73.1899C202.471 73.2779 202.487 73.3419 202.519 73.3819C202.559 73.4139 202.627 73.4299 202.723 73.4299H207.139C207.235 73.4299 207.299 73.4139 207.331 73.3819C207.371 73.3419 207.391 73.2779 207.391 73.1899V71.7139C207.391 71.6259 207.371 71.5659 207.331 71.5339C207.299 71.4939 207.235 71.4739 207.139 71.4739H202.723ZM205.519 75.6259H209.563C209.699 75.6259 209.799 75.6779 209.863 75.7819C209.935 75.8779 209.971 75.9939 209.971 76.1299C209.971 76.2659 209.935 76.3859 209.863 76.4899C209.799 76.5859 209.699 76.6339 209.563 76.6339H200.299C200.163 76.6339 200.059 76.5859 199.987 76.4899C199.923 76.3859 199.891 76.2659 199.891 76.1299C199.891 75.9939 199.923 75.8779 199.987 75.7819C200.059 75.6779 200.163 75.6259 200.299 75.6259H204.343V73.9339H205.519V75.6259ZM207.691 77.5699C208.043 77.5699 208.283 77.6339 208.411 77.7619C208.547 77.8899 208.615 78.1259 208.615 78.4699V80.8099C208.615 80.9859 208.551 81.1139 208.423 81.1939C208.303 81.2739 208.163 81.3139 208.003 81.3139C207.851 81.3139 207.715 81.2739 207.595 81.1939C207.475 81.1139 207.415 80.9859 207.415 80.8099V78.8299C207.415 78.7339 207.395 78.6699 207.355 78.6379C207.315 78.5979 207.251 78.5779 207.163 78.5779H201.523C201.379 78.5779 201.275 78.5299 201.211 78.4339C201.147 78.3299 201.115 78.2099 201.115 78.0739C201.115 77.9379 201.147 77.8219 201.211 77.7259C201.275 77.6219 201.379 77.5699 201.523 77.5699H207.691Z" fill="#E58A97"/>
<path d="M251.389 70.5499C251.741 70.5499 251.981 70.6139 252.109 70.7419C252.245 70.8699 252.313 71.1059 252.313 71.4499V72.1579C252.313 72.4379 252.297 72.7179 252.265 72.9979C252.241 73.2779 252.205 73.5499 252.157 73.8139C252.117 74.0699 252.065 74.3099 252.001 74.5339C251.945 74.7579 251.885 74.9539 251.821 75.1219L250.741 74.8939C250.989 74.0459 251.113 73.1619 251.113 72.2419V71.8339C251.113 71.7459 251.093 71.6859 251.053 71.6539C251.021 71.6139 250.957 71.5939 250.861 71.5939H245.389C245.245 71.5939 245.141 71.5419 245.077 71.4379C245.013 71.3339 244.981 71.2139 244.981 71.0779C244.981 70.9339 245.013 70.8099 245.077 70.7059C245.141 70.6019 245.245 70.5499 245.389 70.5499H251.389ZM253.369 74.5699C253.513 74.5699 253.617 74.6219 253.681 74.7259C253.753 74.8299 253.789 74.9499 253.789 75.0859C253.789 75.2219 253.753 75.3419 253.681 75.4459C253.617 75.5419 253.513 75.5899 253.369 75.5899H244.129C243.985 75.5899 243.877 75.5419 243.805 75.4459C243.741 75.3419 243.709 75.2219 243.709 75.0859C243.709 74.9499 243.741 74.8299 243.805 74.7259C243.877 74.6219 243.985 74.5699 244.129 74.5699H253.369ZM251.509 77.0179C251.861 77.0179 252.101 77.0819 252.229 77.2099C252.365 77.3379 252.433 77.5739 252.433 77.9179V80.2339C252.433 80.5779 252.365 80.8139 252.229 80.9419C252.101 81.0699 251.861 81.1339 251.509 81.1339H245.989C245.637 81.1339 245.397 81.0699 245.269 80.9419C245.141 80.8139 245.077 80.5779 245.077 80.2339V77.9179C245.077 77.5739 245.141 77.3379 245.269 77.2099C245.397 77.0819 245.637 77.0179 245.989 77.0179H251.509ZM246.517 78.0139C246.421 78.0139 246.353 78.0339 246.313 78.0739C246.281 78.1059 246.265 78.1659 246.265 78.2539V79.8979C246.265 79.9859 246.281 80.0459 246.313 80.0779C246.353 80.1179 246.421 80.1379 246.517 80.1379H250.981C251.077 80.1379 251.141 80.1179 251.173 80.0779C251.213 80.0459 251.233 79.9859 251.233 79.8979V78.2539C251.233 78.1659 251.213 78.1059 251.173 78.0739C251.141 78.0339 251.077 78.0139 250.981 78.0139H246.517Z" fill="#E58A97"/>
<path d="M295.794 70.7419C295.938 70.7419 296.042 70.7939 296.106 70.8979C296.178 71.0019 296.214 71.1219 296.214 71.2579C296.214 71.3939 296.178 71.5139 296.106 71.6179C296.042 71.7139 295.938 71.7619 295.794 71.7619H290.322C290.226 71.7619 290.158 71.7819 290.118 71.8219C290.086 71.8539 290.07 71.9179 290.07 72.0139V73.1419H295.674C295.818 73.1419 295.922 73.1899 295.986 73.2859C296.058 73.3819 296.094 73.4979 296.094 73.6339C296.094 73.7619 296.058 73.8779 295.986 73.9819C295.922 74.0779 295.818 74.1259 295.674 74.1259H290.07V75.2659C290.07 75.3539 290.086 75.4179 290.118 75.4579C290.158 75.4899 290.226 75.5059 290.322 75.5059H295.998C296.142 75.5059 296.246 75.5579 296.31 75.6619C296.382 75.7659 296.418 75.8859 296.418 76.0219C296.418 76.1579 296.382 76.2779 296.31 76.3819C296.246 76.4779 296.142 76.5259 295.998 76.5259H289.818C289.466 76.5259 289.222 76.4619 289.086 76.3339C288.958 76.2059 288.894 75.9699 288.894 75.6259V71.6419C288.894 71.2979 288.958 71.0619 289.086 70.9339C289.222 70.8059 289.466 70.7419 289.818 70.7419H295.794ZM293.166 78.4099H297.186C297.33 78.4099 297.434 78.4619 297.498 78.5659C297.57 78.6619 297.606 78.7779 297.606 78.9139C297.606 79.0499 297.57 79.1699 297.498 79.2739C297.434 79.3779 297.33 79.4299 297.186 79.4299H287.946C287.802 79.4299 287.694 79.3779 287.622 79.2739C287.558 79.1699 287.526 79.0499 287.526 78.9139C287.526 78.7779 287.558 78.6619 287.622 78.5659C287.694 78.4619 287.802 78.4099 287.946 78.4099H291.966V76.0099H293.166V78.4099Z" fill="#E58A97"/>
</svg>
