<svg width="266" height="220" viewBox="0 0 266 220" fill="none" xmlns="http://www.w3.org/2000/svg">
    <rect x="1.66309" y="1.87207" width="262.489" height="216.576" rx="18.5" fill="white" stroke="#F57521" stroke-width="3"/>
    <path d="M0.163086 20.3721C0.163086 9.32638 9.11739 0.37207 20.1631 0.37207H245.652C256.698 0.37207 265.652 9.32638 265.652 20.3721V48.0625H0.163086V20.3721Z" fill="#F57521"/>
    <path d="M126.552 26.7882C126.552 27.4549 126.435 28.1299 126.202 28.8132C125.969 29.4799 125.602 30.0882 125.102 30.6382C124.602 31.1882 123.952 31.6299 123.152 31.9632C122.352 32.3132 121.394 32.4882 120.277 32.4882C119.044 32.4882 117.927 32.3216 116.927 31.9882C115.927 31.6716 115.002 31.1716 114.152 30.4882L115.377 28.5132C116.244 29.1966 117.069 29.6549 117.852 29.8882C118.652 30.1216 119.477 30.2382 120.327 30.2382C120.977 30.2382 121.535 30.1382 122.002 29.9382C122.485 29.7382 122.877 29.4799 123.177 29.1632C123.494 28.8299 123.719 28.4549 123.852 28.0382C124.002 27.6216 124.077 27.2049 124.077 26.7882V26.4882C124.077 25.2882 123.76 24.3966 123.127 23.8132C122.494 23.2132 121.602 22.9132 120.452 22.9132C119.685 22.9132 119.002 23.0549 118.402 23.3382C117.819 23.6216 117.327 23.9549 116.927 24.3382H115.027L115.602 14.1882H125.377V16.3132H117.852L117.577 21.9382C117.977 21.6382 118.485 21.3799 119.102 21.1632C119.735 20.9466 120.427 20.8382 121.177 20.8382C122.027 20.8382 122.785 20.9882 123.452 21.2882C124.119 21.5716 124.677 21.9716 125.127 22.4882C125.594 22.9882 125.944 23.5799 126.177 24.2632C126.427 24.9299 126.552 25.6466 126.552 26.4132V26.7882ZM132.286 35.2132V29.8882H144.836V28.5382H132.161V26.5382H147.261V31.8132H134.611V33.2132H147.936V35.2132H132.286ZM135.611 19.6882C133.828 19.6882 132.436 19.3716 131.436 18.7382C130.453 18.0882 129.961 17.2632 129.961 16.2632V15.6132C129.961 15.1132 130.086 14.6549 130.336 14.2382C130.603 13.8216 130.978 13.4632 131.461 13.1632C131.944 12.8466 132.536 12.6049 133.236 12.4382C133.936 12.2716 134.728 12.1882 135.611 12.1882C137.394 12.2049 138.778 12.5299 139.761 13.1632C140.761 13.7966 141.261 14.6132 141.261 15.6132V16.2632C141.261 17.2632 140.761 18.0882 139.761 18.7382C138.778 19.3716 137.394 19.6882 135.611 19.6882ZM144.811 25.6882V24.9132H139.936V23.0132H144.811V12.0132H147.261V25.6882H144.811ZM134.136 25.6382V22.5382C133.319 22.5716 132.444 22.5882 131.511 22.5882C130.578 22.5882 129.553 22.5882 128.436 22.5882V20.6132C130.253 20.6132 131.828 20.6049 133.161 20.5882C134.511 20.5716 135.744 20.5466 136.861 20.5132C137.978 20.4632 139.028 20.4049 140.011 20.3382C141.011 20.2716 142.061 20.1882 143.161 20.0882L143.361 21.9882C142.261 22.1049 141.178 22.2049 140.111 22.2882C139.061 22.3549 137.886 22.4132 136.586 22.4632V25.6382H134.136ZM135.611 17.6132C136.761 17.6132 137.594 17.4716 138.111 17.1882C138.644 16.8882 138.911 16.5382 138.911 16.1382V15.7382C138.911 15.3382 138.644 14.9966 138.111 14.7132C137.594 14.4299 136.761 14.2882 135.611 14.2882C134.461 14.2882 133.619 14.4299 133.086 14.7132C132.569 14.9966 132.311 15.3382 132.311 15.7382V16.1382C132.311 16.5382 132.569 16.8882 133.086 17.1882C133.619 17.4716 134.461 17.6132 135.611 17.6132Z" fill="white"/>
    <path d="M46.4688 113.145C46.4688 107.622 50.9459 103.145 56.4688 103.145H257.649V125.966H56.4687C50.9459 125.966 46.4688 121.489 46.4688 115.966V113.145Z" fill="#F57521"/>
    <path d="M13.3511 128.966H34.5205C40.0434 128.966 44.5205 133.443 44.5205 138.966V141.786C44.5205 147.309 40.0434 151.786 34.5205 151.786H13.3511V128.966Z" fill="#F57521"/>
    <path d="M61.4544 92.6322V83.1372L58.8444 84.7272L58.3644 83.8872L61.7094 81.8172H62.5044V92.6322H61.4544Z" fill="#585856"/>
    <path d="M59.041 111.506C59.041 112.046 59.211 112.466 59.551 112.766C59.901 113.066 60.331 113.216 60.841 113.216C61.351 113.216 61.776 113.066 62.116 112.766C62.466 112.466 62.641 112.046 62.641 111.506V111.341C62.641 110.831 62.476 110.431 62.146 110.141C61.816 109.851 61.381 109.706 60.841 109.706C60.301 109.706 59.866 109.851 59.536 110.141C59.206 110.431 59.041 110.831 59.041 111.341V111.506ZM58.756 116.501C58.756 117.011 58.941 117.426 59.311 117.746C59.691 118.056 60.206 118.211 60.856 118.211C61.506 118.211 62.011 118.056 62.371 117.746C62.741 117.426 62.926 117.011 62.926 116.501V116.336C62.926 115.746 62.731 115.296 62.341 114.986C61.951 114.676 61.456 114.521 60.856 114.521C60.566 114.521 60.291 114.561 60.031 114.641C59.781 114.711 59.561 114.826 59.371 114.986C59.181 115.136 59.031 115.326 58.921 115.556C58.811 115.776 58.756 116.036 58.756 116.336V116.501ZM57.226 116.321C57.226 116.021 57.271 115.741 57.361 115.481C57.461 115.211 57.596 114.971 57.766 114.761C57.936 114.541 58.131 114.351 58.351 114.191C58.581 114.031 58.826 113.911 59.086 113.831C58.566 113.581 58.176 113.236 57.916 112.796C57.666 112.356 57.541 111.906 57.541 111.446V111.236C57.541 110.846 57.611 110.481 57.751 110.141C57.901 109.801 58.116 109.501 58.396 109.241C58.676 108.981 59.021 108.776 59.431 108.626C59.841 108.476 60.311 108.401 60.841 108.401C61.361 108.401 61.826 108.476 62.236 108.626C62.646 108.776 62.991 108.981 63.271 109.241C63.551 109.501 63.766 109.801 63.916 110.141C64.066 110.481 64.141 110.846 64.141 111.236V111.446C64.141 111.906 64.016 112.351 63.766 112.781C63.516 113.211 63.126 113.561 62.596 113.831C63.126 113.991 63.566 114.296 63.916 114.746C64.276 115.196 64.456 115.721 64.456 116.321V116.576C64.456 117.006 64.371 117.406 64.201 117.776C64.041 118.136 63.806 118.446 63.496 118.706C63.186 118.966 62.806 119.171 62.356 119.321C61.916 119.471 61.411 119.546 60.841 119.546C60.271 119.546 59.761 119.471 59.311 119.321C58.871 119.171 58.496 118.966 58.186 118.706C57.876 118.446 57.636 118.136 57.466 117.776C57.306 117.406 57.226 117.006 57.226 116.576V116.321Z" fill="white"/>
    <path d="M23.8007 119.392H22.6157L27.0107 109.537H20.9357V108.577H28.1807V109.387L23.8007 119.392Z" fill="#585856"/>
    <path d="M246.183 83.2422C245.843 83.0422 245.478 82.8872 245.088 82.7772C244.708 82.6572 244.308 82.5972 243.888 82.5972C243.378 82.5972 242.948 82.7022 242.598 82.9122C242.248 83.1122 241.958 83.4072 241.728 83.7972C241.498 84.1872 241.323 84.6672 241.203 85.2372C241.083 85.7972 241.003 86.4372 240.963 87.1572C241.043 86.9972 241.158 86.8272 241.308 86.6472C241.468 86.4672 241.658 86.3022 241.878 86.1522C242.108 86.0022 242.373 85.8822 242.673 85.7922C242.973 85.6922 243.313 85.6422 243.693 85.6422C244.153 85.6422 244.588 85.7172 244.998 85.8672C245.418 86.0172 245.783 86.2372 246.093 86.5272C246.413 86.8072 246.663 87.1572 246.843 87.5772C247.033 87.9872 247.128 88.4572 247.128 88.9872V89.3472C247.128 89.8772 247.038 90.3572 246.858 90.7872C246.678 91.2072 246.428 91.5672 246.108 91.8672C245.798 92.1672 245.423 92.3972 244.983 92.5572C244.553 92.7172 244.088 92.7972 243.588 92.7972C243.078 92.7972 242.598 92.7072 242.148 92.5272C241.708 92.3572 241.323 92.0922 240.993 91.7322C240.663 91.3722 240.403 90.9172 240.213 90.3672C240.023 89.8072 239.928 89.1522 239.928 88.4022V88.0422C239.928 86.8822 240.018 85.8972 240.198 85.0872C240.388 84.2772 240.653 83.6172 240.993 83.1072C241.333 82.5972 241.748 82.2272 242.238 81.9972C242.728 81.7672 243.283 81.6522 243.903 81.6522C244.393 81.6522 244.873 81.7172 245.343 81.8472C245.823 81.9772 246.268 82.1572 246.678 82.3872L246.183 83.2422ZM241.068 89.1372C241.068 89.5472 241.128 89.9172 241.248 90.2472C241.368 90.5772 241.538 90.8622 241.758 91.1022C241.978 91.3422 242.238 91.5272 242.538 91.6572C242.848 91.7872 243.188 91.8522 243.558 91.8522C243.928 91.8522 244.268 91.7972 244.578 91.6872C244.888 91.5672 245.153 91.4022 245.373 91.1922C245.603 90.9722 245.778 90.7072 245.898 90.3972C246.028 90.0772 246.093 89.7122 246.093 89.3022V89.0772C246.093 88.6772 246.023 88.3222 245.883 88.0122C245.743 87.6922 245.558 87.4272 245.328 87.2172C245.098 86.9972 244.828 86.8322 244.518 86.7222C244.218 86.6122 243.903 86.5572 243.573 86.5572C243.253 86.5572 242.943 86.6172 242.643 86.7372C242.343 86.8572 242.078 87.0222 241.848 87.2322C241.618 87.4422 241.428 87.6972 241.278 87.9972C241.138 88.2872 241.068 88.6022 241.068 88.9422V89.1372Z" fill="#585856"/>
    <path d="M209.722 89.3772C209.722 88.5072 209.507 87.8772 209.077 87.4872C208.657 87.0872 208.057 86.8872 207.277 86.8872C206.817 86.8872 206.407 86.9722 206.047 87.1422C205.687 87.3122 205.387 87.5122 205.147 87.7422H204.157L204.502 81.8172H210.067V82.7772H205.432L205.267 86.7072C205.507 86.4772 205.832 86.2922 206.242 86.1522C206.652 86.0122 207.082 85.9422 207.532 85.9422C208.062 85.9422 208.527 86.0322 208.927 86.2122C209.337 86.3822 209.677 86.6172 209.947 86.9172C210.217 87.2172 210.417 87.5772 210.547 87.9972C210.687 88.4072 210.757 88.8522 210.757 89.3322V89.5572C210.757 89.9472 210.692 90.3372 210.562 90.7272C210.432 91.1072 210.222 91.4522 209.932 91.7622C209.652 92.0622 209.277 92.3072 208.807 92.4972C208.337 92.6972 207.767 92.7972 207.097 92.7972C206.357 92.7972 205.707 92.6872 205.147 92.4672C204.587 92.2572 204.067 91.9672 203.587 91.5972L204.127 90.7422C204.647 91.1422 205.142 91.4272 205.612 91.5972C206.092 91.7572 206.587 91.8372 207.097 91.8372C207.577 91.8372 207.982 91.7672 208.312 91.6272C208.652 91.4772 208.927 91.2922 209.137 91.0722C209.347 90.8522 209.497 90.6122 209.587 90.3522C209.677 90.0822 209.722 89.8222 209.722 89.5722V89.3772Z" fill="#585856"/>
    <path d="M173.305 85.8672V89.2722H174.895V90.2322H173.305V92.6322H172.255V90.2322H166.84V89.2722L172.09 81.8172H173.29L168.055 89.2722H172.255V85.8672H173.305Z" fill="#585856"/>
    <path d="M131.174 83.3322C131.304 83.1122 131.464 82.9022 131.654 82.7022C131.844 82.5022 132.064 82.3272 132.314 82.1772C132.574 82.0172 132.864 81.8922 133.184 81.8022C133.514 81.7022 133.884 81.6522 134.294 81.6522C134.784 81.6522 135.224 81.7172 135.614 81.8472C136.014 81.9772 136.349 82.1622 136.619 82.4022C136.899 82.6322 137.114 82.9172 137.264 83.2572C137.414 83.5872 137.489 83.9522 137.489 84.3522V84.5022C137.489 84.7122 137.459 84.9372 137.399 85.1772C137.339 85.4072 137.239 85.6322 137.099 85.8522C136.959 86.0722 136.769 86.2772 136.529 86.4672C136.289 86.6572 135.989 86.8122 135.629 86.9322C136.379 87.0622 136.944 87.3572 137.324 87.8172C137.714 88.2772 137.909 88.8222 137.909 89.4522V89.6772C137.909 90.0672 137.844 90.4472 137.714 90.8172C137.584 91.1872 137.374 91.5222 137.084 91.8222C136.804 92.1122 136.429 92.3472 135.959 92.5272C135.499 92.7072 134.939 92.7972 134.279 92.7972C133.649 92.7972 133.039 92.6972 132.449 92.4972C131.869 92.3072 131.324 92.0072 130.814 91.5972L131.339 90.7572C131.869 91.1372 132.364 91.4122 132.824 91.5822C133.294 91.7522 133.779 91.8372 134.279 91.8372C134.749 91.8372 135.149 91.7722 135.479 91.6422C135.809 91.5122 136.074 91.3472 136.274 91.1472C136.484 90.9372 136.634 90.7072 136.724 90.4572C136.824 90.1972 136.874 89.9422 136.874 89.6922V89.4972C136.874 89.0872 136.789 88.7522 136.619 88.4922C136.459 88.2222 136.254 88.0122 136.004 87.8622C135.764 87.7022 135.494 87.5922 135.194 87.5322C134.904 87.4722 134.629 87.4422 134.369 87.4422H133.154V86.5422H134.414C134.754 86.5422 135.049 86.4822 135.299 86.3622C135.549 86.2322 135.754 86.0672 135.914 85.8672C136.084 85.6672 136.209 85.4472 136.289 85.2072C136.379 84.9572 136.424 84.7172 136.424 84.4872V84.3672C136.424 83.8272 136.234 83.4022 135.854 83.0922C135.484 82.7722 134.969 82.6122 134.309 82.6122C133.879 82.6122 133.464 82.7022 133.064 82.8822C132.664 83.0522 132.309 83.3822 131.999 83.8722L131.174 83.3322Z" fill="#585856"/>
    <path d="M98.7636 87.0072C99.0636 86.6572 99.3036 86.3572 99.4836 86.1072C99.6636 85.8572 99.7986 85.6372 99.8886 85.4472C99.9886 85.2472 100.054 85.0722 100.084 84.9222C100.124 84.7722 100.144 84.6272 100.144 84.4872V84.3672C100.144 83.8272 99.9636 83.4022 99.6036 83.0922C99.2536 82.7722 98.7486 82.6122 98.0886 82.6122C97.6086 82.6122 97.1586 82.7272 96.7386 82.9572C96.3186 83.1872 95.9336 83.6172 95.5836 84.2472L94.7436 83.7222C94.8736 83.4922 95.0336 83.2572 95.2236 83.0172C95.4136 82.7672 95.6436 82.5422 95.9136 82.3422C96.1836 82.1422 96.4936 81.9772 96.8436 81.8472C97.2036 81.7172 97.6086 81.6522 98.0586 81.6522C98.5386 81.6522 98.9736 81.7172 99.3636 81.8472C99.7536 81.9772 100.084 82.1622 100.354 82.4022C100.624 82.6322 100.834 82.9172 100.984 83.2572C101.134 83.5872 101.209 83.9522 101.209 84.3522V84.5022C101.209 84.7922 101.159 85.0772 101.059 85.3572C100.959 85.6272 100.824 85.8922 100.654 86.1522C100.494 86.4122 100.304 86.6722 100.084 86.9322C99.8636 87.1922 99.6386 87.4572 99.4086 87.7272L96.0486 91.6722H101.599V92.6322H94.7286V91.7322L98.7636 87.0072Z" fill="#585856"/>
    <path d="M56.9569 146.13V136.635L54.3469 138.225L53.8669 137.385L57.2119 135.315H58.0069V146.13H56.9569ZM68.411 142.875C68.411 142.005 68.196 141.375 67.766 140.985C67.346 140.585 66.746 140.385 65.966 140.385C65.506 140.385 65.096 140.47 64.736 140.64C64.376 140.81 64.076 141.01 63.836 141.24H62.846L63.191 135.315H68.756V136.275H64.121L63.956 140.205C64.196 139.975 64.521 139.79 64.931 139.65C65.341 139.51 65.771 139.44 66.221 139.44C66.751 139.44 67.216 139.53 67.616 139.71C68.026 139.88 68.366 140.115 68.636 140.415C68.906 140.715 69.106 141.075 69.236 141.495C69.376 141.905 69.446 142.35 69.446 142.83V143.055C69.446 143.445 69.381 143.835 69.251 144.225C69.121 144.605 68.911 144.95 68.621 145.26C68.341 145.56 67.966 145.805 67.496 145.995C67.026 146.195 66.456 146.295 65.786 146.295C65.046 146.295 64.396 146.185 63.836 145.965C63.276 145.755 62.756 145.465 62.276 145.095L62.816 144.24C63.336 144.64 63.831 144.925 64.301 145.095C64.781 145.255 65.276 145.335 65.786 145.335C66.266 145.335 66.671 145.265 67.001 145.125C67.341 144.975 67.616 144.79 67.826 144.57C68.036 144.35 68.186 144.11 68.276 143.85C68.366 143.58 68.411 143.32 68.411 143.07V142.875Z" fill="#585856"/>
    <path d="M20.6799 146.138V137.063L18.1449 138.563L17.4399 137.363L20.9199 135.323H22.1649V146.138H20.6799ZM32.2202 139.238V142.553H33.7502V143.813H32.2202V146.138H30.7502V143.813H25.3502V142.703L30.4352 135.323H32.0702L27.0902 142.553H30.7502V139.238H32.2202Z" fill="white"/>
    <path d="M240.78 119.378V110.303L238.245 111.803L237.54 110.603L241.02 108.563H242.265V119.378H240.78ZM246.17 110.018C246.33 109.798 246.505 109.588 246.695 109.388C246.895 109.188 247.12 109.018 247.37 108.878C247.63 108.728 247.915 108.613 248.225 108.533C248.545 108.443 248.91 108.398 249.32 108.398C249.82 108.398 250.27 108.463 250.67 108.593C251.07 108.723 251.41 108.908 251.69 109.148C251.98 109.378 252.2 109.663 252.35 110.003C252.51 110.333 252.59 110.698 252.59 111.098V111.248C252.59 111.458 252.565 111.683 252.515 111.923C252.465 112.163 252.375 112.393 252.245 112.613C252.115 112.833 251.94 113.038 251.72 113.228C251.5 113.418 251.225 113.573 250.895 113.693C251.625 113.823 252.17 114.113 252.53 114.563C252.9 115.013 253.085 115.553 253.085 116.183V116.408C253.085 116.808 253.01 117.198 252.86 117.578C252.72 117.948 252.495 118.283 252.185 118.583C251.885 118.873 251.495 119.103 251.015 119.273C250.535 119.453 249.965 119.543 249.305 119.543C248.675 119.543 248.065 119.443 247.475 119.243C246.895 119.053 246.35 118.753 245.84 118.343L246.575 117.158C247.105 117.538 247.575 117.808 247.985 117.968C248.395 118.118 248.835 118.193 249.305 118.193C249.695 118.193 250.035 118.148 250.325 118.058C250.615 117.958 250.855 117.828 251.045 117.668C251.235 117.508 251.375 117.323 251.465 117.113C251.555 116.893 251.6 116.663 251.6 116.423V116.228C251.6 115.868 251.54 115.573 251.42 115.343C251.31 115.103 251.155 114.913 250.955 114.773C250.755 114.633 250.515 114.533 250.235 114.473C249.965 114.413 249.675 114.383 249.365 114.383H248.03V113.093H249.305C249.645 113.093 249.93 113.043 250.16 112.943C250.39 112.833 250.575 112.693 250.715 112.523C250.855 112.353 250.955 112.158 251.015 111.938C251.085 111.718 251.12 111.493 251.12 111.263V111.143C251.12 110.903 251.07 110.698 250.97 110.528C250.88 110.348 250.755 110.198 250.595 110.078C250.435 109.958 250.245 109.868 250.025 109.808C249.805 109.748 249.575 109.718 249.335 109.718C248.885 109.718 248.495 109.803 248.165 109.973C247.835 110.143 247.525 110.418 247.235 110.798L246.17 110.018Z" fill="white"/>
    <path d="M204.438 119.378V110.303L201.903 111.803L201.198 110.603L204.678 108.563H205.923V119.378H204.438ZM213.698 113.753C214.008 113.413 214.253 113.118 214.433 112.868C214.613 112.618 214.748 112.398 214.838 112.208C214.928 112.008 214.983 111.833 215.003 111.683C215.033 111.523 215.048 111.373 215.048 111.233V111.113C215.048 110.683 214.878 110.348 214.538 110.108C214.208 109.858 213.758 109.733 213.188 109.733C212.988 109.733 212.783 109.758 212.573 109.808C212.373 109.848 212.173 109.928 211.973 110.048C211.773 110.168 211.578 110.333 211.388 110.543C211.198 110.743 211.013 110.998 210.833 111.308L209.693 110.573C209.823 110.343 209.983 110.103 210.173 109.853C210.363 109.593 210.593 109.358 210.863 109.148C211.143 108.928 211.468 108.748 211.838 108.608C212.218 108.468 212.658 108.398 213.158 108.398C213.708 108.398 214.193 108.468 214.613 108.608C215.033 108.738 215.383 108.923 215.663 109.163C215.953 109.403 216.168 109.693 216.308 110.033C216.458 110.363 216.533 110.723 216.533 111.113V111.263C216.533 111.853 216.378 112.408 216.068 112.928C215.758 113.448 215.358 113.968 214.868 114.488L211.493 118.088H216.923V119.378H209.663V118.133L213.698 113.753Z" fill="white"/>
    <path d="M168.097 119.378V110.303L165.562 111.803L164.857 110.603L168.337 108.563H169.582V119.378H168.097ZM177.252 119.378V110.303L174.717 111.803L174.012 110.603L177.492 108.563H178.737V119.378H177.252Z" fill="white"/>
    <path d="M131.756 119.378V110.303L129.221 111.803L128.516 110.603L131.996 108.563H133.241V119.378H131.756ZM144.421 114.803C144.421 116.333 144.106 117.508 143.476 118.328C142.856 119.138 141.896 119.543 140.596 119.543C139.306 119.543 138.346 119.133 137.716 118.313C137.086 117.493 136.771 116.323 136.771 114.803V113.123C136.771 111.603 137.091 110.438 137.731 109.628C138.371 108.808 139.326 108.398 140.596 108.398C141.876 108.398 142.831 108.808 143.461 109.628C144.101 110.438 144.421 111.603 144.421 113.123V114.803ZM142.906 113.108C142.906 112.448 142.846 111.903 142.726 111.473C142.616 111.043 142.456 110.703 142.246 110.453C142.036 110.203 141.791 110.028 141.511 109.928C141.231 109.828 140.926 109.778 140.596 109.778C140.276 109.778 139.976 109.828 139.696 109.928C139.416 110.028 139.171 110.208 138.961 110.468C138.751 110.718 138.586 111.058 138.466 111.488C138.346 111.908 138.286 112.448 138.286 113.108V114.818C138.286 115.478 138.346 116.028 138.466 116.468C138.586 116.898 138.751 117.238 138.961 117.488C139.171 117.738 139.416 117.913 139.696 118.013C139.976 118.113 140.276 118.163 140.596 118.163C140.926 118.163 141.231 118.113 141.511 118.013C141.791 117.913 142.036 117.738 142.246 117.488C142.456 117.238 142.616 116.898 142.726 116.468C142.846 116.038 142.906 115.488 142.906 114.818V113.108Z" fill="white"/>
    <path d="M96.9329 117.521C97.2729 117.721 97.6379 117.881 98.0279 118.001C98.4179 118.121 98.8279 118.181 99.2579 118.181C99.6279 118.181 99.9679 118.121 100.278 118.001C100.598 117.881 100.868 117.681 101.088 117.401C101.318 117.111 101.498 116.731 101.628 116.261C101.758 115.791 101.833 115.201 101.853 114.491C101.763 114.651 101.633 114.806 101.463 114.956C101.293 115.096 101.093 115.226 100.863 115.346C100.643 115.456 100.398 115.546 100.128 115.616C99.8579 115.686 99.5729 115.721 99.2729 115.721C98.7929 115.721 98.3429 115.641 97.9229 115.481C97.5129 115.321 97.1529 115.091 96.8429 114.791C96.5429 114.491 96.3029 114.131 96.1229 113.711C95.9529 113.281 95.8679 112.801 95.8679 112.271V111.941C95.8679 111.421 95.9579 110.946 96.1379 110.516C96.3179 110.086 96.5679 109.716 96.8879 109.406C97.2079 109.086 97.5929 108.841 98.0429 108.671C98.5029 108.491 99.0079 108.401 99.5579 108.401C100.768 108.401 101.698 108.771 102.348 109.511C102.998 110.241 103.323 111.336 103.323 112.796V113.351C103.323 114.541 103.233 115.531 103.053 116.321C102.873 117.111 102.603 117.746 102.243 118.226C101.893 118.706 101.458 119.046 100.938 119.246C100.428 119.446 99.8379 119.546 99.1679 119.546C98.6779 119.546 98.1879 119.481 97.6979 119.351C97.2179 119.221 96.7729 119.031 96.3629 118.781L96.9329 117.521ZM101.808 112.061C101.808 111.361 101.613 110.801 101.223 110.381C100.833 109.961 100.298 109.751 99.6179 109.751C98.9179 109.751 98.3629 109.946 97.9529 110.336C97.5529 110.726 97.3529 111.276 97.3529 111.986V112.181C97.3529 112.901 97.5629 113.451 97.9829 113.831C98.4029 114.211 98.9329 114.401 99.5729 114.401C99.9029 114.401 100.203 114.346 100.473 114.236C100.753 114.126 100.988 113.976 101.178 113.786C101.378 113.586 101.533 113.361 101.643 113.111C101.753 112.851 101.808 112.571 101.808 112.271V112.061Z" fill="white"/>
    <path d="M57.9252 167.254C58.2252 166.904 58.4652 166.604 58.6452 166.354C58.8252 166.104 58.9602 165.884 59.0502 165.694C59.1502 165.494 59.2152 165.319 59.2452 165.169C59.2852 165.019 59.3052 164.874 59.3052 164.734V164.614C59.3052 164.074 59.1252 163.649 58.7652 163.339C58.4152 163.019 57.9102 162.859 57.2502 162.859C56.7702 162.859 56.3202 162.974 55.9002 163.204C55.4802 163.434 55.0952 163.864 54.7452 164.494L53.9052 163.969C54.0352 163.739 54.1952 163.504 54.3852 163.264C54.5752 163.014 54.8052 162.789 55.0752 162.589C55.3452 162.389 55.6552 162.224 56.0052 162.094C56.3652 161.964 56.7702 161.899 57.2202 161.899C57.7002 161.899 58.1352 161.964 58.5252 162.094C58.9152 162.224 59.2452 162.409 59.5152 162.649C59.7852 162.879 59.9952 163.164 60.1452 163.504C60.2952 163.834 60.3702 164.199 60.3702 164.599V164.749C60.3702 165.039 60.3202 165.324 60.2202 165.604C60.1202 165.874 59.9852 166.139 59.8152 166.399C59.6552 166.659 59.4652 166.919 59.2452 167.179C59.0252 167.439 58.8002 167.704 58.5702 167.974L55.2102 171.919H60.7602V172.879H53.8902V171.979L57.9252 167.254ZM66.9194 167.254C67.2194 166.904 67.4594 166.604 67.6394 166.354C67.8194 166.104 67.9544 165.884 68.0444 165.694C68.1444 165.494 68.2094 165.319 68.2394 165.169C68.2794 165.019 68.2994 164.874 68.2994 164.734V164.614C68.2994 164.074 68.1194 163.649 67.7594 163.339C67.4094 163.019 66.9044 162.859 66.2444 162.859C65.7644 162.859 65.3144 162.974 64.8944 163.204C64.4744 163.434 64.0894 163.864 63.7394 164.494L62.8994 163.969C63.0294 163.739 63.1894 163.504 63.3794 163.264C63.5694 163.014 63.7994 162.789 64.0694 162.589C64.3394 162.389 64.6494 162.224 64.9994 162.094C65.3594 161.964 65.7644 161.899 66.2144 161.899C66.6944 161.899 67.1294 161.964 67.5194 162.094C67.9094 162.224 68.2394 162.409 68.5094 162.649C68.7794 162.879 68.9894 163.164 69.1394 163.504C69.2894 163.834 69.3644 164.199 69.3644 164.599V164.749C69.3644 165.039 69.3144 165.324 69.2144 165.604C69.1144 165.874 68.9794 166.139 68.8094 166.399C68.6494 166.659 68.4594 166.919 68.2394 167.179C68.0194 167.439 67.7944 167.704 67.5644 167.974L64.2044 171.919H69.7544V172.879H62.8844V171.979L66.9194 167.254Z" fill="#585856"/>
    <path d="M21.5844 167.258C21.8844 166.908 22.1244 166.608 22.3044 166.358C22.4844 166.108 22.6194 165.888 22.7094 165.698C22.8094 165.498 22.8744 165.323 22.9044 165.173C22.9444 165.023 22.9644 164.878 22.9644 164.738V164.618C22.9644 164.078 22.7844 163.653 22.4244 163.343C22.0744 163.023 21.5694 162.863 20.9094 162.863C20.4294 162.863 19.9794 162.978 19.5594 163.208C19.1394 163.438 18.7544 163.868 18.4044 164.498L17.5644 163.973C17.6944 163.743 17.8544 163.508 18.0444 163.268C18.2344 163.018 18.4644 162.793 18.7344 162.593C19.0044 162.393 19.3144 162.228 19.6644 162.098C20.0244 161.968 20.4294 161.903 20.8794 161.903C21.3594 161.903 21.7944 161.968 22.1844 162.098C22.5744 162.228 22.9044 162.413 23.1744 162.653C23.4444 162.883 23.6544 163.168 23.8044 163.508C23.9544 163.838 24.0294 164.203 24.0294 164.603V164.753C24.0294 165.043 23.9794 165.328 23.8794 165.608C23.7794 165.878 23.6444 166.143 23.4744 166.403C23.3144 166.663 23.1244 166.923 22.9044 167.183C22.6844 167.443 22.4594 167.708 22.2294 167.978L18.8694 171.923H24.4194V172.883H17.5494V171.983L21.5844 167.258ZM30.0536 172.883V163.388L27.4435 164.978L26.9635 164.138L30.3085 162.068H31.1035V172.883H30.0536Z" fill="#585856"/>
    <path d="M241.24 140.498C241.54 140.148 241.78 139.848 241.96 139.598C242.14 139.348 242.275 139.128 242.365 138.938C242.465 138.738 242.53 138.563 242.56 138.413C242.6 138.263 242.62 138.118 242.62 137.978V137.858C242.62 137.318 242.44 136.893 242.08 136.583C241.73 136.263 241.225 136.103 240.565 136.103C240.085 136.103 239.635 136.218 239.215 136.448C238.795 136.678 238.41 137.108 238.06 137.738L237.22 137.213C237.35 136.983 237.51 136.748 237.7 136.508C237.89 136.258 238.12 136.033 238.39 135.833C238.66 135.633 238.97 135.468 239.32 135.338C239.68 135.208 240.085 135.143 240.535 135.143C241.015 135.143 241.45 135.208 241.84 135.338C242.23 135.468 242.56 135.653 242.83 135.893C243.1 136.123 243.31 136.408 243.46 136.748C243.61 137.078 243.685 137.443 243.685 137.843V137.993C243.685 138.283 243.635 138.568 243.535 138.848C243.435 139.118 243.3 139.383 243.13 139.643C242.97 139.903 242.78 140.163 242.56 140.423C242.34 140.683 242.115 140.948 241.885 141.218L238.525 145.163H244.075V146.123H237.205V145.223L241.24 140.498ZM253.219 141.548C253.219 143.078 252.929 144.253 252.349 145.073C251.769 145.883 250.829 146.288 249.529 146.288C248.249 146.288 247.319 145.878 246.739 145.058C246.159 144.238 245.869 143.068 245.869 141.548V139.868C245.869 138.358 246.164 137.193 246.754 136.373C247.344 135.553 248.269 135.143 249.529 135.143C250.809 135.143 251.744 135.553 252.334 136.373C252.924 137.183 253.219 138.348 253.219 139.868V141.548ZM252.139 139.853C252.139 138.513 251.919 137.553 251.479 136.973C251.049 136.383 250.399 136.088 249.529 136.088C248.699 136.088 248.059 136.383 247.609 136.973C247.169 137.563 246.949 138.523 246.949 139.853V141.563C246.949 142.903 247.169 143.868 247.609 144.458C248.059 145.048 248.699 145.343 249.529 145.343C250.389 145.343 251.039 145.053 251.479 144.473C251.919 143.883 252.139 142.913 252.139 141.563V139.853Z" fill="#585856"/>
    <path d="M204.374 146.123V136.628L201.764 138.218L201.284 137.378L204.629 135.308H205.424V146.123H204.374ZM210.428 144.668C210.768 144.868 211.133 145.028 211.523 145.148C211.913 145.268 212.323 145.328 212.753 145.328C213.303 145.328 213.763 145.228 214.133 145.028C214.503 144.818 214.798 144.518 215.018 144.128C215.238 143.738 215.398 143.263 215.498 142.703C215.598 142.143 215.658 141.513 215.678 140.813C215.598 140.973 215.483 141.143 215.333 141.323C215.183 141.503 214.993 141.673 214.763 141.833C214.543 141.983 214.278 142.113 213.968 142.223C213.668 142.323 213.328 142.373 212.948 142.373C212.488 142.373 212.048 142.298 211.628 142.148C211.218 141.988 210.853 141.763 210.533 141.473C210.223 141.183 209.973 140.833 209.783 140.423C209.603 140.003 209.513 139.528 209.513 138.998V138.638C209.513 138.108 209.603 137.628 209.783 137.198C209.963 136.768 210.208 136.403 210.518 136.103C210.838 135.793 211.213 135.558 211.643 135.398C212.083 135.228 212.553 135.143 213.053 135.143C213.553 135.143 214.023 135.233 214.463 135.413C214.913 135.583 215.303 135.853 215.633 136.223C215.963 136.583 216.223 137.043 216.413 137.603C216.613 138.153 216.713 138.803 216.713 139.553V140.003C216.713 141.193 216.628 142.193 216.458 143.003C216.298 143.803 216.053 144.448 215.723 144.938C215.393 145.428 214.978 145.773 214.478 145.973C213.978 146.183 213.393 146.288 212.723 146.288C212.233 146.288 211.758 146.223 211.298 146.093C210.838 145.963 210.403 145.783 209.993 145.553L210.428 144.668ZM215.573 138.848C215.573 138.448 215.513 138.078 215.393 137.738C215.273 137.398 215.103 137.108 214.883 136.868C214.663 136.618 214.398 136.428 214.088 136.298C213.788 136.158 213.453 136.088 213.083 136.088C212.713 136.088 212.373 136.148 212.063 136.268C211.753 136.388 211.483 136.558 211.253 136.778C211.033 136.998 210.858 137.273 210.728 137.603C210.608 137.923 210.548 138.283 210.548 138.683V138.908C210.548 139.318 210.618 139.683 210.758 140.003C210.898 140.313 211.083 140.578 211.313 140.798C211.543 141.008 211.808 141.173 212.108 141.293C212.418 141.403 212.738 141.458 213.068 141.458C213.378 141.458 213.683 141.398 213.983 141.278C214.293 141.158 214.563 140.988 214.793 140.768C215.023 140.548 215.208 140.293 215.348 140.003C215.498 139.713 215.573 139.393 215.573 139.043V138.848Z" fill="#585856"/>
    <path d="M168.033 146.123V136.628L165.423 138.218L164.943 137.378L168.288 135.308H169.083V146.123H168.033ZM174.747 138.068C174.747 138.358 174.797 138.633 174.897 138.893C174.997 139.153 175.137 139.378 175.317 139.568C175.507 139.758 175.732 139.908 175.992 140.018C176.252 140.128 176.542 140.183 176.862 140.183C177.182 140.183 177.472 140.128 177.732 140.018C177.992 139.908 178.212 139.758 178.392 139.568C178.582 139.378 178.727 139.153 178.827 138.893C178.927 138.633 178.977 138.358 178.977 138.068V137.888C178.977 137.328 178.782 136.888 178.392 136.568C178.012 136.238 177.502 136.073 176.862 136.073C176.212 136.073 175.697 136.238 175.317 136.568C174.937 136.888 174.747 137.328 174.747 137.888V138.068ZM174.447 143.348C174.447 143.628 174.502 143.888 174.612 144.128C174.722 144.368 174.882 144.578 175.092 144.758C175.302 144.938 175.552 145.083 175.842 145.193C176.142 145.293 176.482 145.343 176.862 145.343C177.242 145.343 177.582 145.293 177.882 145.193C178.182 145.083 178.432 144.938 178.632 144.758C178.842 144.578 179.002 144.368 179.112 144.128C179.222 143.888 179.277 143.628 179.277 143.348V143.168C179.277 142.848 179.217 142.558 179.097 142.298C178.977 142.038 178.812 141.813 178.602 141.623C178.392 141.433 178.137 141.288 177.837 141.188C177.547 141.088 177.222 141.038 176.862 141.038C176.512 141.038 176.187 141.088 175.887 141.188C175.597 141.288 175.342 141.433 175.122 141.623C174.912 141.803 174.747 142.023 174.627 142.283C174.507 142.543 174.447 142.838 174.447 143.168V143.348ZM173.382 143.123C173.382 142.523 173.562 141.998 173.922 141.548C174.292 141.088 174.772 140.768 175.362 140.588C174.842 140.348 174.437 140.013 174.147 139.583C173.867 139.153 173.727 138.653 173.727 138.083V137.843C173.727 137.453 173.802 137.093 173.952 136.763C174.112 136.433 174.332 136.148 174.612 135.908C174.892 135.668 175.222 135.483 175.602 135.353C175.992 135.213 176.412 135.143 176.862 135.143C177.312 135.143 177.727 135.213 178.107 135.353C178.497 135.483 178.832 135.668 179.112 135.908C179.392 136.148 179.607 136.433 179.757 136.763C179.917 137.093 179.997 137.453 179.997 137.843V138.083C179.997 138.653 179.852 139.153 179.562 139.583C179.282 140.013 178.877 140.348 178.347 140.588C178.637 140.678 178.902 140.803 179.142 140.963C179.392 141.123 179.602 141.318 179.772 141.548C179.952 141.768 180.092 142.013 180.192 142.283C180.292 142.543 180.342 142.823 180.342 143.123V143.378C180.342 143.808 180.257 144.203 180.087 144.563C179.927 144.923 179.692 145.233 179.382 145.493C179.082 145.743 178.717 145.938 178.287 146.078C177.857 146.218 177.382 146.288 176.862 146.288C176.342 146.288 175.867 146.218 175.437 146.078C175.007 145.938 174.637 145.743 174.327 145.493C174.027 145.233 173.792 144.923 173.622 144.563C173.462 144.203 173.382 143.808 173.382 143.378V143.123Z" fill="#585856"/>
    <path d="M131.692 146.123V136.628L129.082 138.218L128.602 137.378L131.947 135.308H132.742V146.123H131.692ZM139.816 146.123H138.631L143.026 136.268H136.951V135.308H144.196V136.118L139.816 146.123Z" fill="#585856"/>
    <path d="M95.3509 146.13V136.635L92.7409 138.225L92.2609 137.385L95.6059 135.315H96.4009V146.13H95.3509ZM106.925 136.74C106.585 136.54 106.22 136.385 105.83 136.275C105.45 136.155 105.05 136.095 104.63 136.095C104.12 136.095 103.69 136.2 103.34 136.41C102.99 136.61 102.7 136.905 102.47 137.295C102.24 137.685 102.065 138.165 101.945 138.735C101.825 139.295 101.745 139.935 101.705 140.655C101.785 140.495 101.9 140.325 102.05 140.145C102.21 139.965 102.4 139.8 102.62 139.65C102.85 139.5 103.115 139.38 103.415 139.29C103.715 139.19 104.055 139.14 104.435 139.14C104.895 139.14 105.33 139.215 105.74 139.365C106.16 139.515 106.525 139.735 106.835 140.025C107.155 140.305 107.405 140.655 107.585 141.075C107.775 141.485 107.87 141.955 107.87 142.485V142.845C107.87 143.375 107.78 143.855 107.6 144.285C107.42 144.705 107.17 145.065 106.85 145.365C106.54 145.665 106.165 145.895 105.725 146.055C105.295 146.215 104.83 146.295 104.33 146.295C103.82 146.295 103.34 146.205 102.89 146.025C102.45 145.855 102.065 145.59 101.735 145.23C101.405 144.87 101.145 144.415 100.955 143.865C100.765 143.305 100.67 142.65 100.67 141.9V141.54C100.67 140.38 100.76 139.395 100.94 138.585C101.13 137.775 101.395 137.115 101.735 136.605C102.075 136.095 102.49 135.725 102.98 135.495C103.47 135.265 104.025 135.15 104.645 135.15C105.135 135.15 105.615 135.215 106.085 135.345C106.565 135.475 107.01 135.655 107.42 135.885L106.925 136.74ZM101.81 142.635C101.81 143.045 101.87 143.415 101.99 143.745C102.11 144.075 102.28 144.36 102.5 144.6C102.72 144.84 102.98 145.025 103.28 145.155C103.59 145.285 103.93 145.35 104.3 145.35C104.67 145.35 105.01 145.295 105.32 145.185C105.63 145.065 105.895 144.9 106.115 144.69C106.345 144.47 106.52 144.205 106.64 143.895C106.77 143.575 106.835 143.21 106.835 142.8V142.575C106.835 142.175 106.765 141.82 106.625 141.51C106.485 141.19 106.3 140.925 106.07 140.715C105.84 140.495 105.57 140.33 105.26 140.22C104.96 140.11 104.645 140.055 104.315 140.055C103.995 140.055 103.685 140.115 103.385 140.235C103.085 140.355 102.82 140.52 102.59 140.73C102.36 140.94 102.17 141.195 102.02 141.495C101.88 141.785 101.81 142.1 101.81 142.44V142.635Z" fill="#585856"/>
    <path d="M57.9252 194.003C58.2252 193.653 58.4652 193.353 58.6452 193.103C58.8252 192.853 58.9602 192.633 59.0502 192.443C59.1502 192.243 59.2152 192.068 59.2452 191.918C59.2852 191.768 59.3052 191.623 59.3052 191.483V191.363C59.3052 190.823 59.1252 190.398 58.7652 190.088C58.4152 189.768 57.9102 189.608 57.2502 189.608C56.7702 189.608 56.3202 189.723 55.9002 189.953C55.4802 190.183 55.0952 190.613 54.7452 191.243L53.9052 190.718C54.0352 190.488 54.1952 190.253 54.3852 190.013C54.5752 189.763 54.8052 189.538 55.0752 189.338C55.3452 189.138 55.6552 188.973 56.0052 188.843C56.3652 188.713 56.7702 188.648 57.2202 188.648C57.7002 188.648 58.1352 188.713 58.5252 188.843C58.9152 188.973 59.2452 189.158 59.5152 189.398C59.7852 189.628 59.9952 189.913 60.1452 190.253C60.2952 190.583 60.3702 190.948 60.3702 191.348V191.498C60.3702 191.788 60.3202 192.073 60.2202 192.353C60.1202 192.623 59.9852 192.888 59.8152 193.148C59.6552 193.408 59.4652 193.668 59.2452 193.928C59.0252 194.188 58.8002 194.453 58.5702 194.723L55.2102 198.668H60.7602V199.628H53.8902V198.728L57.9252 194.003ZM63.4544 198.173C63.7944 198.373 64.1594 198.533 64.5494 198.653C64.9394 198.773 65.3494 198.833 65.7794 198.833C66.3294 198.833 66.7894 198.733 67.1594 198.533C67.5294 198.323 67.8244 198.023 68.0444 197.633C68.2644 197.243 68.4244 196.768 68.5244 196.208C68.6244 195.648 68.6844 195.018 68.7044 194.318C68.6244 194.478 68.5094 194.648 68.3594 194.828C68.2094 195.008 68.0194 195.178 67.7894 195.338C67.5694 195.488 67.3044 195.618 66.9944 195.728C66.6944 195.828 66.3544 195.878 65.9744 195.878C65.5144 195.878 65.0744 195.803 64.6544 195.653C64.2444 195.493 63.8794 195.268 63.5594 194.978C63.2494 194.688 62.9994 194.338 62.8094 193.928C62.6294 193.508 62.5394 193.033 62.5394 192.503V192.143C62.5394 191.613 62.6294 191.133 62.8094 190.703C62.9894 190.273 63.2344 189.908 63.5444 189.608C63.8644 189.298 64.2394 189.063 64.6694 188.903C65.1094 188.733 65.5794 188.648 66.0794 188.648C66.5794 188.648 67.0494 188.738 67.4894 188.918C67.9394 189.088 68.3294 189.358 68.6594 189.728C68.9894 190.088 69.2494 190.548 69.4394 191.108C69.6394 191.658 69.7394 192.308 69.7394 193.058V193.508C69.7394 194.698 69.6544 195.698 69.4844 196.508C69.3244 197.308 69.0794 197.953 68.7494 198.443C68.4194 198.933 68.0044 199.278 67.5044 199.478C67.0044 199.688 66.4194 199.793 65.7494 199.793C65.2594 199.793 64.7844 199.728 64.3244 199.598C63.8644 199.468 63.4294 199.288 63.0194 199.058L63.4544 198.173ZM68.5994 192.353C68.5994 191.953 68.5394 191.583 68.4194 191.243C68.2994 190.903 68.1294 190.613 67.9094 190.373C67.6894 190.123 67.4244 189.933 67.1144 189.803C66.8144 189.663 66.4794 189.593 66.1094 189.593C65.7394 189.593 65.3994 189.653 65.0894 189.773C64.7794 189.893 64.5094 190.063 64.2794 190.283C64.0594 190.503 63.8844 190.778 63.7544 191.108C63.6344 191.428 63.5744 191.788 63.5744 192.188V192.413C63.5744 192.823 63.6444 193.188 63.7844 193.508C63.9244 193.818 64.1094 194.083 64.3394 194.303C64.5694 194.513 64.8344 194.678 65.1344 194.798C65.4444 194.908 65.7644 194.963 66.0944 194.963C66.4044 194.963 66.7094 194.903 67.0094 194.783C67.3194 194.663 67.5894 194.493 67.8194 194.273C68.0494 194.053 68.2344 193.798 68.3744 193.508C68.5244 193.218 68.5994 192.898 68.5994 192.548V192.353Z" fill="#585856"/>
    <path d="M21.5844 194.004C21.8844 193.654 22.1244 193.354 22.3044 193.104C22.4844 192.854 22.6194 192.634 22.7094 192.444C22.8094 192.244 22.8744 192.069 22.9044 191.919C22.9444 191.769 22.9644 191.624 22.9644 191.484V191.364C22.9644 190.824 22.7844 190.399 22.4244 190.089C22.0744 189.769 21.5694 189.609 20.9094 189.609C20.4294 189.609 19.9794 189.724 19.5594 189.954C19.1394 190.184 18.7544 190.614 18.4044 191.244L17.5644 190.719C17.6944 190.489 17.8544 190.254 18.0444 190.014C18.2344 189.764 18.4644 189.539 18.7344 189.339C19.0044 189.139 19.3144 188.974 19.6644 188.844C20.0244 188.714 20.4294 188.649 20.8794 188.649C21.3594 188.649 21.7944 188.714 22.1844 188.844C22.5744 188.974 22.9044 189.159 23.1744 189.399C23.4444 189.629 23.6544 189.914 23.8044 190.254C23.9544 190.584 24.0294 190.949 24.0294 191.349V191.499C24.0294 191.789 23.9794 192.074 23.8794 192.354C23.7794 192.624 23.6444 192.889 23.4744 193.149C23.3144 193.409 23.1244 193.669 22.9044 193.929C22.6844 194.189 22.4594 194.454 22.2294 194.724L18.8694 198.669H24.4194V199.629H17.5494V198.729L21.5844 194.004ZM27.7735 191.574C27.7735 191.864 27.8235 192.139 27.9236 192.399C28.0235 192.659 28.1635 192.884 28.3435 193.074C28.5335 193.264 28.7585 193.414 29.0186 193.524C29.2785 193.634 29.5685 193.689 29.8885 193.689C30.2086 193.689 30.4986 193.634 30.7585 193.524C31.0185 193.414 31.2385 193.264 31.4185 193.074C31.6086 192.884 31.7536 192.659 31.8536 192.399C31.9536 192.139 32.0036 191.864 32.0036 191.574V191.394C32.0036 190.834 31.8086 190.394 31.4185 190.074C31.0386 189.744 30.5286 189.579 29.8885 189.579C29.2386 189.579 28.7236 189.744 28.3435 190.074C27.9635 190.394 27.7735 190.834 27.7735 191.394V191.574ZM27.4736 196.854C27.4736 197.134 27.5285 197.394 27.6385 197.634C27.7485 197.874 27.9085 198.084 28.1185 198.264C28.3285 198.444 28.5785 198.589 28.8685 198.699C29.1686 198.799 29.5086 198.849 29.8885 198.849C30.2686 198.849 30.6086 198.799 30.9086 198.699C31.2086 198.589 31.4586 198.444 31.6585 198.264C31.8685 198.084 32.0285 197.874 32.1386 197.634C32.2486 197.394 32.3036 197.134 32.3036 196.854V196.674C32.3036 196.354 32.2436 196.064 32.1236 195.804C32.0036 195.544 31.8385 195.319 31.6285 195.129C31.4185 194.939 31.1635 194.794 30.8635 194.694C30.5736 194.594 30.2486 194.544 29.8885 194.544C29.5386 194.544 29.2136 194.594 28.9136 194.694C28.6236 194.794 28.3686 194.939 28.1486 195.129C27.9385 195.309 27.7735 195.529 27.6535 195.789C27.5335 196.049 27.4736 196.344 27.4736 196.674V196.854ZM26.4085 196.629C26.4085 196.029 26.5885 195.504 26.9485 195.054C27.3185 194.594 27.7985 194.274 28.3885 194.094C27.8685 193.854 27.4635 193.519 27.1735 193.089C26.8935 192.659 26.7535 192.159 26.7535 191.589V191.349C26.7535 190.959 26.8285 190.599 26.9785 190.269C27.1385 189.939 27.3585 189.654 27.6385 189.414C27.9185 189.174 28.2485 188.989 28.6285 188.859C29.0186 188.719 29.4386 188.649 29.8885 188.649C30.3386 188.649 30.7536 188.719 31.1336 188.859C31.5236 188.989 31.8586 189.174 32.1386 189.414C32.4186 189.654 32.6336 189.939 32.7836 190.269C32.9435 190.599 33.0235 190.959 33.0235 191.349V191.589C33.0235 192.159 32.8785 192.659 32.5886 193.089C32.3086 193.519 31.9036 193.854 31.3736 194.094C31.6636 194.184 31.9286 194.309 32.1686 194.469C32.4186 194.629 32.6286 194.824 32.7986 195.054C32.9786 195.274 33.1186 195.519 33.2186 195.789C33.3185 196.049 33.3685 196.329 33.3685 196.629V196.884C33.3685 197.314 33.2836 197.709 33.1136 198.069C32.9536 198.429 32.7186 198.739 32.4086 198.999C32.1086 199.249 31.7436 199.444 31.3135 199.584C30.8836 199.724 30.4086 199.794 29.8885 199.794C29.3685 199.794 28.8935 199.724 28.4636 199.584C28.0335 199.444 27.6635 199.249 27.3535 198.999C27.0535 198.739 26.8185 198.429 26.6485 198.069C26.4885 197.709 26.4085 197.314 26.4085 196.884V196.629Z" fill="#585856"/>
    <path d="M241.241 167.244C241.541 166.894 241.781 166.594 241.961 166.344C242.141 166.094 242.276 165.874 242.366 165.684C242.466 165.484 242.531 165.309 242.561 165.159C242.601 165.009 242.621 164.864 242.621 164.724V164.604C242.621 164.064 242.441 163.639 242.081 163.329C241.731 163.009 241.226 162.849 240.566 162.849C240.086 162.849 239.636 162.964 239.216 163.194C238.796 163.424 238.411 163.854 238.061 164.484L237.221 163.959C237.351 163.729 237.511 163.494 237.701 163.254C237.891 163.004 238.121 162.779 238.391 162.579C238.661 162.379 238.971 162.214 239.321 162.084C239.681 161.954 240.086 161.889 240.536 161.889C241.016 161.889 241.451 161.954 241.841 162.084C242.231 162.214 242.561 162.399 242.831 162.639C243.101 162.869 243.311 163.154 243.461 163.494C243.611 163.824 243.686 164.189 243.686 164.589V164.739C243.686 165.029 243.636 165.314 243.536 165.594C243.436 165.864 243.301 166.129 243.131 166.389C242.971 166.649 242.781 166.909 242.561 167.169C242.341 167.429 242.116 167.694 241.886 167.964L238.526 171.909H244.076V172.869H237.206V171.969L241.241 167.244ZM248.84 172.869H247.655L252.05 163.014H245.975V162.054H253.22V162.864L248.84 172.869Z" fill="#585856"/>
    <path d="M204.899 167.244C205.199 166.894 205.439 166.594 205.619 166.344C205.799 166.094 205.934 165.874 206.024 165.684C206.124 165.484 206.189 165.309 206.219 165.159C206.259 165.009 206.279 164.864 206.279 164.724V164.604C206.279 164.064 206.099 163.639 205.739 163.329C205.389 163.009 204.884 162.849 204.224 162.849C203.744 162.849 203.294 162.964 202.874 163.194C202.454 163.424 202.069 163.854 201.719 164.484L200.879 163.959C201.009 163.729 201.169 163.494 201.359 163.254C201.549 163.004 201.779 162.779 202.049 162.579C202.319 162.379 202.629 162.214 202.979 162.084C203.339 161.954 203.744 161.889 204.194 161.889C204.674 161.889 205.109 161.954 205.499 162.084C205.889 162.214 206.219 162.399 206.489 162.639C206.759 162.869 206.969 163.154 207.119 163.494C207.269 163.824 207.344 164.189 207.344 164.589V164.739C207.344 165.029 207.294 165.314 207.194 165.594C207.094 165.864 206.959 166.129 206.789 166.389C206.629 166.649 206.439 166.909 206.219 167.169C205.999 167.429 205.774 167.694 205.544 167.964L202.184 171.909H207.734V172.869H200.864V171.969L204.899 167.244ZM215.948 163.479C215.608 163.279 215.243 163.124 214.853 163.014C214.473 162.894 214.073 162.834 213.653 162.834C213.143 162.834 212.713 162.939 212.363 163.149C212.013 163.349 211.723 163.644 211.493 164.034C211.263 164.424 211.088 164.904 210.968 165.474C210.848 166.034 210.768 166.674 210.728 167.394C210.808 167.234 210.923 167.064 211.073 166.884C211.233 166.704 211.423 166.539 211.643 166.389C211.873 166.239 212.138 166.119 212.438 166.029C212.738 165.929 213.078 165.879 213.458 165.879C213.918 165.879 214.353 165.954 214.763 166.104C215.183 166.254 215.548 166.474 215.858 166.764C216.178 167.044 216.428 167.394 216.608 167.814C216.798 168.224 216.893 168.694 216.893 169.224V169.584C216.893 170.114 216.803 170.594 216.623 171.024C216.443 171.444 216.193 171.804 215.873 172.104C215.563 172.404 215.188 172.634 214.748 172.794C214.318 172.954 213.853 173.034 213.353 173.034C212.843 173.034 212.363 172.944 211.913 172.764C211.473 172.594 211.088 172.329 210.758 171.969C210.428 171.609 210.168 171.154 209.978 170.604C209.788 170.044 209.693 169.389 209.693 168.639V168.279C209.693 167.119 209.783 166.134 209.963 165.324C210.153 164.514 210.418 163.854 210.758 163.344C211.098 162.834 211.513 162.464 212.003 162.234C212.493 162.004 213.048 161.889 213.668 161.889C214.158 161.889 214.638 161.954 215.108 162.084C215.588 162.214 216.033 162.394 216.443 162.624L215.948 163.479ZM210.833 169.374C210.833 169.784 210.893 170.154 211.013 170.484C211.133 170.814 211.303 171.099 211.523 171.339C211.743 171.579 212.003 171.764 212.303 171.894C212.613 172.024 212.953 172.089 213.323 172.089C213.693 172.089 214.033 172.034 214.343 171.924C214.653 171.804 214.918 171.639 215.138 171.429C215.368 171.209 215.543 170.944 215.663 170.634C215.793 170.314 215.858 169.949 215.858 169.539V169.314C215.858 168.914 215.788 168.559 215.648 168.249C215.508 167.929 215.323 167.664 215.093 167.454C214.863 167.234 214.593 167.069 214.283 166.959C213.983 166.849 213.668 166.794 213.338 166.794C213.018 166.794 212.708 166.854 212.408 166.974C212.108 167.094 211.843 167.259 211.613 167.469C211.383 167.679 211.193 167.934 211.043 168.234C210.903 168.524 210.833 168.839 210.833 169.179V169.374Z" fill="#585856"/>
    <path d="M168.558 167.244C168.858 166.894 169.098 166.594 169.278 166.344C169.458 166.094 169.593 165.874 169.683 165.684C169.783 165.484 169.848 165.309 169.878 165.159C169.918 165.009 169.938 164.864 169.938 164.724V164.604C169.938 164.064 169.758 163.639 169.398 163.329C169.048 163.009 168.543 162.849 167.883 162.849C167.403 162.849 166.953 162.964 166.533 163.194C166.113 163.424 165.728 163.854 165.378 164.484L164.538 163.959C164.668 163.729 164.828 163.494 165.018 163.254C165.208 163.004 165.438 162.779 165.708 162.579C165.978 162.379 166.288 162.214 166.638 162.084C166.998 161.954 167.403 161.889 167.853 161.889C168.333 161.889 168.768 161.954 169.158 162.084C169.548 162.214 169.878 162.399 170.148 162.639C170.418 162.869 170.628 163.154 170.778 163.494C170.928 163.824 171.003 164.189 171.003 164.589V164.739C171.003 165.029 170.953 165.314 170.853 165.594C170.753 165.864 170.618 166.129 170.448 166.389C170.288 166.649 170.098 166.909 169.878 167.169C169.658 167.429 169.433 167.694 169.203 167.964L165.843 171.909H171.393V172.869H164.523V171.969L168.558 167.244ZM179.487 169.614C179.487 168.744 179.272 168.114 178.842 167.724C178.422 167.324 177.822 167.124 177.042 167.124C176.582 167.124 176.172 167.209 175.812 167.379C175.452 167.549 175.152 167.749 174.912 167.979H173.922L174.267 162.054H179.832V163.014H175.197L175.032 166.944C175.272 166.714 175.597 166.529 176.007 166.389C176.417 166.249 176.847 166.179 177.297 166.179C177.827 166.179 178.292 166.269 178.692 166.449C179.102 166.619 179.442 166.854 179.712 167.154C179.982 167.454 180.182 167.814 180.312 168.234C180.452 168.644 180.522 169.089 180.522 169.569V169.794C180.522 170.184 180.457 170.574 180.327 170.964C180.197 171.344 179.987 171.689 179.697 171.999C179.417 172.299 179.042 172.544 178.572 172.734C178.102 172.934 177.532 173.034 176.862 173.034C176.122 173.034 175.472 172.924 174.912 172.704C174.352 172.494 173.832 172.204 173.352 171.834L173.892 170.979C174.412 171.379 174.907 171.664 175.377 171.834C175.857 171.994 176.352 172.074 176.862 172.074C177.342 172.074 177.747 172.004 178.077 171.864C178.417 171.714 178.692 171.529 178.902 171.309C179.112 171.089 179.262 170.849 179.352 170.589C179.442 170.319 179.487 170.059 179.487 169.809V169.614Z" fill="#585856"/>
    <path d="M132.217 167.244C132.517 166.894 132.757 166.594 132.937 166.344C133.117 166.094 133.252 165.874 133.342 165.684C133.442 165.484 133.507 165.309 133.537 165.159C133.577 165.009 133.597 164.864 133.597 164.724V164.604C133.597 164.064 133.417 163.639 133.057 163.329C132.707 163.009 132.202 162.849 131.542 162.849C131.062 162.849 130.612 162.964 130.192 163.194C129.772 163.424 129.387 163.854 129.037 164.484L128.197 163.959C128.327 163.729 128.487 163.494 128.677 163.254C128.867 163.004 129.097 162.779 129.367 162.579C129.637 162.379 129.947 162.214 130.297 162.084C130.657 161.954 131.062 161.889 131.512 161.889C131.992 161.889 132.427 161.954 132.817 162.084C133.207 162.214 133.537 162.399 133.807 162.639C134.077 162.869 134.287 163.154 134.437 163.494C134.587 163.824 134.662 164.189 134.662 164.589V164.739C134.662 165.029 134.612 165.314 134.512 165.594C134.412 165.864 134.277 166.129 134.107 166.389C133.947 166.649 133.757 166.909 133.537 167.169C133.317 167.429 133.092 167.694 132.862 167.964L129.502 171.909H135.052V172.869H128.182V171.969L132.217 167.244ZM143.071 166.104V169.509H144.661V170.469H143.071V172.869H142.021V170.469H136.606V169.509L141.856 162.054H143.056L137.821 169.509H142.021V166.104H143.071Z" fill="#585856"/>
    <path d="M95.8764 167.254C96.1764 166.904 96.4164 166.604 96.5964 166.354C96.7764 166.104 96.9114 165.884 97.0014 165.694C97.1014 165.494 97.1664 165.319 97.1964 165.169C97.2364 165.019 97.2564 164.874 97.2564 164.734V164.614C97.2564 164.074 97.0764 163.649 96.7164 163.339C96.3664 163.019 95.8614 162.859 95.2014 162.859C94.7214 162.859 94.2714 162.974 93.8514 163.204C93.4314 163.434 93.0464 163.864 92.6964 164.494L91.8564 163.969C91.9864 163.739 92.1464 163.504 92.3364 163.264C92.5264 163.014 92.7564 162.789 93.0264 162.589C93.2964 162.389 93.6064 162.224 93.9564 162.094C94.3164 161.964 94.7214 161.899 95.1714 161.899C95.6514 161.899 96.0864 161.964 96.4764 162.094C96.8664 162.224 97.1964 162.409 97.4664 162.649C97.7364 162.879 97.9464 163.164 98.0964 163.504C98.2464 163.834 98.3214 164.199 98.3214 164.599V164.749C98.3214 165.039 98.2714 165.324 98.1714 165.604C98.0714 165.874 97.9364 166.139 97.7664 166.399C97.6064 166.659 97.4164 166.919 97.1964 167.179C96.9764 167.439 96.7514 167.704 96.5214 167.974L93.1614 171.919H98.7114V172.879H91.8414V171.979L95.8764 167.254ZM100.941 163.579C101.071 163.359 101.231 163.149 101.421 162.949C101.611 162.749 101.831 162.574 102.081 162.424C102.341 162.264 102.631 162.139 102.951 162.049C103.281 161.949 103.651 161.899 104.061 161.899C104.551 161.899 104.991 161.964 105.381 162.094C105.781 162.224 106.116 162.409 106.386 162.649C106.666 162.879 106.881 163.164 107.031 163.504C107.181 163.834 107.256 164.199 107.256 164.599V164.749C107.256 164.959 107.226 165.184 107.166 165.424C107.106 165.654 107.006 165.879 106.866 166.099C106.726 166.319 106.536 166.524 106.296 166.714C106.056 166.904 105.756 167.059 105.396 167.179C106.146 167.309 106.711 167.604 107.091 168.064C107.481 168.524 107.676 169.069 107.676 169.699V169.924C107.676 170.314 107.611 170.694 107.481 171.064C107.351 171.434 107.141 171.769 106.851 172.069C106.571 172.359 106.196 172.594 105.726 172.774C105.266 172.954 104.706 173.044 104.046 173.044C103.416 173.044 102.806 172.944 102.216 172.744C101.636 172.554 101.091 172.254 100.581 171.844L101.106 171.004C101.636 171.384 102.131 171.659 102.591 171.829C103.061 171.999 103.546 172.084 104.046 172.084C104.516 172.084 104.916 172.019 105.246 171.889C105.576 171.759 105.841 171.594 106.041 171.394C106.251 171.184 106.401 170.954 106.491 170.704C106.591 170.444 106.641 170.189 106.641 169.939V169.744C106.641 169.334 106.556 168.999 106.386 168.739C106.226 168.469 106.021 168.259 105.771 168.109C105.531 167.949 105.261 167.839 104.961 167.779C104.671 167.719 104.396 167.689 104.136 167.689H102.921V166.789H104.181C104.521 166.789 104.816 166.729 105.066 166.609C105.316 166.479 105.521 166.314 105.681 166.114C105.851 165.914 105.976 165.694 106.056 165.454C106.146 165.204 106.191 164.964 106.191 164.734V164.614C106.191 164.074 106.001 163.649 105.621 163.339C105.251 163.019 104.736 162.859 104.076 162.859C103.646 162.859 103.231 162.949 102.831 163.129C102.431 163.299 102.076 163.629 101.766 164.119L100.941 163.579Z" fill="#585856"/>
    <path d="M92.5948 190.328C92.7248 190.108 92.8848 189.898 93.0748 189.698C93.2648 189.498 93.4848 189.323 93.7348 189.173C93.9948 189.013 94.2848 188.888 94.6048 188.798C94.9348 188.698 95.3048 188.648 95.7148 188.648C96.2048 188.648 96.6448 188.713 97.0348 188.843C97.4348 188.973 97.7698 189.158 98.0398 189.398C98.3198 189.628 98.5348 189.913 98.6848 190.253C98.8348 190.583 98.9098 190.948 98.9098 191.348V191.498C98.9098 191.708 98.8798 191.933 98.8198 192.173C98.7598 192.403 98.6598 192.628 98.5198 192.848C98.3798 193.068 98.1898 193.273 97.9498 193.463C97.7098 193.653 97.4098 193.808 97.0498 193.928C97.7998 194.058 98.3648 194.353 98.7448 194.813C99.1348 195.273 99.3298 195.818 99.3298 196.448V196.673C99.3298 197.063 99.2648 197.443 99.1348 197.813C99.0048 198.183 98.7948 198.518 98.5048 198.818C98.2248 199.108 97.8498 199.343 97.3798 199.523C96.9198 199.703 96.3598 199.793 95.6998 199.793C95.0698 199.793 94.4598 199.693 93.8698 199.493C93.2898 199.303 92.7448 199.003 92.2348 198.593L92.7598 197.753C93.2898 198.133 93.7848 198.408 94.2448 198.578C94.7148 198.748 95.1998 198.833 95.6998 198.833C96.1698 198.833 96.5698 198.768 96.8998 198.638C97.2298 198.508 97.4948 198.343 97.6948 198.143C97.9048 197.933 98.0548 197.703 98.1448 197.453C98.2448 197.193 98.2948 196.938 98.2948 196.688V196.493C98.2948 196.083 98.2098 195.748 98.0398 195.488C97.8798 195.218 97.6748 195.008 97.4248 194.858C97.1848 194.698 96.9148 194.588 96.6148 194.528C96.3248 194.468 96.0498 194.438 95.7898 194.438H94.5748V193.538H95.8348C96.1748 193.538 96.4698 193.478 96.7198 193.358C96.9698 193.228 97.1748 193.063 97.3348 192.863C97.5048 192.663 97.6298 192.443 97.7098 192.203C97.7998 191.953 97.8448 191.713 97.8448 191.483V191.363C97.8448 190.823 97.6548 190.398 97.2748 190.088C96.9048 189.768 96.3898 189.608 95.7298 189.608C95.2998 189.608 94.8848 189.698 94.4848 189.878C94.0848 190.048 93.7298 190.378 93.4198 190.868L92.5948 190.328ZM108.504 195.053C108.504 196.583 108.214 197.758 107.634 198.578C107.054 199.388 106.114 199.793 104.814 199.793C103.534 199.793 102.604 199.383 102.024 198.563C101.444 197.743 101.154 196.573 101.154 195.053V193.373C101.154 191.863 101.449 190.698 102.039 189.878C102.629 189.058 103.554 188.648 104.814 188.648C106.094 188.648 107.029 189.058 107.619 189.878C108.209 190.688 108.504 191.853 108.504 193.373V195.053ZM107.424 193.358C107.424 192.018 107.204 191.058 106.764 190.478C106.334 189.888 105.684 189.593 104.814 189.593C103.984 189.593 103.344 189.888 102.894 190.478C102.454 191.068 102.234 192.028 102.234 193.358V195.068C102.234 196.408 102.454 197.373 102.894 197.963C103.344 198.553 103.984 198.848 104.814 198.848C105.674 198.848 106.324 198.558 106.764 197.978C107.204 197.388 107.424 196.418 107.424 195.068V193.358Z" fill="#585856"/>
    <path d="M128.936 190.314C129.066 190.094 129.226 189.884 129.416 189.684C129.606 189.484 129.826 189.309 130.076 189.159C130.336 188.999 130.626 188.874 130.946 188.784C131.276 188.684 131.646 188.634 132.056 188.634C132.546 188.634 132.986 188.699 133.376 188.829C133.776 188.959 134.111 189.144 134.381 189.384C134.661 189.614 134.876 189.899 135.026 190.239C135.176 190.569 135.251 190.934 135.251 191.334V191.484C135.251 191.694 135.221 191.919 135.161 192.159C135.101 192.389 135.001 192.614 134.861 192.834C134.721 193.054 134.531 193.259 134.291 193.449C134.051 193.639 133.751 193.794 133.391 193.914C134.141 194.044 134.706 194.339 135.086 194.799C135.476 195.259 135.671 195.804 135.671 196.434V196.659C135.671 197.049 135.606 197.429 135.476 197.799C135.346 198.169 135.136 198.504 134.846 198.804C134.566 199.094 134.191 199.329 133.721 199.509C133.261 199.689 132.701 199.779 132.041 199.779C131.411 199.779 130.801 199.679 130.211 199.479C129.631 199.289 129.086 198.989 128.576 198.579L129.101 197.739C129.631 198.119 130.126 198.394 130.586 198.564C131.056 198.734 131.541 198.819 132.041 198.819C132.511 198.819 132.911 198.754 133.241 198.624C133.571 198.494 133.836 198.329 134.036 198.129C134.246 197.919 134.396 197.689 134.486 197.439C134.586 197.179 134.636 196.924 134.636 196.674V196.479C134.636 196.069 134.551 195.734 134.381 195.474C134.221 195.204 134.016 194.994 133.766 194.844C133.526 194.684 133.256 194.574 132.956 194.514C132.666 194.454 132.391 194.424 132.131 194.424H130.916V193.524H132.176C132.516 193.524 132.811 193.464 133.061 193.344C133.311 193.214 133.516 193.049 133.676 192.849C133.846 192.649 133.971 192.429 134.051 192.189C134.141 191.939 134.186 191.699 134.186 191.469V191.349C134.186 190.809 133.996 190.384 133.616 190.074C133.246 189.754 132.731 189.594 132.071 189.594C131.641 189.594 131.226 189.684 130.826 189.864C130.426 190.034 130.071 190.364 129.761 190.854L128.936 190.314ZM141.335 199.614V190.119L138.725 191.709L138.245 190.869L141.59 188.799H142.385V199.614H141.335Z" fill="#585856"/>
    <path d="M21.2976 63.5718V60.5478H26.9856V59.4798H21.2376V58.4958H28.1496V61.5078H22.4616V62.5878H28.4616V63.5718H21.2976ZM26.9736 57.9438V52.4358H28.1496V57.9438H26.9736ZM22.1256 52.5918C22.5736 52.5918 22.9696 52.6598 23.3136 52.7958C23.6576 52.9318 23.9456 53.1078 24.1776 53.3238C24.4096 53.5398 24.5816 53.7838 24.6936 54.0558C24.8136 54.3278 24.8736 54.5998 24.8736 54.8718V55.3518C24.8736 55.6318 24.8136 55.9078 24.6936 56.1798C24.5816 56.4518 24.4096 56.6958 24.1776 56.9118C23.9456 57.1278 23.6576 57.3038 23.3136 57.4398C22.9696 57.5678 22.5736 57.6318 22.1256 57.6318C21.6776 57.6318 21.2816 57.5678 20.9376 57.4398C20.5936 57.3038 20.3056 57.1278 20.0736 56.9118C19.8416 56.6958 19.6656 56.4518 19.5456 56.1798C19.4336 55.9078 19.3776 55.6318 19.3776 55.3518V54.8718C19.3776 54.5998 19.4336 54.3278 19.5456 54.0558C19.6656 53.7838 19.8416 53.5398 20.0736 53.3238C20.3056 53.1078 20.5936 52.9318 20.9376 52.7958C21.2816 52.6598 21.6776 52.5918 22.1256 52.5918ZM22.1256 56.6118C22.3816 56.6118 22.6096 56.5758 22.8096 56.5038C23.0096 56.4238 23.1776 56.3238 23.3136 56.2038C23.4496 56.0758 23.5536 55.9318 23.6256 55.7718C23.6976 55.6118 23.7336 55.4478 23.7336 55.2798V54.9438C23.7336 54.7758 23.6976 54.6118 23.6256 54.4518C23.5536 54.2918 23.4496 54.1518 23.3136 54.0318C23.1776 53.9118 23.0096 53.8158 22.8096 53.7438C22.6096 53.6638 22.3816 53.6238 22.1256 53.6238C21.8696 53.6238 21.6416 53.6598 21.4416 53.7318C21.2416 53.8038 21.0736 53.9038 20.9376 54.0318C20.8016 54.1518 20.6976 54.2918 20.6256 54.4518C20.5536 54.6118 20.5176 54.7758 20.5176 54.9438V55.2798C20.5176 55.4478 20.5536 55.6118 20.6256 55.7718C20.6976 55.9318 20.8016 56.0758 20.9376 56.2038C21.0736 56.3238 21.2416 56.4238 21.4416 56.5038C21.6416 56.5758 21.8696 56.6118 22.1256 56.6118Z" fill="#F57521"/>
    <path d="M57.3747 63.5718V61.0158H63.3987V60.3678H57.3147V59.4078H64.5627V61.9398H58.4907V62.6118H64.8867V63.5718H57.3747ZM58.9707 56.1198C58.1147 56.1198 57.4467 55.9678 56.9667 55.6638C56.4947 55.3518 56.2587 54.9558 56.2587 54.4758V54.1638C56.2587 53.9238 56.3187 53.7038 56.4387 53.5038C56.5667 53.3038 56.7467 53.1318 56.9787 52.9878C57.2107 52.8358 57.4947 52.7198 57.8307 52.6398C58.1667 52.5598 58.5467 52.5198 58.9707 52.5198C59.8267 52.5278 60.4907 52.6838 60.9627 52.9878C61.4427 53.2918 61.6827 53.6838 61.6827 54.1638V54.4758C61.6827 54.9558 61.4427 55.3518 60.9627 55.6638C60.4907 55.9678 59.8267 56.1198 58.9707 56.1198ZM63.3867 58.9998V58.6278H61.0467V57.7158H63.3867V52.4358H64.5627V58.9998H63.3867ZM58.2627 58.9758V57.4878C57.8707 57.5038 57.4507 57.5118 57.0027 57.5118C56.5547 57.5118 56.0627 57.5118 55.5267 57.5118V56.5638C56.3987 56.5638 57.1547 56.5598 57.7947 56.5518C58.4427 56.5438 59.0347 56.5318 59.5707 56.5158C60.1067 56.4918 60.6107 56.4638 61.0827 56.4318C61.5627 56.3998 62.0667 56.3598 62.5947 56.3118L62.6907 57.2238C62.1627 57.2798 61.6427 57.3278 61.1307 57.3678C60.6267 57.3998 60.0627 57.4278 59.4387 57.4518V58.9758H58.2627ZM58.9707 55.1238C59.5227 55.1238 59.9227 55.0558 60.1707 54.9198C60.4267 54.7758 60.5547 54.6078 60.5547 54.4158V54.2238C60.5547 54.0318 60.4267 53.8678 60.1707 53.7318C59.9227 53.5958 59.5227 53.5278 58.9707 53.5278C58.4187 53.5278 58.0147 53.5958 57.7587 53.7318C57.5107 53.8678 57.3867 54.0318 57.3867 54.2238V54.4158C57.3867 54.6078 57.5107 54.7758 57.7587 54.9198C58.0147 55.0558 58.4187 55.1238 58.9707 55.1238Z" fill="#F57521"/>
    <path d="M98.7918 61.1958C98.2958 61.2438 97.8238 61.2878 97.3758 61.3278C96.9278 61.3598 96.4398 61.3878 95.9118 61.4118C95.3918 61.4358 94.7958 61.4558 94.1238 61.4718C93.4518 61.4798 92.6438 61.4838 91.6998 61.4838V60.4758C92.2918 60.4758 92.8278 60.4758 93.3078 60.4758C93.7878 60.4758 94.2318 60.4678 94.6398 60.4518V59.3598C94.3038 59.3198 93.9998 59.2398 93.7278 59.1198C93.4638 58.9998 93.2398 58.8558 93.0558 58.6878C92.8718 58.5198 92.7318 58.3358 92.6358 58.1358C92.5398 57.9278 92.4918 57.7158 92.4918 57.4998V57.0438C92.4918 56.8038 92.5518 56.5718 92.6718 56.3478C92.7998 56.1158 92.9758 55.9118 93.1998 55.7358C93.4318 55.5598 93.7118 55.4198 94.0398 55.3158C94.3758 55.2118 94.7518 55.1598 95.1678 55.1598C95.5838 55.1598 95.9558 55.2118 96.2838 55.3158C96.6198 55.4198 96.8998 55.5598 97.1238 55.7358C97.3558 55.9118 97.5318 56.1158 97.6518 56.3478C97.7798 56.5718 97.8438 56.8038 97.8438 57.0438V57.4998C97.8438 57.9238 97.6638 58.3118 97.3038 58.6638C96.9518 59.0078 96.4558 59.2318 95.8158 59.3358V60.4158C96.3518 60.3998 96.8438 60.3758 97.2918 60.3438C97.7478 60.3038 98.2158 60.2638 98.6958 60.2238L98.7918 61.1958ZM99.3438 63.4998V52.4358H100.52V56.8638H102.176V57.8958H100.52V63.4998H99.3438ZM98.2878 54.7038H91.9278V53.6838H94.5798V52.3518H95.7558V53.6838H98.2878V54.7038ZM95.1678 58.4118C95.6558 58.4118 96.0318 58.3078 96.2958 58.0998C96.5598 57.8918 96.6918 57.6558 96.6918 57.3918V57.1518C96.6918 56.8878 96.5558 56.6518 96.2838 56.4438C96.0198 56.2358 95.6478 56.1318 95.1678 56.1318C94.6798 56.1318 94.3038 56.2358 94.0398 56.4438C93.7758 56.6518 93.6438 56.8878 93.6438 57.1518V57.3918C93.6438 57.6558 93.7758 57.8918 94.0398 58.0998C94.3118 58.3078 94.6878 58.4118 95.1678 58.4118Z" fill="#F57521"/>
    <path d="M132.481 63.4998V59.6958H128.005V58.6878H138.157V59.6958H133.681V63.4998H132.481ZM134.413 56.5878C134.013 56.3878 133.709 56.2118 133.501 56.0598C133.301 55.9078 133.161 55.7638 133.081 55.6278H133.069C132.997 55.7638 132.857 55.9118 132.649 56.0718C132.441 56.2238 132.137 56.3998 131.737 56.5998C131.409 56.7598 131.025 56.9398 130.585 57.1398C130.145 57.3398 129.677 57.5358 129.181 57.7278L128.713 56.7558C129.161 56.5878 129.617 56.4038 130.081 56.2038C130.545 55.9958 130.969 55.7878 131.353 55.5798C131.553 55.4678 131.725 55.3558 131.869 55.2438C132.013 55.1318 132.129 55.0078 132.217 54.8718C132.313 54.7278 132.381 54.5718 132.421 54.4038C132.461 54.2278 132.481 54.0278 132.481 53.8038V52.8198H133.669V53.8038C133.669 54.0278 133.689 54.2278 133.729 54.4038C133.769 54.5718 133.833 54.7278 133.921 54.8718C134.009 55.0078 134.121 55.1318 134.257 55.2438C134.401 55.3558 134.577 55.4678 134.785 55.5798C135.169 55.7878 135.593 55.9958 136.057 56.2038C136.521 56.4038 136.977 56.5878 137.425 56.7558L136.969 57.7158C136.473 57.5238 136.005 57.3278 135.565 57.1278C135.125 56.9278 134.741 56.7478 134.413 56.5878Z" fill="#F57521"/>
    <path d="M173.022 56.7798H170.022V57.9078H174.498V58.9158H164.346V57.9078H168.822V56.7798H165.822V52.8198H173.022V56.7798ZM165.654 59.9718H173.082V63.6078H171.894V60.9798H165.654V59.9718ZM171.846 53.8158H166.998V55.7838H171.846V53.8158Z" fill="#F57521"/>
    <path d="M209.387 63.4878H202.139V59.2878H209.387V63.4878ZM202.007 52.9038H209.315V54.6078C209.315 54.9438 209.295 55.3238 209.255 55.7478C209.215 56.1638 209.155 56.5798 209.075 56.9958H210.839V58.0038H200.687V56.9958H207.851C207.947 56.5558 208.015 56.1318 208.055 55.7238C208.095 55.3078 208.115 54.9198 208.115 54.5598V53.9118H202.007V52.9038ZM208.211 60.2838H203.315V62.4918H208.211V60.2838Z" fill="#F57521"/>
    <path d="M245.62 56.6838H239.572V58.1358H245.872V59.1438H242.692V61.0158H247.18V62.0238H237.028V61.0158H241.516V59.1438H238.396V53.2398H245.704V54.2478H239.572V55.6998H245.62V56.6838Z" fill="#F57521"/>
</svg>
