<svg width="266" height="220" viewBox="0 0 266 220" fill="none" xmlns="http://www.w3.org/2000/svg">
    <rect x="1.66309" y="1.87207" width="262.489" height="216.576" rx="18.5" fill="white" stroke="#F57521" stroke-width="3"/>
    <path d="M0.163086 20.3721C0.163086 9.32638 9.11739 0.37207 20.1631 0.37207H245.652C256.698 0.37207 265.652 9.32638 265.652 20.3721V48.0625H0.163086V20.3721Z" fill="#F57521"/>
    <path d="M126.552 26.7882C126.552 27.4549 126.435 28.1299 126.202 28.8132C125.969 29.4799 125.602 30.0882 125.102 30.6382C124.602 31.1882 123.952 31.6299 123.152 31.9632C122.352 32.3132 121.394 32.4882 120.277 32.4882C119.044 32.4882 117.927 32.3216 116.927 31.9882C115.927 31.6716 115.002 31.1716 114.152 30.4882L115.377 28.5132C116.244 29.1966 117.069 29.6549 117.852 29.8882C118.652 30.1216 119.477 30.2382 120.327 30.2382C120.977 30.2382 121.535 30.1382 122.002 29.9382C122.485 29.7382 122.877 29.4799 123.177 29.1632C123.494 28.8299 123.719 28.4549 123.852 28.0382C124.002 27.6216 124.077 27.2049 124.077 26.7882V26.4882C124.077 25.2882 123.76 24.3966 123.127 23.8132C122.494 23.2132 121.602 22.9132 120.452 22.9132C119.685 22.9132 119.002 23.0549 118.402 23.3382C117.819 23.6216 117.327 23.9549 116.927 24.3382H115.027L115.602 14.1882H125.377V16.3132H117.852L117.577 21.9382C117.977 21.6382 118.485 21.3799 119.102 21.1632C119.735 20.9466 120.427 20.8382 121.177 20.8382C122.027 20.8382 122.785 20.9882 123.452 21.2882C124.119 21.5716 124.677 21.9716 125.127 22.4882C125.594 22.9882 125.944 23.5799 126.177 24.2632C126.427 24.9299 126.552 25.6466 126.552 26.4132V26.7882ZM132.286 35.2132V29.8882H144.836V28.5382H132.161V26.5382H147.261V31.8132H134.611V33.2132H147.936V35.2132H132.286ZM135.611 19.6882C133.828 19.6882 132.436 19.3716 131.436 18.7382C130.453 18.0882 129.961 17.2632 129.961 16.2632V15.6132C129.961 15.1132 130.086 14.6549 130.336 14.2382C130.603 13.8216 130.978 13.4632 131.461 13.1632C131.944 12.8466 132.536 12.6049 133.236 12.4382C133.936 12.2716 134.728 12.1882 135.611 12.1882C137.394 12.2049 138.778 12.5299 139.761 13.1632C140.761 13.7966 141.261 14.6132 141.261 15.6132V16.2632C141.261 17.2632 140.761 18.0882 139.761 18.7382C138.778 19.3716 137.394 19.6882 135.611 19.6882ZM144.811 25.6882V24.9132H139.936V23.0132H144.811V12.0132H147.261V25.6882H144.811ZM134.136 25.6382V22.5382C133.319 22.5716 132.444 22.5882 131.511 22.5882C130.578 22.5882 129.553 22.5882 128.436 22.5882V20.6132C130.253 20.6132 131.828 20.6049 133.161 20.5882C134.511 20.5716 135.744 20.5466 136.861 20.5132C137.978 20.4632 139.028 20.4049 140.011 20.3382C141.011 20.2716 142.061 20.1882 143.161 20.0882L143.361 21.9882C142.261 22.1049 141.178 22.2049 140.111 22.2882C139.061 22.3549 137.886 22.4132 136.586 22.4632V25.6382H134.136ZM135.611 17.6132C136.761 17.6132 137.594 17.4716 138.111 17.1882C138.644 16.8882 138.911 16.5382 138.911 16.1382V15.7382C138.911 15.3382 138.644 14.9966 138.111 14.7132C137.594 14.4299 136.761 14.2882 135.611 14.2882C134.461 14.2882 133.619 14.4299 133.086 14.7132C132.569 14.9966 132.311 15.3382 132.311 15.7382V16.1382C132.311 16.5382 132.569 16.8882 133.086 17.1882C133.619 17.4716 134.461 17.6132 135.611 17.6132Z" fill="white"/>
    <path d="M46.4688 139.891C46.4688 134.368 50.9459 129.891 56.4688 129.891H257.649V152.711H56.4687C50.9459 152.711 46.4688 148.234 46.4688 142.711V139.891Z" fill="#F57521"/>
    <path d="M13.3511 155.711H34.5205C40.0434 155.711 44.5205 160.188 44.5205 165.711V168.532C44.5205 174.055 40.0434 178.532 34.5205 178.532H13.3511V155.711Z" fill="#F57521"/>
    <path d="M61.4544 92.6322V83.1372L58.8444 84.7272L58.3644 83.8872L61.7094 81.8172H62.5044V92.6322H61.4544Z" fill="#585856"/>
    <path d="M58.7316 111.326C58.7316 111.616 58.7816 111.891 58.8816 112.151C58.9816 112.411 59.1216 112.636 59.3016 112.826C59.4916 113.016 59.7166 113.166 59.9766 113.276C60.2366 113.386 60.5266 113.441 60.8466 113.441C61.1666 113.441 61.4566 113.386 61.7166 113.276C61.9766 113.166 62.1966 113.016 62.3766 112.826C62.5666 112.636 62.7116 112.411 62.8116 112.151C62.9116 111.891 62.9616 111.616 62.9616 111.326V111.146C62.9616 110.586 62.7666 110.146 62.3766 109.826C61.9966 109.496 61.4866 109.331 60.8466 109.331C60.1966 109.331 59.6816 109.496 59.3016 109.826C58.9216 110.146 58.7316 110.586 58.7316 111.146V111.326ZM58.4316 116.606C58.4316 116.886 58.4866 117.146 58.5966 117.386C58.7066 117.626 58.8666 117.836 59.0766 118.016C59.2866 118.196 59.5366 118.341 59.8266 118.451C60.1266 118.551 60.4666 118.601 60.8466 118.601C61.2266 118.601 61.5666 118.551 61.8666 118.451C62.1666 118.341 62.4166 118.196 62.6166 118.016C62.8266 117.836 62.9866 117.626 63.0966 117.386C63.2066 117.146 63.2616 116.886 63.2616 116.606V116.426C63.2616 116.106 63.2016 115.816 63.0816 115.556C62.9616 115.296 62.7966 115.071 62.5866 114.881C62.3766 114.691 62.1216 114.546 61.8216 114.446C61.5316 114.346 61.2066 114.296 60.8466 114.296C60.4966 114.296 60.1716 114.346 59.8716 114.446C59.5816 114.546 59.3266 114.691 59.1066 114.881C58.8966 115.061 58.7316 115.281 58.6116 115.541C58.4916 115.801 58.4316 116.096 58.4316 116.426V116.606ZM57.3666 116.381C57.3666 115.781 57.5466 115.256 57.9066 114.806C58.2766 114.346 58.7566 114.026 59.3466 113.846C58.8266 113.606 58.4216 113.271 58.1316 112.841C57.8516 112.411 57.7116 111.911 57.7116 111.341V111.101C57.7116 110.711 57.7866 110.351 57.9366 110.021C58.0966 109.691 58.3166 109.406 58.5966 109.166C58.8766 108.926 59.2066 108.741 59.5866 108.611C59.9766 108.471 60.3966 108.401 60.8466 108.401C61.2966 108.401 61.7116 108.471 62.0916 108.611C62.4816 108.741 62.8166 108.926 63.0966 109.166C63.3766 109.406 63.5916 109.691 63.7416 110.021C63.9016 110.351 63.9816 110.711 63.9816 111.101V111.341C63.9816 111.911 63.8366 112.411 63.5466 112.841C63.2666 113.271 62.8616 113.606 62.3316 113.846C62.6216 113.936 62.8866 114.061 63.1266 114.221C63.3766 114.381 63.5866 114.576 63.7566 114.806C63.9366 115.026 64.0766 115.271 64.1766 115.541C64.2766 115.801 64.3266 116.081 64.3266 116.381V116.636C64.3266 117.066 64.2416 117.461 64.0716 117.821C63.9116 118.181 63.6766 118.491 63.3666 118.751C63.0666 119.001 62.7016 119.196 62.2716 119.336C61.8416 119.476 61.3666 119.546 60.8466 119.546C60.3266 119.546 59.8516 119.476 59.4216 119.336C58.9916 119.196 58.6216 119.001 58.3116 118.751C58.0116 118.491 57.7766 118.181 57.6066 117.821C57.4466 117.461 57.3666 117.066 57.3666 116.636V116.381Z" fill="#585856"/>
    <path d="M23.8007 119.392H22.6157L27.0107 109.537H20.9357V108.577H28.1807V109.387L23.8007 119.392Z" fill="#585856"/>
    <path d="M246.183 83.2422C245.843 83.0422 245.478 82.8872 245.088 82.7772C244.708 82.6572 244.308 82.5972 243.888 82.5972C243.378 82.5972 242.948 82.7022 242.598 82.9122C242.248 83.1122 241.958 83.4072 241.728 83.7972C241.498 84.1872 241.323 84.6672 241.203 85.2372C241.083 85.7972 241.003 86.4372 240.963 87.1572C241.043 86.9972 241.158 86.8272 241.308 86.6472C241.468 86.4672 241.658 86.3022 241.878 86.1522C242.108 86.0022 242.373 85.8822 242.673 85.7922C242.973 85.6922 243.313 85.6422 243.693 85.6422C244.153 85.6422 244.588 85.7172 244.998 85.8672C245.418 86.0172 245.783 86.2372 246.093 86.5272C246.413 86.8072 246.663 87.1572 246.843 87.5772C247.033 87.9872 247.128 88.4572 247.128 88.9872V89.3472C247.128 89.8772 247.038 90.3572 246.858 90.7872C246.678 91.2072 246.428 91.5672 246.108 91.8672C245.798 92.1672 245.423 92.3972 244.983 92.5572C244.553 92.7172 244.088 92.7972 243.588 92.7972C243.078 92.7972 242.598 92.7072 242.148 92.5272C241.708 92.3572 241.323 92.0922 240.993 91.7322C240.663 91.3722 240.403 90.9172 240.213 90.3672C240.023 89.8072 239.928 89.1522 239.928 88.4022V88.0422C239.928 86.8822 240.018 85.8972 240.198 85.0872C240.388 84.2772 240.653 83.6172 240.993 83.1072C241.333 82.5972 241.748 82.2272 242.238 81.9972C242.728 81.7672 243.283 81.6522 243.903 81.6522C244.393 81.6522 244.873 81.7172 245.343 81.8472C245.823 81.9772 246.268 82.1572 246.678 82.3872L246.183 83.2422ZM241.068 89.1372C241.068 89.5472 241.128 89.9172 241.248 90.2472C241.368 90.5772 241.538 90.8622 241.758 91.1022C241.978 91.3422 242.238 91.5272 242.538 91.6572C242.848 91.7872 243.188 91.8522 243.558 91.8522C243.928 91.8522 244.268 91.7972 244.578 91.6872C244.888 91.5672 245.153 91.4022 245.373 91.1922C245.603 90.9722 245.778 90.7072 245.898 90.3972C246.028 90.0772 246.093 89.7122 246.093 89.3022V89.0772C246.093 88.6772 246.023 88.3222 245.883 88.0122C245.743 87.6922 245.558 87.4272 245.328 87.2172C245.098 86.9972 244.828 86.8322 244.518 86.7222C244.218 86.6122 243.903 86.5572 243.573 86.5572C243.253 86.5572 242.943 86.6172 242.643 86.7372C242.343 86.8572 242.078 87.0222 241.848 87.2322C241.618 87.4422 241.428 87.6972 241.278 87.9972C241.138 88.2872 241.068 88.6022 241.068 88.9422V89.1372Z" fill="#585856"/>
    <path d="M209.722 89.3772C209.722 88.5072 209.507 87.8772 209.077 87.4872C208.657 87.0872 208.057 86.8872 207.277 86.8872C206.817 86.8872 206.407 86.9722 206.047 87.1422C205.687 87.3122 205.387 87.5122 205.147 87.7422H204.157L204.502 81.8172H210.067V82.7772H205.432L205.267 86.7072C205.507 86.4772 205.832 86.2922 206.242 86.1522C206.652 86.0122 207.082 85.9422 207.532 85.9422C208.062 85.9422 208.527 86.0322 208.927 86.2122C209.337 86.3822 209.677 86.6172 209.947 86.9172C210.217 87.2172 210.417 87.5772 210.547 87.9972C210.687 88.4072 210.757 88.8522 210.757 89.3322V89.5572C210.757 89.9472 210.692 90.3372 210.562 90.7272C210.432 91.1072 210.222 91.4522 209.932 91.7622C209.652 92.0622 209.277 92.3072 208.807 92.4972C208.337 92.6972 207.767 92.7972 207.097 92.7972C206.357 92.7972 205.707 92.6872 205.147 92.4672C204.587 92.2572 204.067 91.9672 203.587 91.5972L204.127 90.7422C204.647 91.1422 205.142 91.4272 205.612 91.5972C206.092 91.7572 206.587 91.8372 207.097 91.8372C207.577 91.8372 207.982 91.7672 208.312 91.6272C208.652 91.4772 208.927 91.2922 209.137 91.0722C209.347 90.8522 209.497 90.6122 209.587 90.3522C209.677 90.0822 209.722 89.8222 209.722 89.5722V89.3772Z" fill="#585856"/>
    <path d="M173.305 85.8672V89.2722H174.895V90.2322H173.305V92.6322H172.255V90.2322H166.84V89.2722L172.09 81.8172H173.29L168.055 89.2722H172.255V85.8672H173.305Z" fill="#585856"/>
    <path d="M131.174 83.3322C131.304 83.1122 131.464 82.9022 131.654 82.7022C131.844 82.5022 132.064 82.3272 132.314 82.1772C132.574 82.0172 132.864 81.8922 133.184 81.8022C133.514 81.7022 133.884 81.6522 134.294 81.6522C134.784 81.6522 135.224 81.7172 135.614 81.8472C136.014 81.9772 136.349 82.1622 136.619 82.4022C136.899 82.6322 137.114 82.9172 137.264 83.2572C137.414 83.5872 137.489 83.9522 137.489 84.3522V84.5022C137.489 84.7122 137.459 84.9372 137.399 85.1772C137.339 85.4072 137.239 85.6322 137.099 85.8522C136.959 86.0722 136.769 86.2772 136.529 86.4672C136.289 86.6572 135.989 86.8122 135.629 86.9322C136.379 87.0622 136.944 87.3572 137.324 87.8172C137.714 88.2772 137.909 88.8222 137.909 89.4522V89.6772C137.909 90.0672 137.844 90.4472 137.714 90.8172C137.584 91.1872 137.374 91.5222 137.084 91.8222C136.804 92.1122 136.429 92.3472 135.959 92.5272C135.499 92.7072 134.939 92.7972 134.279 92.7972C133.649 92.7972 133.039 92.6972 132.449 92.4972C131.869 92.3072 131.324 92.0072 130.814 91.5972L131.339 90.7572C131.869 91.1372 132.364 91.4122 132.824 91.5822C133.294 91.7522 133.779 91.8372 134.279 91.8372C134.749 91.8372 135.149 91.7722 135.479 91.6422C135.809 91.5122 136.074 91.3472 136.274 91.1472C136.484 90.9372 136.634 90.7072 136.724 90.4572C136.824 90.1972 136.874 89.9422 136.874 89.6922V89.4972C136.874 89.0872 136.789 88.7522 136.619 88.4922C136.459 88.2222 136.254 88.0122 136.004 87.8622C135.764 87.7022 135.494 87.5922 135.194 87.5322C134.904 87.4722 134.629 87.4422 134.369 87.4422H133.154V86.5422H134.414C134.754 86.5422 135.049 86.4822 135.299 86.3622C135.549 86.2322 135.754 86.0672 135.914 85.8672C136.084 85.6672 136.209 85.4472 136.289 85.2072C136.379 84.9572 136.424 84.7172 136.424 84.4872V84.3672C136.424 83.8272 136.234 83.4022 135.854 83.0922C135.484 82.7722 134.969 82.6122 134.309 82.6122C133.879 82.6122 133.464 82.7022 133.064 82.8822C132.664 83.0522 132.309 83.3822 131.999 83.8722L131.174 83.3322Z" fill="#585856"/>
    <path d="M98.7636 87.0072C99.0636 86.6572 99.3036 86.3572 99.4836 86.1072C99.6636 85.8572 99.7986 85.6372 99.8886 85.4472C99.9886 85.2472 100.054 85.0722 100.084 84.9222C100.124 84.7722 100.144 84.6272 100.144 84.4872V84.3672C100.144 83.8272 99.9636 83.4022 99.6036 83.0922C99.2536 82.7722 98.7486 82.6122 98.0886 82.6122C97.6086 82.6122 97.1586 82.7272 96.7386 82.9572C96.3186 83.1872 95.9336 83.6172 95.5836 84.2472L94.7436 83.7222C94.8736 83.4922 95.0336 83.2572 95.2236 83.0172C95.4136 82.7672 95.6436 82.5422 95.9136 82.3422C96.1836 82.1422 96.4936 81.9772 96.8436 81.8472C97.2036 81.7172 97.6086 81.6522 98.0586 81.6522C98.5386 81.6522 98.9736 81.7172 99.3636 81.8472C99.7536 81.9772 100.084 82.1622 100.354 82.4022C100.624 82.6322 100.834 82.9172 100.984 83.2572C101.134 83.5872 101.209 83.9522 101.209 84.3522V84.5022C101.209 84.7922 101.159 85.0772 101.059 85.3572C100.959 85.6272 100.824 85.8922 100.654 86.1522C100.494 86.4122 100.304 86.6722 100.084 86.9322C99.8636 87.1922 99.6386 87.4572 99.4086 87.7272L96.0486 91.6722H101.599V92.6322H94.7286V91.7322L98.7636 87.0072Z" fill="#585856"/>
    <path d="M57.0207 146.13V137.055L54.4857 138.555L53.7807 137.355L57.2607 135.315H58.5057V146.13H57.0207ZM69.671 142.875C69.671 143.275 69.601 143.68 69.461 144.09C69.321 144.49 69.101 144.855 68.801 145.185C68.501 145.515 68.111 145.78 67.631 145.98C67.151 146.19 66.576 146.295 65.906 146.295C65.166 146.295 64.496 146.195 63.896 145.995C63.296 145.805 62.741 145.505 62.231 145.095L62.966 143.91C63.486 144.32 63.981 144.595 64.451 144.735C64.931 144.875 65.426 144.945 65.936 144.945C66.326 144.945 66.661 144.885 66.941 144.765C67.231 144.645 67.466 144.49 67.646 144.3C67.836 144.1 67.971 143.875 68.051 143.625C68.141 143.375 68.186 143.125 68.186 142.875V142.695C68.186 141.975 67.996 141.44 67.616 141.09C67.236 140.73 66.701 140.55 66.011 140.55C65.551 140.55 65.141 140.635 64.781 140.805C64.431 140.975 64.136 141.175 63.896 141.405H62.756L63.101 135.315H68.966V136.59H64.451L64.286 139.965C64.526 139.785 64.831 139.63 65.201 139.5C65.581 139.37 65.996 139.305 66.446 139.305C66.956 139.305 67.411 139.395 67.811 139.575C68.211 139.745 68.546 139.985 68.816 140.295C69.096 140.595 69.306 140.95 69.446 141.36C69.596 141.76 69.671 142.19 69.671 142.65V142.875Z" fill="white"/>
    <path d="M20.6161 146.138V136.643L18.006 138.233L17.526 137.393L20.871 135.323H21.666V146.138H20.6161ZM31.9952 139.373V142.778H33.5852V143.738H31.9952V146.138H30.9452V143.738H25.5302V142.778L30.7802 135.323H31.9802L26.7452 142.778H30.9452V139.373H31.9952Z" fill="#585856"/>
    <path d="M240.716 119.378V109.883L238.106 111.473L237.626 110.633L240.971 108.563H241.766V119.378H240.716ZM246.305 110.078C246.435 109.858 246.595 109.648 246.785 109.448C246.975 109.248 247.195 109.073 247.445 108.923C247.705 108.763 247.995 108.638 248.315 108.548C248.645 108.448 249.015 108.398 249.425 108.398C249.915 108.398 250.355 108.463 250.745 108.593C251.145 108.723 251.48 108.908 251.75 109.148C252.03 109.378 252.245 109.663 252.395 110.003C252.545 110.333 252.62 110.698 252.62 111.098V111.248C252.62 111.458 252.59 111.683 252.53 111.923C252.47 112.153 252.37 112.378 252.23 112.598C252.09 112.818 251.9 113.023 251.66 113.213C251.42 113.403 251.12 113.558 250.76 113.678C251.51 113.808 252.075 114.103 252.455 114.563C252.845 115.023 253.04 115.568 253.04 116.198V116.423C253.04 116.813 252.975 117.193 252.845 117.563C252.715 117.933 252.505 118.268 252.215 118.568C251.935 118.858 251.56 119.093 251.09 119.273C250.63 119.453 250.07 119.543 249.41 119.543C248.78 119.543 248.17 119.443 247.58 119.243C247 119.053 246.455 118.753 245.945 118.343L246.47 117.503C247 117.883 247.495 118.158 247.955 118.328C248.425 118.498 248.91 118.583 249.41 118.583C249.88 118.583 250.28 118.518 250.61 118.388C250.94 118.258 251.205 118.093 251.405 117.893C251.615 117.683 251.765 117.453 251.855 117.203C251.955 116.943 252.005 116.688 252.005 116.438V116.243C252.005 115.833 251.92 115.498 251.75 115.238C251.59 114.968 251.385 114.758 251.135 114.608C250.895 114.448 250.625 114.338 250.325 114.278C250.035 114.218 249.76 114.188 249.5 114.188H248.285V113.288H249.545C249.885 113.288 250.18 113.228 250.43 113.108C250.68 112.978 250.885 112.813 251.045 112.613C251.215 112.413 251.34 112.193 251.42 111.953C251.51 111.703 251.555 111.463 251.555 111.233V111.113C251.555 110.573 251.365 110.148 250.985 109.838C250.615 109.518 250.1 109.358 249.44 109.358C249.01 109.358 248.595 109.448 248.195 109.628C247.795 109.798 247.44 110.128 247.13 110.618L246.305 110.078Z" fill="#585856"/>
    <path d="M204.374 119.378V109.883L201.764 111.473L201.284 110.633L204.629 108.563H205.424V119.378H204.374ZM213.893 113.753C214.193 113.403 214.433 113.103 214.613 112.853C214.793 112.603 214.928 112.383 215.018 112.193C215.118 111.993 215.183 111.818 215.213 111.668C215.253 111.518 215.273 111.373 215.273 111.233V111.113C215.273 110.573 215.093 110.148 214.733 109.838C214.383 109.518 213.878 109.358 213.218 109.358C212.738 109.358 212.288 109.473 211.868 109.703C211.448 109.933 211.063 110.363 210.713 110.993L209.873 110.468C210.003 110.238 210.163 110.003 210.353 109.763C210.543 109.513 210.773 109.288 211.043 109.088C211.313 108.888 211.623 108.723 211.973 108.593C212.333 108.463 212.738 108.398 213.188 108.398C213.668 108.398 214.103 108.463 214.493 108.593C214.883 108.723 215.213 108.908 215.483 109.148C215.753 109.378 215.963 109.663 216.113 110.003C216.263 110.333 216.338 110.698 216.338 111.098V111.248C216.338 111.538 216.288 111.823 216.188 112.103C216.088 112.373 215.953 112.638 215.783 112.898C215.623 113.158 215.433 113.418 215.213 113.678C214.993 113.938 214.768 114.203 214.538 114.473L211.178 118.418H216.728V119.378H209.858V118.478L213.893 113.753Z" fill="#585856"/>
    <path d="M168.033 119.378V109.883L165.423 111.473L164.943 110.633L168.288 108.563H169.083V119.378H168.033ZM177.027 119.378V109.883L174.417 111.473L173.937 110.633L177.282 108.563H178.077V119.378H177.027Z" fill="#585856"/>
    <path d="M131.692 119.378V109.883L129.082 111.473L128.602 110.633L131.947 108.563H132.742V119.378H131.692ZM144.196 114.803C144.196 116.333 143.906 117.508 143.326 118.328C142.746 119.138 141.806 119.543 140.506 119.543C139.226 119.543 138.296 119.133 137.716 118.313C137.136 117.493 136.846 116.323 136.846 114.803V113.123C136.846 111.613 137.141 110.448 137.731 109.628C138.321 108.808 139.246 108.398 140.506 108.398C141.786 108.398 142.721 108.808 143.311 109.628C143.901 110.438 144.196 111.603 144.196 113.123V114.803ZM143.116 113.108C143.116 111.768 142.896 110.808 142.456 110.228C142.026 109.638 141.376 109.343 140.506 109.343C139.676 109.343 139.036 109.638 138.586 110.228C138.146 110.818 137.926 111.778 137.926 113.108V114.818C137.926 116.158 138.146 117.123 138.586 117.713C139.036 118.303 139.676 118.598 140.506 118.598C141.366 118.598 142.016 118.308 142.456 117.728C142.896 117.138 143.116 116.168 143.116 114.818V113.108Z" fill="#585856"/>
    <path d="M96.9085 117.926C97.2485 118.126 97.6135 118.286 98.0035 118.406C98.3935 118.526 98.8035 118.586 99.2335 118.586C99.7835 118.586 100.243 118.486 100.613 118.286C100.983 118.076 101.278 117.776 101.498 117.386C101.718 116.996 101.878 116.521 101.978 115.961C102.078 115.401 102.138 114.771 102.158 114.071C102.078 114.231 101.963 114.401 101.813 114.581C101.663 114.761 101.473 114.931 101.243 115.091C101.023 115.241 100.758 115.371 100.448 115.481C100.148 115.581 99.8085 115.631 99.4285 115.631C98.9685 115.631 98.5285 115.556 98.1085 115.406C97.6985 115.246 97.3335 115.021 97.0135 114.731C96.7035 114.441 96.4535 114.091 96.2635 113.681C96.0835 113.261 95.9935 112.786 95.9935 112.256V111.896C95.9935 111.366 96.0835 110.886 96.2635 110.456C96.4435 110.026 96.6885 109.661 96.9985 109.361C97.3185 109.051 97.6935 108.816 98.1235 108.656C98.5635 108.486 99.0335 108.401 99.5335 108.401C100.033 108.401 100.503 108.491 100.943 108.671C101.393 108.841 101.783 109.111 102.113 109.481C102.443 109.841 102.703 110.301 102.893 110.861C103.093 111.411 103.193 112.061 103.193 112.811V113.261C103.193 114.451 103.108 115.451 102.938 116.261C102.778 117.061 102.533 117.706 102.203 118.196C101.873 118.686 101.458 119.031 100.958 119.231C100.458 119.441 99.8735 119.546 99.2035 119.546C98.7135 119.546 98.2385 119.481 97.7785 119.351C97.3185 119.221 96.8835 119.041 96.4735 118.811L96.9085 117.926ZM102.053 112.106C102.053 111.706 101.993 111.336 101.873 110.996C101.753 110.656 101.583 110.366 101.363 110.126C101.143 109.876 100.878 109.686 100.568 109.556C100.268 109.416 99.9335 109.346 99.5635 109.346C99.1935 109.346 98.8535 109.406 98.5435 109.526C98.2335 109.646 97.9635 109.816 97.7335 110.036C97.5135 110.256 97.3385 110.531 97.2085 110.861C97.0885 111.181 97.0285 111.541 97.0285 111.941V112.166C97.0285 112.576 97.0985 112.941 97.2385 113.261C97.3785 113.571 97.5635 113.836 97.7935 114.056C98.0235 114.266 98.2885 114.431 98.5885 114.551C98.8985 114.661 99.2185 114.716 99.5485 114.716C99.8585 114.716 100.163 114.656 100.463 114.536C100.773 114.416 101.043 114.246 101.273 114.026C101.503 113.806 101.688 113.551 101.828 113.261C101.978 112.971 102.053 112.651 102.053 112.301V112.106Z" fill="#585856"/>
    <path d="M57.9252 167.254C58.2252 166.904 58.4652 166.604 58.6452 166.354C58.8252 166.104 58.9602 165.884 59.0502 165.694C59.1502 165.494 59.2152 165.319 59.2452 165.169C59.2852 165.019 59.3052 164.874 59.3052 164.734V164.614C59.3052 164.074 59.1252 163.649 58.7652 163.339C58.4152 163.019 57.9102 162.859 57.2502 162.859C56.7702 162.859 56.3202 162.974 55.9002 163.204C55.4802 163.434 55.0952 163.864 54.7452 164.494L53.9052 163.969C54.0352 163.739 54.1952 163.504 54.3852 163.264C54.5752 163.014 54.8052 162.789 55.0752 162.589C55.3452 162.389 55.6552 162.224 56.0052 162.094C56.3652 161.964 56.7702 161.899 57.2202 161.899C57.7002 161.899 58.1352 161.964 58.5252 162.094C58.9152 162.224 59.2452 162.409 59.5152 162.649C59.7852 162.879 59.9952 163.164 60.1452 163.504C60.2952 163.834 60.3702 164.199 60.3702 164.599V164.749C60.3702 165.039 60.3202 165.324 60.2202 165.604C60.1202 165.874 59.9852 166.139 59.8152 166.399C59.6552 166.659 59.4652 166.919 59.2452 167.179C59.0252 167.439 58.8002 167.704 58.5702 167.974L55.2102 171.919H60.7602V172.879H53.8902V171.979L57.9252 167.254ZM66.9194 167.254C67.2194 166.904 67.4594 166.604 67.6394 166.354C67.8194 166.104 67.9544 165.884 68.0444 165.694C68.1444 165.494 68.2094 165.319 68.2394 165.169C68.2794 165.019 68.2994 164.874 68.2994 164.734V164.614C68.2994 164.074 68.1194 163.649 67.7594 163.339C67.4094 163.019 66.9044 162.859 66.2444 162.859C65.7644 162.859 65.3144 162.974 64.8944 163.204C64.4744 163.434 64.0894 163.864 63.7394 164.494L62.8994 163.969C63.0294 163.739 63.1894 163.504 63.3794 163.264C63.5694 163.014 63.7994 162.789 64.0694 162.589C64.3394 162.389 64.6494 162.224 64.9994 162.094C65.3594 161.964 65.7644 161.899 66.2144 161.899C66.6944 161.899 67.1294 161.964 67.5194 162.094C67.9094 162.224 68.2394 162.409 68.5094 162.649C68.7794 162.879 68.9894 163.164 69.1394 163.504C69.2894 163.834 69.3644 164.199 69.3644 164.599V164.749C69.3644 165.039 69.3144 165.324 69.2144 165.604C69.1144 165.874 68.9794 166.139 68.8094 166.399C68.6494 166.659 68.4594 166.919 68.2394 167.179C68.0194 167.439 67.7944 167.704 67.5644 167.974L64.2044 171.919H69.7544V172.879H62.8844V171.979L66.9194 167.254Z" fill="#585856"/>
    <path d="M21.2283 167.258C21.5383 166.918 21.7833 166.623 21.9633 166.373C22.1433 166.123 22.2783 165.903 22.3683 165.713C22.4583 165.513 22.5133 165.338 22.5333 165.188C22.5633 165.028 22.5783 164.878 22.5783 164.738V164.618C22.5783 164.188 22.4083 163.853 22.0683 163.613C21.7383 163.363 21.2883 163.238 20.7183 163.238C20.5183 163.238 20.3133 163.263 20.1033 163.313C19.9033 163.353 19.7033 163.433 19.5033 163.553C19.3033 163.673 19.1083 163.838 18.9183 164.048C18.7283 164.248 18.5433 164.503 18.3633 164.813L17.2233 164.078C17.3533 163.848 17.5133 163.608 17.7033 163.358C17.8933 163.098 18.1233 162.863 18.3933 162.653C18.6733 162.433 18.9983 162.253 19.3683 162.113C19.7483 161.973 20.1883 161.903 20.6883 161.903C21.2383 161.903 21.7233 161.973 22.1433 162.113C22.5633 162.243 22.9133 162.428 23.1933 162.668C23.4833 162.908 23.6983 163.198 23.8383 163.538C23.9883 163.868 24.0633 164.228 24.0633 164.618V164.768C24.0633 165.358 23.9083 165.913 23.5983 166.433C23.2883 166.953 22.8883 167.473 22.3983 167.993L19.0233 171.593H24.4533V172.883H17.1933V171.638L21.2283 167.258ZM30.2785 172.883V163.808L27.7435 165.308L27.0385 164.108L30.5185 162.068H31.7635V172.883H30.2785Z" fill="white"/>
    <path d="M240.884 140.498C241.194 140.158 241.439 139.863 241.619 139.613C241.799 139.363 241.934 139.143 242.024 138.953C242.114 138.753 242.169 138.578 242.189 138.428C242.219 138.268 242.234 138.118 242.234 137.978V137.858C242.234 137.428 242.064 137.093 241.724 136.853C241.394 136.603 240.944 136.478 240.374 136.478C240.174 136.478 239.969 136.503 239.759 136.553C239.559 136.593 239.359 136.673 239.159 136.793C238.959 136.913 238.764 137.078 238.574 137.288C238.384 137.488 238.199 137.743 238.019 138.053L236.879 137.318C237.009 137.088 237.169 136.848 237.359 136.598C237.549 136.338 237.779 136.103 238.049 135.893C238.329 135.673 238.654 135.493 239.024 135.353C239.404 135.213 239.844 135.143 240.344 135.143C240.894 135.143 241.379 135.213 241.799 135.353C242.219 135.483 242.569 135.668 242.849 135.908C243.139 136.148 243.354 136.438 243.494 136.778C243.644 137.108 243.719 137.468 243.719 137.858V138.008C243.719 138.598 243.564 139.153 243.254 139.673C242.944 140.193 242.544 140.713 242.054 141.233L238.679 144.833H244.109V146.123H236.849V144.878L240.884 140.498ZM253.444 141.548C253.444 143.078 253.129 144.253 252.499 145.073C251.879 145.883 250.919 146.288 249.619 146.288C248.329 146.288 247.369 145.878 246.739 145.058C246.109 144.238 245.794 143.068 245.794 141.548V139.868C245.794 138.348 246.114 137.183 246.754 136.373C247.394 135.553 248.349 135.143 249.619 135.143C250.899 135.143 251.854 135.553 252.484 136.373C253.124 137.183 253.444 138.348 253.444 139.868V141.548ZM251.929 139.853C251.929 139.193 251.869 138.648 251.749 138.218C251.639 137.788 251.479 137.448 251.269 137.198C251.059 136.948 250.814 136.773 250.534 136.673C250.254 136.573 249.949 136.523 249.619 136.523C249.299 136.523 248.999 136.573 248.719 136.673C248.439 136.773 248.194 136.953 247.984 137.213C247.774 137.463 247.609 137.803 247.489 138.233C247.369 138.653 247.309 139.193 247.309 139.853V141.563C247.309 142.223 247.369 142.773 247.489 143.213C247.609 143.643 247.774 143.983 247.984 144.233C248.194 144.483 248.439 144.658 248.719 144.758C248.999 144.858 249.299 144.908 249.619 144.908C249.949 144.908 250.254 144.858 250.534 144.758C250.814 144.658 251.059 144.483 251.269 144.233C251.479 143.983 251.639 143.643 251.749 143.213C251.869 142.783 251.929 142.233 251.929 141.563V139.853Z" fill="white"/>
    <path d="M204.438 146.123V137.048L201.903 138.548L201.198 137.348L204.678 135.308H205.923V146.123H204.438ZM210.533 144.263C210.873 144.463 211.238 144.623 211.628 144.743C212.018 144.863 212.428 144.923 212.858 144.923C213.228 144.923 213.568 144.863 213.878 144.743C214.198 144.623 214.468 144.423 214.688 144.143C214.918 143.853 215.098 143.473 215.228 143.003C215.358 142.533 215.433 141.943 215.453 141.233C215.363 141.393 215.233 141.548 215.063 141.698C214.893 141.838 214.693 141.968 214.463 142.088C214.243 142.198 213.998 142.288 213.728 142.358C213.458 142.428 213.173 142.463 212.873 142.463C212.393 142.463 211.943 142.383 211.523 142.223C211.113 142.063 210.753 141.833 210.443 141.533C210.143 141.233 209.903 140.873 209.723 140.453C209.553 140.023 209.468 139.543 209.468 139.013V138.683C209.468 138.163 209.558 137.688 209.738 137.258C209.918 136.828 210.168 136.458 210.488 136.148C210.808 135.828 211.193 135.583 211.643 135.413C212.103 135.233 212.608 135.143 213.158 135.143C214.368 135.143 215.298 135.513 215.948 136.253C216.598 136.983 216.923 138.078 216.923 139.538V140.093C216.923 141.283 216.833 142.273 216.653 143.063C216.473 143.853 216.203 144.488 215.843 144.968C215.493 145.448 215.058 145.788 214.538 145.988C214.028 146.188 213.438 146.288 212.768 146.288C212.278 146.288 211.788 146.223 211.298 146.093C210.818 145.963 210.373 145.773 209.963 145.523L210.533 144.263ZM215.408 138.803C215.408 138.103 215.213 137.543 214.823 137.123C214.433 136.703 213.898 136.493 213.218 136.493C212.518 136.493 211.963 136.688 211.553 137.078C211.153 137.468 210.953 138.018 210.953 138.728V138.923C210.953 139.643 211.163 140.193 211.583 140.573C212.003 140.953 212.533 141.143 213.173 141.143C213.503 141.143 213.803 141.088 214.073 140.978C214.353 140.868 214.588 140.718 214.778 140.528C214.978 140.328 215.133 140.103 215.243 139.853C215.353 139.593 215.408 139.313 215.408 139.013V138.803Z" fill="white"/>
    <path d="M168.096 146.123V137.048L165.561 138.548L164.856 137.348L168.336 135.308H169.581V146.123H168.096ZM175.137 138.248C175.137 138.788 175.307 139.208 175.647 139.508C175.997 139.808 176.427 139.958 176.937 139.958C177.447 139.958 177.872 139.808 178.212 139.508C178.562 139.208 178.737 138.788 178.737 138.248V138.083C178.737 137.573 178.572 137.173 178.242 136.883C177.912 136.593 177.477 136.448 176.937 136.448C176.397 136.448 175.962 136.593 175.632 136.883C175.302 137.173 175.137 137.573 175.137 138.083V138.248ZM174.852 143.243C174.852 143.753 175.037 144.168 175.407 144.488C175.787 144.798 176.302 144.953 176.952 144.953C177.602 144.953 178.107 144.798 178.467 144.488C178.837 144.168 179.022 143.753 179.022 143.243V143.078C179.022 142.488 178.827 142.038 178.437 141.728C178.047 141.418 177.552 141.263 176.952 141.263C176.662 141.263 176.387 141.303 176.127 141.383C175.877 141.453 175.657 141.568 175.467 141.728C175.277 141.878 175.127 142.068 175.017 142.298C174.907 142.518 174.852 142.778 174.852 143.078V143.243ZM173.322 143.063C173.322 142.763 173.367 142.483 173.457 142.223C173.557 141.953 173.692 141.713 173.862 141.503C174.032 141.283 174.227 141.093 174.447 140.933C174.677 140.773 174.922 140.653 175.182 140.573C174.662 140.323 174.272 139.978 174.012 139.538C173.762 139.098 173.637 138.648 173.637 138.188V137.978C173.637 137.588 173.707 137.223 173.847 136.883C173.997 136.543 174.212 136.243 174.492 135.983C174.772 135.723 175.117 135.518 175.527 135.368C175.937 135.218 176.407 135.143 176.937 135.143C177.457 135.143 177.922 135.218 178.332 135.368C178.742 135.518 179.087 135.723 179.367 135.983C179.647 136.243 179.862 136.543 180.012 136.883C180.162 137.223 180.237 137.588 180.237 137.978V138.188C180.237 138.648 180.112 139.093 179.862 139.523C179.612 139.953 179.222 140.303 178.692 140.573C179.222 140.733 179.662 141.038 180.012 141.488C180.372 141.938 180.552 142.463 180.552 143.063V143.318C180.552 143.748 180.467 144.148 180.297 144.518C180.137 144.878 179.902 145.188 179.592 145.448C179.282 145.708 178.902 145.913 178.452 146.063C178.012 146.213 177.507 146.288 176.937 146.288C176.367 146.288 175.857 146.213 175.407 146.063C174.967 145.913 174.592 145.708 174.282 145.448C173.972 145.188 173.732 144.878 173.562 144.518C173.402 144.148 173.322 143.748 173.322 143.318V143.063Z" fill="white"/>
    <path d="M131.756 146.123V137.048L129.221 138.548L128.516 137.348L131.996 135.308H133.241V146.123H131.756ZM140.086 146.123H138.466L142.756 136.598H136.876V135.308H144.361V136.448L140.086 146.123Z" fill="white"/>
    <path d="M95.4148 146.13V137.055L92.8798 138.555L92.1748 137.355L95.6548 135.315H96.8998V146.13H95.4148ZM107 137.145C106.66 136.945 106.295 136.79 105.905 136.68C105.515 136.57 105.105 136.515 104.675 136.515C104.305 136.515 103.965 136.58 103.655 136.71C103.355 136.83 103.09 137.035 102.86 137.325C102.64 137.615 102.46 138 102.32 138.48C102.19 138.96 102.11 139.555 102.08 140.265C102.17 140.105 102.295 139.955 102.455 139.815C102.625 139.665 102.82 139.535 103.04 139.425C103.27 139.305 103.52 139.21 103.79 139.14C104.07 139.07 104.36 139.035 104.66 139.035C105.14 139.035 105.585 139.115 105.995 139.275C106.415 139.435 106.775 139.665 107.075 139.965C107.385 140.265 107.625 140.63 107.795 141.06C107.975 141.48 108.065 141.955 108.065 142.485V142.815C108.065 143.335 107.975 143.81 107.795 144.24C107.615 144.66 107.365 145.025 107.045 145.335C106.725 145.635 106.335 145.87 105.875 146.04C105.425 146.21 104.925 146.295 104.375 146.295C103.155 146.295 102.22 145.92 101.57 145.17C100.93 144.41 100.61 143.3 100.61 141.84V141.285C100.61 140.105 100.71 139.12 100.91 138.33C101.12 137.54 101.405 136.91 101.765 136.44C102.135 135.97 102.575 135.64 103.085 135.45C103.595 135.25 104.155 135.15 104.765 135.15C105.255 135.15 105.74 135.21 106.22 135.33C106.71 135.45 107.16 135.635 107.57 135.885L107 137.145ZM102.125 142.665C102.125 143.365 102.32 143.92 102.71 144.33C103.1 144.74 103.635 144.945 104.315 144.945C105.015 144.945 105.565 144.755 105.965 144.375C106.375 143.995 106.58 143.45 106.58 142.74V142.545C106.58 141.825 106.375 141.28 105.965 140.91C105.555 140.54 105.02 140.355 104.36 140.355C104.03 140.355 103.725 140.41 103.445 140.52C103.175 140.63 102.94 140.78 102.74 140.97C102.55 141.15 102.4 141.37 102.29 141.63C102.18 141.88 102.125 142.155 102.125 142.455V142.665Z" fill="white"/>
    <path d="M57.9252 194.003C58.2252 193.653 58.4652 193.353 58.6452 193.103C58.8252 192.853 58.9602 192.633 59.0502 192.443C59.1502 192.243 59.2152 192.068 59.2452 191.918C59.2852 191.768 59.3052 191.623 59.3052 191.483V191.363C59.3052 190.823 59.1252 190.398 58.7652 190.088C58.4152 189.768 57.9102 189.608 57.2502 189.608C56.7702 189.608 56.3202 189.723 55.9002 189.953C55.4802 190.183 55.0952 190.613 54.7452 191.243L53.9052 190.718C54.0352 190.488 54.1952 190.253 54.3852 190.013C54.5752 189.763 54.8052 189.538 55.0752 189.338C55.3452 189.138 55.6552 188.973 56.0052 188.843C56.3652 188.713 56.7702 188.648 57.2202 188.648C57.7002 188.648 58.1352 188.713 58.5252 188.843C58.9152 188.973 59.2452 189.158 59.5152 189.398C59.7852 189.628 59.9952 189.913 60.1452 190.253C60.2952 190.583 60.3702 190.948 60.3702 191.348V191.498C60.3702 191.788 60.3202 192.073 60.2202 192.353C60.1202 192.623 59.9852 192.888 59.8152 193.148C59.6552 193.408 59.4652 193.668 59.2452 193.928C59.0252 194.188 58.8002 194.453 58.5702 194.723L55.2102 198.668H60.7602V199.628H53.8902V198.728L57.9252 194.003ZM63.4544 198.173C63.7944 198.373 64.1594 198.533 64.5494 198.653C64.9394 198.773 65.3494 198.833 65.7794 198.833C66.3294 198.833 66.7894 198.733 67.1594 198.533C67.5294 198.323 67.8244 198.023 68.0444 197.633C68.2644 197.243 68.4244 196.768 68.5244 196.208C68.6244 195.648 68.6844 195.018 68.7044 194.318C68.6244 194.478 68.5094 194.648 68.3594 194.828C68.2094 195.008 68.0194 195.178 67.7894 195.338C67.5694 195.488 67.3044 195.618 66.9944 195.728C66.6944 195.828 66.3544 195.878 65.9744 195.878C65.5144 195.878 65.0744 195.803 64.6544 195.653C64.2444 195.493 63.8794 195.268 63.5594 194.978C63.2494 194.688 62.9994 194.338 62.8094 193.928C62.6294 193.508 62.5394 193.033 62.5394 192.503V192.143C62.5394 191.613 62.6294 191.133 62.8094 190.703C62.9894 190.273 63.2344 189.908 63.5444 189.608C63.8644 189.298 64.2394 189.063 64.6694 188.903C65.1094 188.733 65.5794 188.648 66.0794 188.648C66.5794 188.648 67.0494 188.738 67.4894 188.918C67.9394 189.088 68.3294 189.358 68.6594 189.728C68.9894 190.088 69.2494 190.548 69.4394 191.108C69.6394 191.658 69.7394 192.308 69.7394 193.058V193.508C69.7394 194.698 69.6544 195.698 69.4844 196.508C69.3244 197.308 69.0794 197.953 68.7494 198.443C68.4194 198.933 68.0044 199.278 67.5044 199.478C67.0044 199.688 66.4194 199.793 65.7494 199.793C65.2594 199.793 64.7844 199.728 64.3244 199.598C63.8644 199.468 63.4294 199.288 63.0194 199.058L63.4544 198.173ZM68.5994 192.353C68.5994 191.953 68.5394 191.583 68.4194 191.243C68.2994 190.903 68.1294 190.613 67.9094 190.373C67.6894 190.123 67.4244 189.933 67.1144 189.803C66.8144 189.663 66.4794 189.593 66.1094 189.593C65.7394 189.593 65.3994 189.653 65.0894 189.773C64.7794 189.893 64.5094 190.063 64.2794 190.283C64.0594 190.503 63.8844 190.778 63.7544 191.108C63.6344 191.428 63.5744 191.788 63.5744 192.188V192.413C63.5744 192.823 63.6444 193.188 63.7844 193.508C63.9244 193.818 64.1094 194.083 64.3394 194.303C64.5694 194.513 64.8344 194.678 65.1344 194.798C65.4444 194.908 65.7644 194.963 66.0944 194.963C66.4044 194.963 66.7094 194.903 67.0094 194.783C67.3194 194.663 67.5894 194.493 67.8194 194.273C68.0494 194.053 68.2344 193.798 68.3744 193.508C68.5244 193.218 68.5994 192.898 68.5994 192.548V192.353Z" fill="#585856"/>
    <path d="M21.5844 194.004C21.8844 193.654 22.1244 193.354 22.3044 193.104C22.4844 192.854 22.6194 192.634 22.7094 192.444C22.8094 192.244 22.8744 192.069 22.9044 191.919C22.9444 191.769 22.9644 191.624 22.9644 191.484V191.364C22.9644 190.824 22.7844 190.399 22.4244 190.089C22.0744 189.769 21.5694 189.609 20.9094 189.609C20.4294 189.609 19.9794 189.724 19.5594 189.954C19.1394 190.184 18.7544 190.614 18.4044 191.244L17.5644 190.719C17.6944 190.489 17.8544 190.254 18.0444 190.014C18.2344 189.764 18.4644 189.539 18.7344 189.339C19.0044 189.139 19.3144 188.974 19.6644 188.844C20.0244 188.714 20.4294 188.649 20.8794 188.649C21.3594 188.649 21.7944 188.714 22.1844 188.844C22.5744 188.974 22.9044 189.159 23.1744 189.399C23.4444 189.629 23.6544 189.914 23.8044 190.254C23.9544 190.584 24.0294 190.949 24.0294 191.349V191.499C24.0294 191.789 23.9794 192.074 23.8794 192.354C23.7794 192.624 23.6444 192.889 23.4744 193.149C23.3144 193.409 23.1244 193.669 22.9044 193.929C22.6844 194.189 22.4594 194.454 22.2294 194.724L18.8694 198.669H24.4194V199.629H17.5494V198.729L21.5844 194.004ZM27.7735 191.574C27.7735 191.864 27.8235 192.139 27.9236 192.399C28.0235 192.659 28.1635 192.884 28.3435 193.074C28.5335 193.264 28.7585 193.414 29.0186 193.524C29.2785 193.634 29.5685 193.689 29.8885 193.689C30.2086 193.689 30.4986 193.634 30.7585 193.524C31.0185 193.414 31.2385 193.264 31.4185 193.074C31.6086 192.884 31.7536 192.659 31.8536 192.399C31.9536 192.139 32.0036 191.864 32.0036 191.574V191.394C32.0036 190.834 31.8086 190.394 31.4185 190.074C31.0386 189.744 30.5286 189.579 29.8885 189.579C29.2386 189.579 28.7236 189.744 28.3435 190.074C27.9635 190.394 27.7735 190.834 27.7735 191.394V191.574ZM27.4736 196.854C27.4736 197.134 27.5285 197.394 27.6385 197.634C27.7485 197.874 27.9085 198.084 28.1185 198.264C28.3285 198.444 28.5785 198.589 28.8685 198.699C29.1686 198.799 29.5086 198.849 29.8885 198.849C30.2686 198.849 30.6086 198.799 30.9086 198.699C31.2086 198.589 31.4586 198.444 31.6585 198.264C31.8685 198.084 32.0285 197.874 32.1386 197.634C32.2486 197.394 32.3036 197.134 32.3036 196.854V196.674C32.3036 196.354 32.2436 196.064 32.1236 195.804C32.0036 195.544 31.8385 195.319 31.6285 195.129C31.4185 194.939 31.1635 194.794 30.8635 194.694C30.5736 194.594 30.2486 194.544 29.8885 194.544C29.5386 194.544 29.2136 194.594 28.9136 194.694C28.6236 194.794 28.3686 194.939 28.1486 195.129C27.9385 195.309 27.7735 195.529 27.6535 195.789C27.5335 196.049 27.4736 196.344 27.4736 196.674V196.854ZM26.4085 196.629C26.4085 196.029 26.5885 195.504 26.9485 195.054C27.3185 194.594 27.7985 194.274 28.3885 194.094C27.8685 193.854 27.4635 193.519 27.1735 193.089C26.8935 192.659 26.7535 192.159 26.7535 191.589V191.349C26.7535 190.959 26.8285 190.599 26.9785 190.269C27.1385 189.939 27.3585 189.654 27.6385 189.414C27.9185 189.174 28.2485 188.989 28.6285 188.859C29.0186 188.719 29.4386 188.649 29.8885 188.649C30.3386 188.649 30.7536 188.719 31.1336 188.859C31.5236 188.989 31.8586 189.174 32.1386 189.414C32.4186 189.654 32.6336 189.939 32.7836 190.269C32.9435 190.599 33.0235 190.959 33.0235 191.349V191.589C33.0235 192.159 32.8785 192.659 32.5886 193.089C32.3086 193.519 31.9036 193.854 31.3736 194.094C31.6636 194.184 31.9286 194.309 32.1686 194.469C32.4186 194.629 32.6286 194.824 32.7986 195.054C32.9786 195.274 33.1186 195.519 33.2186 195.789C33.3185 196.049 33.3685 196.329 33.3685 196.629V196.884C33.3685 197.314 33.2836 197.709 33.1136 198.069C32.9536 198.429 32.7186 198.739 32.4086 198.999C32.1086 199.249 31.7436 199.444 31.3135 199.584C30.8836 199.724 30.4086 199.794 29.8885 199.794C29.3685 199.794 28.8935 199.724 28.4636 199.584C28.0335 199.444 27.6635 199.249 27.3535 198.999C27.0535 198.739 26.8185 198.429 26.6485 198.069C26.4885 197.709 26.4085 197.314 26.4085 196.884V196.629Z" fill="#585856"/>
    <path d="M241.241 167.244C241.541 166.894 241.781 166.594 241.961 166.344C242.141 166.094 242.276 165.874 242.366 165.684C242.466 165.484 242.531 165.309 242.561 165.159C242.601 165.009 242.621 164.864 242.621 164.724V164.604C242.621 164.064 242.441 163.639 242.081 163.329C241.731 163.009 241.226 162.849 240.566 162.849C240.086 162.849 239.636 162.964 239.216 163.194C238.796 163.424 238.411 163.854 238.061 164.484L237.221 163.959C237.351 163.729 237.511 163.494 237.701 163.254C237.891 163.004 238.121 162.779 238.391 162.579C238.661 162.379 238.971 162.214 239.321 162.084C239.681 161.954 240.086 161.889 240.536 161.889C241.016 161.889 241.451 161.954 241.841 162.084C242.231 162.214 242.561 162.399 242.831 162.639C243.101 162.869 243.311 163.154 243.461 163.494C243.611 163.824 243.686 164.189 243.686 164.589V164.739C243.686 165.029 243.636 165.314 243.536 165.594C243.436 165.864 243.301 166.129 243.131 166.389C242.971 166.649 242.781 166.909 242.561 167.169C242.341 167.429 242.116 167.694 241.886 167.964L238.526 171.909H244.076V172.869H237.206V171.969L241.241 167.244ZM248.84 172.869H247.655L252.05 163.014H245.975V162.054H253.22V162.864L248.84 172.869Z" fill="#585856"/>
    <path d="M204.899 167.244C205.199 166.894 205.439 166.594 205.619 166.344C205.799 166.094 205.934 165.874 206.024 165.684C206.124 165.484 206.189 165.309 206.219 165.159C206.259 165.009 206.279 164.864 206.279 164.724V164.604C206.279 164.064 206.099 163.639 205.739 163.329C205.389 163.009 204.884 162.849 204.224 162.849C203.744 162.849 203.294 162.964 202.874 163.194C202.454 163.424 202.069 163.854 201.719 164.484L200.879 163.959C201.009 163.729 201.169 163.494 201.359 163.254C201.549 163.004 201.779 162.779 202.049 162.579C202.319 162.379 202.629 162.214 202.979 162.084C203.339 161.954 203.744 161.889 204.194 161.889C204.674 161.889 205.109 161.954 205.499 162.084C205.889 162.214 206.219 162.399 206.489 162.639C206.759 162.869 206.969 163.154 207.119 163.494C207.269 163.824 207.344 164.189 207.344 164.589V164.739C207.344 165.029 207.294 165.314 207.194 165.594C207.094 165.864 206.959 166.129 206.789 166.389C206.629 166.649 206.439 166.909 206.219 167.169C205.999 167.429 205.774 167.694 205.544 167.964L202.184 171.909H207.734V172.869H200.864V171.969L204.899 167.244ZM215.948 163.479C215.608 163.279 215.243 163.124 214.853 163.014C214.473 162.894 214.073 162.834 213.653 162.834C213.143 162.834 212.713 162.939 212.363 163.149C212.013 163.349 211.723 163.644 211.493 164.034C211.263 164.424 211.088 164.904 210.968 165.474C210.848 166.034 210.768 166.674 210.728 167.394C210.808 167.234 210.923 167.064 211.073 166.884C211.233 166.704 211.423 166.539 211.643 166.389C211.873 166.239 212.138 166.119 212.438 166.029C212.738 165.929 213.078 165.879 213.458 165.879C213.918 165.879 214.353 165.954 214.763 166.104C215.183 166.254 215.548 166.474 215.858 166.764C216.178 167.044 216.428 167.394 216.608 167.814C216.798 168.224 216.893 168.694 216.893 169.224V169.584C216.893 170.114 216.803 170.594 216.623 171.024C216.443 171.444 216.193 171.804 215.873 172.104C215.563 172.404 215.188 172.634 214.748 172.794C214.318 172.954 213.853 173.034 213.353 173.034C212.843 173.034 212.363 172.944 211.913 172.764C211.473 172.594 211.088 172.329 210.758 171.969C210.428 171.609 210.168 171.154 209.978 170.604C209.788 170.044 209.693 169.389 209.693 168.639V168.279C209.693 167.119 209.783 166.134 209.963 165.324C210.153 164.514 210.418 163.854 210.758 163.344C211.098 162.834 211.513 162.464 212.003 162.234C212.493 162.004 213.048 161.889 213.668 161.889C214.158 161.889 214.638 161.954 215.108 162.084C215.588 162.214 216.033 162.394 216.443 162.624L215.948 163.479ZM210.833 169.374C210.833 169.784 210.893 170.154 211.013 170.484C211.133 170.814 211.303 171.099 211.523 171.339C211.743 171.579 212.003 171.764 212.303 171.894C212.613 172.024 212.953 172.089 213.323 172.089C213.693 172.089 214.033 172.034 214.343 171.924C214.653 171.804 214.918 171.639 215.138 171.429C215.368 171.209 215.543 170.944 215.663 170.634C215.793 170.314 215.858 169.949 215.858 169.539V169.314C215.858 168.914 215.788 168.559 215.648 168.249C215.508 167.929 215.323 167.664 215.093 167.454C214.863 167.234 214.593 167.069 214.283 166.959C213.983 166.849 213.668 166.794 213.338 166.794C213.018 166.794 212.708 166.854 212.408 166.974C212.108 167.094 211.843 167.259 211.613 167.469C211.383 167.679 211.193 167.934 211.043 168.234C210.903 168.524 210.833 168.839 210.833 169.179V169.374Z" fill="#585856"/>
    <path d="M168.558 167.244C168.858 166.894 169.098 166.594 169.278 166.344C169.458 166.094 169.593 165.874 169.683 165.684C169.783 165.484 169.848 165.309 169.878 165.159C169.918 165.009 169.938 164.864 169.938 164.724V164.604C169.938 164.064 169.758 163.639 169.398 163.329C169.048 163.009 168.543 162.849 167.883 162.849C167.403 162.849 166.953 162.964 166.533 163.194C166.113 163.424 165.728 163.854 165.378 164.484L164.538 163.959C164.668 163.729 164.828 163.494 165.018 163.254C165.208 163.004 165.438 162.779 165.708 162.579C165.978 162.379 166.288 162.214 166.638 162.084C166.998 161.954 167.403 161.889 167.853 161.889C168.333 161.889 168.768 161.954 169.158 162.084C169.548 162.214 169.878 162.399 170.148 162.639C170.418 162.869 170.628 163.154 170.778 163.494C170.928 163.824 171.003 164.189 171.003 164.589V164.739C171.003 165.029 170.953 165.314 170.853 165.594C170.753 165.864 170.618 166.129 170.448 166.389C170.288 166.649 170.098 166.909 169.878 167.169C169.658 167.429 169.433 167.694 169.203 167.964L165.843 171.909H171.393V172.869H164.523V171.969L168.558 167.244ZM179.487 169.614C179.487 168.744 179.272 168.114 178.842 167.724C178.422 167.324 177.822 167.124 177.042 167.124C176.582 167.124 176.172 167.209 175.812 167.379C175.452 167.549 175.152 167.749 174.912 167.979H173.922L174.267 162.054H179.832V163.014H175.197L175.032 166.944C175.272 166.714 175.597 166.529 176.007 166.389C176.417 166.249 176.847 166.179 177.297 166.179C177.827 166.179 178.292 166.269 178.692 166.449C179.102 166.619 179.442 166.854 179.712 167.154C179.982 167.454 180.182 167.814 180.312 168.234C180.452 168.644 180.522 169.089 180.522 169.569V169.794C180.522 170.184 180.457 170.574 180.327 170.964C180.197 171.344 179.987 171.689 179.697 171.999C179.417 172.299 179.042 172.544 178.572 172.734C178.102 172.934 177.532 173.034 176.862 173.034C176.122 173.034 175.472 172.924 174.912 172.704C174.352 172.494 173.832 172.204 173.352 171.834L173.892 170.979C174.412 171.379 174.907 171.664 175.377 171.834C175.857 171.994 176.352 172.074 176.862 172.074C177.342 172.074 177.747 172.004 178.077 171.864C178.417 171.714 178.692 171.529 178.902 171.309C179.112 171.089 179.262 170.849 179.352 170.589C179.442 170.319 179.487 170.059 179.487 169.809V169.614Z" fill="#585856"/>
    <path d="M132.217 167.244C132.517 166.894 132.757 166.594 132.937 166.344C133.117 166.094 133.252 165.874 133.342 165.684C133.442 165.484 133.507 165.309 133.537 165.159C133.577 165.009 133.597 164.864 133.597 164.724V164.604C133.597 164.064 133.417 163.639 133.057 163.329C132.707 163.009 132.202 162.849 131.542 162.849C131.062 162.849 130.612 162.964 130.192 163.194C129.772 163.424 129.387 163.854 129.037 164.484L128.197 163.959C128.327 163.729 128.487 163.494 128.677 163.254C128.867 163.004 129.097 162.779 129.367 162.579C129.637 162.379 129.947 162.214 130.297 162.084C130.657 161.954 131.062 161.889 131.512 161.889C131.992 161.889 132.427 161.954 132.817 162.084C133.207 162.214 133.537 162.399 133.807 162.639C134.077 162.869 134.287 163.154 134.437 163.494C134.587 163.824 134.662 164.189 134.662 164.589V164.739C134.662 165.029 134.612 165.314 134.512 165.594C134.412 165.864 134.277 166.129 134.107 166.389C133.947 166.649 133.757 166.909 133.537 167.169C133.317 167.429 133.092 167.694 132.862 167.964L129.502 171.909H135.052V172.869H128.182V171.969L132.217 167.244ZM143.071 166.104V169.509H144.661V170.469H143.071V172.869H142.021V170.469H136.606V169.509L141.856 162.054H143.056L137.821 169.509H142.021V166.104H143.071Z" fill="#585856"/>
    <path d="M95.8764 167.254C96.1764 166.904 96.4164 166.604 96.5964 166.354C96.7764 166.104 96.9114 165.884 97.0014 165.694C97.1014 165.494 97.1664 165.319 97.1964 165.169C97.2364 165.019 97.2564 164.874 97.2564 164.734V164.614C97.2564 164.074 97.0764 163.649 96.7164 163.339C96.3664 163.019 95.8614 162.859 95.2014 162.859C94.7214 162.859 94.2714 162.974 93.8514 163.204C93.4314 163.434 93.0464 163.864 92.6964 164.494L91.8564 163.969C91.9864 163.739 92.1464 163.504 92.3364 163.264C92.5264 163.014 92.7564 162.789 93.0264 162.589C93.2964 162.389 93.6064 162.224 93.9564 162.094C94.3164 161.964 94.7214 161.899 95.1714 161.899C95.6514 161.899 96.0864 161.964 96.4764 162.094C96.8664 162.224 97.1964 162.409 97.4664 162.649C97.7364 162.879 97.9464 163.164 98.0964 163.504C98.2464 163.834 98.3214 164.199 98.3214 164.599V164.749C98.3214 165.039 98.2714 165.324 98.1714 165.604C98.0714 165.874 97.9364 166.139 97.7664 166.399C97.6064 166.659 97.4164 166.919 97.1964 167.179C96.9764 167.439 96.7514 167.704 96.5214 167.974L93.1614 171.919H98.7114V172.879H91.8414V171.979L95.8764 167.254ZM100.941 163.579C101.071 163.359 101.231 163.149 101.421 162.949C101.611 162.749 101.831 162.574 102.081 162.424C102.341 162.264 102.631 162.139 102.951 162.049C103.281 161.949 103.651 161.899 104.061 161.899C104.551 161.899 104.991 161.964 105.381 162.094C105.781 162.224 106.116 162.409 106.386 162.649C106.666 162.879 106.881 163.164 107.031 163.504C107.181 163.834 107.256 164.199 107.256 164.599V164.749C107.256 164.959 107.226 165.184 107.166 165.424C107.106 165.654 107.006 165.879 106.866 166.099C106.726 166.319 106.536 166.524 106.296 166.714C106.056 166.904 105.756 167.059 105.396 167.179C106.146 167.309 106.711 167.604 107.091 168.064C107.481 168.524 107.676 169.069 107.676 169.699V169.924C107.676 170.314 107.611 170.694 107.481 171.064C107.351 171.434 107.141 171.769 106.851 172.069C106.571 172.359 106.196 172.594 105.726 172.774C105.266 172.954 104.706 173.044 104.046 173.044C103.416 173.044 102.806 172.944 102.216 172.744C101.636 172.554 101.091 172.254 100.581 171.844L101.106 171.004C101.636 171.384 102.131 171.659 102.591 171.829C103.061 171.999 103.546 172.084 104.046 172.084C104.516 172.084 104.916 172.019 105.246 171.889C105.576 171.759 105.841 171.594 106.041 171.394C106.251 171.184 106.401 170.954 106.491 170.704C106.591 170.444 106.641 170.189 106.641 169.939V169.744C106.641 169.334 106.556 168.999 106.386 168.739C106.226 168.469 106.021 168.259 105.771 168.109C105.531 167.949 105.261 167.839 104.961 167.779C104.671 167.719 104.396 167.689 104.136 167.689H102.921V166.789H104.181C104.521 166.789 104.816 166.729 105.066 166.609C105.316 166.479 105.521 166.314 105.681 166.114C105.851 165.914 105.976 165.694 106.056 165.454C106.146 165.204 106.191 164.964 106.191 164.734V164.614C106.191 164.074 106.001 163.649 105.621 163.339C105.251 163.019 104.736 162.859 104.076 162.859C103.646 162.859 103.231 162.949 102.831 163.129C102.431 163.299 102.076 163.629 101.766 164.119L100.941 163.579Z" fill="#585856"/>
    <path d="M92.5948 190.328C92.7248 190.108 92.8848 189.898 93.0748 189.698C93.2648 189.498 93.4848 189.323 93.7348 189.173C93.9948 189.013 94.2848 188.888 94.6048 188.798C94.9348 188.698 95.3048 188.648 95.7148 188.648C96.2048 188.648 96.6448 188.713 97.0348 188.843C97.4348 188.973 97.7698 189.158 98.0398 189.398C98.3198 189.628 98.5348 189.913 98.6848 190.253C98.8348 190.583 98.9098 190.948 98.9098 191.348V191.498C98.9098 191.708 98.8798 191.933 98.8198 192.173C98.7598 192.403 98.6598 192.628 98.5198 192.848C98.3798 193.068 98.1898 193.273 97.9498 193.463C97.7098 193.653 97.4098 193.808 97.0498 193.928C97.7998 194.058 98.3648 194.353 98.7448 194.813C99.1348 195.273 99.3298 195.818 99.3298 196.448V196.673C99.3298 197.063 99.2648 197.443 99.1348 197.813C99.0048 198.183 98.7948 198.518 98.5048 198.818C98.2248 199.108 97.8498 199.343 97.3798 199.523C96.9198 199.703 96.3598 199.793 95.6998 199.793C95.0698 199.793 94.4598 199.693 93.8698 199.493C93.2898 199.303 92.7448 199.003 92.2348 198.593L92.7598 197.753C93.2898 198.133 93.7848 198.408 94.2448 198.578C94.7148 198.748 95.1998 198.833 95.6998 198.833C96.1698 198.833 96.5698 198.768 96.8998 198.638C97.2298 198.508 97.4948 198.343 97.6948 198.143C97.9048 197.933 98.0548 197.703 98.1448 197.453C98.2448 197.193 98.2948 196.938 98.2948 196.688V196.493C98.2948 196.083 98.2098 195.748 98.0398 195.488C97.8798 195.218 97.6748 195.008 97.4248 194.858C97.1848 194.698 96.9148 194.588 96.6148 194.528C96.3248 194.468 96.0498 194.438 95.7898 194.438H94.5748V193.538H95.8348C96.1748 193.538 96.4698 193.478 96.7198 193.358C96.9698 193.228 97.1748 193.063 97.3348 192.863C97.5048 192.663 97.6298 192.443 97.7098 192.203C97.7998 191.953 97.8448 191.713 97.8448 191.483V191.363C97.8448 190.823 97.6548 190.398 97.2748 190.088C96.9048 189.768 96.3898 189.608 95.7298 189.608C95.2998 189.608 94.8848 189.698 94.4848 189.878C94.0848 190.048 93.7298 190.378 93.4198 190.868L92.5948 190.328ZM108.504 195.053C108.504 196.583 108.214 197.758 107.634 198.578C107.054 199.388 106.114 199.793 104.814 199.793C103.534 199.793 102.604 199.383 102.024 198.563C101.444 197.743 101.154 196.573 101.154 195.053V193.373C101.154 191.863 101.449 190.698 102.039 189.878C102.629 189.058 103.554 188.648 104.814 188.648C106.094 188.648 107.029 189.058 107.619 189.878C108.209 190.688 108.504 191.853 108.504 193.373V195.053ZM107.424 193.358C107.424 192.018 107.204 191.058 106.764 190.478C106.334 189.888 105.684 189.593 104.814 189.593C103.984 189.593 103.344 189.888 102.894 190.478C102.454 191.068 102.234 192.028 102.234 193.358V195.068C102.234 196.408 102.454 197.373 102.894 197.963C103.344 198.553 103.984 198.848 104.814 198.848C105.674 198.848 106.324 198.558 106.764 197.978C107.204 197.388 107.424 196.418 107.424 195.068V193.358Z" fill="#585856"/>
    <path d="M128.936 190.314C129.066 190.094 129.226 189.884 129.416 189.684C129.606 189.484 129.826 189.309 130.076 189.159C130.336 188.999 130.626 188.874 130.946 188.784C131.276 188.684 131.646 188.634 132.056 188.634C132.546 188.634 132.986 188.699 133.376 188.829C133.776 188.959 134.111 189.144 134.381 189.384C134.661 189.614 134.876 189.899 135.026 190.239C135.176 190.569 135.251 190.934 135.251 191.334V191.484C135.251 191.694 135.221 191.919 135.161 192.159C135.101 192.389 135.001 192.614 134.861 192.834C134.721 193.054 134.531 193.259 134.291 193.449C134.051 193.639 133.751 193.794 133.391 193.914C134.141 194.044 134.706 194.339 135.086 194.799C135.476 195.259 135.671 195.804 135.671 196.434V196.659C135.671 197.049 135.606 197.429 135.476 197.799C135.346 198.169 135.136 198.504 134.846 198.804C134.566 199.094 134.191 199.329 133.721 199.509C133.261 199.689 132.701 199.779 132.041 199.779C131.411 199.779 130.801 199.679 130.211 199.479C129.631 199.289 129.086 198.989 128.576 198.579L129.101 197.739C129.631 198.119 130.126 198.394 130.586 198.564C131.056 198.734 131.541 198.819 132.041 198.819C132.511 198.819 132.911 198.754 133.241 198.624C133.571 198.494 133.836 198.329 134.036 198.129C134.246 197.919 134.396 197.689 134.486 197.439C134.586 197.179 134.636 196.924 134.636 196.674V196.479C134.636 196.069 134.551 195.734 134.381 195.474C134.221 195.204 134.016 194.994 133.766 194.844C133.526 194.684 133.256 194.574 132.956 194.514C132.666 194.454 132.391 194.424 132.131 194.424H130.916V193.524H132.176C132.516 193.524 132.811 193.464 133.061 193.344C133.311 193.214 133.516 193.049 133.676 192.849C133.846 192.649 133.971 192.429 134.051 192.189C134.141 191.939 134.186 191.699 134.186 191.469V191.349C134.186 190.809 133.996 190.384 133.616 190.074C133.246 189.754 132.731 189.594 132.071 189.594C131.641 189.594 131.226 189.684 130.826 189.864C130.426 190.034 130.071 190.364 129.761 190.854L128.936 190.314ZM141.335 199.614V190.119L138.725 191.709L138.245 190.869L141.59 188.799H142.385V199.614H141.335Z" fill="#585856"/>
    <path d="M21.2976 63.5718V60.5478H26.9856V59.4798H21.2376V58.4958H28.1496V61.5078H22.4616V62.5878H28.4616V63.5718H21.2976ZM26.9736 57.9438V52.4358H28.1496V57.9438H26.9736ZM22.1256 52.5918C22.5736 52.5918 22.9696 52.6598 23.3136 52.7958C23.6576 52.9318 23.9456 53.1078 24.1776 53.3238C24.4096 53.5398 24.5816 53.7838 24.6936 54.0558C24.8136 54.3278 24.8736 54.5998 24.8736 54.8718V55.3518C24.8736 55.6318 24.8136 55.9078 24.6936 56.1798C24.5816 56.4518 24.4096 56.6958 24.1776 56.9118C23.9456 57.1278 23.6576 57.3038 23.3136 57.4398C22.9696 57.5678 22.5736 57.6318 22.1256 57.6318C21.6776 57.6318 21.2816 57.5678 20.9376 57.4398C20.5936 57.3038 20.3056 57.1278 20.0736 56.9118C19.8416 56.6958 19.6656 56.4518 19.5456 56.1798C19.4336 55.9078 19.3776 55.6318 19.3776 55.3518V54.8718C19.3776 54.5998 19.4336 54.3278 19.5456 54.0558C19.6656 53.7838 19.8416 53.5398 20.0736 53.3238C20.3056 53.1078 20.5936 52.9318 20.9376 52.7958C21.2816 52.6598 21.6776 52.5918 22.1256 52.5918ZM22.1256 56.6118C22.3816 56.6118 22.6096 56.5758 22.8096 56.5038C23.0096 56.4238 23.1776 56.3238 23.3136 56.2038C23.4496 56.0758 23.5536 55.9318 23.6256 55.7718C23.6976 55.6118 23.7336 55.4478 23.7336 55.2798V54.9438C23.7336 54.7758 23.6976 54.6118 23.6256 54.4518C23.5536 54.2918 23.4496 54.1518 23.3136 54.0318C23.1776 53.9118 23.0096 53.8158 22.8096 53.7438C22.6096 53.6638 22.3816 53.6238 22.1256 53.6238C21.8696 53.6238 21.6416 53.6598 21.4416 53.7318C21.2416 53.8038 21.0736 53.9038 20.9376 54.0318C20.8016 54.1518 20.6976 54.2918 20.6256 54.4518C20.5536 54.6118 20.5176 54.7758 20.5176 54.9438V55.2798C20.5176 55.4478 20.5536 55.6118 20.6256 55.7718C20.6976 55.9318 20.8016 56.0758 20.9376 56.2038C21.0736 56.3238 21.2416 56.4238 21.4416 56.5038C21.6416 56.5758 21.8696 56.6118 22.1256 56.6118Z" fill="#F57521"/>
    <path d="M57.3747 63.5718V61.0158H63.3987V60.3678H57.3147V59.4078H64.5627V61.9398H58.4907V62.6118H64.8867V63.5718H57.3747ZM58.9707 56.1198C58.1147 56.1198 57.4467 55.9678 56.9667 55.6638C56.4947 55.3518 56.2587 54.9558 56.2587 54.4758V54.1638C56.2587 53.9238 56.3187 53.7038 56.4387 53.5038C56.5667 53.3038 56.7467 53.1318 56.9787 52.9878C57.2107 52.8358 57.4947 52.7198 57.8307 52.6398C58.1667 52.5598 58.5467 52.5198 58.9707 52.5198C59.8267 52.5278 60.4907 52.6838 60.9627 52.9878C61.4427 53.2918 61.6827 53.6838 61.6827 54.1638V54.4758C61.6827 54.9558 61.4427 55.3518 60.9627 55.6638C60.4907 55.9678 59.8267 56.1198 58.9707 56.1198ZM63.3867 58.9998V58.6278H61.0467V57.7158H63.3867V52.4358H64.5627V58.9998H63.3867ZM58.2627 58.9758V57.4878C57.8707 57.5038 57.4507 57.5118 57.0027 57.5118C56.5547 57.5118 56.0627 57.5118 55.5267 57.5118V56.5638C56.3987 56.5638 57.1547 56.5598 57.7947 56.5518C58.4427 56.5438 59.0347 56.5318 59.5707 56.5158C60.1067 56.4918 60.6107 56.4638 61.0827 56.4318C61.5627 56.3998 62.0667 56.3598 62.5947 56.3118L62.6907 57.2238C62.1627 57.2798 61.6427 57.3278 61.1307 57.3678C60.6267 57.3998 60.0627 57.4278 59.4387 57.4518V58.9758H58.2627ZM58.9707 55.1238C59.5227 55.1238 59.9227 55.0558 60.1707 54.9198C60.4267 54.7758 60.5547 54.6078 60.5547 54.4158V54.2238C60.5547 54.0318 60.4267 53.8678 60.1707 53.7318C59.9227 53.5958 59.5227 53.5278 58.9707 53.5278C58.4187 53.5278 58.0147 53.5958 57.7587 53.7318C57.5107 53.8678 57.3867 54.0318 57.3867 54.2238V54.4158C57.3867 54.6078 57.5107 54.7758 57.7587 54.9198C58.0147 55.0558 58.4187 55.1238 58.9707 55.1238Z" fill="#F57521"/>
    <path d="M98.7918 61.1958C98.2958 61.2438 97.8238 61.2878 97.3758 61.3278C96.9278 61.3598 96.4398 61.3878 95.9118 61.4118C95.3918 61.4358 94.7958 61.4558 94.1238 61.4718C93.4518 61.4798 92.6438 61.4838 91.6998 61.4838V60.4758C92.2918 60.4758 92.8278 60.4758 93.3078 60.4758C93.7878 60.4758 94.2318 60.4678 94.6398 60.4518V59.3598C94.3038 59.3198 93.9998 59.2398 93.7278 59.1198C93.4638 58.9998 93.2398 58.8558 93.0558 58.6878C92.8718 58.5198 92.7318 58.3358 92.6358 58.1358C92.5398 57.9278 92.4918 57.7158 92.4918 57.4998V57.0438C92.4918 56.8038 92.5518 56.5718 92.6718 56.3478C92.7998 56.1158 92.9758 55.9118 93.1998 55.7358C93.4318 55.5598 93.7118 55.4198 94.0398 55.3158C94.3758 55.2118 94.7518 55.1598 95.1678 55.1598C95.5838 55.1598 95.9558 55.2118 96.2838 55.3158C96.6198 55.4198 96.8998 55.5598 97.1238 55.7358C97.3558 55.9118 97.5318 56.1158 97.6518 56.3478C97.7798 56.5718 97.8438 56.8038 97.8438 57.0438V57.4998C97.8438 57.9238 97.6638 58.3118 97.3038 58.6638C96.9518 59.0078 96.4558 59.2318 95.8158 59.3358V60.4158C96.3518 60.3998 96.8438 60.3758 97.2918 60.3438C97.7478 60.3038 98.2158 60.2638 98.6958 60.2238L98.7918 61.1958ZM99.3438 63.4998V52.4358H100.52V56.8638H102.176V57.8958H100.52V63.4998H99.3438ZM98.2878 54.7038H91.9278V53.6838H94.5798V52.3518H95.7558V53.6838H98.2878V54.7038ZM95.1678 58.4118C95.6558 58.4118 96.0318 58.3078 96.2958 58.0998C96.5598 57.8918 96.6918 57.6558 96.6918 57.3918V57.1518C96.6918 56.8878 96.5558 56.6518 96.2838 56.4438C96.0198 56.2358 95.6478 56.1318 95.1678 56.1318C94.6798 56.1318 94.3038 56.2358 94.0398 56.4438C93.7758 56.6518 93.6438 56.8878 93.6438 57.1518V57.3918C93.6438 57.6558 93.7758 57.8918 94.0398 58.0998C94.3118 58.3078 94.6878 58.4118 95.1678 58.4118Z" fill="#F57521"/>
    <path d="M132.481 63.4998V59.6958H128.005V58.6878H138.157V59.6958H133.681V63.4998H132.481ZM134.413 56.5878C134.013 56.3878 133.709 56.2118 133.501 56.0598C133.301 55.9078 133.161 55.7638 133.081 55.6278H133.069C132.997 55.7638 132.857 55.9118 132.649 56.0718C132.441 56.2238 132.137 56.3998 131.737 56.5998C131.409 56.7598 131.025 56.9398 130.585 57.1398C130.145 57.3398 129.677 57.5358 129.181 57.7278L128.713 56.7558C129.161 56.5878 129.617 56.4038 130.081 56.2038C130.545 55.9958 130.969 55.7878 131.353 55.5798C131.553 55.4678 131.725 55.3558 131.869 55.2438C132.013 55.1318 132.129 55.0078 132.217 54.8718C132.313 54.7278 132.381 54.5718 132.421 54.4038C132.461 54.2278 132.481 54.0278 132.481 53.8038V52.8198H133.669V53.8038C133.669 54.0278 133.689 54.2278 133.729 54.4038C133.769 54.5718 133.833 54.7278 133.921 54.8718C134.009 55.0078 134.121 55.1318 134.257 55.2438C134.401 55.3558 134.577 55.4678 134.785 55.5798C135.169 55.7878 135.593 55.9958 136.057 56.2038C136.521 56.4038 136.977 56.5878 137.425 56.7558L136.969 57.7158C136.473 57.5238 136.005 57.3278 135.565 57.1278C135.125 56.9278 134.741 56.7478 134.413 56.5878Z" fill="#F57521"/>
    <path d="M173.022 56.7798H170.022V57.9078H174.498V58.9158H164.346V57.9078H168.822V56.7798H165.822V52.8198H173.022V56.7798ZM165.654 59.9718H173.082V63.6078H171.894V60.9798H165.654V59.9718ZM171.846 53.8158H166.998V55.7838H171.846V53.8158Z" fill="#F57521"/>
    <path d="M209.387 63.4878H202.139V59.2878H209.387V63.4878ZM202.007 52.9038H209.315V54.6078C209.315 54.9438 209.295 55.3238 209.255 55.7478C209.215 56.1638 209.155 56.5798 209.075 56.9958H210.839V58.0038H200.687V56.9958H207.851C207.947 56.5558 208.015 56.1318 208.055 55.7238C208.095 55.3078 208.115 54.9198 208.115 54.5598V53.9118H202.007V52.9038ZM208.211 60.2838H203.315V62.4918H208.211V60.2838Z" fill="#F57521"/>
    <path d="M245.62 56.6838H239.572V58.1358H245.872V59.1438H242.692V61.0158H247.18V62.0238H237.028V61.0158H241.516V59.1438H238.396V53.2398H245.704V54.2478H239.572V55.6998H245.62V56.6838Z" fill="#F57521"/>
</svg>
