<svg width="266" height="220" viewBox="0 0 266 220" fill="none" xmlns="http://www.w3.org/2000/svg">
    <rect x="1.66309" y="1.87207" width="262.489" height="216.576" rx="18.5" fill="white" stroke="#F57521" stroke-width="3"/>
    <path d="M0.163086 20.3721C0.163086 9.32638 9.11739 0.37207 20.1631 0.37207H245.652C256.698 0.37207 265.652 9.32638 265.652 20.3721V48.0625H0.163086V20.3721Z" fill="#F57521"/>
    <path d="M126.552 26.7882C126.552 27.4549 126.435 28.1299 126.202 28.8132C125.969 29.4799 125.602 30.0882 125.102 30.6382C124.602 31.1882 123.952 31.6299 123.152 31.9632C122.352 32.3132 121.394 32.4882 120.277 32.4882C119.044 32.4882 117.927 32.3216 116.927 31.9882C115.927 31.6716 115.002 31.1716 114.152 30.4882L115.377 28.5132C116.244 29.1966 117.069 29.6549 117.852 29.8882C118.652 30.1216 119.477 30.2382 120.327 30.2382C120.977 30.2382 121.535 30.1382 122.002 29.9382C122.485 29.7382 122.877 29.4799 123.177 29.1632C123.494 28.8299 123.719 28.4549 123.852 28.0382C124.002 27.6216 124.077 27.2049 124.077 26.7882V26.4882C124.077 25.2882 123.76 24.3966 123.127 23.8132C122.494 23.2132 121.602 22.9132 120.452 22.9132C119.685 22.9132 119.002 23.0549 118.402 23.3382C117.819 23.6216 117.327 23.9549 116.927 24.3382H115.027L115.602 14.1882H125.377V16.3132H117.852L117.577 21.9382C117.977 21.6382 118.485 21.3799 119.102 21.1632C119.735 20.9466 120.427 20.8382 121.177 20.8382C122.027 20.8382 122.785 20.9882 123.452 21.2882C124.119 21.5716 124.677 21.9716 125.127 22.4882C125.594 22.9882 125.944 23.5799 126.177 24.2632C126.427 24.9299 126.552 25.6466 126.552 26.4132V26.7882ZM132.286 35.2132V29.8882H144.836V28.5382H132.161V26.5382H147.261V31.8132H134.611V33.2132H147.936V35.2132H132.286ZM135.611 19.6882C133.828 19.6882 132.436 19.3716 131.436 18.7382C130.453 18.0882 129.961 17.2632 129.961 16.2632V15.6132C129.961 15.1132 130.086 14.6549 130.336 14.2382C130.603 13.8216 130.978 13.4632 131.461 13.1632C131.944 12.8466 132.536 12.6049 133.236 12.4382C133.936 12.2716 134.728 12.1882 135.611 12.1882C137.394 12.2049 138.778 12.5299 139.761 13.1632C140.761 13.7966 141.261 14.6132 141.261 15.6132V16.2632C141.261 17.2632 140.761 18.0882 139.761 18.7382C138.778 19.3716 137.394 19.6882 135.611 19.6882ZM144.811 25.6882V24.9132H139.936V23.0132H144.811V12.0132H147.261V25.6882H144.811ZM134.136 25.6382V22.5382C133.319 22.5716 132.444 22.5882 131.511 22.5882C130.578 22.5882 129.553 22.5882 128.436 22.5882V20.6132C130.253 20.6132 131.828 20.6049 133.161 20.5882C134.511 20.5716 135.744 20.5466 136.861 20.5132C137.978 20.4632 139.028 20.4049 140.011 20.3382C141.011 20.2716 142.061 20.1882 143.161 20.0882L143.361 21.9882C142.261 22.1049 141.178 22.2049 140.111 22.2882C139.061 22.3549 137.886 22.4132 136.586 22.4632V25.6382H134.136ZM135.611 17.6132C136.761 17.6132 137.594 17.4716 138.111 17.1882C138.644 16.8882 138.911 16.5382 138.911 16.1382V15.7382C138.911 15.3382 138.644 14.9966 138.111 14.7132C137.594 14.4299 136.761 14.2882 135.611 14.2882C134.461 14.2882 133.619 14.4299 133.086 14.7132C132.569 14.9966 132.311 15.3382 132.311 15.7382V16.1382C132.311 16.5382 132.569 16.8882 133.086 17.1882C133.619 17.4716 134.461 17.6132 135.611 17.6132Z" fill="white"/>
    <path d="M46.4688 166.636C46.4688 161.113 50.9459 156.636 56.4688 156.636H257.649V179.457H56.4687C50.9459 179.457 46.4688 174.98 46.4688 169.457V166.636Z" fill="#F57521"/>
    <path d="M13.3511 182.457H34.5205C40.0434 182.457 44.5205 186.934 44.5205 192.457V195.277C44.5205 200.8 40.0434 205.277 34.5205 205.277H13.3511V182.457Z" fill="#F57521"/>
    <path d="M61.4544 92.6322V83.1372L58.8444 84.7272L58.3644 83.8872L61.7094 81.8172H62.5044V92.6322H61.4544Z" fill="#585856"/>
    <path d="M58.7316 111.326C58.7316 111.616 58.7816 111.891 58.8816 112.151C58.9816 112.411 59.1216 112.636 59.3016 112.826C59.4916 113.016 59.7166 113.166 59.9766 113.276C60.2366 113.386 60.5266 113.441 60.8466 113.441C61.1666 113.441 61.4566 113.386 61.7166 113.276C61.9766 113.166 62.1966 113.016 62.3766 112.826C62.5666 112.636 62.7116 112.411 62.8116 112.151C62.9116 111.891 62.9616 111.616 62.9616 111.326V111.146C62.9616 110.586 62.7666 110.146 62.3766 109.826C61.9966 109.496 61.4866 109.331 60.8466 109.331C60.1966 109.331 59.6816 109.496 59.3016 109.826C58.9216 110.146 58.7316 110.586 58.7316 111.146V111.326ZM58.4316 116.606C58.4316 116.886 58.4866 117.146 58.5966 117.386C58.7066 117.626 58.8666 117.836 59.0766 118.016C59.2866 118.196 59.5366 118.341 59.8266 118.451C60.1266 118.551 60.4666 118.601 60.8466 118.601C61.2266 118.601 61.5666 118.551 61.8666 118.451C62.1666 118.341 62.4166 118.196 62.6166 118.016C62.8266 117.836 62.9866 117.626 63.0966 117.386C63.2066 117.146 63.2616 116.886 63.2616 116.606V116.426C63.2616 116.106 63.2016 115.816 63.0816 115.556C62.9616 115.296 62.7966 115.071 62.5866 114.881C62.3766 114.691 62.1216 114.546 61.8216 114.446C61.5316 114.346 61.2066 114.296 60.8466 114.296C60.4966 114.296 60.1716 114.346 59.8716 114.446C59.5816 114.546 59.3266 114.691 59.1066 114.881C58.8966 115.061 58.7316 115.281 58.6116 115.541C58.4916 115.801 58.4316 116.096 58.4316 116.426V116.606ZM57.3666 116.381C57.3666 115.781 57.5466 115.256 57.9066 114.806C58.2766 114.346 58.7566 114.026 59.3466 113.846C58.8266 113.606 58.4216 113.271 58.1316 112.841C57.8516 112.411 57.7116 111.911 57.7116 111.341V111.101C57.7116 110.711 57.7866 110.351 57.9366 110.021C58.0966 109.691 58.3166 109.406 58.5966 109.166C58.8766 108.926 59.2066 108.741 59.5866 108.611C59.9766 108.471 60.3966 108.401 60.8466 108.401C61.2966 108.401 61.7116 108.471 62.0916 108.611C62.4816 108.741 62.8166 108.926 63.0966 109.166C63.3766 109.406 63.5916 109.691 63.7416 110.021C63.9016 110.351 63.9816 110.711 63.9816 111.101V111.341C63.9816 111.911 63.8366 112.411 63.5466 112.841C63.2666 113.271 62.8616 113.606 62.3316 113.846C62.6216 113.936 62.8866 114.061 63.1266 114.221C63.3766 114.381 63.5866 114.576 63.7566 114.806C63.9366 115.026 64.0766 115.271 64.1766 115.541C64.2766 115.801 64.3266 116.081 64.3266 116.381V116.636C64.3266 117.066 64.2416 117.461 64.0716 117.821C63.9116 118.181 63.6766 118.491 63.3666 118.751C63.0666 119.001 62.7016 119.196 62.2716 119.336C61.8416 119.476 61.3666 119.546 60.8466 119.546C60.3266 119.546 59.8516 119.476 59.4216 119.336C58.9916 119.196 58.6216 119.001 58.3116 118.751C58.0116 118.491 57.7766 118.181 57.6066 117.821C57.4466 117.461 57.3666 117.066 57.3666 116.636V116.381Z" fill="#585856"/>
    <path d="M23.8007 119.392H22.6157L27.0107 109.537H20.9357V108.577H28.1807V109.387L23.8007 119.392Z" fill="#585856"/>
    <path d="M246.183 83.2422C245.843 83.0422 245.478 82.8872 245.088 82.7772C244.708 82.6572 244.308 82.5972 243.888 82.5972C243.378 82.5972 242.948 82.7022 242.598 82.9122C242.248 83.1122 241.958 83.4072 241.728 83.7972C241.498 84.1872 241.323 84.6672 241.203 85.2372C241.083 85.7972 241.003 86.4372 240.963 87.1572C241.043 86.9972 241.158 86.8272 241.308 86.6472C241.468 86.4672 241.658 86.3022 241.878 86.1522C242.108 86.0022 242.373 85.8822 242.673 85.7922C242.973 85.6922 243.313 85.6422 243.693 85.6422C244.153 85.6422 244.588 85.7172 244.998 85.8672C245.418 86.0172 245.783 86.2372 246.093 86.5272C246.413 86.8072 246.663 87.1572 246.843 87.5772C247.033 87.9872 247.128 88.4572 247.128 88.9872V89.3472C247.128 89.8772 247.038 90.3572 246.858 90.7872C246.678 91.2072 246.428 91.5672 246.108 91.8672C245.798 92.1672 245.423 92.3972 244.983 92.5572C244.553 92.7172 244.088 92.7972 243.588 92.7972C243.078 92.7972 242.598 92.7072 242.148 92.5272C241.708 92.3572 241.323 92.0922 240.993 91.7322C240.663 91.3722 240.403 90.9172 240.213 90.3672C240.023 89.8072 239.928 89.1522 239.928 88.4022V88.0422C239.928 86.8822 240.018 85.8972 240.198 85.0872C240.388 84.2772 240.653 83.6172 240.993 83.1072C241.333 82.5972 241.748 82.2272 242.238 81.9972C242.728 81.7672 243.283 81.6522 243.903 81.6522C244.393 81.6522 244.873 81.7172 245.343 81.8472C245.823 81.9772 246.268 82.1572 246.678 82.3872L246.183 83.2422ZM241.068 89.1372C241.068 89.5472 241.128 89.9172 241.248 90.2472C241.368 90.5772 241.538 90.8622 241.758 91.1022C241.978 91.3422 242.238 91.5272 242.538 91.6572C242.848 91.7872 243.188 91.8522 243.558 91.8522C243.928 91.8522 244.268 91.7972 244.578 91.6872C244.888 91.5672 245.153 91.4022 245.373 91.1922C245.603 90.9722 245.778 90.7072 245.898 90.3972C246.028 90.0772 246.093 89.7122 246.093 89.3022V89.0772C246.093 88.6772 246.023 88.3222 245.883 88.0122C245.743 87.6922 245.558 87.4272 245.328 87.2172C245.098 86.9972 244.828 86.8322 244.518 86.7222C244.218 86.6122 243.903 86.5572 243.573 86.5572C243.253 86.5572 242.943 86.6172 242.643 86.7372C242.343 86.8572 242.078 87.0222 241.848 87.2322C241.618 87.4422 241.428 87.6972 241.278 87.9972C241.138 88.2872 241.068 88.6022 241.068 88.9422V89.1372Z" fill="#585856"/>
    <path d="M209.722 89.3772C209.722 88.5072 209.507 87.8772 209.077 87.4872C208.657 87.0872 208.057 86.8872 207.277 86.8872C206.817 86.8872 206.407 86.9722 206.047 87.1422C205.687 87.3122 205.387 87.5122 205.147 87.7422H204.157L204.502 81.8172H210.067V82.7772H205.432L205.267 86.7072C205.507 86.4772 205.832 86.2922 206.242 86.1522C206.652 86.0122 207.082 85.9422 207.532 85.9422C208.062 85.9422 208.527 86.0322 208.927 86.2122C209.337 86.3822 209.677 86.6172 209.947 86.9172C210.217 87.2172 210.417 87.5772 210.547 87.9972C210.687 88.4072 210.757 88.8522 210.757 89.3322V89.5572C210.757 89.9472 210.692 90.3372 210.562 90.7272C210.432 91.1072 210.222 91.4522 209.932 91.7622C209.652 92.0622 209.277 92.3072 208.807 92.4972C208.337 92.6972 207.767 92.7972 207.097 92.7972C206.357 92.7972 205.707 92.6872 205.147 92.4672C204.587 92.2572 204.067 91.9672 203.587 91.5972L204.127 90.7422C204.647 91.1422 205.142 91.4272 205.612 91.5972C206.092 91.7572 206.587 91.8372 207.097 91.8372C207.577 91.8372 207.982 91.7672 208.312 91.6272C208.652 91.4772 208.927 91.2922 209.137 91.0722C209.347 90.8522 209.497 90.6122 209.587 90.3522C209.677 90.0822 209.722 89.8222 209.722 89.5722V89.3772Z" fill="#585856"/>
    <path d="M173.305 85.8672V89.2722H174.895V90.2322H173.305V92.6322H172.255V90.2322H166.84V89.2722L172.09 81.8172H173.29L168.055 89.2722H172.255V85.8672H173.305Z" fill="#585856"/>
    <path d="M131.174 83.3322C131.304 83.1122 131.464 82.9022 131.654 82.7022C131.844 82.5022 132.064 82.3272 132.314 82.1772C132.574 82.0172 132.864 81.8922 133.184 81.8022C133.514 81.7022 133.884 81.6522 134.294 81.6522C134.784 81.6522 135.224 81.7172 135.614 81.8472C136.014 81.9772 136.349 82.1622 136.619 82.4022C136.899 82.6322 137.114 82.9172 137.264 83.2572C137.414 83.5872 137.489 83.9522 137.489 84.3522V84.5022C137.489 84.7122 137.459 84.9372 137.399 85.1772C137.339 85.4072 137.239 85.6322 137.099 85.8522C136.959 86.0722 136.769 86.2772 136.529 86.4672C136.289 86.6572 135.989 86.8122 135.629 86.9322C136.379 87.0622 136.944 87.3572 137.324 87.8172C137.714 88.2772 137.909 88.8222 137.909 89.4522V89.6772C137.909 90.0672 137.844 90.4472 137.714 90.8172C137.584 91.1872 137.374 91.5222 137.084 91.8222C136.804 92.1122 136.429 92.3472 135.959 92.5272C135.499 92.7072 134.939 92.7972 134.279 92.7972C133.649 92.7972 133.039 92.6972 132.449 92.4972C131.869 92.3072 131.324 92.0072 130.814 91.5972L131.339 90.7572C131.869 91.1372 132.364 91.4122 132.824 91.5822C133.294 91.7522 133.779 91.8372 134.279 91.8372C134.749 91.8372 135.149 91.7722 135.479 91.6422C135.809 91.5122 136.074 91.3472 136.274 91.1472C136.484 90.9372 136.634 90.7072 136.724 90.4572C136.824 90.1972 136.874 89.9422 136.874 89.6922V89.4972C136.874 89.0872 136.789 88.7522 136.619 88.4922C136.459 88.2222 136.254 88.0122 136.004 87.8622C135.764 87.7022 135.494 87.5922 135.194 87.5322C134.904 87.4722 134.629 87.4422 134.369 87.4422H133.154V86.5422H134.414C134.754 86.5422 135.049 86.4822 135.299 86.3622C135.549 86.2322 135.754 86.0672 135.914 85.8672C136.084 85.6672 136.209 85.4472 136.289 85.2072C136.379 84.9572 136.424 84.7172 136.424 84.4872V84.3672C136.424 83.8272 136.234 83.4022 135.854 83.0922C135.484 82.7722 134.969 82.6122 134.309 82.6122C133.879 82.6122 133.464 82.7022 133.064 82.8822C132.664 83.0522 132.309 83.3822 131.999 83.8722L131.174 83.3322Z" fill="#585856"/>
    <path d="M98.7636 87.0072C99.0636 86.6572 99.3036 86.3572 99.4836 86.1072C99.6636 85.8572 99.7986 85.6372 99.8886 85.4472C99.9886 85.2472 100.054 85.0722 100.084 84.9222C100.124 84.7722 100.144 84.6272 100.144 84.4872V84.3672C100.144 83.8272 99.9636 83.4022 99.6036 83.0922C99.2536 82.7722 98.7486 82.6122 98.0886 82.6122C97.6086 82.6122 97.1586 82.7272 96.7386 82.9572C96.3186 83.1872 95.9336 83.6172 95.5836 84.2472L94.7436 83.7222C94.8736 83.4922 95.0336 83.2572 95.2236 83.0172C95.4136 82.7672 95.6436 82.5422 95.9136 82.3422C96.1836 82.1422 96.4936 81.9772 96.8436 81.8472C97.2036 81.7172 97.6086 81.6522 98.0586 81.6522C98.5386 81.6522 98.9736 81.7172 99.3636 81.8472C99.7536 81.9772 100.084 82.1622 100.354 82.4022C100.624 82.6322 100.834 82.9172 100.984 83.2572C101.134 83.5872 101.209 83.9522 101.209 84.3522V84.5022C101.209 84.7922 101.159 85.0772 101.059 85.3572C100.959 85.6272 100.824 85.8922 100.654 86.1522C100.494 86.4122 100.304 86.6722 100.084 86.9322C99.8636 87.1922 99.6386 87.4572 99.4086 87.7272L96.0486 91.6722H101.599V92.6322H94.7286V91.7322L98.7636 87.0072Z" fill="#585856"/>
    <path d="M56.9569 146.13V136.635L54.3469 138.225L53.8669 137.385L57.2119 135.315H58.0069V146.13H56.9569ZM68.411 142.875C68.411 142.005 68.196 141.375 67.766 140.985C67.346 140.585 66.746 140.385 65.966 140.385C65.506 140.385 65.096 140.47 64.736 140.64C64.376 140.81 64.076 141.01 63.836 141.24H62.846L63.191 135.315H68.756V136.275H64.121L63.956 140.205C64.196 139.975 64.521 139.79 64.931 139.65C65.341 139.51 65.771 139.44 66.221 139.44C66.751 139.44 67.216 139.53 67.616 139.71C68.026 139.88 68.366 140.115 68.636 140.415C68.906 140.715 69.106 141.075 69.236 141.495C69.376 141.905 69.446 142.35 69.446 142.83V143.055C69.446 143.445 69.381 143.835 69.251 144.225C69.121 144.605 68.911 144.95 68.621 145.26C68.341 145.56 67.966 145.805 67.496 145.995C67.026 146.195 66.456 146.295 65.786 146.295C65.046 146.295 64.396 146.185 63.836 145.965C63.276 145.755 62.756 145.465 62.276 145.095L62.816 144.24C63.336 144.64 63.831 144.925 64.301 145.095C64.781 145.255 65.276 145.335 65.786 145.335C66.266 145.335 66.671 145.265 67.001 145.125C67.341 144.975 67.616 144.79 67.826 144.57C68.036 144.35 68.186 144.11 68.276 143.85C68.366 143.58 68.411 143.32 68.411 143.07V142.875Z" fill="#585856"/>
    <path d="M20.6161 146.138V136.643L18.006 138.233L17.526 137.393L20.871 135.323H21.666V146.138H20.6161ZM31.9952 139.373V142.778H33.5852V143.738H31.9952V146.138H30.9452V143.738H25.5302V142.778L30.7802 135.323H31.9802L26.7452 142.778H30.9452V139.373H31.9952Z" fill="#585856"/>
    <path d="M240.716 119.378V109.883L238.106 111.473L237.626 110.633L240.971 108.563H241.766V119.378H240.716ZM246.305 110.078C246.435 109.858 246.595 109.648 246.785 109.448C246.975 109.248 247.195 109.073 247.445 108.923C247.705 108.763 247.995 108.638 248.315 108.548C248.645 108.448 249.015 108.398 249.425 108.398C249.915 108.398 250.355 108.463 250.745 108.593C251.145 108.723 251.48 108.908 251.75 109.148C252.03 109.378 252.245 109.663 252.395 110.003C252.545 110.333 252.62 110.698 252.62 111.098V111.248C252.62 111.458 252.59 111.683 252.53 111.923C252.47 112.153 252.37 112.378 252.23 112.598C252.09 112.818 251.9 113.023 251.66 113.213C251.42 113.403 251.12 113.558 250.76 113.678C251.51 113.808 252.075 114.103 252.455 114.563C252.845 115.023 253.04 115.568 253.04 116.198V116.423C253.04 116.813 252.975 117.193 252.845 117.563C252.715 117.933 252.505 118.268 252.215 118.568C251.935 118.858 251.56 119.093 251.09 119.273C250.63 119.453 250.07 119.543 249.41 119.543C248.78 119.543 248.17 119.443 247.58 119.243C247 119.053 246.455 118.753 245.945 118.343L246.47 117.503C247 117.883 247.495 118.158 247.955 118.328C248.425 118.498 248.91 118.583 249.41 118.583C249.88 118.583 250.28 118.518 250.61 118.388C250.94 118.258 251.205 118.093 251.405 117.893C251.615 117.683 251.765 117.453 251.855 117.203C251.955 116.943 252.005 116.688 252.005 116.438V116.243C252.005 115.833 251.92 115.498 251.75 115.238C251.59 114.968 251.385 114.758 251.135 114.608C250.895 114.448 250.625 114.338 250.325 114.278C250.035 114.218 249.76 114.188 249.5 114.188H248.285V113.288H249.545C249.885 113.288 250.18 113.228 250.43 113.108C250.68 112.978 250.885 112.813 251.045 112.613C251.215 112.413 251.34 112.193 251.42 111.953C251.51 111.703 251.555 111.463 251.555 111.233V111.113C251.555 110.573 251.365 110.148 250.985 109.838C250.615 109.518 250.1 109.358 249.44 109.358C249.01 109.358 248.595 109.448 248.195 109.628C247.795 109.798 247.44 110.128 247.13 110.618L246.305 110.078Z" fill="#585856"/>
    <path d="M204.374 119.378V109.883L201.764 111.473L201.284 110.633L204.629 108.563H205.424V119.378H204.374ZM213.893 113.753C214.193 113.403 214.433 113.103 214.613 112.853C214.793 112.603 214.928 112.383 215.018 112.193C215.118 111.993 215.183 111.818 215.213 111.668C215.253 111.518 215.273 111.373 215.273 111.233V111.113C215.273 110.573 215.093 110.148 214.733 109.838C214.383 109.518 213.878 109.358 213.218 109.358C212.738 109.358 212.288 109.473 211.868 109.703C211.448 109.933 211.063 110.363 210.713 110.993L209.873 110.468C210.003 110.238 210.163 110.003 210.353 109.763C210.543 109.513 210.773 109.288 211.043 109.088C211.313 108.888 211.623 108.723 211.973 108.593C212.333 108.463 212.738 108.398 213.188 108.398C213.668 108.398 214.103 108.463 214.493 108.593C214.883 108.723 215.213 108.908 215.483 109.148C215.753 109.378 215.963 109.663 216.113 110.003C216.263 110.333 216.338 110.698 216.338 111.098V111.248C216.338 111.538 216.288 111.823 216.188 112.103C216.088 112.373 215.953 112.638 215.783 112.898C215.623 113.158 215.433 113.418 215.213 113.678C214.993 113.938 214.768 114.203 214.538 114.473L211.178 118.418H216.728V119.378H209.858V118.478L213.893 113.753Z" fill="#585856"/>
    <path d="M168.033 119.378V109.883L165.423 111.473L164.943 110.633L168.288 108.563H169.083V119.378H168.033ZM177.027 119.378V109.883L174.417 111.473L173.937 110.633L177.282 108.563H178.077V119.378H177.027Z" fill="#585856"/>
    <path d="M131.692 119.378V109.883L129.082 111.473L128.602 110.633L131.947 108.563H132.742V119.378H131.692ZM144.196 114.803C144.196 116.333 143.906 117.508 143.326 118.328C142.746 119.138 141.806 119.543 140.506 119.543C139.226 119.543 138.296 119.133 137.716 118.313C137.136 117.493 136.846 116.323 136.846 114.803V113.123C136.846 111.613 137.141 110.448 137.731 109.628C138.321 108.808 139.246 108.398 140.506 108.398C141.786 108.398 142.721 108.808 143.311 109.628C143.901 110.438 144.196 111.603 144.196 113.123V114.803ZM143.116 113.108C143.116 111.768 142.896 110.808 142.456 110.228C142.026 109.638 141.376 109.343 140.506 109.343C139.676 109.343 139.036 109.638 138.586 110.228C138.146 110.818 137.926 111.778 137.926 113.108V114.818C137.926 116.158 138.146 117.123 138.586 117.713C139.036 118.303 139.676 118.598 140.506 118.598C141.366 118.598 142.016 118.308 142.456 117.728C142.896 117.138 143.116 116.168 143.116 114.818V113.108Z" fill="#585856"/>
    <path d="M96.9085 117.926C97.2485 118.126 97.6135 118.286 98.0035 118.406C98.3935 118.526 98.8035 118.586 99.2335 118.586C99.7835 118.586 100.243 118.486 100.613 118.286C100.983 118.076 101.278 117.776 101.498 117.386C101.718 116.996 101.878 116.521 101.978 115.961C102.078 115.401 102.138 114.771 102.158 114.071C102.078 114.231 101.963 114.401 101.813 114.581C101.663 114.761 101.473 114.931 101.243 115.091C101.023 115.241 100.758 115.371 100.448 115.481C100.148 115.581 99.8085 115.631 99.4285 115.631C98.9685 115.631 98.5285 115.556 98.1085 115.406C97.6985 115.246 97.3335 115.021 97.0135 114.731C96.7035 114.441 96.4535 114.091 96.2635 113.681C96.0835 113.261 95.9935 112.786 95.9935 112.256V111.896C95.9935 111.366 96.0835 110.886 96.2635 110.456C96.4435 110.026 96.6885 109.661 96.9985 109.361C97.3185 109.051 97.6935 108.816 98.1235 108.656C98.5635 108.486 99.0335 108.401 99.5335 108.401C100.033 108.401 100.503 108.491 100.943 108.671C101.393 108.841 101.783 109.111 102.113 109.481C102.443 109.841 102.703 110.301 102.893 110.861C103.093 111.411 103.193 112.061 103.193 112.811V113.261C103.193 114.451 103.108 115.451 102.938 116.261C102.778 117.061 102.533 117.706 102.203 118.196C101.873 118.686 101.458 119.031 100.958 119.231C100.458 119.441 99.8735 119.546 99.2035 119.546C98.7135 119.546 98.2385 119.481 97.7785 119.351C97.3185 119.221 96.8835 119.041 96.4735 118.811L96.9085 117.926ZM102.053 112.106C102.053 111.706 101.993 111.336 101.873 110.996C101.753 110.656 101.583 110.366 101.363 110.126C101.143 109.876 100.878 109.686 100.568 109.556C100.268 109.416 99.9335 109.346 99.5635 109.346C99.1935 109.346 98.8535 109.406 98.5435 109.526C98.2335 109.646 97.9635 109.816 97.7335 110.036C97.5135 110.256 97.3385 110.531 97.2085 110.861C97.0885 111.181 97.0285 111.541 97.0285 111.941V112.166C97.0285 112.576 97.0985 112.941 97.2385 113.261C97.3785 113.571 97.5635 113.836 97.7935 114.056C98.0235 114.266 98.2885 114.431 98.5885 114.551C98.8985 114.661 99.2185 114.716 99.5485 114.716C99.8585 114.716 100.163 114.656 100.463 114.536C100.773 114.416 101.043 114.246 101.273 114.026C101.503 113.806 101.688 113.551 101.828 113.261C101.978 112.971 102.053 112.651 102.053 112.301V112.106Z" fill="#585856"/>
    <path d="M57.5691 167.254C57.8791 166.914 58.1241 166.619 58.3041 166.369C58.4841 166.119 58.6191 165.899 58.7091 165.709C58.7991 165.509 58.8541 165.334 58.8741 165.184C58.9041 165.024 58.9191 164.874 58.9191 164.734V164.614C58.9191 164.184 58.7491 163.849 58.4091 163.609C58.0791 163.359 57.6291 163.234 57.0591 163.234C56.8591 163.234 56.6541 163.259 56.4441 163.309C56.2441 163.349 56.0441 163.429 55.8441 163.549C55.6441 163.669 55.4491 163.834 55.2591 164.044C55.0691 164.244 54.8841 164.499 54.7041 164.809L53.5641 164.074C53.6941 163.844 53.8541 163.604 54.0441 163.354C54.2341 163.094 54.4641 162.859 54.7341 162.649C55.0141 162.429 55.3391 162.249 55.7091 162.109C56.0891 161.969 56.5291 161.899 57.0291 161.899C57.5791 161.899 58.0641 161.969 58.4841 162.109C58.9041 162.239 59.2541 162.424 59.5341 162.664C59.8241 162.904 60.0391 163.194 60.1791 163.534C60.3291 163.864 60.4041 164.224 60.4041 164.614V164.764C60.4041 165.354 60.2491 165.909 59.9391 166.429C59.6291 166.949 59.2291 167.469 58.7391 167.989L55.3641 171.589H60.7941V172.879H53.5341V171.634L57.5691 167.254ZM66.7244 167.254C67.0344 166.914 67.2794 166.619 67.4594 166.369C67.6394 166.119 67.7744 165.899 67.8644 165.709C67.9544 165.509 68.0094 165.334 68.0294 165.184C68.0594 165.024 68.0744 164.874 68.0744 164.734V164.614C68.0744 164.184 67.9044 163.849 67.5644 163.609C67.2344 163.359 66.7844 163.234 66.2144 163.234C66.0144 163.234 65.8094 163.259 65.5994 163.309C65.3994 163.349 65.1994 163.429 64.9994 163.549C64.7994 163.669 64.6044 163.834 64.4144 164.044C64.2244 164.244 64.0394 164.499 63.8594 164.809L62.7194 164.074C62.8494 163.844 63.0094 163.604 63.1994 163.354C63.3894 163.094 63.6194 162.859 63.8894 162.649C64.1694 162.429 64.4944 162.249 64.8644 162.109C65.2444 161.969 65.6844 161.899 66.1844 161.899C66.7344 161.899 67.2194 161.969 67.6394 162.109C68.0594 162.239 68.4094 162.424 68.6894 162.664C68.9794 162.904 69.1944 163.194 69.3344 163.534C69.4844 163.864 69.5594 164.224 69.5594 164.614V164.764C69.5594 165.354 69.4044 165.909 69.0944 166.429C68.7844 166.949 68.3844 167.469 67.8944 167.989L64.5194 171.589H69.9494V172.879H62.6894V171.634L66.7244 167.254Z" fill="white"/>
    <path d="M21.5844 167.258C21.8844 166.908 22.1244 166.608 22.3044 166.358C22.4844 166.108 22.6194 165.888 22.7094 165.698C22.8094 165.498 22.8744 165.323 22.9044 165.173C22.9444 165.023 22.9644 164.878 22.9644 164.738V164.618C22.9644 164.078 22.7844 163.653 22.4244 163.343C22.0744 163.023 21.5694 162.863 20.9094 162.863C20.4294 162.863 19.9794 162.978 19.5594 163.208C19.1394 163.438 18.7544 163.868 18.4044 164.498L17.5644 163.973C17.6944 163.743 17.8544 163.508 18.0444 163.268C18.2344 163.018 18.4644 162.793 18.7344 162.593C19.0044 162.393 19.3144 162.228 19.6644 162.098C20.0244 161.968 20.4294 161.903 20.8794 161.903C21.3594 161.903 21.7944 161.968 22.1844 162.098C22.5744 162.228 22.9044 162.413 23.1744 162.653C23.4444 162.883 23.6544 163.168 23.8044 163.508C23.9544 163.838 24.0294 164.203 24.0294 164.603V164.753C24.0294 165.043 23.9794 165.328 23.8794 165.608C23.7794 165.878 23.6444 166.143 23.4744 166.403C23.3144 166.663 23.1244 166.923 22.9044 167.183C22.6844 167.443 22.4594 167.708 22.2294 167.978L18.8694 171.923H24.4194V172.883H17.5494V171.983L21.5844 167.258ZM30.0536 172.883V163.388L27.4435 164.978L26.9635 164.138L30.3085 162.068H31.1035V172.883H30.0536Z" fill="#585856"/>
    <path d="M241.24 140.498C241.54 140.148 241.78 139.848 241.96 139.598C242.14 139.348 242.275 139.128 242.365 138.938C242.465 138.738 242.53 138.563 242.56 138.413C242.6 138.263 242.62 138.118 242.62 137.978V137.858C242.62 137.318 242.44 136.893 242.08 136.583C241.73 136.263 241.225 136.103 240.565 136.103C240.085 136.103 239.635 136.218 239.215 136.448C238.795 136.678 238.41 137.108 238.06 137.738L237.22 137.213C237.35 136.983 237.51 136.748 237.7 136.508C237.89 136.258 238.12 136.033 238.39 135.833C238.66 135.633 238.97 135.468 239.32 135.338C239.68 135.208 240.085 135.143 240.535 135.143C241.015 135.143 241.45 135.208 241.84 135.338C242.23 135.468 242.56 135.653 242.83 135.893C243.1 136.123 243.31 136.408 243.46 136.748C243.61 137.078 243.685 137.443 243.685 137.843V137.993C243.685 138.283 243.635 138.568 243.535 138.848C243.435 139.118 243.3 139.383 243.13 139.643C242.97 139.903 242.78 140.163 242.56 140.423C242.34 140.683 242.115 140.948 241.885 141.218L238.525 145.163H244.075V146.123H237.205V145.223L241.24 140.498ZM253.219 141.548C253.219 143.078 252.929 144.253 252.349 145.073C251.769 145.883 250.829 146.288 249.529 146.288C248.249 146.288 247.319 145.878 246.739 145.058C246.159 144.238 245.869 143.068 245.869 141.548V139.868C245.869 138.358 246.164 137.193 246.754 136.373C247.344 135.553 248.269 135.143 249.529 135.143C250.809 135.143 251.744 135.553 252.334 136.373C252.924 137.183 253.219 138.348 253.219 139.868V141.548ZM252.139 139.853C252.139 138.513 251.919 137.553 251.479 136.973C251.049 136.383 250.399 136.088 249.529 136.088C248.699 136.088 248.059 136.383 247.609 136.973C247.169 137.563 246.949 138.523 246.949 139.853V141.563C246.949 142.903 247.169 143.868 247.609 144.458C248.059 145.048 248.699 145.343 249.529 145.343C250.389 145.343 251.039 145.053 251.479 144.473C251.919 143.883 252.139 142.913 252.139 141.563V139.853Z" fill="#585856"/>
    <path d="M204.374 146.123V136.628L201.764 138.218L201.284 137.378L204.629 135.308H205.424V146.123H204.374ZM210.428 144.668C210.768 144.868 211.133 145.028 211.523 145.148C211.913 145.268 212.323 145.328 212.753 145.328C213.303 145.328 213.763 145.228 214.133 145.028C214.503 144.818 214.798 144.518 215.018 144.128C215.238 143.738 215.398 143.263 215.498 142.703C215.598 142.143 215.658 141.513 215.678 140.813C215.598 140.973 215.483 141.143 215.333 141.323C215.183 141.503 214.993 141.673 214.763 141.833C214.543 141.983 214.278 142.113 213.968 142.223C213.668 142.323 213.328 142.373 212.948 142.373C212.488 142.373 212.048 142.298 211.628 142.148C211.218 141.988 210.853 141.763 210.533 141.473C210.223 141.183 209.973 140.833 209.783 140.423C209.603 140.003 209.513 139.528 209.513 138.998V138.638C209.513 138.108 209.603 137.628 209.783 137.198C209.963 136.768 210.208 136.403 210.518 136.103C210.838 135.793 211.213 135.558 211.643 135.398C212.083 135.228 212.553 135.143 213.053 135.143C213.553 135.143 214.023 135.233 214.463 135.413C214.913 135.583 215.303 135.853 215.633 136.223C215.963 136.583 216.223 137.043 216.413 137.603C216.613 138.153 216.713 138.803 216.713 139.553V140.003C216.713 141.193 216.628 142.193 216.458 143.003C216.298 143.803 216.053 144.448 215.723 144.938C215.393 145.428 214.978 145.773 214.478 145.973C213.978 146.183 213.393 146.288 212.723 146.288C212.233 146.288 211.758 146.223 211.298 146.093C210.838 145.963 210.403 145.783 209.993 145.553L210.428 144.668ZM215.573 138.848C215.573 138.448 215.513 138.078 215.393 137.738C215.273 137.398 215.103 137.108 214.883 136.868C214.663 136.618 214.398 136.428 214.088 136.298C213.788 136.158 213.453 136.088 213.083 136.088C212.713 136.088 212.373 136.148 212.063 136.268C211.753 136.388 211.483 136.558 211.253 136.778C211.033 136.998 210.858 137.273 210.728 137.603C210.608 137.923 210.548 138.283 210.548 138.683V138.908C210.548 139.318 210.618 139.683 210.758 140.003C210.898 140.313 211.083 140.578 211.313 140.798C211.543 141.008 211.808 141.173 212.108 141.293C212.418 141.403 212.738 141.458 213.068 141.458C213.378 141.458 213.683 141.398 213.983 141.278C214.293 141.158 214.563 140.988 214.793 140.768C215.023 140.548 215.208 140.293 215.348 140.003C215.498 139.713 215.573 139.393 215.573 139.043V138.848Z" fill="#585856"/>
    <path d="M168.033 146.123V136.628L165.423 138.218L164.943 137.378L168.288 135.308H169.083V146.123H168.033ZM174.747 138.068C174.747 138.358 174.797 138.633 174.897 138.893C174.997 139.153 175.137 139.378 175.317 139.568C175.507 139.758 175.732 139.908 175.992 140.018C176.252 140.128 176.542 140.183 176.862 140.183C177.182 140.183 177.472 140.128 177.732 140.018C177.992 139.908 178.212 139.758 178.392 139.568C178.582 139.378 178.727 139.153 178.827 138.893C178.927 138.633 178.977 138.358 178.977 138.068V137.888C178.977 137.328 178.782 136.888 178.392 136.568C178.012 136.238 177.502 136.073 176.862 136.073C176.212 136.073 175.697 136.238 175.317 136.568C174.937 136.888 174.747 137.328 174.747 137.888V138.068ZM174.447 143.348C174.447 143.628 174.502 143.888 174.612 144.128C174.722 144.368 174.882 144.578 175.092 144.758C175.302 144.938 175.552 145.083 175.842 145.193C176.142 145.293 176.482 145.343 176.862 145.343C177.242 145.343 177.582 145.293 177.882 145.193C178.182 145.083 178.432 144.938 178.632 144.758C178.842 144.578 179.002 144.368 179.112 144.128C179.222 143.888 179.277 143.628 179.277 143.348V143.168C179.277 142.848 179.217 142.558 179.097 142.298C178.977 142.038 178.812 141.813 178.602 141.623C178.392 141.433 178.137 141.288 177.837 141.188C177.547 141.088 177.222 141.038 176.862 141.038C176.512 141.038 176.187 141.088 175.887 141.188C175.597 141.288 175.342 141.433 175.122 141.623C174.912 141.803 174.747 142.023 174.627 142.283C174.507 142.543 174.447 142.838 174.447 143.168V143.348ZM173.382 143.123C173.382 142.523 173.562 141.998 173.922 141.548C174.292 141.088 174.772 140.768 175.362 140.588C174.842 140.348 174.437 140.013 174.147 139.583C173.867 139.153 173.727 138.653 173.727 138.083V137.843C173.727 137.453 173.802 137.093 173.952 136.763C174.112 136.433 174.332 136.148 174.612 135.908C174.892 135.668 175.222 135.483 175.602 135.353C175.992 135.213 176.412 135.143 176.862 135.143C177.312 135.143 177.727 135.213 178.107 135.353C178.497 135.483 178.832 135.668 179.112 135.908C179.392 136.148 179.607 136.433 179.757 136.763C179.917 137.093 179.997 137.453 179.997 137.843V138.083C179.997 138.653 179.852 139.153 179.562 139.583C179.282 140.013 178.877 140.348 178.347 140.588C178.637 140.678 178.902 140.803 179.142 140.963C179.392 141.123 179.602 141.318 179.772 141.548C179.952 141.768 180.092 142.013 180.192 142.283C180.292 142.543 180.342 142.823 180.342 143.123V143.378C180.342 143.808 180.257 144.203 180.087 144.563C179.927 144.923 179.692 145.233 179.382 145.493C179.082 145.743 178.717 145.938 178.287 146.078C177.857 146.218 177.382 146.288 176.862 146.288C176.342 146.288 175.867 146.218 175.437 146.078C175.007 145.938 174.637 145.743 174.327 145.493C174.027 145.233 173.792 144.923 173.622 144.563C173.462 144.203 173.382 143.808 173.382 143.378V143.123Z" fill="#585856"/>
    <path d="M131.692 146.123V136.628L129.082 138.218L128.602 137.378L131.947 135.308H132.742V146.123H131.692ZM139.816 146.123H138.631L143.026 136.268H136.951V135.308H144.196V136.118L139.816 146.123Z" fill="#585856"/>
    <path d="M95.3509 146.13V136.635L92.7409 138.225L92.2609 137.385L95.6059 135.315H96.4009V146.13H95.3509ZM106.925 136.74C106.585 136.54 106.22 136.385 105.83 136.275C105.45 136.155 105.05 136.095 104.63 136.095C104.12 136.095 103.69 136.2 103.34 136.41C102.99 136.61 102.7 136.905 102.47 137.295C102.24 137.685 102.065 138.165 101.945 138.735C101.825 139.295 101.745 139.935 101.705 140.655C101.785 140.495 101.9 140.325 102.05 140.145C102.21 139.965 102.4 139.8 102.62 139.65C102.85 139.5 103.115 139.38 103.415 139.29C103.715 139.19 104.055 139.14 104.435 139.14C104.895 139.14 105.33 139.215 105.74 139.365C106.16 139.515 106.525 139.735 106.835 140.025C107.155 140.305 107.405 140.655 107.585 141.075C107.775 141.485 107.87 141.955 107.87 142.485V142.845C107.87 143.375 107.78 143.855 107.6 144.285C107.42 144.705 107.17 145.065 106.85 145.365C106.54 145.665 106.165 145.895 105.725 146.055C105.295 146.215 104.83 146.295 104.33 146.295C103.82 146.295 103.34 146.205 102.89 146.025C102.45 145.855 102.065 145.59 101.735 145.23C101.405 144.87 101.145 144.415 100.955 143.865C100.765 143.305 100.67 142.65 100.67 141.9V141.54C100.67 140.38 100.76 139.395 100.94 138.585C101.13 137.775 101.395 137.115 101.735 136.605C102.075 136.095 102.49 135.725 102.98 135.495C103.47 135.265 104.025 135.15 104.645 135.15C105.135 135.15 105.615 135.215 106.085 135.345C106.565 135.475 107.01 135.655 107.42 135.885L106.925 136.74ZM101.81 142.635C101.81 143.045 101.87 143.415 101.99 143.745C102.11 144.075 102.28 144.36 102.5 144.6C102.72 144.84 102.98 145.025 103.28 145.155C103.59 145.285 103.93 145.35 104.3 145.35C104.67 145.35 105.01 145.295 105.32 145.185C105.63 145.065 105.895 144.9 106.115 144.69C106.345 144.47 106.52 144.205 106.64 143.895C106.77 143.575 106.835 143.21 106.835 142.8V142.575C106.835 142.175 106.765 141.82 106.625 141.51C106.485 141.19 106.3 140.925 106.07 140.715C105.84 140.495 105.57 140.33 105.26 140.22C104.96 140.11 104.645 140.055 104.315 140.055C103.995 140.055 103.685 140.115 103.385 140.235C103.085 140.355 102.82 140.52 102.59 140.73C102.36 140.94 102.17 141.195 102.02 141.495C101.88 141.785 101.81 142.1 101.81 142.44V142.635Z" fill="#585856"/>
    <path d="M57.9252 194.003C58.2252 193.653 58.4652 193.353 58.6452 193.103C58.8252 192.853 58.9602 192.633 59.0502 192.443C59.1502 192.243 59.2152 192.068 59.2452 191.918C59.2852 191.768 59.3052 191.623 59.3052 191.483V191.363C59.3052 190.823 59.1252 190.398 58.7652 190.088C58.4152 189.768 57.9102 189.608 57.2502 189.608C56.7702 189.608 56.3202 189.723 55.9002 189.953C55.4802 190.183 55.0952 190.613 54.7452 191.243L53.9052 190.718C54.0352 190.488 54.1952 190.253 54.3852 190.013C54.5752 189.763 54.8052 189.538 55.0752 189.338C55.3452 189.138 55.6552 188.973 56.0052 188.843C56.3652 188.713 56.7702 188.648 57.2202 188.648C57.7002 188.648 58.1352 188.713 58.5252 188.843C58.9152 188.973 59.2452 189.158 59.5152 189.398C59.7852 189.628 59.9952 189.913 60.1452 190.253C60.2952 190.583 60.3702 190.948 60.3702 191.348V191.498C60.3702 191.788 60.3202 192.073 60.2202 192.353C60.1202 192.623 59.9852 192.888 59.8152 193.148C59.6552 193.408 59.4652 193.668 59.2452 193.928C59.0252 194.188 58.8002 194.453 58.5702 194.723L55.2102 198.668H60.7602V199.628H53.8902V198.728L57.9252 194.003ZM63.4544 198.173C63.7944 198.373 64.1594 198.533 64.5494 198.653C64.9394 198.773 65.3494 198.833 65.7794 198.833C66.3294 198.833 66.7894 198.733 67.1594 198.533C67.5294 198.323 67.8244 198.023 68.0444 197.633C68.2644 197.243 68.4244 196.768 68.5244 196.208C68.6244 195.648 68.6844 195.018 68.7044 194.318C68.6244 194.478 68.5094 194.648 68.3594 194.828C68.2094 195.008 68.0194 195.178 67.7894 195.338C67.5694 195.488 67.3044 195.618 66.9944 195.728C66.6944 195.828 66.3544 195.878 65.9744 195.878C65.5144 195.878 65.0744 195.803 64.6544 195.653C64.2444 195.493 63.8794 195.268 63.5594 194.978C63.2494 194.688 62.9994 194.338 62.8094 193.928C62.6294 193.508 62.5394 193.033 62.5394 192.503V192.143C62.5394 191.613 62.6294 191.133 62.8094 190.703C62.9894 190.273 63.2344 189.908 63.5444 189.608C63.8644 189.298 64.2394 189.063 64.6694 188.903C65.1094 188.733 65.5794 188.648 66.0794 188.648C66.5794 188.648 67.0494 188.738 67.4894 188.918C67.9394 189.088 68.3294 189.358 68.6594 189.728C68.9894 190.088 69.2494 190.548 69.4394 191.108C69.6394 191.658 69.7394 192.308 69.7394 193.058V193.508C69.7394 194.698 69.6544 195.698 69.4844 196.508C69.3244 197.308 69.0794 197.953 68.7494 198.443C68.4194 198.933 68.0044 199.278 67.5044 199.478C67.0044 199.688 66.4194 199.793 65.7494 199.793C65.2594 199.793 64.7844 199.728 64.3244 199.598C63.8644 199.468 63.4294 199.288 63.0194 199.058L63.4544 198.173ZM68.5994 192.353C68.5994 191.953 68.5394 191.583 68.4194 191.243C68.2994 190.903 68.1294 190.613 67.9094 190.373C67.6894 190.123 67.4244 189.933 67.1144 189.803C66.8144 189.663 66.4794 189.593 66.1094 189.593C65.7394 189.593 65.3994 189.653 65.0894 189.773C64.7794 189.893 64.5094 190.063 64.2794 190.283C64.0594 190.503 63.8844 190.778 63.7544 191.108C63.6344 191.428 63.5744 191.788 63.5744 192.188V192.413C63.5744 192.823 63.6444 193.188 63.7844 193.508C63.9244 193.818 64.1094 194.083 64.3394 194.303C64.5694 194.513 64.8344 194.678 65.1344 194.798C65.4444 194.908 65.7644 194.963 66.0944 194.963C66.4044 194.963 66.7094 194.903 67.0094 194.783C67.3194 194.663 67.5894 194.493 67.8194 194.273C68.0494 194.053 68.2344 193.798 68.3744 193.508C68.5244 193.218 68.5994 192.898 68.5994 192.548V192.353Z" fill="#585856"/>
    <path d="M21.2283 194.004C21.5383 193.664 21.7833 193.369 21.9633 193.119C22.1433 192.869 22.2783 192.649 22.3683 192.459C22.4583 192.259 22.5133 192.084 22.5333 191.934C22.5633 191.774 22.5783 191.624 22.5783 191.484V191.364C22.5783 190.934 22.4083 190.599 22.0683 190.359C21.7383 190.109 21.2883 189.984 20.7183 189.984C20.5183 189.984 20.3133 190.009 20.1033 190.059C19.9033 190.099 19.7033 190.179 19.5033 190.299C19.3033 190.419 19.1083 190.584 18.9183 190.794C18.7283 190.994 18.5433 191.249 18.3633 191.559L17.2233 190.824C17.3533 190.594 17.5133 190.354 17.7033 190.104C17.8933 189.844 18.1233 189.609 18.3933 189.399C18.6733 189.179 18.9983 188.999 19.3683 188.859C19.7483 188.719 20.1883 188.649 20.6883 188.649C21.2383 188.649 21.7233 188.719 22.1433 188.859C22.5633 188.989 22.9133 189.174 23.1933 189.414C23.4833 189.654 23.6983 189.944 23.8383 190.284C23.9883 190.614 24.0633 190.974 24.0633 191.364V191.514C24.0633 192.104 23.9083 192.659 23.5983 193.179C23.2883 193.699 22.8883 194.219 22.3983 194.739L19.0233 198.339H24.4533V199.629H17.1933V198.384L21.2283 194.004ZM28.1635 191.754C28.1635 192.294 28.3335 192.714 28.6735 193.014C29.0235 193.314 29.4535 193.464 29.9635 193.464C30.4735 193.464 30.8985 193.314 31.2386 193.014C31.5886 192.714 31.7635 192.294 31.7635 191.754V191.589C31.7635 191.079 31.5986 190.679 31.2686 190.389C30.9386 190.099 30.5036 189.954 29.9635 189.954C29.4236 189.954 28.9886 190.099 28.6585 190.389C28.3285 190.679 28.1635 191.079 28.1635 191.589V191.754ZM27.8785 196.749C27.8785 197.259 28.0635 197.674 28.4335 197.994C28.8135 198.304 29.3286 198.459 29.9786 198.459C30.6286 198.459 31.1336 198.304 31.4935 197.994C31.8636 197.674 32.0486 197.259 32.0486 196.749V196.584C32.0486 195.994 31.8536 195.544 31.4636 195.234C31.0736 194.924 30.5786 194.769 29.9786 194.769C29.6886 194.769 29.4135 194.809 29.1536 194.889C28.9035 194.959 28.6836 195.074 28.4936 195.234C28.3035 195.384 28.1535 195.574 28.0435 195.804C27.9335 196.024 27.8785 196.284 27.8785 196.584V196.749ZM26.3485 196.569C26.3485 196.269 26.3935 195.989 26.4835 195.729C26.5835 195.459 26.7185 195.219 26.8885 195.009C27.0585 194.789 27.2535 194.599 27.4736 194.439C27.7035 194.279 27.9485 194.159 28.2085 194.079C27.6885 193.829 27.2985 193.484 27.0385 193.044C26.7885 192.604 26.6635 192.154 26.6635 191.694V191.484C26.6635 191.094 26.7335 190.729 26.8735 190.389C27.0235 190.049 27.2385 189.749 27.5185 189.489C27.7985 189.229 28.1435 189.024 28.5535 188.874C28.9635 188.724 29.4335 188.649 29.9635 188.649C30.4836 188.649 30.9486 188.724 31.3586 188.874C31.7686 189.024 32.1135 189.229 32.3935 189.489C32.6736 189.749 32.8886 190.049 33.0386 190.389C33.1886 190.729 33.2636 191.094 33.2636 191.484V191.694C33.2636 192.154 33.1386 192.599 32.8885 193.029C32.6386 193.459 32.2486 193.809 31.7186 194.079C32.2486 194.239 32.6886 194.544 33.0386 194.994C33.3986 195.444 33.5785 195.969 33.5785 196.569V196.824C33.5785 197.254 33.4936 197.654 33.3236 198.024C33.1636 198.384 32.9286 198.694 32.6186 198.954C32.3086 199.214 31.9286 199.419 31.4786 199.569C31.0386 199.719 30.5336 199.794 29.9635 199.794C29.3935 199.794 28.8835 199.719 28.4335 199.569C27.9935 199.419 27.6185 199.214 27.3085 198.954C26.9985 198.694 26.7585 198.384 26.5885 198.024C26.4285 197.654 26.3485 197.254 26.3485 196.824V196.569Z" fill="white"/>
    <path d="M240.885 167.244C241.195 166.904 241.44 166.609 241.62 166.359C241.8 166.109 241.935 165.889 242.025 165.699C242.115 165.499 242.17 165.324 242.19 165.174C242.22 165.014 242.235 164.864 242.235 164.724V164.604C242.235 164.174 242.065 163.839 241.725 163.599C241.395 163.349 240.945 163.224 240.375 163.224C240.175 163.224 239.97 163.249 239.76 163.299C239.56 163.339 239.36 163.419 239.16 163.539C238.96 163.659 238.765 163.824 238.575 164.034C238.385 164.234 238.2 164.489 238.02 164.799L236.88 164.064C237.01 163.834 237.17 163.594 237.36 163.344C237.55 163.084 237.78 162.849 238.05 162.639C238.33 162.419 238.655 162.239 239.025 162.099C239.405 161.959 239.845 161.889 240.345 161.889C240.895 161.889 241.38 161.959 241.8 162.099C242.22 162.229 242.57 162.414 242.85 162.654C243.14 162.894 243.355 163.184 243.495 163.524C243.645 163.854 243.72 164.214 243.72 164.604V164.754C243.72 165.344 243.565 165.899 243.255 166.419C242.945 166.939 242.545 167.459 242.055 167.979L238.68 171.579H244.11V172.869H236.85V171.624L240.885 167.244ZM249.11 172.869H247.49L251.78 163.344H245.9V162.054H253.385V163.194L249.11 172.869Z" fill="white"/>
    <path d="M204.543 167.244C204.853 166.904 205.098 166.609 205.278 166.359C205.458 166.109 205.593 165.889 205.683 165.699C205.773 165.499 205.828 165.324 205.848 165.174C205.878 165.014 205.893 164.864 205.893 164.724V164.604C205.893 164.174 205.723 163.839 205.383 163.599C205.053 163.349 204.603 163.224 204.033 163.224C203.833 163.224 203.628 163.249 203.418 163.299C203.218 163.339 203.018 163.419 202.818 163.539C202.618 163.659 202.423 163.824 202.233 164.034C202.043 164.234 201.858 164.489 201.678 164.799L200.538 164.064C200.668 163.834 200.828 163.594 201.018 163.344C201.208 163.084 201.438 162.849 201.708 162.639C201.988 162.419 202.313 162.239 202.683 162.099C203.063 161.959 203.503 161.889 204.003 161.889C204.553 161.889 205.038 161.959 205.458 162.099C205.878 162.229 206.228 162.414 206.508 162.654C206.798 162.894 207.013 163.184 207.153 163.524C207.303 163.854 207.378 164.214 207.378 164.604V164.754C207.378 165.344 207.223 165.899 206.913 166.419C206.603 166.939 206.203 167.459 205.713 167.979L202.338 171.579H207.768V172.869H200.508V171.624L204.543 167.244ZM216.023 163.884C215.683 163.684 215.318 163.529 214.928 163.419C214.538 163.309 214.128 163.254 213.698 163.254C213.328 163.254 212.988 163.319 212.678 163.449C212.378 163.569 212.113 163.774 211.883 164.064C211.663 164.354 211.483 164.739 211.343 165.219C211.213 165.699 211.133 166.294 211.103 167.004C211.193 166.844 211.318 166.694 211.478 166.554C211.648 166.404 211.843 166.274 212.063 166.164C212.293 166.044 212.543 165.949 212.813 165.879C213.093 165.809 213.383 165.774 213.683 165.774C214.163 165.774 214.608 165.854 215.018 166.014C215.438 166.174 215.798 166.404 216.098 166.704C216.408 167.004 216.648 167.369 216.818 167.799C216.998 168.219 217.088 168.694 217.088 169.224V169.554C217.088 170.074 216.998 170.549 216.818 170.979C216.638 171.399 216.388 171.764 216.068 172.074C215.748 172.374 215.358 172.609 214.898 172.779C214.448 172.949 213.948 173.034 213.398 173.034C212.178 173.034 211.243 172.659 210.593 171.909C209.953 171.149 209.633 170.039 209.633 168.579V168.024C209.633 166.844 209.733 165.859 209.933 165.069C210.143 164.279 210.428 163.649 210.788 163.179C211.158 162.709 211.598 162.379 212.108 162.189C212.618 161.989 213.178 161.889 213.788 161.889C214.278 161.889 214.763 161.949 215.243 162.069C215.733 162.189 216.183 162.374 216.593 162.624L216.023 163.884ZM211.148 169.404C211.148 170.104 211.343 170.659 211.733 171.069C212.123 171.479 212.658 171.684 213.338 171.684C214.038 171.684 214.588 171.494 214.988 171.114C215.398 170.734 215.603 170.189 215.603 169.479V169.284C215.603 168.564 215.398 168.019 214.988 167.649C214.578 167.279 214.043 167.094 213.383 167.094C213.053 167.094 212.748 167.149 212.468 167.259C212.198 167.369 211.963 167.519 211.763 167.709C211.573 167.889 211.423 168.109 211.313 168.369C211.203 168.619 211.148 168.894 211.148 169.194V169.404Z" fill="white"/>
    <path d="M168.202 167.244C168.512 166.904 168.757 166.609 168.937 166.359C169.117 166.109 169.252 165.889 169.342 165.699C169.432 165.499 169.487 165.324 169.507 165.174C169.537 165.014 169.552 164.864 169.552 164.724V164.604C169.552 164.174 169.382 163.839 169.042 163.599C168.712 163.349 168.262 163.224 167.692 163.224C167.492 163.224 167.287 163.249 167.077 163.299C166.877 163.339 166.677 163.419 166.477 163.539C166.277 163.659 166.082 163.824 165.892 164.034C165.702 164.234 165.517 164.489 165.337 164.799L164.197 164.064C164.327 163.834 164.487 163.594 164.677 163.344C164.867 163.084 165.097 162.849 165.367 162.639C165.647 162.419 165.972 162.239 166.342 162.099C166.722 161.959 167.162 161.889 167.662 161.889C168.212 161.889 168.697 161.959 169.117 162.099C169.537 162.229 169.887 162.414 170.167 162.654C170.457 162.894 170.672 163.184 170.812 163.524C170.962 163.854 171.037 164.214 171.037 164.604V164.754C171.037 165.344 170.882 165.899 170.572 166.419C170.262 166.939 169.862 167.459 169.372 167.979L165.997 171.579H171.427V172.869H164.167V171.624L168.202 167.244ZM180.747 169.614C180.747 170.014 180.677 170.419 180.537 170.829C180.397 171.229 180.177 171.594 179.877 171.924C179.577 172.254 179.187 172.519 178.707 172.719C178.227 172.929 177.652 173.034 176.982 173.034C176.242 173.034 175.572 172.934 174.972 172.734C174.372 172.544 173.817 172.244 173.307 171.834L174.042 170.649C174.562 171.059 175.057 171.334 175.527 171.474C176.007 171.614 176.502 171.684 177.012 171.684C177.402 171.684 177.737 171.624 178.017 171.504C178.307 171.384 178.542 171.229 178.722 171.039C178.912 170.839 179.047 170.614 179.127 170.364C179.217 170.114 179.262 169.864 179.262 169.614V169.434C179.262 168.714 179.072 168.179 178.692 167.829C178.312 167.469 177.777 167.289 177.087 167.289C176.627 167.289 176.217 167.374 175.857 167.544C175.507 167.714 175.212 167.914 174.972 168.144H173.832L174.177 162.054H180.042V163.329H175.527L175.362 166.704C175.602 166.524 175.907 166.369 176.277 166.239C176.657 166.109 177.072 166.044 177.522 166.044C178.032 166.044 178.487 166.134 178.887 166.314C179.287 166.484 179.622 166.724 179.892 167.034C180.172 167.334 180.382 167.689 180.522 168.099C180.672 168.499 180.747 168.929 180.747 169.389V169.614Z" fill="white"/>
    <path d="M131.861 167.244C132.171 166.904 132.416 166.609 132.596 166.359C132.776 166.109 132.911 165.889 133.001 165.699C133.091 165.499 133.146 165.324 133.166 165.174C133.196 165.014 133.211 164.864 133.211 164.724V164.604C133.211 164.174 133.041 163.839 132.701 163.599C132.371 163.349 131.921 163.224 131.351 163.224C131.151 163.224 130.946 163.249 130.736 163.299C130.536 163.339 130.336 163.419 130.136 163.539C129.936 163.659 129.741 163.824 129.551 164.034C129.361 164.234 129.176 164.489 128.996 164.799L127.856 164.064C127.986 163.834 128.146 163.594 128.336 163.344C128.526 163.084 128.756 162.849 129.026 162.639C129.306 162.419 129.631 162.239 130.001 162.099C130.381 161.959 130.821 161.889 131.321 161.889C131.871 161.889 132.356 161.959 132.776 162.099C133.196 162.229 133.546 162.414 133.826 162.654C134.116 162.894 134.331 163.184 134.471 163.524C134.621 163.854 134.696 164.214 134.696 164.604V164.754C134.696 165.344 134.541 165.899 134.231 166.419C133.921 166.939 133.521 167.459 133.031 167.979L129.656 171.579H135.086V172.869H127.826V171.624L131.861 167.244ZM143.296 165.969V169.284H144.826V170.544H143.296V172.869H141.826V170.544H136.426V169.434L141.511 162.054H143.146L138.166 169.284H141.826V165.969H143.296Z" fill="white"/>
    <path d="M95.5203 167.254C95.8303 166.914 96.0753 166.619 96.2553 166.369C96.4353 166.119 96.5703 165.899 96.6603 165.709C96.7503 165.509 96.8053 165.334 96.8253 165.184C96.8553 165.024 96.8703 164.874 96.8703 164.734V164.614C96.8703 164.184 96.7003 163.849 96.3603 163.609C96.0303 163.359 95.5803 163.234 95.0103 163.234C94.8103 163.234 94.6053 163.259 94.3953 163.309C94.1953 163.349 93.9953 163.429 93.7953 163.549C93.5953 163.669 93.4003 163.834 93.2103 164.044C93.0203 164.244 92.8353 164.499 92.6553 164.809L91.5153 164.074C91.6453 163.844 91.8053 163.604 91.9953 163.354C92.1853 163.094 92.4153 162.859 92.6853 162.649C92.9653 162.429 93.2903 162.249 93.6603 162.109C94.0403 161.969 94.4803 161.899 94.9803 161.899C95.5303 161.899 96.0153 161.969 96.4353 162.109C96.8553 162.239 97.2053 162.424 97.4853 162.664C97.7753 162.904 97.9903 163.194 98.1303 163.534C98.2803 163.864 98.3553 164.224 98.3553 164.614V164.764C98.3553 165.354 98.2003 165.909 97.8903 166.429C97.5803 166.949 97.1803 167.469 96.6903 167.989L93.3153 171.589H98.7453V172.879H91.4853V171.634L95.5203 167.254ZM100.806 163.519C100.966 163.299 101.141 163.089 101.331 162.889C101.531 162.689 101.756 162.519 102.006 162.379C102.266 162.229 102.551 162.114 102.861 162.034C103.181 161.944 103.546 161.899 103.956 161.899C104.456 161.899 104.906 161.964 105.306 162.094C105.706 162.224 106.046 162.409 106.326 162.649C106.616 162.879 106.836 163.164 106.986 163.504C107.146 163.834 107.226 164.199 107.226 164.599V164.749C107.226 164.959 107.201 165.184 107.151 165.424C107.101 165.664 107.011 165.894 106.881 166.114C106.751 166.334 106.576 166.539 106.356 166.729C106.136 166.919 105.861 167.074 105.531 167.194C106.261 167.324 106.806 167.614 107.166 168.064C107.536 168.514 107.721 169.054 107.721 169.684V169.909C107.721 170.309 107.646 170.699 107.496 171.079C107.356 171.449 107.131 171.784 106.821 172.084C106.521 172.374 106.131 172.604 105.651 172.774C105.171 172.954 104.601 173.044 103.941 173.044C103.311 173.044 102.701 172.944 102.111 172.744C101.531 172.554 100.986 172.254 100.476 171.844L101.211 170.659C101.741 171.039 102.211 171.309 102.621 171.469C103.031 171.619 103.471 171.694 103.941 171.694C104.331 171.694 104.671 171.649 104.961 171.559C105.251 171.459 105.491 171.329 105.681 171.169C105.871 171.009 106.011 170.824 106.101 170.614C106.191 170.394 106.236 170.164 106.236 169.924V169.729C106.236 169.369 106.176 169.074 106.056 168.844C105.946 168.604 105.791 168.414 105.591 168.274C105.391 168.134 105.151 168.034 104.871 167.974C104.601 167.914 104.311 167.884 104.001 167.884H102.666V166.594H103.941C104.281 166.594 104.566 166.544 104.796 166.444C105.026 166.334 105.211 166.194 105.351 166.024C105.491 165.854 105.591 165.659 105.651 165.439C105.721 165.219 105.756 164.994 105.756 164.764V164.644C105.756 164.404 105.706 164.199 105.606 164.029C105.516 163.849 105.391 163.699 105.231 163.579C105.071 163.459 104.881 163.369 104.661 163.309C104.441 163.249 104.211 163.219 103.971 163.219C103.521 163.219 103.131 163.304 102.801 163.474C102.471 163.644 102.161 163.919 101.871 164.299L100.806 163.519Z" fill="white"/>
    <path d="M92.5948 190.328C92.7248 190.108 92.8848 189.898 93.0748 189.698C93.2648 189.498 93.4848 189.323 93.7348 189.173C93.9948 189.013 94.2848 188.888 94.6048 188.798C94.9348 188.698 95.3048 188.648 95.7148 188.648C96.2048 188.648 96.6448 188.713 97.0348 188.843C97.4348 188.973 97.7698 189.158 98.0398 189.398C98.3198 189.628 98.5348 189.913 98.6848 190.253C98.8348 190.583 98.9098 190.948 98.9098 191.348V191.498C98.9098 191.708 98.8798 191.933 98.8198 192.173C98.7598 192.403 98.6598 192.628 98.5198 192.848C98.3798 193.068 98.1898 193.273 97.9498 193.463C97.7098 193.653 97.4098 193.808 97.0498 193.928C97.7998 194.058 98.3648 194.353 98.7448 194.813C99.1348 195.273 99.3298 195.818 99.3298 196.448V196.673C99.3298 197.063 99.2648 197.443 99.1348 197.813C99.0048 198.183 98.7948 198.518 98.5048 198.818C98.2248 199.108 97.8498 199.343 97.3798 199.523C96.9198 199.703 96.3598 199.793 95.6998 199.793C95.0698 199.793 94.4598 199.693 93.8698 199.493C93.2898 199.303 92.7448 199.003 92.2348 198.593L92.7598 197.753C93.2898 198.133 93.7848 198.408 94.2448 198.578C94.7148 198.748 95.1998 198.833 95.6998 198.833C96.1698 198.833 96.5698 198.768 96.8998 198.638C97.2298 198.508 97.4948 198.343 97.6948 198.143C97.9048 197.933 98.0548 197.703 98.1448 197.453C98.2448 197.193 98.2948 196.938 98.2948 196.688V196.493C98.2948 196.083 98.2098 195.748 98.0398 195.488C97.8798 195.218 97.6748 195.008 97.4248 194.858C97.1848 194.698 96.9148 194.588 96.6148 194.528C96.3248 194.468 96.0498 194.438 95.7898 194.438H94.5748V193.538H95.8348C96.1748 193.538 96.4698 193.478 96.7198 193.358C96.9698 193.228 97.1748 193.063 97.3348 192.863C97.5048 192.663 97.6298 192.443 97.7098 192.203C97.7998 191.953 97.8448 191.713 97.8448 191.483V191.363C97.8448 190.823 97.6548 190.398 97.2748 190.088C96.9048 189.768 96.3898 189.608 95.7298 189.608C95.2998 189.608 94.8848 189.698 94.4848 189.878C94.0848 190.048 93.7298 190.378 93.4198 190.868L92.5948 190.328ZM108.504 195.053C108.504 196.583 108.214 197.758 107.634 198.578C107.054 199.388 106.114 199.793 104.814 199.793C103.534 199.793 102.604 199.383 102.024 198.563C101.444 197.743 101.154 196.573 101.154 195.053V193.373C101.154 191.863 101.449 190.698 102.039 189.878C102.629 189.058 103.554 188.648 104.814 188.648C106.094 188.648 107.029 189.058 107.619 189.878C108.209 190.688 108.504 191.853 108.504 193.373V195.053ZM107.424 193.358C107.424 192.018 107.204 191.058 106.764 190.478C106.334 189.888 105.684 189.593 104.814 189.593C103.984 189.593 103.344 189.888 102.894 190.478C102.454 191.068 102.234 192.028 102.234 193.358V195.068C102.234 196.408 102.454 197.373 102.894 197.963C103.344 198.553 103.984 198.848 104.814 198.848C105.674 198.848 106.324 198.558 106.764 197.978C107.204 197.388 107.424 196.418 107.424 195.068V193.358Z" fill="#585856"/>
    <path d="M128.936 190.314C129.066 190.094 129.226 189.884 129.416 189.684C129.606 189.484 129.826 189.309 130.076 189.159C130.336 188.999 130.626 188.874 130.946 188.784C131.276 188.684 131.646 188.634 132.056 188.634C132.546 188.634 132.986 188.699 133.376 188.829C133.776 188.959 134.111 189.144 134.381 189.384C134.661 189.614 134.876 189.899 135.026 190.239C135.176 190.569 135.251 190.934 135.251 191.334V191.484C135.251 191.694 135.221 191.919 135.161 192.159C135.101 192.389 135.001 192.614 134.861 192.834C134.721 193.054 134.531 193.259 134.291 193.449C134.051 193.639 133.751 193.794 133.391 193.914C134.141 194.044 134.706 194.339 135.086 194.799C135.476 195.259 135.671 195.804 135.671 196.434V196.659C135.671 197.049 135.606 197.429 135.476 197.799C135.346 198.169 135.136 198.504 134.846 198.804C134.566 199.094 134.191 199.329 133.721 199.509C133.261 199.689 132.701 199.779 132.041 199.779C131.411 199.779 130.801 199.679 130.211 199.479C129.631 199.289 129.086 198.989 128.576 198.579L129.101 197.739C129.631 198.119 130.126 198.394 130.586 198.564C131.056 198.734 131.541 198.819 132.041 198.819C132.511 198.819 132.911 198.754 133.241 198.624C133.571 198.494 133.836 198.329 134.036 198.129C134.246 197.919 134.396 197.689 134.486 197.439C134.586 197.179 134.636 196.924 134.636 196.674V196.479C134.636 196.069 134.551 195.734 134.381 195.474C134.221 195.204 134.016 194.994 133.766 194.844C133.526 194.684 133.256 194.574 132.956 194.514C132.666 194.454 132.391 194.424 132.131 194.424H130.916V193.524H132.176C132.516 193.524 132.811 193.464 133.061 193.344C133.311 193.214 133.516 193.049 133.676 192.849C133.846 192.649 133.971 192.429 134.051 192.189C134.141 191.939 134.186 191.699 134.186 191.469V191.349C134.186 190.809 133.996 190.384 133.616 190.074C133.246 189.754 132.731 189.594 132.071 189.594C131.641 189.594 131.226 189.684 130.826 189.864C130.426 190.034 130.071 190.364 129.761 190.854L128.936 190.314ZM141.335 199.614V190.119L138.725 191.709L138.245 190.869L141.59 188.799H142.385V199.614H141.335Z" fill="#585856"/>
    <path d="M21.2976 63.5718V60.5478H26.9856V59.4798H21.2376V58.4958H28.1496V61.5078H22.4616V62.5878H28.4616V63.5718H21.2976ZM26.9736 57.9438V52.4358H28.1496V57.9438H26.9736ZM22.1256 52.5918C22.5736 52.5918 22.9696 52.6598 23.3136 52.7958C23.6576 52.9318 23.9456 53.1078 24.1776 53.3238C24.4096 53.5398 24.5816 53.7838 24.6936 54.0558C24.8136 54.3278 24.8736 54.5998 24.8736 54.8718V55.3518C24.8736 55.6318 24.8136 55.9078 24.6936 56.1798C24.5816 56.4518 24.4096 56.6958 24.1776 56.9118C23.9456 57.1278 23.6576 57.3038 23.3136 57.4398C22.9696 57.5678 22.5736 57.6318 22.1256 57.6318C21.6776 57.6318 21.2816 57.5678 20.9376 57.4398C20.5936 57.3038 20.3056 57.1278 20.0736 56.9118C19.8416 56.6958 19.6656 56.4518 19.5456 56.1798C19.4336 55.9078 19.3776 55.6318 19.3776 55.3518V54.8718C19.3776 54.5998 19.4336 54.3278 19.5456 54.0558C19.6656 53.7838 19.8416 53.5398 20.0736 53.3238C20.3056 53.1078 20.5936 52.9318 20.9376 52.7958C21.2816 52.6598 21.6776 52.5918 22.1256 52.5918ZM22.1256 56.6118C22.3816 56.6118 22.6096 56.5758 22.8096 56.5038C23.0096 56.4238 23.1776 56.3238 23.3136 56.2038C23.4496 56.0758 23.5536 55.9318 23.6256 55.7718C23.6976 55.6118 23.7336 55.4478 23.7336 55.2798V54.9438C23.7336 54.7758 23.6976 54.6118 23.6256 54.4518C23.5536 54.2918 23.4496 54.1518 23.3136 54.0318C23.1776 53.9118 23.0096 53.8158 22.8096 53.7438C22.6096 53.6638 22.3816 53.6238 22.1256 53.6238C21.8696 53.6238 21.6416 53.6598 21.4416 53.7318C21.2416 53.8038 21.0736 53.9038 20.9376 54.0318C20.8016 54.1518 20.6976 54.2918 20.6256 54.4518C20.5536 54.6118 20.5176 54.7758 20.5176 54.9438V55.2798C20.5176 55.4478 20.5536 55.6118 20.6256 55.7718C20.6976 55.9318 20.8016 56.0758 20.9376 56.2038C21.0736 56.3238 21.2416 56.4238 21.4416 56.5038C21.6416 56.5758 21.8696 56.6118 22.1256 56.6118Z" fill="#F57521"/>
    <path d="M57.3747 63.5718V61.0158H63.3987V60.3678H57.3147V59.4078H64.5627V61.9398H58.4907V62.6118H64.8867V63.5718H57.3747ZM58.9707 56.1198C58.1147 56.1198 57.4467 55.9678 56.9667 55.6638C56.4947 55.3518 56.2587 54.9558 56.2587 54.4758V54.1638C56.2587 53.9238 56.3187 53.7038 56.4387 53.5038C56.5667 53.3038 56.7467 53.1318 56.9787 52.9878C57.2107 52.8358 57.4947 52.7198 57.8307 52.6398C58.1667 52.5598 58.5467 52.5198 58.9707 52.5198C59.8267 52.5278 60.4907 52.6838 60.9627 52.9878C61.4427 53.2918 61.6827 53.6838 61.6827 54.1638V54.4758C61.6827 54.9558 61.4427 55.3518 60.9627 55.6638C60.4907 55.9678 59.8267 56.1198 58.9707 56.1198ZM63.3867 58.9998V58.6278H61.0467V57.7158H63.3867V52.4358H64.5627V58.9998H63.3867ZM58.2627 58.9758V57.4878C57.8707 57.5038 57.4507 57.5118 57.0027 57.5118C56.5547 57.5118 56.0627 57.5118 55.5267 57.5118V56.5638C56.3987 56.5638 57.1547 56.5598 57.7947 56.5518C58.4427 56.5438 59.0347 56.5318 59.5707 56.5158C60.1067 56.4918 60.6107 56.4638 61.0827 56.4318C61.5627 56.3998 62.0667 56.3598 62.5947 56.3118L62.6907 57.2238C62.1627 57.2798 61.6427 57.3278 61.1307 57.3678C60.6267 57.3998 60.0627 57.4278 59.4387 57.4518V58.9758H58.2627ZM58.9707 55.1238C59.5227 55.1238 59.9227 55.0558 60.1707 54.9198C60.4267 54.7758 60.5547 54.6078 60.5547 54.4158V54.2238C60.5547 54.0318 60.4267 53.8678 60.1707 53.7318C59.9227 53.5958 59.5227 53.5278 58.9707 53.5278C58.4187 53.5278 58.0147 53.5958 57.7587 53.7318C57.5107 53.8678 57.3867 54.0318 57.3867 54.2238V54.4158C57.3867 54.6078 57.5107 54.7758 57.7587 54.9198C58.0147 55.0558 58.4187 55.1238 58.9707 55.1238Z" fill="#F57521"/>
    <path d="M98.7918 61.1958C98.2958 61.2438 97.8238 61.2878 97.3758 61.3278C96.9278 61.3598 96.4398 61.3878 95.9118 61.4118C95.3918 61.4358 94.7958 61.4558 94.1238 61.4718C93.4518 61.4798 92.6438 61.4838 91.6998 61.4838V60.4758C92.2918 60.4758 92.8278 60.4758 93.3078 60.4758C93.7878 60.4758 94.2318 60.4678 94.6398 60.4518V59.3598C94.3038 59.3198 93.9998 59.2398 93.7278 59.1198C93.4638 58.9998 93.2398 58.8558 93.0558 58.6878C92.8718 58.5198 92.7318 58.3358 92.6358 58.1358C92.5398 57.9278 92.4918 57.7158 92.4918 57.4998V57.0438C92.4918 56.8038 92.5518 56.5718 92.6718 56.3478C92.7998 56.1158 92.9758 55.9118 93.1998 55.7358C93.4318 55.5598 93.7118 55.4198 94.0398 55.3158C94.3758 55.2118 94.7518 55.1598 95.1678 55.1598C95.5838 55.1598 95.9558 55.2118 96.2838 55.3158C96.6198 55.4198 96.8998 55.5598 97.1238 55.7358C97.3558 55.9118 97.5318 56.1158 97.6518 56.3478C97.7798 56.5718 97.8438 56.8038 97.8438 57.0438V57.4998C97.8438 57.9238 97.6638 58.3118 97.3038 58.6638C96.9518 59.0078 96.4558 59.2318 95.8158 59.3358V60.4158C96.3518 60.3998 96.8438 60.3758 97.2918 60.3438C97.7478 60.3038 98.2158 60.2638 98.6958 60.2238L98.7918 61.1958ZM99.3438 63.4998V52.4358H100.52V56.8638H102.176V57.8958H100.52V63.4998H99.3438ZM98.2878 54.7038H91.9278V53.6838H94.5798V52.3518H95.7558V53.6838H98.2878V54.7038ZM95.1678 58.4118C95.6558 58.4118 96.0318 58.3078 96.2958 58.0998C96.5598 57.8918 96.6918 57.6558 96.6918 57.3918V57.1518C96.6918 56.8878 96.5558 56.6518 96.2838 56.4438C96.0198 56.2358 95.6478 56.1318 95.1678 56.1318C94.6798 56.1318 94.3038 56.2358 94.0398 56.4438C93.7758 56.6518 93.6438 56.8878 93.6438 57.1518V57.3918C93.6438 57.6558 93.7758 57.8918 94.0398 58.0998C94.3118 58.3078 94.6878 58.4118 95.1678 58.4118Z" fill="#F57521"/>
    <path d="M132.481 63.4998V59.6958H128.005V58.6878H138.157V59.6958H133.681V63.4998H132.481ZM134.413 56.5878C134.013 56.3878 133.709 56.2118 133.501 56.0598C133.301 55.9078 133.161 55.7638 133.081 55.6278H133.069C132.997 55.7638 132.857 55.9118 132.649 56.0718C132.441 56.2238 132.137 56.3998 131.737 56.5998C131.409 56.7598 131.025 56.9398 130.585 57.1398C130.145 57.3398 129.677 57.5358 129.181 57.7278L128.713 56.7558C129.161 56.5878 129.617 56.4038 130.081 56.2038C130.545 55.9958 130.969 55.7878 131.353 55.5798C131.553 55.4678 131.725 55.3558 131.869 55.2438C132.013 55.1318 132.129 55.0078 132.217 54.8718C132.313 54.7278 132.381 54.5718 132.421 54.4038C132.461 54.2278 132.481 54.0278 132.481 53.8038V52.8198H133.669V53.8038C133.669 54.0278 133.689 54.2278 133.729 54.4038C133.769 54.5718 133.833 54.7278 133.921 54.8718C134.009 55.0078 134.121 55.1318 134.257 55.2438C134.401 55.3558 134.577 55.4678 134.785 55.5798C135.169 55.7878 135.593 55.9958 136.057 56.2038C136.521 56.4038 136.977 56.5878 137.425 56.7558L136.969 57.7158C136.473 57.5238 136.005 57.3278 135.565 57.1278C135.125 56.9278 134.741 56.7478 134.413 56.5878Z" fill="#F57521"/>
    <path d="M173.022 56.7798H170.022V57.9078H174.498V58.9158H164.346V57.9078H168.822V56.7798H165.822V52.8198H173.022V56.7798ZM165.654 59.9718H173.082V63.6078H171.894V60.9798H165.654V59.9718ZM171.846 53.8158H166.998V55.7838H171.846V53.8158Z" fill="#F57521"/>
    <path d="M209.387 63.4878H202.139V59.2878H209.387V63.4878ZM202.007 52.9038H209.315V54.6078C209.315 54.9438 209.295 55.3238 209.255 55.7478C209.215 56.1638 209.155 56.5798 209.075 56.9958H210.839V58.0038H200.687V56.9958H207.851C207.947 56.5558 208.015 56.1318 208.055 55.7238C208.095 55.3078 208.115 54.9198 208.115 54.5598V53.9118H202.007V52.9038ZM208.211 60.2838H203.315V62.4918H208.211V60.2838Z" fill="#F57521"/>
    <path d="M245.62 56.6838H239.572V58.1358H245.872V59.1438H242.692V61.0158H247.18V62.0238H237.028V61.0158H241.516V59.1438H238.396V53.2398H245.704V54.2478H239.572V55.6998H245.62V56.6838Z" fill="#F57521"/>
</svg>
