<?xml version="1.0" encoding="UTF-8"?>
<svg id="Layer_2" data-name="Layer 2" xmlns="http://www.w3.org/2000/svg" viewBox="0 0 263.63 388.3">
  <defs>
    <style>
      .cls-1 {
        fill: #f2f1eb;
      }

      .cls-2 {
        fill: #f8ef8d;
      }

      .cls-3 {
        fill: #fff;
      }

      .cls-4 {
        fill: #fbeb46;
      }

      .cls-5 {
        fill: #8b7919;
      }

      .cls-6 {
        fill: #bdd148;
      }

      .cls-7 {
        fill: #bf6087;
      }

      .cls-8 {
        fill: #bd9e4f;
      }

      .cls-9 {
        fill: #1d1d1b;
      }

      .cls-10 {
        fill: #52af2c;
      }

      .cls-11 {
        fill: #6d6854;
      }

      .cls-12 {
        fill: #575756;
      }

      .cls-13 {
        fill: #796e32;
      }
    </style>
  </defs>
  <g id="Layer_3" data-name="Layer 3">
    <g>
      <path class="cls-6" d="m85.51,181.88s-24.87-23.73-33.45-52.03-8.58-44.31-2.29-60.89c0,0,12.58,22.01,31.73,4.86,19.15-17.15-2.29-30.59-5.72-32.02,0,0,38.59-18.58,78.04,7.15,0,0-15.44,1.72-18.58,18.01-3.14,16.29,14.29,22.87,22.87,22.3,8.58-.57,16.87-15.44,16.87-15.44,0,0,10.29,24.58-.29,44.02-10.58,19.44-31.16,38.02-33.73,50.6,0,0-18.01,2-32.3,18.01l-23.16-4.57Z"/>
      <path class="cls-6" d="m109.48,185.78s-31.63-6.33-62.61-3.27c-30.98,3.05-34.69,10.91-37.31,22.25-2.62,11.34,6.54,20.07,16.14,21.82,9.6,1.75,22.47-1.96,25.52-12.22,0,0,18.76-7.2,46.25-4.36l12-24.22Z"/>
      <path class="cls-6" d="m169.47,175.75s15.49-15.49,46.47-18.54,33.38,16.8,33.16,22.03c-.22,5.24-8.73,14.83-16.36,14.18-7.64-.65-12.65-8.07-12.65-8.07l-12.22,2.18s.22-3.27-11.78-6.33c-12-3.05-26.62-5.45-26.62-5.45Z"/>
      <path class="cls-6" d="m101.63,320.39s5.67,8.73,16.58,14.18c10.91,5.45,21.38,6.98,21.38,6.98,0,0-1.31,9.82,4.14,16.58s10.25,18.76-4.58,25.09c-14.83,6.33-30.11,2.84-37.74-2.4-7.64-5.24,3.71-16.8,3.71-16.8,0,0-11.56-17.67-3.49-43.63Z"/>
      <path class="cls-6" d="m200.67,328.02s23.78-13.09,29.67-29.45l6.98,1.31s3.71-9.38,15.71-3.27c12,6.11,9.6,17.67,5.67,28.36-3.93,10.69-12,13.53-19.63,13.09-7.64-.44-17.67-9.6-38.4-10.04Z"/>
      <path class="cls-13" d="m93.35,235.57c4.8-19.7,5.11-33.76,15.32-49.12,10.21-15.36,29.02-16.99,36.45-18.38,7.43-1.39,14.4-1.16,17.41,1.39,3.02,2.55,1.86,3.95,1.86,3.95,0,0-10.91-3.72-23.92,2.55-13,6.27-25.54,11.15-31.58,39.01-6.04,27.86-10.45,67.33,5.8,92.41,16.25,25.08,39.47,26.7,53.4,26.47,13.93-.23,28.56-4.41,28.56-4.41,0,0,.46,6.97-19.04,12.07-19.5,5.11-58.51-.7-73.37-19.97-14.86-19.27-19.49-50.74-10.9-85.97Z"/>
      <path class="cls-5" d="m169.47,175.75s-10.78-3.89-22.19-.69c-11.41,3.19-26.7,4.34-35.14,29.9-8.44,25.56-8.9,60.02-7.99,74.17.91,14.15,10.73,46.55,47.7,54.31,36.97,7.76,61.84-12.09,72.11-24.65,10.27-12.55,16.89-45.64,12.32-72.34-4.56-26.7-18.03-41.31-29.44-49.06s-37.38-11.63-37.38-11.63Z"/>
      <path class="cls-8" d="m111.26,205.65s32.44,4.57,36.85,17.01c4.41,12.44,6.14,39.85,6.14,39.85,0,0,1.1,7.4-9.76,16.06-10.87,8.66-22.21,15.43-35.28,18.74,0,0-6.93-15.12-5.67-40.32,1.26-25.2,7.72-51.34,7.72-51.34Z"/>
      <path class="cls-8" d="m148.94,318.11c-.34-2.7,5.43-14.87,12.15-19.65,6.72-4.78,17.32-9.57,33.61-16.42,16.29-6.85,23.91-6.08,30.51-5.3,6.59.78,9.57,2.33,9.7,3.36.13,1.03-4.91,19.91-8.27,23.14-3.36,3.23-9.31,7.63-18.74,13.19-9.44,5.56-13.44,6.46-19.91,7.63-6.46,1.16-23.66-.26-27.92-.39-4.27-.13-10.6-1.42-11.12-5.56Z"/>
      <path class="cls-8" d="m161.09,174.1s-5.82-1.03-9.95,1.94-8.01,5.04-7.37,10.47c0,0-.13,1.55,3.88,5.04,4.01,3.49,4.14,5.69,10.73,4.91,6.59-.78,21.85-5.56,25.85-7.5,4.01-1.94,9.7-6.72,9.7-6.72,0,0-20.94-4.27-24.95-5.95-4.01-1.68-7.89-2.2-7.89-2.2Z"/>
      <path class="cls-8" d="m185.13,198.15c2.84-.9,10.73-2.71,16.81-1.42,6.08,1.29,12.93,4.01,18.49,8.27,5.56,4.27,10.21,20.55,10.21,20.55,0,0,3.23,13.19,2.84,17.45s-1.81,8.27-6.2,11.76c-4.4,3.49-10.86,9.18-13.83,10.08-2.97.9-29.21,2.59-34,2.2-4.78-.39-11.25-1.55-14.22-8.92-2.97-7.37-4.91-30.25-4.4-35.16.52-4.91,2.71-8.92,11.12-16.29,8.4-7.37,13.19-8.53,13.19-8.53Z"/>
      <path class="cls-6" d="m171.29,343.06s6.93,3.91,13.75,4.01c6.83.1,8.33-2.01,8.33-2.01l-11.74-4.72-10.34,2.71Z"/>
      <path class="cls-7" d="m87.28,209.95s-1.46,12.32.93,14.83,5.43-.13,5.43-.13l3.44-13.77-9.8-.93Z"/>
      <path class="cls-4" d="m46.37,110.09s-1.37-17.96-.82-28.52c.55-10.56,4.8-13.16,4.8-13.16,0,0-4.8-10.42,2.88-20.02s22.9-5.76,22.9-5.76c0,0,13.16-7.27,37.02-6.31s40.17,12.61,40.17,12.61c0,0,13.57,1.78,18.1,9.19,4.52,7.4,3.57,15.7,3.57,15.7,0,0,8.63,21.46,3.28,37.09-5.35,15.63-28.25,41-28.25,41,0,0,38.67,5.48,64.85-9.87,26.19-15.36,17.69-48.95-2.47-70.89-20.16-21.94-59.64-51.69-101.88-59.92C68.3,3,33.48.4,9.62,23.3c-23.86,22.9,8.78,70.34,36.75,86.79Z"/>
      <path class="cls-4" d="m99.98,7.67s19.74-12.89,46.76-2.88c27.01,10.01,36.61,27.83,40.86,42.23,0,0-47.03-30.85-87.62-39.35Z"/>
      <path class="cls-10" d="m203.77,44.41s-8.64-19.47,7.4-29.48c16.04-10.01,30.58,6.72,34.42,9.6,3.84,2.88,13.99,6.99,13.99,6.99,0,0-8.5,7.54-14.53,15.63s-13.44,11.65-25.91,9.87c-12.48-1.78-15.36-12.61-15.36-12.61Z"/>
      <circle class="cls-1" cx="68.51" cy="60.23" r="19.27" transform="translate(-17.98 31.23) rotate(-22.78)"/>
      <circle class="cls-1" cx="154.43" cy="69.06" r="19.27"/>
      <path class="cls-11" d="m59.48,62.44l5.22.2,3.31,4.12,6.32,1.3,4.42.3s2.21,2.11,2.61,2.91c.4.8.9,1.41.9,1.41,0,0-6.32,3.41-15.36-.2-9.03-3.61-7.43-10.04-7.43-10.04Z"/>
      <path class="cls-11" d="m145.3,71.27l5.22.2,3.31,4.12,6.32,1.3,4.42.3s2.21,2.11,2.61,2.91c.4.8.9,1.41.9,1.41,0,0-6.32,3.41-15.36-.2-9.03-3.61-7.43-10.04-7.43-10.04Z"/>
      <polygon class="cls-12" points="10.11 213.95 4.74 217.51 5.14 219.79 7.56 220.66 12.26 217.98 10.11 213.95"/>
      <polygon class="cls-12" points="15.42 222.21 12.46 226.71 13.13 227.91 15.01 228.52 16.69 227.31 18.64 224.42 15.42 222.21"/>
      <polygon class="cls-12" points="24.82 226.77 24.35 232.48 25.89 234.16 28.24 233.82 29.18 231.94 29.58 227.58 24.82 226.77"/>
      <polygon class="cls-12" points="234.01 193.28 234.97 198.14 237.04 199.33 238.82 198.73 239.28 196.17 238.32 192.77 234.01 193.28"/>
      <path class="cls-12" d="m240.98,191.03l3.44,3.07s1.15.73,2.25.23,1.79-1.24,1.38-2.2c-.41-.96-2.8-3.76-2.8-3.76l-4.27,2.66Z"/>
      <path class="cls-12" d="m249.46,180.34l-1.1,3.99s3.81,3.07,4.77,2.34c.96-.73.87-3.26.87-3.26l-4.54-3.07Z"/>
      <path class="cls-12" d="m240.04,295.11s-1.03-4.56-.15-5.29c.87-.72,2.93-.61,3.19-.19.27.42,1.1,2.36,1.1,2.36l.19,2.02-4.34,1.1Z"/>
      <path class="cls-12" d="m248.21,294.12s.72-4.94,2.59-4.49c1.86.46,2.17,2.28,2.17,2.28,0,0-1.45,3.27-1.45,3.54s-3.31-1.33-3.31-1.33Z"/>
      <path class="cls-12" d="m254.87,296.9s2.97-4.87,4.72-3.54c1.75,1.33,1.41,3.19,1.41,3.19l-2.78,3.46-3.35-3.12Z"/>
      <path class="cls-12" d="m100.88,366.45s-4.28-2.25-5.29-1.35c-1.01.9-1.29,3.04-.96,3.32.34.28,3.66,1.63,3.66,1.63l1.24.17,1.35-3.77Z"/>
      <path class="cls-12" d="m99.47,375.01s-4.28-2.25-5.29-1.35c-1.01.9-1.29,3.04-.96,3.32s3.66,1.63,3.66,1.63l1.24.17,1.35-3.77Z"/>
      <path class="cls-12" d="m105.6,362.46s-3.83-3.49-4.84-2.59c-1.01.9-1.29,3.04-.96,3.32s3.66,1.63,3.66,1.63l1.24.17.9-2.53Z"/>
      <g>
        <path class="cls-2" d="m133.7,170.87c-.11.3.3.49.47.22,2.53-4.27,8.4-14.44,14.15-26.3,4.81-9.9,10.64-21.33,6.19-22.02-3.08-.48-4.73,7.07-9.26,19.11-5.59,14.89-9.17,22.45-11.55,28.98Z"/>
        <path class="cls-2" d="m135.93,170.18c-.09.16.7.61.81.46,2.6-3.36,9.28-13.1,17.11-24.38,6.19-8.91,13.2-18.67,9.66-21.37-3.2-2.44-5.54,7.34-11.75,18.35-7.98,14.13-12.54,20.8-15.83,26.93Z"/>
      </g>
      <path class="cls-2" d="m82.39,177.69c.14.28-.24.53-.44.28-3.02-3.93-10.06-13.33-17.19-24.42-5.95-9.26-13.11-19.9-8.77-21.12,3-.84,5.54,6.45,11.47,17.87,7.33,14.11,11.79,21.19,14.92,27.39Z"/>
      <g>
        <path class="cls-9" d="m68.54,81.48c-11.66,0-21.15-9.49-21.15-21.15s9.49-21.15,21.15-21.15,21.15,9.49,21.15,21.15-9.49,21.15-21.15,21.15Zm0-39.2c-9.96,0-18.06,8.1-18.06,18.06s8.1,18.06,18.06,18.06,18.06-8.1,18.06-18.06-8.1-18.06-18.06-18.06Z"/>
        <g>
          <circle class="cls-9" cx="72.58" cy="60.34" r="9.84" transform="translate(-2.88 117.03) rotate(-76.66)"/>
          <g>
            <path class="cls-9" d="m83.43,71.48c2.9-2.83,4.71-6.77,4.71-11.14,0-8.59-6.97-15.56-15.56-15.56s-15.56,6.97-15.56,15.56c0,.05,0,.1,0,.16h15.43l10.98,10.98Z"/>
            <path class="cls-9" d="m71.17,63.58l7.59,7.59c-1.87,1.07-3.98,1.64-6.18,1.64-5.73,0-10.6-3.92-12.03-9.23h10.63m1.28-3.09h-15.43c.08,8.52,7.01,15.41,15.55,15.41,4.23,0,8.05-1.69,10.86-4.42l-10.98-10.98h0Z"/>
          </g>
          <circle class="cls-3" cx="71.48" cy="55.06" r="4.47"/>
          <circle class="cls-3" cx="75.26" cy="63.31" r="2.52"/>
        </g>
        <path class="cls-9" d="m154.82,90.25c-11.66,0-21.15-9.49-21.15-21.15s9.49-21.15,21.15-21.15,21.15,9.49,21.15,21.15-9.49,21.15-21.15,21.15Zm0-39.2c-9.96,0-18.06,8.1-18.06,18.06s8.1,18.06,18.06,18.06,18.06-8.1,18.06-18.06-8.1-18.06-18.06-18.06Z"/>
        <g>
          <circle class="cls-9" cx="158.86" cy="69.1" r="9.84" transform="translate(-7.53 117.33) rotate(-39.67)"/>
          <g>
            <path class="cls-9" d="m169.72,80.24c2.9-2.83,4.71-6.77,4.71-11.14,0-8.59-6.97-15.56-15.56-15.56s-15.56,6.97-15.56,15.56c0,.05,0,.1,0,.16h15.43l10.98,10.98Z"/>
            <path class="cls-9" d="m157.45,72.35l7.59,7.59c-1.87,1.07-3.98,1.64-6.18,1.64-5.73,0-10.6-3.92-12.03-9.23h10.63m1.28-3.09h-15.43c.08,8.52,7.01,15.41,15.55,15.41,4.23,0,8.05-1.69,10.86-4.42l-10.98-10.98h0Z"/>
          </g>
          <circle class="cls-3" cx="157.76" cy="63.82" r="4.47"/>
          <circle class="cls-3" cx="161.55" cy="72.07" r="2.52"/>
        </g>
        <path class="cls-9" d="m123.98,78.97c-.77,0-1.44-.58-1.53-1.37-.81-7.09-6.81-12.43-13.95-12.43-3.09,0-6.03.99-8.48,2.85-.68.51-1.65.38-2.16-.3-.52-.68-.38-1.65.3-2.17,3-2.28,6.58-3.48,10.35-3.48,8.72,0,16.04,6.52,17.02,15.17.1.85-.51,1.61-1.36,1.71-.06,0-.12.01-.18.01Z"/>
        <path class="cls-9" d="m102.62,76.63c0,1.99-1.61,3.6-3.6,3.6s-3.6-1.61-3.6-3.6,1.61-3.6,3.6-3.6,3.6,1.61,3.6,3.6Z"/>
        <path class="cls-9" d="m118.45,81.17c0,1.99-1.61,3.6-3.6,3.6s-3.6-1.61-3.6-3.6,1.61-3.6,3.6-3.6,3.6,1.61,3.6,3.6Z"/>
        <path class="cls-9" d="m103.92,110.35c-15.29,0-25.88-6.7-30.63-19.37-.3-.8.11-1.69.91-1.99.8-.3,1.69.11,1.99.9,4.32,11.52,13.65,17.37,27.74,17.37s25.15-7.35,30.28-20.69c.31-.8,1.2-1.19,2-.89.8.31,1.19,1.2.89,2-5.54,14.41-17.63,22.67-33.17,22.67Z"/>
        <path class="cls-9" d="m141.25,170.37c-.15,0-.3-.02-.45-.07-.82-.25-1.27-1.11-1.03-1.93,3.09-10.1,10.01-18.46,17.34-27.31,8.1-9.78,16.48-19.89,19.93-32.99,2.8-10.61,1.25-23.38-4.23-35.04-.36-.77-.03-1.69.74-2.06.77-.36,1.69-.03,2.06.74,5.79,12.31,7.4,25.84,4.42,37.14-3.63,13.76-12.23,24.14-20.54,34.18-7.13,8.6-13.86,16.73-16.77,26.24-.2.67-.82,1.09-1.48,1.09Z"/>
        <path class="cls-9" d="m155.12,50.97c-.32,0-.64-.1-.92-.31-7.79-5.8-16.6-9.77-26.19-11.8-17.12-3.62-36.07-1.93-50.7,4.53-.78.35-1.69,0-2.04-.79-.34-.78,0-1.69.79-2.04,15.2-6.71,34.86-8.48,52.59-4.73,10.03,2.12,19.25,6.27,27.4,12.34.68.51.83,1.48.32,2.16-.3.41-.77.62-1.24.62Z"/>
        <path class="cls-9" d="m86.19,183.15c-.36,0-.72-.13-1.02-.38-.39-.34-38.82-34.49-41.65-87.03-.58-10.78,1.05-20.48,4.85-28.84.35-.78,1.27-1.12,2.05-.77.78.35,1.12,1.27.77,2.05-3.59,7.9-5.13,17.11-4.58,27.39,2.76,51.2,40.22,84.54,40.59,84.87.64.56.71,1.54.15,2.18-.31.35-.73.53-1.16.53Z"/>
        <path class="cls-9" d="m168.67,154.54c-5.56,0-11.38-.32-17.42-.97-.85-.09-1.46-.85-1.37-1.7.09-.85.85-1.47,1.7-1.37,38.79,4.19,68-5.5,76.24-25.29,12.87-30.92-26.53-76.84-87.83-102.36C78.69-2.68,18.35,1.71,5.48,32.63c-8.41,20.19,5.59,48.01,36.52,72.59l5.58,4.14c.69.51.83,1.48.32,2.16-.51.69-1.48.83-2.16.32l-5.62-4.17C8.01,82.16-6.34,52.97,2.62,31.45,9.25,15.52,27.44,5.62,53.84,3.57c26.03-2.02,57.05,3.81,87.34,16.42,30.3,12.61,56.29,30.52,73.19,50.42,17.14,20.18,22.93,40.06,16.3,55.98-7.47,17.93-30.56,28.15-62,28.15Z"/>
        <path class="cls-9" d="m187.61,49.15c-.76,0-1.42-.56-1.53-1.33-2.12-15.08-16.15-30.65-34.89-38.76-18.9-8.17-39.08-7.97-51.4.52-.7.48-1.67.31-2.15-.4-.48-.7-.31-1.66.4-2.15,13.18-9.07,34.53-9.39,54.38-.81,19.7,8.51,34.46,25.06,36.73,41.16.12.84-.47,1.63-1.31,1.75-.07.01-.15.02-.22.02Z"/>
        <path class="cls-9" d="m192.66,52.19c-.4,0-.8-.15-1.11-.46-.6-.61-.58-1.59.02-2.18.25-.24,25.26-24.19,67.88-19.73.85.09,1.46.85,1.38,1.7-.09.85-.85,1.45-1.7,1.38-41.11-4.3-65.16,18.64-65.39,18.87-.3.29-.69.44-1.08.44Z"/>
        <path class="cls-9" d="m225,59.09c-1.87,0-3.84-.21-5.94-.67-8.37-1.83-14.64-6.98-17.66-14.49-3.08-7.67-2.13-16.71,2.5-23.61,3.43-5.11,8.68-8.39,14.78-9.24,7.6-1.07,15.66,1.65,22.71,7.62,11.47,9.73,19.8,11.38,19.88,11.4.61.11,1.09.58,1.23,1.18.13.6-.1,1.23-.6,1.59-3.77,2.71-7.1,6.35-10.63,10.19-7.25,7.9-14.71,16.03-26.26,16.03Zm-3.07-45.15c-.95,0-1.89.06-2.83.19-5.22.73-9.71,3.53-12.64,7.91-4.06,6.06-4.9,14-2.2,20.73,2.63,6.53,8.12,11.02,15.46,12.63,13.35,2.93,21.07-5.51,29.26-14.43,2.77-3.02,5.62-6.12,8.69-8.72-3.62-1.3-10.21-4.34-18.29-11.19-5.48-4.65-11.58-7.12-17.46-7.12Z"/>
        <path class="cls-9" d="m235.3,43.06c-.37,0-.74-.13-1.04-.4l-8.35-7.56c-.63-.57-.68-1.55-.11-2.18.57-.63,1.55-.68,2.18-.11l8.35,7.56c.63.57.68,1.55.11,2.18-.3.34-.72.51-1.15.51Z"/>
        <path class="cls-9" d="m218.07,37.19c-.06,0-.12,0-.18-.01-.85-.1-1.45-.87-1.36-1.71l1.59-13.69c.1-.85.87-1.45,1.71-1.36.85.1,1.45.87,1.36,1.71l-1.59,13.69c-.09.79-.76,1.37-1.53,1.37Z"/>
        <path class="cls-9" d="m159.58,345.08c-5.97,0-12.13-.62-18.33-1.87-18.2-3.69-33.28-12.23-40.33-22.84-15.15-22.8-13.52-44.65-12.22-62.21l.23-3.14c.87-12.17,2.31-32.54,9.94-52.86,9.94-26.47,29.24-31.27,37.48-33.31.69-.17,1.42-.36,2.18-.56,5.36-1.39,12.7-3.3,19.32-2.19,5.78.97,8.18,5.18,7.98,7.72-.07.85-.81,1.51-1.66,1.42-.85-.07-1.49-.81-1.42-1.66.08-1.02-1.37-3.76-5.41-4.44-5.97-1.01-12.94.8-18.03,2.13-.77.2-1.51.39-2.21.57-12.84,3.19-27.07,9.41-35.33,31.4-7.47,19.9-8.9,39.99-9.76,51.99l-.23,3.15c-1.34,17.98-2.85,38.35,11.71,60.27,13.41,20.18,59.1,31.79,87.45,16.01,2.47-1.38,3.77-3.37,3.77-5.77,0-.85.69-1.55,1.54-1.55h0c.85,0,1.54.69,1.54,1.54,0,3.54-1.9,6.55-5.36,8.48-9.13,5.08-20.58,7.71-32.87,7.71Z"/>
        <path class="cls-9" d="m165.42,335.49c-14.92,0-30.44-3.69-41.63-14.28-15.9-15.03-23.54-30.15-21.19-71.04,1.52-26.52,4.92-43.28,11-54.35,5.29-9.62,13.3-16.53,23.83-20.55l.55,1.44-.55-1.44c9.09-3.47,22.06-5.27,30.57-1.46,4.59,2.06,11.46,3.26,18.11,4.42,5.37.94,10.44,1.83,14.28,3.14,10.77,3.68,38.81,23.52,39.16,70.5.29,38.35-11.15,62.93-34.98,75.15-8.62,4.42-23.55,8.46-39.14,8.46Zm-9-160.71c-6.15,0-12.81,1.44-17.89,3.38-9.82,3.75-17.3,10.2-22.22,19.16-5.77,10.5-9.15,27.35-10.62,53.03-2.29,39.92,4.7,53.93,20.23,68.62,21.77,20.58,61.05,13.62,77.24,5.31,14.47-7.42,33.67-23,33.3-72.38-.34-45.19-26.87-64.12-37.07-67.6-3.61-1.23-8.56-2.1-13.81-3.02-6.83-1.2-13.9-2.43-18.84-4.65-2.92-1.31-6.52-1.86-10.32-1.86Z"/>
        <path class="cls-9" d="m198.51,324.65c-.45,0-.89-.19-1.19-.56-.54-.66-.45-1.63.21-2.17,6.9-5.7,18.01-41.12,14.6-68.75-3.51-28.42-16.4-51.15-22.72-59.19-3.82-4.87-10.24-6.99-14.93-8.54-3.46-1.14-6.03-2.44-6.14-2.49-.76-.38-1.07-1.31-.68-2.07.38-.76,1.31-1.07,2.07-.68.02.01,2.49,1.25,5.65,2.29,5.13,1.69,12.06,3.98,16.46,9.58,6.51,8.28,19.76,31.63,23.35,60.72,3.59,29.07-8.17,65.3-15.69,71.51-.29.24-.64.35-.98.35Z"/>
        <path class="cls-9" d="m169.48,328.1c-.37,0-.73-.13-1.03-.39-13.52-12.05-23.49-40.34-30.48-86.49-4.73-31.2-.77-46.69-.6-47.33.22-.82,1.06-1.31,1.89-1.1.82.22,1.32,1.06,1.1,1.89-.04.15-3.95,15.6.66,46.08,6.88,45.41,16.53,73.1,29.48,84.65.64.57.69,1.54.13,2.18-.31.34-.73.52-1.15.52Z"/>
        <path class="cls-9" d="m31.32,228.84c-7.76,0-15.47-3.47-19.58-9.25-3.32-4.68-5.93-13.07-2.36-21.32,2.76-6.36,10.13-14.5,29.61-17.16,33.63-4.59,70,2.76,70.36,2.83.84.17,1.37.99,1.2,1.82-.17.83-.99,1.38-1.82,1.2-.36-.07-36.24-7.32-69.32-2.8-18.06,2.47-24.76,9.7-27.2,15.33-3.06,7.07-.81,14.28,2.04,18.3,4.56,6.43,14.36,9.52,22.79,7.2,4.59-1.27,12.43-5.23,13.4-17.53.07-.85.82-1.48,1.66-1.42.85.07,1.49.81,1.42,1.66-.82,10.36-6.53,17.75-15.66,20.27-2.13.59-4.34.87-6.55.87Z"/>
        <path class="cls-9" d="m50.94,215.83c-.7,0-1.34-.48-1.5-1.19-.19-.83.32-1.66,1.15-1.86,26.79-6.28,45.44-4.31,46.23-4.22.85.09,1.46.86,1.36,1.71-.09.85-.86,1.45-1.71,1.37-.19-.02-18.95-1.99-45.18,4.16-.12.03-.24.04-.35.04Z"/>
        <path class="cls-9" d="m110.34,371.27c-.39,0-.79-.15-1.09-.45-19.69-19.48-9.62-50.42-9.18-51.72.27-.81,1.15-1.24,1.95-.97.81.27,1.25,1.15.97,1.96-.1.3-9.89,30.43,8.42,48.54.61.6.61,1.58.01,2.18-.3.31-.7.46-1.1.46Z"/>
        <path class="cls-9" d="m120.53,388.3c-5.64,0-10.99-.99-15.07-3.02-4.11-2.04-6.62-4.99-7.28-8.52-.82-4.42-.31-7.97,1.52-10.57,2.09-2.97,5.15-3.49,5.28-3.52.84-.13,1.64.44,1.77,1.28.14.84-.43,1.63-1.26,1.77-.1.02-1.98.39-3.29,2.3-1.3,1.89-1.63,4.64-.97,8.18.59,3.2,3.38,5.2,5.62,6.32,8.35,4.16,22.71,3.51,32.69-1.48,4.36-2.18,7-4.82,7.84-7.84,1.34-4.81-1.97-10.02-4.16-13.47l-.4-.63c-3.38-5.38-5.48-9.51-3.89-17.69.16-.84.97-1.38,1.81-1.22.84.16,1.38.97,1.22,1.81-1.33,6.84.11,10.11,3.47,15.46l.4.62c2.33,3.67,6.23,9.82,4.53,15.95-1.08,3.9-4.25,7.18-9.43,9.77-5.95,2.98-13.39,4.51-20.38,4.51Z"/>
        <path class="cls-9" d="m244.37,306.41c-.47,0-.94-.22-1.24-.62-4.67-6.29-12.89-4.98-13.23-4.92-.84.14-1.64-.42-1.78-1.26-.14-.84.42-1.64,1.26-1.78.42-.08,10.42-1.71,16.24,6.13.51.68.37,1.65-.32,2.16-.28.21-.6.3-.92.3Z"/>
        <path class="cls-9" d="m185.7,348.6c-9.14,0-15.69-4.16-16.04-4.38-.72-.46-.92-1.42-.46-2.14.46-.72,1.42-.92,2.13-.46h0c.09.06,8.28,5.22,18.67,3.53-3.69-.56-6.67-1.73-8.87-3.5-.66-.54-.77-1.51-.24-2.17.54-.66,1.51-.77,2.17-.24,2.81,2.26,7.04,2.95,10.09,3.13,1.3.08,2.3,1.03,2.44,2.32.14,1.3-.65,2.46-1.91,2.81-2.81.79-5.5,1.1-7.99,1.1Z"/>
        <path class="cls-9" d="m241.02,339.73c-2.08,0-4.22-.38-6.38-1.16-2.32-.84-4.57-1.79-6.94-2.8-8.46-3.59-17.2-7.29-29.78-5.83-.85.11-1.61-.51-1.71-1.36-.1-.85.51-1.61,1.36-1.71,13.39-1.56,22.93,2.49,31.34,6.06,2.34.99,4.54,1.93,6.79,2.74,9.43,3.41,18.09-2.2,23.16-15.01,2.44-6.15,2.23-12.5-.56-17.42-2.19-3.85-5.66-6.35-9.79-7.02-8.67-1.41-10.38,3.58-10.45,3.8-.26.8-1.12,1.26-1.93,1.01-.81-.25-1.27-1.09-1.03-1.9.02-.08,2.44-7.82,13.91-5.96,4.99.81,9.36,3.92,11.98,8.54,3.26,5.73,3.52,13.05.74,20.08-4.56,11.52-12.17,17.94-20.7,17.94Z"/>
        <path class="cls-9" d="m231.72,195.04c-10.3,0-13.41-8.35-13.44-8.44-.29-.8.13-1.69.94-1.98.8-.28,1.68.13,1.97.93.12.33,2.98,7.68,13.15,6.2,4.79-.7,9.07-3.35,11.46-7.1,2.1-3.3,2.57-7.16,1.37-11.16-3.63-12.06-18.79-17.21-39.55-13.44-22.61,4.11-38.12,16.6-38.28,16.73-.66.54-1.63.44-2.17-.22-.54-.66-.44-1.63.22-2.17.65-.53,16.25-13.12,39.68-17.38,22.44-4.08,38.94,1.89,43.07,15.59,1.47,4.89.87,9.63-1.72,13.71-2.86,4.5-7.95,7.67-13.62,8.5-1.09.16-2.11.23-3.06.23Z"/>
        <path class="cls-9" d="m225.98,188.68c-.26,0-.53-.07-.77-.21-6.13-3.54-17.44-.41-17.55-.38-.82.23-1.67-.25-1.91-1.07-.23-.82.24-1.67,1.07-1.91.51-.15,12.68-3.52,19.94.68.74.43.99,1.37.56,2.11-.29.49-.81.77-1.34.77Z"/>
        <path class="cls-9" d="m6.85,221.95c-1.33,0-2.56-.67-3.29-1.78-.57-.88-.77-1.92-.55-2.95.22-1.03.82-1.91,1.7-2.48l4.49-2.7,1.59,2.65-4.44,2.68c-.14.09-.27.28-.31.5-.05.22,0,.44.12.63.24.38.78.49,1.15.25l3.54-2.31,1.69,2.59-3.54,2.31c-.64.42-1.38.64-2.14.64Z"/>
        <path class="cls-9" d="m14.54,230.42c-.83,0-1.63-.26-2.3-.75-1.75-1.27-2.14-3.73-.87-5.48l2.46-3.39,2.5,1.82-2.46,3.39c-.27.37-.19.9.18,1.17.18.13.37.16.49.16.27,0,.52-.13.68-.34l2.46-3.39,2.5,1.82-2.46,3.39c-.74,1.01-1.92,1.62-3.18,1.62Z"/>
        <path class="cls-9" d="m26.56,235.35c-.2,0-.4-.01-.6-.05-1.03-.16-1.94-.71-2.56-1.56-.62-.85-.87-1.88-.71-2.92l.62-4,3.05.47-.62,4c-.03.22.02.44.15.62.13.18.33.3.55.33.5.07.88-.25.95-.7l.62-4,3.05.47-.62,4c-.3,1.93-1.93,3.33-3.88,3.33Z"/>
        <path class="cls-9" d="m236.98,201.11c-1.76,0-3.32-1.19-3.78-2.89l-1.07-3.9,2.98-.81,1.07,3.9c.12.43.58.71,1.02.59.44-.12.71-.58.59-1.02l-1.07-3.9,2.98-.81,1.07,3.9c.57,2.09-.67,4.25-2.75,4.82-.34.09-.69.14-1.03.14Z"/>
        <path class="cls-9" d="m246.03,196.85c-1.19,0-2.3-.53-3.05-1.45l-2.31-2.84,2.4-1.95,2.31,2.84c.16.2.4.31.65.31.13,0,.33-.03.52-.19.36-.29.41-.82.12-1.17l-2.31-2.84,2.4-1.95,2.31,2.84c1.36,1.68,1.11,4.15-.57,5.52-.7.57-1.58.88-2.47.88Z"/>
        <path class="cls-9" d="m251.89,188.32c-.66,0-1.32-.17-1.9-.49l-3.2-1.77,1.5-2.7,3.2,1.77c.4.22.92.06,1.13-.32.11-.19.13-.42.07-.63-.06-.21-.2-.39-.4-.5l-3.2-1.78,1.5-2.7,3.2,1.78c1.89,1.05,2.58,3.44,1.53,5.34-.69,1.25-2.01,2.02-3.43,2.02Z"/>
        <path class="cls-9" d="m99.99,379.69c-.05,0-1.28-.06-1.34-.07l-3.85-.25c-2.16-.14-3.8-2.01-3.66-4.17.14-2.15,1.98-3.81,4.17-3.66l3.84.25-.2,3.08-3.84-.25c-.45-.04-.86.32-.89.78-.03.46.32.86.78.89l3.84.25s1.06.06,1.19.06l-.04,3.09Z"/>
        <path class="cls-9" d="m99.89,372.45c-.41,0-.81-.06-1.2-.19l-3.47-1.12c-1-.32-1.81-1.01-2.29-1.94-.48-.93-.57-2-.24-2.99.66-2.06,2.87-3.19,4.93-2.53l3.91,1.22-.92,2.95-3.92-1.23c-.45-.14-.92.1-1.06.54-.07.21-.05.44.05.64.1.2.27.34.49.41l3.47,1.11c.08.03.17.04.26.04v3.09Z"/>
        <path class="cls-9" d="m102.88,367.16c-.38-.16-.72-.37-1.04-.64l-2.77-2.36c-1.65-1.41-1.84-3.89-.44-5.53,1.4-1.64,3.88-1.84,5.53-.44l-2,2.35c-.35-.3-.88-.26-1.18.09-.3.35-.26.88.09,1.18l2.77,2.36c.07.06.14.1.22.13l-1.18,2.85Z"/>
        <path class="cls-9" d="m238.3,295.14l-.51-2.91c-.38-2.13,1.05-4.17,3.18-4.55,2.13-.37,4.17,1.05,4.55,3.18l.51,2.91-3.04.54-.51-2.92c-.08-.45-.52-.76-.97-.68-.45.08-.75.51-.67.97l.51,2.91-3.04.54Z"/>
        <path class="cls-9" d="m253.62,295.97l-2.95-.93.94-3c.14-.44-.11-.91-.55-1.05-.44-.13-.91.11-1.05.55l-.94,3-2.95-.93.94-3c.65-2.06,2.86-3.22,4.92-2.57,2.07.65,3.22,2.86,2.57,4.92l-.94,3Z"/>
        <path class="cls-9" d="m259.6,301.49l-2.57-1.72,2.6-3.88c.28-.4.19-.92-.19-1.18-.18-.13-.41-.18-.62-.14-.22.04-.41.16-.54.34l-1.97,2.83-2.53-1.77,1.97-2.83c.6-.86,1.5-1.43,2.53-1.62,1.03-.19,2.07.04,2.93.64.86.6,1.43,1.5,1.62,2.53.18,1.03-.04,2.07-.64,2.93l-2.58,3.85Z"/>
        <path class="cls-9" d="m175.67,324.91c-10.36,0-17.91-1.17-22.88-2.34-1.54-.36-2.84-1.36-3.59-2.75-.74-1.38-.85-3.02-.31-4.49,1.68-4.52,4.12-8.54,5.87-11.12,1.94-2.86,4.38-5.21,7.24-6.98,21.11-13.08,41.33-18.92,49.05-20.82,2.31-.57,4.69-.81,7.08-.73,6.37.23,11.2,1.05,14.12,1.69,1.1.24,2.03.9,2.61,1.86.58.95.73,2.07.43,3.15-1.07,3.9-2.77,9.03-4.01,12.66-1.8,5.28-5.11,9.84-9.57,13.19-7.8,5.86-17.33,10.8-22.31,13.23-3.24,1.57-6.68,2.53-10.22,2.84-4.94.43-9.44.61-13.51.61Zm41.53-48.21c-1.99,0-3.97.24-5.9.72h0c-7.67,1.89-27.76,7.7-48.75,20.7-2.74,1.69-5.07,3.94-6.93,6.68-1.72,2.53-4.12,6.47-5.76,10.9-.44,1.19-.35,2.52.25,3.64.61,1.13,1.67,1.94,2.92,2.24,5.6,1.32,17.74,3.29,36.06,1.7,3.41-.3,6.73-1.22,9.86-2.74,4.95-2.41,14.42-7.31,22.15-13.12,4.29-3.22,7.48-7.62,9.21-12.7,1.23-3.61,2.93-8.73,3.99-12.6.22-.8.1-1.63-.32-2.34-.43-.72-1.12-1.21-1.94-1.39-2.88-.63-7.64-1.44-13.94-1.67-.3-.01-.6-.02-.89-.02Zm-6.02.22h0,0Z"/>
        <path class="cls-9" d="m180.86,319.61c-6.78,0-12.78-.48-16.47-.87-.96-.1-1.78-.64-2.25-1.49-.47-.84-.49-1.85-.07-2.72.48-.98,1.07-2.04,1.76-3.15.73-1.17,1.65-2.17,2.74-2.96,18.23-13.19,36.85-18.31,44.01-19.91h0c2.03-.45,4.16-.74,6.32-.84,2.97-.15,5.94-.23,8.81-.21,1.08,0,2.08.54,2.68,1.42.61.89.74,2.02.35,3.03-.42,1.09-.93,2.33-1.51,3.67-1.37,3.15-3.51,5.84-6.2,7.81-7.48,5.45-17.09,10.92-22.16,13.7-1.99,1.09-4.13,1.76-6.34,1.98-3.96.39-7.94.54-11.68.54Zm29.95-30.08c-7.1,1.58-25.56,6.66-43.63,19.73-.98.71-1.82,1.61-2.47,2.67-.67,1.08-1.25,2.11-1.71,3.06-.28.57-.26,1.22.05,1.77.3.55.83.9,1.45.96,5.7.59,16.9,1.42,27.95.33,2.08-.21,4.08-.83,5.95-1.85,5.04-2.76,14.62-8.21,22.05-13.63,2.54-1.85,4.57-4.41,5.86-7.38.58-1.33,1.08-2.55,1.5-3.63.27-.7.18-1.46-.24-2.08-.42-.61-1.09-.97-1.84-.97-2.86-.02-5.81.06-8.76.2-2.1.11-4.17.38-6.15.82h0Z"/>
        <path class="cls-9" d="m184.72,267.38c-2.88,0-5.44-.06-7.63-.14-6.1-.23-11.31-4.56-12.66-10.52-3.02-13.25-3.93-24.65-4.16-31.88-.13-4.07,1.22-8.01,3.79-11.07,4.46-5.3,9.7-9.84,15.58-13.48h0c7.1-4.4,15.86-5.73,24.02-3.66,4.9,1.24,9.3,2.91,13.06,4.95,3.7,2,6.63,5.12,8.49,9,6.66,13.97,8.44,24.92,8.76,31.65.18,3.79-1.1,7.43-3.62,10.27-3.57,4.02-8.13,7.55-11.33,9.81-2.82,1.98-6.15,3.25-9.64,3.66-9.4,1.1-17.9,1.42-24.66,1.42Zm-4.54-66.22c-5.78,3.58-10.94,8.04-15.33,13.26-2.42,2.87-3.68,6.56-3.55,10.38.23,7.18,1.14,18.51,4.14,31.68,1.25,5.51,6.06,9.51,11.7,9.72,7.3.28,18.8.28,32.13-1.27,3.31-.39,6.48-1.59,9.16-3.47,3.15-2.22,7.65-5.7,11.15-9.65,2.33-2.63,3.53-6.02,3.36-9.54-.32-6.63-2.07-17.44-8.66-31.25-1.76-3.69-4.54-6.64-8.05-8.54-3.69-2-8.01-3.64-12.83-4.86-7.89-2-16.36-.71-23.22,3.54h0Z"/>
        <path class="cls-9" d="m189.61,253.33c-.69,0-1.36,0-1.98-.01-3.8-.05-6.96-2.82-7.51-6.57-.82-5.58-1.53-12.67-1.98-17.63-.35-3.8,1.19-7.5,4.12-9.89,4.8-3.93,9.29-6.59,12.21-8.12h0c3.3-1.74,7.01-2.52,10.73-2.27,3.02.21,5.72.63,8.02,1.27,3.14.86,5.73,3.17,6.93,6.17,2.75,6.83,4.56,14.86,5.61,20.39.68,3.61-.82,7.3-3.82,9.41-2.32,1.63-4.79,2.98-6.44,3.83-1.72.88-3.56,1.49-5.48,1.82-7.52,1.3-14.96,1.61-20.4,1.61Zm5.33-41.32c-2.88,1.52-7.31,4.14-12.04,8.01-2.66,2.17-4.06,5.54-3.74,9,.45,4.95,1.16,12.02,1.98,17.58.48,3.25,3.22,5.65,6.51,5.69,5.49.08,13.79-.13,22.2-1.59,1.81-.31,3.55-.89,5.18-1.72,1.63-.83,4.05-2.16,6.32-3.76,2.67-1.88,4.01-5.17,3.4-8.38-1.03-5.49-2.84-13.45-5.55-20.2-1.09-2.7-3.42-4.78-6.25-5.56-2.24-.62-4.87-1.04-7.82-1.24-3.53-.24-7.05.51-10.18,2.15h0Z"/>
        <path class="cls-9" d="m155.83,197.38c-1.99,0-3.92-.75-5.4-2.14-1.54-1.45-3.21-2.98-4.94-4.55-1.58-1.42-2.47-3.46-2.43-5.58.03-2.15,1-4.19,2.65-5.59,4.62-3.92,9.8-6.05,10.02-6.14,2.08-1.14,10.01,1,10.95,1.26l27.28,6.77c.15.04.28.14.34.28.07.14.06.31,0,.45-1.34,2.68-8.35,6.3-8.65,6.45-7.12,3.76-20.7,7-28.16,8.6-.55.12-1.1.17-1.65.18Zm1.78-23.29c-.64,0-1.15.07-1.44.23-.1.05-5.3,2.18-9.79,5.99-1.42,1.21-2.26,2.96-2.28,4.82-.03,1.83.74,3.58,2.09,4.8,1.74,1.57,3.41,3.11,4.96,4.56,1.64,1.54,3.93,2.18,6.12,1.71,7.41-1.58,20.88-4.8,27.9-8.51,1.78-.91,6.3-3.5,7.84-5.44l-26.59-6.6s0,0-.01,0c-2.53-.7-6.52-1.56-8.79-1.56Z"/>
        <path class="cls-9" d="m158.85,188.88c-1.27,0-2.52-.5-3.44-1.43l-1.36-1.36c-.69-.69-1.06-1.65-1-2.62.05-.97.51-1.87,1.26-2.48,1.21-.98,2.58-1.94,4.07-2.84h0c1.34-.82,2.79-1.41,4.31-1.76l3.91-.17c2.06-.08,4.11.12,6.11.62l9.7,2.39c.19.05.33.19.38.38.04.19-.02.39-.17.51-2.41,2.04-8.49,4.56-8.74,4.66-3.21.99-9.23,2.68-13.73,3.92-.43.12-.86.18-1.29.18Zm.07-9.85c-1.45.88-2.78,1.81-3.96,2.77-.53.43-.85,1.05-.88,1.73-.04.68.22,1.36.7,1.84l1.36,1.36c.97.97,2.4,1.35,3.73.99,4.49-1.25,10.51-2.93,13.66-3.9.01,0,4.91-2.03,7.58-3.85l-8.64-2.13c-1.9-.47-3.86-.67-5.82-.59l-3.82.16c-1.32.32-2.66.87-3.91,1.62h0Z"/>
        <path class="cls-9" d="m109.3,297.87c-.2,0-.39-.12-.47-.3-.13-.3-13.23-30.6,1.25-92.09.05-.23.26-.4.5-.4h0c.13,0,13.43.31,30.65,9.57,4.76,2.56,8.03,7.11,8.97,12.48,1.56,8.87,3.61,21.84,4.54,33.23.43,5.26-1.49,10.38-5.27,14.06-7.03,6.86-21.59,19.03-40.06,23.43-.04.01-.08.01-.12.01Zm1.69-91.75c-13.36,57.07-2.84,86.91-1.38,90.63,18.03-4.42,32.25-16.33,39.15-23.06,3.55-3.47,5.36-8.29,4.96-13.24-.92-11.36-2.97-24.29-4.53-33.13-.89-5.06-3.97-9.35-8.44-11.76-15.29-8.23-27.41-9.3-29.76-9.43Z"/>
        <path class="cls-9" d="m104.68,279.41c-.24,0-.45-.17-.5-.41-.12-.56-2.78-14.14,2.3-55.28.03-.21.18-.38.38-.43.2-.05,4.95-1.26,14.02.95,7.04,1.72,12.27,7.45,13.34,14.6.92,6.17,1.67,11.65,2.22,16.3.89,7.45-3,14.67-9.67,17.95-5.7,2.81-14.15,6.19-22.08,6.32h0Zm2.77-55.2c-4.52,36.81-2.74,51.58-2.34,54.16,7.61-.25,15.7-3.49,21.2-6.2,6.28-3.1,9.94-9.89,9.11-16.91-.55-4.64-1.3-10.11-2.22-16.27-1.01-6.74-5.94-12.13-12.57-13.75-7.45-1.82-11.96-1.25-13.18-1.03Z"/>
        <path class="cls-9" d="m90.85,226.87c-.7,0-1.45-.11-2.17-.42-1.03-.43-2.4-1.42-3.12-3.72-1.67-5.34.05-12.69.13-13,.2-.83,1.03-1.33,1.86-1.14.83.2,1.34,1.03,1.14,1.86-.02.07-1.6,6.84-.18,11.36.29.94.74,1.52,1.35,1.78,1.1.47,2.68-.1,3.19-.36.76-.38,1.69-.08,2.07.68.39.76.09,1.68-.67,2.07-.23.12-1.78.88-3.61.88Z"/>
      </g>
    </g>
  </g>
</svg>