<?xml version="1.0" encoding="UTF-8"?>
<svg id="Layer_2" data-name="Layer 2" xmlns="http://www.w3.org/2000/svg" viewBox="0 0 263.63 388.3">
  <defs>
    <style>
      .cls-1 {
        fill: #f7b27c;
      }

      .cls-2 {
        fill: #f2f1eb;
      }

      .cls-3 {
        fill: #f29052;
      }

      .cls-4 {
        fill: #f6c0d9;
      }

      .cls-5 {
        fill: #e55b78;
      }

      .cls-6 {
        fill: #e65c7a;
      }

      .cls-7 {
        fill: #ef8bb0;
      }

      .cls-8 {
        fill: #fff;
      }

      .cls-9 {
        fill: #ffda82;
      }

      .cls-10 {
        fill: #fbeb46;
      }

      .cls-11 {
        fill: #ee80a8;
      }

      .cls-12 {
        fill: #946354;
      }

      .cls-13 {
        fill: #e07751;
      }

      .cls-14 {
        fill: #1d1d1b;
      }

      .cls-15 {
        fill: #575756;
      }
    </style>
  </defs>
  <g id="Layer_3" data-name="Layer 3">
    <g>
      <g>
        <g>
          <path class="cls-6" d="m101.48,199.76s-11.56-19.64-35.9,2.74c0,0,26.23,19.26,35.9-2.74Z"/>
          <path d="m86.41,211.85c-10.57,0-21.23-7.72-21.75-8.1-.37-.27-.6-.7-.63-1.16-.03-.46.16-.91.5-1.22,9.12-8.38,17.62-12.06,25.28-10.92,8.64,1.28,12.82,8.24,12.99,8.53.25.43.28.95.08,1.41-2.56,5.82-6.46,9.48-11.61,10.85-1.6.43-3.23.61-4.87.61Zm-18.32-9.52c3.88,2.46,14.08,8.15,22.4,5.92,3.97-1.07,7.07-3.87,9.22-8.34-1.16-1.58-4.64-5.58-10.39-6.41-6.29-.92-13.42,2.06-21.22,8.83Z"/>
        </g>
        <g>
          <path class="cls-6" d="m97.94,206.89s-15.65-3.29-15.55,19.9c0,0,22.38-4.49,15.55-19.9Z"/>
          <path d="m82.39,228.34c-.35,0-.7-.12-.98-.35-.36-.29-.57-.73-.57-1.19-.04-8.83,2.14-15.1,6.46-18.63,4.92-4.01,10.71-2.85,10.95-2.8.49.1.89.43,1.09.89,1.87,4.21,1.91,8.1.13,11.55-4.07,7.86-16.27,10.39-16.79,10.5-.1.02-.2.03-.3.03Zm13.62-20.06c-1.69,0-4.41.36-6.79,2.32-3.23,2.66-5,7.43-5.26,14.2,3.35-.97,10.24-3.51,12.77-8.41,1.24-2.4,1.28-5.05.12-8.08-.24-.02-.52-.03-.85-.03Z"/>
        </g>
        <g>
          <path class="cls-6" d="m95.6,209.86c2.81,3.48,7.91,4.02,11.39,1.2,3.48-2.81,4.02-7.91,1.2-11.39-2.81-3.48-7.91-4.02-11.39-1.2-3.48,2.81-4.02,7.91-1.2,11.39Z"/>
          <path d="m101.91,214.4c-2.81,0-5.6-1.22-7.5-3.57-3.34-4.13-2.7-10.22,1.43-13.56,2-1.62,4.52-2.36,7.08-2.09,2.56.27,4.86,1.52,6.48,3.53,3.34,4.13,2.7,10.22-1.43,13.56-1.78,1.44-3.92,2.14-6.05,2.14Zm-.02-16.19c-1.49,0-2.93.51-4.11,1.46-1.36,1.1-2.21,2.66-2.39,4.4-.18,1.74.32,3.45,1.42,4.81,2.27,2.81,6.4,3.25,9.21.97,1.36-1.1,2.21-2.66,2.39-4.4.18-1.74-.32-3.45-1.42-4.81-1.1-1.36-2.67-2.21-4.41-2.4-.23-.03-.47-.04-.7-.04Z"/>
        </g>
      </g>
      <g>
        <g>
          <g>
            <g>
              <path class="cls-5" d="m191.35,33.67c1.43,4.18,6.73,4.76,9.46,4.69,10.58-.27,15.27-6.97,15.27-6.97,0,0-4.51-6.8-12.93-10.7-6.98-3.23-15.27,2.8-11.79,12.97Z"/>
              <path d="m200.43,39.91c-2.48,0-8.76-.53-10.54-5.74-1.8-5.26-.85-10.23,2.55-13.3,3.04-2.74,7.5-3.36,11.35-1.58,8.72,4.03,13.38,10.95,13.57,11.25l.58.88-.6.86c-.21.3-5.27,7.34-16.49,7.62-.12,0-.26,0-.42,0Zm-1.2-18.55c-1.73,0-3.39.61-4.72,1.81-2.49,2.24-3.1,5.89-1.7,10h0c1.21,3.54,6.39,3.69,7.96,3.64,7.48-.19,11.76-3.81,13.34-5.48-1.51-1.92-5.5-6.41-11.61-9.23-1.07-.49-2.18-.74-3.27-.74Z"/>
            </g>
            <g>
              <path class="cls-5" d="m209.78,6.57c-3.85,2.18-3.43,7.49-2.86,10.16,2.21,10.35,9.66,13.72,9.66,13.72,0,0,5.85-5.68,8.13-14.68,1.88-7.46-5.57-14.49-14.93-9.2Z"/>
              <path d="m216.9,32.3l-.96-.43c-.33-.15-8.19-3.82-10.53-14.81-.44-2.05-1.47-8.95,3.61-11.83h0c4.84-2.74,9.9-2.72,13.54.06,3.26,2.48,4.69,6.75,3.65,10.87-2.35,9.32-8.3,15.17-8.55,15.41l-.76.73Zm-6.36-24.38h0c-3.25,1.84-2.44,6.97-2.11,8.49,1.57,7.32,5.92,10.85,7.85,12.1,1.61-1.84,5.28-6.59,6.93-13.11.75-2.96-.22-5.9-2.53-7.65-2.66-2.03-6.36-1.97-10.14.18Z"/>
            </g>
            <g>
              <path class="cls-5" d="m238.83,49.21c1.83-4.02-1.62-8.08-3.65-9.9-7.87-7.07-15.88-5.43-15.88-5.43,0,0-1.4,8.04,2.05,16.66,2.86,7.14,13.02,8.46,17.48-1.32Z"/>
              <path d="m229.49,57.77c-.08,0-.16,0-.24,0-4.09-.1-7.76-2.71-9.33-6.65-3.57-8.92-2.19-17.15-2.13-17.49l.18-1.04,1.03-.21c.36-.07,8.87-1.71,17.22,5.79,1.56,1.4,6.45,6.38,4.03,11.69h0c-2.27,4.97-6.27,7.91-10.75,7.91Zm-8.8-22.49c-.22,2.43-.41,8.43,2.09,14.69,1.13,2.84,3.64,4.64,6.54,4.71,3.32.08,6.3-2.14,8.1-6.1h0c1.55-3.4-2.12-7.07-3.28-8.11-5.6-5.03-11.16-5.33-13.46-5.18Z"/>
            </g>
            <g>
              <path class="cls-5" d="m209.74,56.8c4.41.22,6.91-4.49,7.86-7.05,3.67-9.92-.81-16.76-.81-16.76,0,0-7.99,1.66-14.73,8.05-5.58,5.29-3.06,15.22,7.68,15.76Z"/>
              <path d="m210.05,58.35c-.13,0-.26,0-.39-.01-5.55-.28-9.82-3.01-11.4-7.3-1.42-3.84-.34-8.21,2.74-11.13,6.98-6.61,15.13-8.37,15.47-8.44l1.03-.21.58.88c.2.31,4.87,7.61.97,18.14-.71,1.92-3.43,8.06-9,8.06Zm5.96-23.56c-2.34.69-7.99,2.73-12.88,7.36-2.22,2.1-2.97,5.09-1.97,7.81,1.16,3.14,4.32,5.06,8.66,5.28h0c3.71.16,5.79-4.58,6.33-6.04,2.61-7.06.83-12.34-.14-14.42Z"/>
            </g>
            <g>
              <path class="cls-5" d="m239.13,18.32c-3.27-2.98-8.19-.93-10.55.45-9.14,5.33-10.03,13.46-10.03,13.46,0,0,7.22,3.79,16.48,3.15,7.67-.53,12.03-9.81,4.09-17.05Z"/>
              <path d="m232.89,36.99c-8.47,0-14.76-3.25-15.05-3.4l-.93-.49.11-1.05c.04-.36,1.08-8.97,10.78-14.63,1.81-1.06,8.04-4.19,12.36-.26h0c4.11,3.74,5.67,8.56,4.17,12.88-1.34,3.87-4.95,6.56-9.19,6.85-.77.05-1.52.08-2.26.08Zm-12.57-5.66c2.25.95,7.91,2.96,14.62,2.5,3.05-.21,5.53-2.05,6.48-4.78,1.1-3.16-.11-6.65-3.33-9.58h0c-2.76-2.52-7.38-.15-8.73.64-6.47,3.77-8.47,9.01-9.05,11.23Z"/>
            </g>
          </g>
          <g>
            <path class="cls-9" d="m224.48,33.75c-.67,4.1-4.54,6.88-8.64,6.21-4.1-.67-6.88-4.54-6.21-8.64.67-4.1,4.54-6.88,8.64-6.21,4.1.67,6.88,4.54,6.21,8.64Z"/>
            <path d="m217.08,41.6c-.49,0-.99-.04-1.48-.12-2.39-.39-4.49-1.69-5.9-3.65-1.41-1.97-1.98-4.37-1.59-6.76.39-2.39,1.69-4.49,3.66-5.9,1.97-1.41,4.37-1.97,6.76-1.59,2.39.39,4.49,1.69,5.9,3.66,1.41,1.97,1.98,4.37,1.59,6.76-.39,2.39-1.69,4.49-3.66,5.9-1.56,1.12-3.39,1.71-5.27,1.71Zm-.04-15.05c-1.24,0-2.45.39-3.48,1.13-1.3.93-2.15,2.31-2.41,3.89-.26,1.58.11,3.16,1.05,4.45.93,1.3,2.31,2.15,3.89,2.41,1.57.26,3.16-.11,4.45-1.05,1.3-.93,2.15-2.31,2.41-3.89s-.11-3.16-1.05-4.45c-.93-1.3-2.31-2.15-3.89-2.41-.33-.05-.65-.08-.98-.08Z"/>
          </g>
        </g>
        <path d="m183.65,52.6c-.41,0-.81-.16-1.11-.47-.59-.61-.57-1.59.04-2.18.29-.28,7.26-6.92,20.22-12.49.79-.34,1.69.03,2.03.81.34.78-.03,1.69-.81,2.03-12.4,5.33-19.23,11.81-19.3,11.88-.3.29-.69.43-1.07.43Z"/>
      </g>
      <path class="cls-4" d="m85.51,181.88s-24.87-23.73-33.45-52.03c-8.58-28.3-8.58-44.31-2.29-60.89,0,0,12.58,22.01,31.73,4.86,19.15-17.15-2.29-30.59-5.72-32.02,0,0,38.59-18.58,78.04,7.15,0,0-15.44,1.72-18.58,18.01-3.14,16.29,14.29,22.87,22.87,22.3,8.58-.57,16.87-15.44,16.87-15.44,0,0,10.29,24.58-.29,44.02-10.58,19.44-31.16,38.02-33.73,50.6,0,0-18.01,2-32.3,18.01l-23.16-4.57Z"/>
      <path class="cls-4" d="m109.48,185.78s-31.63-6.33-62.61-3.27c-30.98,3.05-34.69,10.91-37.3,22.25s6.54,20.07,16.14,21.82c9.6,1.75,22.47-1.96,25.52-12.22,0,0,18.76-7.2,46.25-4.36l12-24.22Z"/>
      <path class="cls-4" d="m169.47,175.75s15.49-15.49,46.47-18.54,33.38,16.8,33.16,22.03-8.73,14.83-16.36,14.18c-7.64-.65-12.65-8.07-12.65-8.07l-12.22,2.18s.22-3.27-11.78-6.33c-12-3.05-26.62-5.45-26.62-5.45Z"/>
      <path class="cls-4" d="m101.63,320.39s5.67,8.73,16.58,14.18c10.91,5.45,21.38,6.98,21.38,6.98,0,0-1.31,9.82,4.14,16.58,5.45,6.76,10.25,18.76-4.58,25.09-14.83,6.33-30.11,2.84-37.74-2.4-7.64-5.24,3.71-16.8,3.71-16.8,0,0-11.56-17.67-3.49-43.63Z"/>
      <path class="cls-4" d="m200.67,328.02s23.78-13.09,29.67-29.45l6.98,1.31s3.71-9.38,15.71-3.27c12,6.11,9.6,17.67,5.67,28.36-3.93,10.69-12,13.53-19.63,13.09-7.64-.44-17.67-9.6-38.4-10.04Z"/>
      <path class="cls-13" d="m93.35,235.57c4.8-19.7,5.11-33.76,15.32-49.12,10.21-15.36,29.02-16.99,36.45-18.38,7.43-1.39,14.4-1.16,17.41,1.39,3.02,2.55,1.86,3.95,1.86,3.95,0,0-10.91-3.72-23.92,2.55s-25.54,11.15-31.58,39.01c-6.04,27.86-10.45,67.33,5.8,92.41,16.25,25.08,39.47,26.7,53.4,26.47,13.93-.23,28.56-4.41,28.56-4.41,0,0,.46,6.97-19.04,12.07-19.5,5.11-58.51-.7-73.37-19.97-14.86-19.27-19.49-50.74-10.9-85.97Z"/>
      <path class="cls-3" d="m169.47,175.75s-10.78-3.89-22.19-.69c-11.41,3.19-26.7,4.34-35.14,29.9-8.44,25.56-8.9,60.02-7.99,74.17.91,14.15,10.73,46.55,47.7,54.31,36.97,7.76,61.84-12.09,72.11-24.65,10.27-12.55,16.89-45.64,12.32-72.34-4.56-26.7-18.03-41.31-29.44-49.06-11.41-7.76-37.38-11.63-37.38-11.63Z"/>
      <path class="cls-1" d="m111.26,205.65s32.44,4.57,36.85,17.01c4.41,12.44,6.14,39.85,6.14,39.85,0,0,1.1,7.4-9.76,16.06-10.87,8.66-22.21,15.43-35.28,18.74,0,0-6.93-15.12-5.67-40.32s7.72-51.34,7.72-51.34Z"/>
      <path class="cls-1" d="m148.94,318.11c-.34-2.7,5.43-14.87,12.15-19.65,6.72-4.78,17.32-9.57,33.61-16.42,16.29-6.85,23.91-6.08,30.51-5.3s9.57,2.33,9.7,3.36c.13,1.03-4.91,19.91-8.27,23.14-3.36,3.23-9.31,7.63-18.74,13.19-9.44,5.56-13.44,6.46-19.91,7.63-6.46,1.16-23.66-.26-27.92-.39-4.27-.13-10.6-1.42-11.12-5.56Z"/>
      <path class="cls-1" d="m161.09,174.1s-5.82-1.03-9.95,1.94c-4.14,2.97-8.01,5.04-7.37,10.47,0,0-.13,1.55,3.88,5.04,4.01,3.49,4.14,5.69,10.73,4.91,6.59-.78,21.85-5.56,25.85-7.5,4.01-1.94,9.7-6.72,9.7-6.72,0,0-20.94-4.27-24.95-5.95-4.01-1.68-7.89-2.2-7.89-2.2Z"/>
      <path class="cls-1" d="m185.13,198.15c2.84-.9,10.73-2.71,16.8-1.42,6.08,1.29,12.93,4.01,18.49,8.27,5.56,4.27,10.21,20.55,10.21,20.55,0,0,3.23,13.19,2.84,17.45s-1.81,8.27-6.2,11.76c-4.4,3.49-10.86,9.18-13.83,10.08-2.97.9-29.21,2.59-34,2.2-4.78-.39-11.25-1.55-14.22-8.92-2.97-7.37-4.91-30.25-4.4-35.16.52-4.91,2.71-8.92,11.12-16.29,8.4-7.37,13.19-8.53,13.19-8.53Z"/>
      <path class="cls-4" d="m171.29,343.06s6.93,3.91,13.75,4.02c6.83.1,8.33-2.01,8.33-2.01l-11.74-4.72-10.34,2.71Z"/>
      <path class="cls-10" d="m46.36,110.09s-1.37-17.96-.82-28.52c.55-10.56,4.8-13.16,4.8-13.16,0,0-4.8-10.42,2.88-20.02,7.68-9.6,22.9-5.76,22.9-5.76,0,0,13.16-7.27,37.02-6.31,23.86.96,40.17,12.61,40.17,12.61,0,0,13.57,1.78,18.1,9.19,4.52,7.4,3.57,15.7,3.57,15.7,0,0,8.63,21.46,3.28,37.09-5.35,15.63-28.25,41-28.25,41,0,0,38.67,5.48,64.85-9.87,26.19-15.36,17.69-48.95-2.47-70.89-20.16-21.94-59.64-51.69-101.88-59.92S33.48.4,9.62,23.3c-23.86,22.9,8.78,70.34,36.75,86.79Z"/>
      <path class="cls-10" d="m99.98,7.66s19.74-12.89,46.76-2.88c27.01,10.01,36.61,27.83,40.86,42.23,0,0-47.03-30.85-87.62-39.35Z"/>
      <circle class="cls-2" cx="68.51" cy="60.23" r="19.27"/>
      <circle class="cls-2" cx="154.43" cy="69.06" r="19.27" transform="translate(-10.59 106.3) rotate(-36.81)"/>
      <path class="cls-12" d="m59.48,62.44l5.22.2,3.31,4.12,6.32,1.3,4.42.3s2.21,2.11,2.61,2.91c.4.8.9,1.41.9,1.41,0,0-6.32,3.41-15.36-.2-9.03-3.61-7.43-10.04-7.43-10.04Z"/>
      <path class="cls-12" d="m145.3,71.27l5.22.2,3.31,4.12,6.32,1.3,4.42.3s2.21,2.11,2.61,2.91c.4.8.9,1.41.9,1.41,0,0-6.32,3.41-15.36-.2-9.03-3.61-7.43-10.04-7.43-10.04Z"/>
      <polygon class="cls-15" points="10.11 213.95 4.74 217.51 5.14 219.79 7.56 220.66 12.26 217.98 10.11 213.95"/>
      <polygon class="cls-15" points="15.42 222.21 12.46 226.71 13.13 227.91 15.01 228.52 16.69 227.31 18.64 224.42 15.42 222.21"/>
      <polygon class="cls-15" points="24.82 226.77 24.35 232.48 25.89 234.16 28.24 233.82 29.18 231.94 29.58 227.58 24.82 226.77"/>
      <polygon class="cls-15" points="234.01 193.28 234.97 198.14 237.04 199.33 238.82 198.73 239.28 196.17 238.32 192.77 234.01 193.28"/>
      <path class="cls-15" d="m240.98,191.03l3.44,3.07s1.15.73,2.25.23,1.79-1.24,1.38-2.2c-.41-.96-2.8-3.76-2.8-3.76l-4.27,2.66Z"/>
      <path class="cls-15" d="m249.46,180.34l-1.1,3.99s3.81,3.07,4.77,2.34.87-3.26.87-3.26l-4.54-3.07Z"/>
      <path class="cls-15" d="m240.04,295.11s-1.03-4.56-.15-5.29c.87-.72,2.93-.61,3.19-.19.27.42,1.1,2.36,1.1,2.36l.19,2.02-4.34,1.1Z"/>
      <path class="cls-15" d="m248.21,294.12s.72-4.94,2.59-4.49c1.86.46,2.17,2.28,2.17,2.28,0,0-1.45,3.27-1.45,3.54s-3.31-1.33-3.31-1.33Z"/>
      <path class="cls-15" d="m254.87,296.9s2.97-4.87,4.72-3.54c1.75,1.33,1.41,3.19,1.41,3.19l-2.78,3.46-3.35-3.12Z"/>
      <path class="cls-15" d="m100.88,366.45s-4.28-2.25-5.29-1.35c-1.01.9-1.29,3.04-.96,3.32s3.66,1.63,3.66,1.63l1.24.17,1.35-3.77Z"/>
      <path class="cls-15" d="m99.47,375s-4.28-2.25-5.29-1.35c-1.01.9-1.29,3.04-.96,3.32.34.28,3.66,1.63,3.66,1.63l1.24.17,1.35-3.77Z"/>
      <path class="cls-15" d="m105.6,362.46s-3.83-3.49-4.84-2.59c-1.01.9-1.29,3.04-.96,3.32.34.28,3.66,1.63,3.66,1.63l1.24.17.9-2.53Z"/>
      <circle class="cls-11" cx="164.47" cy="98.22" r="6.35"/>
      <circle class="cls-11" cx="55.22" cy="88.25" r="6.35"/>
      <g>
        <path class="cls-7" d="m133.7,170.87c-.11.3.3.49.47.22,2.53-4.27,8.4-14.44,14.15-26.3,4.81-9.9,10.64-21.33,6.19-22.02-3.08-.48-4.73,7.07-9.26,19.11-5.59,14.89-9.17,22.45-11.55,28.98Z"/>
        <path class="cls-7" d="m135.93,170.18c-.09.16.7.61.81.46,2.6-3.36,9.28-13.1,17.11-24.38,6.19-8.91,13.2-18.67,9.66-21.37-3.2-2.44-5.54,7.34-11.75,18.35-7.98,14.13-12.54,20.8-15.83,26.93Z"/>
      </g>
      <path class="cls-7" d="m82.39,177.69c.14.28-.24.53-.44.28-3.02-3.93-10.06-13.33-17.19-24.42-5.95-9.26-13.11-19.9-8.77-21.12,3-.84,5.54,6.45,11.47,17.87,7.33,14.11,11.79,21.19,14.92,27.39Z"/>
      <g>
        <path class="cls-14" d="m68.54,81.48c-11.66,0-21.15-9.49-21.15-21.15s9.49-21.15,21.15-21.15,21.15,9.49,21.15,21.15-9.49,21.15-21.15,21.15Zm0-39.2c-9.96,0-18.06,8.1-18.06,18.06s8.1,18.06,18.06,18.06,18.06-8.1,18.06-18.06-8.1-18.06-18.06-18.06Z"/>
        <g>
          <circle class="cls-14" cx="72.58" cy="60.34" r="9.84" transform="translate(-2.88 117.03) rotate(-76.66)"/>
          <g>
            <path class="cls-14" d="m83.43,71.48c2.9-2.83,4.71-6.77,4.71-11.14,0-8.59-6.97-15.56-15.56-15.56s-15.56,6.97-15.56,15.56c0,.05,0,.1,0,.16h15.43l10.98,10.98Z"/>
            <path class="cls-14" d="m71.17,63.58l7.59,7.59c-1.87,1.07-3.98,1.64-6.18,1.64-5.73,0-10.6-3.92-12.03-9.23h10.63m1.28-3.09h-15.43c.08,8.52,7.01,15.41,15.55,15.41,4.23,0,8.05-1.69,10.86-4.42l-10.98-10.98h0Z"/>
          </g>
          <circle class="cls-8" cx="71.48" cy="55.06" r="4.47"/>
          <circle class="cls-8" cx="75.26" cy="63.31" r="2.52"/>
        </g>
        <path class="cls-14" d="m154.82,90.25c-11.66,0-21.15-9.49-21.15-21.15s9.49-21.15,21.15-21.15,21.15,9.49,21.15,21.15-9.49,21.15-21.15,21.15Zm0-39.2c-9.96,0-18.06,8.1-18.06,18.06s8.1,18.06,18.06,18.06,18.06-8.1,18.06-18.06-8.1-18.06-18.06-18.06Z"/>
        <g>
          <circle class="cls-14" cx="158.86" cy="69.1" r="9.84"/>
          <g>
            <path class="cls-14" d="m169.72,80.24c2.9-2.83,4.71-6.77,4.71-11.14,0-8.59-6.97-15.56-15.56-15.56s-15.56,6.97-15.56,15.56c0,.05,0,.1,0,.16h15.43l10.98,10.98Z"/>
            <path class="cls-14" d="m157.45,72.35l7.59,7.59c-1.87,1.07-3.98,1.64-6.18,1.64-5.73,0-10.6-3.92-12.03-9.23h10.63m1.28-3.09h-15.43c.08,8.52,7.01,15.41,15.55,15.41,4.23,0,8.05-1.69,10.86-4.42l-10.98-10.98h0Z"/>
          </g>
          <circle class="cls-8" cx="157.76" cy="63.82" r="4.47"/>
          <circle class="cls-8" cx="161.55" cy="72.07" r="2.52"/>
        </g>
        <path class="cls-14" d="m123.98,78.97c-.77,0-1.44-.58-1.53-1.37-.81-7.09-6.81-12.43-13.95-12.43-3.09,0-6.03.99-8.49,2.85-.68.51-1.65.38-2.16-.3-.51-.68-.38-1.65.3-2.16,3-2.28,6.58-3.48,10.35-3.48,8.72,0,16.04,6.52,17.02,15.17.1.85-.51,1.61-1.36,1.71-.06,0-.12.01-.18.01Z"/>
        <path class="cls-14" d="m102.62,76.63c0,1.99-1.61,3.6-3.6,3.6s-3.6-1.61-3.6-3.6,1.61-3.6,3.6-3.6,3.6,1.61,3.6,3.6Z"/>
        <path class="cls-14" d="m118.45,81.17c0,1.99-1.61,3.6-3.6,3.6s-3.6-1.61-3.6-3.6,1.61-3.6,3.6-3.6,3.6,1.61,3.6,3.6Z"/>
        <path class="cls-14" d="m103.92,110.35c-15.29,0-25.88-6.7-30.63-19.37-.3-.8.11-1.69.9-1.99.8-.3,1.69.11,1.99.9,4.32,11.52,13.65,17.37,27.74,17.37s25.15-7.35,30.28-20.69c.31-.8,1.2-1.19,2-.89.8.31,1.19,1.2.89,2-5.54,14.41-17.63,22.67-33.17,22.67Z"/>
        <path class="cls-14" d="m141.25,170.37c-.15,0-.3-.02-.45-.07-.82-.25-1.28-1.11-1.03-1.93,3.09-10.1,10.01-18.46,17.34-27.31,8.1-9.78,16.48-19.89,19.93-32.99,2.8-10.61,1.25-23.38-4.23-35.04-.36-.77-.03-1.69.74-2.06.78-.36,1.69-.03,2.06.74,5.79,12.31,7.4,25.84,4.42,37.14-3.63,13.76-12.23,24.14-20.54,34.18-7.13,8.6-13.86,16.73-16.77,26.24-.2.67-.82,1.09-1.48,1.09Z"/>
        <path class="cls-14" d="m155.12,50.97c-.32,0-.64-.1-.92-.31-7.79-5.8-16.6-9.77-26.19-11.8-17.12-3.62-36.08-1.93-50.7,4.53-.78.35-1.69,0-2.04-.79-.34-.78,0-1.69.79-2.04,15.2-6.71,34.86-8.48,52.59-4.73,10.03,2.12,19.25,6.27,27.4,12.34.68.51.83,1.48.32,2.16-.3.41-.77.62-1.24.62Z"/>
        <path class="cls-14" d="m86.19,183.15c-.36,0-.72-.13-1.02-.38-.39-.34-38.81-34.49-41.65-87.03-.58-10.78,1.05-20.48,4.85-28.84.35-.78,1.27-1.12,2.05-.77.78.35,1.12,1.27.77,2.05-3.59,7.9-5.13,17.11-4.58,27.39,2.76,51.2,40.22,84.54,40.59,84.87.64.56.71,1.54.15,2.18-.31.35-.73.53-1.16.53Z"/>
        <path class="cls-14" d="m168.67,154.54c-5.56,0-11.38-.32-17.42-.97-.85-.09-1.46-.85-1.37-1.7.09-.85.85-1.47,1.7-1.37,38.79,4.19,68-5.5,76.24-25.29,12.87-30.92-26.53-76.84-87.83-102.36C78.69-2.68,18.35,1.71,5.48,32.63c-8.41,20.19,5.59,48.01,36.52,72.59l5.58,4.14c.68.51.83,1.48.32,2.16-.51.68-1.48.83-2.16.32l-5.62-4.17C8.01,82.16-6.34,52.97,2.62,31.45,9.25,15.52,27.44,5.62,53.84,3.57c26.02-2.02,57.05,3.81,87.34,16.42,30.3,12.61,56.29,30.52,73.19,50.42,17.14,20.18,22.93,40.06,16.3,55.98-7.47,17.93-30.56,28.15-62,28.15Z"/>
        <path class="cls-14" d="m187.61,49.15c-.76,0-1.42-.56-1.53-1.33-2.12-15.08-16.14-30.65-34.89-38.76-18.9-8.17-39.08-7.97-51.4.52-.7.48-1.66.31-2.15-.4-.48-.7-.31-1.66.4-2.15,13.18-9.07,34.53-9.39,54.38-.81,19.7,8.52,34.46,25.06,36.72,41.16.12.84-.47,1.63-1.31,1.75-.07,0-.15.02-.22.02Z"/>
        <path class="cls-14" d="m159.58,345.08c-5.97,0-12.13-.62-18.33-1.87-18.2-3.69-33.28-12.23-40.33-22.84-15.15-22.8-13.52-44.65-12.22-62.21l.23-3.13c.86-12.17,2.31-32.54,9.94-52.86,9.94-26.47,29.24-31.27,37.48-33.31.69-.17,1.42-.36,2.18-.56,5.36-1.39,12.7-3.3,19.32-2.19,5.78.97,8.18,5.18,7.98,7.72-.07.85-.82,1.49-1.66,1.42-.85-.07-1.49-.81-1.42-1.66.08-1.02-1.37-3.76-5.41-4.44-5.97-1.01-12.94.8-18.03,2.13-.78.2-1.51.39-2.21.57-12.84,3.19-27.07,9.41-35.33,31.4-7.47,19.9-8.9,39.99-9.76,52l-.23,3.14c-1.34,17.98-2.85,38.35,11.71,60.27,13.41,20.18,59.1,31.8,87.45,16.01,2.47-1.37,3.77-3.37,3.77-5.77,0-.85.69-1.55,1.54-1.55s1.54.69,1.54,1.55c0,3.54-1.9,6.55-5.36,8.47-9.13,5.08-20.58,7.71-32.87,7.71Z"/>
        <path class="cls-14" d="m165.41,335.49c-14.92,0-30.44-3.69-41.63-14.28-15.9-15.03-23.54-30.15-21.19-71.04,1.52-26.52,4.91-43.28,11-54.35,5.29-9.62,13.31-16.53,23.83-20.55,9.08-3.47,22.06-5.27,30.57-1.46,4.59,2.06,11.46,3.26,18.11,4.42,5.37.94,10.44,1.83,14.28,3.14,10.77,3.68,38.81,23.52,39.16,70.5.29,38.35-11.15,62.93-34.98,75.15-8.62,4.42-23.55,8.46-39.14,8.46Zm-9-160.71c-6.15,0-12.81,1.44-17.89,3.38h0c-9.82,3.75-17.29,10.2-22.22,19.16-5.77,10.5-9.15,27.35-10.62,53.03-2.29,39.92,4.7,53.93,20.23,68.62,21.77,20.58,61.05,13.62,77.24,5.31,14.47-7.42,33.67-23,33.3-72.38-.34-45.19-26.87-64.12-37.07-67.6-3.61-1.23-8.56-2.1-13.81-3.02-6.83-1.19-13.89-2.43-18.84-4.65-2.92-1.31-6.52-1.86-10.32-1.86Zm-18.44,1.93h.01-.01Z"/>
        <path class="cls-14" d="m198.51,324.65c-.45,0-.89-.19-1.19-.56-.54-.66-.45-1.63.21-2.17,6.9-5.7,18.01-41.12,14.6-68.75-3.51-28.42-16.4-51.15-22.72-59.19-3.82-4.87-10.24-6.99-14.93-8.54-3.46-1.14-6.03-2.44-6.14-2.49-.76-.38-1.07-1.31-.68-2.07.38-.76,1.31-1.07,2.08-.68.02.01,2.49,1.25,5.65,2.29,5.13,1.69,12.06,3.98,16.46,9.58,6.5,8.28,19.76,31.63,23.35,60.72,3.59,29.07-8.17,65.3-15.69,71.51-.29.24-.64.35-.98.35Z"/>
        <path class="cls-14" d="m169.48,328.1c-.37,0-.73-.13-1.03-.39-13.52-12.05-23.49-40.34-30.48-86.49-4.73-31.2-.77-46.69-.6-47.33.22-.82,1.06-1.31,1.89-1.1.82.22,1.32,1.06,1.1,1.89-.04.15-3.95,15.6.66,46.08,6.88,45.41,16.52,73.1,29.48,84.65.64.57.69,1.54.13,2.18-.31.34-.73.52-1.15.52Z"/>
        <path class="cls-14" d="m31.32,228.84c-7.76,0-15.47-3.47-19.58-9.25-3.32-4.68-5.93-13.07-2.36-21.32,2.76-6.36,10.13-14.5,29.61-17.16,33.63-4.6,70,2.76,70.37,2.83.83.17,1.37.99,1.2,1.82-.17.83-.98,1.38-1.82,1.2-.36-.07-36.23-7.32-69.32-2.8-18.06,2.47-24.76,9.7-27.2,15.33-3.06,7.07-.81,14.28,2.04,18.3,4.56,6.43,14.36,9.52,22.79,7.2,4.59-1.27,12.43-5.23,13.4-17.53.07-.85.82-1.48,1.66-1.42.85.07,1.49.81,1.42,1.66-.82,10.36-6.53,17.75-15.66,20.27-2.13.59-4.34.87-6.55.87Z"/>
        <path class="cls-14" d="m50.94,215.83c-.7,0-1.34-.48-1.5-1.19-.2-.83.32-1.66,1.15-1.86,26.78-6.28,45.44-4.31,46.23-4.22.85.09,1.46.86,1.36,1.71-.09.85-.86,1.45-1.7,1.37-.19-.02-18.95-1.99-45.18,4.16-.12.03-.24.04-.35.04Z"/>
        <path class="cls-14" d="m110.34,371.27c-.39,0-.79-.15-1.09-.45-19.69-19.48-9.61-50.42-9.18-51.72.27-.81,1.15-1.24,1.96-.97.81.27,1.24,1.15.97,1.96-.1.3-9.89,30.43,8.42,48.54.61.6.61,1.58.01,2.18-.3.31-.7.46-1.1.46Z"/>
        <path class="cls-14" d="m120.53,388.3c-5.64,0-11-.99-15.07-3.02-4.11-2.04-6.62-4.99-7.28-8.52-.82-4.42-.31-7.97,1.52-10.57,2.09-2.97,5.15-3.49,5.28-3.52.84-.13,1.64.44,1.77,1.28.14.84-.43,1.63-1.26,1.77-.1.02-1.98.39-3.29,2.3-1.3,1.89-1.63,4.64-.97,8.18.59,3.2,3.38,5.2,5.62,6.32,8.35,4.16,22.71,3.51,32.69-1.48,4.36-2.18,7-4.82,7.84-7.84,1.34-4.81-1.97-10.02-4.16-13.47l-.4-.63c-3.38-5.37-5.48-9.51-3.89-17.69.16-.84.98-1.38,1.81-1.22.84.16,1.39.97,1.22,1.81-1.33,6.84.11,10.11,3.47,15.46l.4.62c2.33,3.67,6.23,9.82,4.53,15.95-1.08,3.9-4.25,7.18-9.43,9.77-5.95,2.98-13.39,4.51-20.38,4.51Z"/>
        <path class="cls-14" d="m244.37,306.41c-.47,0-.94-.22-1.24-.62-4.7-6.32-13.14-4.94-13.23-4.92-.83.15-1.64-.42-1.79-1.26-.15-.84.42-1.64,1.26-1.79.42-.08,10.42-1.71,16.24,6.13.51.68.37,1.65-.32,2.16-.28.21-.6.3-.92.3Z"/>
        <path class="cls-14" d="m185.7,348.6c-9.14,0-15.69-4.16-16.04-4.38-.72-.46-.92-1.42-.46-2.14s1.42-.92,2.13-.46h0c.09.06,8.28,5.22,18.67,3.53-3.69-.56-6.67-1.73-8.87-3.5-.66-.54-.77-1.51-.24-2.17.54-.66,1.51-.77,2.17-.24,2.81,2.26,7.04,2.95,10.09,3.13,1.3.08,2.3,1.03,2.44,2.32.14,1.3-.65,2.46-1.91,2.81-2.81.79-5.5,1.1-7.99,1.1Z"/>
        <path class="cls-14" d="m241.02,339.73c-2.08,0-4.22-.38-6.38-1.16-2.32-.84-4.57-1.79-6.94-2.8-8.46-3.59-17.2-7.29-29.78-5.83-.84.09-1.61-.51-1.71-1.36-.1-.85.51-1.61,1.36-1.71,13.39-1.56,22.93,2.49,31.34,6.06,2.34.99,4.54,1.93,6.79,2.74,9.42,3.41,18.09-2.2,23.16-15.01,2.44-6.15,2.23-12.5-.56-17.42-2.19-3.85-5.66-6.35-9.79-7.02-8.68-1.41-10.38,3.58-10.45,3.8-.26.8-1.12,1.26-1.93,1.01-.81-.25-1.27-1.09-1.03-1.9.02-.08,2.45-7.83,13.9-5.96,5,.81,9.36,3.92,11.98,8.54,3.25,5.73,3.53,13.05.74,20.08-4.56,11.52-12.17,17.94-20.7,17.94Z"/>
        <path class="cls-14" d="m231.72,195.04c-10.3,0-13.41-8.35-13.44-8.44-.29-.8.13-1.69.93-1.97.8-.29,1.68.13,1.97.93h0c.12.31,2.95,7.68,13.15,6.2,4.79-.7,9.07-3.35,11.46-7.1,2.1-3.3,2.57-7.16,1.37-11.16-3.63-12.06-18.78-17.21-39.55-13.44-22.61,4.11-38.12,16.6-38.28,16.73-.66.54-1.63.44-2.17-.22-.54-.66-.44-1.63.22-2.17.65-.53,16.25-13.12,39.68-17.38,22.45-4.08,38.94,1.89,43.06,15.59,1.47,4.89.88,9.63-1.72,13.71-2.86,4.5-7.95,7.67-13.62,8.5-1.09.16-2.11.23-3.06.23Z"/>
        <path class="cls-14" d="m225.98,188.68c-.26,0-.53-.07-.77-.21-6.14-3.55-17.44-.41-17.55-.38-.82.23-1.67-.24-1.91-1.07-.23-.82.24-1.68,1.07-1.91.51-.15,12.68-3.52,19.94.68.74.43.99,1.37.56,2.11-.29.49-.81.77-1.34.77Z"/>
        <path class="cls-14" d="m6.85,221.95c-1.33,0-2.56-.67-3.29-1.78-.57-.88-.77-1.92-.55-2.95.22-1.03.82-1.91,1.7-2.48l4.49-2.7,1.6,2.65-4.44,2.68c-.14.09-.27.28-.31.5-.05.22,0,.44.12.63.16.24.42.38.7.38.11,0,.28-.02.45-.13l3.55-2.31,1.69,2.59-3.54,2.31c-.64.42-1.38.64-2.14.64Z"/>
        <path class="cls-14" d="m14.54,230.42c-.83,0-1.63-.26-2.31-.75-1.75-1.27-2.14-3.73-.87-5.48l2.47-3.39,2.5,1.82-2.46,3.39c-.27.37-.19.9.18,1.16.18.13.37.16.49.16.27,0,.52-.12.67-.34l2.47-3.39,2.5,1.82-2.46,3.39c-.73,1.01-1.92,1.62-3.17,1.62Z"/>
        <path class="cls-14" d="m26.56,235.35c-.2,0-.4-.02-.6-.05-2.13-.33-3.61-2.33-3.28-4.47l.62-4,3.05.47-.62,4c-.07.45.24.88.7.95.49.07.88-.25.95-.7l.62-4,3.05.47-.62,4c-.3,1.93-1.93,3.33-3.87,3.33Z"/>
        <path class="cls-14" d="m236.98,201.11c-1.76,0-3.32-1.19-3.78-2.89l-1.06-3.9,2.98-.81,1.06,3.9c.12.43.59.7,1.02.59.22-.06.4-.2.51-.39.11-.19.14-.42.08-.63l-1.07-3.91,2.98-.81,1.07,3.9c.57,2.09-.66,4.25-2.75,4.82-.34.09-.68.14-1.04.14Z"/>
        <path class="cls-14" d="m246.03,196.84c-1.19,0-2.3-.53-3.05-1.45l-2.31-2.84,2.4-1.95,2.31,2.84c.16.2.4.31.65.31.13,0,.33-.03.52-.19.17-.14.28-.34.3-.56.02-.22-.04-.44-.18-.61l-2.31-2.84,2.4-1.95,2.31,2.84c.66.81.97,1.83.86,2.88-.11,1.04-.62,1.98-1.43,2.64-.7.57-1.58.88-2.47.88Z"/>
        <path class="cls-14" d="m251.89,188.32c-.66,0-1.32-.17-1.9-.49l-3.2-1.77,1.5-2.7,3.2,1.77c.4.22.92.06,1.13-.32.11-.19.13-.42.07-.63-.06-.21-.2-.39-.4-.5l-3.2-1.78,1.5-2.7,3.19,1.78c.92.51,1.58,1.34,1.87,2.35.29,1.01.17,2.07-.34,2.98-.69,1.25-2.01,2.02-3.43,2.02Z"/>
        <path class="cls-14" d="m99.99,379.69c-.06,0-1.28-.06-1.34-.07l-3.85-.25c-1.05-.07-2-.54-2.69-1.33-.69-.79-1.04-1.8-.97-2.84.14-2.15,2.02-3.8,4.16-3.66l3.84.25-.2,3.08-3.84-.25c-.42-.03-.86.32-.89.78-.01.22.06.44.21.6.15.17.35.27.57.28l3.84.25s1.06.06,1.19.06l-.04,3.09Z"/>
        <path class="cls-14" d="m99.89,372.45c-.41,0-.81-.06-1.2-.19l-3.47-1.12c-1-.32-1.81-1.01-2.29-1.94-.48-.93-.57-2-.24-2.99.66-2.06,2.88-3.2,4.93-2.53l3.91,1.22-.92,2.95-3.92-1.23c-.44-.14-.92.1-1.06.54-.07.21-.05.44.05.64.1.2.27.34.49.41l3.47,1.11c.08.03.17.04.26.04v3.09Z"/>
        <path class="cls-14" d="m102.88,367.16c-.38-.16-.73-.37-1.04-.64l-2.77-2.36c-1.65-1.41-1.84-3.89-.44-5.53,1.4-1.64,3.88-1.84,5.53-.44l-2,2.35c-.35-.3-.88-.26-1.18.09-.3.35-.26.88.09,1.18l2.77,2.36c.07.06.14.1.22.13l-1.18,2.85Z"/>
        <path class="cls-14" d="m238.29,295.14l-.51-2.92c-.38-2.13,1.05-4.17,3.18-4.55,2.13-.38,4.17,1.06,4.55,3.18l.51,2.91-3.04.54-.51-2.91c-.08-.45-.52-.76-.97-.68-.45.08-.75.51-.67.97l.51,2.92-3.04.54Z"/>
        <path class="cls-14" d="m253.62,295.97l-2.95-.93.94-3c.07-.21.05-.44-.06-.64-.1-.2-.28-.34-.49-.41-.43-.13-.91.11-1.05.55l-.94,3-2.95-.93.94-3c.65-2.06,2.85-3.22,4.92-2.57,1,.31,1.82,1,2.31,1.93.49.93.58,1.99.26,2.99l-.94,3Z"/>
        <path class="cls-14" d="m259.6,301.49l-2.57-1.72,2.6-3.88c.28-.4.19-.92-.19-1.18-.38-.26-.9-.17-1.16.21l-1.97,2.83-2.53-1.77,1.97-2.83c1.24-1.78,3.69-2.21,5.46-.97.86.6,1.43,1.5,1.62,2.53s-.04,2.07-.64,2.93l-2.58,3.85Z"/>
        <path class="cls-14" d="m175.67,324.91c-10.36,0-17.91-1.17-22.88-2.34-1.54-.36-2.84-1.36-3.59-2.75-.74-1.38-.85-3.02-.31-4.49,1.68-4.52,4.12-8.54,5.87-11.12,1.95-2.86,4.38-5.21,7.24-6.98,21.11-13.08,41.33-18.92,49.05-20.82,2.31-.57,4.69-.82,7.08-.73,6.37.23,11.2,1.05,14.12,1.69,1.1.24,2.03.9,2.61,1.86.58.95.73,2.07.43,3.15-1.07,3.91-2.77,9.04-4.01,12.66-1.8,5.28-5.11,9.84-9.57,13.19-7.8,5.86-17.33,10.8-22.32,13.23-3.24,1.57-6.68,2.53-10.22,2.84-4.94.43-9.44.61-13.51.61Zm41.53-48.21c-1.99,0-3.97.24-5.9.72h0c-7.67,1.89-27.76,7.7-48.75,20.7-2.74,1.69-5.07,3.94-6.93,6.68-1.72,2.53-4.12,6.47-5.76,10.9-.44,1.19-.35,2.52.25,3.64.6,1.13,1.67,1.94,2.92,2.24,5.6,1.32,17.73,3.29,36.06,1.7,3.41-.3,6.73-1.22,9.86-2.74,4.95-2.41,14.42-7.31,22.15-13.12,4.29-3.23,7.48-7.62,9.21-12.7,1.23-3.6,2.93-8.72,3.99-12.6.22-.8.11-1.63-.32-2.34-.43-.72-1.12-1.21-1.94-1.39-2.88-.63-7.64-1.44-13.94-1.67-.3-.01-.6-.02-.89-.02Zm-6.02.22h0,0Z"/>
        <path class="cls-14" d="m180.86,319.61c-6.78,0-12.78-.48-16.47-.87-.96-.1-1.78-.64-2.25-1.49-.47-.84-.49-1.86-.07-2.72.48-.98,1.07-2.05,1.76-3.15.73-1.17,1.65-2.17,2.74-2.96,18.23-13.19,36.85-18.31,44.01-19.91h0c2.03-.45,4.16-.74,6.32-.84,2.97-.15,5.93-.23,8.81-.21,1.08,0,2.08.54,2.68,1.42.61.89.74,2.02.35,3.03-.42,1.09-.93,2.33-1.51,3.67-1.37,3.15-3.51,5.84-6.2,7.81-7.48,5.46-17.09,10.92-22.16,13.7-1.99,1.09-4.13,1.76-6.34,1.98-3.96.39-7.94.54-11.68.54Zm29.95-30.08c-7.1,1.58-25.55,6.66-43.63,19.73-.98.71-1.81,1.61-2.47,2.67-.67,1.08-1.25,2.11-1.71,3.06-.28.57-.26,1.21.05,1.77.3.55.83.9,1.45.96,5.7.59,16.9,1.42,27.95.33,2.08-.21,4.08-.83,5.95-1.85,5.04-2.76,14.61-8.2,22.05-13.63,2.54-1.85,4.57-4.41,5.86-7.38.58-1.33,1.08-2.55,1.5-3.63.27-.7.19-1.46-.24-2.08-.42-.61-1.09-.97-1.84-.97-2.86-.02-5.81.06-8.76.2-2.11.11-4.17.38-6.15.82h0Z"/>
        <path class="cls-14" d="m184.72,267.38c-2.88,0-5.44-.06-7.63-.14-6.1-.23-11.31-4.56-12.66-10.52-3.02-13.25-3.93-24.65-4.16-31.88-.13-4.08,1.22-8.01,3.8-11.08,4.46-5.3,9.7-9.84,15.58-13.48h0c7.1-4.4,15.86-5.73,24.02-3.66,4.9,1.24,9.3,2.91,13.06,4.95,3.7,2,6.63,5.12,8.49,9,6.66,13.97,8.44,24.92,8.76,31.65.18,3.79-1.1,7.43-3.62,10.27-3.57,4.02-8.13,7.55-11.33,9.81-2.82,1.98-6.15,3.25-9.64,3.66-9.4,1.1-17.9,1.42-24.66,1.42Zm-4.54-66.22c-5.79,3.58-10.94,8.04-15.33,13.26-2.42,2.87-3.68,6.56-3.55,10.38.23,7.18,1.14,18.51,4.14,31.68,1.25,5.51,6.06,9.51,11.7,9.72,7.3.28,18.8.28,32.13-1.27,3.31-.39,6.48-1.59,9.16-3.47,3.16-2.22,7.65-5.7,11.15-9.65,2.33-2.63,3.53-6.02,3.36-9.54-.32-6.63-2.08-17.44-8.66-31.25-1.76-3.69-4.54-6.64-8.05-8.54-3.69-2-8.01-3.64-12.83-4.86-7.89-2-16.36-.71-23.22,3.54h0Z"/>
        <path class="cls-14" d="m189.61,253.33c-.7,0-1.36,0-1.98-.01-3.8-.05-6.96-2.82-7.51-6.57-.82-5.59-1.53-12.68-1.98-17.63-.35-3.8,1.19-7.5,4.12-9.89,4.8-3.92,9.29-6.58,12.21-8.12h0c3.3-1.74,7.01-2.52,10.73-2.27,3.02.21,5.72.63,8.02,1.27,3.14.87,5.73,3.17,6.93,6.17,2.74,6.83,4.56,14.86,5.61,20.39.68,3.61-.82,7.3-3.82,9.41-2.32,1.63-4.79,2.98-6.44,3.83-1.72.88-3.56,1.49-5.47,1.82-7.52,1.3-14.96,1.61-20.4,1.61Zm5.33-41.32c-2.88,1.52-7.31,4.14-12.04,8.01-2.66,2.17-4.06,5.54-3.74,9,.45,4.94,1.15,12,1.98,17.58.48,3.25,3.22,5.65,6.51,5.69,5.49.08,13.79-.13,22.2-1.59,1.81-.31,3.55-.89,5.18-1.72,1.63-.83,4.05-2.16,6.32-3.76,2.67-1.88,4.01-5.17,3.4-8.38-1.03-5.49-2.84-13.45-5.55-20.2-1.09-2.7-3.42-4.78-6.25-5.56-2.24-.62-4.87-1.04-7.82-1.24-3.53-.24-7.05.51-10.18,2.15h0Z"/>
        <path class="cls-14" d="m155.83,197.38c-1.98,0-3.92-.75-5.4-2.14-1.54-1.45-3.21-2.98-4.94-4.55-1.58-1.42-2.47-3.46-2.43-5.58.03-2.15,1-4.19,2.65-5.59,4.62-3.92,9.8-6.05,10.02-6.14,2.08-1.14,10.01,1,10.95,1.26l27.28,6.77c.15.04.28.14.34.28.07.14.06.31,0,.45-1.34,2.68-8.35,6.3-8.65,6.45-7.12,3.76-20.7,7-28.16,8.6-.55.12-1.1.17-1.65.17Zm1.78-23.29c-.64,0-1.15.07-1.45.23-.1.05-5.3,2.18-9.79,5.99-1.42,1.21-2.26,2.96-2.29,4.82-.03,1.83.74,3.57,2.09,4.8,1.74,1.57,3.41,3.11,4.96,4.56,1.64,1.54,3.93,2.18,6.12,1.71,7.41-1.58,20.88-4.8,27.9-8.51,1.78-.91,6.3-3.5,7.84-5.44l-26.59-6.6s0,0-.01,0c-2.53-.7-6.52-1.56-8.79-1.56Z"/>
        <path class="cls-14" d="m158.86,188.87c-1.27,0-2.52-.5-3.44-1.42l-1.36-1.36c-.69-.69-1.06-1.65-1-2.62.05-.97.51-1.87,1.26-2.48,1.22-.98,2.59-1.94,4.07-2.84h0c1.34-.82,2.79-1.41,4.31-1.76l3.91-.17c2.06-.09,4.11.12,6.11.62l9.7,2.39c.19.05.33.19.38.38.04.19-.02.39-.17.51-2.42,2.04-8.49,4.56-8.74,4.66-3.2.99-9.23,2.68-13.73,3.92-.43.12-.86.17-1.29.17Zm.07-9.85c-1.45.88-2.78,1.81-3.96,2.77-.53.43-.85,1.05-.88,1.73-.04.68.22,1.36.71,1.84l1.36,1.36c.97.98,2.41,1.36,3.73.98,4.49-1.25,10.51-2.93,13.66-3.9.01,0,4.91-2.03,7.58-3.85l-8.64-2.13c-1.9-.47-3.86-.67-5.82-.59l-3.82.16c-1.32.32-2.66.87-3.91,1.62h0Z"/>
        <path class="cls-14" d="m109.3,297.87c-.2,0-.39-.12-.47-.3-.13-.3-13.23-30.6,1.25-92.09.06-.24.3-.42.51-.4.13,0,13.43.31,30.65,9.57,4.75,2.56,8.02,7.11,8.97,12.48,1.56,8.87,3.61,21.83,4.54,33.23.43,5.26-1.49,10.38-5.26,14.06-7.03,6.86-21.59,19.03-40.06,23.43-.04.01-.08.01-.12.01Zm1.69-91.75c-13.37,57.11-2.84,86.92-1.38,90.63,18.03-4.42,32.25-16.33,39.15-23.06,3.55-3.47,5.36-8.29,4.96-13.24-.92-11.36-2.97-24.29-4.53-33.13-.89-5.06-3.97-9.35-8.45-11.76-15.29-8.23-27.41-9.3-29.76-9.43Z"/>
        <path class="cls-14" d="m104.68,279.41c-.24,0-.45-.17-.5-.41-.12-.56-2.78-14.14,2.3-55.28.03-.21.18-.38.38-.43.2-.05,4.95-1.26,14.02.95,7.04,1.72,12.28,7.45,13.34,14.6.92,6.17,1.67,11.66,2.22,16.3.89,7.45-3,14.67-9.67,17.95-5.7,2.81-14.15,6.19-22.08,6.32h0Zm2.77-55.2c-4.52,36.81-2.74,51.58-2.34,54.16,7.61-.25,15.7-3.49,21.2-6.2,6.28-3.1,9.94-9.89,9.11-16.91-.55-4.63-1.3-10.1-2.22-16.27-1.01-6.74-5.94-12.13-12.57-13.75-7.45-1.82-11.96-1.25-13.18-1.03Z"/>
      </g>
      <g>
        <path d="m60.28,42.82c-.57,0-1.12-.31-1.39-.86l-4.37-8.81c-.38-.76-.07-1.69.7-2.07.76-.38,1.69-.07,2.07.7l4.37,8.81c.38.76.07,1.69-.7,2.07-.22.11-.45.16-.68.16Z"/>
        <path d="m55.49,45.81c-.34,0-.69-.11-.98-.35l-6.45-5.29c-.66-.54-.76-1.51-.21-2.17.54-.66,1.52-.76,2.17-.21l6.45,5.29c.66.54.76,1.51.21,2.17-.3.37-.75.57-1.19.57Z"/>
      </g>
      <g>
        <path d="m167.47,55.1c-.39,0-.77-.14-1.07-.43-.62-.59-.64-1.57-.05-2.18l6.81-7.1c.59-.62,1.57-.64,2.18-.05.62.59.64,1.57.05,2.18l-6.81,7.1c-.3.32-.71.48-1.12.48Z"/>
        <path d="m171.14,59.39c-.61,0-1.19-.37-1.43-.97-.32-.79.07-1.69.86-2.01l7.74-3.11c.79-.32,1.69.06,2.01.86.32.79-.07,1.69-.86,2.01l-7.74,3.11c-.19.08-.38.11-.58.11Z"/>
      </g>
    </g>
  </g>
</svg>