<?xml version="1.0" encoding="UTF-8"?>
<svg id="Layer_2" data-name="Layer 2" xmlns="http://www.w3.org/2000/svg" viewBox="0 0 264.14 368.56">
  <defs>
    <style>
      .cls-1 {
        fill: #f2f1eb;
      }

      .cls-2 {
        fill: #f8ef8d;
      }

      .cls-3 {
        fill: #e55b78;
      }

      .cls-4 {
        fill: #fff;
      }

      .cls-5 {
        fill: #fbeb46;
      }

      .cls-6 {
        fill: #8b7919;
      }

      .cls-7 {
        fill: #87424b;
      }

      .cls-8 {
        fill: #bdd148;
      }

      .cls-9 {
        fill: #bd9e4f;
      }

      .cls-10 {
        fill: #c7dcc7;
      }

      .cls-11 {
        fill: #e094a2;
      }

      .cls-12 {
        fill: #1d1d1b;
      }

      .cls-13 {
        fill: #52af2c;
      }

      .cls-14 {
        fill: #6d6854;
      }

      .cls-15 {
        fill: #575756;
      }

      .cls-16 {
        fill: #796e32;
      }
    </style>
  </defs>
  <g id="Layer_3" data-name="Layer 3">
    <g>
      <path class="cls-8" d="m51.23,62.24s5.13,15.84,19.63,16.29c14.5.45,30.56-17.18,10.26-35.47,0,0,45.07-14.28,73.85,16.06,28.78,30.34,16.06,59.12,7.36,74.96-8.7,15.84-26.1,18.74-31.46,46.85l-2.45.22s-.22-12.94-11.15-11.6c-10.93,1.34-12.49,14.06-12.49,14.06,0,0-5.13-2.45-8.7-.89s-6.47,2.68-6.47,2.68c0,0-2.23-11.16-7.36-14.06s-7.81-2.9-7.81-2.9c0,0-16.06-20.3-26.55-48.19-10.49-27.89-5.13-44.17,3.35-58.01Z"/>
      <g>
        <path class="cls-2" d="m121.21,185.49c-.09.29.31.47.46.2,2.31-4.22,11.1-23.02,16.3-34.72,4.34-9.76,9.63-21.04,5.29-21.56-3.01-.36-4.36,7.01-8.36,18.85-4.94,14.63-11.59,30.82-13.68,37.24Z"/>
        <path class="cls-2" d="m122.05,187.07c-.08.16.7.56.8.42,2.42-3.34,13.29-24.09,20.52-35.28,5.71-8.84,12.2-18.54,8.68-21.05-3.19-2.27-5.13,7.31-10.8,18.19-7.28,13.97-16.21,31.67-19.2,37.72Z"/>
      </g>
      <path class="cls-2" d="m80.56,175.43c.14.27-.24.51-.42.27-2.93-3.82-9.77-12.94-16.69-23.71-5.78-8.99-12.73-19.32-8.51-20.51,2.92-.82,5.38,6.26,11.14,17.35,7.12,13.7,11.44,20.58,14.49,26.6Z"/>
      <path class="cls-8" d="m37.17,172s9.59-11.38.89-21.19c-8.7-9.82-24.54-8.48-31.9,5.35-7.36,13.83-7.81,35.03,20.08,47.97,22.09,9.37,43.28,2.45,43.28,2.45,0,0-3.79-6.02-6.02-21.42,0,0-17.18,2.45-26.33-13.16Z"/>
      <path class="cls-8" d="m128.2,202.79s-21.64,13.83-35.7,36.59c-14.06,22.76-8.48,42.84.89,45.96s18.29,4.69,27.22-3.57c8.92-8.25,5.13-15.84-.89-20.97,0,0,7.81-23.87,17.4-35.47,0,0-3.12-14.95-8.92-22.53Z"/>
      <path class="cls-8" d="m88.49,305.64s-19.41-8.92-37.93,16.73c0,0-12.27-7.14-21.42,6.25-9.15,13.39.89,27,14.28,35.03,13.39,8.03,23.43,2.45,36.14-8.25,12.72-10.71,22.53-21.86,44.62-24.76,0,0-26.55-8.25-35.7-24.99Z"/>
      <path class="cls-8" d="m163,331.07l9.59-3.79s11.15,3.57,14.5,1.34,1.34-5.8,1.34-5.8c0,0,17.18-4.46,25.88-13.61,0,0,15.84-9.15,33.69,9.37,17.85,18.52-1.12,37.93-17.4,32.57,0,0-8.7,13.39-28.56,10.04-19.86-3.35-29.67-10.71-39.04-30.12Z"/>
      <circle class="cls-1" cx="71.13" cy="60.05" r="18.71"/>
      <path class="cls-14" d="m61.71,61.09l5.07.19,3.22,4,6.14,1.27,4.29.29s2.14,2.05,2.53,2.83c.39.78.88,1.36.88,1.36,0,0-6.14,3.31-14.91-.19-8.77-3.51-7.21-9.74-7.21-9.74Z"/>
      <path class="cls-3" d="m104.19,184.92s4.46-15.01,13.08-15.37c8.62-.36,14.08,9.91,12.59,21.17-1.49,11.26-6.13,18.55-13.58,18.22-7.45-.33-12.75-7.12-12.75-7.12,0,0-5.46,2.15-9.6,1.66-4.14-.5-4.64-1.82-4.64-1.82,0,0-6.29,9.6-11.76,9.27-5.46-.33-12.59-8.45-12.59-20.7s2.25-21.21,9.49-21.79c7.24-.57,12.04,3.9,14.52,15.99,0,0,8.78-5.46,15.24.5Z"/>
      <path class="cls-5" d="m42.92,102.68s-2.21-27.93,8.3-39.27c0,0,0-15.77,11.62-20.74,11.62-4.98,19.36,1.11,19.36,1.11,0,0,27.38-11.06,60.85,5.53,33.47,16.59,42.87,65.55,7.74,97.08,0,0,40.66,10.51,70.25-16.32,29.59-26.83-20.74-75.51-36.51-83.8,0,0,1.66-24.06-34.85-39.27-36.51-15.21-48.95,1.38-48.95,1.38,0,0-47.57-12.17-76.06,4.43C-3.82,29.38-6.59,61.19,42.92,102.68Z"/>
      <path class="cls-13" d="m199.74,41.83c-1.66-9.68-1.66-24.34,14.11-29.04,15.77-4.7,22.13,6.91,27.38,10.51,5.25,3.6,14.38,7.47,14.38,7.47,0,0-9.4,9.4-17.15,16.59-7.74,7.19-12.45,9.96-24.62,6.36-12.17-3.6-14.11-11.89-14.11-11.89Z"/>
      <path class="cls-7" d="m96.78,141.38s.61-21.54,27.83-26.31l.46-14.52s-17.57,18.77-43.79,7.45c0,0-4.37,26.02,15.5,33.38Z"/>
      <path class="cls-11" d="m97.96,142.11s7.06,2.39,17.41-3.28c10.35-5.67,9.55-23.38,9.55-23.38,0,0-26.67,3.08-26.96,26.67Z"/>
      <path class="cls-16" d="m128.45,200.45s12.2,25.74,12.73,49.61c.53,23.88,6.37,50.94,14.86,63.67,8.49,12.74,25.77,16.5,31.06,14.88,5.29-1.62-7.44-17.53-12.48-29.74-5.04-12.2-8.22-40.06-21.76-74.82-13.53-34.76-21.23-44.84-21.23-44.84l-1.06,3.18s-.27,9.82-2.12,18.04Z"/>
      <path class="cls-10" d="m72.79,209.71s5.72,1.03,8.95-.59c3.23-1.61,7.55-7.48,7.55-7.48,0,0,3.6,1.61,6.97,1.17,3.37-.44,7.27-1.01,7.27-1.01,0,0,2.85,5.7,7.4,6.87,4.55,1.17,8.07.73,8.07.73,0,0-19.8,14.52-29.04,35.79-9.24,21.27-9.09,34.18,4.11,39.6,13.2,5.43,23.03,3.37,27.87-3.23s4.25-15.84,2.2-17.6c-2.05-1.76-4.41-3.19-4.41-3.19,0,0,11.45-28.5,13.65-31.87s2.79-4.55,2.79-4.55c0,0,4.69,13.93,6.31,38.14,1.61,24.2,6.45,41.8,13.05,51.19,6.6,9.39,17.08,13.57,17.08,13.57,0,0-19.28,9.75-43.92,3.88s-41.95-21.71-54.27-54.57-1.61-66.89-1.61-66.89Z"/>
      <path class="cls-6" d="m131.63,179.22l4.4-12.82s9.78,2.21,18.14,2.21,30.92,7.1,51.11,29.03c20.19,21.93,30.45,43.23,30.13,66.73-.32,23.51-15.93,38.18-23.03,44.96s-23.95,13.48-23.95,13.48c0,0-13.91-22.63-20.06-48.82-6.15-26.19-14.04-53.01-22.4-69.41-8.36-16.41-14.34-25.36-14.34-25.36Z"/>
      <path class="cls-9" d="m139.81,167.99s2.92,9.29,6.68,11.24c3.77,1.95,14.26,3.97,17.49,3.56,3.23-.4,8.61-4.3,10.02-7.67,0,0-9.21-5.04-15.67-5.85-6.46-.81-18.52-1.28-18.52-1.28Z"/>
      <path class="cls-9" d="m187.38,182.86s1.88,8.2,9.95,16.34c8.07,8.14,15.94,21.45,18.36,27.84,2.42,6.39,4.44,11.3,8.61,14.46,4.17,3.16,8.54,4.17,8.54,4.17,0,0-4.57-18.9-11.9-28.78-7.33-9.89-22.8-28.31-27.57-31.14-4.78-2.82-5.99-2.89-5.99-2.89Z"/>
      <path class="cls-9" d="m143.6,198.6s13.38-1.48,27.31-.2,20.11,2.22,24.95,7.73c4.84,5.51,13.79,17.02,17.96,30.6,4.17,13.59-1.88,19.23-5.99,25.29s-12.85,14.86-19.3,19.64c-6.46,4.78-15,9.89-15,9.89,0,0-5.18-15.27-7.94-29.52s-21.99-63.42-21.99-63.42Z"/>
      <path class="cls-9" d="m208.65,312.45s-7.74-4.06-8.9-9.48c-1.16-5.42,11.03-18.77,17.03-24.77s18-16.06,18-16.06c0,0-.19,17.23-4.94,26.13-4.74,8.9-21.19,24.19-21.19,24.19Z"/>
      <path class="cls-15" d="m29.68,144.82s1.13-7.39,3.59-7.12c2.46.27,3,3.39,3,3.39l-2.13,5.39-4.46-1.66Z"/>
      <path class="cls-15" d="m37.26,148.61s2.73,4.86,2.93,4.99c.2.13,5.66-3.33,5.66-3.33l.67-2.4-2.6-1.53-6.66,2.26Z"/>
      <polygon class="cls-15" points="41.66 158.13 48.78 158.33 50.84 160.19 50.58 162.39 49.51 163.59 41.72 163.72 41.66 158.13"/>
      <polygon class="cls-15" points="92.49 285.36 91 292.98 92.82 294.97 95.3 294.39 97.13 287.76 92.49 285.36"/>
      <polygon class="cls-15" points="105.16 288.59 105.08 294.97 107.73 296.79 108.88 294.97 109.71 292.23 109.71 288.34 105.16 288.59"/>
      <path class="cls-15" d="m114.85,285.86l3.97,5.05s2.57,1.57,3.15,1.32,1.74-1.66,1.74-1.66l-.17-2.4-3.15-5.46-5.55,3.15Z"/>
      <path class="cls-15" d="m35.77,321.46l-2.07-7.29s2.82-1.99,3.15-1.99,2.07,1.16,2.07,1.16l2.57,7.04-5.71,1.08Z"/>
      <path class="cls-15" d="m26.91,328.67c.33,0,4.06-3.81,4.06-3.81l-5.8-4.64s-4.31.41-3.31,3.15c.99,2.73,5.05,5.3,5.05,5.3Z"/>
      <path class="cls-15" d="m25.25,333.72l-6.62-1.74s-2.4.75-1.66,3.31c.75,2.57,8.11,3.56,8.11,3.56l.17-5.13Z"/>
      <path class="cls-15" d="m239.35,351.77s2.6,7.65,3.91,7.89,3.99-3.01,3.99-3.01l-2.03-6.84-5.86,1.95Z"/>
      <path class="cls-15" d="m248.14,348.84c.24.24,3.91,5.05,5.29,4.8,1.38-.24,2.36-1.38,2.69-1.55.33-.16,1.06-3.01,1.06-3.01l-5.37-4.23-3.66,3.99Z"/>
      <path class="cls-15" d="m254.41,335.57l-1.22,4.8s6.92,2.28,8.14.98,1.79-2.69,1.38-3.34c-.41-.65-8.3-2.44-8.3-2.44Z"/>
      <g>
        <path class="cls-12" d="m167.16,150.04c-5.4,0-11.05-.31-16.91-.94-.82-.09-1.42-.83-1.33-1.65.09-.82.83-1.42,1.65-1.33,37.66,4.07,66.02-5.34,74.02-24.55,12.5-30.02-25.75-74.6-85.27-99.38C79.8-2.6,21.22,1.67,8.72,31.68.56,51.29,14.14,78.29,44.18,102.16c.65.52.76,1.46.24,2.11-.52.65-1.46.76-2.11.24C11.18,79.77-2.75,51.43,5.95,30.53,12.39,15.07,30.04,5.46,55.67,3.47c25.26-1.96,55.38,3.7,84.8,15.94,29.41,12.25,54.65,29.63,71.06,48.95,16.64,19.59,22.26,38.89,15.83,54.35-7.25,17.41-29.67,27.33-60.2,27.33Z"/>
        <path class="cls-12" d="m129.49,183.4c-.47,0-.93-.22-1.22-.63-.48-.68-.32-1.61.36-2.09.88-.62,1.42-2.09,1.55-2.61,4.41-16.43,12.57-24.98,20.46-33.26,7.96-8.34,15.47-16.22,19.42-31.77,3.79-14.89,1.72-29.99-5.81-42.52-7.91-13.15-21.34-22.61-37.83-26.62-14.56-3.54-30.78-3.41-44.52.37-.8.22-1.62-.25-1.84-1.05-.22-.8.25-1.62,1.05-1.84,14.21-3.91,30.99-4.05,46.03-.39,17.27,4.2,31.36,14.14,39.69,27.99,7.95,13.22,10.13,29.13,6.15,44.8-4.15,16.32-12.29,24.85-20.16,33.11-7.98,8.37-15.52,16.28-19.73,31.95-.07.28-.79,2.92-2.72,4.29-.26.19-.57.28-.87.28Z"/>
        <path class="cls-12" d="m76.11,169.34c-.36,0-.72-.13-1.01-.39-.33-.3-33.01-30.44-33.73-77.26-.19-12.27,3.03-22.81,9.56-31.33.5-.66,1.45-.78,2.1-.28.66.5.78,1.45.28,2.1-6.11,7.97-9.11,17.88-8.94,29.46.7,45.48,32.42,74.8,32.74,75.09.61.56.66,1.5.1,2.12-.3.33-.7.49-1.11.49Z"/>
        <path class="cls-12" d="m185.55,47.72c-.74,0-1.38-.54-1.48-1.29-2.06-14.64-15.67-29.76-33.88-37.63-18.35-7.93-37.94-7.74-49.9.5-.68.47-1.62.3-2.09-.38-.47-.68-.3-1.62.38-2.09,12.8-8.81,33.52-9.12,52.79-.79,19.12,8.27,33.45,24.33,35.66,39.96.12.82-.46,1.58-1.28,1.69-.07,0-.14.01-.21.01Z"/>
        <path class="cls-12" d="m71.25,80.14c-11.32,0-20.53-9.21-20.53-20.53s9.21-20.53,20.53-20.53,20.53,9.21,20.53,20.53-9.21,20.53-20.53,20.53Zm0-38.06c-9.67,0-17.53,7.86-17.53,17.53s7.86,17.53,17.53,17.53,17.53-7.86,17.53-17.53-7.86-17.53-17.53-17.53Z"/>
        <g>
          <circle class="cls-12" cx="75.17" cy="59.61" r="9.56" transform="translate(-14.26 94.33) rotate(-59.63)"/>
          <g>
            <path class="cls-12" d="m85.71,70.42c2.81-2.74,4.57-6.57,4.57-10.81,0-8.34-6.76-15.11-15.11-15.11s-15.11,6.76-15.11,15.11c0,.05,0,.1,0,.15h14.98l10.66,10.66Z"/>
            <path class="cls-12" d="m73.8,62.76l7.36,7.36c-1.81,1.04-3.87,1.59-6,1.59-5.56,0-10.29-3.81-11.68-8.96h10.32m1.24-3h-14.98c.08,8.27,6.81,14.96,15.1,14.96,4.1,0,7.82-1.64,10.54-4.3l-10.66-10.66h0Z"/>
          </g>
          <path class="cls-4" d="m78.44,54.48c0,2.39-1.94,4.34-4.34,4.34s-4.34-1.94-4.34-4.34,1.94-4.34,4.34-4.34,4.34,1.94,4.34,4.34Z"/>
          <circle class="cls-4" cx="77.78" cy="62.49" r="2.45"/>
        </g>
        <path class="cls-12" d="m123.4,77.12c-.75,0-1.4-.56-1.49-1.33-.79-6.88-6.61-12.07-13.55-12.07-3,0-5.85.96-8.24,2.77-.66.5-1.6.37-2.1-.29-.5-.66-.37-1.6.29-2.1,2.91-2.21,6.39-3.38,10.05-3.38,8.46,0,15.57,6.33,16.53,14.73.09.82-.5,1.57-1.32,1.66-.06,0-.12,0-.17,0Z"/>
        <path class="cls-12" d="m102.66,74.84c0,1.93-1.57,3.5-3.5,3.5s-3.5-1.57-3.5-3.5,1.57-3.5,3.5-3.5,3.5,1.57,3.5,3.5Z"/>
        <path class="cls-12" d="m118.02,79.26c0,1.93-1.57,3.5-3.5,3.5s-3.5-1.57-3.5-3.5,1.57-3.5,3.5-3.5,3.5,1.57,3.5,3.5Z"/>
        <path class="cls-12" d="m163.96,96.58c-.34,0-.68-.12-.96-.35-6.76-5.68-16.1-1.36-16.19-1.32-.54.26-1.19.17-1.64-.24-.45-.4-.62-1.03-.42-1.6,4.64-13.58,20.28-10.45,20.44-10.41.81.17,1.33.97,1.16,1.78-.17.81-.97,1.34-1.78,1.16-.49-.1-10.68-2.1-15.52,5.39,3.93-1.01,10.44-1.62,15.88,2.95.63.53.72,1.48.18,2.11-.3.35-.72.54-1.15.54Z"/>
        <g>
          <path class="cls-12" d="m97.67,113.08c-16.66,0-28.19-6.95-33.37-20.11-.3-.77.08-1.64.85-1.94.77-.3,1.64.07,1.94.85,4.75,12.08,15.04,18.21,30.58,18.21s27.72-7.7,33.37-21.67c.31-.77,1.18-1.14,1.95-.83.77.31,1.14,1.18.83,1.95-6.14,15.18-18.97,23.55-36.15,23.55Z"/>
          <path class="cls-12" d="m102.9,143.69c-.4,0-.81,0-1.23-.03-6.19-.26-11.22-2.56-14.95-6.82-8.69-9.96-7.21-27.07-7.14-27.79.08-.83.8-1.44,1.63-1.35.82.08,1.43.81,1.35,1.63-.01.16-1.43,16.57,6.42,25.55,3.16,3.62,7.47,5.57,12.81,5.79,5.99.26,10.82-1.56,14.34-5.4,9.74-10.6,6.99-33.21,6.96-33.44-.1-.82.48-1.57,1.3-1.68.83-.11,1.57.48,1.68,1.3.12.98,2.96,24.21-7.72,35.85-3.9,4.25-9.09,6.4-15.45,6.4Z"/>
          <path class="cls-12" d="m96.76,142.12s-.06,0-.09,0c-.83-.05-1.45-.76-1.41-1.58.01-.21,1.57-21.52,28.37-26.85.81-.17,1.6.36,1.76,1.18.16.81-.37,1.6-1.18,1.76-24.45,4.87-25.91,23.31-25.96,24.09-.05.79-.71,1.41-1.5,1.41Z"/>
        </g>
        <path class="cls-12" d="m115.38,210.68c-1.28,0-2.58-.17-3.84-.53-6.47-1.82-10.29-7.74-10.21-15.83h0c.06-6.52,4.18-24.82,16.88-26.14,3.74-.39,6.98,1.38,9.36,5.11,4.94,7.74,5.19,22.45.52,30.26-2.66,4.45-7.63,7.12-12.71,7.12Zm-11.04-16.33c-.07,6.75,2.86,11.46,8.02,12.91,4.98,1.4,10.51-.81,13.16-5.25,4.03-6.74,3.79-20.42-.48-27.11-1.75-2.75-3.93-4-6.52-3.74-10.53,1.09-14.13,17.61-14.18,23.18h0Z"/>
        <path class="cls-12" d="m96.29,204.74c-2.38,0-4.95-.57-7.39-2.04-3.05-1.83-4.87-4.99-4.99-8.66-.14-4.24,2.01-8.32,5.75-10.91,7.32-5.07,14.21-.72,14.5-.53.7.45.89,1.38.44,2.08-.45.69-1.38.89-2.07.45-.23-.15-5.53-3.43-11.16.48-2.9,2.01-4.57,5.13-4.46,8.34.09,2.63,1.37,4.89,3.54,6.19,5.47,3.28,11,.79,12.39-.49.61-.56,1.56-.52,2.12.09.56.61.52,1.56-.09,2.12-1.68,1.54-4.91,2.89-8.57,2.89Z"/>
        <path class="cls-12" d="m77.81,212.02c-.3,0-.58-.01-.86-.04-5.59-.54-9.96-6.21-11.82-11.59-2.45-7.1-3.19-21.51,1.89-28.99,1.93-2.85,4.61-4.42,7.74-4.56,12.52-.57,15.76,17.19,15.89,17.95.14.82-.4,1.59-1.22,1.74-.82.14-1.59-.4-1.74-1.21-.03-.16-2.87-15.48-12.4-15.48-.13,0-.27,0-.4,0-2.21.1-3.97,1.16-5.39,3.25-4.3,6.33-3.78,19.82-1.53,26.33,1.83,5.29,5.64,9.23,9.27,9.58,3.38.33,6.76-2.26,9.79-7.48.42-.72,1.34-.96,2.05-.55.72.42.96,1.33.55,2.05-4.23,7.3-8.62,9.01-11.81,9.01Z"/>
        <path class="cls-12" d="m185.13,330.52c-35.37,0-42.8-40.99-45.32-76.76-2.68-38.16-12.61-51.33-12.71-51.46-.51-.65-.39-1.59.26-2.1.65-.51,1.59-.4,2.1.25.43.55,10.58,13.83,13.34,53.1,1.03,14.61,3.21,35.82,10.22,51.22,6.97,15.31,17.47,22.75,32.11,22.75.12,0,.24,0,.36,0,.72,0,1.37-.38,1.73-1.01.35-.62.35-1.32,0-1.94-4.5-7.8-16.44-28.5-21.13-51.48-7.44-36.45-19.48-67.89-35.77-93.44-.45-.7-.24-1.63.46-2.07.7-.44,1.62-.24,2.07.46,16.49,25.86,28.67,57.64,36.18,94.45,4.59,22.5,16.36,42.9,20.79,50.58.89,1.54.89,3.38,0,4.93-.89,1.56-2.5,2.5-4.31,2.52-.13,0-.26,0-.38,0Z"/>
        <path class="cls-12" d="m104.64,289.63c-6.11,0-12.67-1.92-17.07-6.72-4.3-4.7-8.17-14.02-2.13-31.71,11.31-33.15,42.27-48.84,42.58-49,.74-.37,1.64-.07,2.01.68.37.74.07,1.64-.67,2.01-.3.15-30.17,15.33-41.07,47.28-4.41,12.91-3.89,22.84,1.5,28.72,5.25,5.73,14.22,6.67,20.79,5.05,6.27-1.54,11.31-6.05,12.82-11.48,1.23-4.43,0-8.77-3.46-12.24-.59-.59-.59-1.54,0-2.12.59-.59,1.54-.59,2.12,0,4.2,4.2,5.75,9.73,4.23,15.17-1.83,6.55-7.57,11.76-14.99,13.59-2.05.5-4.31.78-6.65.78Z"/>
        <path class="cls-12" d="m117.44,274.29s-.09,0-.13,0c-.83-.07-1.44-.79-1.37-1.62.07-.88,2.01-21.79,19.36-49.79.44-.7,1.36-.92,2.07-.49.7.44.92,1.36.49,2.07-16.94,27.33-18.9,48.25-18.92,48.46-.07.78-.72,1.37-1.49,1.37Z"/>
        <path class="cls-12" d="m144.68,334.34c-4.91,0-10.13-.43-15.41-1.47-19.44-3.82-35.23-14.99-45.67-32.28-27.07-44.85-12.72-90.16-12.57-90.61.26-.79,1.11-1.21,1.89-.96.79.26,1.22,1.1.96,1.89-.14.44-14.05,44.49,12.29,88.13,10.13,16.79,24.83,27.18,43.68,30.88,20.13,3.96,38.01-1.32,41.73-4.09.67-.49,1.6-.36,2.1.31.49.66.36,1.6-.31,2.1-3.73,2.77-15.04,6.09-28.69,6.09Z"/>
        <path class="cls-12" d="m189.25,324.4c-.63,0-1.22-.4-1.42-1.03-.26-.79.17-1.63.96-1.89,19.47-6.42,34.5-20.49,41.23-38.59,7.11-19.12,4.09-41.21-8.5-62.2-26.06-43.43-61.32-51.57-71.62-50.96-8.27.46-13.88-2-14.11-2.1-.76-.34-1.09-1.22-.76-1.98.34-.75,1.22-1.09,1.98-.76h0c.05.02,5.23,2.27,12.72,1.85,10.77-.58,47.55,7.71,74.37,52.42,13.07,21.78,16.18,44.79,8.74,64.79-7.04,18.96-22.75,33.68-43.1,40.39-.16.05-.31.08-.47.08Z"/>
        <path class="cls-12" d="m210.36,295.79c-.14,0-.29-.02-.43-.06-.79-.24-1.25-1.07-1.01-1.87,10.01-33.74-1.79-61.27-13.46-78.42-12.71-18.69-28.03-29.5-28.18-29.61-.68-.47-.85-1.41-.37-2.09.47-.68,1.41-.85,2.09-.37.64.45,15.86,11.18,28.89,30.3,12.06,17.71,24.27,46.14,13.91,81.05-.19.65-.79,1.07-1.44,1.07Z"/>
        <path class="cls-12" d="m59.53,186.6c-6.56,0-18.24-1.85-23.69-14.12-.34-.76,0-1.64.76-1.98.76-.34,1.64,0,1.98.76,6.8,15.29,24.35,12.19,25.1,12.05.8-.15,1.6.38,1.75,1.2.15.81-.38,1.6-1.19,1.75-.06.01-1.92.35-4.71.35Z"/>
        <path class="cls-12" d="m52.27,210.73c-10.07,0-22.82-2.06-34.74-9.21-9.78-5.87-15.91-14.87-17.25-25.34-1.27-9.95,1.86-20.13,8.18-26.57,6.16-6.28,14.86-8.28,22.7-5.22,7.15,2.79,11.92,9.21,12.15,16.37.42,13.07-11.43,13.99-11.55,14-.81.05-1.54-.57-1.59-1.4-.05-.83.57-1.54,1.4-1.59.39-.03,9.07-.78,8.75-10.91-.19-5.95-4.21-11.32-10.24-13.67-6.8-2.65-14.08-.96-19.47,4.53-5.6,5.71-8.49,15.16-7.35,24.09.86,6.75,4.31,16.25,15.81,23.15,20.93,12.56,45.15,8.58,49.78,6.39.75-.36,1.64-.03,2,.71.35.75.04,1.64-.71,2-2.39,1.13-9.11,2.69-17.86,2.69Z"/>
        <path class="cls-12" d="m206.19,363.74c-4.15,0-8.78-.73-13.85-2.54-23.04-8.23-29.71-29.14-29.98-30.02-.24-.79.2-1.63.99-1.87.79-.24,1.63.2,1.88.99.06.2,6.54,20.37,28.12,28.08,13.96,4.99,24.16,1.12,30.25-3,8.98-6.07,14.08-15.95,14.32-22.16.03-.83.75-1.48,1.56-1.44.83.03,1.47.73,1.44,1.56-.27,6.95-5.84,17.91-15.64,24.53-4.43,3-10.84,5.88-19.1,5.88Z"/>
        <path class="cls-12" d="m215.91,332.7c-.62,0-1.21-.39-1.42-1.01-2.41-7.01-9.33-15.11-9.4-15.19-.54-.63-.47-1.58.16-2.12.63-.54,1.58-.47,2.12.16.3.35,7.37,8.61,9.97,16.17.27.78-.15,1.64-.93,1.91-.16.05-.33.08-.49.08Z"/>
        <path class="cls-12" d="m236.98,353.32c-1.7,0-3.45-.19-5.25-.59-.81-.18-1.32-.98-1.14-1.79s.98-1.32,1.79-1.14c8.05,1.79,15.12-1.16,18.45-7.69,3.39-6.66,2.59-17.12-6.85-25.46-16.59-14.65-28.78-6.69-29.29-6.34-.68.46-1.62.29-2.08-.39-.47-.68-.3-1.61.38-2.08.14-.1,14.55-9.7,32.97,6.57,10.65,9.4,11.46,21.37,7.54,29.07-3.22,6.32-9.3,9.85-16.52,9.85Z"/>
        <path class="cls-12" d="m50.35,323.01c-.29,0-.59-.09-.85-.26-.68-.47-.86-1.4-.39-2.08,16.59-24.18,38.4-17.02,38.62-16.94.78.27,1.2,1.12.93,1.91-.27.78-1.12,1.2-1.9.93-.83-.28-19.92-6.43-35.17,15.8-.29.42-.76.65-1.24.65Z"/>
        <path class="cls-12" d="m57.19,368.56c-1.78,0-3.62-.2-5.55-.62-12.61-2.77-24.68-13.85-27.48-25.23-1.78-7.24.38-13.86,6.08-18.66,15.52-13.05,30.07,2.75,30.21,2.91.55.62.5,1.56-.11,2.12-.62.55-1.56.5-2.12-.11h0c-.52-.57-12.76-13.79-26.05-2.62-6.13,5.15-6.16,11.35-5.1,15.64,2.55,10.36,13.63,20.47,25.21,23.02,13.03,2.85,22.36-6.38,31.39-15.32,3.38-3.35,6.88-6.81,10.5-9.54,13.34-10.06,29.23-11.43,29.91-11.48.81-.06,1.55.55,1.61,1.38.07.83-.55,1.55-1.38,1.61-.16.01-15.71,1.36-28.34,10.88-3.46,2.61-6.73,5.85-10.2,9.28-8.33,8.25-16.91,16.74-28.59,16.74Z"/>
        <path class="cls-12" d="m34.63,322.87l-2.08-6.46c-.34-1.07-.25-2.2.26-3.2.51-1,1.38-1.73,2.45-2.08,1.07-.34,2.2-.25,3.2.26,1,.51,1.74,1.38,2.08,2.45l2.08,6.46-2.86.92-2.08-6.46c-.1-.3-.31-.55-.59-.7-.28-.15-.61-.17-.91-.07-.3.1-.55.31-.7.59-.15.28-.17.61-.07.91l2.08,6.46-2.86.92Z"/>
        <path class="cls-12" d="m26.35,329.72l-4.68-4.2c-.84-.79-1.31-1.83-1.35-2.95-.04-1.12.37-2.19,1.13-3,.77-.82,1.8-1.29,2.92-1.32,1.12-.05,2.19.37,3,1.13l4.62,4.16-2.01,2.23-4.64-4.18c-.25-.24-.55-.35-.88-.34-.32,0-.61.14-.83.38-.22.23-.33.54-.32.86.01.32.14.61.38.83l4.65,4.18-2.01,2.23Z"/>
        <path class="cls-12" d="m24.39,340.29l-6.37-1.65c-2.24-.59-3.59-2.88-3-5.12.58-2.24,2.88-3.58,5.12-3l6.22,1.66-.77,2.9-6.21-1.65c-.63-.16-1.28.22-1.45.86-.17.64.22,1.29.86,1.46l6.36,1.65-.75,2.9Z"/>
        <path class="cls-12" d="m244.04,360.76c-1.81,0-3.41-1.15-3.98-2.87l-1.91-5.78,2.85-.94,1.9,5.77c.2.6.89.96,1.51.75.3-.1.54-.31.69-.6.14-.29.17-.61.06-.91l-1.75-5.33,2.85-.94,1.75,5.32c.35,1.06.27,2.19-.23,3.2-.5,1-1.36,1.75-2.42,2.1-.43.14-.88.22-1.33.22Z"/>
        <path class="cls-12" d="m254.25,354.53c-1.12,0-2.17-.44-2.97-1.23l-4.13-4.3,2.17-2.08,4.11,4.28c.41.41,1.21.43,1.67-.02.23-.23.35-.53.35-.84s-.12-.62-.35-.84l-4.35-4.2,2.08-2.16,4.37,4.22c.81.81,1.25,1.86,1.25,2.99s-.44,2.17-1.23,2.97c-.79.79-1.85,1.23-2.96,1.23Z"/>
        <path class="cls-12" d="m259.95,343.23c-.37,0-.74-.05-1.1-.15l-5.07-1.38c-.8-.22-1.27-1.04-1.05-1.84.22-.8,1.05-1.27,1.84-1.05l5.07,1.38c.63.17,1.39-.18,1.5-1.02.07-.57-.37-1.15-1.01-1.33l-5.83-1.51c-.8-.21-1.28-1.03-1.08-1.83.21-.8,1.03-1.28,1.83-1.08l5.84,1.52c2.11.57,3.48,2.55,3.21,4.61-.27,2.09-2.06,3.67-4.16,3.67Z"/>
        <path class="cls-12" d="m92.85,296.47c-.39,0-.78-.05-1.16-.16-2.23-.65-3.51-2.98-2.87-5.2l2.12-6.83,2.87.89-2.11,6.8c-.17.61.19,1.27.82,1.45.62.17,1.3-.2,1.48-.82l1.82-6.23,2.88.84-1.82,6.23c-.52,1.78-2.17,3.03-4.03,3.03Z"/>
        <path class="cls-12" d="m107.24,298.14c-2.31,0-4.19-1.88-4.19-4.19v-5.18h3v5.18c0,.66.54,1.19,1.19,1.19s1.19-.54,1.19-1.19v-5.84s3,0,3,0v5.84c0,2.31-1.89,4.19-4.2,4.19Z"/>
        <path class="cls-12" d="m121.54,293.92c-1.42,0-2.73-.71-3.51-1.89l-3.34-5.22,2.53-1.62,3.33,5.2c.33.51,1.11.68,1.64.33.55-.36.71-1.1.34-1.65l-3.61-5.54,2.51-1.64,3.61,5.54c.61.93.83,2.05.6,3.15-.23,1.1-.87,2.04-1.81,2.65-.68.45-1.48.69-2.3.69Z"/>
        <path class="cls-12" d="m34.96,147.75l-2.79-1.1,2.39-6.05c.24-.61-.06-1.31-.67-1.55-.61-.24-1.31.06-1.55.67l-2.39,6.05-2.79-1.1,2.39-6.05c.85-2.15,3.29-3.21,5.44-2.36,2.15.85,3.21,3.29,2.36,5.44l-2.39,6.05Z"/>
        <path class="cls-12" d="m40.56,155.53l-1.6-2.54,5.57-3.5c.27-.17.46-.43.53-.75.07-.31.02-.63-.15-.9-.17-.27-.44-.46-.75-.53-.31-.07-.63-.02-.9.15l-5.57,3.5-1.6-2.54,5.57-3.5c.95-.6,2.07-.79,3.16-.54,1.09.25,2.02.91,2.62,1.86.6.95.79,2.07.54,3.16-.25,1.09-.91,2.02-1.86,2.62l-5.57,3.5Z"/>
        <path class="cls-12" d="m42.03,165.51v-3l6.08-.16c.32,0,.62-.14.83-.37.22-.23.34-.54.33-.85-.02-.64-.56-1.16-1.22-1.16h-.02l-6.03.16-.08-3,6.05-.16s.05,0,.07,0c2.29,0,4.17,1.82,4.23,4.08.03,1.12-.38,2.18-1.15,3-.77.81-1.81,1.28-2.93,1.31l-6.16.16Z"/>
        <path class="cls-12" d="m139.57,334.15c-.22,0-.45-.05-.67-.16-13.57-6.76-24.34-19.07-32.03-36.58-.33-.76.01-1.64.77-1.98.76-.33,1.64.01,1.98.77,7.39,16.86,17.69,28.67,30.62,35.1.74.37,1.04,1.27.67,2.01-.26.53-.79.83-1.34.83Z"/>
        <path class="cls-12" d="m94.94,235.82c-.79,0-1.45-.61-1.5-1.41-1.07-17.79-.11-30.94-.1-31.07.06-.83.79-1.46,1.61-1.38.83.06,1.45.78,1.38,1.61,0,.13-.96,13.09.1,30.66.05.83-.58,1.54-1.41,1.59-.03,0-.06,0-.09,0Z"/>
        <path class="cls-12" d="m126.97,243c-.78,0-1.44-.6-1.49-1.39-.06-.83.56-1.54,1.39-1.6,4.09-.29,8.39-.6,12.89-.94.81-.06,1.55.56,1.61,1.38.06.83-.56,1.55-1.38,1.61-4.5.34-8.8.66-12.9.94-.04,0-.07,0-.11,0Z"/>
        <path class="cls-12" d="m68.95,246.12c-.81,0-1.48-.65-1.5-1.47-.02-.83.64-1.51,1.47-1.53.07,0,7.06-.17,20.09-.81.85-.03,1.53.6,1.57,1.42.04.83-.6,1.53-1.42,1.57-13.07.65-20.1.81-20.17.82h-.04Z"/>
        <path class="cls-12" d="m111.65,304.29c-15.79,0-25.64-1.94-25.8-1.97-.81-.16-1.34-.96-1.17-1.77.16-.81.95-1.34,1.77-1.17.25.05,25.86,5.08,60.88-1.36.82-.15,1.6.39,1.75,1.2.15.82-.39,1.6-1.2,1.75-13.82,2.54-26.21,3.32-36.22,3.32Z"/>
        <path class="cls-12" d="m190.45,50.67c-.39,0-.78-.15-1.07-.45-.58-.59-.57-1.54.02-2.12.24-.24,24.53-23.48,65.9-19.16.82.09,1.42.82,1.34,1.65-.09.82-.82,1.42-1.65,1.34-39.89-4.17-63.26,18.09-63.49,18.32-.29.28-.67.43-1.05.43Z"/>
        <path class="cls-12" d="m221.85,57.37c-1.81,0-3.73-.21-5.76-.65-8.13-1.78-14.22-6.78-17.15-14.07-2.99-7.45-2.06-16.23,2.42-22.92,3.33-4.96,8.43-8.15,14.35-8.98,7.37-1.03,15.21,1.6,22.05,7.4,11.14,9.44,19.23,11.05,19.31,11.06.59.11,1.06.56,1.19,1.15.13.59-.1,1.19-.59,1.54-3.66,2.63-6.9,6.16-10.32,9.9-7.04,7.67-14.28,15.56-25.5,15.56Zm-2.98-43.83c-.92,0-1.84.06-2.74.19-5.07.71-9.43,3.43-12.27,7.68-3.94,5.88-4.76,13.59-2.13,20.13,2.55,6.34,7.88,10.7,15.01,12.26,12.96,2.84,20.46-5.35,28.41-14.01,2.69-2.93,5.45-5.94,8.44-8.47-3.52-1.26-9.91-4.22-17.76-10.87-5.32-4.51-11.25-6.91-16.95-6.91Z"/>
        <path class="cls-12" d="m231.85,41.81c-.36,0-.72-.13-1.01-.39l-8.1-7.34c-.61-.56-.66-1.5-.1-2.12.56-.62,1.5-.66,2.12-.1l8.1,7.34c.61.56.66,1.5.1,2.12-.3.33-.7.49-1.11.49Z"/>
        <path class="cls-12" d="m215.12,36.11c-.06,0-.12,0-.17,0-.82-.1-1.41-.84-1.32-1.66l1.54-13.29c.1-.82.84-1.41,1.66-1.32.82.1,1.41.84,1.32,1.66l-1.54,13.29c-.09.76-.74,1.33-1.49,1.33Z"/>
        <path class="cls-12" d="m46.46,350.11c-.83,0-1.7-.14-2.59-.43-2.19-.72-4.25-2.27-5.8-4.36-1.56-2.09-2.44-4.51-2.5-6.81-.06-2.49.85-4.57,2.56-5.83,3.42-2.54,8.74-.96,12.12,3.6h0c3.38,4.56,3.35,10.11-.06,12.65-1.07.79-2.35,1.2-3.74,1.2Zm-4.58-15.63c-.74,0-1.41.19-1.96.6-.9.67-1.38,1.86-1.35,3.35.04,1.69.72,3.5,1.91,5.1,1.19,1.6,2.73,2.77,4.33,3.3,1.42.46,2.7.35,3.6-.32,2-1.48,1.74-5.35-.56-8.45-1.67-2.25-4.03-3.58-5.97-3.58Z"/>
        <path class="cls-12" d="m233.41,246.27s-.06,0-.08,0l-.23-.04c-7.04-1.32-12.98-6.38-15.53-13.2-6.23-16.71-15.16-27.86-21.55-34.27-3.56-3.58-6.3-7.85-8.12-12.71-.66-1.77-1.19-3.05-1.19-3.06-.1-.26.02-.55.27-.65.26-.1.55.02.65.27,0,0,.53,1.3,1.2,3.08,1.78,4.72,4.43,8.88,7.9,12.36,6.46,6.48,15.48,17.75,21.78,34.63,2.42,6.5,8.07,11.31,14.74,12.56l.25.04c.27.05.46.3.41.58-.04.24-.25.42-.49.42Z"/>
        <path class="cls-12" d="m209.07,313.2c-.08,0-.15-.02-.22-.05-3.71-1.85-6.31-4.36-7.83-6.13-1.6-1.86-2.06-4.43-1.19-6.73,1.01-2.69,2.7-5.77,5.01-9.15,3.15-4.62,6.97-9.03,11.35-13.1,9.94-9.26,18.65-16.76,18.73-16.83.21-.18.53-.16.71.05.18.21.16.52-.05.71-.09.07-8.77,7.56-18.7,16.81-4.32,4.03-8.09,8.38-11.2,12.93-2.27,3.32-3.91,6.32-4.9,8.94-.73,1.95-.35,4.14,1.02,5.72,1.47,1.7,3.96,4.11,7.52,5.89.25.12.35.42.22.67-.09.17-.26.28-.45.28Z"/>
        <path class="cls-12" d="m215.48,307.79c-.06,0-.13-.01-.19-.04-1.16-.48-2.39-1.22-3.65-2.21-2.42-1.89-2.9-5.47-1.07-7.97,1.03-1.41,2.28-3.04,3.71-4.85,1.24-1.56,2.65-2.99,4.21-4.25,5.44-4.41,14.44-11.75,14.44-11.75l.63.78s-9,7.34-14.44,11.75c-1.5,1.21-2.86,2.59-4.05,4.1-1.43,1.8-2.67,3.42-3.69,4.82-1.51,2.07-1.12,5.03.88,6.6,1.19.93,2.34,1.63,3.42,2.07.25.1.38.4.27.65-.08.19-.27.31-.46.31Z"/>
        <path class="cls-12" d="m162.26,183.22c-.7,0-1.41-.06-2.12-.19-3.85-.71-7.38-1.34-10.02-1.81-3.27-.58-6.06-2.7-7.46-5.69-1.9-4.05-3.05-7.48-3.06-7.52-.09-.26.05-.54.32-.63.26-.09.54.05.63.32.01.03,1.15,3.42,3.02,7.41,1.26,2.69,3.78,4.6,6.72,5.13,2.64.47,6.17,1.1,10.02,1.81,2.63.49,5.32-.03,7.57-1.46,2.59-1.65,4.43-3.48,5.47-5.43.13-.24.43-.34.68-.21.24.13.34.43.21.68-1.12,2.11-3.07,4.06-5.81,5.81-1.86,1.18-4,1.8-6.17,1.8Z"/>
        <path class="cls-12" d="m161.18,175.45c-.37,0-.75-.04-1.12-.12l-5.7-1.23c-1.62-.35-3.02-1.46-3.73-2.96l-1.28-2.7c-.12-.25-.01-.55.24-.67.25-.12.55-.01.67.24l1.28,2.7c.58,1.22,1.72,2.12,3.04,2.41l5.7,1.23c1.43.3,2.89-.12,3.93-1.16l1.69-1.69c.2-.2.51-.2.71,0s.2.51,0,.71l-1.69,1.69c-1,1-2.34,1.55-3.72,1.55Z"/>
        <path class="cls-12" d="m173.59,292.31c-.17,0-.34-.09-.44-.26-.13-.24-.05-.55.19-.68,18.33-10.24,30.38-23.87,37.27-33.51,4.28-6,5.35-13.75,2.85-20.75-5.37-15.01-12.49-24.67-17.52-30.13-3.62-3.93-8.54-6.46-13.86-7.12-22.55-2.82-39.08-.82-39.25-.8-.26.04-.52-.16-.56-.43-.03-.27.16-.52.43-.56.16-.02,16.81-2.03,39.5.8,5.56.69,10.7,3.34,14.48,7.44,5.09,5.53,12.3,15.31,17.73,30.48,2.61,7.3,1.5,15.4-2.97,21.66-6.94,9.72-19.1,23.48-37.59,33.8-.08.04-.16.06-.24.06Z"/>
        <path class="cls-12" d="m167.55,273.29c-.19,0-.37-.11-.46-.29-.11-.25,0-.55.25-.66,9.33-4.24,17.61-9.53,24.63-15.73,6.49-5.74,8.19-15.38,4.03-22.93-1.92-3.5-4.29-7.09-7.02-10.69-3.15-4.14-7.94-6.79-13.13-7.26-13.53-1.22-25.33.84-25.45.86-.27.04-.53-.13-.58-.4-.05-.27.13-.53.4-.58.12-.02,12.04-2.11,25.71-.87,5.47.5,10.52,3.28,13.84,7.65,2.76,3.63,5.16,7.27,7.1,10.81,4.38,7.96,2.59,18.12-4.25,24.16-7.09,6.26-15.46,11.61-24.88,15.89-.07.03-.14.05-.21.05Z"/>
      </g>
    </g>
  </g>
</svg>