<?xml version="1.0" encoding="UTF-8"?>
<svg id="Layer_2" data-name="Layer 2" xmlns="http://www.w3.org/2000/svg" viewBox="0 0 203.69 337.53">
  <defs>
    <style>
      .cls-1 {
        fill: #fbeb46;
      }

      .cls-2 {
        fill: #8b7919;
      }

      .cls-3 {
        fill: #bdd148;
      }

      .cls-4 {
        fill: #bd9e4f;
      }

      .cls-5 {
        fill: #1d1d1b;
      }

      .cls-6 {
        fill: #585856;
      }

      .cls-7 {
        fill: #53ae32;
      }

      .cls-8 {
        fill: #796e32;
      }
    </style>
  </defs>
  <g id="Layer_3" data-name="Layer 3">
    <g>
      <path class="cls-1" d="m1.35,62.97c.22-10.02,6.94-34.28,46.31-51.63C87.02-6.02,136.22-.27,172.22,19.46c36,19.73,30.19,48.86,27.97,58.3-2.22,9.44-20.82,37.61-61.86,45.9-41.04,8.29-75.33,2.12-96.17-8.08C21.3,105.38.75,90.47,1.35,62.97Z"/>
      <path class="cls-7" d="m9.71,25.41s7.59-6.21,10.79-12.18c3.2-5.96,11.29-8.02,14.35.65,3.06,8.67,5.09,17.6,1.03,26.66-4.06,9.06-9.22,8.54-14.49,5.49s-8.09-14.78-11.68-20.62Z"/>
      <path class="cls-3" d="m52.03,119.73s18.25,7.41,48.04,8.23c29.79.82,53.57-9.24,53.57-9.24l-19.08,24.54s-8.23-4.18-22.34-4.15c-14.11.04-17.53-.7-24.04,0-6.51.69-11.43,1.43-18.13,4.3l-18.02-21.42-.7-2.26h.7Z"/>
      <path class="cls-8" d="m44.47,169.46c6.86-11.67,20.06-29.8,40.57-30.09s34.75-1.96,46.9,3.27c12.15,5.23,29.94,21.98,39.8,53.72,9.85,31.73,7.28,59.25-2.34,78.09-9.63,18.84-28.89,31-48,31.65-19.11.65-37.4,3.77-60.33-5.76-22.93-9.53-30.91-31.53-33.39-45.75s-2.2-30.27.52-44.4c2.71-14.13,16.28-40.72,16.28-40.72Z"/>
      <path class="cls-3" d="m32.24,195.5s-12.56,35.74-4.31,60.42c0,0-16.38.64-18.89-15.63-2.52-16.27,23.2-44.8,23.2-44.8Z"/>
      <path class="cls-3" d="m171.74,196.35s19.97,18.22,22.69,36.93c2.71,18.71-10.92,21.72-18.54,21.92,0,0,7.69-29.04-4.15-58.84Z"/>
      <path class="cls-3" d="m98.95,308.13s.24,3.65,2.9,4.26c2.66.61,3.44-4.26,3.44-4.26h-6.34Z"/>
      <path class="cls-3" d="m121.4,306.09s-1.4,20.46-2.09,24.99c-.69,4.53,6.63,4.5,11.99,5.1,5.36.6,24.95,0,24.95,0,0,0,4.13.75,5.27-7.29,1.14-8.04-4.49-11.61-4.49-11.61l-2.43-1.7s.91-6.91.68-12.63c-.23-5.72-.62-9.35-.62-9.35,0,0-16.22,11.66-33.25,12.49Z"/>
      <path class="cls-3" d="m48.98,294.19s15.9,10.82,33.43,12.38c0,0-.46,5.8,1.74,14.8,2.2,9.01-.19,13.94-7.36,14.8-7.17.86-24.55,0-24.55,0,0,0-8.64,1.2-9.34-4.26-.7-5.46-1.15-12.86,6.58-16.54,0,0-2.73-11.39-.51-21.19Z"/>
      <g>
        <path class="cls-4" d="m55.41,239.98c5.01-4.66,5.55-10.57,5.55-10.57l2.51-27.94c.54-5.55-2.27-9.49-2.27-9.49l-10.42-12.79c-.87,1.78-1.61,3.43-2.18,4.86-1.03,2.56-1.97,5.04-2.84,7.46,1.5,1.92,3.06,3.9,4.2,5.31,3.04,3.76,3.04,8.78,3.04,8.78,0,0-.54,12.89-1.16,17.98-.62,5.09-3.41,8.08-3.41,8.08l-10.5,10.35c.35,3.86.92,7.61,1.67,11.29.18.87.37,1.72.56,2.58,5.69-6.1,12.53-13.36,15.25-15.89Z"/>
        <path class="cls-4" d="m51.83,223.58c.62-5.09,1.16-17.98,1.16-17.98,0,0,0-5.01-3.04-8.78-1.14-1.41-2.7-3.39-4.2-5.31-7.37,20.54-9.11,36.32-7.82,50.49l10.5-10.35s2.79-2.99,3.41-8.08Z"/>
        <path class="cls-4" d="m140.84,202.82c.72,8.15,2.51,26.86,2.51,26.86,0,0,.63,5.46,5.46,10.48,2.85,2.96,9.84,10.14,15.1,15.55.93-4.34,1.63-8.95,2.03-13.74l-9.87-10.13s-3.49-2.69-3.85-11.01c-.36-8.33-1.02-14.24-1.02-14.24,0,0,.03-5.91,3.08-9.67,1-1.23,2.61-3.1,4.33-5.07-1.52-4.25-3.23-8.38-5.1-12.31l-10.44,12.45s-2.94,2.68-2.23,10.83Z"/>
        <path class="cls-2" d="m148.81,240.16c-4.84-5.01-5.46-10.48-5.46-10.48,0,0-1.79-18.72-2.51-26.86-.72-8.15,2.23-10.83,2.23-10.83l10.44-12.45c-5.39-11.34-12.11-21-19.51-26.93-14.16-11.32-27.26-7.36-33.92-7.62-6.66-.26-18.55-1.57-28.35,5.74-8.22,6.13-16.41,19.2-20.94,28.46l10.42,12.79s2.81,3.94,2.27,9.49l-2.51,27.94s-.54,5.91-5.55,10.57c-2.72,2.53-9.56,9.78-15.25,15.89,3.96,17.51,11.3,30.6,24.76,38.45,14.11,8.23,39.72,8.62,55.63,6,15.91-2.62,29.56-10.05,36.61-24.43,2.7-5.49,5.08-12.4,6.75-20.19-5.26-5.4-12.25-12.59-15.1-15.55Zm-69.73-73.21c.37-1.75,1.27-7.53,1.27-7.53,0,0,.48-1.43,1.17-2.44.69-1.01,6.31-2.92,6.31-2.92l14.01-5.19,18.09,6.63s2.71.85,3.77,4.88c1.06,4.03.9,8.01.9,8.01,0,0,.27,3.18-2.65,4.46-2.92,1.27-17.62,6.16-17.62,6.16l-2.49.28-1.7-.22-17.35-5.62s-2.52-1.2-2.91-2.38-1.18-2.34-.81-4.09Zm-11.29,56.19l2.32-16.66s0-2.28,3.93-4.35c3.93-2.07,26.53-12.15,26.53-12.15l.64-.11h2.23l27.27,12.89s2.74.69,3.28,5.47,2.88,20.48,2.88,20.48c0,0,.5,4.07-3.17,5.86-3.67,1.79-27.55,11.6-27.55,11.6l-4.3,1.14-8.39-2.89-23.46-9.5s-1.96-.9-2.6-3.66c-.64-2.76.39-8.12.39-8.12Zm72.93,57.47l-2.69,5.62s-.9,1.59-5.04,2.6c-4.14,1.01-31.14,6.94-31.14,6.94l-32.95-7.21s-2.12-.58-3.66-3.5c-1.54-2.92-5.52-11.46-5.52-11.46,0,0-.74-3.71,2.28-5.73l2.07-1.22,37.57-8.09,39.64,8.78s2.12,1.22,2.76,4.19c.64,2.97-3.3,9.08-3.3,9.08Z"/>
        <path class="cls-4" d="m151.19,206.58s.66,5.91,1.02,14.24c.36,8.33,3.85,11.01,3.85,11.01l9.87,10.13c.76-9.13.45-18.94-1.46-28.78-1.39-7.18-3.39-14.42-5.87-21.34-1.72,1.96-3.34,3.84-4.33,5.07-3.04,3.76-3.08,9.67-3.08,9.67Z"/>
        <path class="cls-4" d="m82.8,173.42l17.35,5.62,1.7.22,2.49-.28s14.7-4.88,17.62-6.16c2.92-1.27,2.65-4.46,2.65-4.46,0,0,.16-3.98-.9-8.01-1.06-4.03-3.77-4.88-3.77-4.88l-18.09-6.63-14.01,5.19s-5.62,1.91-6.31,2.92c-.69,1.01-1.17,2.44-1.17,2.44,0,0-.9,5.78-1.27,7.53s.42,2.92.81,4.09,2.91,2.38,2.91,2.38Zm4.93-12.04c.27-2.28,1.59-3.4,3.61-4.4,2.02-1.01,10.46-3.06,10.46-3.06l11.13,3.32s3.56,1.8,3.29,5.52c-.27,3.71-1.91,4.67-3.71,5.31-1.8.64-10.03,2.98-10.03,2.98l-9.76-2.56s-3.02-.58-4.19-2.39c-1.17-1.8-.8-4.72-.8-4.72Z"/>
        <path class="cls-4" d="m92.72,168.49l9.76,2.56s8.22-2.34,10.03-2.98c1.8-.64,3.45-1.59,3.71-5.31.27-3.71-3.29-5.52-3.29-5.52l-11.13-3.32s-8.45,2.05-10.46,3.06c-2.02,1.01-3.34,2.12-3.61,4.4,0,0-.37,2.92.8,4.72,1.17,1.8,4.19,2.39,4.19,2.39Z"/>
        <path class="cls-4" d="m70,234.92l23.46,9.5,8.39,2.89,4.3-1.14s23.88-9.82,27.55-11.6c3.67-1.79,3.17-5.86,3.17-5.86,0,0-2.33-15.71-2.88-20.48s-3.28-5.47-3.28-5.47l-27.27-12.89h-2.23l-.64.11s-22.6,10.08-26.53,12.15c-3.93,2.07-3.93,4.35-3.93,4.35l-2.32,16.66s-1.02,5.36-.39,8.12c.64,2.76,2.6,3.66,2.6,3.66Zm9.5-13.21l1.54-11.04c.05-1.06.53-2.39,4.56-4.14,4.03-1.75,15.18-6.9,15.18-6.9l2.49.05,16.02,7.48s3.18.74,3.82,5.25c.64,4.51,1.49,12.2,1.49,12.2,0,0,.04,1.7-1.12,3.29-1.17,1.59-2.71,2.02-2.71,2.02l-17.96,7.75-1.25-.11-1.59-.16-18.25-7.8s-1.7-.9-2.23-2.71,0-5.2,0-5.2Z"/>
        <path class="cls-4" d="m81.73,229.61l18.25,7.8,1.59.16,1.25.11,17.96-7.75s1.54-.42,2.71-2.02c1.17-1.59,1.12-3.29,1.12-3.29,0,0-.86-7.69-1.49-12.2-.64-4.51-3.82-5.25-3.82-5.25l-16.02-7.48-2.49-.05s-11.14,5.15-15.18,6.9c-4.03,1.75-4.51,3.08-4.56,4.14l-1.54,11.04s-.53,3.4,0,5.2,2.23,2.71,2.23,2.71Z"/>
        <path class="cls-4" d="m141.27,267.34l-39.64-8.78-37.57,8.09-2.07,1.22c-3.02,2.02-2.28,5.73-2.28,5.73,0,0,3.98,8.54,5.52,11.46,1.54,2.92,3.66,3.5,3.66,3.5l32.95,7.21s27.01-5.93,31.14-6.94c4.14-1.01,5.04-2.6,5.04-2.6l2.69-5.62s3.94-6.11,3.3-9.08c-.64-2.97-2.76-4.19-2.76-4.19Zm-13.64,15.81c-1.27,2.23-2.28,2.44-3.66,3.13-1.38.69-15.28,2.92-15.28,2.92l-7.16,1.34-19.05-3.83s-3.34-.27-5.2-2.07c-1.86-1.8-2.84-4.6-2.48-7.47.27-2.13,1.42-3.67,4.55-4.31s22.58-4.09,22.58-4.09l23.69,4.41s3.13,1.63,3.18,4.66c.05,3.03.11,3.08-1.17,5.31Z"/>
        <path class="cls-4" d="m125.62,273.18l-23.69-4.41s-19.45,3.46-22.58,4.09-4.29,2.18-4.55,4.31c-.36,2.87.63,5.67,2.48,7.47,1.86,1.8,5.2,2.07,5.2,2.07l19.05,3.83,7.16-1.34s13.9-2.23,15.28-2.92c1.38-.69,2.39-.9,3.66-3.13,1.27-2.23,1.22-2.28,1.17-5.31-.05-3.03-3.18-4.66-3.18-4.66Z"/>
      </g>
      <g>
        <g>
          <g>
            <path class="cls-5" d="m101.85,308.61c-28.1,0-61.88-5.28-73.68-46.41-5.31-18.5-5.14-39.12.49-59.63,4.57-16.64,12.75-32.96,22.45-44.78,15.35-18.7,28.08-20.14,43.09-20.03,1.63,0,3.52.03,5.35.06l2.31.03c.75,0,1.34.62,1.33,1.37,0,.75-.64,1.35-1.37,1.33l-2.32-.03c-1.82-.02-3.71-.05-5.33-.06-14.78-.11-26.37,1.22-40.99,19.04-18.45,22.48-33.33,63.97-22.43,101.95,11.31,39.4,43.93,44.46,71.09,44.46.75,0,1.35.6,1.35,1.35s-.6,1.35-1.35,1.35Z"/>
            <path class="cls-5" d="m101.85,308.61c-.75,0-1.35-.6-1.35-1.35s.6-1.35,1.35-1.35c27.16,0,59.78-5.05,71.09-44.46,10.9-37.98-3.99-79.47-22.44-101.95-14.62-17.82-26.24-19.13-40.99-19.04-1.62,0-3.51.03-5.33.06l-2.32.03c-.78.03-1.36-.59-1.37-1.33,0-.75.59-1.36,1.33-1.37l2.32-.03c1.83-.02,3.73-.05,5.35-.06,15.01-.08,27.74,1.33,43.09,20.03,9.7,11.82,17.88,28.14,22.45,44.78,5.63,20.51,5.8,41.13.49,59.63-11.81,41.14-45.58,46.41-73.69,46.41Z"/>
          </g>
          <g>
            <path class="cls-5" d="m101.85,303.14c-23.79,0-52.38-4.93-62.36-43.38-9.47-36.47,2.9-75.18,19.36-97.36,13-17.52,23.79-18.87,36.55-18.76,1.39,0,3.02.03,4.58.06l1.89.03c.75,0,1.34.62,1.33,1.37,0,.74-.61,1.33-1.35,1.33h-.02l-1.89-.03c-1.56-.02-3.18-.05-4.56-.06-12.41-.1-22.09,1.14-34.37,17.67-15.55,20.96-28.11,59.65-18.91,95.07,9.52,36.65,36.93,41.36,59.75,41.36.75,0,1.35.6,1.35,1.35s-.6,1.35-1.35,1.35Z"/>
            <path class="cls-5" d="m101.85,303.14c-.75,0-1.35-.6-1.35-1.35s.6-1.35,1.35-1.35c22.82,0,50.23-4.7,59.75-41.36,9.2-35.42-3.36-74.11-18.91-95.07-12.27-16.53-21.96-17.77-34.37-17.67-1.38,0-3,.03-4.56.06l-1.89.03h-.02c-.74,0-1.34-.59-1.35-1.33,0-.75.59-1.36,1.33-1.37l1.89-.03c1.57-.02,3.19-.05,4.58-.06.34,0,.68,0,1.01,0,12.32,0,22.88,1.71,35.54,18.76,16.46,22.18,28.83,60.88,19.36,97.36-9.98,38.45-38.57,43.38-62.36,43.38Z"/>
          </g>
        </g>
        <path d="m104.25,311.61c-.15,0-.3-.02-.44-.07-.7-.24-1.08-1.01-.83-1.72l1.04-3c.24-.7,1.01-1.08,1.72-.83.7.24,1.08,1.01.84,1.72l-1.04,3c-.19.56-.72.91-1.28.91Z"/>
        <path d="m100.19,312.52c-.57,0-1.1-.37-1.29-.94l-1.25-3.91c-.23-.71.17-1.47.88-1.7.71-.23,1.47.17,1.7.88l1.25,3.91c.23.71-.17,1.47-.88,1.7-.14.04-.27.06-.41.06Z"/>
        <path d="m102.12,313.74c-1.92,0-3.48-1.56-3.48-3.48s1.56-3.48,3.48-3.48,3.48,1.56,3.48,3.48-1.56,3.48-3.48,3.48Zm0-4.26c-.43,0-.78.35-.78.78s.35.78.78.78.78-.35.78-.78-.35-.78-.78-.78Z"/>
        <g>
          <path class="cls-5" d="m101.85,129.32C45.69,129.32,0,100.31,0,64.66c0-11.11,4.49-22.06,12.98-31.66.49-.56,1.35-.61,1.91-.12.56.49.61,1.35.12,1.91-8.05,9.1-12.31,19.43-12.31,29.87,0,34.16,44.48,61.96,99.15,61.96s99.15-27.79,99.15-61.96S156.52,2.7,101.85,2.7c-23.7,0-46.64,5.32-64.6,14.99-.66.35-1.47.11-1.83-.55-.35-.66-.11-1.48.55-1.83C54.32,5.44,77.71,0,101.85,0c56.16,0,101.85,29.01,101.85,64.66s-45.69,64.66-101.85,64.66Z"/>
          <path class="cls-5" d="m162.74,54.52c-.75,0-1.35-.6-1.35-1.35,0-25.19-26.71-45.68-59.54-45.68s-59.54,20.49-59.54,45.68c0,.75-.6,1.35-1.35,1.35s-1.35-.6-1.35-1.35c0-26.67,27.92-48.38,62.24-48.38s62.24,21.7,62.24,48.38c0,.75-.6,1.35-1.35,1.35Z"/>
          <path class="cls-5" d="m162.74,53.62c-.25,0-.45-.2-.45-.45,0-19.02-23.06-34.95-53.63-37.07-.25-.02-.43-.23-.42-.48.02-.25.24-.43.48-.42,31.05,2.15,54.47,18.48,54.47,37.97,0,.25-.2.45-.45.45Z"/>
          <path class="cls-5" d="m40.95,53.62c-.25,0-.45-.2-.45-.45,0-19.5,23.42-35.82,54.47-37.97.25-.02.46.17.48.42.02.25-.17.46-.42.48-30.58,2.12-53.63,18.06-53.63,37.07,0,.25-.2.45-.45.45Z"/>
          <path class="cls-5" d="m101.85,99.16c-34.32,0-62.24-20.63-62.24-45.99,0-.75.6-1.35,1.35-1.35s1.35.6,1.35,1.35c0,23.87,26.71,43.29,59.54,43.29s59.54-19.42,59.54-43.29c0-.75.6-1.35,1.35-1.35s1.35.6,1.35,1.35c0,25.36-27.92,45.99-62.24,45.99Z"/>
          <path class="cls-5" d="m101.85,98.26c-.25,0-.45-.2-.45-.45V20.02c0-.25.2-.45.45-.45s.45.2.45.45v77.78c0,.25-.2.45-.45.45Z"/>
          <path class="cls-5" d="m101.85,11.33c-.25,0-.45-.2-.45-.45v-4.73c0-.25.2-.45.45-.45s.45.2.45.45v4.73c0,.25-.2.45-.45.45Z"/>
          <path class="cls-5" d="m101.85,20.39c-3.89,0-7.05-2.24-7.05-4.98s3.16-4.98,7.05-4.98,7.05,2.24,7.05,4.98-3.16,4.98-7.05,4.98Zm0-9.07c-3.39,0-6.15,1.83-6.15,4.08s2.76,4.08,6.15,4.08,6.15-1.83,6.15-4.08-2.76-4.08-6.15-4.08Z"/>
        </g>
        <g>
          <path d="m70.05,144.76c-.39,0-.78-.17-1.05-.5-1.77-2.2-4.22-5.03-6.82-8.03-4.51-5.2-9.62-11.1-12.93-15.71-.43-.61-.3-1.45.31-1.88.61-.43,1.45-.3,1.88.31,3.24,4.51,8.3,10.36,12.77,15.52,2.62,3.02,5.09,5.87,6.89,8.1.47.58.38,1.43-.2,1.9-.25.2-.55.3-.85.3Z"/>
          <path d="m133.85,144.61c-.3,0-.6-.1-.85-.3-.58-.47-.67-1.32-.2-1.9,5.43-6.72,12.92-16.15,17.77-22.88.44-.6,1.28-.74,1.88-.31.6.44.74,1.28.31,1.89-4.89,6.79-12.41,16.25-17.86,23-.27.33-.66.5-1.05.5Z"/>
        </g>
        <g>
          <g>
            <path d="m51.29,320.55c-.43,0-.85-.2-1.11-.58-.87-1.26-1.84-4.7-2.02-5.38,0-.04-.02-.07-.02-.11-1.24-6.7-1.38-13.78-.42-21.06.1-.74.78-1.26,1.52-1.16.74.1,1.26.78,1.16,1.52-.92,6.98-.79,13.76.38,20.16.41,1.5,1.18,3.85,1.62,4.5.42.61.27,1.45-.34,1.88-.23.16-.5.24-.77.24Z"/>
            <path d="m76.79,337.53h-27.83c-4.35,0-7.77-3.59-8.12-8.55-.47-6.54,2.63-12.13,8.31-14.96.67-.33,1.48-.06,1.81.61.33.67.06,1.48-.61,1.81-4.73,2.35-7.21,6.85-6.82,12.35.21,2.91,2,6.04,5.43,6.04h27.83c3.21,0,5.34-1.41,6.33-4.2.84-2.39.63-6.11-.77-13.27-.71-3.63-1.14-7.23-1.28-10.72-.03-.75.55-1.37,1.29-1.4.77-.06,1.37.55,1.4,1.29.14,3.35.55,6.82,1.23,10.32,1.52,7.79,1.71,11.77.67,14.7-1.37,3.87-4.52,6-8.87,6Z"/>
            <g>
              <path class="cls-6" d="m42.02,331.91h.87l-.76-2.29-.12-2.66c-1.34,0-2.43,1.09-2.43,2.43v.1c0,1.34,1.09,2.43,2.43,2.43Z"/>
              <path d="m42.9,333.26h-.87c-2.08,0-3.78-1.69-3.78-3.78v-.1c0-2.08,1.69-3.77,3.78-3.77.72,0,1.32.57,1.35,1.29l.11,2.47.7,2.11c.14.41.07.86-.19,1.21-.25.35-.66.56-1.09.56Z"/>
            </g>
          </g>
          <g>
            <path d="m152.41,320.55c-.27,0-.53-.08-.77-.24-.61-.42-.77-1.26-.34-1.88.44-.64,1.21-2.99,1.62-4.5,1.18-6.4,1.3-13.18.38-20.16-.1-.74.42-1.42,1.16-1.52.74-.09,1.42.42,1.52,1.16.96,7.28.82,14.37-.42,21.06,0,.04-.02.07-.02.11-.19.68-1.15,4.12-2.02,5.38-.26.38-.68.58-1.11.58Zm1.83-6.31h0,0Z"/>
            <path d="m154.74,337.53h-27.83c-4.35,0-7.5-2.13-8.87-6-1.03-2.92-.85-6.91.67-14.69.68-3.5,1.1-6.97,1.24-10.32.03-.74.63-1.35,1.4-1.29.74.03,1.32.66,1.29,1.4-.14,3.49-.57,7.09-1.28,10.72-1.4,7.17-1.62,10.89-.77,13.27.99,2.79,3.11,4.2,6.33,4.2h27.83c3.43,0,5.22-3.13,5.43-6.04.39-5.49-2.09-9.99-6.82-12.35-.67-.33-.94-1.14-.61-1.81.33-.67,1.14-.94,1.81-.61,5.67,2.83,8.78,8.42,8.31,14.96-.36,4.95-3.77,8.55-8.12,8.55Z"/>
            <g>
              <path class="cls-6" d="m161.67,331.91h-.87l.76-2.29.12-2.66c1.34,0,2.43,1.09,2.43,2.43v.1c0,1.34-1.09,2.43-2.43,2.43Z"/>
              <path d="m161.67,333.26h-.87c-.43,0-.84-.21-1.09-.56-.25-.35-.32-.8-.19-1.21l.7-2.11.11-2.47c.03-.72.63-1.29,1.35-1.29,2.08,0,3.78,1.69,3.78,3.77v.1c0,2.08-1.69,3.78-3.78,3.78Z"/>
            </g>
          </g>
        </g>
        <g>
          <g>
            <g>
              <polygon class="cls-6" points="21.37 255.42 21.01 261.04 22.81 261.96 24.69 260.74 25.31 256.05 21.37 255.42"/>
              <path d="m22.83,262.48l-2.3-1.18.41-6.41,4.86.78-.7,5.33-2.28,1.48Zm-1.36-1.71l1.31.67,1.49-.97.53-4.05-3.02-.48-.31,4.83Z"/>
            </g>
            <path d="m26.66,257.27c-.17,0-.34,0-.51,0-5.05-.16-12.32-2.81-16.19-9.73-2.96-5.29-4.7-14.72,3.8-29.58,5.08-8.89,11.15-17.28,18.02-24.94.5-.55,1.35-.6,1.91-.1.55.5.6,1.35.1,1.91-6.75,7.52-12.7,15.76-17.69,24.48-7.87,13.76-6.41,22.24-3.79,26.92,3.11,5.56,9.23,8.2,13.92,8.35.52.02,1.07,0,1.61-.04.73-.07,1.4.49,1.46,1.23.06.74-.49,1.4-1.23,1.46-.48.04-.95.06-1.42.06Z"/>
            <path d="m22.48,263.27c-.08,0-.16,0-.25,0-.91-.07-1.75-.48-2.35-1.17-.6-.69-.89-1.58-.83-2.49l.49-4.55,2.68.29-.48,4.5c0,.15.05.33.18.48.13.15.3.24.5.25.24.01.48-.09.63-.29.09-.11.14-.25.15-.39l.26-3.68,2.69.19-.26,3.69c-.05.67-.29,1.3-.69,1.83-.65.86-1.66,1.36-2.73,1.36Z"/>
          </g>
          <g>
            <g>
              <polygon class="cls-6" points="182.33 255.42 182.69 261.04 180.89 261.96 179 260.74 178.39 256.05 182.33 255.42"/>
              <path d="m180.86,262.48l-2.28-1.48-.7-5.33,4.86-.78.41,6.41-2.3,1.18Zm-1.44-2l1.49.97,1.31-.67-.31-4.83-3.02.48.53,4.05Z"/>
            </g>
            <path d="m177.03,257.27c-.47,0-.94-.02-1.41-.06-.74-.06-1.29-.72-1.23-1.46.06-.74.73-1.29,1.46-1.23.54.05,1.08.06,1.6.04,4.69-.15,10.81-2.79,13.92-8.35,2.62-4.68,4.08-13.15-3.79-26.92-4.91-8.59-10.76-16.71-17.38-24.14-.5-.56-.45-1.41.11-1.91.56-.5,1.41-.45,1.91.11,6.75,7.57,12.7,15.84,17.71,24.59,8.5,14.86,6.76,24.29,3.8,29.58-3.87,6.92-11.14,9.57-16.19,9.73-.17,0-.34,0-.52,0Z"/>
            <path d="m181.21,263.27c-1.07,0-2.08-.5-2.73-1.36-.4-.53-.64-1.16-.69-1.83l-.26-3.69,2.69-.19.26,3.69c.01.14.06.28.15.39.15.2.39.3.63.29.19-.01.37-.1.5-.25s.19-.33.18-.53l-.48-4.46,2.68-.29.48,4.5c.07.96-.22,1.84-.82,2.54-.6.69-1.43,1.11-2.35,1.17-.08,0-.16,0-.25,0Z"/>
          </g>
        </g>
        <g>
          <path d="m42.15,43.63c-.47,0-.93-.25-1.17-.68-.11-.2-11.61-19.86-31.02-16.21-.73.14-1.44-.35-1.58-1.08-.14-.73.35-1.44,1.08-1.58,21.32-4.01,33.74,17.31,33.86,17.52.37.65.14,1.47-.5,1.84-.21.12-.44.18-.67.18Z"/>
          <path d="m26.4,49.66c-6.12,0-9.97-7.54-13.43-14.31-1.64-3.21-3.34-6.52-5.16-8.88-.27-.35-.35-.8-.22-1.22.13-.41.45-.74.86-.88.11-.04,3.97-1.55,9.34-9.72,3.29-5,7.19-7.52,10.96-7.1,3.63.41,6.68,3.43,8.57,8.5,4.39,11.75,1.7,29.26-7.69,32.95-1.14.45-2.21.65-3.22.65Zm-15.51-23.54c1.6,2.36,3.06,5.22,4.48,8,4.52,8.85,7.89,14.49,13.26,12.37,7.92-3.11,10.04-19.08,6.15-29.49-1.5-4.02-3.81-6.48-6.35-6.77-2.72-.3-5.7,1.79-8.4,5.9-4.02,6.11-7.3,8.82-9.15,9.99Z"/>
          <path d="m21.39,35.65c-.24,0-.49-.06-.71-.2-.64-.39-.83-1.22-.44-1.86l4.06-6.61c.39-.64,1.22-.83,1.86-.44.64.39.83,1.22.44,1.86l-4.06,6.61c-.25.41-.7.64-1.15.64Z"/>
          <path d="m29.78,30.52c-.71,0-1.3-.55-1.35-1.26l-.77-11.96c-.05-.74.52-1.39,1.26-1.43.74-.04,1.39.52,1.43,1.26l.77,11.96c.05.74-.52,1.39-1.26,1.43-.03,0-.06,0-.09,0Z"/>
        </g>
        <path d="m101.85,302.69c-.5,0-.9-.4-.9-.9v-156.41c0-.5.4-.9.9-.9s.9.4.9.9v156.41c0,.5-.4.9-.9.9Z"/>
        <g>
          <path d="m84.14,301.22c-.15,0-.3-.04-.44-.12-12.87-7.25-30.85-37.04-28.54-77.97,1.87-33.23,12.4-64.92,25.6-77.05.37-.34.94-.31,1.27.05.34.37.31.94-.05,1.27-12.89,11.84-23.18,43.02-25.02,75.83-2.34,41.61,16.84,70.23,27.63,76.3.43.24.59.79.34,1.23-.17.29-.47.46-.78.46Z"/>
          <path d="m119.55,301.22c-.31,0-.62-.17-.78-.46-.24-.43-.09-.98.34-1.23,10.79-6.08,29.97-34.69,27.63-76.3-1.85-32.8-12.14-63.98-25.02-75.83-.37-.34-.39-.91-.05-1.27.34-.37.91-.39,1.27-.05,13.2,12.13,23.73,43.82,25.6,77.05,2.31,40.93-15.67,70.72-28.54,77.97-.14.08-.29.12-.44.12Z"/>
        </g>
        <path class="cls-5" d="m101.85,247.77c-.82,0-1.64-.16-2.42-.48l-28.97-11.99c-2.64-1.09-4.23-3.84-3.85-6.68l2.89-21.63h0c.29-2.15,1.63-3.98,3.6-4.89l26.08-12.14c1.7-.79,3.64-.79,5.33,0l26.08,12.14c1.97.91,3.31,2.74,3.6,4.89l2.89,21.63c.38,2.84-1.2,5.58-3.85,6.68l-28.97,11.99c-.78.32-1.6.48-2.42.48Zm-31.46-40.66l-2.89,21.63c-.32,2.43,1.03,4.79,3.3,5.73l28.97,11.99c1.34.55,2.81.55,4.15,0l28.97-11.99c2.27-.94,3.63-3.29,3.3-5.73l-2.89-21.63c-.25-1.84-1.4-3.41-3.09-4.2l-26.08-12.14c-1.45-.68-3.12-.68-4.57,0l-26.08,12.14c-1.69.78-2.84,2.35-3.09,4.2Z"/>
        <path class="cls-5" d="m101.85,238.04c-.84,0-1.67-.16-2.45-.49l-16.94-7.11c-2.62-1.1-4.19-3.84-3.82-6.66l1.58-11.97c.28-2.14,1.62-3.97,3.57-4.89l15.36-7.25c1.71-.81,3.68-.81,5.39,0l15.36,7.25c1.95.92,3.29,2.75,3.57,4.89l1.58,11.97c.37,2.82-1.2,5.56-3.82,6.66l-16.94,7.11c-.78.33-1.61.49-2.45.49Zm0-38.06c-.79,0-1.58.17-2.31.52l-15.36,7.25c-1.68.79-2.82,2.36-3.06,4.2h0l-1.58,11.97c-.32,2.42,1.03,4.76,3.28,5.71l16.94,7.11c1.33.56,2.86.56,4.19,0l16.94-7.11c2.25-.94,3.6-3.29,3.28-5.71l-1.58-11.97c-.24-1.84-1.39-3.4-3.06-4.2l-15.36-7.25c-.73-.35-1.52-.52-2.31-.52Zm-21.18,11.9h0,0Z"/>
        <g>
          <path class="cls-5" d="m163.34,255.63c-.12,0-.24-.05-.33-.14l-15.59-16.37c-2.6-2.73-4.22-6.3-4.58-10.05l-2.53-27.04c-.42-4.48.93-8.85,3.8-12.32l8.65-10.44c.16-.19.44-.22.63-.06.19.16.22.44.06.63l-8.65,10.44c-2.72,3.28-3.99,7.42-3.6,11.66l2.53,27.04c.33,3.55,1.87,6.93,4.33,9.51l15.59,16.37c.17.18.16.46-.02.64-.09.08-.2.12-.31.12Z"/>
          <path class="cls-5" d="m165.81,242.31c-.12,0-.23-.04-.32-.13l-8.81-8.93c-2.81-2.85-4.52-6.62-4.81-10.62l-1.09-15.11c-.3-4.19.96-8.31,3.55-11.61l3.29-4.18c.15-.2.44-.23.63-.08.2.15.23.44.08.63l-3.29,4.18c-2.45,3.13-3.65,7.03-3.36,10.99l1.09,15.11c.27,3.78,1.89,7.35,4.55,10.05l8.81,8.93c.17.18.17.46,0,.64-.09.09-.2.13-.32.13Z"/>
        </g>
        <g>
          <path class="cls-5" d="m40.92,255.63c-.11,0-.22-.04-.31-.12-.18-.17-.19-.46-.02-.64l15.59-16.37c2.46-2.58,4-5.96,4.33-9.51l2.53-27.04c.4-4.24-.88-8.38-3.6-11.66l-8.65-10.44c-.16-.19-.13-.48.06-.63.19-.16.47-.13.63.06l8.65,10.44c2.87,3.46,4.22,7.84,3.8,12.32l-2.53,27.04c-.35,3.75-1.98,7.32-4.58,10.05l-15.59,16.37c-.09.09-.21.14-.33.14Z"/>
          <path class="cls-5" d="m38.45,242.31c-.11,0-.23-.04-.32-.13-.18-.17-.18-.46,0-.64l8.81-8.93c2.66-2.7,4.28-6.27,4.55-10.05l1.09-15.11c.29-3.96-.91-7.87-3.36-10.99l-3.29-4.18c-.15-.2-.12-.48.08-.63.19-.15.48-.12.63.08l3.29,4.18c2.59,3.3,3.85,7.43,3.55,11.61l-1.09,15.11c-.29,3.99-2,7.76-4.81,10.62l-8.81,8.93c-.09.09-.2.13-.32.13Z"/>
        </g>
        <path class="cls-5" d="m101.85,296.22c-.47,0-.94-.05-1.4-.16l-31.21-7.08c-1.85-.42-3.4-1.64-4.25-3.34l-5.17-10.34c-.88-1.76-.9-3.78-.05-5.56.85-1.77,2.44-3.03,4.36-3.45l36.38-7.91c.88-.19,1.81-.19,2.69,0l36.38,7.91c1.92.42,3.51,1.67,4.36,3.45.85,1.77.83,3.8-.05,5.56l-5.17,10.34c-.85,1.7-2.4,2.92-4.25,3.34l-31.21,7.08c-.46.1-.93.16-1.4.16Zm0-37.08c-.39,0-.77.04-1.15.12l-36.38,7.91c-1.65.36-3.01,1.44-3.74,2.96-.73,1.52-.71,3.26.04,4.77h0l5.17,10.34c.73,1.46,2.06,2.5,3.65,2.86l31.21,7.08c.78.18,1.61.18,2.4,0l31.21-7.08c1.59-.36,2.92-1.4,3.65-2.86l5.17-10.34c.76-1.51.77-3.24.04-4.77-.73-1.52-2.09-2.6-3.74-2.96l-36.38-7.91c-.38-.08-.76-.12-1.15-.12Z"/>
        <path class="cls-5" d="m101.85,290.88c-.4,0-.8-.04-1.2-.12l-20.28-3.93c-1.78-.35-3.33-1.44-4.25-3.01l-1.12-1.91c-1.05-1.8-1.16-3.92-.29-5.82.87-1.9,2.54-3.2,4.59-3.59l21.39-3.98c.77-.14,1.54-.14,2.31,0l21.39,3.98c2.05.38,3.73,1.69,4.59,3.59.87,1.9.76,4.02-.29,5.82l-1.12,1.91c-.92,1.57-2.47,2.67-4.25,3.01l-20.28,3.93c-.4.08-.8.12-1.2.12Zm0-21.57c-.33,0-.66.03-.99.09l-21.39,3.98c-1.76.33-3.2,1.45-3.94,3.08-.74,1.63-.65,3.45.25,4.99h0s1.12,1.91,1.12,1.91c.79,1.34,2.12,2.29,3.65,2.58l20.28,3.93c.68.13,1.38.13,2.07,0l20.28-3.93c1.53-.3,2.86-1.24,3.65-2.58l1.12-1.91c.9-1.55,1-3.37.25-4.99-.74-1.63-2.18-2.75-3.94-3.08l-21.39-3.98c-.33-.06-.66-.09-.99-.09Z"/>
        <path class="cls-5" d="m101.85,179.72c-.66,0-1.31-.1-1.95-.31l-17.01-5.52c-2.98-.97-4.82-4.02-4.27-7.11l1.23-6.99h0c.39-2.21,1.94-4.07,4.05-4.84l15.78-5.78c1.4-.51,2.94-.51,4.35,0l15.78,5.78c2.11.77,3.66,2.63,4.05,4.84l1.23,6.99c.54,3.09-1.3,6.14-4.28,7.11l-17.01,5.52c-.64.21-1.29.31-1.95.31Zm-21.12-19.77l-1.23,6.99c-.46,2.65,1.11,5.27,3.67,6.1l17.01,5.52c1.09.35,2.25.35,3.34,0l17.01-5.52c2.56-.83,4.13-3.45,3.67-6.1l-1.23-6.99c-.33-1.9-1.67-3.49-3.48-4.15l-15.78-5.78c-1.2-.44-2.52-.44-3.73,0l-15.78,5.78c-1.81.66-3.14,2.25-3.48,4.15Z"/>
        <path class="cls-5" d="m101.85,171.26c-.58,0-1.16-.08-1.72-.24l-8.55-2.42c-3.16-.89-5.12-4.11-4.47-7.33h0c.45-2.25,2.09-4.08,4.27-4.77l8.55-2.73c1.26-.4,2.59-.4,3.85,0l8.55,2.73c2.18.7,3.82,2.53,4.27,4.77.65,3.22-1.32,6.44-4.47,7.33l-8.55,2.42c-.56.16-1.14.24-1.72.24Zm-13.86-9.81h0c-.55,2.76,1.13,5.52,3.84,6.29l8.55,2.42c.97.27,1.99.27,2.95,0l8.55-2.42c2.71-.77,4.39-3.53,3.84-6.29-.39-1.93-1.79-3.49-3.66-4.09l-8.55-2.73c-1.08-.35-2.22-.35-3.3,0l-8.55,2.73c-1.87.6-3.28,2.17-3.66,4.09Z"/>
      </g>
    </g>
  </g>
</svg>