<?xml version="1.0" encoding="UTF-8"?>
<svg id="Layer_2" data-name="Layer 2" xmlns="http://www.w3.org/2000/svg" viewBox="0 0 203.76 337.53">
  <defs>
    <style>
      .cls-1 {
        fill: #f4a173;
      }

      .cls-2 {
        fill: #f6c0d9;
      }

      .cls-3 {
        fill: #e55b78;
      }

      .cls-4 {
        fill: #e65c7a;
      }

      .cls-5 {
        fill: #ef8bb0;
      }

      .cls-6 {
        fill: #fff;
      }

      .cls-7 {
        fill: #fbeb46;
      }

      .cls-8 {
        fill: #ee80a8;
      }

      .cls-9 {
        fill: #946354;
      }

      .cls-10 {
        fill: #d19eab;
      }

      .cls-11 {
        fill: #e07751;
      }

      .cls-12 {
        fill: #1d1d1b;
      }

      .cls-13 {
        fill: #585856;
      }
    </style>
  </defs>
  <g id="Layer_3" data-name="Layer 3">
    <g>
      <path class="cls-7" d="m52.74,123.29s-18.19-22.12-9.63-57.92c8.56-35.8,53.85-40.36,75.89-35.13,22.04,5.23,47.64,21.05,44.68,53.57s-13.01,39.82-13.01,39.82c0,0,40.15-12.9,50.39-45.33,10.24-32.43-22.59-61.68-60.13-71.93C103.38-3.88,48.41-1.22,13.75,35.48c-34.58,36.62,7.47,79.51,38.99,87.81Z"/>
      <path class="cls-2" d="m41.05,78.3c.09-9.45,2.23-31.82,29.84-43.71s56.61-5.13,72.55,5.57c15.95,10.7,20.04,19.4,20.05,45.5.01,26.1-16.61,42.43-21.15,47.8-4.54,5.37-10.99,10.68-13.77,17.89,0,0-5.2,2.4-10.52,4.69-6.04,2.6-7.31,9.26-7.31,9.26,0,0-1.45-2.78-8.59-3.13-7.14-.35-8.01,3.57-8.01,3.57,0,0-.18-9.64-7.27-11-6.19-1.19-11.14-3.39-11.14-3.39,0,0-4.94-9.86-14.86-19.21-9.93-9.35-20.07-30.52-19.83-53.84Z"/>
      <path class="cls-2" d="m66.21,167.39s-15.79,7.58-33.94,27.46c-18.15,19.89-22.07,34.29-23.08,43.36-1.01,9.07,6.14,16.65,18.03,17.09,11.89.44,16.91-7.21,17.87-13.66.96-6.46.87-10.15-2.1-14.7l7.58-16.14s6.88-30.11,15.64-43.41Z"/>
      <path class="cls-2" d="m138.45,167.39s11.81,21.04,14.87,41.8l8.02,17.18s-7.76,9.91,1.4,22.08,24.2,7.87,29.73-.88c5.53-8.75,1.28-21.7-6.02-33.36-7.3-11.66-23.11-32.41-48-46.82Z"/>
      <path class="cls-10" d="m68.68,165.74s3.92,7.02,12.34,14.86c8.97,8.36,12.9-1.83,12.9-1.83,0,0,3,2.24,8.25,2.03,5.25-.21,8.01-2.03,8.01-2.03,0,0,.89,10.07,8.5,2.43,6.35-6.37,7.91-12.59,15.47-17.4,0,0,13.89,16.69,19.17,48.63,5.28,31.94-.25,62.79-23.63,73.05-23.38,10.26-53.15,5.13-65.82-7.67-12.67-12.8-13.43-31.32-14.41-41.2-.98-9.88,1.64-30.74,6.88-47.66,5.24-16.93,12.34-23.21,12.34-23.21Z"/>
      <path class="cls-2" d="m49.99,315.27s-2.53-8.14-.36-23.51c2.17-15.37,7.1-22.47,7.1-22.47,0,0,4.74,8.61,15.02,14.86,10.28,6.25,13.53,5.01,13.53,5.01,0,0-4.5,8.14-2.27,23.7,2.22,15.55,4.32,15.99-.7,21.7-1.96,2.23-7.76,1.63-14.1,1.62-9.93-.01-21.21-.42-21.21-.42,0,0-6.9-2.45-3.52-12.32,2.58-7.05,6.5-8.17,6.5-8.17Z"/>
      <path class="cls-2" d="m119.91,288.99s10.19-1.92,17.23-7.91c7.05-5.99,10.45-12.4,10.45-12.4,0,0,4.83,8.92,6.96,22.22,2.13,13.3,1.3,15.82,0,23.78,0,0,7.2,3.45,7.28,12,.08,8.55-6.26,9.47-6.26,9.47l-30.23.1s-6.97-.93-6.3-9.99c.66-9.07,5.4-18.94.86-37.28Z"/>
      <path class="cls-1" d="m73.03,150.69s-5,8.14-4.82,15.89l-14.28,8.25s7.72-17.04,19.1-24.13Z"/>
      <path class="cls-11" d="m69.99,143.58l4.51,5.54s-14.28,9.2-20.58,25.71l-19.47,17.6s3.09-13.06,14.87-30.26c11.79-17.2,20.66-18.59,20.66-18.59Z"/>
      <path class="cls-1" d="m130.78,151.5s4.66,5.81,5.86,15.08l14.19,7.19s-10.04-18.58-20.05-22.27Z"/>
      <path class="cls-11" d="m130.12,149.63l4.32-6.75s10.94,5.5,20.56,19.28c9.61,13.78,15.52,30.96,15.52,30.96l-18.79-17.7s-6.99-16.28-21.61-25.79Z"/>
      <path class="cls-1" d="m50.31,211.35l-6.64,14.15s3.35,5.47,2.29,13.42c-1.06,7.95-7.1,12.59-7.1,12.59,0,0,5.12,21.92,12.74,29.51l5.14-11.73s-5.94-11.46-6.89-30.32c-.95-18.86.46-27.62.46-27.62Z"/>
      <path class="cls-11" d="m28.34,255.86l11.07-4.66s1.62,18.13,12.2,29.83l-2.34,11.98s-16.61-14.04-20.92-37.14Z"/>
      <path class="cls-1" d="m154.65,211.35l7.22,14.86s-4.74,5.49-3.37,13.19c1.37,7.69,6.48,11.65,6.48,11.65,0,0-1.1,7.55-5.27,18.81-4.17,11.26-7.01,11.16-7.01,11.16l-5.11-12.34s6.16-10.32,7.42-29.81c1.26-19.5-.37-27.51-.37-27.51Z"/>
      <path class="cls-11" d="m175.96,256.32s-2.92,12.56-9.24,23.48c-6.32,10.92-11.56,12.4-11.56,12.4l-2.45-11.17s8.1-9.6,12.84-29.83c0,0,4.89,4.77,10.41,5.13Z"/>
      <path class="cls-1" d="m85.29,289.16s8.1,2.05,15.99,1.76c7.89-.29,18.64-1.94,18.64-1.94l1.77,10.71s-17.2,4.87-38.67,0l2.27-10.53Z"/>
      <polygon class="cls-11" points="83.01 306.69 83.01 300.24 98.73 301.79 99.8 308.29 83.01 306.69"/>
      <polygon class="cls-11" points="106.19 301.79 104.54 308.29 121.82 306.14 121.4 300.23 106.19 301.79"/>
      <polygon class="cls-2" points="97.94 302.47 100.33 310.2 102.17 311.26 104.3 310.74 106.75 301.73 98.21 301.73 97.94 302.47"/>
      <g>
        <path class="cls-5" d="m124.34,150.4c-.11.25.23.45.39.22,2.47-3.56,8.21-12.06,13.97-22.04,4.8-8.33,10.6-17.93,6.76-18.8-2.66-.61-4.56,5.87-9.26,16.08-5.8,12.63-9.39,19-11.86,24.54Z"/>
        <path class="cls-5" d="m126.33,149.94c-.09.14.57.57.68.45,2.48-2.76,8.9-10.84,16.42-20.18,5.95-7.38,12.66-15.45,9.75-18.02-2.64-2.33-5.28,6.06-11.38,15.26-7.83,11.82-12.22,17.35-15.47,22.49Z"/>
      </g>
      <g>
        <path class="cls-5" d="m80.05,150.4c.11.25-.23.45-.39.22-2.47-3.56-8.21-12.06-13.97-22.04-4.8-8.33-10.6-17.93-6.76-18.8,2.66-.61,4.56,5.87,9.26,16.08,5.8,12.63,9.39,19,11.86,24.54Z"/>
        <path class="cls-5" d="m78.06,149.94c.09.14-.57.57-.68.45-2.48-2.76-8.9-10.84-16.42-20.18-5.94-7.38-12.66-15.45-9.75-18.02,2.64-2.33,5.28,6.06,11.38,15.26,7.83,11.82,12.22,17.35,15.47,22.49Z"/>
      </g>
      <path class="cls-8" d="m158.95,85.41c0,3.59-2.91,6.49-6.49,6.49s-6.49-2.91-6.49-6.49,2.91-6.49,6.49-6.49,6.49,2.91,6.49,6.49Z"/>
      <path class="cls-8" d="m57.81,85.41c0,3.59-2.91,6.49-6.49,6.49s-6.49-2.91-6.49-6.49,2.91-6.49,6.49-6.49,6.49,2.91,6.49,6.49Z"/>
      <g>
        <g>
          <g>
            <path class="cls-3" d="m171.22,18.85c.61-1.99,1.2-4.45,1.58-7.28.87-6.52-2.58-12.66-6.92-8.04-1.78,1.9-1.59,6.55-1.33,8.88.13,1.13.29,2.16.49,3.11"/>
            <path d="m172.52,19.24l-2.58-.79c.7-2.28,1.21-4.66,1.54-7.07.53-3.93-.67-7.32-2.13-8.01-.84-.4-1.81.36-2.47,1.07-1.01,1.07-1.39,4.14-.97,7.8.12,1.04.28,2.05.47,2.99l-2.65.54c-.21-1.03-.38-2.11-.51-3.23-.31-2.72-.5-7.62,1.68-9.95,2.44-2.6,4.56-2.16,5.6-1.66,2.73,1.3,4.3,5.94,3.64,10.8-.34,2.56-.89,5.08-1.63,7.5Z"/>
          </g>
          <g>
            <path class="cls-3" d="m180.62,25.73c1.26-3.03,1.26-7.86-1.12-11.94-1.51-2.6-3.8-.81-4.89.39-1.4,1.53-2.38,3.33-3.07,5.06"/>
            <path d="m181.87,26.25l-2.49-1.03c1.04-2.52,1.16-6.96-1.04-10.75-.17-.29-.42-.63-.71-.66-.45-.06-1.27.47-2.02,1.28-1.13,1.24-2.07,2.8-2.81,4.65l-2.51-1c.86-2.15,1.97-3.99,3.32-5.47.81-.89,2.43-2.34,4.3-2.15.78.08,1.89.49,2.76,1.99,2.68,4.6,2.54,9.92,1.2,13.14Z"/>
          </g>
        </g>
        <g>
          <g>
            <path d="m98.45,308.58h-.02c-5.85-.1-11.06-.46-15.91-1.11-.74-.1-1.26-.78-1.16-1.52.1-.74.78-1.25,1.52-1.16,4.75.63,9.85.99,15.6,1.09.75.01,1.34.63,1.33,1.37-.01.74-.61,1.33-1.35,1.33Z"/>
            <path d="m49.01,294.35c-.3,0-.6-.1-.84-.3-9.34-7.51-16.06-18.22-19.97-31.85-.54-1.89-1.03-3.82-1.46-5.74-.16-.73.3-1.45,1.02-1.61.73-.17,1.45.3,1.61,1.02.42,1.87.89,3.75,1.42,5.58,3.75,13.08,10.17,23.34,19.07,30.49.58.47.67,1.32.21,1.9-.27.33-.66.5-1.05.5Z"/>
            <path d="m32.92,194.99c-.15,0-.3-.02-.45-.08-.7-.25-1.07-1.02-.82-1.73,4.75-13.29,11.67-25.86,19.49-35.39,5.95-7.25,11.82-12.29,17.96-15.42.66-.33,1.48-.07,1.82.59.34.66.07,1.48-.59,1.82-5.8,2.95-11.39,7.77-17.1,14.72-7.63,9.3-14.39,21.58-19.03,34.59-.2.55-.72.9-1.27.9Z"/>
            <path d="m105.31,308.58c-.73,0-1.34-.59-1.35-1.33-.01-.75.58-1.36,1.33-1.37,5.78-.1,10.91-.46,15.66-1.09.74-.11,1.42.42,1.52,1.16.1.74-.42,1.42-1.16,1.52-4.86.65-10.09,1.02-15.98,1.12h-.02Z"/>
            <path d="m154.87,294.25c-.39,0-.78-.17-1.05-.5-.47-.58-.38-1.43.2-1.9,8.84-7.14,15.22-17.37,18.96-30.4.51-1.78.98-3.61,1.39-5.43.16-.73.88-1.18,1.61-1.02.73.16,1.19.89,1.02,1.61-.42,1.88-.9,3.76-1.43,5.59-3.89,13.57-10.57,24.25-19.85,31.75-.25.2-.55.3-.85.3Z"/>
            <path d="m170.66,194.48c-.55,0-1.07-.34-1.27-.89-4.64-12.81-11.33-24.92-18.85-34.08-5.68-6.92-11.24-11.72-17-14.67-.66-.34-.93-1.15-.59-1.82.34-.66,1.15-.93,1.82-.59,6.1,3.13,11.94,8.16,17.86,15.36,7.71,9.4,14.57,21.78,19.3,34.88.25.7-.11,1.48-.81,1.73-.15.06-.31.08-.46.08Z"/>
          </g>
          <g>
            <path d="m101.88,303.14c-7.42,0-13.77-.51-19.4-1.57-.73-.14-1.22-.84-1.08-1.58s.84-1.21,1.58-1.08c5.47,1.02,11.65,1.52,18.9,1.52.75,0,1.35.6,1.35,1.35s-.6,1.35-1.35,1.35Z"/>
            <path d="m51.4,283.51c-.4,0-.8-.18-1.07-.53-4.78-6.21-8.42-14.02-10.81-23.22-.68-2.62-1.26-5.31-1.73-8.02-.13-.73.36-1.43,1.1-1.56.74-.13,1.43.36,1.56,1.1.46,2.63,1.02,5.26,1.68,7.8,2.3,8.85,5.78,16.34,10.34,22.25.46.59.35,1.44-.24,1.89-.25.19-.54.28-.82.28Z"/>
            <path d="m52.16,177.08c-.21,0-.43-.05-.63-.16-.66-.35-.91-1.17-.56-1.82,2.47-4.68,5.14-8.95,7.92-12.7,4.86-6.55,9.65-11.16,14.66-14.11.64-.38,1.47-.16,1.85.48.38.64.16,1.47-.48,1.85-4.69,2.76-9.22,7.14-13.86,13.39-2.7,3.64-5.29,7.79-7.7,12.35-.24.46-.71.72-1.19.72Z"/>
            <path d="m101.88,303.14c-.75,0-1.35-.6-1.35-1.35s.6-1.35,1.35-1.35c7.28,0,13.49-.5,18.99-1.54.73-.14,1.44.34,1.58,1.08.14.73-.34,1.44-1.08,1.58-5.66,1.07-12.03,1.58-19.49,1.58Z"/>
            <path d="m152.43,283.42c-.29,0-.58-.09-.82-.28-.59-.45-.7-1.3-.25-1.89,4.53-5.9,7.99-13.36,10.27-22.17.69-2.65,1.27-5.38,1.74-8.11.12-.73.82-1.22,1.56-1.1.73.12,1.23.82,1.1,1.56-.48,2.81-1.08,5.61-1.79,8.34-2.38,9.16-5.99,16.94-10.75,23.13-.27.35-.67.53-1.07.53Z"/>
            <path d="m151.45,176.77c-.48,0-.95-.26-1.19-.72-2.36-4.44-4.9-8.49-7.54-12.05-4.55-6.13-8.99-10.46-13.58-13.22-.64-.38-.84-1.21-.46-1.85.39-.64,1.22-.84,1.85-.46,4.89,2.95,9.59,7.51,14.35,13.93,2.72,3.66,5.33,7.83,7.75,12.39.35.66.1,1.48-.56,1.83-.2.11-.42.16-.63.16Z"/>
          </g>
        </g>
        <path d="m104.01,310.48c-.12,0-.25-.02-.37-.05-.72-.2-1.13-.95-.93-1.67l2.09-7.35c.2-.72.95-1.13,1.67-.93.72.2,1.13.95.93,1.67l-2.09,7.35c-.17.59-.71.98-1.3.98Z"/>
        <path d="m99.75,310.48c-.59,0-1.13-.39-1.3-.98l-2.1-7.4c-.2-.72.21-1.46.93-1.67.71-.2,1.46.21,1.67.93l2.1,7.4c.2.72-.21,1.46-.93,1.67-.12.03-.25.05-.37.05Z"/>
        <path d="m101.88,312.61c-1.92,0-3.48-1.56-3.48-3.48,0-.75.6-1.35,1.35-1.35s1.35.6,1.35,1.35c0,.43.35.78.78.78s.78-.35.78-.78c0-.75.6-1.35,1.35-1.35s1.35.6,1.35,1.35c0,1.92-1.56,3.48-3.48,3.48Z"/>
        <path class="cls-12" d="m53.49,125.02c-.15,0-.3-.02-.45-.08C20.32,113.27,0,90.89,0,66.53,0,29.84,45.7,0,101.88,0s101.88,29.84,101.88,66.53c0,24.33-20.28,46.69-52.93,58.37-.7.25-1.47-.12-1.73-.82-.25-.7.11-1.47.82-1.73,31.54-11.28,51.13-32.68,51.13-55.83,0-35.19-44.49-63.83-99.18-63.83S2.7,31.33,2.7,66.53c0,23.19,19.64,44.59,51.24,55.87.7.25,1.07,1.02.82,1.73-.2.55-.72.9-1.27.9Z"/>
        <g>
          <path d="m75.47,152.17c-.45,0-.88-.22-1.14-.62-2.82-4.41-6.58-8.85-10.56-13.54-12.61-14.86-28.31-33.36-24.02-64.53,6.4-46.53,56.5-46.13,62.19-45.94.74.03,1.33.65,1.3,1.4-.03.74-.62,1.33-1.4,1.3-5.44-.19-53.34-.58-59.42,43.6-4.12,29.97,10.5,47.21,23.41,62.42,4.04,4.77,7.87,9.27,10.78,13.84.4.63.22,1.46-.41,1.86-.23.14-.48.21-.73.21Z"/>
          <path d="m128.23,152.27c-.25,0-.5-.07-.72-.21-.63-.4-.82-1.23-.42-1.86,2.92-4.61,6.78-9.14,10.85-13.95,12.9-15.21,27.52-32.44,23.41-62.42-6.07-44.18-53.98-43.8-59.42-43.6-.76.03-1.37-.56-1.4-1.3-.03-.75.56-1.37,1.3-1.4,5.7-.2,55.79-.59,62.19,45.94,4.28,31.17-11.41,49.67-24.02,64.53-4.01,4.73-7.81,9.2-10.63,13.65-.26.41-.69.63-1.14.63Z"/>
        </g>
        <g>
          <g>
            <circle class="cls-6" cx="59.13" cy="58.37" r="17.13" transform="translate(-7.96 107.38) rotate(-80.78)"/>
            <path d="m59.13,76.85c-10.19,0-18.48-8.29-18.48-18.48s8.29-18.48,18.48-18.48,18.48,8.29,18.48,18.48-8.29,18.48-18.48,18.48Zm0-34.25c-8.7,0-15.78,7.08-15.78,15.78s7.08,15.78,15.78,15.78,15.78-7.08,15.78-15.78-7.08-15.78-15.78-15.78Z"/>
            <path class="cls-9" d="m50.7,60.13l4.56.18,2.89,3.6,5.53,1.14,3.86.26s1.93,1.84,2.28,2.54.79,1.23.79,1.23c0,0-5.53,2.98-13.42-.18-7.89-3.16-6.49-8.77-6.49-8.77Z"/>
            <g>
              <circle cx="62.66" cy="58.37" r="8.6" transform="translate(-17.57 28.42) rotate(-22.5)"/>
              <g>
                <path d="m72.14,68.1c2.53-2.47,4.11-5.91,4.11-9.73,0-7.51-6.09-13.6-13.6-13.6s-13.6,6.09-13.6,13.6c0,.05,0,.09,0,.14h13.48l9.6,9.6Z"/>
                <path d="m61.43,61.2l6.63,6.63c-1.63.94-3.48,1.43-5.4,1.43-5.01,0-9.26-3.43-10.52-8.06h9.29m1.12-2.7h-13.48c.07,7.45,6.13,13.46,13.59,13.46,3.69,0,7.04-1.48,9.49-3.87l-9.6-9.6h0Z"/>
              </g>
              <circle class="cls-6" cx="61.7" cy="53.75" r="3.9"/>
              <path class="cls-6" d="m67.21,60.96c0,1.22-.99,2.21-2.21,2.21s-2.21-.99-2.21-2.21.99-2.21,2.21-2.21,2.21.99,2.21,2.21Z"/>
            </g>
          </g>
          <g>
            <circle class="cls-6" cx="144.64" cy="58.37" r="17.13" transform="translate(1.09 119.37) rotate(-45)"/>
            <path d="m144.64,76.85c-10.19,0-18.48-8.29-18.48-18.48s8.29-18.48,18.48-18.48,18.48,8.29,18.48,18.48-8.29,18.48-18.48,18.48Zm0-34.25c-8.7,0-15.78,7.08-15.78,15.78s7.08,15.78,15.78,15.78,15.78-7.08,15.78-15.78-7.08-15.78-15.78-15.78Z"/>
            <path class="cls-9" d="m153.07,60.13l-4.56.18-2.89,3.6-5.53,1.14-3.86.26s-1.93,1.84-2.28,2.54-.79,1.23-.79,1.23c0,0,5.53,2.98,13.42-.18,7.89-3.16,6.49-8.77,6.49-8.77Z"/>
            <g>
              <circle cx="141.11" cy="58.37" r="8.6" transform="translate(.06 116.87) rotate(-45)"/>
              <g>
                <path d="m131.62,68.1c-2.53-2.47-4.11-5.91-4.11-9.73,0-7.51,6.09-13.6,13.6-13.6s13.6,6.09,13.6,13.6c0,.05,0,.09,0,.14h-13.48l-9.6,9.6Z"/>
                <path d="m151.62,61.2c-1.26,4.63-5.51,8.06-10.52,8.06-1.92,0-3.77-.5-5.4-1.43l6.63-6.63h9.29m3.08-2.7h-13.48l-9.6,9.6c2.45,2.39,5.79,3.87,9.49,3.87,7.46,0,13.52-6.02,13.59-13.46h0Z"/>
              </g>
              <path class="cls-6" d="m138.16,53.75c0,2.15,1.75,3.9,3.9,3.9s3.9-1.75,3.9-3.9-1.75-3.9-3.9-3.9-3.9,1.75-3.9,3.9Z"/>
              <path class="cls-6" d="m136.55,60.96c0,1.22.99,2.21,2.21,2.21s2.21-.99,2.21-2.21-.99-2.21-2.21-2.21-2.21.99-2.21,2.21Z"/>
            </g>
          </g>
        </g>
        <path d="m116.47,63.18c-.52,0-1.02-.31-1.24-.82-1.87-4.34-7.26-7.26-13.41-7.26s-11.33,2.81-13.3,7c-.32.68-1.12.96-1.8.65-.68-.32-.97-1.12-.65-1.8,2.4-5.12,8.73-8.56,15.74-8.56s13.6,3.57,15.89,8.89c.29.68-.02,1.48-.71,1.77-.17.07-.36.11-.53.11Z"/>
        <g>
          <path d="m96.24,68.05c0,1.74-1.41,3.15-3.15,3.15s-3.15-1.41-3.15-3.15,1.41-3.15,3.15-3.15,3.15,1.41,3.15,3.15Z"/>
          <path d="m113.82,68.05c0,1.74-1.41,3.15-3.15,3.15s-3.15-1.41-3.15-3.15,1.41-3.15,3.15-3.15,3.15,1.41,3.15,3.15Z"/>
        </g>
        <path d="m102.21,95.09c-10.29,0-19.85-3.97-26.24-10.91-1.49-1.62-2.77-3.37-3.82-5.21-.37-.65-.14-1.47.51-1.84.65-.37,1.47-.14,1.84.51.94,1.67,2.11,3.25,3.46,4.72,5.87,6.38,14.71,10.03,24.25,10.03,11.34,0,21.72-5.26,27.09-13.72.4-.63,1.24-.82,1.86-.42.63.4.82,1.23.42,1.86-5.86,9.24-17.11,14.97-29.37,14.97Z"/>
        <g>
          <path d="m101.84,292.25c-17.47,0-30.33-4.44-39.31-13.59-10.38-10.56-15.22-27.19-14.8-50.85.72-40.52,18.55-62.05,19.31-62.95.48-.57,1.33-.64,1.9-.16.57.48.64,1.33.16,1.9-.18.21-17.97,21.76-18.67,61.25-.41,22.89,4.18,38.89,14.03,48.91,8.45,8.6,20.68,12.78,37.39,12.78.01,0,.05,0,.04,0,.75,0,1.35.6,1.35,1.35s-.6,1.35-1.35,1.35h-.04Z"/>
          <path d="m101.92,292.25c-.74,0-1.39-.59-1.39-1.35,0-.75.6-1.35,1.35-1.35,0,0,.03,0,.04,0,16.71,0,28.93-4.18,37.39-12.78,9.85-10.02,14.44-26.01,14.03-48.91-.7-39.49-18.49-61.04-18.67-61.25l-1.37-1.73c-.46-.58-.36-1.43.22-1.9.58-.46,1.43-.36,1.9.22l1.34,1.69c.73.86,18.57,22.4,19.28,62.91.42,23.65-4.42,40.28-14.8,50.85-8.99,9.14-21.85,13.59-39.31,13.59Z"/>
        </g>
        <g>
          <g>
            <path d="m49.49,315.58c-.64,0-1.21-.45-1.33-1.1-4.47-24.19,6.63-44.96,7.1-45.83.36-.66,1.18-.9,1.83-.54.65.36.9,1.18.54,1.83-.11.21-11.11,20.83-6.82,44.05.14.73-.35,1.44-1.08,1.57-.08.02-.17.02-.25.02Z"/>
            <path d="m76.83,337.53h-27.83c-4.35,0-7.77-3.59-8.12-8.55-.33-4.65,1.14-8.9,4.15-11.96,2.54-2.59,7.44-5.57,16.31-5.1,11.2.6,13.7,7.28,13.8,7.57.25.7-.12,1.47-.82,1.72-.7.25-1.47-.12-1.72-.82-.08-.2-2.1-5.28-11.4-5.77-6.23-.34-11.15,1.15-14.23,4.29-2.46,2.5-3.66,6.01-3.38,9.88.21,2.91,2,6.04,5.43,6.04h27.83c3.21,0,5.34-1.41,6.33-4.2.84-2.39.63-6.11-.77-13.27-3.4-17.41.7-27.88.88-28.32.28-.69,1.06-1.03,1.76-.75.69.28,1.02,1.06.75,1.76-.06.15-3.96,10.27-.73,26.79,1.52,7.79,1.7,11.77.67,14.69-1.37,3.87-4.52,6-8.87,6Z"/>
            <g>
              <path class="cls-13" d="m66.9,329.32c0,1.46-1.18,2.64-2.64,2.64s-2.64-1.18-2.64-2.64,1.18-2.64,2.64-2.64,2.64,1.18,2.64,2.64Z"/>
              <path d="m64.26,333.31c-2.2,0-3.99-1.79-3.99-3.99s1.79-3.99,3.99-3.99,3.99,1.79,3.99,3.99-1.79,3.99-3.99,3.99Zm0-5.28c-.71,0-1.29.58-1.29,1.29s.58,1.29,1.29,1.29,1.29-.58,1.29-1.29-.58-1.29-1.29-1.29Z"/>
            </g>
            <g>
              <path class="cls-13" d="m42.11,331.91h2.19c1.37,0,2.47-1.11,2.47-2.47h0c0-1.37-1.11-2.47-2.47-2.47h-2.19c-1.37,0-2.47,1.11-2.47,2.47h0c0,1.37,1.11,2.47,2.47,2.47Z"/>
              <path d="m44.35,333.26h-2.29c-2.08,0-3.77-1.69-3.77-3.78v-.1c0-2.08,1.69-3.77,3.77-3.77h2.29c2.08,0,3.78,1.69,3.78,3.77v.1c0,2.08-1.69,3.78-3.78,3.78Zm-2.29-4.95c-.59,0-1.07.48-1.07,1.07v.1c0,.59.48,1.08,1.07,1.08h2.29c.59,0,1.08-.48,1.08-1.08v-.1c0-.59-.48-1.07-1.08-1.07h-2.29Z"/>
            </g>
            <g>
              <path class="cls-13" d="m53.18,331.91h1.12c1.37,0,2.47-1.11,2.47-2.47h0c0-1.37-1.11-2.47-2.47-2.47h-1.12c-1.37,0-2.47,1.11-2.47,2.47h0c0,1.37,1.11,2.47,2.47,2.47Z"/>
              <path d="m54.35,333.26h-1.22c-2.08,0-3.78-1.69-3.78-3.78v-.1c0-2.08,1.69-3.77,3.78-3.77h1.22c2.08,0,3.78,1.69,3.78,3.77v.1c0,2.08-1.69,3.78-3.78,3.78Zm-1.22-4.95c-.59,0-1.08.48-1.08,1.07v.1c0,.59.48,1.08,1.08,1.08h1.22c.59,0,1.08-.48,1.08-1.08v-.1c0-.59-.48-1.07-1.08-1.07h-1.22Z"/>
            </g>
          </g>
          <g>
            <path d="m154.28,315.58c-.08,0-.16,0-.25-.02-.73-.14-1.22-.84-1.08-1.57,4.29-23.22-6.71-43.85-6.82-44.05-.36-.65-.11-1.47.54-1.83.65-.36,1.47-.11,1.83.54.47.87,11.57,21.64,7.1,45.83-.12.65-.69,1.1-1.33,1.1Z"/>
            <path d="m154.77,337.53h-27.83c-4.35,0-7.5-2.13-8.87-6-1.03-2.92-.85-6.91.67-14.69,3.24-16.56-.69-26.69-.73-26.79-.28-.69.06-1.48.75-1.75.69-.28,1.48.06,1.75.75.18.44,4.28,10.91.88,28.32-1.4,7.17-1.62,10.89-.77,13.27.99,2.79,3.11,4.2,6.33,4.2h27.83c3.43,0,5.22-3.13,5.43-6.04.28-3.87-.92-7.38-3.38-9.88-3.08-3.14-8.01-4.63-14.23-4.29-9.3.5-11.32,5.57-11.4,5.78-.26.69-1.03,1.05-1.73.8-.69-.25-1.06-1.02-.81-1.71.1-.28,2.6-6.97,13.8-7.57,8.88-.47,13.77,2.51,16.31,5.1,3.01,3.06,4.48,7.31,4.15,11.96-.36,4.95-3.77,8.55-8.12,8.55Z"/>
            <g>
              <path class="cls-13" d="m136.86,329.32c0,1.46,1.18,2.64,2.64,2.64s2.64-1.18,2.64-2.64-1.18-2.64-2.64-2.64-2.64,1.18-2.64,2.64Z"/>
              <path d="m139.5,333.31c-2.2,0-3.99-1.79-3.99-3.99s1.79-3.99,3.99-3.99,3.99,1.79,3.99,3.99-1.79,3.99-3.99,3.99Zm0-5.28c-.71,0-1.29.58-1.29,1.29s.58,1.29,1.29,1.29,1.29-.58,1.29-1.29-.58-1.29-1.29-1.29Z"/>
            </g>
            <g>
              <path class="cls-13" d="m161.66,331.91h-2.19c-1.37,0-2.47-1.11-2.47-2.47h0c0-1.37,1.11-2.47,2.47-2.47h2.19c1.37,0,2.47,1.11,2.47,2.47h0c0,1.37-1.11,2.47-2.47,2.47Z"/>
              <path d="m161.71,333.26h-2.29c-2.08,0-3.77-1.69-3.77-3.78v-.1c0-2.08,1.69-3.77,3.77-3.77h2.29c2.08,0,3.77,1.69,3.77,3.77v.1c0,2.08-1.69,3.78-3.77,3.78Zm-2.29-4.95c-.59,0-1.07.48-1.07,1.07v.1c0,.59.48,1.08,1.07,1.08h2.29c.59,0,1.07-.48,1.07-1.08v-.1c0-.59-.48-1.07-1.07-1.07h-2.29Z"/>
            </g>
            <g>
              <path class="cls-13" d="m150.58,331.91h-1.12c-1.37,0-2.47-1.11-2.47-2.47h0c0-1.37,1.11-2.47,2.47-2.47h1.12c1.37,0,2.47,1.11,2.47,2.47h0c0,1.37-1.11,2.47-2.47,2.47Z"/>
              <path d="m150.63,333.26h-1.22c-2.08,0-3.78-1.69-3.78-3.78v-.1c0-2.08,1.69-3.77,3.78-3.77h1.22c2.08,0,3.78,1.69,3.78,3.77v.1c0,2.08-1.69,3.78-3.78,3.78Zm-1.22-4.95c-.59,0-1.08.48-1.08,1.07v.1c0,.59.48,1.08,1.08,1.08h1.22c.59,0,1.08-.48,1.08-1.08v-.1c0-.59-.48-1.07-1.08-1.07h-1.22Z"/>
            </g>
          </g>
        </g>
        <path d="m101.88,291.76c-.75,0-1.35-.6-1.35-1.35v-96.77c0-.75.6-1.35,1.35-1.35s1.35.6,1.35,1.35v96.77c0,.75-.6,1.35-1.35,1.35Z"/>
        <g>
          <g>
            <g>
              <polygon class="cls-13" points="21.4 255.42 21.04 261.04 22.84 261.96 24.73 260.74 25.34 256.05 21.4 255.42"/>
              <path d="m22.87,262.48l-2.3-1.18.41-6.41,4.86.78-.7,5.33-2.28,1.48Zm-1.36-1.71l1.31.67,1.49-.97.53-4.05-3.02-.48-.31,4.83Z"/>
            </g>
            <g>
              <polygon class="cls-13" points="29.95 256.09 31.52 260.52 32.72 260.69 34.13 259.7 34.18 257.9 33.2 255.02 29.95 256.09"/>
              <path d="m32.83,261.16l-1.64-.23-1.82-5.12,4.1-1.36,1.15,3.38-.05,2.11-1.75,1.22Zm-.97-1.05l.75.11,1.08-.76.04-1.5-.81-2.38-2.38.79,1.33,3.74Z"/>
            </g>
            <g>
              <polygon class="cls-13" points="38.1 251.96 41.82 255.3 43.8 255.11 44.81 253.3 44 251.65 41.18 249.06 38.1 251.96"/>
              <path d="m41.67,255.77l-4.24-3.8,3.74-3.51,3.23,3,.92,1.86-1.24,2.23-2.42.23Zm-2.9-3.82l3.21,2.88,1.55-.15.78-1.4-.67-1.36-2.45-2.25-2.42,2.27Z"/>
            </g>
            <path d="m26.68,257.27c-.17,0-.33,0-.5,0-5.05-.16-12.32-2.81-16.19-9.73-2.96-5.29-4.7-14.72,3.8-29.58,21.5-37.58,53.22-53.34,53.54-53.49.67-.32,1.48-.05,1.8.62.33.67.05,1.48-.62,1.81-.31.15-31.32,15.58-52.38,52.41-7.87,13.76-6.41,22.24-3.79,26.92,3.11,5.56,9.23,8.2,13.92,8.35,6.87.2,14.21-4.97,17.05-12.06,1.54-3.86,2.93-11.41-5.12-18.59-.56-.5-.61-1.35-.11-1.91.5-.56,1.35-.61,1.91-.11,6.78,6.04,8.91,13.92,5.84,21.61-3.17,7.93-11.33,13.77-19.14,13.77Z"/>
            <path d="m42.71,227.72c-.17,0-.34-.03-.5-.1-.69-.28-1.03-1.07-.75-1.76,2.15-5.34,5.62-13.15,8.08-17.75.35-.66,1.17-.91,1.83-.55.66.35.91,1.17.55,1.83-2.42,4.51-5.83,12.21-7.96,17.48-.21.53-.72.85-1.25.85Z"/>
            <path d="m22.52,263.27c-.08,0-.16,0-.25,0-.91-.07-1.75-.48-2.35-1.17-.6-.69-.89-1.58-.83-2.49l.49-4.55,2.68.29-.48,4.5c-.02.35.28.7.68.73.24,0,.48-.09.63-.29.09-.11.14-.25.15-.39l.26-3.68,2.69.19-.26,3.69c-.05.67-.29,1.3-.69,1.83-.65.86-1.66,1.36-2.73,1.36Z"/>
            <path d="m32.48,262.39c-1.47,0-2.84-.96-3.29-2.44l-1.06-3.51,2.59-.78,1.06,3.51c.12.38.52.61.91.49.19-.06.3-.17.37-.25.14-.19.19-.43.12-.65l-1.06-3.5,2.59-.78,1.06,3.51c.31,1.05.11,2.19-.55,3.06-.44.58-1.04,1-1.74,1.21-.33.1-.66.15-.99.15Z"/>
            <path d="m42.25,256.63s-.04,0-.06,0c-.91-.01-1.77-.38-2.41-1.04l-2.46-2.55,1.94-1.88,2.46,2.54c.28.29.74.29,1.03.02.03-.03.05-.05.07-.08.22-.29.19-.7-.05-.95l-2.46-2.54,1.94-1.88,2.46,2.54c1.18,1.23,1.3,3.1.27,4.46-.1.14-.22.27-.35.4-.64.62-1.48.96-2.38.96Z"/>
          </g>
          <g>
            <g>
              <polygon class="cls-13" points="182.36 255.42 182.72 261.04 180.92 261.96 179.04 260.74 178.42 256.05 182.36 255.42"/>
              <path d="m180.89,262.48l-2.28-1.48-.7-5.33,4.86-.78.41,6.41-2.3,1.18Zm-1.44-2l1.49.97,1.31-.67-.31-4.83-3.02.48.53,4.05Z"/>
            </g>
            <g>
              <polygon class="cls-13" points="173.81 256.09 172.24 260.52 171.04 260.69 169.63 259.7 169.59 257.9 170.57 255.02 173.81 256.09"/>
              <path d="m170.93,261.16l-1.75-1.22-.05-2.11,1.15-3.38,4.1,1.36-1.81,5.12-1.64.23Zm-.86-1.7l1.08.76.75-.11,1.33-3.74-2.39-.79-.81,2.38.04,1.5Z"/>
            </g>
            <g>
              <polygon class="cls-13" points="165.67 251.96 161.94 255.3 159.96 255.11 158.95 253.3 159.76 251.65 162.59 249.06 165.67 251.96"/>
              <path d="m162.1,255.77l-2.42-.23-1.24-2.23,1.02-1.99,3.13-2.87,3.74,3.51-4.24,3.8Zm-1.86-1.08l1.55.15,3.21-2.88-2.42-2.27-2.45,2.25-.67,1.36.78,1.4Z"/>
            </g>
            <path d="m177.08,257.27c-7.81,0-15.98-5.84-19.14-13.77-3.07-7.69-.94-15.57,5.84-21.61.56-.5,1.41-.45,1.91.11.5.56.45,1.41-.11,1.91-8.05,7.18-6.67,14.73-5.12,18.59,2.84,7.1,10.17,12.27,17.05,12.06,4.69-.15,10.81-2.79,13.92-8.35,2.62-4.68,4.08-13.15-3.79-26.92-21.06-36.82-52.07-52.26-52.38-52.41-.67-.33-.95-1.13-.62-1.81.33-.67,1.14-.95,1.8-.62.32.15,32.04,15.91,53.54,53.49,8.5,14.86,6.76,24.29,3.8,29.58-3.87,6.92-11.14,9.57-16.19,9.73-.17,0-.33,0-.5,0Z"/>
            <path d="m161.06,227.72c-.54,0-1.04-.32-1.25-.85-2.12-5.26-5.54-12.96-7.96-17.48-.35-.66-.1-1.48.55-1.83.66-.35,1.47-.1,1.83.55,2.47,4.61,5.93,12.41,8.08,17.75.28.69-.06,1.48-.75,1.76-.17.07-.34.1-.5.1Z"/>
            <path d="m181.25,263.27c-1.07,0-2.08-.5-2.73-1.36-.4-.53-.64-1.16-.69-1.83l-.26-3.69,2.69-.19.26,3.69c.01.14.06.28.15.39.15.2.39.3.63.29.19-.01.37-.1.5-.25s.19-.33.18-.53l-.48-4.46,2.68-.29.48,4.5c.07.96-.22,1.84-.82,2.54-.6.69-1.43,1.11-2.35,1.17-.08,0-.16,0-.25,0Z"/>
            <path d="m171.28,262.39c-.33,0-.66-.05-.99-.15-.7-.21-1.3-.63-1.74-1.21-.66-.87-.87-2.02-.55-3.06l1.06-3.51,2.59.78-1.06,3.51c-.07.23-.02.46.12.65.06.08.18.2.37.26.38.11.79-.1.91-.49l1.06-3.51,2.59.78-1.06,3.51c-.45,1.48-1.81,2.44-3.29,2.44Z"/>
            <path d="m161.51,256.63c-.89,0-1.74-.34-2.38-.97-.13-.12-.25-.26-.35-.4-1.02-1.35-.91-3.22.27-4.45l2.46-2.54,1.94,1.88-2.46,2.54c-.25.26-.27.66-.06.95.02.03.04.06.07.08.15.14.29.22.53.21.19,0,.38-.08.51-.22l2.46-2.54,1.94,1.88-2.46,2.54c-.64.66-1.49,1.03-2.41,1.04-.02,0-.04,0-.06,0Z"/>
          </g>
        </g>
        <path d="m153.48,218.03H50.29c-.75,0-1.35-.6-1.35-1.35s.6-1.35,1.35-1.35h103.19c.75,0,1.35.6,1.35,1.35s-.6,1.35-1.35,1.35Z"/>
        <path d="m149.76,263.09H54.01c-.75,0-1.35-.6-1.35-1.35s.6-1.35,1.35-1.35h95.75c.75,0,1.35.6,1.35,1.35s-.6,1.35-1.35,1.35Z"/>
        <g>
          <path d="m52.24,44.03c-.5,0-.98-.28-1.21-.75l-3.81-7.7c-.33-.67-.06-1.48.61-1.81.67-.33,1.48-.06,1.81.61l3.81,7.7c.33.67.06,1.48-.61,1.81-.19.09-.4.14-.6.14Z"/>
          <path d="m48.06,46.65c-.3,0-.6-.1-.86-.31l-5.64-4.63c-.58-.47-.66-1.32-.19-1.9.47-.58,1.32-.66,1.9-.19l5.64,4.63c.58.47.66,1.32.19,1.9-.27.33-.65.49-1.05.49Z"/>
        </g>
        <g>
          <path d="m151.44,44.03c-.2,0-.41-.04-.6-.14-.67-.33-.94-1.14-.61-1.81l3.81-7.7c.33-.67,1.14-.94,1.81-.61.67.33.94,1.14.61,1.81l-3.81,7.7c-.24.48-.71.75-1.21.75Z"/>
          <path d="m155.63,46.65c-.39,0-.78-.17-1.04-.49-.47-.58-.39-1.43.19-1.9l5.64-4.63c.57-.47,1.43-.39,1.9.19.47.58.39,1.43-.19,1.9l-5.64,4.63c-.25.21-.55.31-.86.31Z"/>
        </g>
        <g>
          <g>
            <path class="cls-4" d="m89.94,159.55s23.88,2.12,39.89-9.48c0,0,2.77,4.03,4.32,9.85,0,0-12.05,24.1-32.27,33.72,0,0-26.53-10.62-33.95-31.04l4.99-12.33s14.35,7.61,42.05,6.74"/>
            <path d="m101.88,194.99c-.17,0-.34-.03-.5-.1-1.11-.44-27.17-11.08-34.72-31.83-.11-.31-.11-.66.02-.97l4.99-12.33c.14-.35.43-.63.79-.76.36-.13.75-.1,1.09.07.14.07,14.34,7.37,41.15,6.59,4.95-1.4,9.96-3.52,14.34-6.69.29-.21.66-.3,1.02-.24.36.06.68.27.88.57.12.17,2.92,4.29,4.51,10.27.08.32.05.66-.1.95-.5,1-12.49,24.63-32.9,34.34-.18.09-.38.13-.58.13Zm-32.5-32.37c6.78,17.75,28.74,27.92,32.47,29.54,17.75-8.74,29.12-29.11,30.87-32.39-.99-3.5-2.42-6.29-3.28-7.77-16.17,10.84-38.64,8.99-39.61,8.9-.74-.07-1.29-.72-1.23-1.46s.73-1.29,1.46-1.23c.1,0,4.56.38,10.83-.13-14.86-1.11-23.99-4.53-27.26-5.98l-4.26,10.52Z"/>
          </g>
          <g>
            <path class="cls-4" d="m129.16,153.56s-2.93-19.7,25.9-17.86c0,0-7.24,27.5-25.9,17.86Z"/>
            <path d="m136.76,156.96c-2.63,0-5.38-.73-8.22-2.2-.39-.2-.65-.57-.72-1-.04-.3-1.02-7.32,4.14-12.94,4.58-4.98,12.37-7.16,23.18-6.47.4.03.77.23,1.01.56.24.33.31.74.21,1.13-.16.62-4.14,15.34-13.97,19.71-1.81.8-3.69,1.2-5.63,1.2Zm-6.32-4.27c3.92,1.86,7.57,2.06,10.85.6,6.88-3.06,10.68-12.53,11.96-16.33-9.03-.32-15.53,1.59-19.3,5.69-3.45,3.75-3.59,8.34-3.51,10.04Z"/>
          </g>
          <g>
            <path class="cls-4" d="m135.48,156.46s8.82-10.83,21.5,4.98c0,0-17.68,9.25-21.5-4.98Z"/>
            <path d="m145.74,165.74c-1.81,0-3.63-.28-5.3-1.02-3.11-1.36-5.21-4.03-6.26-7.92-.11-.42-.02-.87.26-1.2.14-.17,3.42-4.12,8.93-4.12h.04c4.88.02,9.8,3.08,14.62,9.1.25.31.35.73.27,1.12-.08.39-.34.73-.7.92-.31.16-6.03,3.11-11.87,3.11Zm-8.74-8.91c.87,2.7,2.36,4.47,4.52,5.42,4.43,1.94,10.49-.12,13.29-1.3-3.89-4.46-7.72-6.73-11.38-6.76h-.07c-3.17,0-5.44,1.76-6.37,2.64Z"/>
          </g>
          <g>
            <circle class="cls-4" cx="131.62" cy="157.19" r="7.07"/>
            <path d="m131.62,165.62c-4.65,0-8.42-3.78-8.42-8.42s3.78-8.42,8.42-8.42,8.42,3.78,8.42,8.42-3.78,8.42-8.42,8.42Zm0-14.15c-3.16,0-5.72,2.57-5.72,5.72s2.57,5.72,5.72,5.72,5.72-2.57,5.72-5.72-2.57-5.72-5.72-5.72Z"/>
          </g>
        </g>
      </g>
    </g>
  </g>
</svg>