<?xml version="1.0" encoding="UTF-8"?>
<svg id="Layer_2" data-name="Layer 2" xmlns="http://www.w3.org/2000/svg" viewBox="0 0 180.28 339.05">
  <defs>
    <style>
      .cls-1 {
        fill: #f8ef8d;
      }

      .cls-2 {
        fill: #e55b78;
      }

      .cls-3 {
        fill: #fff;
      }

      .cls-4 {
        fill: #fbeb46;
      }

      .cls-5 {
        fill: #8b7919;
      }

      .cls-6 {
        fill: #bdd148;
      }

      .cls-7 {
        fill: #bdd14a;
      }

      .cls-8 {
        fill: #bd9e4f;
      }

      .cls-9 {
        fill: #c7dcc7;
      }

      .cls-10 {
        fill: #1d1e1c;
      }

      .cls-11 {
        fill: #1d1d1b;
      }

      .cls-12 {
        fill: #6e6854;
      }

      .cls-13 {
        fill: #595958;
      }

      .cls-14 {
        fill: #585856;
      }

      .cls-15 {
        fill: #53ae32;
      }

      .cls-16 {
        fill: #796e32;
      }
    </style>
  </defs>
  <g id="Layer_3" data-name="Layer 3">
    <g>
      <polygon class="cls-4" points="14.81 5.22 14.56 2.12 16.48 1.36 162 124.84 161.18 127.69 158.5 127.22 14.81 5.22"/>
      <path class="cls-4" d="m41.51,20.73s11.53-9.93,28.63-11.62c17.1-1.69,39.91-1.38,59.91,29.42,18.39,28.31.88,58.4.88,58.4L41.51,20.73Z"/>
      <path class="cls-6" d="m39.96,27.14l84.47,71.2s-11.49,15.08-15.37,26.87c-3.89,11.78-4.04,17.81-4.04,17.81l-3.26,2.69-38.57,9.59-3.96-4.2-3.75-.98s-14.48-11.21-25.23-16.82c-10.75-5.61-21.49-18.98-24.77-28.91-3.27-9.94-.92-11.55-.92-11.55,0,0-4.43-10.5-3.19-26,1.24-15.5,5.88-6.58,16.97-17.2,11.09-10.62,21.64-22.49,21.64-22.49Z"/>
      <path class="cls-2" d="m46,179.31v-22.45s3.33-7.62,10.36-6.2c7.03,1.43,6.7,5.27,6.81,10.31s-.39,20.15-.39,20.15c0,0-2.79,6.33-9.33,4.85-6.54-1.48-7.45-6.65-7.45-6.65Z"/>
      <path class="cls-8" d="m103.85,145.09s5.05,16.33,6.14,56.67c1.1,40.34-1.06,73.17,8.36,88.75l-5.65.43s3.89-16.01-4.83-22.48c-8.72-6.48-19.24-4.5-25.8,4.45v-122.24l21.77-5.57Z"/>
      <path class="cls-9" d="m63.17,155.3l18.91-4.65v122.24l-3.27,7.01-1.34,7.07s-19.34-9.26-21.97-31.54c-2.63-22.27.94-69.42.94-69.42,0,0,7.84,1.04,7.2-12.87-.64-13.91-.47-17.84-.47-17.84Z"/>
      <path class="cls-6" d="m80.98,315.48s-5.63-18.84-2.17-35.58c3.46-16.74,19.2-16.88,24.13-14.17,4.94,2.71,12.1,3.54,10.48,20.46-1.62,16.92-2.96,20.89.23,34.6,3.19,13.71-2.33,17.02-7.32,16.9-4.98-.12-28.14-.5-28.14-.5,0,0-7.35.95-8.69-8.03s2.62-13.04,11.47-13.69Z"/>
      <path class="cls-16" d="m103.85,145.09s1.28-4.79,5.45-3.67,7.17,16.43,8.57,33.91c1.4,17.48,2.37,65.96,4.84,79.58,2.47,13.62,5.71,25.87,11.38,35.36,5.66,9.49,8.19,10.65,3.52,14.43-4.66,3.77-11.11-.82-17.54-11.44-6.43-10.62-10.68-34.27-10.23-55.43.44-21.16.95-51.55-.79-66.56-1.74-15.01-5.2-26.18-5.2-26.18Z"/>
      <path class="cls-6" d="m128.4,310.98l-.82-2.21-1.97-7.75s3.58,3.71,7.84,5.26c4.25,1.55,6.99,3.27,6.99,3.27l-8.98,1.43h-3.06Z"/>
      <g>
        <path class="cls-8" d="m141.32,159.77c2.32,3.48,8.25,11.61,8.25,11.61l16.89,7.77c-1.65-3.16-3.38-5.97-5.16-8.49l-10.23-3.29s-3.08-3.89-4.7-6.21-1.52-3.25-1.52-3.25l.53-2.03c-1.5-.76-3.09-1.5-4.75-2.2l-.88,1.64s-.77.96,1.56,4.44Z"/>
        <path class="cls-8" d="m162.33,206.4l1,20.79c-.12,6.79,2.73,8.19,2.73,8.19l11.92,10.97c.42-2.67.74-5.46.93-8.4-2.43-2.34-5.2-5.02-6.41-6.23-2.38-2.38-2.85-4.41-2.85-4.41,0,0-.93-12.66-1.34-16.72s.52-6.1.52-6.1l4.77-7.37c-.79-2.66-1.63-5.16-2.51-7.5-2.53,3.97-5.29,8.31-6.67,10.4-2.9,4.41-2.1,6.39-2.1,6.39Z"/>
        <path class="cls-8" d="m145.73,223l-.75-15.04c-.87-7.32-6.62-9.06-6.62-9.06l-19.13-6.89c.09,1.5.14,2.38.14,2.38,0,0,.89,25.14,2.51,46.97l18.92-10.06c5.57-3.6,4.94-8.3,4.94-8.3Z"/>
        <path class="cls-8" d="m168.32,210.58c.41,4.06,1.34,16.72,1.34,16.72,0,0,.46,2.03,2.85,4.41,1.21,1.21,3.97,3.88,6.41,6.23.49-7.72.08-16.37-1.74-25.98-1.03-5.45-2.23-10.37-3.56-14.85l-4.77,7.37s-.93,2.03-.52,6.1Z"/>
        <path class="cls-8" d="m146.37,161.17c1.63,2.32,4.7,6.21,4.7,6.21l10.23,3.29c-2.7-3.84-5.51-7.01-8.28-9.71-1.84-1.79-4.52-3.49-7.63-5.07l-.53,2.03s-.11.93,1.52,3.25Z"/>
        <path class="cls-8" d="m151.83,276.79l-2.39,7.88c-.04,1.66.89,3.72,1.72,5.23,7.18-4.56,14.88-11.09,18.59-18.3.45-.88.9-1.79,1.34-2.74-5.99,1.72-13.17,3.8-15.3,4.49-3.85,1.25-3.97,3.46-3.97,3.46Z"/>
        <path class="cls-8" d="m158.13,226.08l-1.54-24.39s-.75-6.68-8.54-9.52l-29.74-13.28c.44,5.39.75,10.34.91,13.13l19.13,6.89s5.75,1.74,6.62,9.06l.75,15.04s.64,4.7-4.94,8.3l-18.92,10.06c.35,4.67.73,9.18,1.14,13.27l30.62-18.22s4.77-1.74,4.5-10.34Z"/>
        <path class="cls-8" d="m148.93,266.43c-6.91,2.07-6.81,7.6-6.81,7.6,0,0-3.65,10.66-2.35,14.09.65,1.73,2.63,3.94,4.43,5.69,2.14-1.05,4.53-2.37,6.97-3.92-.83-1.51-1.76-3.57-1.72-5.23l2.39-7.88s.11-2.21,3.97-3.46c2.13-.69,9.31-2.77,15.3-4.49,1.46-3.12,2.88-6.65,4.11-10.59-8.92,2.8-21.9,6.87-26.28,8.18Z"/>
        <path class="cls-5" d="m139.76,288.12c-1.3-3.43,2.35-14.09,2.35-14.09,0,0-.1-5.53,6.81-7.6,4.38-1.31,17.36-5.38,26.28-8.18,1.13-3.62,2.09-7.59,2.77-11.91l-11.92-10.97s-2.85-1.39-2.73-8.19l-1-20.79s-.8-1.97,2.1-6.39c1.38-2.1,4.14-6.43,6.67-10.4-1.45-3.87-3.01-7.33-4.64-10.45l-16.89-7.77s-5.92-8.13-8.25-11.61c-2.32-3.48-1.56-4.44-1.56-4.44l.88-1.64c-12.25-5.2-27.53-8.6-27.53-8.6,0,0,.64,3.84,2.76,13.43,1.01,4.56,1.85,12.88,2.45,20.37l29.74,13.28c7.78,2.85,8.54,9.52,8.54,9.52l1.54,24.39c.27,8.59-4.5,10.34-4.5,10.34l-30.62,18.22c.11,1.1.22,2.18.34,3.21,2.55,22.79,14.97,38.31,14.97,38.31,1.53-.42,3.57-1.22,5.87-2.34-1.8-1.76-3.78-3.96-4.43-5.69Z"/>
      </g>
      <path class="cls-1" d="m69.32,153.1c.11.25,3.47-.37,3.4-.64-1.03-4.21-2.95-13.96-6.6-24.89-3.04-9.12-7.08-19.2-11.42-17.53-3.8,1.46.2,7.39,4.72,17.68,5.59,12.72,7.39,19.84,9.89,25.37Z"/>
      <path class="cls-1" d="m76.48,151.1c.08.26,3.48.09,3.45-.19-.46-4.31-2.39-14.5-4.57-25.82-1.82-9.44-3.05-20.15-7.56-19.06-3.95.95-2.19,7.77.94,18.57,3.87,13.34,5.98,20.69,7.73,26.5Z"/>
      <path class="cls-1" d="m83.37,149.06c.05.27,3.46.45,3.46.17-.02-4.33-1.03-14.28-2.03-25.76-.84-9.58,1.01-20.5-3.6-19.89-4.03.53-4.8,7.25-2.79,18.32,2.48,13.67,3.82,21.2,4.96,27.16Z"/>
      <g>
        <path d="m159.92,129.09c-.81,0-1.63-.28-2.29-.84h0L13.94,6.25c-1.49-1.26-1.67-3.51-.41-5,1.27-1.49,3.51-1.67,5-.41l143.69,122c.72.61,1.16,1.47,1.24,2.41.08.94-.22,1.86-.83,2.58-.7.82-1.7,1.25-2.71,1.25Zm-.54-2.9c.36.3.89.26,1.19-.1.15-.17.22-.39.2-.62-.02-.23-.12-.43-.3-.58L16.78,2.9c-.17-.15-.39-.22-.62-.2-.23.02-.43.12-.58.3-.15.17-.22.39-.2.62.02.23.12.43.3.58l143.69,122Z"/>
        <g>
          <ellipse class="cls-3" cx="41.51" cy="58.1" rx="14.85" ry="17.13"/>
          <path d="m41.51,76.58c-8.93,0-16.2-8.29-16.2-18.48s7.27-18.48,16.2-18.48,16.2,8.29,16.2,18.48-7.27,18.48-16.2,18.48Zm0-34.25c-7.44,0-13.5,7.08-13.5,15.78s6.06,15.78,13.5,15.78,13.5-7.08,13.5-15.78-6.06-15.78-13.5-15.78Z"/>
          <g>
            <path class="cls-12" d="m35.98,59.99l-1.59.18-1.86-.18-1.07,4.91-1.34.26s-.67,1.84-.79,2.54c-.12.7-.27,1.23-.27,1.23,0,0,1.92,2.98,4.67-.18,2.75-3.16,2.26-8.77,2.26-8.77Z"/>
            <g>
              <path d="m28.82,58.23c0,4.75.95,8.6,2.12,8.6s2.12-3.85,2.12-8.6-.95-8.6-2.12-8.6-2.12,3.85-2.12,8.6Z"/>
              <g>
                <path d="m28.51,67.97c-.88-2.47-2.03-5.91-2.03-9.73,0-7.51,2.72-13.6,5.34-13.6s4.74,6.09,4.74,13.6c0,.05,0,.09,0,.14h-4.7l-3.34,9.6Z"/>
                <path d="m33.73,61.19c-.32,3.85-1.21,6.44-1.9,7.54-.13-.2-.28-.47-.44-.82l2.34-6.71m2.82-2.82h-4.7l-3.34,9.6c.85,2.39,2.02,3.87,3.3,3.87,2.6,0,4.71-6.02,4.73-13.46h0Z"/>
              </g>
              <path class="cls-3" d="m30.79,53.62c0,2.15.61,3.9,1.36,3.9s1.36-1.75,1.36-3.9-.61-3.9-1.36-3.9-1.36,1.75-1.36,3.9Z"/>
              <ellipse class="cls-3" cx="31" cy="60.83" rx=".77" ry="2.21"/>
            </g>
          </g>
        </g>
        <path d="m8.67,67.78c0,1.74-.72,3.15-1.6,3.15s-1.6-1.41-1.6-3.15.72-3.15,1.6-3.15,1.6,1.41,1.6,3.15Z"/>
        <path d="m55.46,151.47c-.31,0-.62-.11-.88-.33-3.52-3.03-8.16-5.91-13.54-9.26-2.94-1.83-5.98-3.72-9.24-5.87C11.68,122.71,2.14,104.39,3.11,93.43.28,90.46.06,80.15.05,79.67c-.26-14.33.17-23.85,8.18-25.62,6.13-1.35,12.49-8.27,20.54-17.04,3.15-3.43,6.73-7.32,10.6-11.2.53-.53,1.38-.53,1.91,0,.53.53.53,1.38,0,1.91-3.84,3.84-7.24,7.54-10.52,11.12-8.37,9.12-14.98,16.32-21.95,17.85-5.52,1.22-6.33,8.06-6.06,22.93.09,5.14,1.29,11.29,2.32,11.98.58.23.89.81.81,1.43-1.41,10.03,7.72,27.72,27.42,40.74,3.23,2.13,6.25,4.01,9.17,5.83,5.47,3.4,10.2,6.34,13.87,9.5.57.49.63,1.34.14,1.9-.27.31-.64.47-1.02.47Z"/>
        <path d="m6.27,94.41c-1.2,0-1.96-.14-1.99-.15-.73-.15-1.2-.86-1.06-1.59.15-.73.85-1.2,1.59-1.06.49.1,11.6,2.05,15.19-13.21.17-.73.9-1.18,1.62-1,.73.17,1.18.9,1,1.62-3.25,13.78-12.31,15.38-16.36,15.38Z"/>
        <path d="m130.94,98.27c-.18,0-.36-.04-.53-.11-.69-.29-1-1.09-.71-1.77.44-1.04.91-2.07,1.38-3.11,2.78-6.15,5.65-12.51,5.87-24.19.29-15.07-5.49-29.45-16.28-40.48-11.39-11.66-27.42-18.38-43.97-18.44-.09,0-.17,0-.26,0-19.97,0-31.46,8.28-35.48,11.85-.56.49-1.41.45-1.91-.11-.5-.56-.44-1.41.11-1.91,4.25-3.78,16.38-12.53,37.28-12.53.09,0,.18,0,.27,0,17.27.06,34,7.08,45.89,19.25,11.29,11.55,17.35,26.62,17.05,42.42-.23,12.24-3.36,19.15-6.11,25.25-.46,1.02-.92,2.03-1.36,3.06-.22.51-.72.82-1.24.82Z"/>
        <path class="cls-11" d="m62.12,39.47c-.09,0-.18-.03-.26-.08-.2-.14-.26-.42-.11-.63,11.33-16.41,33.06-25.59,47.46-20.05.23.09.35.35.26.58-.09.23-.35.35-.58.26-14.04-5.4-35.29,3.63-46.4,19.72-.09.13-.23.19-.37.19Z"/>
        <path d="m103.85,146.44s-.07,0-.11,0c-.74-.06-1.3-.71-1.24-1.45,1.76-22.41,20.07-46.45,20.85-47.46.45-.59,1.3-.7,1.89-.25.59.46.7,1.3.25,1.89-.19.24-18.6,24.42-20.3,46.03-.06.71-.65,1.24-1.34,1.24Z"/>
        <g>
          <path class="cls-15" d="m76.35,36.12s-7.42-17.07,6.67-25.71,26.67,6.07,30.01,8.61c3.34,2.54,12.17,6.2,12.17,6.2,0,0-7.48,6.53-12.8,13.56-5.33,7.03-11.82,10.09-22.71,8.45-10.89-1.64-13.33-11.12-13.33-11.12Z"/>
          <path class="cls-10" d="m66.6,42.85c-.35,0-.71-.14-.97-.41-.52-.54-.5-1.39.04-1.91.22-.21,22.25-20.97,59.44-16.79.74.08,1.27.75,1.19,1.49s-.75,1.27-1.49,1.19c-35.9-4.02-57.05,15.85-57.26,16.05-.26.25-.6.38-.94.38Z"/>
          <path class="cls-10" d="m94.96,49.09c-1.68,0-3.45-.2-5.34-.63-7.3-1.66-12.75-6.2-15.34-12.78-2.64-6.72-1.75-14.62,2.34-20.61,3.03-4.44,7.64-7.28,12.98-7.98,6.65-.87,13.67,1.55,19.79,6.81,9.96,8.57,17.23,10.07,17.3,10.09.53.1.95.51,1.06,1.04.11.53-.1,1.07-.54,1.39-3.31,2.35-6.25,5.5-9.36,8.84-6.35,6.82-12.89,13.83-22.89,13.83Zm-2.68-39.47c-.78,0-1.56.05-2.33.15-4.57.6-8.51,3.02-11.1,6.82-3.59,5.26-4.38,12.2-2.06,18.1,2.25,5.73,7.02,9.68,13.42,11.13,11.64,2.64,18.45-4.67,25.66-12.41,2.44-2.62,4.95-5.31,7.65-7.57-3.16-1.16-8.89-3.86-15.91-9.9-4.8-4.13-10.17-6.33-15.35-6.33Z"/>
          <path class="cls-10" d="m103.92,35.15c-.33,0-.65-.12-.91-.36l-7.24-6.66c-.55-.5-.58-1.36-.08-1.91.51-.55,1.36-.58,1.91-.08l7.24,6.66c.55.5.58,1.36.08,1.91-.27.29-.63.44-.99.44Z"/>
          <path class="cls-10" d="m88.89,29.91c-.06,0-.11,0-.17-.01-.74-.09-1.27-.77-1.17-1.51l1.48-11.95c.09-.74.77-1.26,1.51-1.17.74.09,1.27.77,1.17,1.51l-1.48,11.95c-.08.68-.67,1.18-1.34,1.18Z"/>
        </g>
        <path d="m112.71,292.29c-.71,0-1.31-.55-1.35-1.27-.04-.74.53-1.38,1.27-1.42,1.17-.07,2.24-.16,3.45-.25.67-.05,1.38-.11,2.17-.17.73-.06,1.39.5,1.45,1.24.06.74-.5,1.39-1.24,1.45-.79.06-1.49.12-2.16.17-1.23.1-2.32.19-3.52.26-.03,0-.05,0-.08,0Z"/>
        <path d="m77.47,288.32c-.21,0-.41-.05-.61-.15-13.34-6.78-22.12-20.27-22.93-35.22-1.06-19.75-.67-42.3,1.16-67.04.06-.74.71-1.29,1.45-1.25.74.06,1.3.7,1.25,1.45-1.83,24.62-2.22,47.06-1.16,66.69.75,13.99,8.97,26.62,21.45,32.96.66.34.93,1.15.59,1.81-.24.47-.71.74-1.2.74Z"/>
        <path d="m63.17,156.65c-.61,0-1.16-.41-1.31-1.02-.18-.72.26-1.46.98-1.64l40.65-10.1c.73-.18,1.46.26,1.64.98.18.72-.26,1.46-.98,1.64l-40.65,10.1c-.11.03-.22.04-.33.04Z"/>
        <path d="m133.69,307.5c-1.56,0-3.12-.49-4.45-1.46-22.01-16.05-21.31-58.95-20.63-100.45.58-35.6-3.98-54.22-5.4-59.08-.42-1.45-.17-3,.69-4.25h0c1.05-1.52,2.84-2.35,4.69-2.16,1.86.19,3.39,1.33,4.11,3.05,5.65,13.49,8.46,40.39,9.41,89.93.71,37.28,11.11,54.98,17.25,62.21,1.41,1.66,2.01,3.84,1.66,5.99-.35,2.16-1.63,4.04-3.5,5.17-1.18.71-2.5,1.06-3.83,1.06Zm-25.64-164.73c-.78,0-1.48.37-1.93,1.02,0,0,0,0,0,0-.4.58-.52,1.3-.32,1.97,1.44,4.95,6.09,23.9,5.5,59.88-.63,38.9-1.35,83,19.52,98.22,1.58,1.15,3.66,1.25,5.29.27,1.19-.72,2.01-1.92,2.23-3.29.22-1.36-.16-2.75-1.06-3.8-6.37-7.5-17.16-25.78-17.89-63.91-.93-48.52-3.77-75.95-9.2-88.94-.33-.79-1.04-1.31-1.9-1.4-.09,0-.17-.01-.25-.01Zm-3.04.25h0,0Z"/>
        <path d="m139.22,297.66c-.5,0-.98-.28-1.21-.76-.33-.67-.05-1.48.62-1.81,5-2.45,14.48-7.55,21.74-14.22,15.54-14.26,20.59-38.32,15.02-71.53-5.49-32.72-23.35-50.37-36.98-55.54-12.7-4.82-25.96-7.63-26.09-7.66-.73-.15-1.2-.87-1.04-1.6.15-.73.87-1.2,1.6-1.04.13.03,13.6,2.88,26.49,7.78,14.3,5.43,33.01,23.77,38.68,57.62,5.73,34.17.39,59.05-15.86,73.97-7.52,6.9-17.25,12.14-22.38,14.65-.19.09-.39.14-.59.14Z"/>
        <path class="cls-11" d="m178.71,247.98c-.11,0-.22-.04-.31-.13l-12.81-12.39c-1.59-1.54-2.52-3.6-2.62-5.81l-1.07-23.51c-.08-1.75.37-3.46,1.29-4.95l7.42-11.94c.13-.21.41-.27.62-.15.21.13.28.41.15.62l-7.42,11.94c-.83,1.33-1.23,2.87-1.16,4.43l1.07,23.51c.09,1.98.93,3.83,2.35,5.2l12.81,12.39c.18.17.18.46.01.64-.09.09-.21.14-.32.14Z"/>
        <path class="cls-11" d="m178.71,238.28c-.12,0-.23-.04-.32-.13l-7.05-7.09c-1.47-1.48-2.35-3.44-2.49-5.52l-1.12-17.18c-.12-1.82.33-3.59,1.29-5.13l4.54-7.27c.13-.21.41-.27.62-.14.21.13.28.41.14.62l-4.54,7.27c-.86,1.38-1.26,2.97-1.16,4.6l1.12,17.18c.12,1.86.91,3.62,2.23,4.95l7.05,7.09c.18.18.17.46,0,.64-.09.09-.2.13-.32.13Z"/>
        <g>
          <path class="cls-11" d="m122.71,255.36c-.15,0-.3-.08-.39-.22-.13-.21-.06-.49.15-.62l30.41-18.3c3.17-1.91,5-5.39,4.78-9.08l-1.52-25.07c-.22-3.72-2.48-6.96-5.89-8.46l-31.46-13.89c-.23-.1-.33-.37-.23-.59.1-.23.37-.33.59-.23l31.46,13.89c3.72,1.64,6.17,5.18,6.42,9.23l1.52,25.07c.24,4.03-1.75,7.83-5.21,9.91l-30.41,18.3c-.07.04-.15.06-.23.06Z"/>
          <path class="cls-11" d="m121.69,242.04c-.16,0-.32-.09-.4-.24-.12-.22-.04-.49.18-.61l18.61-9.99c3.37-1.81,5.41-5.44,5.2-9.25l-.74-13.83c-.21-3.94-2.74-7.38-6.44-8.76l-19.43-7.23c-.23-.09-.35-.35-.26-.58.09-.23.34-.35.58-.26l19.43,7.23c4.04,1.5,6.79,5.25,7.02,9.55l.74,13.83c.22,4.16-2.01,8.12-5.68,10.09l-18.61,9.99c-.07.04-.14.05-.21.05Z"/>
        </g>
        <path class="cls-11" d="m144.1,294.51c-.13,0-.26-.05-.35-.16l-3.09-3.69c-1.5-1.8-2.06-4.23-1.49-6.51l3.1-12.38c.62-2.49,2.53-4.5,4.99-5.25l28.35-8.65c.24-.07.49.06.56.3.07.24-.06.49-.3.56l-28.35,8.65c-2.15.66-3.83,2.42-4.38,4.61l-3.1,12.38c-.5,2,0,4.13,1.31,5.71l3.09,3.69c.16.19.13.47-.06.63-.08.07-.19.1-.29.1Z"/>
        <path class="cls-11" d="m151.53,290.72c-.16,0-.31-.08-.39-.23l-1.17-2.04c-1.02-1.77-1.25-3.91-.64-5.86l1.56-5c.74-2.35,2.59-4.17,4.95-4.87l15.91-4.67c.24-.07.49.07.56.3.07.24-.07.49-.3.56l-15.91,4.67c-2.08.61-3.7,2.21-4.35,4.27l-1.56,5c-.54,1.71-.33,3.59.56,5.14l1.17,2.04c.12.22.05.49-.17.61-.07.04-.15.06-.22.06Z"/>
        <path class="cls-11" d="m166.98,179.76c-.06,0-.12-.01-.18-.04l-16.35-7.23c-.75-.33-1.39-.86-1.85-1.53l-8.46-12.32c-.98-1.43-1.03-3.3-.13-4.78l.6-.98c.13-.21.41-.28.62-.15.21.13.28.41.15.62l-.6.98c-.72,1.17-.68,2.66.1,3.8l8.46,12.32c.37.53.87.96,1.47,1.22l16.35,7.23c.23.1.33.37.23.59-.07.17-.24.27-.41.27Z"/>
        <path class="cls-11" d="m161.18,171.23s-.09,0-.14-.02l-8.9-2.88c-.87-.28-1.63-.82-2.17-1.56l-4.7-6.33c-1.2-1.61-1.15-3.83.12-5.39.16-.19.44-.22.63-.07.19.16.22.44.07.63-1.01,1.24-1.05,3-.09,4.29l4.7,6.33c.44.59,1.03,1.02,1.73,1.24l8.9,2.88c.24.08.37.33.29.57-.06.19-.24.31-.43.31Z"/>
        <path d="m139.94,296.74c-.13,0-.26-.03-.38-.09-.45-.21-.64-.75-.43-1.2,11.66-24.61,15.62-74.47,8.3-104.61-7.37-30.37-25.48-42.54-25.66-42.66-.41-.27-.53-.83-.26-1.25.27-.42.83-.53,1.24-.26.77.5,18.87,12.63,26.43,43.74,7.4,30.47,3.38,80.89-8.42,105.8-.15.33-.48.51-.81.51Z"/>
        <path d="m130.51,312.33c-1.9,0-3.63-1.26-4.2-3.11l-4.2-10.29c-.28-.69.05-1.48.74-1.76.69-.28,1.48.05,1.76.74l4.23,10.35s.03.09.05.13c.23.78.99,1.3,1.8,1.23l6.72-.47-4.36-1.59-.79-.21c-.72-.19-1.15-.93-.95-1.65.19-.72.94-1.15,1.65-.95l.85.23s.08.02.11.04l7.21,2.63c.89.28,1.48,1.18,1.37,2.17-.11.99-.88,1.74-1.87,1.83l-9.73.68c-.13.01-.25.02-.38.02Zm9.69-2.15s.03.01.04.01h-.04Z"/>
        <path d="m54.98,187.37h-.54c-2.71,0-5.25-1.07-7.15-3-1.9-1.94-2.92-4.49-2.86-7.21l.34-17.72c.11-5.71,4.85-10.36,10.56-10.36h.97c4.38,0,7.92,3.43,8.06,7.81l.64,20.15c.09,2.73-.91,5.32-2.82,7.28-1.9,1.96-4.46,3.05-7.19,3.05Zm.34-35.59c-4.25,0-7.78,3.46-7.86,7.71l-.34,17.72c-.04,1.98.7,3.85,2.09,5.26,1.39,1.41,3.24,2.19,5.22,2.19h.54c2,0,3.86-.79,5.25-2.22,1.39-1.43,2.12-3.32,2.06-5.32l-.64-20.15c-.09-2.91-2.45-5.2-5.36-5.2h-.97Z"/>
        <path d="m78.71,217.77h-23.25c-.75,0-1.35-.6-1.35-1.35s.6-1.35,1.35-1.35h23.25c.75,0,1.35.6,1.35,1.35s-.6,1.35-1.35,1.35Z"/>
        <path d="m82.08,274.25c-.75,0-1.35-.6-1.35-1.35v-20.98c0-.75.6-1.35,1.35-1.35s1.35.6,1.35,1.35v20.98c0,.75-.6,1.35-1.35,1.35Z"/>
        <path d="m82.08,172.62c-.75,0-1.35-.6-1.35-1.35v-20.61c0-.75.6-1.35,1.35-1.35s1.35.6,1.35,1.35v20.61c0,.75-.6,1.35-1.35,1.35Z"/>
        <path d="m82.08,262.82h-25.12c-.75,0-1.35-.6-1.35-1.35s.6-1.35,1.35-1.35h25.12c.75,0,1.35.6,1.35,1.35s-.6,1.35-1.35,1.35Z"/>
        <path d="m106.34,339.05s-.02,0-.03,0c-.19,0-19.43-.49-28.1-.49-4.56,0-8.53-3.47-9.89-8.63-1.49-5.66.68-11.08,5.51-13.81,1.82-1.03,3.69-1.51,5.41-1.68-4.46-14.73-3.12-29.76-1.72-34.88,2.01-7.33,9.4-17.77,21.52-16.44,4.66.51,8.8,2.78,11.67,6.39,3.16,3.97,4.6,9.35,3.95,14.75-.08.71-.18,1.46-.27,2.23-.95,7.67-2.25,18.18.07,30.29,1.06,5.55,1.62,10.01.89,13.76-.91,4.7-3.86,7.56-8.75,8.5-.08.02-.17.02-.25.02Zm-25.55-21.98c-1.72,0-3.73.32-5.63,1.39-4.54,2.56-5.11,7.4-4.23,10.77.87,3.29,3.45,6.62,7.28,6.62,8.3,0,26.2.45,28.02.49,3.72-.75,5.77-2.77,6.47-6.34.68-3.52-.02-8.2-.89-12.73-2.4-12.53-1.07-23.28-.09-31.13.09-.77.19-1.51.27-2.22.56-4.7-.67-9.35-3.39-12.75-2.45-3.09-5.86-4.95-9.85-5.38-10.46-1.14-16.86,8.03-18.62,14.47-1.36,4.97-2.63,19.74,1.93,34.14,2.35.18,4.01.79,4.14.84.7.26,1.05,1.04.78,1.74-.26.7-1.04,1.05-1.74.78-.07-.02-1.95-.7-4.45-.7Z"/>
        <g>
          <path class="cls-14" d="m70.6,331.65h-2.19c-1.37,0-2.47-1.11-2.47-2.47h0c0-1.37,1.11-2.47,2.47-2.47h2.19c1.37,0,2.47,1.11,2.47,2.47h0c0,1.37-1.11,2.47-2.47,2.47Z"/>
          <path d="m70.65,333h-2.29c-2.08,0-3.78-1.69-3.78-3.78v-.1c0-2.08,1.69-3.77,3.78-3.77h2.29c2.08,0,3.78,1.69,3.78,3.77v.1c0,2.08-1.69,3.78-3.78,3.78Zm-2.29-4.95c-.59,0-1.08.48-1.08,1.07v.1c0,.59.48,1.08,1.08,1.08h2.29c.59,0,1.08-.48,1.08-1.08v-.1c0-.59-.48-1.07-1.08-1.07h-2.29Z"/>
        </g>
        <g>
          <g>
            <path class="cls-13" d="m82.14,247.74h0c-.96-.62-2.23-.35-2.85.61l-2.56,3.95c-.62.96-.35,2.23.61,2.85h0c.96.62,2.23.35,2.85-.61l2.56-3.95c.62-.96.34-2.23-.61-2.85Z"/>
            <path d="m78.46,256.83c-.65,0-1.29-.19-1.85-.55-.76-.49-1.29-1.26-1.48-2.15-.19-.89-.02-1.8.47-2.57l2.56-3.95c.5-.76,1.26-1.29,2.15-1.48.89-.19,1.8-.02,2.57.47.77.49,1.29,1.26,1.48,2.15.19.89.02,1.8-.47,2.57l-2.56,3.95c-.5.76-1.26,1.29-2.15,1.48-.24.05-.48.08-.72.08Zm2.56-8.07s-.1,0-.15.02c-.19.04-.34.15-.45.31l-2.56,3.95c-.1.16-.14.35-.1.54.04.19.15.34.31.45.16.1.35.14.54.1.19-.04.34-.15.45-.31l2.56-3.95c.1-.16.14-.35.1-.54-.04-.19-.15-.34-.31-.45,0,0,0,0,0,0-.12-.07-.25-.11-.39-.11Z"/>
          </g>
          <g>
            <path class="cls-13" d="m85.4,252.44h0c-1.11-.27-2.22.41-2.49,1.52l-1.11,4.57c-.27,1.11.41,2.22,1.52,2.49h0c1.11.27,2.22-.41,2.49-1.52l1.11-4.57c.27-1.11-.41-2.22-1.52-2.49Z"/>
            <path d="m83.81,262.43c-.27,0-.54-.03-.81-.1-1.83-.44-2.95-2.29-2.51-4.12l1.11-4.57c.21-.89.76-1.63,1.54-2.11.78-.47,1.69-.62,2.58-.4h0c1.83.44,2.95,2.29,2.51,4.12l-1.11,4.57c-.38,1.56-1.78,2.61-3.32,2.61Zm1.11-8.69c-.13,0-.26.04-.37.1-.16.1-.28.25-.32.44l-1.11,4.57c-.09.38.14.77.52.86.38.1.77-.14.86-.52l1.11-4.57c.09-.38-.14-.77-.52-.86h0c-.06-.01-.11-.02-.17-.02Z"/>
          </g>
          <g>
            <path class="cls-13" d="m91.18,252.87h0c-1.14,0-2.06.92-2.06,2.06v4.7c0,1.14.92,2.06,2.06,2.06h0c1.14,0,2.06-.92,2.06-2.06v-4.7c0-1.14-.92-2.06-2.06-2.06Z"/>
            <path d="m91.18,263.05c-1.88,0-3.41-1.53-3.41-3.41v-4.7c0-1.88,1.53-3.41,3.41-3.41s3.41,1.53,3.41,3.41v4.7c0,1.88-1.53,3.41-3.41,3.41Zm0-8.83c-.39,0-.71.32-.71.71v4.7c0,.39.32.71.71.71s.71-.32.71-.71v-4.7c0-.39-.32-.71-.71-.71Z"/>
          </g>
          <g>
            <path class="cls-7" d="m78.36,231.69l1.17-51.39c0-7.7,4.9-13.95,12.6-13.95s12.6,4.51,13.95,13.95c1.48,10.29,2.43,51.42,1.28,61.17-.93,7.84-7.53,13.95-15.23,13.95-11.44.37-18.33-5.08-19.31-13.95-.38-4.65,0-10.75,5.64-16.55"/>
            <path d="m91.03,256.78c-11.2,0-18.49-5.61-19.54-15.17-.37-4.48-.17-11.06,5.69-17.3l1.01-44.04c0-8.83,5.87-15.27,13.95-15.27,5.99,0,13.5,2.62,15.29,15.11,1.53,10.7,2.4,52.09,1.29,61.52-1,8.49-8.28,15.14-16.57,15.14-.37.01-.74.02-1.11.02Zm-13.95-28.05c-3.06,4.55-3.2,9.04-2.91,12.62.93,8.4,7.44,13.06,17.92,12.71,6.99,0,13.09-5.6,13.94-12.76,1.1-9.31.24-50.23-1.28-60.82-1.23-8.61-5.36-12.79-12.61-12.79-6.62,0-11.25,5.18-11.25,12.6l-1.17,51.43c-.02.74-.63,1.31-1.38,1.32-.75-.02-1.34-.64-1.32-1.38l.07-2.93Z"/>
          </g>
        </g>
      </g>
    </g>
  </g>
</svg>