<svg width="36" height="31" viewBox="0 0 36 31" fill="none" xmlns="http://www.w3.org/2000/svg">
<path d="M28.1416 0.352722H7.1416C3.2741 0.352722 0.141602 3.70897 0.141602 7.85272V22.8527C0.141602 26.9965 3.2741 30.3527 7.1416 30.3527H28.1416C32.0091 30.3527 35.1416 26.9965 35.1416 22.8527V7.85272C35.1416 3.70897 32.0091 0.352722 28.1416 0.352722ZM24.8866 18.6715C24.4666 19.0465 23.8891 19.1965 23.3466 19.0465L3.9041 13.9465C4.4291 12.5777 5.6716 11.6027 7.1416 11.6027H28.1416C29.3141 11.6027 30.3466 12.2402 30.9941 13.1777L24.8866 18.6715ZM7.1416 4.10272H28.1416C30.0666 4.10272 31.6416 5.79022 31.6416 7.85272V8.88397C30.6091 8.24647 29.4191 7.85272 28.1416 7.85272H7.1416C5.8641 7.85272 4.6741 8.24647 3.6416 8.88397V7.85272C3.6416 5.79022 5.2166 4.10272 7.1416 4.10272Z" fill="#585856"/>
<path d="M24.8866 18.6715C24.4666 19.0465 23.8891 19.1965 23.3466 19.0465L3.9041 13.9465C4.4291 12.5777 5.6716 11.6027 7.1416 11.6027H28.1416C29.3141 11.6027 30.3466 12.2402 30.9941 13.1777L24.8866 18.6715Z" fill="#F57521"/>
</svg>
