<svg width="32" height="31" viewBox="0 0 32 31" fill="none" xmlns="http://www.w3.org/2000/svg">
<path d="M22.6992 16.6958C27.2055 12.5836 31.4492 8.73485 31.4492 5.42754C31.4492 2.72022 29.3346 0.598267 26.6367 0.598267C25.1201 0.598267 23.6471 1.31534 22.6992 2.42753C21.7367 1.31534 20.2784 0.598267 18.7617 0.598267C16.0638 0.598267 13.9492 2.72022 13.9492 5.42754C13.9492 8.73485 18.193 12.5836 22.6992 16.6958ZM18.7617 3.5251C19.4034 3.5251 20.0596 3.83241 20.4826 4.32997L22.6992 6.94949L24.9159 4.32997C25.3388 3.83241 25.9951 3.5251 26.6367 3.5251C27.7159 3.5251 28.5326 4.34461 28.5326 5.42754C28.5326 7.06656 25.5576 10.0666 22.6992 12.73C19.8409 10.0666 16.8659 7.05193 16.8659 5.42754C16.8659 4.34461 17.6826 3.5251 18.7617 3.5251Z" fill="#F57521"/>
<path d="M27.0742 21.0861H24.1576C24.1576 19.33 23.0638 17.7495 21.4305 17.1348L12.4471 13.769H0.824219V29.8665H9.57422V27.7592L19.7826 30.5983L31.4492 26.9397V25.4763C31.4492 23.047 29.4951 21.0861 27.0742 21.0861ZM3.74089 26.9397V16.6958H6.65755V26.9397H3.74089ZM19.7388 27.5397L9.57422 24.7153V16.6958H11.9221L20.4096 19.8714C20.9055 20.0617 21.2409 20.5446 21.2409 21.0861C21.2409 21.0861 18.3388 21.0129 17.8867 20.8665L14.4159 19.7104L13.4971 22.4909L16.968 23.647C17.7117 23.8958 18.4846 24.0275 19.2721 24.0275H27.0742C27.643 24.0275 28.1534 24.3641 28.3867 24.847L19.7388 27.5397Z" fill="#585856"/>
</svg>
