<svg width="31" height="31" viewBox="0 0 31 31" fill="none" xmlns="http://www.w3.org/2000/svg">
<path fill-rule="evenodd" clip-rule="evenodd" d="M27.5301 6.64503C28.2255 6.90657 28.8937 7.21426 29.5346 7.58349C29.9846 7.82965 30.2573 8.36811 30.2573 8.93734V27.5373C30.2573 28.4296 29.6028 29.0604 28.8937 29.0604C28.6755 29.0604 28.4573 28.9989 28.2391 28.8758C26.5891 27.8912 24.7346 27.2758 22.7573 27.2758C19.9346 27.2758 17.3301 28.5373 15.2573 30.3527C13.1846 28.5373 10.5801 27.2758 7.75732 27.2758C5.78005 27.2758 3.92551 27.8912 2.27551 28.8604C2.05732 28.9835 1.83914 29.045 1.62096 29.045C0.898233 29.045 0.257324 28.4143 0.257324 27.522V8.93734C0.257324 8.36811 0.530051 7.82965 0.980051 7.58349C3.01187 6.41426 5.31641 5.73734 7.75732 5.73734C10.4982 5.73734 13.0482 6.58349 15.2573 8.01426V26.6296C17.6028 25.0296 20.1664 24.1989 22.7573 24.1989C24.3801 24.1989 25.9755 24.522 27.5301 25.1527V6.64503ZM7.75732 24.1989C9.38005 24.1989 10.9755 24.522 12.5301 25.1527V9.92195C11.0164 9.19888 9.39369 8.81426 7.75732 8.81426C6.09369 8.81426 4.49823 9.18349 2.9846 9.90657V25.1527C4.53914 24.522 6.1346 24.1989 7.75732 24.1989Z" fill="#585856"/>
<path d="M24.8028 0.352722L17.9846 8.04503V22.6604L24.8028 15.7373V0.352722Z" fill="#F57521"/>
</svg>
