<svg width="31" height="31" viewBox="0 0 31 31" fill="none" xmlns="http://www.w3.org/2000/svg">
<path fill-rule="evenodd" clip-rule="evenodd" d="M2.50021 23.9491C2.50021 20.4596 5.18521 17.6333 8.50021 17.6333C11.8152 17.6333 14.5002 20.4596 14.5002 23.9491C14.5002 27.4386 11.8152 30.2649 8.50021 30.2649C5.18521 30.2649 2.50021 27.4386 2.50021 23.9491ZM5.50021 23.9491C5.50021 25.6859 6.85021 27.107 8.50021 27.107C10.1502 27.107 11.5002 25.6859 11.5002 23.9491C11.5002 22.2123 10.1502 20.7912 8.50021 20.7912C6.85021 20.7912 5.50021 22.2123 5.50021 23.9491ZM29.4702 30.2649H17.4702V17.6333H29.4702V30.2649ZM20.4702 27.107H26.4702V20.7912H20.4702V27.107ZM0.970215 14.4754L8.47021 0.264893L15.9702 14.4754H0.970215ZM10.8702 11.3175L8.47021 6.77016L6.07021 11.3175H10.8702Z" fill="#585856"/>
<path fill-rule="evenodd" clip-rule="evenodd" d="M26.8452 1.05437C25.2552 1.05437 24.1302 1.93858 23.4702 2.90173C22.8102 1.93858 21.6852 1.05437 20.0952 1.05437C17.7552 1.05437 15.9702 3.07542 15.9702 5.39647C15.9702 8.55437 19.6002 10.7965 23.4702 14.4754C27.3402 10.7965 30.9702 8.55437 30.9702 5.39647C30.9702 3.07542 29.1852 1.05437 26.8452 1.05437ZM18.9702 5.39647C18.9702 6.50173 21.2952 8.36489 23.4702 10.2912C25.6452 8.36489 27.9702 6.50173 27.9702 5.39647C27.9702 4.71752 27.4452 4.21226 26.8452 4.21226C26.3802 4.21226 26.0652 4.48068 25.7502 4.79647L23.4702 7.05437L21.1902 4.79647C20.8752 4.48068 20.5602 4.21226 20.0952 4.21226C19.4952 4.21226 18.9702 4.71752 18.9702 5.39647Z" fill="#F57521"/>
</svg>
