<svg width="42" height="32" viewBox="0 0 42 32" fill="none" xmlns="http://www.w3.org/2000/svg">
<path d="M37.5043 13.808H36.7211L36.4436 13.5415C37.415 12.4159 37.9999 10.9546 37.9999 9.36492C37.9999 5.8203 35.1152 2.94708 31.5564 2.94708C27.9976 2.94708 25.1129 5.8203 25.1129 9.36492C25.1129 12.9095 27.9976 15.7828 31.5564 15.7828C33.1524 15.7828 34.6195 15.2002 35.7496 14.2326L36.0173 14.5091V15.2891L39.6358 18.9471L41.1129 17.4759L37.5043 13.808ZM31.5564 13.5415C29.088 13.5415 27.3259 11.8235 27.3259 9.36492C27.3259 6.9064 29.088 5.14106 31.5564 5.14106C34.0248 5.14106 35.7496 6.9064 35.7496 9.36492C35.7496 11.8235 34.0248 13.5415 31.5564 13.5415Z" fill="#F57521"/>
<path fill-rule="evenodd" clip-rule="evenodd" d="M24.2852 8.36446H22.2004V3.83006C22.2004 2.16745 20.7115 0.807129 18.8916 0.807129H15.5828C13.763 0.807129 12.274 2.16745 12.274 3.83006V8.36446H4.00194C2.18208 8.36446 0.693115 9.72478 0.693115 11.3874V28.0135C0.693115 29.6761 2.18208 31.0365 4.00194 31.0365H30.4725C32.2923 31.0365 33.7813 29.6761 33.7813 28.0135V16.5362C33.208 16.6678 32.6101 16.7375 31.9956 16.7375C31.4743 16.7375 30.965 16.6874 30.4725 16.5918V28.0135H4.00194V11.3874H12.274C12.274 13.05 13.763 14.4103 15.5828 14.4103H18.8916C20.7115 14.4103 22.2004 13.05 22.2004 11.3874H24.5765C24.3581 10.6892 24.2405 9.94803 24.2405 9.18016C24.2405 8.90456 24.2557 8.63242 24.2852 8.36446ZM15.5828 8.36446V3.83006H18.8916V8.36446V11.3874H15.5828V8.36446ZM20.546 15.9218H27.1637V18.189H20.546V15.9218ZM20.546 20.4562H27.1637V22.7234H20.546V20.4562ZM14.7556 18.189C14.7556 19.4411 13.6445 20.4562 12.274 20.4562C10.9034 20.4562 9.79237 19.4411 9.79237 18.189C9.79237 16.9368 10.9034 15.9218 12.274 15.9218C13.6445 15.9218 14.7556 16.9368 14.7556 18.189ZM15.7152 22.2397C14.6563 21.8165 13.4982 21.5898 12.274 21.5898C11.0497 21.5898 9.89164 21.8165 8.83281 22.2397C7.90634 22.6024 7.31076 23.4186 7.31076 24.3406V24.9906H17.2372V24.3406C17.2372 23.4186 16.6416 22.6024 15.7152 22.2397Z" fill="#585856"/>
</svg>
