<svg width="36" height="31" viewBox="0 0 36 31" fill="none" xmlns="http://www.w3.org/2000/svg">
<path d="M6.29655 22.1417C7.90738 22.1417 9.21322 20.7279 9.21322 18.9838C9.21322 17.2398 7.90738 15.8259 6.29655 15.8259C4.68572 15.8259 3.37988 17.2398 3.37988 18.9838C3.37988 20.7279 4.68572 22.1417 6.29655 22.1417Z" fill="#585856"/>
<path d="M2.2423 24.6365C1.16313 25.1418 0.463135 26.2786 0.463135 27.5575V30.0365H7.02563V27.4944C7.02563 26.1839 7.36105 24.9523 7.94438 23.8786C7.4048 23.7839 6.86522 23.7207 6.29647 23.7207C4.85272 23.7207 3.48188 24.0523 2.2423 24.6365Z" fill="#585856"/>
<path d="M29.6298 22.1417C31.2406 22.1417 32.5465 20.7279 32.5465 18.9838C32.5465 17.2398 31.2406 15.8259 29.6298 15.8259C28.019 15.8259 26.7131 17.2398 26.7131 18.9838C26.7131 20.7279 28.019 22.1417 29.6298 22.1417Z" fill="#585856"/>
<path d="M33.684 24.6365C32.4444 24.0523 31.0736 23.7207 29.6298 23.7207C29.0611 23.7207 28.5215 23.7839 27.9819 23.8786C28.5653 24.9523 28.9007 26.1839 28.9007 27.4944V30.0365H35.4632V27.5575C35.4632 26.2786 34.7632 25.1418 33.684 24.6365Z" fill="#585856"/>
<path d="M24.1465 23.1681C22.4402 22.3471 20.3402 21.7471 17.9631 21.7471C15.5861 21.7471 13.4861 22.3629 11.7798 23.1681C10.2048 23.926 9.21313 25.6313 9.21313 27.4944V30.0365H26.7131V27.4944C26.7131 25.6313 25.7215 23.926 24.1465 23.1681ZM12.2319 26.8786C12.3631 26.5155 12.6256 26.2155 12.9465 26.0576C14.5506 25.2839 16.2423 24.905 17.9486 24.905C19.6694 24.905 21.3465 25.2997 22.9506 26.0576C23.2861 26.2155 23.534 26.5155 23.6652 26.8786H12.2319Z" fill="#585856"/>
<path d="M13.5881 15.826C13.5881 18.447 15.5423 20.5628 17.9631 20.5628C20.384 20.5628 22.3381 18.447 22.3381 15.826C22.3381 13.2049 20.384 11.0891 17.9631 11.0891C15.5423 11.0891 13.5881 13.2049 13.5881 15.826ZM19.4215 15.826C19.4215 16.6944 18.7652 17.4049 17.9631 17.4049C17.1611 17.4049 16.5048 16.6944 16.5048 15.826C16.5048 14.9575 17.1611 14.247 17.9631 14.247C18.7652 14.247 19.4215 14.9575 19.4215 15.826Z" fill="#585856"/>
<path d="M4.0798 14.026C3.62772 12.826 3.3798 11.6576 3.3798 10.4576C3.3798 6.38387 6.32563 3.19439 10.0881 3.19439C13.9965 3.19439 15.659 5.94176 17.9631 8.86281C20.2527 5.97334 21.9006 3.19439 25.8381 3.19439C29.6006 3.19439 32.5465 6.38387 32.5465 10.4576C32.5465 11.6576 32.2986 12.826 31.8465 14.026C32.7944 14.5154 33.5673 15.3207 34.0777 16.2997C34.9527 14.4049 35.4631 12.4786 35.4631 10.4576C35.4631 4.61545 31.234 0.036499 25.8381 0.036499C22.7902 0.036499 19.8736 1.56808 17.9631 3.99966C16.0527 1.56808 13.1361 0.036499 10.0881 0.036499C4.6923 0.036499 0.463135 4.61545 0.463135 10.4576C0.463135 12.4786 0.973551 14.4049 1.86313 16.2997C2.37355 15.3207 3.14647 14.5154 4.0798 14.026Z" fill="#F57521"/>
</svg>
