<svg width="49" height="49" viewBox="0 0 49 49" fill="none" xmlns="http://www.w3.org/2000/svg">
    <path d="M20.9964 36.3356L16.1964 31.5856C15.8964 31.2987 15.7464 30.9519 15.7464 30.5454C15.7464 30.1389 15.8964 29.7856 16.1964 29.4856C16.463 29.219 16.8058 29.0856 17.2246 29.0856C17.6434 29.0856 18.0007 29.219 18.2964 29.4856L22.0464 33.1356L30.1964 24.9856C30.4964 24.6856 30.8464 24.544 31.2464 24.5606C31.6464 24.5773 31.988 24.7356 32.2714 25.0356C32.5547 25.3356 32.7047 25.6856 32.7214 26.0856C32.738 26.4856 32.5964 26.8356 32.2964 27.1356L23.0964 36.3356C22.7964 36.6356 22.4464 36.7856 22.0464 36.7856C21.6464 36.7856 21.2964 36.6356 20.9964 36.3356ZM9.39636 44.7856C8.59636 44.7856 7.89636 44.4856 7.29636 43.8856C6.69636 43.2856 6.39636 42.5856 6.39636 41.7856V10.7856C6.39636 9.98564 6.69636 9.28564 7.29636 8.68564C7.89636 8.08564 8.59636 7.78564 9.39636 7.78564H12.6464V6.38564C12.6464 5.93231 12.7997 5.55231 13.1064 5.24564C13.413 4.93898 13.793 4.78564 14.2464 4.78564C14.7139 4.78564 15.1057 4.93898 15.422 5.24564C15.7382 5.55231 15.8964 5.93231 15.8964 6.38564V7.78564H32.8964V6.38564C32.8964 5.93231 33.0497 5.55231 33.3564 5.24564C33.663 4.93898 34.043 4.78564 34.4964 4.78564C34.9639 4.78564 35.3557 4.93898 35.672 5.24564C35.9882 5.55231 36.1464 5.93231 36.1464 6.38564V7.78564H39.3964C40.1964 7.78564 40.8964 8.08564 41.4964 8.68564C42.0964 9.28564 42.3964 9.98564 42.3964 10.7856V41.7856C42.3964 42.5856 42.0964 43.2856 41.4964 43.8856C40.8964 44.4856 40.1964 44.7856 39.3964 44.7856H9.39636ZM9.39636 41.7856H39.3964V20.2856H9.39636V41.7856ZM9.39636 17.2856H39.3964V10.7856H9.39636V17.2856Z" fill="#F57521"/>
</svg>
