<svg width="31" height="31" viewBox="0 0 31 31" fill="none" xmlns="http://www.w3.org/2000/svg">
    <path fill-rule="evenodd" clip-rule="evenodd" d="M11.502 14.6951V18.7576L9.31447 18.2576C8.81447 18.1534 8.35093 18.169 7.92384 18.3044C7.49676 18.4399 7.07489 18.7472 6.65822 19.2263C6.24155 19.7055 6.02801 20.2159 6.01759 20.7576C6.00718 21.2992 6.15822 21.7263 6.47072 22.0388L11.627 27.1951C11.8561 27.4242 12.127 27.6065 12.4395 27.7419C12.752 27.8774 13.0853 27.9451 13.4395 27.9451H21.4395C22.0436 27.9451 22.5853 27.7524 23.0645 27.3669C23.5436 26.9815 23.8353 26.4867 23.9395 25.8826L25.0645 19.0701C25.1686 18.5284 25.1009 18.0024 24.8613 17.4919C24.6218 16.9815 24.252 16.6117 23.752 16.3826L19.127 14.1326C19.0228 14.0909 18.9291 14.0492 18.8457 14.0076C18.8393 14.0044 18.8328 14.0013 18.8263 13.9983C18.8222 13.9965 18.8181 13.9947 18.814 13.9929C18.7388 13.961 18.6556 13.9451 18.5645 13.9451H17.752V12.4451V8.57007C17.752 7.69507 17.4499 6.95549 16.8457 6.35132C16.2416 5.74715 15.502 5.44507 14.627 5.44507C13.752 5.44507 13.0124 5.74715 12.4082 6.35132C11.8041 6.95549 11.502 7.69507 11.502 8.57007V12.4451V13.6638V14.6951ZM21.9707 26.0701H13.1895L7.84572 20.7263L8.56447 20.0076L13.377 21.0388V8.57007C13.377 8.19507 13.4916 7.89299 13.7207 7.66382C13.9499 7.43465 14.252 7.32007 14.627 7.32007C15.002 7.32007 15.3041 7.43465 15.5332 7.66382C15.7624 7.89299 15.877 8.19507 15.877 8.57007V15.4451H17.5957L23.3145 18.2888L21.9707 26.0701Z" fill="black"/>
    <path d="M19.4863 3.67944C18.1426 2.35653 16.5228 1.69507 14.627 1.69507C12.7311 1.69507 11.1113 2.35653 9.76759 3.67944C8.42384 5.00236 7.75197 6.61174 7.75197 8.50757C7.75197 9.82007 8.0853 11.0284 8.75197 12.1326C9.41864 13.2367 10.3353 14.0909 11.502 14.6951V13.6638V12.4451C10.8978 11.9659 10.4343 11.3826 10.1113 10.6951C9.78843 10.0076 9.62697 9.2784 9.62697 8.50757C9.62697 7.13257 10.1166 5.9659 11.0957 5.00757C12.0749 4.04924 13.252 3.57007 14.627 3.57007C16.002 3.57007 17.1791 4.04924 18.1582 5.00757C19.1374 5.9659 19.627 7.13257 19.627 8.50757C19.627 9.2784 19.4655 10.0076 19.1426 10.6951C18.8197 11.3826 18.3561 11.9659 17.752 12.4451V13.9451H18.5645C18.6556 13.9451 18.7388 13.961 18.814 13.9929L18.8263 13.9983C19.6747 13.3334 20.3323 12.524 20.7988 11.5701C21.2676 10.6117 21.502 9.5909 21.502 8.50757C21.502 6.61174 20.8301 5.00236 19.4863 3.67944Z" fill="#F57521"/>
</svg>
