<svg width="49" height="49" viewBox="0 0 49 49" fill="none" xmlns="http://www.w3.org/2000/svg">
    <path d="M11.8876 42.0308C11.4601 42.0308 11.1047 41.887 10.8214 41.5995C10.538 41.312 10.3964 40.9558 10.3964 40.5308V9.53076C10.3964 9.10576 10.5401 8.74951 10.8276 8.46201C11.1151 8.17451 11.4714 8.03076 11.8964 8.03076H26.3464C26.6964 8.03076 27.0089 8.1391 27.2839 8.35576C27.5589 8.57243 27.7297 8.8641 27.7964 9.23076L28.4964 12.3308H38.8964C39.3214 12.3308 39.6776 12.4745 39.9651 12.762C40.2526 13.0495 40.3964 13.4058 40.3964 13.8308V29.3308C40.3964 29.7558 40.2526 30.112 39.9651 30.3995C39.6776 30.687 39.3214 30.8308 38.8964 30.8308H28.7964C28.4464 30.8308 28.1339 30.7308 27.8589 30.5308C27.5839 30.3308 27.413 30.0474 27.3464 29.6808L26.6464 26.5808H13.3964V40.5308C13.3964 40.9558 13.2518 41.312 12.9626 41.5995C12.6734 41.887 12.3151 42.0308 11.8876 42.0308ZM30.1464 27.8308H37.3964V15.3308H25.9464L24.9964 11.0308H13.3964V23.5808H29.1964L30.1464 27.8308Z" fill="#F57521"/>
    <path d="M30.1464 27.8308H37.3964V15.3308H25.9464L24.9964 11.0308H13.3964V23.5808H29.1964L30.1464 27.8308Z" fill="#F57521"/>
</svg>