<svg width="31" height="31" viewBox="0 0 31 31" fill="none" xmlns="http://www.w3.org/2000/svg">
<circle cx="15.2676" cy="15.4575" r="15" fill="#F57521"/>
<path d="M15.164 8.40895C15.924 8.40895 16.5773 8.50229 17.124 8.68895C17.684 8.87562 18.1507 9.13562 18.524 9.46895C18.8973 9.78895 19.1707 10.169 19.344 10.609C19.5307 11.049 19.624 11.5156 19.624 12.009V12.209C19.624 12.969 19.464 13.669 19.144 14.309C18.824 14.949 18.324 15.6223 17.644 16.329L13.044 21.169H19.564C19.804 21.169 19.9773 21.2556 20.084 21.429C20.204 21.589 20.264 21.7823 20.264 22.009C20.264 22.2356 20.204 22.4356 20.084 22.609C19.9773 22.769 19.804 22.849 19.564 22.849H11.864C11.344 22.849 10.9707 22.7623 10.744 22.589C10.5173 22.4156 10.404 22.1423 10.404 21.769C10.404 21.5956 10.4507 21.429 10.544 21.269C10.6373 21.109 10.7907 20.9156 11.004 20.689L15.884 15.529C16.244 15.1556 16.5307 14.829 16.744 14.549C16.9707 14.2556 17.1507 13.9823 17.284 13.729C17.4173 13.4756 17.504 13.229 17.544 12.989C17.5973 12.749 17.624 12.4956 17.624 12.229V12.129C17.624 11.5423 17.4173 11.0756 17.004 10.729C16.604 10.3823 16.004 10.209 15.204 10.209C14.5373 10.209 13.9773 10.349 13.524 10.629C13.0707 10.8956 12.664 11.289 12.304 11.809C12.1573 12.009 11.9707 12.129 11.744 12.169C11.5307 12.1956 11.3173 12.1356 11.104 11.989C10.8907 11.8423 10.7507 11.6556 10.684 11.429C10.6307 11.2023 10.6773 10.9756 10.824 10.749C11.2507 10.0823 11.8173 9.52895 12.524 9.08895C13.244 8.63562 14.124 8.40895 15.164 8.40895Z" fill="white"/>
</svg>
