<svg width="31" height="31" viewBox="0 0 31 31" fill="none" xmlns="http://www.w3.org/2000/svg">
<circle cx="15.2676" cy="15.7412" r="15" fill="#F57521"/>
<path d="M16.584 8.81265C16.8907 8.81265 17.1373 8.87931 17.324 9.01265C17.524 9.14598 17.624 9.36598 17.624 9.67265V22.3926C17.624 22.686 17.524 22.8993 17.324 23.0326C17.124 23.166 16.8907 23.2326 16.624 23.2326C16.3573 23.2326 16.124 23.166 15.924 23.0326C15.724 22.8993 15.624 22.686 15.624 22.3926V11.1726L12.624 13.0126C12.3707 13.1593 12.1307 13.186 11.904 13.0926C11.6773 12.9993 11.4973 12.8393 11.364 12.6126C11.2573 12.3993 11.2173 12.1793 11.244 11.9526C11.284 11.7126 11.424 11.526 11.664 11.3926L15.244 9.25265C15.5107 9.10598 15.7507 8.99931 15.964 8.93265C16.1773 8.85265 16.384 8.81265 16.584 8.81265Z" fill="white"/>
</svg>
