<svg width="31" height="31" viewBox="0 0 31 31" fill="none" xmlns="http://www.w3.org/2000/svg">
<circle cx="15.2676" cy="15.1738" r="15" fill="#F57521"/>
<path d="M14.904 8.12526C15.664 8.12526 16.3307 8.2186 16.904 8.40526C17.4773 8.59193 17.9507 8.85193 18.324 9.18526C18.7107 9.5186 18.9973 9.90526 19.184 10.3453C19.384 10.7853 19.484 11.2519 19.484 11.7453V11.8453C19.484 12.1919 19.4307 12.5319 19.324 12.8653C19.2307 13.1986 19.084 13.5186 18.884 13.8253C18.684 14.1186 18.424 14.3853 18.104 14.6253C17.7973 14.8519 17.4307 15.0319 17.004 15.1653C17.4307 15.2319 17.8307 15.3519 18.204 15.5253C18.5773 15.6853 18.8973 15.8986 19.164 16.1653C19.444 16.4319 19.664 16.7586 19.824 17.1453C19.984 17.5186 20.064 17.9453 20.064 18.4253V18.6253C20.064 19.1719 19.9573 19.6986 19.744 20.2053C19.544 20.7119 19.2307 21.1586 18.804 21.5453C18.3907 21.9186 17.864 22.2186 17.224 22.4453C16.5973 22.6719 15.864 22.7853 15.024 22.7853C13.424 22.7853 12.0573 22.3986 10.924 21.6253C10.6707 21.4653 10.524 21.2653 10.484 21.0253C10.444 20.7719 10.4973 20.5319 10.644 20.3053C10.7907 20.0653 10.9707 19.9186 11.184 19.8653C11.4107 19.8119 11.644 19.8586 11.884 20.0053C12.3773 20.3386 12.864 20.5853 13.344 20.7453C13.824 20.9053 14.3507 20.9853 14.924 20.9853C15.484 20.9853 15.964 20.9186 16.364 20.7853C16.764 20.6519 17.084 20.4786 17.324 20.2653C17.5773 20.0386 17.7573 19.7786 17.864 19.4853C17.984 19.1919 18.044 18.8853 18.044 18.5653V18.4053C18.044 17.9653 17.964 17.5986 17.804 17.3053C17.644 17.0119 17.424 16.7786 17.144 16.6053C16.864 16.4186 16.5307 16.2853 16.144 16.2053C15.7573 16.1253 15.3373 16.0853 14.884 16.0853H13.744C13.4907 16.0853 13.304 15.9986 13.184 15.8253C13.0773 15.6519 13.024 15.4453 13.024 15.2053C13.024 14.9653 13.0773 14.7653 13.184 14.6053C13.304 14.4319 13.4907 14.3453 13.744 14.3453H14.724C15.5373 14.3453 16.204 14.1586 16.724 13.7853C17.2573 13.4119 17.524 12.8119 17.524 11.9853V11.9253C17.524 11.3119 17.304 10.8186 16.864 10.4453C16.4373 10.0719 15.784 9.88526 14.904 9.88526C14.344 9.88526 13.8573 9.98526 13.444 10.1853C13.044 10.3853 12.6707 10.6786 12.324 11.0653C12.1373 11.2519 11.924 11.3386 11.684 11.3253C11.4573 11.2986 11.264 11.1919 11.104 11.0053C10.9307 10.8186 10.8507 10.6186 10.864 10.4053C10.8773 10.1786 10.9573 9.97193 11.104 9.78526C11.4907 9.30526 12.004 8.91193 12.644 8.60526C13.2973 8.28526 14.0507 8.12526 14.904 8.12526Z" fill="white"/>
</svg>
