<svg width="49" height="49" viewBox="0 0 49 49" fill="none" xmlns="http://www.w3.org/2000/svg">
    <g clip-path="url(#clip0_1_63)">
        <path d="M44.6902 18.3633V16.3633C44.6902 15.2633 43.7902 14.3633 42.6902 14.3633C41.5902 14.3633 40.6902 15.2633 40.6902 16.3633V18.3633H38.6902C37.5902 18.3633 36.6902 19.2633 36.6902 20.3633C36.6902 21.4633 37.5902 22.3633 38.6902 22.3633H40.6902V24.3633C40.6902 25.4633 41.5902 26.3633 42.6902 26.3633C43.7902 26.3633 44.6902 25.4633 44.6902 24.3633V22.3633H46.6902C47.7902 22.3633 48.6902 21.4633 48.6902 20.3633C48.6902 19.2633 47.7902 18.3633 46.6902 18.3633H44.6902Z" fill="#351D1F"/>
        <path d="M16.6902 24.3633C21.1102 24.3633 24.6902 20.7833 24.6902 16.3633C24.6902 11.9433 21.1102 8.36328 16.6902 8.36328C12.2702 8.36328 8.69019 11.9433 8.69019 16.3633C8.69019 20.7833 12.2702 24.3633 16.6902 24.3633Z" fill="#351D1F"/>
        <path d="M16.6902 26.3633C11.3502 26.3633 0.690186 29.0433 0.690186 34.3633V40.3633H32.6902V34.3633C32.6902 29.0433 22.0302 26.3633 16.6902 26.3633Z" fill="#351D1F"/>
        <path d="M25.7102 8.46326C27.5502 10.5833 28.6902 13.3433 28.6902 16.3633C28.6902 19.3833 27.5502 22.1433 25.7102 24.2633C29.6302 23.7633 32.6902 20.4433 32.6902 16.3633C32.6902 12.2833 29.6302 8.96326 25.7102 8.46326Z" fill="#351D1F"/>
        <path d="M33.7502 28.0233C35.5302 29.6833 36.6902 31.7633 36.6902 34.3633V40.3633H40.6902V34.3633C40.6902 31.4633 37.5102 29.3433 33.7502 28.0233Z" fill="#351D1F"/>
    </g>
    <defs>
        <clipPath id="clip0_1_63">
            <rect width="48" height="48" fill="white" transform="translate(0.690186 0.363281)"/>
        </clipPath>
    </defs>
</svg>
