<svg width="31" height="31" viewBox="0 0 31 31" fill="none" xmlns="http://www.w3.org/2000/svg">
    <circle cx="15.6204" cy="15.0312" r="15" fill="#F57521"/>
    <path d="M11.0168 10.5427C11.2301 10.2494 11.4635 9.96935 11.7168 9.70268C11.9835 9.43602 12.2835 9.20935 12.6168 9.02269C12.9635 8.82269 13.3435 8.66935 13.7568 8.56269C14.1835 8.44268 14.6701 8.38268 15.2168 8.38268C15.8835 8.38268 16.4835 8.46935 17.0168 8.64269C17.5501 8.81602 18.0035 9.06269 18.3768 9.38269C18.7635 9.68935 19.0568 10.0694 19.2568 10.5227C19.4701 10.9627 19.5768 11.4494 19.5768 11.9827V12.1827C19.5768 12.4627 19.5435 12.7627 19.4768 13.0827C19.4101 13.4027 19.2901 13.7094 19.1168 14.0027C18.9435 14.296 18.7101 14.5694 18.4168 14.8227C18.1235 15.076 17.7568 15.2827 17.3168 15.4427C18.2901 15.616 19.0168 16.0027 19.4968 16.6027C19.9901 17.2027 20.2368 17.9227 20.2368 18.7627V19.0627C20.2368 19.596 20.1368 20.116 19.9368 20.6227C19.7501 21.116 19.4501 21.5627 19.0368 21.9627C18.6368 22.3494 18.1168 22.656 17.4768 22.8827C16.8368 23.1227 16.0768 23.2427 15.1968 23.2427C14.3568 23.2427 13.5435 23.1094 12.7568 22.8427C11.9835 22.5894 11.2568 22.1894 10.5768 21.6427L11.5568 20.0627C12.2635 20.5694 12.8901 20.9294 13.4368 21.1427C13.9835 21.3427 14.5701 21.4427 15.1968 21.4427C15.7168 21.4427 16.1701 21.3827 16.5568 21.2627C16.9435 21.1294 17.2635 20.956 17.5168 20.7427C17.7701 20.5294 17.9568 20.2827 18.0768 20.0027C18.1968 19.7094 18.2568 19.4027 18.2568 19.0827V18.8227C18.2568 18.3427 18.1768 17.9494 18.0168 17.6427C17.8701 17.3227 17.6635 17.0694 17.3968 16.8827C17.1301 16.696 16.8101 16.5627 16.4368 16.4827C16.0768 16.4027 15.6901 16.3627 15.2768 16.3627H13.4968V14.6427H15.1968C15.6501 14.6427 16.0301 14.576 16.3368 14.4427C16.6435 14.296 16.8901 14.1094 17.0768 13.8827C17.2635 13.656 17.3968 13.396 17.4768 13.1027C17.5701 12.8094 17.6168 12.5094 17.6168 12.2027V12.0427C17.6168 11.7227 17.5501 11.4494 17.4168 11.2227C17.2968 10.9827 17.1301 10.7827 16.9168 10.6227C16.7035 10.4627 16.4501 10.3427 16.1568 10.2627C15.8635 10.1827 15.5568 10.1427 15.2368 10.1427C14.6368 10.1427 14.1168 10.256 13.6768 10.4827C13.2368 10.7094 12.8235 11.076 12.4368 11.5827L11.0168 10.5427Z" fill="white"/>
</svg>
