<svg width="31" height="31" viewBox="0 0 31 31" fill="none" xmlns="http://www.w3.org/2000/svg">
    <circle cx="15.8232" cy="15.4788" r="15" fill="#F57521"/>
    <path d="M16.3797 15.9702C16.793 15.5169 17.1197 15.1235 17.3597 14.7902C17.5997 14.4569 17.7797 14.1635 17.8997 13.9102C18.0197 13.6435 18.093 13.4102 18.1197 13.2102C18.1597 12.9969 18.1797 12.7969 18.1797 12.6102V12.4502C18.1797 11.8769 17.953 11.4302 17.4997 11.1102C17.0597 10.7769 16.4597 10.6102 15.6997 10.6102C15.433 10.6102 15.1597 10.6435 14.8797 10.7102C14.613 10.7635 14.3463 10.8702 14.0797 11.0302C13.813 11.1902 13.553 11.4102 13.2997 11.6902C13.0463 11.9569 12.7997 12.2969 12.5597 12.7102L11.0397 11.7302C11.213 11.4235 11.4263 11.1035 11.6797 10.7702C11.933 10.4235 12.2397 10.1102 12.5997 9.83019C12.973 9.53686 13.4063 9.29686 13.8997 9.11019C14.4063 8.92353 14.993 8.83019 15.6597 8.83019C16.393 8.83019 17.0397 8.92353 17.5997 9.11019C18.1597 9.28353 18.6263 9.53019 18.9997 9.85019C19.3863 10.1702 19.673 10.5569 19.8597 11.0102C20.0597 11.4502 20.1597 11.9302 20.1597 12.4502V12.6502C20.1597 13.4369 19.953 14.1769 19.5397 14.8702C19.1263 15.5635 18.593 16.2569 17.9397 16.9502L13.4397 21.7502H20.6797V23.4702H10.9997V21.8102L16.3797 15.9702Z" fill="white"/>
</svg>
